<svg width="17" height="22" viewBox="0 0 17 22" fill="none" xmlns="http://www.w3.org/2000/svg">
<path d="M8.5 0.5C4.09353 0.5 0.5 3.98833 0.5 8.318C0.5 11.309 2.31867 14.5913 4.13196 17.07C5.04801 18.3221 5.98297 19.3964 6.72893 20.161C7.10126 20.5426 7.43177 20.8525 7.69338 21.0706C7.82315 21.1787 7.94441 21.2714 8.05069 21.3399C8.10342 21.3738 8.16188 21.408 8.22241 21.4353C8.27076 21.4572 8.37373 21.5 8.5 21.5C8.62627 21.5 8.72924 21.4572 8.77759 21.4353C8.83812 21.408 8.89658 21.3738 8.94931 21.3399C9.05559 21.2714 9.17685 21.1787 9.30662 21.0706C9.56823 20.8525 9.89874 20.5426 10.2711 20.161C11.017 19.3964 11.952 18.3221 12.868 17.07C14.6813 14.5913 16.5 11.309 16.5 8.318C16.5 3.98833 12.9065 0.5 8.5 0.5Z" fill="#FF7373" stroke="#FF7373" stroke-miterlimit="10" stroke-linecap="round"/>
</svg>
