<svg width="32" height="42" viewBox="0 0 32 42" fill="none" xmlns="http://www.w3.org/2000/svg">
<path d="M16 0.5C7.45153 0.5 0.5 7.26433 0.5 15.636C0.5 21.448 4.05067 27.9008 7.66746 32.8447C9.48526 35.3295 11.3398 37.4601 12.8157 38.9729C13.553 39.7286 14.2011 40.3355 14.7069 40.757C14.9587 40.967 15.1838 41.138 15.3722 41.2594C15.466 41.3199 15.5602 41.3741 15.6506 41.415C15.7288 41.4503 15.8559 41.5 16 41.5C16.1441 41.5 16.2712 41.4503 16.3494 41.415C16.4398 41.3741 16.534 41.3199 16.6278 41.2594C16.8162 41.138 17.0413 40.967 17.2931 40.757C17.7989 40.3355 18.447 39.7286 19.1843 38.9729C20.6602 37.4601 22.5147 35.3295 24.3325 32.8447C27.9493 27.9008 31.5 21.448 31.5 15.636C31.5 7.26433 24.5485 0.5 16 0.5Z" fill="#FF7373" stroke="#FF7373" stroke-miterlimit="10" stroke-linecap="round"/>
</svg>
