<svg width="49" height="64" viewBox="0 0 49 64" fill="none" xmlns="http://www.w3.org/2000/svg">
<path d="M24.5 1C11.5451 1 1 11.2527 1 23.954C1 32.7569 6.36933 42.4922 11.7994 49.9147C14.5333 53.6517 17.3228 56.8566 19.5447 59.1339C20.6543 60.2712 21.6329 61.188 22.4003 61.8276C22.7819 62.1457 23.1282 62.4094 23.4229 62.5993C23.5694 62.6937 23.722 62.7822 23.873 62.8503C23.9996 62.9075 24.2296 63 24.5 63C24.7704 63 25.0004 62.9075 25.127 62.8503C25.278 62.7822 25.4306 62.6937 25.5771 62.5993C25.8718 62.4094 26.2181 62.1457 26.5997 61.8276C27.3671 61.188 28.3457 60.2712 29.4553 59.1339C31.6772 56.8566 34.4667 53.6517 37.2006 49.9147C42.6307 42.4922 48 32.7569 48 23.954C48 11.2527 37.4549 1 24.5 1Z" fill="#CA0D0D" stroke="#CA0D0D" stroke-width="2" stroke-miterlimit="10" stroke-linecap="round"/>
<rect x="10" y="10" width="30.0714" height="30.0714" fill="#CA0D0D"/>
<path d="M15.9732 32.8044C18.8332 32.8044 21.1518 30.4859 21.1518 27.6258C21.1518 24.7658 18.8332 22.4473 15.9732 22.4473C13.1131 22.4473 10.7946 24.7658 10.7946 27.6258C10.7946 30.4859 13.1131 32.8044 15.9732 32.8044Z" stroke="#ECEDEB" stroke-width="1.5" stroke-linecap="round" stroke-linejoin="round"/>
<path d="M34.0982 32.8044C36.9582 32.8044 39.2768 30.4859 39.2768 27.6258C39.2768 24.7658 36.9582 22.4473 34.0982 22.4473C31.2381 22.4473 28.9196 24.7658 28.9196 27.6258C28.9196 30.4859 31.2381 32.8044 34.0982 32.8044Z" stroke="#ECEDEB" stroke-width="1.5" stroke-linecap="round" stroke-linejoin="round"/>
<path d="M15.9732 27.6254L19.8571 17.2683L17.2678 15.9736" stroke="#ECEDEB" stroke-width="1.5" stroke-linecap="round" stroke-linejoin="round"/>
<path d="M19.8571 18.959L26.3303 28.9203L28.9196 17.2686" stroke="#ECEDEB" stroke-width="1.5" stroke-linecap="round" stroke-linejoin="round"/>
<path d="M19.8571 18.5625L27.625 20.5045" stroke="#ECEDEB" stroke-width="1.5" stroke-linecap="round" stroke-linejoin="round"/>
<path d="M28.2723 21.1523L34.0982 27.6256L26.3303 28.2729" stroke="#ECEDEB" stroke-width="1.5" stroke-linecap="round" stroke-linejoin="round"/>
<path d="M27.625 17.2686H30.4991" stroke="#ECEDEB" stroke-width="1.5" stroke-linecap="round" stroke-linejoin="round"/>
<rect x="10" y="10" width="30.0714" height="30.0714" stroke="#CA0D0D"/>
</svg>
