<svg width="25" height="32" viewBox="0 0 25 32" fill="none" xmlns="http://www.w3.org/2000/svg">
<path d="M12.25 0.5C5.77253 0.5 0.5 5.62633 0.5 11.977C0.5 16.3785 3.18467 21.2461 5.89971 24.9573C7.26664 26.8258 8.66141 28.4283 9.77234 29.5669C10.3272 30.1356 10.8164 30.594 11.2001 30.9138C11.3909 31.0728 11.5641 31.2047 11.7114 31.2996C11.7847 31.3469 11.861 31.3911 11.9365 31.4252C11.9998 31.4537 12.1148 31.5 12.25 31.5C12.3852 31.5 12.5002 31.4537 12.5635 31.4252C12.639 31.3911 12.7153 31.3469 12.7886 31.2996C12.9359 31.2047 13.1091 31.0728 13.2999 30.9138C13.6836 30.594 14.1728 30.1356 14.7277 29.5669C15.8386 28.4283 17.2334 26.8258 18.6003 24.9573C21.3153 21.2461 24 16.3785 24 11.977C24 5.62633 18.7275 0.5 12.25 0.5Z" fill="#FF7373" stroke="#FF7373" stroke-miterlimit="10" stroke-linecap="round"/>
</svg>
