<svg width="222" height="143" viewBox="0 0 222 143" fill="none" xmlns="http://www.w3.org/2000/svg">
<g clip-path="url(#clip0_2230_191447)">
<path d="M166.61 63.9002C158.39 59.9702 145.79 56.1802 134.58 52.2402C123.37 48.3002 110.31 45.7102 105.44 44.8202C100.56 43.9302 88.0904 42.0702 85.8704 45.9602C85.8704 45.9602 83.7104 48.7302 87.2204 52.7002C90.3404 56.2202 92.8804 57.4902 97.7804 60.0402C102.69 62.5902 119.12 68.6802 123.84 70.1502C128.56 71.6202 144.17 76.6202 155.3 77.2902C166.43 77.9602 169.27 77.0902 171.42 76.4302C173.57 75.7702 173.93 71.8602 174.03 70.4802C174.14 69.0902 173.09 66.9902 166.61 63.9002ZM156.76 70.5502C151.89 70.4102 140.96 68.7602 129.06 65.3002C117.16 61.8402 107.3 58.8902 102.14 56.2302C96.9804 53.5702 91.4404 51.3802 93.4004 48.1802C94.1504 46.9502 100.62 47.0502 104.85 47.7402C109.08 48.4302 132 54.4602 134.74 55.5102C137.48 56.5502 145.67 59.4202 147.34 60.0802C149 60.7402 158.54 63.3102 161.89 65.0902C165.24 66.8702 165.58 67.9002 165.58 69.0802C165.58 70.2602 161.18 70.6702 156.76 70.5402V70.5502Z" fill="#383838" stroke="#252526" stroke-linecap="round" stroke-linejoin="round"/>
<path d="M23.7507 37.97C23.7507 37.97 20.4707 57.92 18.1707 67.55C15.8707 77.18 11.4407 99.15 11.4407 99.15L6.9707 98.42C6.9707 98.42 9.3507 83.22 11.5907 69.4C13.8307 55.59 19.2207 37 19.2207 37L23.7607 37.97H23.7507Z" fill="#ECEDEB" stroke="#252526" stroke-linecap="round" stroke-linejoin="round"/>
<path d="M92.3602 100.26C100.75 102.38 112.76 105.34 119.74 107.46C132.9 111.45 139.92 112.22 143.74 112.8C147.56 113.37 148.41 112.76 148.82 112.01C149.23 111.26 148.46 110.29 143.15 109.04C138.27 107.89 96.1402 96.5 87.1602 93.79L92.3602 100.27V100.26Z" fill="#ECEDEB" stroke="#252526" stroke-linecap="round" stroke-linejoin="round"/>
<path d="M161.122 105.23C161.653 103.001 155.79 99.694 148.027 97.8445C140.264 95.9951 133.54 96.3032 133.009 98.5328C132.477 100.762 138.34 104.069 146.103 105.919C153.867 107.768 160.591 107.46 161.122 105.23Z" fill="#ECEDEB" stroke="#252526" stroke-linecap="round" stroke-linejoin="round"/>
<path d="M25.6001 66.9601C21.0401 65.8901 18.0801 67.9001 18.0801 67.9001L20.4901 56.3501C20.4901 56.3501 21.0901 59.0801 26.9401 61.2901L25.6001 66.9601Z" fill="#ECEDEB" stroke="#252526" stroke-linecap="round" stroke-linejoin="round"/>
<path d="M148.55 95.5801L147.6 100.67" stroke="#252526" stroke-linecap="round" stroke-linejoin="round"/>
<path d="M146.43 105.91L145.48 111" stroke="#252526" stroke-linecap="round" stroke-linejoin="round"/>
<path d="M149.08 85.4299C155.5 85.2999 155.57 85.2999 155.99 83.1499C156.31 81.5099 153.65 77.0299 152.54 76.4199C151.43 75.8099 147.75 75.7399 147.75 75.7399L87.9805 71.6899L103.55 76.8699C103.55 76.8699 114.95 77.2999 124.07 79.1099C128.68 80.0299 133.74 81.2799 138.19 82.4499C144.27 84.0499 149.1 85.4199 149.1 85.4199L149.08 85.4299Z" fill="#ECEDEB" stroke="#252526" stroke-linecap="round" stroke-linejoin="round"/>
<path d="M35.8995 45.82C36.9095 43.69 38.0095 41.38 38.1695 39.65C38.3295 37.92 38.5695 36.19 40.2195 35.55C41.8695 34.91 44.1095 36.31 45.1595 36.84C46.2095 37.37 46.4995 38.72 46.4495 40.28C46.3995 41.84 46.2395 43.68 44.7095 45.46C43.1795 47.24 39.4195 50.6 37.9595 51.47C36.4995 52.34 34.5895 53.1 34.4995 51.04C34.4095 48.98 34.8595 48 35.8895 45.83L35.8995 45.82Z" fill="#9C8BDC" stroke="#252526" stroke-linecap="round" stroke-linejoin="round"/>
<path d="M146.58 75.6599C146.58 75.6599 146.19 74.6799 143.29 73.8599C140.39 73.0299 79.36 54.8199 74.49 53.4199C69.62 52.0099 45.32 44.6299 45.32 44.6299C45.32 44.6299 44.79 45.4499 43.85 46.3899C42.91 47.3299 42.25 47.9399 42.25 47.9399L62.96 54.8299L70.16 57.3199L121.85 73.9799L146.57 75.6599H146.58Z" fill="#ECEDEB" stroke="#252526" stroke-linecap="round" stroke-linejoin="round"/>
<path d="M96.7207 65.8801C96.7207 65.8801 89.4307 65.5301 88.3907 65.3501C87.3507 65.1601 84.0707 61.8001 84.0707 61.8001L78.7207 60.0801C78.7207 60.0801 84.2407 65.7201 86.7507 67.3601C87.9707 68.1601 90.5507 68.0201 93.7807 68.2201C99.2907 68.5701 106.001 68.8701 106.001 68.8701L96.7207 65.8801Z" fill="#ECEDEB" stroke="#252526" stroke-linecap="round" stroke-linejoin="round"/>
<path d="M148.17 62.68C148.35 61 149.68 54.74 150.12 52.97C150.44 51.67 150.41 51.39 151.86 53.47C153.18 55.37 154.27 56.42 154.1 57.77C153.93 59.12 151.84 66.31 151.51 67.01C151.18 67.71 150.74 67.22 149.98 66.16C149.22 65.1 148.12 63.16 148.17 62.68Z" fill="#ECEDEB" stroke="#252526" stroke-linecap="round" stroke-linejoin="round"/>
<path d="M157.619 57.3999C157.619 57.3999 156.769 55.6099 155.839 54.2899C155.159 53.3299 154.399 52.0799 153.729 51.9999C153.189 51.9299 150.529 51.9699 150.529 51.9699L154.069 57.3799L157.609 57.4099" fill="#ECEDEB"/>
<path d="M157.619 57.3999C157.619 57.3999 156.769 55.6099 155.839 54.2899C155.159 53.3299 154.399 52.0799 153.729 51.9999C153.189 51.9299 150.529 51.9699 150.529 51.9699L154.069 57.3799L157.609 57.4099" stroke="#252526" stroke-linecap="round" stroke-linejoin="round"/>
<path d="M151.25 67.3501C151.25 67.3501 153.61 67.5101 154.18 67.4901C154.8 67.4801 154.88 67.4301 155.15 66.5901C155.61 65.1301 157.43 58.1401 157.58 57.6401C157.73 57.1401 157.55 57.1701 156.21 56.9601C155.56 56.8601 154.15 57.1101 154.15 57.1101L151.25 67.3401V67.3501Z" fill="#ECEDEB" stroke="#252526" stroke-linecap="round" stroke-linejoin="round"/>
<path d="M153.681 67.5099C153.681 67.5099 152.881 70.1499 152.551 70.9699C152.221 71.7899 150.571 71.2099 149.701 70.6999C148.831 70.1899 145.821 68.4999 145.821 68.4999C144.041 67.4999 143.581 67.1399 144.141 66.0299C144.701 64.9199 145.621 64.8799 146.761 65.5599C147.901 66.2399 149.441 67.2499 149.441 67.2499L149.841 65.9299L153.681 67.4899V67.5099Z" fill="#ECEDEB" stroke="#252526" stroke-linecap="round" stroke-linejoin="round"/>
<path d="M142.99 73.7799L144.01 66.9199L147.62 69.5199L146.58 75.6599L142.99 73.7799Z" fill="#ECEDEB" stroke="#252526" stroke-linecap="round" stroke-linejoin="round"/>
<path d="M133.35 55.8001C132.58 55.5301 131.74 55.2801 130.85 55.0701C126.74 54.0901 123.19 54.2601 122.91 55.4301C122.63 56.6101 125.73 58.3601 129.84 59.3401C132.28 59.9201 134.52 60.1001 136 59.9001C135.03 58.4001 134.12 56.9801 133.35 55.8001Z" fill="#ECEDEB" stroke="#252526" stroke-linecap="round" stroke-linejoin="round"/>
<path d="M117.811 62.0498C117.811 62.0498 126.121 62.7498 128.021 63.1098C129.921 63.4698 129.931 63.8298 129.811 64.3698C129.691 64.9098 127.821 64.9798 127.821 64.9798L117.811 62.0598V62.0498Z" fill="#ECEDEB" stroke="#252526" stroke-linecap="round" stroke-linejoin="round"/>
<path d="M144.78 65.3001C144.78 65.3001 133.93 52.3301 132.69 50.8301C130.81 48.5801 130.12 48.2101 128.32 48.1901C126.51 48.1701 98.4898 48.6101 95.3298 48.5601C92.1698 48.5101 91.1998 49.1801 89.8298 49.7801C88.4598 50.3801 78.5098 54.6101 78.5098 54.6101L83.8498 56.1901C83.8498 56.1901 91.6298 52.1401 92.4398 51.8301C93.2498 51.5201 126.67 50.5401 128.25 50.3701C129.83 50.2001 130.47 51.5401 131.35 52.7401C132.22 53.9301 143.37 71.3501 143.37 71.3501L144.79 65.3001H144.78Z" fill="#ECEDEB" stroke="#252526" stroke-linecap="round" stroke-linejoin="round"/>
<path d="M127.76 63.7298L128.74 59.0498" stroke="#252526" stroke-linecap="round" stroke-linejoin="round"/>
<path d="M129.4 56.5299L130.33 51.3599" stroke="#252526" stroke-linecap="round" stroke-linejoin="round"/>
<path d="M221.2 125.24C220.95 119.12 209.92 109.93 188.92 99.84C178.86 95 164.86 89.72 150.83 85.91C134.43 81.45 125.3 78.64 112.34 77.47C109.88 77.29 107.67 77.1 105.93 77.02C100.41 76.7 98.6204 76.42 94.0704 76.64C92.1704 76.74 87.3704 77.36 83.8304 78.94C79.7904 80.74 76.1304 83.14 74.5104 86.82C71.7004 93.21 75.6404 103.85 88.8204 111.93C102 120.01 132.73 136.28 173.06 140.62C213.38 144.97 221.57 134.41 221.2 125.23V125.24ZM180.19 129.1C157.18 126.82 120.37 115.62 106.21 108.46C92.0504 101.3 86.8304 93.48 89.9204 88.39C92.4804 84.17 100.32 83.66 111.64 84.38C121.51 85 126.11 85.11 132.32 86.56C144.56 89.42 155.11 92.05 167.69 96.61C194.92 106.48 207.71 116.6 208.95 121.81C210.18 127.02 203.21 131.39 180.19 129.11V129.1Z" fill="#383838" stroke="#252526" stroke-linecap="round" stroke-linejoin="round"/>
<path d="M41.3398 63.0799C41.3398 63.0799 65.6098 53.8499 67.5398 53.0399C69.4698 52.2299 70.7498 53.5699 71.2798 54.4899C71.8098 55.4099 71.6798 56.3299 70.1698 57.3199C68.6598 58.3099 53.6098 67.2799 53.6098 67.2799L41.3398 63.0799Z" fill="#ECEDEB" stroke="#252526" stroke-linecap="round" stroke-linejoin="round"/>
<path d="M29.975 1.28399L25.9048 0.527403C25.0631 0.370962 24.254 0.926413 24.0976 1.76804L17.769 35.8148C17.6125 36.6565 18.168 37.4656 19.0096 37.622L23.0799 38.3786C23.9215 38.535 24.7306 37.9796 24.887 37.138L31.2157 3.09115C31.3721 2.24953 30.8167 1.44043 29.975 1.28399Z" fill="#7A7A79" stroke="#252526" stroke-linecap="round" stroke-linejoin="round"/>
<path d="M11.1717 98.7721L6.68853 97.9387C5.96093 97.8035 5.26146 98.2837 5.12621 99.0113L0.513591 123.826C0.378345 124.554 0.85854 125.253 1.58614 125.389L6.06935 126.222C6.79694 126.357 7.49642 125.877 7.63167 125.149L12.2443 100.334C12.3795 99.6068 11.8993 98.9073 11.1717 98.7721Z" fill="#7A7A79" stroke="#252526" stroke-linecap="round" stroke-linejoin="round"/>
<path d="M73.94 93.8301C69.9 91.4701 66.2 88.2201 65.01 82.6801C65.01 82.6801 43.71 75.8101 38.24 74.1301C32.77 72.4501 27.89 70.4601 26.54 69.7901C25.19 69.1201 25.41 66.9201 26.27 63.2301C27.13 59.5501 28.73 59.3301 31.23 59.8201C33.73 60.3101 68.53 72.4601 68.53 72.4601C68.53 72.4601 78.16 68.7101 84.66 70.6401C91.16 72.5701 144.1 90.7501 146.75 91.5801C151.15 92.9601 151.61 94.1901 151.06 95.0901C150.51 95.9901 147.58 95.6701 143.01 94.5401C138.44 93.4101 91.36 78.5101 88.19 77.1901C85.02 75.8701 80.38 74.8401 78.53 77.0801C76.72 79.2901 75.68 81.6601 75.18 83.6201C74.89 84.7401 74.95 85.5501 74.97 85.9001C74.97 85.9001 73.91 87.6001 73.7 90.1401C73.56 91.8301 73.93 93.8201 73.93 93.8201L73.94 93.8301Z" fill="#ECEDEB" stroke="#252526" stroke-linecap="round" stroke-linejoin="round"/>
</g>
<defs>
<clipPath id="clip0_2230_191447">
<rect width="221.71" height="142.13" fill="white"/>
</clipPath>
</defs>
</svg>
