<svg width="266" height="238" viewBox="0 0 266 238" fill="none" xmlns="http://www.w3.org/2000/svg">
<path d="M133.325 237.121C206.599 237.121 266 202.225 266 159.178C266 116.132 206.599 81.2354 133.325 81.2354C60.0509 81.2354 0.650391 116.132 0.650391 159.178C0.650391 202.225 60.0509 237.121 133.325 237.121Z" fill="#F5F5F5"/>
<path d="M12.3979 179.23L92.8771 225.691C93.9055 226.212 95.0421 226.483 96.195 226.483C97.3478 226.483 98.4844 226.212 99.5128 225.691L251.06 138.192C252.896 137.135 252.896 135.411 251.06 134.365L170.586 87.8989C169.558 87.3779 168.421 87.1064 167.269 87.1064C166.116 87.1064 164.979 87.3779 163.951 87.8989L12.3979 175.398C10.5679 176.454 10.5679 178.173 12.3979 179.23Z" fill="#E0E0E0"/>
<path opacity="0.1" d="M156.063 118.952C164.972 118.952 172.194 114.784 172.194 109.641C172.194 104.499 164.972 100.33 156.063 100.33C147.155 100.33 139.933 104.499 139.933 109.641C139.933 114.784 147.155 118.952 156.063 118.952Z" fill="black"/>
<path d="M17.7751 163.2C16.6627 164.073 16.7684 165.313 18.1367 166.098L93.0704 209.366C93.9157 209.792 94.8492 210.014 95.7959 210.014C96.7426 210.014 97.6761 209.792 98.5214 209.366L241.72 126.684C243.105 125.883 243.222 124.62 242.042 123.747C242.744 124.281 243.323 124.961 243.737 125.74C244.152 126.518 244.394 127.377 244.445 128.258V131.862C244.397 132.809 244.124 133.73 243.65 134.551C243.177 135.372 242.515 136.069 241.72 136.585L98.5325 219.261C97.6876 219.692 96.7527 219.916 95.8043 219.916C94.8559 219.916 93.921 219.692 93.076 219.261L18.12 176.004C17.3254 175.487 16.6643 174.79 16.1906 173.97C15.717 173.149 15.4442 172.228 15.3945 171.282V167.672C15.4464 166.799 15.686 165.948 16.0968 165.176C16.5077 164.404 17.0801 163.73 17.7751 163.2Z" fill="#263238"/>
<path d="M18.1203 166.098L93.0541 209.366C93.8993 209.792 94.8328 210.014 95.7795 210.014C96.7262 210.014 97.6598 209.792 98.505 209.366L241.72 126.684C243.228 125.816 243.228 124.403 241.72 123.541L166.786 80.2675C165.942 79.8412 165.01 79.6191 164.064 79.6191C163.118 79.6191 162.185 79.8412 161.341 80.2675L18.1203 162.955C16.6352 163.823 16.6296 165.235 18.1203 166.098ZM149.822 91.4587C151.107 90.7133 152.447 91.1416 153.715 91.8925L221.852 131.234C223.137 131.974 223.142 133.181 221.852 133.932L110.375 198.303C109.649 198.669 108.848 198.86 108.036 198.86C107.223 198.86 106.422 198.669 105.697 198.303L37.588 158.961C36.292 158.216 36.292 157.009 37.588 156.269L149.822 91.4587Z" fill="#455A64"/>
<path d="M242.048 123.747C242.751 124.281 243.329 124.961 243.743 125.74C244.158 126.518 244.4 127.377 244.451 128.258V131.862C244.402 132.809 244.13 133.73 243.656 134.551C243.182 135.372 242.521 136.069 241.726 136.585L98.533 219.261C97.6921 219.711 96.7498 219.937 95.7964 219.917V210.039C96.7474 210.059 97.6877 209.835 98.5274 209.388L241.72 126.684C243.111 125.883 243.228 124.62 242.048 123.747Z" fill="#37474F"/>
<path d="M197.072 106.154C196.066 105.598 196.066 104.625 197.072 104.046C197.639 103.758 198.265 103.608 198.9 103.608C199.535 103.608 200.161 103.758 200.727 104.046C201.739 104.602 201.739 105.57 200.727 106.154C200.161 106.442 199.535 106.592 198.9 106.592C198.265 106.592 197.639 106.442 197.072 106.154Z" fill="black"/>
<path d="M62.6842 186.678C61.1233 186.709 59.5803 186.341 58.2011 185.61C56.9384 184.875 56.2432 183.885 56.2432 182.829C56.2432 181.772 56.9384 180.771 58.2011 180.047C60.6707 178.624 64.6921 178.624 67.1617 180.047C68.4299 180.782 69.1252 181.772 69.1252 182.829C69.1252 183.885 68.4299 184.892 67.1617 185.61C65.7843 186.34 64.2432 186.708 62.6842 186.678ZM62.6842 179.658C61.2471 179.63 59.8266 179.969 58.557 180.643C57.528 181.238 56.9551 182.011 56.9551 182.812C56.9551 183.613 57.5113 184.392 58.557 184.987C59.8356 185.634 61.2484 185.971 62.6814 185.971C64.1144 185.971 65.5272 185.634 66.8058 184.987C67.8403 184.392 68.4077 183.618 68.4077 182.812C68.4077 182.005 67.8514 181.238 66.8058 180.643C65.5402 179.961 64.1214 179.614 62.6842 179.636V179.658Z" fill="#E6E6E6"/>
<path d="M198.891 113.151L184.79 105.008C183.945 104.524 183.906 103.756 184.696 103.3C185.159 103.079 185.666 102.968 186.179 102.978C186.692 102.988 187.195 103.117 187.649 103.356L201.755 111.499C202.595 111.988 202.634 112.75 201.844 113.206C201.382 113.429 200.874 113.54 200.361 113.53C199.848 113.521 199.344 113.391 198.891 113.151Z" fill="black"/>
<path d="M149.821 91.4588C151.106 90.7134 152.447 91.1417 153.715 91.8926L221.852 131.234C223.137 131.974 223.142 133.181 221.852 133.932L110.374 198.303C109.649 198.669 108.848 198.86 108.036 198.86C107.223 198.86 106.422 198.669 105.697 198.303L37.5877 158.961C36.2917 158.216 36.2917 157.009 37.5877 156.269L149.821 91.4588Z" fill="#6A51CA"/>
<path d="M148.112 50.1478L146.698 50.8652L155.474 68.1555L156.887 67.438L148.112 50.1478Z" fill="#37474F"/>
<path d="M164.408 48.7604L155.848 62.5889L157.196 63.4233L165.756 49.5948L164.408 48.7604Z" fill="#37474F"/>
<path d="M154.857 47.1113V109.686C154.866 109.805 154.907 109.919 154.976 110.017C155.044 110.115 155.138 110.193 155.246 110.242C155.537 110.388 155.858 110.463 156.184 110.463C156.509 110.463 156.83 110.388 157.121 110.242C157.23 110.194 157.324 110.116 157.393 110.018C157.462 109.92 157.502 109.805 157.51 109.686V47.1113H154.857Z" fill="#37474F"/>
<path d="M153.691 40.1321C154.719 31.7873 148.787 24.1895 140.442 23.1619C132.097 22.1344 124.499 28.0661 123.472 36.4109C122.444 44.7557 128.376 52.3535 136.721 53.3811C145.066 54.4087 152.663 48.4769 153.691 40.1321Z" fill="#6A51CA"/>
<path opacity="0.15" d="M133.592 40.0481C129.22 32.5669 130.483 26.4763 131.078 25.0302C132.046 22.6774 135.85 23.0556 138.581 23.0556C141.146 23.0565 143.669 23.7053 145.916 24.942C148.163 26.1786 150.061 27.963 151.435 30.1293C152.808 32.2957 153.611 34.7738 153.77 37.3337C153.93 39.8936 153.44 42.4523 152.346 44.7722C151.252 47.092 149.59 49.0979 147.513 50.6036C145.437 52.1093 143.014 53.066 140.469 53.3849C137.924 53.7038 135.34 53.3745 132.956 52.4276C130.572 51.4807 128.466 49.9469 126.834 47.9686C131.345 49.2924 137.836 47.3123 133.592 40.0481Z" fill="black"/>
<path d="M178.401 52.1831C185.34 49.3089 188.635 41.3536 185.761 34.4145C182.887 27.4754 174.932 24.1802 167.993 27.0545C161.053 29.9287 157.758 37.884 160.633 44.8231C163.507 51.7622 171.462 55.0574 178.401 52.1831Z" fill="#6A51CA"/>
<path opacity="0.15" d="M173.195 26.0195C176.048 26.0157 178.83 26.913 181.143 28.5837C181.511 36.8936 174.469 44.9922 176.427 47.7176C178.385 50.4431 183.257 48.7689 184.948 46.455C183.749 48.5173 182.028 50.2279 179.959 51.4151C177.89 52.6023 175.545 53.2243 173.159 53.2186C170.773 53.2129 168.431 52.5798 166.368 51.3829C164.304 50.1859 162.592 48.4671 161.402 46.3992C160.213 44.3312 159.589 41.9867 159.592 39.6011C159.595 37.2155 160.226 34.8727 161.42 32.8079C162.615 30.743 164.332 29.0288 166.399 27.8373C168.466 26.6458 170.809 26.0189 173.195 26.0195Z" fill="black"/>
<path d="M156.186 49.9039C169.966 49.9039 181.138 38.7326 181.138 24.952C181.138 11.1714 169.966 0 156.186 0C142.405 0 131.234 11.1714 131.234 24.952C131.234 38.7326 142.405 49.9039 156.186 49.9039Z" fill="#6A51CA"/>
<path opacity="0.1" d="M174.308 7.81445C174.746 9.67963 174.97 11.5887 174.975 13.5046C174.975 27.2877 168.084 42.0219 149.667 42.0219C142.531 42.0219 134.093 37.3942 131.907 30.6528C132.465 33.0324 133.37 35.317 134.594 37.4331C134.766 37.7223 134.939 37.9893 135.15 38.2952V38.3342C136.041 39.7313 137.069 41.0356 138.22 42.2277L138.354 42.3723C138.537 42.5614 138.732 42.7505 138.91 42.9285L139.132 43.1399C139.316 43.3123 139.505 43.4792 139.689 43.6461L139.95 43.8741C140.134 44.0354 140.323 44.1911 140.506 44.3469L140.784 44.5638L141.374 45.0199L141.541 45.1367C141.953 45.4371 142.37 45.7208 142.798 45.9933L143.121 46.1991C143.299 46.3103 143.482 46.4105 143.677 46.5161L144.111 46.7664L144.639 47.0501L145.112 47.2948L145.64 47.5451L146.146 47.7732L146.669 48.0012L147.225 48.2182C147.392 48.2849 147.559 48.3517 147.726 48.4073L148.455 48.6576L149.105 48.8578C149.356 48.9301 149.606 49.008 149.862 49.0747L150.351 49.1916L150.986 49.3362L151.508 49.4419L152.131 49.5531L152.688 49.6365L153.322 49.7144L153.878 49.7756L154.556 49.8256L155.063 49.859H155.958H156.242C161.104 49.8422 165.856 48.4045 169.911 45.7227C173.967 43.0409 177.151 39.232 179.071 34.7646C180.99 30.2972 181.562 25.3661 180.716 20.5779C179.87 15.7897 177.642 11.3533 174.308 7.81445Z" fill="black"/>
<path d="M81.4654 42.4336C81.1209 42.1971 80.719 42.0578 80.302 42.0304C79.8851 42.003 79.4684 42.0885 79.0959 42.2778C76.871 43.2512 74.9243 46.7276 74.7796 50.0983C74.6907 52.0895 75.258 53.5746 76.198 54.2477L78.6454 56.0109C78.9884 56.2442 79.3879 56.3807 79.8019 56.4062C80.2159 56.4316 80.6292 56.345 80.9982 56.1555C83.223 55.1877 85.1698 51.7057 85.32 48.3351C85.4034 46.3605 84.8472 44.8809 83.9183 44.2024L81.4654 42.4336Z" fill="#6A51CA"/>
<path opacity="0.3" d="M81.4654 42.4336C81.1209 42.1971 80.719 42.0578 80.302 42.0304C79.8851 42.003 79.4684 42.0885 79.0959 42.2778C76.871 43.2512 74.9243 46.7276 74.7796 50.0983C74.6907 52.0895 75.258 53.5746 76.198 54.2477L78.6454 56.0109C78.9884 56.2442 79.3879 56.3807 79.8019 56.4062C80.2159 56.4316 80.6292 56.345 80.9982 56.1555C83.223 55.1877 85.1698 51.7057 85.32 48.3351C85.4034 46.3605 84.8472 44.8809 83.9183 44.2024L81.4654 42.4336Z" fill="black"/>
<path d="M84.4632 33.6182C82.7945 32.4056 80.6253 32.1887 78.2391 33.2233C74.1564 34.9865 70.452 39.9535 68.4385 45.7604C68.0325 46.9396 68.1604 48.1299 68.7389 48.5804C69.4175 49.1033 70.5855 49.8764 71.164 50.3214C71.8982 50.8776 73.044 50.0656 73.5557 48.5749C74.9685 44.4644 77.5827 40.9603 80.4528 39.7199C81.4039 39.2681 82.4786 39.1467 83.5065 39.375C83.8747 39.9031 84.172 40.4772 84.3909 41.0826C84.4666 41.3034 84.606 41.4969 84.7913 41.6388L87.2331 43.3965C87.756 43.7692 88.5458 43.4465 89.1577 42.5121C89.469 42.0508 89.6795 41.5289 89.7754 40.9807C89.8712 40.4324 89.8503 39.8701 89.7139 39.3305C89.1985 37.7647 88.2307 36.3866 86.9328 35.3703L84.4632 33.6182Z" fill="#6A51CA"/>
<path opacity="0.3" d="M84.4632 33.6182C82.7945 32.4056 80.6253 32.1887 78.2391 33.2233C74.1564 34.9865 70.452 39.9535 68.4385 45.7604C68.0325 46.9396 68.1604 48.1299 68.7389 48.5804C69.4175 49.1033 70.5855 49.8764 71.164 50.3214C71.8982 50.8776 73.044 50.0656 73.5557 48.5749C74.9685 44.4644 77.5827 40.9603 80.4528 39.7199C81.4039 39.2681 82.4786 39.1467 83.5065 39.375C83.8747 39.9031 84.172 40.4772 84.3909 41.0826C84.4666 41.3034 84.606 41.4969 84.7913 41.6388L87.2331 43.3965C87.756 43.7692 88.5458 43.4465 89.1577 42.5121C89.469 42.0508 89.6795 41.5289 89.7754 40.9807C89.8712 40.4324 89.8503 39.8701 89.7139 39.3305C89.1985 37.7647 88.2307 36.3866 86.9328 35.3703L84.4632 33.6182Z" fill="black"/>
<path d="M93.9135 30.2528C93.06 28.2971 91.7195 26.5928 90.02 25.3024C89.6028 24.9965 87.9509 23.8118 87.5448 23.5225C84.8249 21.5647 80.2862 21.0529 76.4205 22.7105C69.6401 25.6529 65.2182 29.9413 61.13 40.1813C60.635 41.4272 60.8241 42.701 61.4471 43.1904L61.9532 43.5798C62.6596 44.136 63.7554 44.8313 64.3783 45.3208C65.0847 45.877 66.1693 45.1094 66.7256 43.6966C69.4622 36.7661 74.7518 31.5043 79.7133 29.3573C82.2774 28.2448 84.6358 28.2448 86.6215 29.157C87.4712 30.0616 88.1648 31.1011 88.6739 32.2329C88.7566 32.4224 88.8869 32.5872 89.0522 32.7113C89.4082 32.9616 91.3327 34.3799 91.4773 34.4578C92.0057 34.836 92.79 34.5301 93.4018 33.5957C94.1249 32.55 94.3251 31.1149 93.9135 30.2528Z" fill="#6A51CA"/>
<path opacity="0.3" d="M93.9135 30.2528C93.06 28.2971 91.7195 26.5928 90.02 25.3024C89.6028 24.9965 87.9509 23.8118 87.5448 23.5225C84.8249 21.5647 80.2862 21.0529 76.4205 22.7105C69.6401 25.6529 65.2182 29.9413 61.13 40.1813C60.635 41.4272 60.8241 42.701 61.4471 43.1904L61.9532 43.5798C62.6596 44.136 63.7554 44.8313 64.3783 45.3208C65.0847 45.877 66.1693 45.1094 66.7256 43.6966C69.4622 36.7661 74.7518 31.5043 79.7133 29.3573C82.2774 28.2448 84.6358 28.2448 86.6215 29.157C87.4712 30.0616 88.1648 31.1011 88.6739 32.2329C88.7566 32.4224 88.8869 32.5872 89.0522 32.7113C89.4082 32.9616 91.3327 34.3799 91.4773 34.4578C92.0057 34.836 92.79 34.5301 93.4018 33.5957C94.1249 32.55 94.3251 31.1149 93.9135 30.2528Z" fill="black"/>
<path d="M85.32 48.3356C85.1698 51.673 83.2397 55.1883 80.9981 56.1561C78.7566 57.1239 77.0657 55.1994 77.2103 51.851C77.3549 48.5025 79.3072 44.9983 81.5321 44.0305C83.757 43.0627 85.4646 44.9872 85.32 48.3356Z" fill="#6A51CA"/>
<path d="M80.67 34.9691C76.5873 36.7379 72.8829 41.6993 70.875 47.5118C70.4634 48.6855 70.5913 49.8813 71.1698 50.3263C71.904 50.8825 73.0498 50.0704 73.5615 48.5798C74.9743 44.4693 77.5885 40.9651 80.4586 39.7248C83.3287 38.4844 85.7316 39.8138 86.8273 42.834C87.2278 43.9465 88.3514 43.7796 89.1634 42.5392C89.4748 42.0779 89.6853 41.5561 89.7811 41.0078C89.877 40.4596 89.856 39.8973 89.7197 39.3577C88.1567 35.0915 84.7582 33.2003 80.67 34.9691Z" fill="#6A51CA"/>
<path d="M79.4016 24.6069C74.9518 26.3868 71.8982 28.6395 69.3062 31.8934C66.9611 34.8908 65.1269 38.2548 63.8775 41.8497C63.4159 43.1067 63.1711 44.4417 64.4004 45.3205C65.1068 45.8767 66.1914 45.1091 66.7476 43.6963C69.4842 36.7659 74.7739 31.504 79.7353 29.357C84.6968 27.21 88.9074 29.2013 91.1267 33.9792C91.5828 34.9581 92.6396 34.7913 93.4239 33.5954C94.1136 32.5386 94.3027 31.1035 93.9022 30.2581C91.1879 24.4178 85.1751 22.2986 79.4016 24.6069Z" fill="#6A51CA"/>
<path d="M228.537 10.2785L217.107 3.6817C216.557 3.40053 215.949 3.25391 215.332 3.25391C214.715 3.25391 214.107 3.40053 213.558 3.6817L212.112 4.51603C211.596 4.84969 211.166 5.30084 210.857 5.83256C210.549 6.36427 210.371 6.96145 210.337 7.57523V20.7854C210.371 21.4015 210.549 22.001 210.857 22.5354C211.165 23.0698 211.595 23.524 212.112 23.8613L223.542 30.4581C224.091 30.7392 224.699 30.8859 225.316 30.8859C225.933 30.8859 226.542 30.7392 227.091 30.4581L228.537 29.6237C229.053 29.287 229.482 28.8336 229.79 28.3003C230.099 27.7669 230.277 27.1685 230.311 26.5534V13.3543C230.278 12.7383 230.1 12.1388 229.792 11.6044C229.483 11.07 229.053 10.6157 228.537 10.2785Z" fill="#6A51CA"/>
<path opacity="0.8" d="M228.537 10.2785L217.107 3.6817C216.557 3.40053 215.949 3.25391 215.332 3.25391C214.715 3.25391 214.107 3.40053 213.558 3.6817L212.112 4.51603C211.596 4.84969 211.166 5.30084 210.857 5.83256C210.549 6.36427 210.371 6.96145 210.337 7.57523V20.7854C210.371 21.4015 210.549 22.001 210.857 22.5354C211.165 23.0698 211.595 23.524 212.112 23.8613L223.542 30.4581C224.091 30.7392 224.699 30.8859 225.316 30.8859C225.933 30.8859 226.542 30.7392 227.091 30.4581L228.537 29.6237C229.053 29.287 229.482 28.8336 229.79 28.3003C230.099 27.7669 230.277 27.1685 230.311 26.5534V13.3543C230.278 12.7383 230.1 12.1388 229.792 11.6044C229.483 11.07 229.053 10.6157 228.537 10.2785Z" fill="white"/>
<path d="M223.542 13.1376L212.112 6.5631C211.133 6.00689 210.337 6.45742 210.337 7.58655V20.7856C210.371 21.4017 210.549 22.0012 210.857 22.5356C211.165 23.07 211.595 23.5242 212.112 23.8615L223.542 30.4583C224.521 31.0145 225.316 30.5639 225.316 29.4348V16.2357C225.286 15.6161 225.109 15.0124 224.8 14.474C224.492 13.9357 224.061 13.4777 223.542 13.1376Z" fill="#6A51CA"/>
<path opacity="0.7" d="M223.542 13.1376L212.112 6.5631C211.133 6.00689 210.337 6.45742 210.337 7.58655V20.7856C210.371 21.4017 210.549 22.0012 210.857 22.5356C211.165 23.07 211.595 23.5242 212.112 23.8615L223.542 30.4583C224.521 31.0145 225.316 30.5639 225.316 29.4348V16.2357C225.286 15.6161 225.109 15.0124 224.8 14.474C224.492 13.9357 224.061 13.4777 223.542 13.1376Z" fill="white"/>
<path d="M230.311 26.5537C230.276 27.1688 230.098 27.7672 229.79 28.3005C229.482 28.8339 229.052 29.2873 228.536 29.624L227.09 30.4583C226.589 30.7099 226.041 30.8529 225.481 30.8778C224.922 30.9027 224.363 30.8091 223.842 30.603C224.682 30.92 225.316 30.4472 225.316 29.4349V16.2358C225.294 15.6193 225.116 15.0185 224.798 14.4893L229.804 11.6025C230.126 12.1322 230.306 12.7355 230.327 13.3546L230.311 26.5537Z" fill="#6A51CA"/>
<path opacity="0.55" d="M230.311 26.5537C230.276 27.1688 230.098 27.7672 229.79 28.3005C229.482 28.8339 229.052 29.2873 228.536 29.624L227.09 30.4583C226.589 30.7099 226.041 30.8529 225.481 30.8778C224.922 30.9027 224.363 30.8091 223.842 30.603C224.682 30.92 225.316 30.4472 225.316 29.4349V16.2358C225.294 15.6193 225.116 15.0185 224.798 14.4893L229.804 11.6025C230.126 12.1322 230.306 12.7355 230.327 13.3546L230.311 26.5537Z" fill="white"/>
<path d="M220.322 22.221C221.139 21.3032 221.523 19.8125 221.468 18.1439C221.848 17.9884 222.174 17.7256 222.408 17.3874C222.036 17.3856 221.669 17.308 221.328 17.1594C221.537 17.0988 221.724 16.9814 221.87 16.8203C222.015 16.6591 222.113 16.4607 222.152 16.2472C221.755 16.3249 221.345 16.2981 220.961 16.1693C220.661 15.5228 220.185 14.9735 219.588 14.5841C218.375 13.8832 217.485 14.8789 217.758 16.6032C216.033 15.3813 214.684 13.7012 213.864 11.7529C213.369 12.5928 213.608 14.2059 214.42 15.4295C214.091 15.2156 213.803 14.9443 213.569 14.6286C213.587 15.257 213.729 15.8758 213.988 16.4487C214.246 17.0217 214.617 17.5374 215.077 17.9659C214.764 17.8828 214.475 17.7286 214.231 17.5154C214.44 18.624 215.067 19.6098 215.983 20.2686C215.193 20.6413 214.198 20.4355 213.202 19.7124C213.952 20.8353 214.935 21.7838 216.083 22.4935C217.941 23.567 219.371 23.2778 220.277 22.2265" fill="white"/>
<path d="M228.537 40.2033L217.107 33.6065C216.557 33.3253 215.949 33.1787 215.332 33.1787C214.715 33.1787 214.107 33.3253 213.558 33.6065L212.112 34.4353C211.596 34.7732 211.166 35.2276 210.858 35.7619C210.55 36.2961 210.372 36.8953 210.337 37.5112V50.7102C210.369 51.3259 210.546 51.9253 210.855 52.4591C211.163 52.9929 211.594 53.4458 212.112 53.7806L223.542 60.3829C224.091 60.664 224.699 60.8107 225.316 60.8107C225.933 60.8107 226.542 60.664 227.091 60.3829L228.537 59.5485C229.053 59.2113 229.483 58.757 229.792 58.2226C230.1 57.6882 230.278 57.0887 230.311 56.4727V43.2792C230.278 42.6631 230.1 42.0636 229.792 41.5292C229.483 40.9948 229.053 40.5405 228.537 40.2033Z" fill="#6A51CA"/>
<path opacity="0.8" d="M228.537 40.2033L217.107 33.6065C216.557 33.3253 215.949 33.1787 215.332 33.1787C214.715 33.1787 214.107 33.3253 213.558 33.6065L212.112 34.4353C211.596 34.7732 211.166 35.2276 210.858 35.7619C210.55 36.2961 210.372 36.8953 210.337 37.5112V50.7102C210.369 51.3259 210.546 51.9253 210.855 52.4591C211.163 52.9929 211.594 53.4458 212.112 53.7806L223.542 60.3829C224.091 60.664 224.699 60.8107 225.316 60.8107C225.933 60.8107 226.542 60.664 227.091 60.3829L228.537 59.5485C229.053 59.2113 229.483 58.757 229.792 58.2226C230.1 57.6882 230.278 57.0887 230.311 56.4727V43.2792C230.278 42.6631 230.1 42.0636 229.792 41.5292C229.483 40.9948 229.053 40.5405 228.537 40.2033Z" fill="white"/>
<path d="M210.337 37.5113C210.337 36.3989 211.133 35.9205 212.112 36.4879L223.542 43.0846C224.059 43.4219 224.488 43.8761 224.797 44.4105C225.105 44.9449 225.283 45.5445 225.316 46.1605V59.3596C225.316 60.472 224.521 60.9504 223.542 60.383L212.112 53.7807C211.594 53.446 211.163 52.993 210.855 52.4593C210.546 51.9255 210.369 51.3261 210.337 50.7104V37.5113Z" fill="#6A51CA"/>
<path opacity="0.7" d="M210.337 37.5113C210.337 36.3989 211.133 35.9205 212.112 36.4879L223.542 43.0846C224.059 43.4219 224.488 43.8761 224.797 44.4105C225.105 44.9449 225.283 45.5445 225.316 46.1605V59.3596C225.316 60.472 224.521 60.9504 223.542 60.383L212.112 53.7807C211.594 53.446 211.163 52.993 210.855 52.4593C210.546 51.9255 210.369 51.3261 210.337 50.7104V37.5113Z" fill="white"/>
<path d="M230.311 56.472C230.277 57.088 230.099 57.6875 229.791 58.2219C229.483 58.7563 229.053 59.2106 228.536 59.5478L227.09 60.3822C226.589 60.6338 226.041 60.7767 225.481 60.8016C224.922 60.8265 224.363 60.7329 223.842 60.5268C224.682 60.8383 225.316 60.3711 225.316 59.3587V46.1597C225.294 45.5414 225.116 44.9388 224.798 44.4076L229.804 41.5264C230.126 42.0561 230.306 42.6593 230.327 43.2785L230.311 56.472Z" fill="#6A51CA"/>
<path opacity="0.55" d="M230.311 56.472C230.277 57.088 230.099 57.6875 229.791 58.2219C229.483 58.7563 229.053 59.2106 228.536 59.5478L227.09 60.3822C226.589 60.6338 226.041 60.7767 225.481 60.8016C224.922 60.8265 224.363 60.7329 223.842 60.5268C224.682 60.8383 225.316 60.3711 225.316 59.3587V46.1597C225.294 45.5414 225.116 44.9388 224.798 44.4076L229.804 41.5264C230.126 42.0561 230.306 42.6593 230.327 43.2785L230.311 56.472Z" fill="white"/>
<path d="M216.634 53.8029L218.542 54.9154V48.5355L219.872 49.3031L220.011 47.2562L218.542 46.4052V45.1927C218.542 44.6865 218.614 44.5308 218.982 44.7421L220.011 45.3373V43.1124L218.692 42.3448C217.274 41.5272 216.634 41.9944 216.634 43.5852V45.2872L215.639 44.731V46.8891L216.634 47.4453V53.8029Z" fill="white"/>
<path d="M228.537 70.1279L217.107 63.5255C216.556 63.2487 215.948 63.1045 215.332 63.1045C214.716 63.1045 214.108 63.2487 213.558 63.5255L212.112 64.3599C211.595 64.6971 211.165 65.1514 210.857 65.6858C210.549 66.2202 210.371 66.8197 210.337 67.4358V80.6348C210.369 81.2505 210.546 81.8499 210.855 82.3837C211.163 82.9175 211.594 83.3704 212.112 83.7051L223.542 90.3075C224.093 90.5843 224.7 90.7285 225.316 90.7285C225.933 90.7285 226.54 90.5843 227.091 90.3075L228.537 89.4731C229.053 89.1359 229.483 88.6816 229.792 88.1472C230.1 87.6128 230.278 87.0133 230.311 86.3972V73.2093C230.279 72.5923 230.101 71.9917 229.793 71.4562C229.485 70.9208 229.054 70.4657 228.537 70.1279Z" fill="#6A51CA"/>
<path opacity="0.8" d="M228.537 70.1279L217.107 63.5255C216.556 63.2487 215.948 63.1045 215.332 63.1045C214.716 63.1045 214.108 63.2487 213.558 63.5255L212.112 64.3599C211.595 64.6971 211.165 65.1514 210.857 65.6858C210.549 66.2202 210.371 66.8197 210.337 67.4358V80.6348C210.369 81.2505 210.546 81.8499 210.855 82.3837C211.163 82.9175 211.594 83.3704 212.112 83.7051L223.542 90.3075C224.093 90.5843 224.7 90.7285 225.316 90.7285C225.933 90.7285 226.54 90.5843 227.091 90.3075L228.537 89.4731C229.053 89.1359 229.483 88.6816 229.792 88.1472C230.1 87.6128 230.278 87.0133 230.311 86.3972V73.2093C230.279 72.5923 230.101 71.9917 229.793 71.4562C229.485 70.9208 229.054 70.4657 228.537 70.1279Z" fill="white"/>
<path d="M210.337 67.4351C210.337 66.3227 211.133 65.8443 212.112 66.4117L223.542 73.0084C224.059 73.3457 224.488 73.8 224.797 74.3344C225.105 74.8688 225.283 75.4683 225.316 76.0843V89.2834C225.316 90.3958 224.521 90.8686 223.542 90.3068L212.112 83.7045C211.594 83.3698 211.163 82.9169 210.855 82.3831C210.546 81.8493 210.369 81.2499 210.337 80.6342V67.4351Z" fill="#6A51CA"/>
<path opacity="0.7" d="M210.337 67.4351C210.337 66.3227 211.133 65.8443 212.112 66.4117L223.542 73.0084C224.059 73.3457 224.488 73.8 224.797 74.3344C225.105 74.8688 225.283 75.4683 225.316 76.0843V89.2834C225.316 90.3958 224.521 90.8686 223.542 90.3068L212.112 83.7045C211.594 83.3698 211.163 82.9169 210.855 82.3831C210.546 81.8493 210.369 81.2499 210.337 80.6342V67.4351Z" fill="white"/>
<path d="M230.311 86.3968C230.277 87.0128 230.099 87.6123 229.791 88.1467C229.483 88.6811 229.053 89.1354 228.536 89.4727L227.09 90.307C226.589 90.559 226.041 90.7018 225.481 90.7258C224.921 90.7497 224.362 90.6544 223.842 90.446C224.682 90.7631 225.316 90.2903 225.316 89.2835V76.0845C225.294 75.4662 225.116 74.8636 224.798 74.3324L229.804 71.4512C230.125 71.9792 230.305 72.5805 230.327 73.1977L230.311 86.3968Z" fill="#6A51CA"/>
<path opacity="0.55" d="M230.311 86.3968C230.277 87.0128 230.099 87.6123 229.791 88.1467C229.483 88.6811 229.053 89.1354 228.536 89.4727L227.09 90.307C226.589 90.559 226.041 90.7018 225.481 90.7258C224.921 90.7497 224.362 90.6544 223.842 90.446C224.682 90.7631 225.316 90.2903 225.316 89.2835V76.0845C225.294 75.4662 225.116 74.8636 224.798 74.3324L229.804 71.4512C230.125 71.9792 230.305 72.5805 230.327 73.1977L230.311 86.3968Z" fill="white"/>
<path d="M217.801 73.5704C218.975 74.2435 219.114 74.3325 219.576 74.6272C219.874 74.8135 220.147 75.0379 220.388 75.2947C220.589 75.5117 220.758 75.7572 220.888 76.0234C221.035 76.2952 221.145 76.585 221.216 76.8855C221.312 77.2697 221.364 77.6633 221.372 78.0591C221.372 78.6821 221.372 78.8712 221.372 80.4286C221.372 81.986 221.372 82.1751 221.372 82.7758C221.373 83.1157 221.321 83.4536 221.216 83.777C221.161 83.9676 221.046 84.1353 220.888 84.2554C220.748 84.3697 220.568 84.4237 220.388 84.4056C220.1 84.3751 219.823 84.282 219.576 84.133C219.114 83.8938 218.975 83.8215 217.801 83.1485C216.628 82.4755 216.494 82.3865 216.032 82.0917C215.731 81.9072 215.458 81.6806 215.22 81.4187C215.019 81.2005 214.848 80.9552 214.714 80.69C214.572 80.4184 214.461 80.1309 214.386 79.8335C214.297 79.4482 214.247 79.0551 214.236 78.6598C214.236 78.0313 214.236 77.8422 214.236 76.2848C214.236 74.7274 214.236 74.5438 214.236 73.9375C214.237 73.6001 214.288 73.2647 214.386 72.9419C214.444 72.7511 214.558 72.5823 214.714 72.458C214.858 72.3458 215.039 72.294 215.22 72.3134C215.507 72.3415 215.785 72.4326 216.032 72.5804C216.494 72.8195 216.633 72.8918 217.801 73.5704ZM217.801 72.5192C216.617 71.8295 216.466 71.7516 215.999 71.5069C215.672 71.3185 215.307 71.2028 214.931 71.1676C214.655 71.1427 214.379 71.222 214.158 71.3901C213.916 71.5803 213.74 71.8407 213.652 72.1354C213.518 72.5562 213.45 72.9953 213.452 73.4369C213.452 74.0488 213.424 74.2435 213.424 75.8287C213.424 77.4139 213.424 77.6141 213.452 78.2538C213.461 78.7714 213.528 79.2863 213.652 79.789C213.764 80.2497 213.934 80.6945 214.158 81.1128C214.367 81.5151 214.627 81.889 214.931 82.2252C215.245 82.5672 215.605 82.8648 215.999 83.1096C216.466 83.4099 216.617 83.4989 217.801 84.1886C218.986 84.8784 219.142 84.9562 219.609 85.1954C219.935 85.384 220.297 85.5015 220.671 85.5403C220.95 85.565 221.228 85.4836 221.45 85.3122C221.693 85.1229 221.87 84.8622 221.956 84.5669C222.088 84.1474 222.155 83.7105 222.156 83.2709C222.156 82.659 222.184 82.4644 222.184 80.8736C222.184 79.2828 222.184 79.0881 222.156 78.454C222.144 77.9367 222.077 77.4221 221.956 76.9189C221.844 76.4563 221.674 76.0097 221.45 75.5895C221.026 74.7685 220.39 74.0754 219.609 73.5816C219.142 73.2868 218.992 73.1922 217.801 72.5081" fill="white"/>
<path d="M217.802 75.3559C216.562 74.6384 215.577 75.4004 215.577 77.0579C215.577 78.7155 216.584 80.64 217.802 81.3575C219.02 82.075 220.027 81.313 220.027 79.6555C220.027 77.9979 219.02 76.0734 217.802 75.3559ZM217.802 80.3062C217.36 79.988 216.997 79.5708 216.744 79.0881C216.491 78.6053 216.355 78.0701 216.345 77.5252C216.345 76.4517 216.996 75.9566 217.802 76.4127C218.246 76.7295 218.61 77.1461 218.864 77.6292C219.119 78.1122 219.256 78.6481 219.265 79.1938C219.265 80.2729 218.609 80.7623 217.802 80.3062Z" fill="white"/>
<path d="M219.704 76.4016C219.706 76.5992 219.756 76.7935 219.847 76.9685C219.939 77.1435 220.071 77.2942 220.232 77.4084C220.522 77.5753 220.755 77.4084 220.755 77.0079C220.752 76.8118 220.703 76.6191 220.613 76.4453C220.522 76.2714 220.392 76.1212 220.232 76.0067C219.938 75.8398 219.704 76.0067 219.704 76.4016Z" fill="white"/>
<path opacity="0.1" d="M152.464 129.038L129.281 115.655C128.851 115.433 128.375 115.317 127.891 115.317C127.407 115.317 126.93 115.433 126.5 115.655L51.4106 159.001C50.6431 159.446 50.6431 160.158 51.4106 160.603L74.5938 173.986C75.0246 174.205 75.501 174.319 75.9844 174.319C76.4677 174.319 76.9442 174.205 77.3749 173.986L85.4234 169.358C85.874 172.768 88.3547 176.111 92.8712 178.719C102.883 184.509 119.186 184.509 129.22 178.719C139.254 172.929 139.26 163.523 129.22 157.728C124.704 155.119 118.924 153.689 113.012 153.428L152.503 130.623C153.232 130.195 153.232 129.477 152.464 129.038Z" fill="black"/>
<path d="M109.14 130.456C108.861 130.455 108.586 130.38 108.345 130.239L91.2132 120.349C90.2926 119.813 89.5282 119.045 88.9955 118.122C88.4628 117.199 88.1804 116.153 88.1763 115.087V95.3027C88.1763 94.8808 88.3439 94.4762 88.6422 94.1778C88.9405 93.8795 89.3452 93.7119 89.7671 93.7119C90.189 93.7119 90.5936 93.8795 90.8919 94.1778C91.1902 94.4762 91.3578 94.8808 91.3578 95.3027V115.087C91.3583 115.596 91.4921 116.095 91.7459 116.535C91.9997 116.975 92.3645 117.341 92.804 117.596L109.936 127.486C110.24 127.66 110.478 127.931 110.612 128.254C110.747 128.578 110.771 128.938 110.68 129.276C110.589 129.615 110.389 129.915 110.111 130.128C109.832 130.341 109.491 130.456 109.14 130.456Z" fill="#6A51CA"/>
<path d="M74.1655 150.202C73.8859 150.201 73.6115 150.126 73.3701 149.985L56.2386 140.095C55.318 139.559 54.5536 138.791 54.0209 137.868C53.4882 136.945 53.2058 135.899 53.2017 134.833V115.049C53.2017 114.627 53.3693 114.222 53.6676 113.924C53.9659 113.626 54.3705 113.458 54.7924 113.458C55.2143 113.458 55.619 113.626 55.9173 113.924C56.2156 114.222 56.3832 114.627 56.3832 115.049V134.833C56.3837 135.342 56.5175 135.841 56.7713 136.281C57.0251 136.721 57.3899 137.087 57.8294 137.342L74.9609 147.232C75.2651 147.406 75.503 147.677 75.6376 148.001C75.7722 148.324 75.796 148.684 75.7052 149.023C75.6145 149.361 75.4143 149.661 75.1359 149.874C74.8574 150.087 74.5163 150.202 74.1655 150.202Z" fill="#6A51CA"/>
<path d="M142.914 110.56C142.636 110.559 142.364 110.484 142.124 110.344L124.987 100.465C124.067 99.9277 123.304 99.1596 122.772 98.2368C122.241 97.3139 121.959 96.2683 121.956 95.2032V75.4352C121.98 75.0303 122.157 74.6499 122.452 74.3716C122.748 74.0934 123.138 73.9385 123.544 73.9385C123.949 73.9385 124.34 74.0934 124.635 74.3716C124.93 74.6499 125.108 75.0303 125.132 75.4352V95.2199C125.141 95.7209 125.279 96.211 125.534 96.6427C125.788 97.0744 126.15 97.4331 126.583 97.684L143.715 107.574C144.019 107.748 144.257 108.019 144.391 108.342C144.526 108.666 144.55 109.026 144.459 109.364C144.368 109.703 144.168 110.003 143.89 110.216C143.611 110.429 143.27 110.544 142.919 110.544L142.914 110.56Z" fill="#6A51CA"/>
<path d="M77.1303 148.228V170.871C77.1134 171.033 77.0526 171.186 76.9546 171.316C76.8566 171.445 76.725 171.545 76.5741 171.605C76.1784 171.806 75.7411 171.91 75.2976 171.91C74.8541 171.91 74.4168 171.806 74.0211 171.605C73.8702 171.545 73.7386 171.445 73.6406 171.316C73.5425 171.186 73.4818 171.033 73.4648 170.871V148.228H77.1303Z" fill="#6A51CA"/>
<path d="M62.018 139.622V162.26C62.0003 162.422 61.9393 162.576 61.8414 162.706C61.7436 162.837 61.6124 162.938 61.4618 163C61.0661 163.2 60.6288 163.305 60.1853 163.305C59.7418 163.305 59.3045 163.2 58.9088 163C58.7627 162.935 58.6366 162.832 58.5437 162.702C58.4508 162.572 58.3944 162.419 58.3804 162.26V139.622H62.018Z" fill="#6A51CA"/>
<path d="M145.823 108.568V131.206C145.808 131.365 145.751 131.517 145.658 131.647C145.565 131.777 145.44 131.88 145.295 131.946C144.898 132.147 144.46 132.251 144.015 132.251C143.571 132.251 143.133 132.147 142.736 131.946C142.585 131.884 142.454 131.783 142.356 131.653C142.258 131.522 142.197 131.368 142.18 131.206V108.568H145.823Z" fill="#6A51CA"/>
<path d="M130.711 99.959V122.603C130.696 122.761 130.64 122.913 130.547 123.042C130.454 123.171 130.328 123.273 130.182 123.337C129.786 123.537 129.347 123.642 128.903 123.642C128.458 123.642 128.02 123.537 127.624 123.337C127.473 123.277 127.341 123.177 127.243 123.047C127.145 122.918 127.084 122.764 127.067 122.603V99.959H130.711Z" fill="#6A51CA"/>
<g opacity="0.65">
<path d="M109.141 130.457C108.861 130.456 108.587 130.381 108.345 130.24L91.2137 120.35C90.2931 119.814 89.5287 119.046 88.996 118.123C88.4633 117.2 88.1809 116.154 88.1768 115.088V95.3037C88.1768 94.8818 88.3444 94.4772 88.6427 94.1788C88.941 93.8805 89.3456 93.7129 89.7675 93.7129C90.1894 93.7129 90.5941 93.8805 90.8924 94.1788C91.1907 94.4772 91.3583 94.8818 91.3583 95.3037V115.088C91.3588 115.596 91.4926 116.096 91.7464 116.536C92.0002 116.976 92.365 117.342 92.8045 117.597L109.936 127.486C110.24 127.661 110.478 127.932 110.613 128.255C110.747 128.579 110.771 128.939 110.68 129.277C110.59 129.616 110.389 129.916 110.111 130.129C109.833 130.342 109.491 130.457 109.141 130.457Z" fill="black"/>
<path d="M74.1655 150.202C73.8859 150.201 73.6115 150.126 73.3701 149.985L56.2386 140.095C55.318 139.559 54.5536 138.791 54.0209 137.868C53.4882 136.945 53.2058 135.899 53.2017 134.833V115.049C53.2017 114.627 53.3693 114.222 53.6676 113.924C53.9659 113.626 54.3705 113.458 54.7924 113.458C55.2143 113.458 55.619 113.626 55.9173 113.924C56.2156 114.222 56.3832 114.627 56.3832 115.049V134.833C56.3837 135.342 56.5175 135.841 56.7713 136.281C57.0251 136.721 57.3899 137.087 57.8294 137.342L74.9609 147.232C75.2651 147.406 75.503 147.677 75.6376 148.001C75.7722 148.324 75.796 148.684 75.7052 149.023C75.6145 149.361 75.4143 149.661 75.1359 149.874C74.8574 150.087 74.5163 150.202 74.1655 150.202Z" fill="black"/>
<path d="M142.914 110.56C142.637 110.559 142.364 110.484 142.125 110.344L124.987 100.465C124.068 99.9277 123.305 99.1596 122.773 98.2368C122.241 97.3139 121.96 96.2683 121.956 95.2032V75.4352C121.98 75.0303 122.158 74.6499 122.453 74.3716C122.748 74.0934 123.138 73.9385 123.544 73.9385C123.95 73.9385 124.34 74.0934 124.635 74.3716C124.93 74.6499 125.108 75.0303 125.132 75.4352V95.2199C125.141 95.7209 125.28 96.211 125.534 96.6427C125.789 97.0744 126.15 97.4331 126.584 97.684L143.715 107.574C144.019 107.748 144.257 108.019 144.392 108.342C144.527 108.666 144.55 109.026 144.46 109.364C144.369 109.703 144.169 110.003 143.89 110.216C143.612 110.429 143.271 110.544 142.92 110.544L142.914 110.56Z" fill="black"/>
<path d="M77.1308 148.228V170.871C77.1139 171.033 77.0531 171.186 76.9551 171.316C76.857 171.445 76.7255 171.545 76.5746 171.605C76.1789 171.806 75.7416 171.91 75.2981 171.91C74.8545 171.91 74.4172 171.806 74.0216 171.605C73.8707 171.545 73.7391 171.445 73.6411 171.316C73.543 171.186 73.4823 171.033 73.4653 170.871V148.228H77.1308Z" fill="black"/>
<path d="M62.018 139.623V162.261C62.0003 162.423 61.9393 162.577 61.8414 162.707C61.7436 162.838 61.6124 162.939 61.4618 163.001C61.0661 163.201 60.6288 163.306 60.1853 163.306C59.7418 163.306 59.3045 163.201 58.9088 163.001C58.7627 162.936 58.6366 162.833 58.5437 162.703C58.4508 162.573 58.3944 162.42 58.3804 162.261V139.623H62.018Z" fill="black"/>
<path d="M145.823 108.569V131.207C145.808 131.366 145.751 131.518 145.659 131.648C145.566 131.778 145.44 131.881 145.295 131.947C144.898 132.148 144.46 132.252 144.016 132.252C143.571 132.252 143.133 132.148 142.736 131.947C142.586 131.885 142.455 131.784 142.357 131.654C142.259 131.523 142.198 131.369 142.18 131.207V108.569H145.823Z" fill="black"/>
<path d="M130.711 99.959V122.603C130.696 122.761 130.64 122.913 130.547 123.042C130.454 123.171 130.328 123.273 130.182 123.337C129.786 123.537 129.347 123.642 128.903 123.642C128.458 123.642 128.02 123.537 127.624 123.337C127.473 123.277 127.341 123.177 127.243 123.047C127.145 122.918 127.084 122.764 127.067 122.603V99.959H130.711Z" fill="black"/>
</g>
<path d="M49.6586 119.537L49.3416 119.354C49.0745 119.181 48.8521 118.947 48.6926 118.671C48.5331 118.396 48.441 118.087 48.4238 117.769V114.926C48.4415 114.608 48.5337 114.298 48.6931 114.022C48.8525 113.745 49.0747 113.51 49.3416 113.336L124.859 69.7225C125.144 69.58 125.459 69.5059 125.777 69.5059C126.096 69.5059 126.41 69.58 126.695 69.7225L127.012 69.906C127.279 70.0807 127.501 70.3157 127.66 70.5921C127.82 70.8684 127.912 71.1783 127.93 71.4968V74.3502C127.912 74.6687 127.82 74.9787 127.66 75.255C127.501 75.5313 127.279 75.7663 127.012 75.941L51.4942 119.537C51.2101 119.683 50.8955 119.759 50.5764 119.759C50.2573 119.759 49.9427 119.683 49.6586 119.537Z" fill="#6A51CA"/>
<path opacity="0.5" d="M127.012 70.9851L51.4939 114.565C51.227 114.74 51.0049 114.975 50.8455 115.251C50.6861 115.527 50.5938 115.837 50.5762 116.156V119.009C50.5762 119.593 50.9878 119.832 51.4939 119.565L127.012 75.9688C127.279 75.7941 127.501 75.5591 127.66 75.2828C127.82 75.0065 127.912 74.6966 127.929 74.378V71.5246C127.929 70.9128 127.518 70.6736 127.012 70.9851Z" fill="black"/>
<path opacity="0.4" d="M127.012 69.906L126.695 69.7225C126.41 69.58 126.096 69.5059 125.777 69.5059C125.458 69.5059 125.144 69.58 124.859 69.7225L49.3414 113.324C49.0764 113.494 48.8599 113.73 48.7129 114.009L50.8599 115.249C51.02 114.973 51.243 114.739 51.5107 114.565L127.012 70.9851C127.518 70.6903 127.93 70.9295 127.93 71.5135C127.914 71.1921 127.823 70.8788 127.664 70.5994C127.504 70.32 127.281 70.0824 127.012 69.906Z" fill="black"/>
<path opacity="0.6" d="M50.5763 116.161C50.5888 115.842 50.6805 115.53 50.8433 115.255L48.713 114.009C48.6431 114.127 48.5854 114.252 48.5405 114.381C48.4764 114.56 48.4426 114.748 48.4404 114.938V117.791C48.4602 118.109 48.5534 118.418 48.7126 118.694C48.8718 118.97 49.0928 119.206 49.3582 119.382L49.4806 119.454L49.6752 119.56L49.8198 119.632H49.8588L49.9867 119.677H50.0646L50.1925 119.704H50.2871H50.415H50.7376H50.8878H50.9212C51.05 119.685 51.1767 119.654 51.2994 119.61H51.1659C51.1179 119.616 51.0693 119.616 51.0213 119.61H50.9768C50.9455 119.604 50.9154 119.592 50.8878 119.577H50.8544L50.7765 119.515C50.7541 119.483 50.7337 119.45 50.7154 119.415V119.387C50.6965 119.339 50.6816 119.288 50.6709 119.237C50.6647 119.171 50.6647 119.104 50.6709 119.037L50.5763 116.161Z" fill="black"/>
<path d="M49.6586 128.276L49.3416 128.092C49.0747 127.917 48.8525 127.682 48.6931 127.406C48.5337 127.13 48.4415 126.82 48.4238 126.501V123.648C48.441 123.33 48.5331 123.021 48.6926 122.745C48.8521 122.47 49.0745 122.236 49.3416 122.063L124.859 78.444C125.143 78.2985 125.458 78.2227 125.777 78.2227C126.096 78.2227 126.411 78.2985 126.695 78.444L127.012 78.6275C127.279 78.8022 127.501 79.0372 127.66 79.3135C127.82 79.5899 127.912 79.8998 127.93 80.2183V83.0662C127.913 83.385 127.822 83.6954 127.662 83.9719C127.503 84.2485 127.28 84.4832 127.012 84.6569L51.4942 128.276C51.2101 128.421 50.8955 128.497 50.5764 128.497C50.2573 128.497 49.9427 128.421 49.6586 128.276Z" fill="#6A51CA"/>
<path opacity="0.5" d="M127.012 79.6898L51.4939 123.27C51.227 123.444 51.0049 123.679 50.8455 123.956C50.6861 124.232 50.5938 124.542 50.5762 124.86V127.719C50.5762 128.303 50.9878 128.543 51.4939 128.276L127.012 84.6791C127.279 84.5044 127.501 84.2694 127.66 83.9931C127.82 83.7168 127.912 83.4069 127.929 83.0883V80.2183C127.929 79.6342 127.518 79.395 127.012 79.6898Z" fill="black"/>
<path opacity="0.4" d="M127.012 78.6277L126.695 78.4442C126.41 78.3017 126.096 78.2275 125.777 78.2275C125.458 78.2275 125.144 78.3017 124.859 78.4442L49.3414 122.046C49.0785 122.211 48.8622 122.441 48.7129 122.714L50.8599 123.954C51.0153 123.68 51.2324 123.446 51.494 123.27L127.012 79.6734C127.518 79.3786 127.93 79.6178 127.93 80.2018C127.909 79.8862 127.816 79.5796 127.657 79.3064C127.497 79.0331 127.277 78.8008 127.012 78.6277Z" fill="black"/>
<path opacity="0.6" d="M50.5763 124.878C50.5888 124.558 50.6805 124.246 50.8433 123.971L48.713 122.714C48.6421 122.831 48.5843 122.956 48.5405 123.087C48.4758 123.265 48.4419 123.453 48.4404 123.643V126.491C48.453 126.818 48.5507 127.136 48.7241 127.414C48.8737 127.688 49.0923 127.918 49.3582 128.081L49.4806 128.154L49.6752 128.265L49.8198 128.332H49.8588L49.9867 128.376L50.0646 128.404H50.1925C50.224 128.407 50.2556 128.407 50.2871 128.404H50.415H50.7376H50.8878H50.9212C51.0502 128.383 51.1769 128.35 51.2994 128.304C51.2562 128.319 51.2114 128.328 51.1659 128.332C51.1179 128.337 51.0693 128.337 51.0213 128.332H50.9768L50.8878 128.298L50.8544 128.27C50.8249 128.255 50.7985 128.234 50.7765 128.209V128.181C50.7517 128.151 50.7311 128.117 50.7154 128.081C50.6965 128.033 50.6816 127.982 50.6709 127.931C50.6648 127.865 50.6648 127.798 50.6709 127.731L50.5763 124.878Z" fill="black"/>
<path d="M49.6586 136.975L49.3416 136.797C49.0747 136.622 48.8525 136.387 48.6931 136.111C48.5337 135.835 48.4415 135.525 48.4238 135.206V132.353C48.4415 132.034 48.5337 131.724 48.6931 131.448C48.8525 131.172 49.0747 130.937 49.3416 130.762L124.859 87.1657C125.143 87.0202 125.458 86.9443 125.777 86.9443C126.096 86.9443 126.411 87.0202 126.695 87.1657L127.012 87.3437C127.279 87.5184 127.501 87.7533 127.66 88.0297C127.82 88.306 127.912 88.6159 127.93 88.9344V91.7878C127.912 92.1064 127.82 92.4163 127.66 92.6926C127.501 92.9689 127.279 93.2039 127.012 93.3786L51.4942 136.975C51.2101 137.121 50.8955 137.196 50.5764 137.196C50.2573 137.196 49.9427 137.121 49.6586 136.975Z" fill="#6A51CA"/>
<path opacity="0.5" d="M127.012 88.4057L51.4939 132.002C51.227 132.177 51.0049 132.412 50.8455 132.688C50.6861 132.964 50.5938 133.274 50.5762 133.593V136.446C50.5762 137.03 50.9878 137.269 51.4939 136.975L127.012 93.3783C127.279 93.2035 127.501 92.9686 127.66 92.6922C127.82 92.4159 127.912 92.106 127.929 91.7875V88.9341C127.929 88.35 127.518 88.1109 127.012 88.4057Z" fill="black"/>
<path opacity="0.4" d="M127.012 87.3435L126.695 87.16C126.41 87.0175 126.096 86.9434 125.777 86.9434C125.458 86.9434 125.144 87.0175 124.859 87.16L49.3414 130.762C49.0764 130.932 48.8599 131.168 48.7129 131.446L50.8599 132.686C51.0153 132.412 51.2324 132.178 51.494 132.002L127.012 88.4059C127.518 88.1111 127.93 88.3503 127.93 88.9621C127.916 88.6388 127.826 88.3233 127.666 88.0418C127.507 87.7604 127.282 87.521 127.012 87.3435Z" fill="black"/>
<path opacity="0.6" d="M50.5763 133.593C50.5897 133.274 50.6814 132.962 50.8433 132.687L48.713 131.446C48.6431 131.564 48.5854 131.689 48.5405 131.819C48.4758 131.997 48.4419 132.185 48.4404 132.375V135.229C48.4537 135.556 48.5514 135.874 48.7241 136.152C48.8755 136.423 49.0938 136.651 49.3582 136.814L49.4806 136.886L49.6752 136.997C49.7207 137.025 49.7692 137.048 49.8198 137.064H49.8588L49.9867 137.103L50.0646 137.131L50.1925 137.159H50.2871H50.415H50.7376H50.8878H50.9212C51.0507 137.14 51.1777 137.107 51.2994 137.059C51.2562 137.073 51.2114 137.083 51.1659 137.086C51.1181 137.095 51.0691 137.095 51.0213 137.086H50.9768L50.8878 137.053H50.8544C50.826 137.034 50.7999 137.011 50.7765 136.986V136.958C50.753 136.929 50.7325 136.897 50.7154 136.864V136.836C50.6972 136.785 50.6824 136.733 50.6709 136.68C50.6648 136.614 50.6648 136.547 50.6709 136.48L50.5763 133.593Z" fill="black"/>
<path d="M67.7969 150.958V151.32C67.8132 151.639 67.9049 151.949 68.0644 152.226C68.224 152.502 68.4468 152.737 68.7146 152.911L71.1898 154.34C71.4748 154.482 71.789 154.557 72.1076 154.557C72.4262 154.557 72.7404 154.482 73.0253 154.34L148.538 110.738C148.806 110.565 149.029 110.33 149.188 110.053C149.348 109.777 149.439 109.466 149.455 109.147V108.808C149.439 108.49 149.348 108.18 149.188 107.904C149.029 107.629 148.806 107.395 148.538 107.223L146.051 105.765C145.766 105.623 145.452 105.549 145.134 105.549C144.815 105.549 144.501 105.623 144.216 105.765L68.7369 149.367C68.4649 149.539 68.2377 149.772 68.0742 150.049C67.9107 150.326 67.8156 150.637 67.7969 150.958Z" fill="#6A51CA"/>
<path opacity="0.4" d="M73.025 151.854L148.537 108.252C148.648 108.215 148.745 108.144 148.814 108.05C148.883 107.955 148.92 107.84 148.92 107.723C148.92 107.606 148.883 107.492 148.814 107.397C148.745 107.302 148.648 107.232 148.537 107.195L146.051 105.765C145.766 105.623 145.452 105.549 145.133 105.549C144.815 105.549 144.5 105.623 144.215 105.765L68.7365 149.367C68.6253 149.404 68.5284 149.475 68.4597 149.57C68.391 149.665 68.354 149.779 68.354 149.896C68.354 150.013 68.391 150.127 68.4597 150.222C68.5284 150.317 68.6253 150.388 68.7365 150.424L71.2117 151.854C71.4938 151.993 71.804 152.065 72.1183 152.065C72.4327 152.065 72.7429 151.993 73.025 151.854Z" fill="black"/>
<path opacity="0.55" d="M148.632 107.251C149.043 107.546 149.01 107.98 148.543 108.252L73.0249 151.854C72.7401 152.003 72.4226 152.077 72.1016 152.071V154.557C72.4226 154.563 72.7401 154.489 73.0249 154.34L148.543 110.738C148.809 110.563 149.031 110.328 149.19 110.052C149.349 109.776 149.442 109.466 149.46 109.148V108.808C149.448 108.503 149.366 108.205 149.223 107.936C149.08 107.666 148.878 107.432 148.632 107.251Z" fill="black"/>
<path opacity="0.6" d="M71.1845 151.854L68.7371 150.424C68.2977 150.169 68.2421 149.774 68.5702 149.484C68.3491 149.664 68.1681 149.888 68.0388 150.142C67.9095 150.396 67.8347 150.674 67.8193 150.958V151.32C67.8456 151.807 68.0425 152.27 68.3756 152.627C68.4809 152.737 68.6007 152.833 68.7315 152.911L71.2011 154.34C71.4842 154.488 71.7997 154.562 72.1189 154.557V152.071C71.7941 152.079 71.4725 152.004 71.1845 151.854Z" fill="black"/>
<path d="M60.2651 146.631V146.993C60.2815 147.311 60.3731 147.622 60.5327 147.898C60.6922 148.175 60.9151 148.41 61.1829 148.583L63.6525 150.013C63.9375 150.155 64.2517 150.229 64.5703 150.229C64.8889 150.229 65.2031 150.155 65.488 150.013L141.006 106.411C141.273 106.236 141.495 106.001 141.654 105.725C141.814 105.449 141.906 105.139 141.924 104.82V104.453C141.906 104.135 141.814 103.826 141.655 103.55C141.495 103.275 141.273 103.041 141.006 102.868L138.536 101.438C138.251 101.296 137.937 101.222 137.618 101.222C137.3 101.222 136.986 101.296 136.701 101.438L61.1829 145.018C60.9121 145.194 60.6874 145.432 60.5277 145.713C60.368 145.994 60.278 146.308 60.2651 146.631Z" fill="#6A51CA"/>
<path opacity="0.4" d="M65.4885 147.504L141.006 103.902C141.118 103.866 141.214 103.795 141.283 103.7C141.352 103.605 141.389 103.491 141.389 103.374C141.389 103.257 141.352 103.142 141.283 103.048C141.214 102.953 141.118 102.882 141.006 102.845L138.537 101.416C138.252 101.273 137.937 101.199 137.619 101.199C137.3 101.199 136.986 101.273 136.701 101.416L61.1833 145.018C61.072 145.054 60.9751 145.125 60.9065 145.22C60.8378 145.315 60.8008 145.429 60.8008 145.546C60.8008 145.663 60.8378 145.778 60.9065 145.872C60.9751 145.967 61.072 146.038 61.1833 146.075L63.6529 147.504C63.9379 147.647 64.2521 147.721 64.5707 147.721C64.8893 147.721 65.2035 147.647 65.4885 147.504Z" fill="black"/>
<path opacity="0.55" d="M141.101 102.901C141.507 103.196 141.48 103.63 141.007 103.903L65.4891 147.505C65.206 147.652 64.8905 147.727 64.5713 147.721V150.208C64.8905 150.213 65.206 150.139 65.4891 149.991L141.007 106.389C141.274 106.214 141.496 105.98 141.656 105.703C141.815 105.427 141.907 105.117 141.925 104.798V104.431C141.908 104.131 141.825 103.839 141.683 103.575C141.541 103.311 141.342 103.081 141.101 102.901Z" fill="black"/>
<path opacity="0.6" d="M63.6525 147.504L61.1829 146.075C60.7379 145.819 60.6823 145.424 61.016 145.135C60.7944 145.314 60.613 145.538 60.4837 145.792C60.3543 146.046 60.2798 146.324 60.2651 146.609V146.97C60.2905 147.458 60.4875 147.921 60.8214 148.277C60.9287 148.388 61.0503 148.483 61.1829 148.561L63.6525 149.991C63.935 150.14 64.2509 150.214 64.5703 150.207V147.743C64.2489 147.743 63.933 147.661 63.6525 147.504Z" fill="black"/>
<path d="M52.7285 142.259V142.62C52.7448 142.939 52.8365 143.25 52.9961 143.526C53.1556 143.803 53.3784 144.038 53.6463 144.211L56.1159 145.641C56.4008 145.783 56.7151 145.857 57.0336 145.857C57.3522 145.857 57.6664 145.783 57.9514 145.641L133.469 102.039C133.731 101.864 133.948 101.631 134.105 101.358C134.261 101.084 134.352 100.779 134.37 100.465V100.098C134.353 99.779 134.26 99.4691 134.101 99.1928C133.942 98.9164 133.719 98.6815 133.453 98.5067L130.983 97.0828C130.698 96.9404 130.384 96.8662 130.065 96.8662C129.747 96.8662 129.432 96.9404 129.147 97.0828L53.6463 140.668C53.3784 140.842 53.1556 141.077 52.9961 141.353C52.8365 141.63 52.7448 141.94 52.7285 142.259Z" fill="#6A51CA"/>
<path opacity="0.4" d="M53.6467 141.725L56.1163 143.154C56.4013 143.297 56.7155 143.371 57.0341 143.371C57.3527 143.371 57.6669 143.297 57.9518 143.154L133.47 99.5525C133.583 99.5173 133.682 99.4468 133.752 99.3512C133.823 99.2556 133.861 99.14 133.861 99.0213C133.861 98.9026 133.823 98.7871 133.752 98.6915C133.682 98.5959 133.583 98.5254 133.47 98.4901L131 97.0662C130.715 96.9238 130.401 96.8496 130.082 96.8496C129.764 96.8496 129.449 96.9238 129.164 97.0662L53.6467 140.668C53.5354 140.705 53.4385 140.776 53.3698 140.87C53.3011 140.965 53.2642 141.079 53.2642 141.197C53.2642 141.314 53.3011 141.428 53.3698 141.523C53.4385 141.618 53.5354 141.688 53.6467 141.725Z" fill="black"/>
<path opacity="0.55" d="M133.565 98.5518C133.971 98.8466 133.943 99.2804 133.47 99.553L57.9524 143.155C57.6697 143.303 57.354 143.378 57.0347 143.372V145.858C57.354 145.864 57.6697 145.79 57.9524 145.641L133.47 102.039C133.732 101.865 133.95 101.632 134.106 101.358C134.263 101.085 134.353 100.779 134.371 100.465V100.098C134.359 99.7969 134.28 99.5022 134.14 99.235C134.001 98.9677 133.804 98.7345 133.565 98.5518Z" fill="black"/>
<path opacity="0.6" d="M56.1159 143.155L53.6463 141.725C53.2013 141.469 53.1512 141.074 53.4794 140.785C53.2578 140.964 53.0764 141.188 52.947 141.442C52.8177 141.696 52.7432 141.975 52.7285 142.259V142.621C52.7556 143.106 52.9525 143.567 53.2847 143.922C53.3917 144.035 53.5133 144.132 53.6463 144.211L56.1159 145.641C56.3987 145.789 56.7143 145.864 57.0336 145.858V143.372C56.7143 143.378 56.3987 143.303 56.1159 143.155Z" fill="black"/>
<path d="M59.6931 138.95C59.6295 138.969 59.5739 139.009 59.5344 139.062C59.4949 139.116 59.4736 139.181 59.4736 139.247C59.4736 139.314 59.4949 139.378 59.5344 139.432C59.5739 139.486 59.6295 139.525 59.6931 139.545C59.8526 139.629 60.0302 139.672 60.2104 139.672C60.3906 139.672 60.5681 139.629 60.7277 139.545C60.7912 139.525 60.8468 139.486 60.8863 139.432C60.9258 139.378 60.9471 139.314 60.9471 139.247C60.9471 139.181 60.9258 139.116 60.8863 139.062C60.8468 139.009 60.7912 138.969 60.7277 138.95C60.5673 138.868 60.3901 138.826 60.2104 138.826C60.0307 138.826 59.8534 138.868 59.6931 138.95Z" fill="black"/>
<path d="M67.2458 143.333C67.183 143.354 67.1284 143.394 67.0897 143.448C67.0511 143.502 67.0303 143.567 67.0303 143.633C67.0303 143.7 67.0511 143.764 67.0897 143.818C67.1284 143.872 67.183 143.912 67.2458 143.934C67.4069 144.016 67.5851 144.058 67.7659 144.058C67.9467 144.058 68.1249 144.016 68.2859 143.934C68.3488 143.912 68.4034 143.872 68.442 143.818C68.4807 143.764 68.5015 143.7 68.5015 143.633C68.5015 143.567 68.4807 143.502 68.442 143.448C68.4034 143.394 68.3488 143.354 68.2859 143.333C68.1249 143.251 67.9467 143.208 67.7659 143.208C67.5851 143.208 67.4069 143.251 67.2458 143.333Z" fill="black"/>
<path d="M74.8054 147.744C74.7418 147.763 74.6862 147.803 74.6467 147.856C74.6072 147.91 74.5859 147.975 74.5859 148.041C74.5859 148.108 74.6072 148.172 74.6467 148.226C74.6862 148.28 74.7418 148.319 74.8054 148.339C74.9649 148.422 75.1425 148.466 75.3227 148.466C75.5029 148.466 75.6804 148.422 75.84 148.339C75.9035 148.319 75.9591 148.28 75.9986 148.226C76.0381 148.172 76.0594 148.108 76.0594 148.041C76.0594 147.975 76.0381 147.91 75.9986 147.856C75.9591 147.803 75.9035 147.763 75.84 147.744C75.6796 147.662 75.5024 147.62 75.3227 147.62C75.143 147.62 74.9658 147.662 74.8054 147.744Z" fill="black"/>
<path d="M128.385 99.3073C128.323 99.3285 128.268 99.3689 128.229 99.4228C128.191 99.4767 128.17 99.5413 128.17 99.6077C128.17 99.674 128.191 99.7386 128.229 99.7925C128.268 99.8464 128.323 99.8868 128.385 99.908C128.545 99.9918 128.723 100.036 128.903 100.036C129.083 100.036 129.26 99.9918 129.42 99.908C129.483 99.8868 129.537 99.8464 129.576 99.7925C129.615 99.7386 129.636 99.674 129.636 99.6077C129.636 99.5413 129.615 99.4767 129.576 99.4228C129.537 99.3689 129.483 99.3285 129.42 99.3073C129.259 99.2278 129.082 99.1865 128.903 99.1865C128.723 99.1865 128.546 99.2278 128.385 99.3073Z" fill="black"/>
<path d="M135.939 103.696C135.876 103.717 135.822 103.758 135.783 103.812C135.744 103.866 135.724 103.93 135.724 103.996C135.724 104.063 135.744 104.127 135.783 104.181C135.822 104.235 135.876 104.276 135.939 104.297C136.101 104.376 136.279 104.418 136.459 104.418C136.64 104.418 136.817 104.376 136.979 104.297C137.042 104.276 137.097 104.235 137.135 104.181C137.174 104.127 137.195 104.063 137.195 103.996C137.195 103.93 137.174 103.866 137.135 103.812C137.097 103.758 137.042 103.717 136.979 103.696C136.818 103.614 136.64 103.571 136.459 103.571C136.278 103.571 136.1 103.614 135.939 103.696Z" fill="black"/>
<path d="M143.498 108.08C143.435 108.101 143.381 108.141 143.342 108.195C143.304 108.249 143.283 108.314 143.283 108.38C143.283 108.446 143.304 108.511 143.342 108.565C143.381 108.619 143.435 108.659 143.498 108.68C143.658 108.764 143.835 108.808 144.016 108.808C144.196 108.808 144.373 108.764 144.533 108.68C144.596 108.659 144.65 108.619 144.689 108.565C144.728 108.511 144.748 108.446 144.748 108.38C144.748 108.314 144.728 108.249 144.689 108.195C144.65 108.141 144.596 108.101 144.533 108.08C144.372 108 144.195 107.959 144.016 107.959C143.836 107.959 143.659 108 143.498 108.08Z" fill="black"/>
<path d="M94.6062 119.204C94.5433 119.225 94.4888 119.266 94.4501 119.319C94.4114 119.373 94.3906 119.438 94.3906 119.504C94.3906 119.571 94.4114 119.635 94.4501 119.689C94.4888 119.743 94.5433 119.783 94.6062 119.805C94.7672 119.887 94.9455 119.929 95.1262 119.929C95.307 119.929 95.4852 119.887 95.6463 119.805C95.7091 119.783 95.7637 119.743 95.8024 119.689C95.841 119.635 95.8618 119.571 95.8618 119.504C95.8618 119.438 95.841 119.373 95.8024 119.319C95.7637 119.266 95.7091 119.225 95.6463 119.204C95.4845 119.124 95.3066 119.083 95.1262 119.083C94.9459 119.083 94.768 119.124 94.6062 119.204Z" fill="black"/>
<path d="M102.166 123.592C102.103 123.613 102.048 123.654 102.01 123.708C101.971 123.762 101.95 123.826 101.95 123.893C101.95 123.959 101.971 124.023 102.01 124.077C102.048 124.131 102.103 124.172 102.166 124.193C102.327 124.272 102.504 124.314 102.683 124.314C102.862 124.314 103.039 124.272 103.2 124.193C103.263 124.172 103.318 124.131 103.356 124.077C103.395 124.023 103.416 123.959 103.416 123.893C103.416 123.826 103.395 123.762 103.356 123.708C103.318 123.654 103.263 123.613 103.2 123.592C103.04 123.511 102.863 123.469 102.683 123.469C102.503 123.469 102.326 123.511 102.166 123.592Z" fill="black"/>
<path d="M109.719 127.975C109.656 127.997 109.602 128.037 109.563 128.091C109.524 128.145 109.503 128.209 109.503 128.276C109.503 128.342 109.524 128.407 109.563 128.461C109.602 128.514 109.656 128.555 109.719 128.576C109.88 128.658 110.058 128.701 110.239 128.701C110.42 128.701 110.598 128.658 110.759 128.576C110.822 128.555 110.877 128.514 110.915 128.461C110.954 128.407 110.975 128.342 110.975 128.276C110.975 128.209 110.954 128.145 110.915 128.091C110.877 128.037 110.822 127.997 110.759 127.975C110.597 127.896 110.419 127.854 110.239 127.854C110.059 127.854 109.881 127.896 109.719 127.975Z" fill="black"/>
<path d="M54.7927 114.37C54.6201 114.481 54.4765 114.632 54.374 114.81C54.2714 114.988 54.2128 115.188 54.2031 115.393C54.2031 115.766 54.4645 115.949 54.7927 115.732C54.9641 115.62 55.1067 115.469 55.2091 115.291C55.3115 115.113 55.3708 114.914 55.3823 114.709C55.3879 114.331 55.1153 114.181 54.7927 114.37Z" fill="black"/>
<path d="M54.7927 123.069C54.6204 123.181 54.4771 123.332 54.3745 123.51C54.272 123.688 54.2133 123.887 54.2031 124.092C54.2031 124.471 54.4645 124.621 54.7927 124.432C54.9641 124.319 55.1067 124.168 55.2091 123.99C55.3115 123.812 55.3708 123.613 55.3823 123.408C55.3879 123.03 55.1153 122.88 54.7927 123.069Z" fill="black"/>
<path d="M54.7927 131.769C54.6204 131.881 54.4771 132.032 54.3745 132.21C54.272 132.388 54.2133 132.587 54.2031 132.793C54.2031 133.171 54.4645 133.321 54.7927 133.132C54.9644 133.02 55.1073 132.868 55.2097 132.691C55.3121 132.513 55.3713 132.313 55.3823 132.108C55.3879 131.736 55.1153 131.58 54.7927 131.769Z" fill="black"/>
<path d="M123.541 74.7506C123.369 74.8629 123.226 75.0141 123.124 75.1919C123.021 75.3697 122.962 75.5691 122.951 75.774C122.951 76.1467 123.218 76.3024 123.541 76.1133C123.714 76.0016 123.857 75.8507 123.961 75.6728C124.064 75.495 124.124 75.2953 124.136 75.0899C124.136 74.7117 123.869 74.5615 123.541 74.7506Z" fill="black"/>
<path d="M123.541 83.4501C123.369 83.5628 123.227 83.714 123.124 83.8917C123.022 84.0695 122.963 84.2687 122.951 84.4735C122.951 84.8518 123.218 85.0019 123.541 84.8128C123.715 84.7 123.86 84.5473 123.963 84.3674C124.067 84.1875 124.126 83.9856 124.136 83.7783C124.136 83.4112 123.869 83.261 123.541 83.4501Z" fill="black"/>
<path d="M123.541 92.149C123.369 92.2617 123.227 92.4129 123.124 92.5906C123.022 92.7684 122.963 92.9676 122.951 93.1724C122.951 93.5507 123.218 93.7287 123.541 93.5117C123.714 93.4007 123.859 93.2499 123.962 93.0719C124.066 92.894 124.125 92.6939 124.136 92.4883C124.136 92.1212 123.869 91.9599 123.541 92.149Z" fill="black"/>
<path d="M89.7673 94.6415C89.5956 94.7539 89.4528 94.9051 89.3503 95.0829C89.2479 95.2607 89.1888 95.4601 89.1777 95.665C89.1777 96.0432 89.4392 96.2212 89.7673 96.0098C89.9397 95.8982 90.083 95.7471 90.1855 95.5692C90.288 95.3913 90.3468 95.1915 90.3569 94.9864C90.3569 94.6082 90.0955 94.458 89.7673 94.6415Z" fill="black"/>
<path d="M89.7673 103.346C89.595 103.458 89.4517 103.609 89.3492 103.787C89.2467 103.965 89.1879 104.165 89.1777 104.37C89.1777 104.742 89.4392 104.898 89.7673 104.709C89.9397 104.597 90.083 104.446 90.1855 104.268C90.288 104.09 90.3468 103.891 90.3569 103.686C90.3569 103.307 90.0955 103.157 89.7673 103.346Z" fill="black"/>
<path d="M89.7673 112.045C89.595 112.157 89.4517 112.308 89.3492 112.486C89.2467 112.664 89.1879 112.864 89.1777 113.069C89.1777 113.447 89.4392 113.625 89.7673 113.408C89.9397 113.297 90.083 113.146 90.1855 112.968C90.288 112.79 90.3468 112.59 90.3569 112.385C90.3569 112.012 90.0955 111.856 89.7673 112.045Z" fill="black"/>
<path d="M84.3114 86.7427C90.0293 86.3534 91.6201 88.0888 95.3912 90.9589C98.0667 92.9946 102.455 96.115 102.455 96.115C102.455 96.115 105.386 86.5759 105.32 85.3077C105.242 83.7837 104.569 83.2997 104.207 81.709C103.846 80.1182 103.818 79.0224 103.373 78.3716C102.928 77.7209 104.257 77.4595 104.875 78.2548C105.492 79.0502 105.642 80.2294 105.987 79.9847C106.332 79.7399 106.41 77.2036 105.943 75.3792C105.475 73.5548 106.466 73.0153 106.888 73.5659C107.119 73.8593 107.319 74.1763 107.483 74.5115C107.882 74.3502 108.316 74.2992 108.741 74.3638C109.166 74.4284 109.565 74.6062 109.897 74.8786C110.921 75.852 111.9 77.3426 112.122 80.057C112.345 82.7713 111.132 84.9239 110.854 86.1365C110.448 87.9386 110.02 97.817 107.862 103.129C106.877 105.548 104.769 105.521 102.856 104.453L90.6523 97.6279C87.0035 95.8536 82.359 89.407 84.3114 86.7427Z" fill="#FFA8A7"/>
<path d="M85.1621 86.698C86.1496 86.4492 87.1773 86.4032 88.183 86.5629C89.1887 86.7225 90.1517 87.0845 91.0135 87.6269C93.9893 89.468 102.244 95.7254 102.244 95.7254C102.244 95.7254 103.795 91.5093 104.023 90.7194C104.023 90.7194 107.149 92.6495 110.17 91.9654C110.17 91.9654 109.613 99.1462 108.501 102.361C107.389 105.576 106.221 105.671 103.979 105.142C101.737 104.614 89.2281 97.7167 89.2281 97.7167L85.1621 86.698Z" fill="#6A51CA"/>
<path opacity="0.1" d="M85.1621 86.698C86.1496 86.4492 87.1773 86.4032 88.183 86.5629C89.1887 86.7225 90.1517 87.0845 91.0135 87.6269C93.9893 89.468 102.244 95.7254 102.244 95.7254C102.244 95.7254 103.795 91.5093 104.023 90.7194C104.023 90.7194 107.149 92.6495 110.17 91.9654C110.17 91.9654 109.613 99.1462 108.501 102.361C107.389 105.576 106.221 105.671 103.979 105.142C101.737 104.614 89.2281 97.7167 89.2281 97.7167L85.1621 86.698Z" fill="black"/>
<path d="M100.475 161.487C100.475 161.487 102.027 167.605 103.073 169.491C104.196 171.673 105.582 173.709 107.2 175.554C107.595 175.993 108.485 176.805 108.807 177.156C108.883 177.225 108.941 177.311 108.98 177.406C109.018 177.501 109.036 177.603 109.03 177.705C109.025 177.808 108.997 177.908 108.949 177.998C108.901 178.089 108.834 178.167 108.752 178.229C107.979 178.997 104.653 179.23 102.761 177.868C100.87 176.505 99.2795 174.23 98.1448 173.123C97.5886 172.567 97.0323 172.044 96.6541 171.655C96.4701 171.47 96.3367 171.241 96.2666 170.989C96.1964 170.738 96.192 170.473 96.2536 170.22C96.2926 170.075 96.3315 169.902 96.376 169.702C96.7709 167.9 94.6128 163.339 94.6128 163.339C96.1813 161.092 98.4507 161.159 100.475 161.487Z" fill="#FFA8A7"/>
<path d="M96.153 172.039C96.108 172.345 96.1445 172.658 96.2587 172.946C96.4422 173.357 97.6214 174.058 98.2277 174.364C98.9251 174.72 99.4931 175.287 99.8518 175.983C100.604 177.321 101.734 178.408 103.1 179.109C104.95 179.862 106.985 180.033 108.935 179.598C111.36 179.114 111.527 177.674 111.527 177.674C111.527 177.674 111.633 176.322 111.021 176.122C110.409 175.921 96.153 172.039 96.153 172.039Z" fill="#263238"/>
<path d="M96.0585 167.873C96.0735 168.09 96.0642 168.308 96.0307 168.523C95.9696 169.191 95.9139 169.636 95.8917 170.381C95.8515 170.95 95.9409 171.52 96.1531 172.05C96.8873 173.034 98.5893 173.324 99.5961 174.664C100.603 176.004 101.821 178.074 105.008 178.647C108.195 179.219 110.609 178.151 111.182 177.234C111.755 176.316 111.182 175.471 109.13 174.408C106.938 173.296 104.302 170.203 104.296 170.198C104.035 169.892 103.801 169.541 103.562 169.213C103.264 168.85 103.024 168.443 102.85 168.006C102.698 167.544 102.612 167.063 102.594 166.577C102.595 166.535 102.583 166.494 102.561 166.46C102.529 166.436 102.49 166.422 102.449 166.421C101.257 166.308 100.06 166.588 99.0399 167.216C98.9307 167.272 98.8356 167.352 98.7618 167.45C98.711 167.536 98.6735 167.63 98.6505 167.728C98.5838 167.984 98.5115 168.24 98.4447 168.496C98.4315 168.6 98.3958 168.7 98.3401 168.79C98.2844 168.879 98.2101 168.955 98.1221 169.013C97.8885 169.118 97.6271 168.952 97.4268 168.796C97.2266 168.64 97.0875 168.273 96.8706 168.101C96.6404 167.921 96.3487 167.839 96.0585 167.873Z" fill="#455A64"/>
<path d="M102.922 177.913C102.95 177.174 103.178 176.457 103.583 175.839C103.988 175.22 104.553 174.724 105.219 174.403C107.6 173.129 109.074 173.891 109.825 174.403C110.709 175.015 111.988 176.305 111.248 177.278C110.509 178.252 109.14 178.841 106.687 178.919C105.354 179.023 104.026 178.667 102.922 177.913Z" fill="#FAFAFA"/>
<path d="M68.1304 117.896C68.1304 120.577 68.3974 129.405 71.1618 132.853C72.9695 135.078 74.3878 135.996 78.7375 138.972C83.482 142.237 84.105 142.832 85.2675 143.661C85.9357 144.087 86.5125 144.642 86.9642 145.293C87.4158 145.944 87.7334 146.679 87.8984 147.454C88.3044 149.579 88.6882 151.676 90.7629 156.075C92.3926 159.535 94.2059 162.7 95.1237 164.452C96.5031 164.691 99.9461 164.029 100.847 162.861C100.347 160.241 97.5098 141.675 96.2695 138.944C95.0291 136.213 85.3731 127.931 85.3731 127.931C85.3731 127.931 84.6111 122.925 85.3731 119.682L68.1304 117.896Z" fill="#37474F"/>
<path d="M115.871 153.65C115.871 153.65 117.423 159.741 118.468 161.654C119.591 163.83 120.977 165.858 122.596 167.695C122.985 168.134 123.875 168.946 124.197 169.297C124.273 169.366 124.333 169.451 124.372 169.546C124.411 169.641 124.429 169.744 124.424 169.847C124.418 169.949 124.39 170.049 124.341 170.14C124.293 170.231 124.225 170.309 124.142 170.37C123.369 171.138 120.042 171.377 118.151 170.009C116.26 168.64 114.669 166.371 113.54 165.264C112.984 164.708 112.428 164.185 112.05 163.796C111.864 163.612 111.73 163.383 111.66 163.131C111.589 162.88 111.586 162.614 111.649 162.361L111.766 161.843C112.166 160.041 110.008 155.48 110.008 155.48C111.566 153.233 113.846 153.305 115.871 153.65Z" fill="#FFA8A7"/>
<path d="M111.566 164.201C111.524 164.507 111.561 164.819 111.672 165.108C111.855 165.519 113.04 166.22 113.641 166.526C114.339 166.883 114.908 167.449 115.27 168.145C116.022 169.483 117.15 170.572 118.513 171.276C120.364 172.024 122.399 172.193 124.348 171.76C126.773 171.276 126.946 169.836 126.946 169.836C126.946 169.836 127.046 168.484 126.434 168.284C125.822 168.084 111.566 164.201 111.566 164.201Z" fill="#263238"/>
<path d="M111.449 160.035C111.473 160.252 111.473 160.47 111.449 160.686C111.382 161.359 111.332 161.799 111.304 162.544C111.264 163.113 111.354 163.683 111.566 164.212C112.3 165.197 114.002 165.492 115.009 166.827C116.015 168.162 117.234 170.236 120.421 170.809C123.608 171.382 126.022 170.32 126.595 169.396C127.168 168.473 126.595 167.633 124.548 166.571C122.323 165.458 119.714 162.366 119.714 162.36C119.447 162.054 119.214 161.704 118.975 161.376C118.68 161.011 118.442 160.604 118.268 160.169C118.114 159.707 118.026 159.226 118.007 158.739C118.01 158.698 117.998 158.656 117.973 158.623C117.941 158.598 117.902 158.585 117.862 158.584C116.67 158.475 115.474 158.754 114.452 159.379C114.345 159.435 114.252 159.515 114.18 159.613C114.127 159.698 114.089 159.792 114.069 159.891C113.996 160.147 113.93 160.402 113.857 160.664C113.785 160.925 113.729 161.092 113.535 161.176C113.34 161.259 113.045 161.114 112.839 160.959C112.634 160.803 112.5 160.436 112.283 160.269C112.167 160.176 112.033 160.108 111.89 160.068C111.746 160.027 111.597 160.016 111.449 160.035Z" fill="#455A64"/>
<path d="M118.318 170.076C118.344 169.337 118.571 168.62 118.975 168.001C119.379 167.382 119.944 166.886 120.61 166.566C122.991 165.292 124.47 166.054 125.215 166.566C126.105 167.178 127.385 168.468 126.639 169.442C125.894 170.415 124.531 171.005 122.078 171.11C120.744 171.206 119.416 170.841 118.318 170.076Z" fill="#FAFAFA"/>
<path d="M69.2936 119.732C68.7374 122.997 84.0334 129.571 84.0334 129.571C84.0334 129.571 86.1304 130.355 90.4132 132.447C93.8295 134.054 97.1517 135.853 100.364 137.836C101.571 138.582 102.517 138.999 102.867 140.818C103.273 142.942 103.089 143.883 105.782 148.888C107.589 152.259 109.608 154.885 110.526 156.637C111.906 156.876 115.349 156.214 116.25 155.046C115.755 152.426 112.912 133.859 111.672 131.128C110.432 128.397 91.6981 117.612 91.6981 117.612L69.2936 119.732Z" fill="#37474F"/>
<path d="M90.5076 132.497L86.7476 127.413C86.7476 127.413 90.8246 124.955 91.6812 120.577C91.6753 121.896 91.3786 123.197 90.8123 124.389C90.2461 125.58 89.4241 126.631 88.4051 127.469L90.5076 132.497Z" fill="#263238"/>
<path d="M76.5239 86.6202C71.7404 87.5046 68.5533 88.5336 67.6522 89.4013C65.622 93.5673 68.6423 110.332 68.6423 110.332L67.9915 114.053L66.8457 120.572C72.013 124.938 88.8441 123.698 91.6642 117.585C91.6642 117.585 91.6642 98.3063 91.2804 94.7799C90.8743 90.7251 88.6717 86.4811 83.2541 86.1641L76.5239 86.6202Z" fill="#F5F5F5"/>
<path d="M73.0649 118.82C71.6799 116.695 71.4408 111.283 71.4408 111.283C71.4408 111.283 71.5854 97.2104 71.0292 93.8564L67.1078 99.1238C67.4325 102.881 67.9523 106.618 68.6652 110.321L68.0145 114.042L67.2524 118.386L66.8687 120.561C67.0188 120.688 67.1857 120.805 67.3526 120.928L67.525 121.033C67.6418 121.111 67.7642 121.189 67.8921 121.261L68.109 121.384L68.4873 121.578L68.7264 121.69L69.1436 121.868L69.3772 121.962L69.9334 122.151L70.0892 122.207L70.8234 122.418L71.0292 122.468L71.5854 122.607L71.8802 122.663C72.047 122.702 72.2195 122.735 72.3919 122.763L72.7089 122.819L73.2374 122.897L73.5544 122.941C73.7491 122.969 73.9493 122.986 74.144 123.008L74.4165 123.036C74.7058 123.063 74.9728 123.086 75.2898 123.102H75.4122C75.6625 123.102 75.9128 123.13 76.1686 123.136H77.4368H77.993H78.3657L78.9219 123.102H79.2723L79.9509 123.047H80.179C80.4738 123.047 80.7686 122.98 81.0634 122.941L81.3748 122.897L81.9589 122.813L82.3204 122.746L82.8377 122.652L83.2104 122.574L83.7109 122.463L84.0725 122.379L84.5953 122.24L84.9068 122.157C85.1682 122.085 85.4297 122.001 85.6855 121.918L85.9136 121.84L86.4698 121.645L86.7757 121.523L87.2096 121.345L87.521 121.206L87.9215 121.017L88.2108 120.872L88.6001 120.655L88.856 120.51C89.0173 120.416 89.1675 120.316 89.3121 120.216L89.4567 120.127C81.8532 122.591 74.4443 120.961 73.0649 118.82Z" fill="#EBEBEB"/>
<path d="M75.8012 72.4757C75.764 74.3424 76.4696 76.1476 77.763 77.4941C79.0564 78.8407 80.8316 79.6185 82.6983 79.6565C86.5029 79.6565 88.7611 76.3525 89.5899 72.4757C91.1139 65.3839 86.5029 65.2949 82.6983 65.2949C80.8316 65.3329 79.0564 66.1107 77.763 67.4573C76.4696 68.8038 75.764 70.609 75.8012 72.4757Z" fill="#263238"/>
<path d="M72.2861 75.3789C72.2861 75.3789 73.3429 80.5573 73.7657 81.4083C74.0376 81.9349 74.5048 82.3341 75.0672 82.5208L74.9949 78.8775L72.2861 75.3789Z" fill="#263238"/>
<path d="M73.6096 67.9701C73.6096 67.9701 72.8532 67.781 72.0466 69.038C71.3569 70.1171 71.2012 72.5366 72.2858 75.3789L74.2771 75.6181L73.6096 67.9701Z" fill="#263238"/>
<path d="M72.8807 69.0155L70.4389 69.06C70.4186 68.9006 70.432 68.7387 70.4783 68.5849C70.5246 68.431 70.6027 68.2886 70.7076 68.1669C70.8126 68.0452 70.9419 67.947 71.0872 67.8785C71.2326 67.8101 71.3907 67.7729 71.5513 67.7695C71.888 67.7753 72.2105 67.906 72.4562 68.1363C72.7018 68.3665 72.8531 68.6799 72.8807 69.0155Z" fill="#263238"/>
<path d="M72.5804 68.4371L70.7671 66.6961C70.8723 66.5736 71.0016 66.4742 71.1469 66.404C71.2923 66.3337 71.4506 66.2943 71.6119 66.288C71.7732 66.2817 71.9341 66.3088 72.0845 66.3675C72.2348 66.4263 72.3715 66.5154 72.4858 66.6293C72.7258 66.8637 72.8688 67.1798 72.8863 67.5147C72.9038 67.8497 72.7946 68.179 72.5804 68.4371Z" fill="#263238"/>
<path d="M74.8559 75.6236C74.4554 75.8684 73.8881 75.0674 73.3931 74.5112C72.898 73.955 71.3573 73.4655 70.5564 75.2287C69.7554 76.9919 71.1126 78.7273 72.2695 79.3002C74.322 80.3237 74.9783 78.833 74.9783 78.833L75.1452 87.0317C76.1686 89.8684 83.9223 90.419 82.2425 86.8147V84.334C83.2126 84.4953 84.1976 84.5475 85.1793 84.4897C86.7868 84.2283 87.7936 82.9101 88.283 81.1024C89.0617 78.1989 89.3621 75.8517 88.6946 70.1393C87.9716 63.8763 80.9743 63.8095 77.1976 66.2847C73.4209 68.7599 74.8559 75.6236 74.8559 75.6236Z" fill="#FFA8A7"/>
<path d="M83.5941 69.1717C81.9254 69.0048 80.2568 68.6655 78.5881 68.5432C78.2282 68.4984 77.8633 68.5154 77.509 68.5932C76.2242 68.9381 76.3966 70.4287 76.1852 71.4744C75.8348 73.2655 75.5456 76.308 74.867 76.3191C74.6668 76.3191 73.9047 75.0064 73.4041 74.5336C73.1331 74.127 72.9792 73.6536 72.9592 73.1653C72.8312 72.42 72.7645 71.6635 72.7089 70.9405C72.6588 70.3064 72.5976 69.6612 72.5976 69.0215C72.5667 68.3017 72.6227 67.5808 72.7645 66.8745C72.9261 66.2731 73.2337 65.721 73.66 65.267L73.7879 65.128C74.6276 64.2503 75.6463 63.5636 76.7748 63.1145C78.3996 62.5017 80.1044 62.127 81.8364 62.002C83.5645 61.8811 85.2854 61.6732 86.9926 61.3791C87.0908 61.3515 87.1947 61.3515 87.2929 61.3791C87.3609 61.4174 87.4183 61.4721 87.4601 61.5381C87.5018 61.6041 87.5266 61.6794 87.5321 61.7573C87.6021 62.1534 87.5583 62.5613 87.4057 62.9335C87.2531 63.3057 86.9979 63.6269 86.6699 63.8598C87.8213 63.9488 89.1507 63.3481 90.2631 63.0477C90.4415 62.9754 90.641 62.9754 90.8193 63.0477C90.9273 63.13 91.0054 63.2452 91.0418 63.3759C91.1208 63.6776 91.1303 63.9933 91.0696 64.2992C90.9644 65.2143 90.6232 66.0864 90.0796 66.83C89.2184 67.9499 88.0025 68.7441 86.631 69.0827C85.6291 69.2667 84.605 69.2967 83.5941 69.1717Z" fill="#263238"/>
<path d="M82.2535 84.3342C82.2535 84.3342 78.6715 83.5833 77.42 82.888C76.6762 82.4795 76.0718 81.8576 75.6846 81.1025C75.8745 81.8602 76.2088 82.574 76.6691 83.205C77.5868 84.4287 82.2313 85.3242 82.2313 85.3242L82.2535 84.3342Z" fill="#F28F8F"/>
<path d="M81.3914 74.6889C81.3795 74.8276 81.3276 74.9598 81.2419 75.0695C81.1562 75.1791 81.0404 75.2615 80.9087 75.3066C80.777 75.3516 80.6351 75.3574 80.5001 75.3232C80.3652 75.289 80.2432 75.2163 80.1488 75.1139C80.0545 75.0115 79.992 74.8839 79.9689 74.7467C79.9458 74.6094 79.9632 74.4684 80.0188 74.3408C80.0745 74.2132 80.166 74.1046 80.2823 74.0281C80.3987 73.9516 80.5347 73.9107 80.6739 73.9102C80.7723 73.9137 80.869 73.9368 80.9584 73.9779C81.0479 74.0191 81.1283 74.0775 81.195 74.1499C81.2617 74.2223 81.3134 74.3073 81.3471 74.3998C81.3808 74.4922 81.3959 74.5905 81.3914 74.6889Z" fill="#263238"/>
<path d="M80.24 71.5909L78.7049 72.4753C78.5942 72.257 78.5694 72.005 78.6353 71.7693C78.7011 71.5335 78.853 71.3309 79.0609 71.2016C79.1629 71.1451 79.2755 71.1103 79.3916 71.0994C79.5077 71.0885 79.6249 71.1018 79.7356 71.1383C79.8464 71.1749 79.9484 71.234 80.0352 71.3119C80.122 71.3898 80.1917 71.4848 80.24 71.5909Z" fill="#263238"/>
<path d="M81.9253 79.8506L83.5662 80.4902C83.5331 80.6021 83.4773 80.7059 83.4024 80.7953C83.3275 80.8847 83.235 80.9577 83.1307 81.0099C83.0264 81.0621 82.9125 81.0922 82.796 81.0985C82.6796 81.1048 82.5631 81.0871 82.4537 81.0465C82.2321 80.9493 82.0549 80.7726 81.9571 80.5512C81.8593 80.3299 81.8479 80.0799 81.9253 79.8506Z" fill="#F28F8F"/>
<path d="M87.9769 72.2527L86.5752 71.1402C86.6383 71.0424 86.7212 70.959 86.8187 70.8954C86.9162 70.8319 87.0259 70.7895 87.1408 70.7711C87.2557 70.7528 87.3732 70.7588 87.4856 70.7889C87.5981 70.8189 87.7029 70.8723 87.7933 70.9455C87.9772 71.1041 88.0972 71.3241 88.131 71.5646C88.1648 71.805 88.11 72.0496 87.9769 72.2527Z" fill="#263238"/>
<path d="M87.3592 74.4779C87.3473 74.6166 87.2954 74.7489 87.2097 74.8585C87.124 74.9682 87.0082 75.0506 86.8765 75.0956C86.7448 75.1407 86.6028 75.1465 86.4679 75.1122C86.333 75.078 86.2109 75.0053 86.1166 74.9029C86.0223 74.8006 85.9598 74.673 85.9367 74.5357C85.9136 74.3985 85.9309 74.2574 85.9866 74.1299C86.0423 74.0023 86.1338 73.8936 86.2501 73.8172C86.3664 73.7407 86.5025 73.6997 86.6417 73.6992C86.7401 73.7028 86.8368 73.7258 86.9262 73.767C87.0156 73.8081 87.096 73.8666 87.1627 73.939C87.2295 74.0114 87.2812 74.0963 87.3149 74.1888C87.3486 74.2813 87.3637 74.3796 87.3592 74.4779Z" fill="#263238"/>
<path d="M83.5156 73.877L83.5991 78.4101L86.1743 77.8205L83.5156 73.877Z" fill="#F28F8F"/>
<path d="M69.8494 88.2891C65.472 89.0455 63.5864 90.2581 62.4795 95.0972C61.851 97.8393 59.1867 108.446 58.9309 111.828C58.7418 114.292 63.8701 126.624 67.0683 131.251C69.8995 135.351 71.2122 136.369 73.3536 136.814C75.4951 137.259 78.977 135.373 77.8812 133.893C76.7855 132.414 73.9265 130.35 73.882 130.217C73.8375 130.083 75.5952 130.895 76.6909 131.012C77.7867 131.129 78.3151 130.779 78.3874 130.217C78.4597 129.655 77.9313 129.75 76.88 129.371C75.8288 128.993 74.2603 127.425 73.1645 126.941C71.8857 126.469 70.8208 125.55 70.1665 124.354C69.4045 122.908 66.6067 111.283 66.6067 111.283L69.7271 100.381C69.7271 100.381 72.6305 92.622 69.8494 88.2891Z" fill="#FFA8A7"/>
<path d="M70.3224 88.1279C70.3224 88.1279 65.3721 87.9944 63.5977 90.909C61.8234 93.8236 58.2413 110.994 58.4694 112.273C58.6974 113.553 62.7968 123.153 62.7968 123.153C64.5546 121.696 66.7053 120.794 68.9763 120.561L66.8683 111.283L70.9342 97.3778C70.9342 97.3778 72.4027 91.7489 70.3224 88.1279Z" fill="#6A51CA"/>
<path opacity="0.1" d="M70.3224 88.1279C70.3224 88.1279 65.3721 87.9944 63.5977 90.909C61.8234 93.8236 58.2413 110.994 58.4694 112.273C58.6974 113.553 62.7968 123.153 62.7968 123.153C64.5546 121.696 66.7053 120.794 68.9763 120.561L66.8683 111.283L70.9342 97.3778C70.9342 97.3778 72.4027 91.7489 70.3224 88.1279Z" fill="black"/>
</svg>
