<svg width="231" height="313" viewBox="0 0 231 313" fill="none" xmlns="http://www.w3.org/2000/svg">
<g clip-path="url(#clip0_2751_55256)">
<path d="M230.415 312.167H0.564941C0.564941 308.357 2.47494 300.367 8.13494 294.607C15.2149 287.397 25.0149 288.687 31.9049 294.687C30.9649 287.707 30.4449 281.907 32.7849 276.877C36.0049 269.937 43.2849 267.947 48.4849 267.547C55.5849 266.997 62.0549 271.177 65.8249 275.747C64.1549 269.887 64.3049 265.357 65.5549 262.347C68.2549 255.857 72.2049 253.567 77.4949 253.387C73.1649 247.647 70.6749 240.957 74.6349 234.747C76.9949 231.047 79.7649 230.027 83.2849 228.807C81.2049 226.877 78.8449 223.487 78.2249 221.827C74.6249 212.087 77.0249 204.537 82.6749 199.547C86.4749 196.177 92.0749 194.807 97.1549 195.157C95.4249 193.597 93.7549 189.537 93.0749 187.307C91.6449 182.617 92.2649 177.087 93.8949 173.847C95.7349 170.177 99.8049 166.577 106.955 165.487C114.915 164.267 122.055 168.447 124.605 173.857C126.805 178.517 126.845 183.807 125.595 188.697C130.635 189.217 133.425 195.737 133.305 200.187C133.175 205.137 130.545 209.747 127.145 213.357C130.285 213.317 133.375 215.207 134.765 218.017C136.155 220.827 135.785 224.437 133.845 226.907C137.445 225.777 141.655 226.907 144.205 229.687C146.755 232.467 147.505 236.767 146.065 240.247C154.355 235.797 164.635 237.107 171.165 246.207C176.655 253.847 175.235 265.567 168.235 271.847C172.925 271.167 177.525 271.477 180.745 276.077C184.305 281.157 183.665 287.287 179.515 294.347C184.585 289.277 186.625 287.497 191.025 286.667C201.615 284.667 206.685 291.577 207.755 300.017C213.285 296.337 219.095 297.487 221.875 298.947C226.175 301.197 230.735 307.337 230.385 312.167H230.415Z" fill="#E9E9E9" stroke="#252526" stroke-linecap="round" stroke-linejoin="round"/>
<path d="M89.2149 170.461C89.2149 170.461 78.6749 182.201 80.7149 203.351C82.7549 224.501 103.585 243.261 103.585 243.261C103.585 243.261 114.815 233.461 117.175 221.671C117.175 221.671 118.495 226.571 122.435 231.071C122.435 231.071 146.895 208.261 128.025 170.461H89.2249H89.2149Z" fill="#9C8BDC" stroke="#252526" stroke-linecap="round" stroke-linejoin="round"/>
<path d="M96.9249 175.018C96.9249 175.018 90.7549 181.888 91.9449 194.268C93.1349 206.648 105.335 217.628 105.335 217.628C105.335 217.628 111.905 211.898 113.285 204.988C113.285 204.988 114.055 207.858 116.365 210.488C116.365 210.488 130.675 197.138 119.635 175.008H96.9249V175.018Z" fill="#E6E2F6" stroke="#252526" stroke-linecap="round" stroke-linejoin="round"/>
<path d="M147.755 125.867C147.755 125.867 169.495 137.597 174.485 153.567C179.475 169.537 180.475 201.477 180.475 201.477C180.475 201.477 168.435 182.547 139.275 178.917L147.765 125.877L147.755 125.867Z" fill="#ECEDEB" stroke="#252526" stroke-linejoin="round"/>
<path d="M67.8549 125.867C67.8549 125.867 46.115 137.597 41.125 153.567C36.135 169.537 35.1349 201.477 35.1349 201.477C35.1349 201.477 47.1749 182.547 76.3349 178.917L67.8449 125.877L67.8549 125.867Z" fill="#ECEDEB" stroke="#252526" stroke-linejoin="round"/>
<path d="M149.795 67.7775C140.955 31.2375 119.405 9.1475 111.125 1.7675C109.235 0.0775 106.385 0.0775 104.495 1.7675C96.215 9.1475 74.665 31.2375 65.825 67.7875C61.125 87.2275 63.0549 105.938 67.4949 129.068C70.8149 146.398 71.7649 162.408 75.3849 178.917C75.3849 178.917 94.625 176.777 107.815 176.777C121.005 176.777 140.245 178.917 140.245 178.917C143.865 162.408 144.805 146.408 148.135 129.068C152.575 105.928 154.505 87.2175 149.805 67.7875L149.795 67.7775Z" fill="#C1B7E8" stroke="#252526" stroke-linejoin="round"/>
<path d="M107.805 101.767C118.586 101.767 127.325 93.0272 127.325 82.2466C127.325 71.466 118.586 62.7266 107.805 62.7266C97.0244 62.7266 88.285 71.466 88.285 82.2466C88.285 93.0272 97.0244 101.767 107.805 101.767Z" fill="#6A51CA" stroke="#252526" stroke-linejoin="round"/>
</g>
<defs>
<clipPath id="clip0_2751_55256">
<rect width="230.87" height="312.67" fill="white" transform="translate(0.0649414)"/>
</clipPath>
</defs>
</svg>
