<svg width="270" height="195" viewBox="0 0 270 195" fill="none" xmlns="http://www.w3.org/2000/svg">
<g clip-path="url(#clip0_2014_49432)">
<path d="M163.892 139.763L146.782 139.634C146.022 139.629 145.407 139.004 145.412 138.244C145.418 137.484 146.043 136.869 146.803 136.874L163.912 137.003L163.892 139.763Z" fill="#ECEDEB" stroke="#252526" stroke-linejoin="round"/>
<path d="M163.01 140.09H174.15C174.487 140.09 174.76 139.817 174.76 139.48V137.04C174.76 136.703 174.487 136.43 174.15 136.43H163.01C162.673 136.43 162.4 136.703 162.4 137.04V139.48C162.4 139.817 162.673 140.09 163.01 140.09Z" fill="#A0A0A0" stroke="#252526" stroke-linejoin="round"/>
<path d="M61.9099 83.89C36.8899 83.89 16.6099 104.17 16.6099 129.19C16.6099 154.21 36.8899 174.49 61.9099 174.49C86.9299 174.49 107.21 154.21 107.21 129.19C107.21 104.17 86.9299 83.89 61.9099 83.89ZM61.9099 166.78C41.1499 166.78 24.3299 149.95 24.3299 129.2C24.3299 108.45 41.1599 91.62 61.9099 91.62C82.6599 91.62 99.4899 108.45 99.4899 129.2C99.4899 149.95 82.6599 166.78 61.9099 166.78Z" fill="#383838" stroke="#252526" stroke-linejoin="round"/>
<path d="M205.81 83.89C180.79 83.89 160.51 104.17 160.51 129.19C160.51 154.21 180.79 174.49 205.81 174.49C230.83 174.49 251.11 154.21 251.11 129.19C251.11 104.17 230.83 83.89 205.81 83.89ZM205.81 166.78C185.05 166.78 168.23 149.95 168.23 129.2C168.23 108.45 185.06 91.62 205.81 91.62C226.56 91.62 243.39 108.45 243.39 129.2C243.39 149.95 226.56 166.78 205.81 166.78Z" fill="#383838" stroke="#252526" stroke-linejoin="round"/>
<path d="M169.82 46.41C173.09 46.41 179.16 46.41 182.19 45.93C185.22 45.45 189.29 45.05 189.69 45.93C190.09 46.81 190.25 47.45 187.85 49.44C185.46 51.44 183.06 52.39 182.02 53.19C180.98 53.99 174.61 54.73 170.49 53.08C166.38 51.43 162.71 49.04 161.43 48.96C160.15 48.88 156.64 49.8 155.44 49.74C154.24 49.68 153.92 48.24 155.44 47.37C156.96 46.49 167.01 46.42 169.8 46.41H169.82Z" fill="#9C8BDC" stroke="#252526" stroke-linejoin="round"/>
<path d="M152.72 134.9C152.72 134.9 199.27 129.43 200.82 129.19C202.37 128.95 203.28 129.9 203.41 130.59C203.54 131.28 203.15 132.19 201.6 132.7C200.05 133.21 153.5 140.2 153.5 140.2L152.72 134.9Z" fill="#ECEDEB" stroke="#252526" stroke-linejoin="round"/>
<path d="M97.2397 55.84C97.2397 55.84 99.5297 49.64 99.7897 48.78C100.05 47.92 99.7397 47.75 98.5097 47.23C97.2897 46.71 91.5997 44.82 90.3897 44.3C89.1797 43.78 86.2497 42.75 85.3897 42.66C84.5297 42.57 83.5797 42.57 82.1997 42.66C80.8197 42.75 78.7797 42.92 79.4097 44.64C80.0397 46.36 80.2297 47.19 81.0097 46.9C82.4297 46.39 84.7597 46.32 86.0497 46.76C87.0797 47.11 91.4197 48.79 92.3597 49.21C93.2997 49.63 93.4797 49.72 93.1397 50.5C92.7997 51.28 91.7497 54.25 91.7497 54.25L97.2297 55.84H97.2397Z" fill="#7A7A79" stroke="#252526" stroke-linejoin="round"/>
<path d="M146.91 151.43C154.189 151.43 160.09 145.529 160.09 138.25C160.09 130.971 154.189 125.07 146.91 125.07C139.631 125.07 133.73 130.971 133.73 138.25C133.73 145.529 139.631 151.43 146.91 151.43Z" fill="#ECEDEB" stroke="#252526" stroke-linejoin="round"/>
<path d="M206.63 128.04C206.05 127.37 171.57 90.21 165.72 83.91C170.18 68.85 174.21 55.28 174.21 55.28C174.6 53.99 174.75 54 173.5 53.85C172.57 53.74 171.24 53.34 170.26 52.99C169.87 54.28 164.23 72.97 163.97 73.75C163.71 74.53 163.84 75.3 162.42 74.78C161 74.26 97.9798 58.36 96.9498 57.84C96.9498 57.84 97.0898 56.95 97.2398 55.85C97.2498 55.76 91.0898 54.08 90.6498 53.96C90.1598 53.83 88.7398 58.64 87.8898 60.94C85.6398 67.05 83.1998 73.69 80.7698 79.73C77.9398 86.75 75.1198 93.76 72.2798 100.78C69.9098 106.66 67.5298 112.55 65.1498 118.43C64.0798 121.07 63.0898 123.78 61.9098 126.37C60.8498 128.7 60.1998 130.12 61.0398 130.57C61.6998 130.93 62.4598 131.37 63.6298 129.19C64.7898 127.01 88.4598 81.5 88.9698 80.59C89.4798 79.68 90.5198 79.56 91.4298 80.59C92.3398 81.62 128.15 133.86 129.19 135.68C130.22 137.49 134.92 143.71 134.92 143.71C134.92 143.71 132.9 139.54 134.11 135.15C135.32 130.76 137.65 128.89 137.65 128.89C137.65 128.89 101.66 75.94 100.11 73.61C98.5598 71.28 95.5798 67.92 95.4498 66.11C95.3198 64.3 97.0998 63.27 99.5098 63.78C101.92 64.3 159.46 77.36 160.75 77.87C162.04 78.39 162.43 78.52 162.04 79.94C161.65 81.36 153.89 105.41 153.63 106.19C153.5 106.57 153.5 106.73 153.39 106.91L147.5 125.1C148.15 125.13 148.74 125.21 149.32 125.3C151.09 125.56 153.07 126.61 153.07 126.61C153.07 126.61 157.74 110.85 164.31 88.67C170.35 94.85 202.3 127.53 203.91 129.19C205.68 131.02 206.23 130.63 206.64 130.35C207.05 130.08 207.88 129.47 206.64 128.03L206.63 128.04Z" fill="#ECEDEB" stroke="#252526" stroke-linejoin="round"/>
<path d="M61.9098 139.34C67.5155 139.34 72.0598 134.796 72.0598 129.19C72.0598 123.584 67.5155 119.04 61.9098 119.04C56.3041 119.04 51.7598 123.584 51.7598 129.19C51.7598 134.796 56.3041 139.34 61.9098 139.34Z" fill="#ECEDEB" stroke="#252526" stroke-linejoin="round"/>
<path d="M205.81 139.34C211.415 139.34 215.96 134.796 215.96 129.19C215.96 123.584 211.415 119.04 205.81 119.04C200.204 119.04 195.66 123.584 195.66 129.19C195.66 134.796 200.204 139.34 205.81 139.34Z" fill="#ECEDEB" stroke="#252526" stroke-linejoin="round"/>
<path d="M129.914 137.001L147.024 136.873C147.784 136.867 148.408 137.482 148.414 138.242C148.42 139.002 147.804 139.627 147.044 139.633L129.935 139.761L129.914 137.001Z" fill="#ECEDEB" stroke="#252526" stroke-linejoin="round"/>
<path d="M130.8 136.42H119.66C119.323 136.42 119.05 136.693 119.05 137.03V139.47C119.05 139.807 119.323 140.08 119.66 140.08H130.8C131.137 140.08 131.41 139.807 131.41 139.47V137.03C131.41 136.693 131.137 136.42 130.8 136.42Z" fill="#A0A0A0" stroke="#252526" stroke-linejoin="round"/>
<path d="M129.99 45.2C130.13 41.87 132.22 39.23 134.77 39.23V39.21C132.22 39.21 130.13 36.57 129.99 33.24C129.85 36.56 127.77 39.2 125.23 39.21V39.23C127.77 39.24 129.85 41.88 129.99 45.2Z" fill="#6A51CA" stroke="#252526" stroke-linecap="round" stroke-linejoin="round"/>
<path d="M264 97.59C264.14 94.26 266.23 91.62 268.78 91.62V91.6C266.23 91.6 264.14 88.96 264 85.63C263.86 88.95 261.78 91.59 259.24 91.6V91.62C261.78 91.63 263.86 94.27 264 97.59Z" fill="#6A51CA" stroke="#252526" stroke-linecap="round" stroke-linejoin="round"/>
<path d="M5.26 126.95C5.4 123.62 7.49 120.98 10.04 120.98V120.96C7.49 120.96 5.4 118.32 5.26 114.99C5.12 118.31 3.04 120.95 0.5 120.96V120.98C3.04 120.99 5.12 123.63 5.26 126.95Z" fill="#6A51CA" stroke="#252526" stroke-linecap="round" stroke-linejoin="round"/>
<path d="M166.58 10.74C166.69 8.21003 168.27 6.21003 170.21 6.21003V6.19003C168.27 6.19003 166.69 4.18003 166.58 1.66003C166.47 4.18003 164.9 6.18003 162.97 6.19003V6.21003C164.9 6.21003 166.48 8.22003 166.58 10.74Z" fill="#6A51CA" stroke="#252526" stroke-linecap="round" stroke-linejoin="round"/>
<path d="M239.77 179.03C239.88 176.5 241.46 174.5 243.4 174.5V174.48C241.46 174.48 239.88 172.47 239.77 169.95C239.66 172.47 238.09 174.47 236.16 174.48V174.5C238.09 174.5 239.67 176.51 239.77 179.03Z" fill="#6A51CA" stroke="#252526" stroke-linecap="round" stroke-linejoin="round"/>
<path d="M212.33 54.2799C212.44 51.7499 214.02 49.75 215.96 49.75V49.7299C214.02 49.7299 212.44 47.72 212.33 45.2C212.22 47.72 210.65 49.7199 208.72 49.7299V49.75C210.65 49.75 212.23 51.7599 212.33 54.2799Z" fill="#6A51CA" stroke="#252526" stroke-linecap="round" stroke-linejoin="round"/>
<path d="M113.22 175.86C113.33 173.33 114.91 171.33 116.85 171.33V171.31C114.91 171.31 113.33 169.3 113.22 166.78C113.11 169.3 111.54 171.3 109.61 171.31V171.33C111.54 171.33 113.12 173.34 113.22 175.86Z" fill="#6A51CA" stroke="#252526" stroke-linecap="round" stroke-linejoin="round"/>
<path d="M143.28 96.1501C143.39 93.6201 144.97 91.6201 146.91 91.6201V91.6001C144.97 91.6001 143.39 89.5901 143.28 87.0701C143.17 89.5901 141.6 91.5901 139.67 91.6001V91.6201C141.6 91.6201 143.18 93.6301 143.28 96.1501Z" fill="#6A51CA" stroke="#252526" stroke-linecap="round" stroke-linejoin="round"/>
<path d="M99.4899 18.61C99.5999 16.08 101.18 14.08 103.12 14.08V14.06C101.18 14.06 99.5999 12.05 99.4899 9.53003C99.3799 12.05 97.8099 14.05 95.8799 14.06V14.08C97.8099 14.08 99.3899 16.09 99.4899 18.61Z" fill="#6A51CA" stroke="#252526" stroke-linecap="round" stroke-linejoin="round"/>
<path d="M48.6498 63.67C48.7398 61.5 50.0998 59.78 51.7598 59.78C50.0998 59.77 48.7398 58.05 48.6498 55.88C48.5598 58.04 47.2098 59.76 45.5498 59.77C47.2098 59.79 48.5598 61.51 48.6498 63.67Z" fill="#6A51CA" stroke="#252526" stroke-linecap="round" stroke-linejoin="round"/>
<path d="M220.53 114.99C220.62 112.82 221.98 111.1 223.64 111.1C221.98 111.09 220.62 109.37 220.53 107.2C220.44 109.36 219.09 111.08 217.43 111.09C219.09 111.11 220.44 112.83 220.53 114.99Z" fill="#6A51CA" stroke="#252526" stroke-linecap="round" stroke-linejoin="round"/>
<path d="M182.95 161.43C183.04 159.26 184.4 157.54 186.06 157.54C184.4 157.53 183.04 155.81 182.95 153.64C182.86 155.8 181.51 157.52 179.85 157.53C181.51 157.55 182.86 159.27 182.95 161.43Z" fill="#6A51CA" stroke="#252526" stroke-linecap="round" stroke-linejoin="round"/>
<path d="M51.2401 155.32C51.3301 153.15 52.6901 151.43 54.3501 151.43C52.6901 151.42 51.3301 149.7 51.2401 147.53C51.1501 149.69 49.8001 151.41 48.1401 151.42C49.8001 151.44 51.1501 153.16 51.2401 155.32Z" fill="#6A51CA" stroke="#252526" stroke-linecap="round" stroke-linejoin="round"/>
<path d="M164.45 183.72L185.48 162.23C185.69 162.01 186.01 161.94 186.3 162.04C189.2 162.94 192.38 162.31 194.54 160.11C197.04 157.56 197.4 153.67 195.72 150.49C195.54 150.15 195.06 150.12 194.85 150.44L192.49 154.11C191.59 155.51 189.72 155.92 188.32 155.02L187.18 154.29C185.78 153.39 185.37 151.52 186.27 150.12L188.66 146.4C188.87 146.08 188.65 145.65 188.26 145.63C185.99 145.49 183.74 146.25 182.09 147.94C180.12 149.95 179.49 152.79 180.12 155.45C180.18 155.72 180.12 156 179.92 156.2L158.9 177.69C158.69 177.91 158.37 177.98 158.08 177.88C155.18 176.98 151.99 177.61 149.84 179.81C147.34 182.36 146.98 186.25 148.66 189.43C148.84 189.77 149.32 189.8 149.53 189.48L151.89 185.81C152.79 184.41 154.66 184 156.06 184.9L157.2 185.63C158.6 186.53 159.01 188.4 158.11 189.8L155.72 193.52C155.51 193.84 155.73 194.27 156.12 194.29C158.39 194.43 160.64 193.67 162.29 191.98C164.26 189.97 164.89 187.14 164.26 184.47C164.2 184.2 164.26 183.92 164.46 183.72H164.45Z" fill="#CECFCF" stroke="#252526" stroke-linecap="round" stroke-linejoin="round"/>
<path d="M240.404 12.6053L205.2 0.0974441C204.159 -0.272359 203.016 0.271613 202.646 1.31244L195.29 22.0146C194.921 23.0554 195.465 24.199 196.505 24.5688L231.709 37.0767C232.75 37.4465 233.894 36.9025 234.264 35.8617L241.619 15.1595C241.989 14.1187 241.445 12.9751 240.404 12.6053Z" fill="#252526"/>
<path d="M221.79 12.26L219.75 18L225.49 20.04L227.53 14.3L221.79 12.26ZM224.26 17.44L222.35 16.76L223.03 14.85L224.94 15.53L224.26 17.44Z" fill="white"/>
<path d="M212.1 15.27L217.84 17.31L219.88 11.57L214.14 9.53003L212.1 15.27ZM215.37 12.13L217.28 12.81L216.6 14.72L214.69 14.04L215.37 12.13Z" fill="white"/>
<path d="M219.054 19.8959L218.374 21.8087L220.287 22.4883L220.967 20.5755L219.054 19.8959Z" fill="white"/>
<path d="M220.3 22.5L219.62 24.41L221.54 25.09L220.86 27L222.77 27.68L223.45 25.77L224.13 23.86L222.22 23.18L220.3 22.5Z" fill="white"/>
<path d="M217.698 23.7262L217.019 25.639L218.931 26.3187L219.611 24.4058L217.698 23.7262Z" fill="white"/>
<path d="M209.38 22.9201L215.12 24.9601L217.16 19.2201L211.42 17.1801L209.38 22.9201ZM212.65 19.7801L214.56 20.4601L213.88 22.3701L211.97 21.6901L212.65 19.7801Z" fill="white"/>
</g>
<defs>
<clipPath id="clip0_2014_49432">
<rect width="269.28" height="194.81" fill="white"/>
</clipPath>
</defs>
</svg>
