<svg width="197" height="150" viewBox="0 0 197 150" fill="none" xmlns="http://www.w3.org/2000/svg">
<g clip-path="url(#clip0_2097_51553)">
<path d="M46.9941 137.99L46.9941 67.0748C46.9941 60.724 41.8458 55.5757 35.495 55.5757H11.5263C5.17552 55.5757 0.0271835 60.724 0.0271835 67.0748L0.0271835 137.99C0.0271835 144.34 5.17552 149.489 11.5263 149.489H35.495C41.8458 149.489 46.9941 144.34 46.9941 137.99Z" fill="#252526"/>
<path d="M36.5696 57.8608H10.7435C6.1735 57.8608 2.46875 61.5656 2.46875 66.1356V138.908C2.46875 143.478 6.1735 147.183 10.7435 147.183H36.5696C41.1397 147.183 44.8444 143.478 44.8444 138.908V66.1356C44.8444 61.5656 41.1397 57.8608 36.5696 57.8608Z" fill="#ECEDEB" stroke="#252526" stroke-miterlimit="10"/>
<path d="M24.5487 80.9844H22.4722C15.0495 80.9844 9.03223 87.0017 9.03223 94.4244V110.63C9.03223 118.052 15.0495 124.07 22.4722 124.07H24.5487C31.9715 124.07 37.9887 118.052 37.9887 110.63V94.4244C37.9887 87.0017 31.9715 80.9844 24.5487 80.9844Z" fill="#6A51CA"/>
<path d="M16.8057 97.1687L30.2144 107.885L23.5152 113.249V91.8052L30.2144 97.1687L16.8057 107.885" stroke="#ECEDEB" stroke-width="2" stroke-linecap="round" stroke-linejoin="round"/>
<path d="M76.4415 106.695C78.7467 106.695 80.6154 104.827 80.6154 102.522C80.6154 100.216 78.7467 98.3477 76.4415 98.3477C74.1363 98.3477 72.2676 100.216 72.2676 102.522C72.2676 104.827 74.1363 106.695 76.4415 106.695Z" fill="#B5A8E4"/>
<path d="M99.2315 106.695C101.537 106.695 103.405 104.827 103.405 102.522C103.405 100.216 101.537 98.3477 99.2315 98.3477C96.9263 98.3477 95.0576 100.216 95.0576 102.522C95.0576 104.827 96.9263 106.695 99.2315 106.695Z" fill="#B5A8E4"/>
<path d="M122.021 106.695C124.326 106.695 126.195 104.827 126.195 102.522C126.195 100.216 124.326 98.3477 122.021 98.3477C119.715 98.3477 117.847 100.216 117.847 102.522C117.847 104.827 119.715 106.695 122.021 106.695Z" fill="#B5A8E4"/>
<path d="M192.152 145.148V79.6279H153.805V145.148H192.152Z" fill="#252526" stroke="#252526" stroke-linecap="round" stroke-linejoin="round"/>
<path d="M192.153 61.388H184.848V57.7359C184.848 56.5359 183.888 55.5654 182.699 55.5654H163.822C162.633 55.5654 161.673 56.5359 161.673 57.7359V61.388H153.805C151.426 61.388 149.506 63.3289 149.506 65.7185V145.148C149.506 147.538 151.436 149.478 153.805 149.478H192.153C194.532 149.478 196.452 147.538 196.452 145.148V65.7185C196.452 63.3289 194.522 61.388 192.153 61.388Z" stroke="#252526" stroke-linecap="round" stroke-linejoin="round"/>
<path d="M134.793 73.7633C136.755 75.6103 139.614 78.1668 141.868 79.6173C134.835 79.3668 128.595 76.0799 125.047 73.7633H102.716C97.4154 73.7633 93.085 69.4746 93.085 64.2259V43.7425C93.085 38.4938 97.4154 34.2051 102.716 34.2051H134.647C139.948 34.2051 144.278 38.4938 144.278 43.7425V64.2259C144.278 69.4225 140.021 73.6903 134.793 73.7529V73.7633Z" fill="#F4F4F4" stroke="#252526" stroke-linecap="round" stroke-linejoin="round"/>
<path d="M103.404 55.5649H132.935" stroke="#252526" stroke-linecap="round" stroke-linejoin="round"/>
<path d="M103.926 49.7319H133.446" stroke="#252526" stroke-linecap="round" stroke-linejoin="round"/>
<path d="M103.404 61.4087H132.935" stroke="#252526" stroke-linecap="round" stroke-linejoin="round"/>
<path d="M115.99 33.882C115.99 52.2994 101.057 67.2315 82.6295 67.2315C80.7408 67.2315 78.8939 67.075 77.0887 66.7724C68.4174 73.8055 57.2104 72.5324 57.2104 72.5324C58.2956 72.4072 64.0452 68.6194 68.3234 64.0176C57.0539 58.6646 49.2695 47.1863 49.2695 33.882C49.2695 15.4541 64.2017 0.521973 82.6295 0.521973C101.057 0.521973 115.99 15.4541 115.99 33.882Z" fill="#FAFAFA" stroke="#252526" stroke-linecap="round" stroke-linejoin="round"/>
<path d="M82.5867 21.6104C84.696 21.6104 86.4058 19.9005 86.4058 17.7913C86.4058 15.682 84.696 13.9722 82.5867 13.9722C80.4775 13.9722 78.7676 15.682 78.7676 17.7913C78.7676 19.9005 80.4775 21.6104 82.5867 21.6104Z" fill="#252526"/>
<g opacity="0.98">
<path d="M86.1347 26.0871L76.0234 29.4993C76.0234 29.4993 80.2704 29.5619 80.6252 32.9845C80.98 36.4071 80.6252 47.0297 80.6252 47.0297C80.6252 47.0297 80.4374 49.6906 76.7017 50.2123H89.2443C89.2443 50.2123 86.5208 49.6175 86.406 47.9062C86.2913 46.1949 86.406 26.0767 86.406 26.0767" fill="#252526"/>
<path d="M86.1347 26.0871L76.0234 29.4993C76.0234 29.4993 80.2704 29.5619 80.6252 32.9845C80.98 36.4071 80.6252 47.0297 80.6252 47.0297C80.6252 47.0297 80.4374 49.6906 76.7017 50.2123H89.2443C89.2443 50.2123 86.5208 49.6175 86.406 47.9062C86.2913 46.1949 86.406 26.0767 86.406 26.0767" stroke="#252526" stroke-linecap="round" stroke-linejoin="round"/>
</g>
</g>
<defs>
<clipPath id="clip0_2097_51553">
<rect width="196.946" height="150" fill="white" transform="translate(0.0273438)"/>
</clipPath>
</defs>
</svg>
