<svg width="302" height="237" viewBox="0 0 302 237" fill="none" xmlns="http://www.w3.org/2000/svg">
<path d="M301.628 209.305H0V209.456H301.628V209.305Z" fill="#EBEBEB"/>
<path d="M142.972 182.4H26.4891C25.5766 182.398 24.702 182.035 24.0573 181.389C23.4126 180.743 23.0505 179.868 23.0505 178.955V15.2133C23.0585 14.306 23.4241 13.4385 24.0679 12.7992C24.7117 12.1599 25.5818 11.8004 26.4891 11.7988H142.972C143.885 11.7988 144.762 12.1617 145.408 12.8077C146.054 13.4537 146.417 14.3299 146.417 15.2434V178.955C146.417 179.869 146.054 180.745 145.408 181.391C144.762 182.037 143.885 182.4 142.972 182.4ZM26.4891 11.9195C25.6166 11.9211 24.7803 12.2688 24.1639 12.8863C23.5475 13.5039 23.2013 14.3407 23.2014 15.2133V178.955C23.2013 179.828 23.5475 180.665 24.1639 181.282C24.7803 181.9 25.6166 182.247 26.4891 182.249H142.972C143.845 182.247 144.682 181.9 145.299 181.282C145.917 180.665 146.264 179.828 146.266 178.955V15.2133C146.264 14.3402 145.917 13.5033 145.299 12.886C144.682 12.2686 143.845 11.9211 142.972 11.9195H26.4891Z" fill="#EBEBEB"/>
<path d="M273.462 182.4H156.973C156.06 182.398 155.185 182.035 154.539 181.389C153.894 180.743 153.53 179.868 153.529 178.955V15.2133C153.538 14.3054 153.905 13.4379 154.55 12.7988C155.195 12.1596 156.066 11.8004 156.973 11.7988H273.462C274.369 11.802 275.237 12.1621 275.88 12.8013C276.522 13.4404 276.887 14.307 276.895 15.2133V178.955C276.895 179.867 276.534 180.741 275.89 181.387C275.247 182.032 274.374 182.397 273.462 182.4ZM156.973 11.9195C156.1 11.9211 155.263 12.2686 154.646 12.886C154.029 13.5033 153.681 14.3402 153.68 15.2133V178.955C153.681 179.828 154.029 180.665 154.646 181.282C155.263 181.9 156.1 182.247 156.973 182.249H273.462C274.335 182.247 275.172 181.9 275.79 181.282C276.407 180.665 276.754 179.828 276.756 178.955V15.2133C276.754 14.3402 276.407 13.5033 275.79 12.886C275.172 12.2686 274.335 11.9211 273.462 11.9195H156.973Z" fill="#EBEBEB"/>
<path d="M271.405 215.049H255.721V215.2H271.405V215.049Z" fill="#EBEBEB"/>
<path d="M214.777 213.414H182.141V213.565H214.777V213.414Z" fill="#EBEBEB"/>
<path d="M260.607 220.652H239.246V220.803H260.607V220.652Z" fill="#EBEBEB"/>
<path d="M45.9379 219.639H31.6467V219.789H45.9379V219.639Z" fill="#EBEBEB"/>
<path d="M66.8953 219.639H51.3071V219.789H66.8953V219.639Z" fill="#EBEBEB"/>
<path d="M159.947 217.094H127.034V217.245H159.947V217.094Z" fill="#EBEBEB"/>
<path d="M301.628 135.666H95.1758V209.306H301.628V135.666Z" fill="#F5F5F5"/>
<path d="M85.0593 135.666H301.628V126.418H83.2495L85.0593 135.666Z" fill="#F5F5F5"/>
<path d="M301.628 135.666H95.1758V140.691H301.628V135.666Z" fill="#E6E6E6"/>
<path d="M137.241 203.134H104.062V145.824H137.241V203.134ZM104.665 202.53H136.637V146.427H104.665V202.53Z" fill="#EBEBEB"/>
<path d="M179.994 203.134H146.814V145.824H179.994V203.134ZM147.418 202.53H179.39V146.427H147.418V202.53Z" fill="#EBEBEB"/>
<path d="M222.741 203.134H189.562V145.824H222.741V203.134ZM190.165 202.53H222.137V146.427H190.165V202.53Z" fill="#EBEBEB"/>
<path d="M265.493 203.134H232.314V145.824H265.493V203.134ZM232.917 202.53H264.89V146.427H232.917V202.53Z" fill="#EBEBEB"/>
<path d="M301.628 203.134H275.061V145.824H301.628V146.427H275.664V202.53H301.628V203.134Z" fill="#EBEBEB"/>
<path d="M84.5885 153.262H62.069C60.9772 153.259 59.931 152.824 59.159 152.052C58.387 151.28 57.9519 150.234 57.9487 149.142C57.9503 148.049 58.3847 147.001 59.1569 146.228C59.9291 145.455 60.9762 145.019 62.069 145.016H84.5885C85.6819 145.019 86.7296 145.455 87.5027 146.228C88.2759 147.001 88.7116 148.049 88.7148 149.142C88.7116 150.235 88.2757 151.282 87.5024 152.054C86.7291 152.826 85.6814 153.261 84.5885 153.262Z" fill="#E6E6E6"/>
<path d="M61.0074 209.304H59.2881L63.8668 153.262H65.5861L61.0074 209.304Z" fill="#F0F0F0"/>
<path d="M72.0166 209.304H70.2974L72.5656 153.262H74.2849L72.0166 209.304Z" fill="#F0F0F0"/>
<path d="M86.5009 193.645H61.2969V197.602H86.5009V193.645Z" fill="#F0F0F0"/>
<path d="M86.6578 209.304H88.3771L83.7984 153.262H82.0791L86.6578 209.304Z" fill="#F0F0F0"/>
<path d="M154.747 153.262H132.228C131.136 153.259 130.09 152.824 129.318 152.052C128.546 151.28 128.111 150.234 128.107 149.142C128.109 148.049 128.543 147.001 129.316 146.228C130.088 145.455 131.135 145.019 132.228 145.016H154.747C155.841 145.019 156.888 145.455 157.661 146.228C158.435 147.001 158.87 148.049 158.873 149.142C158.87 150.235 158.434 151.282 157.661 152.054C156.888 152.826 155.84 153.261 154.747 153.262Z" fill="#E6E6E6"/>
<path d="M131.166 209.304H129.447L134.025 153.262H135.745L131.166 209.304Z" fill="white"/>
<path d="M142.175 209.304H140.456L142.724 153.262H144.444L142.175 209.304Z" fill="white"/>
<path d="M156.66 193.645H131.456V197.602H156.66V193.645Z" fill="white"/>
<path d="M156.817 209.304H158.536L153.957 153.262H152.238L156.817 209.304Z" fill="white"/>
<path d="M244.18 153.262H221.654C220.563 153.259 219.516 152.824 218.744 152.052C217.972 151.28 217.537 150.234 217.534 149.142C217.536 148.049 217.97 147.001 218.742 146.228C219.515 145.455 220.562 145.019 221.654 145.016H244.18C245.272 145.02 246.318 145.457 247.09 146.23C247.862 147.003 248.297 148.05 248.3 149.142C248.297 150.234 247.862 151.28 247.09 152.052C246.318 152.824 245.272 153.259 244.18 153.262Z" fill="#E6E6E6"/>
<path d="M220.593 209.304H218.874L223.452 153.262H225.172L220.593 209.304Z" fill="white"/>
<path d="M231.602 209.304H229.883L232.151 153.262H233.87L231.602 209.304Z" fill="white"/>
<path d="M246.086 193.645H220.882V197.602H246.086V193.645Z" fill="white"/>
<path d="M246.243 209.304H247.963L243.384 153.262H241.665L246.243 209.304Z" fill="white"/>
<path d="M120.76 74.1642L120.579 73.8927C120.058 73.12 119.735 72.2314 119.638 71.3048L119.077 65.9177C119.125 65.9133 119.171 65.8912 119.204 65.8556C119.237 65.82 119.256 65.7734 119.258 65.7246C119.258 65.6702 119.236 65.6181 119.198 65.5796C119.159 65.5411 119.107 65.5195 119.053 65.5195H116.851C116.796 65.5195 116.744 65.5411 116.706 65.5796C116.667 65.6181 116.646 65.6702 116.646 65.7246C116.645 65.7728 116.663 65.8194 116.696 65.8551C116.728 65.8908 116.773 65.9132 116.821 65.9177L116.26 71.3048C116.164 72.2309 115.843 73.1196 115.325 73.8927L115.144 74.1642C114.844 74.6053 114.684 75.1268 114.685 75.6603V87.0799C114.685 87.1937 114.708 87.3064 114.751 87.4114C114.795 87.5165 114.859 87.6119 114.94 87.6921C115.021 87.7722 115.116 87.8357 115.222 87.8787C115.327 87.9216 115.44 87.9434 115.554 87.9426H120.35C120.579 87.9426 120.799 87.8519 120.962 87.6903C121.125 87.5287 121.217 87.3093 121.218 87.0799V75.6603C121.217 75.1272 121.057 74.6066 120.76 74.1642Z" fill="#E0E0E0"/>
<path d="M118.727 77.3848H114.685V84.6299H118.727V77.3848Z" fill="#F5F5F5"/>
<path d="M133.067 74.1642L132.879 73.8927C132.361 73.1196 132.04 72.2309 131.944 71.3048L131.383 65.9177C131.431 65.9132 131.476 65.8908 131.508 65.8551C131.541 65.8194 131.559 65.7728 131.558 65.7246C131.558 65.6713 131.538 65.62 131.5 65.5817C131.463 65.5434 131.413 65.5211 131.359 65.5195H129.151C129.098 65.5211 129.047 65.5434 129.01 65.5817C128.973 65.62 128.952 65.6713 128.952 65.7246C128.952 65.7728 128.97 65.8194 129.002 65.8551C129.035 65.8908 129.079 65.9132 129.127 65.9177L128.566 71.3048C128.471 72.2309 128.15 73.1196 127.631 73.8927L127.45 74.1642C127.15 74.6053 126.99 75.1268 126.992 75.6603V87.0799C126.992 87.1937 127.014 87.3064 127.058 87.4114C127.102 87.5165 127.166 87.6119 127.247 87.6921C127.327 87.7722 127.423 87.8357 127.528 87.8787C127.634 87.9216 127.747 87.9434 127.86 87.9426H132.686C132.8 87.9426 132.912 87.9203 133.017 87.8769C133.121 87.8336 133.216 87.77 133.296 87.6899C133.377 87.6098 133.44 87.5147 133.483 87.41C133.527 87.3054 133.549 87.1932 133.549 87.0799V75.6603C133.541 75.1247 133.373 74.6037 133.067 74.1642Z" fill="#E0E0E0"/>
<path d="M129.972 77.3848H126.992V84.6299H129.972V77.3848Z" fill="#F5F5F5"/>
<path d="M141.409 74.1642L141.228 73.8927C140.708 73.12 140.384 72.2314 140.287 71.3048L139.726 65.9177C139.775 65.9133 139.82 65.8912 139.853 65.8556C139.887 65.82 139.906 65.7734 139.907 65.7246C139.907 65.6702 139.886 65.6181 139.847 65.5796C139.809 65.5411 139.756 65.5195 139.702 65.5195H137.5C137.446 65.5195 137.394 65.5411 137.355 65.5796C137.317 65.6181 137.295 65.6702 137.295 65.7246C137.296 65.7734 137.315 65.82 137.349 65.8556C137.382 65.8912 137.427 65.9133 137.476 65.9177L136.909 71.3048C136.814 72.2309 136.493 73.1196 135.974 73.8927L135.793 74.1642C135.496 74.6066 135.336 75.1272 135.334 75.6603V87.0799C135.336 87.3093 135.428 87.5287 135.591 87.6903C135.754 87.8519 135.974 87.9426 136.203 87.9426H140.999C141.228 87.9426 141.448 87.8519 141.611 87.6903C141.774 87.5287 141.866 87.3093 141.868 87.0799V75.6603C141.866 75.1272 141.707 74.6066 141.409 74.1642Z" fill="#E0E0E0"/>
<path d="M139.986 77.3848H135.334V84.6299H139.986V77.3848Z" fill="#F5F5F5"/>
<path d="M207.128 74.1642L206.941 73.8927C206.422 73.1196 206.101 72.2309 206.006 71.3048L205.445 65.9177C205.493 65.9132 205.538 65.8908 205.57 65.8551C205.602 65.8194 205.62 65.7728 205.62 65.7246C205.62 65.6713 205.599 65.62 205.562 65.5817C205.525 65.5434 205.474 65.5211 205.421 65.5195H203.213C203.16 65.5211 203.109 65.5434 203.072 65.5817C203.035 65.62 203.014 65.6713 203.014 65.7246C203.014 65.7728 203.031 65.8194 203.064 65.8551C203.096 65.8908 203.141 65.9132 203.189 65.9177L202.628 71.3048C202.533 72.2309 202.211 73.1196 201.693 73.8927L201.506 74.1642C201.21 74.6071 201.053 75.1278 201.053 75.6603V87.0799C201.053 87.3087 201.144 87.5281 201.306 87.6899C201.468 87.8517 201.687 87.9426 201.916 87.9426H206.742C206.971 87.9426 207.19 87.8517 207.352 87.6899C207.514 87.5281 207.605 87.3087 207.605 87.0799V75.6603C207.598 75.1253 207.432 74.6044 207.128 74.1642Z" fill="#E0E0E0"/>
<path d="M205.879 77.3848H201.053V84.6299H205.879V77.3848Z" fill="#F5F5F5"/>
<path d="M215.471 74.1642L215.29 73.8927C214.77 73.12 214.446 72.2314 214.349 71.3048L213.788 65.9177C213.837 65.9133 213.882 65.8912 213.915 65.8556C213.949 65.82 213.968 65.7734 213.969 65.7246C213.969 65.6702 213.948 65.6181 213.909 65.5796C213.871 65.5411 213.818 65.5195 213.764 65.5195H211.562C211.508 65.5195 211.456 65.5411 211.417 65.5796C211.379 65.6181 211.357 65.6702 211.357 65.7246C211.357 65.7728 211.375 65.8194 211.407 65.8551C211.439 65.8908 211.484 65.9132 211.532 65.9177L210.971 71.3048C210.876 72.2309 210.555 73.1196 210.036 73.8927L209.855 74.1642C209.555 74.6053 209.395 75.1268 209.396 75.6603V87.0799C209.396 87.1937 209.419 87.3064 209.463 87.4114C209.506 87.5165 209.571 87.6119 209.651 87.6921C209.732 87.7722 209.828 87.8357 209.933 87.8787C210.039 87.9216 210.151 87.9434 210.265 87.9426H215.061C215.29 87.9426 215.51 87.8519 215.673 87.6903C215.836 87.5287 215.928 87.3093 215.93 87.0799V75.6603C215.928 75.1272 215.769 74.6066 215.471 74.1642Z" fill="#E0E0E0"/>
<path d="M212.147 77.3848H209.396V84.6299H212.147V77.3848Z" fill="#F5F5F5"/>
<path d="M215.924 77.3848H215.218V84.6299H215.924V77.3848Z" fill="#F5F5F5"/>
<path d="M223.808 74.1642L223.627 73.8927C223.108 73.1196 222.787 72.2309 222.692 71.3048L222.131 65.9177C222.179 65.9132 222.224 65.8908 222.256 65.8551C222.288 65.8194 222.306 65.7728 222.306 65.7246C222.306 65.6702 222.284 65.6181 222.246 65.5796C222.208 65.5411 222.155 65.5195 222.101 65.5195H219.899C219.845 65.5195 219.793 65.5411 219.754 65.5796C219.716 65.6181 219.694 65.6702 219.694 65.7246C219.695 65.7734 219.714 65.82 219.748 65.8556C219.781 65.8912 219.826 65.9133 219.875 65.9177L219.314 71.3048C219.217 72.2314 218.894 73.12 218.373 73.8927L218.192 74.1642C217.895 74.6066 217.735 75.1272 217.733 75.6603V87.0799C217.735 87.3093 217.827 87.5287 217.99 87.6903C218.153 87.8519 218.373 87.9426 218.602 87.9426H223.398C223.512 87.9434 223.625 87.9216 223.73 87.8787C223.835 87.8357 223.931 87.7722 224.012 87.6921C224.093 87.6119 224.157 87.5165 224.2 87.4114C224.244 87.3064 224.267 87.1937 224.267 87.0799V75.6603C224.268 75.1268 224.108 74.6053 223.808 74.1642Z" fill="#E0E0E0"/>
<path d="M221.528 77.3848H217.739V84.6299H221.528V77.3848Z" fill="#F5F5F5"/>
<path d="M170.118 74.1642L169.937 73.8927C169.419 73.1196 169.097 72.2309 169.002 71.3048L168.441 65.9177C168.489 65.9132 168.534 65.8908 168.566 65.8551C168.599 65.8194 168.616 65.7728 168.616 65.7246C168.616 65.6702 168.595 65.6181 168.556 65.5796C168.518 65.5411 168.465 65.5195 168.411 65.5195H166.209C166.155 65.5195 166.103 65.5411 166.064 65.5796C166.026 65.6181 166.004 65.6702 166.004 65.7246C166.005 65.7734 166.024 65.82 166.058 65.8556C166.091 65.8912 166.136 65.9133 166.185 65.9177L165.624 71.3048C165.527 72.2314 165.204 73.12 164.683 73.8927L164.502 74.1642C164.205 74.6066 164.045 75.1272 164.043 75.6603V87.0799C164.045 87.3093 164.137 87.5287 164.3 87.6903C164.463 87.8519 164.683 87.9426 164.912 87.9426H169.708C169.937 87.9426 170.157 87.8519 170.32 87.6903C170.483 87.5287 170.575 87.3093 170.577 87.0799V75.6603C170.575 75.1272 170.416 74.6066 170.118 74.1642Z" fill="#F5F5F5"/>
<path d="M168.061 77.3848H164.02V84.6299H168.061V77.3848Z" fill="#E0E0E0"/>
<path d="M178.437 74.1642L178.256 73.8927C177.738 73.1196 177.417 72.2309 177.321 71.3048L176.76 65.9177C176.808 65.9132 176.853 65.8908 176.885 65.8551C176.918 65.8194 176.936 65.7728 176.935 65.7246C176.935 65.6713 176.915 65.62 176.877 65.5817C176.84 65.5434 176.79 65.5211 176.736 65.5195H174.528C174.475 65.5211 174.424 65.5434 174.387 65.5817C174.35 65.62 174.329 65.6713 174.329 65.7246C174.329 65.7728 174.347 65.8194 174.379 65.8551C174.412 65.8908 174.456 65.9132 174.504 65.9177L173.943 71.3048C173.848 72.2309 173.527 73.1196 173.008 73.8927L172.821 74.1642C172.526 74.6071 172.368 75.1278 172.369 75.6603V87.0799C172.369 87.3087 172.46 87.5281 172.621 87.6899C172.783 87.8517 173.003 87.9426 173.231 87.9426H178.027C178.141 87.9434 178.254 87.9216 178.359 87.8787C178.465 87.8357 178.56 87.7722 178.641 87.6921C178.722 87.6119 178.786 87.5165 178.83 87.4114C178.873 87.3064 178.896 87.1937 178.896 87.0799V75.6603C178.897 75.1268 178.737 74.6053 178.437 74.1642Z" fill="#F5F5F5"/>
<path d="M177.46 77.3848H172.369V84.6299H177.46V77.3848Z" fill="#E0E0E0"/>
<path d="M186.786 74.1642L186.599 73.8927C186.08 73.1196 185.759 72.2309 185.664 71.3048L185.103 65.9177C185.151 65.9132 185.196 65.8908 185.228 65.8551C185.26 65.8194 185.278 65.7728 185.278 65.7246C185.278 65.6713 185.257 65.62 185.22 65.5817C185.183 65.5434 185.132 65.5211 185.079 65.5195H182.877C182.823 65.5195 182.771 65.5411 182.732 65.5796C182.694 65.6181 182.672 65.6702 182.672 65.7246C182.672 65.7728 182.69 65.8194 182.722 65.8551C182.754 65.8908 182.799 65.9132 182.847 65.9177L182.286 71.3048C182.191 72.2309 181.87 73.1196 181.351 73.8927L181.17 74.1642C180.87 74.6053 180.71 75.1268 180.711 75.6603V87.0799C180.711 87.1937 180.734 87.3064 180.778 87.4114C180.821 87.5165 180.885 87.6119 180.966 87.6921C181.047 87.7722 181.143 87.8357 181.248 87.8787C181.353 87.9216 181.466 87.9434 181.58 87.9426H186.406C186.635 87.9426 186.854 87.8517 187.016 87.6899C187.178 87.5281 187.269 87.3087 187.269 87.0799V75.6603C187.26 75.1247 187.092 74.6037 186.786 74.1642Z" fill="#F5F5F5"/>
<path d="M187.239 77.3848H183.197V84.6299H187.239V77.3848Z" fill="#E0E0E0"/>
<path d="M236.736 74.1642L236.917 73.8927C237.437 73.12 237.761 72.2314 237.858 71.3048L238.419 65.9177C238.37 65.9133 238.325 65.8912 238.292 65.8556C238.258 65.82 238.239 65.7734 238.238 65.7246C238.238 65.6702 238.26 65.6181 238.298 65.5796C238.336 65.5411 238.389 65.5195 238.443 65.5195H240.645C240.699 65.5195 240.751 65.5411 240.79 65.5796C240.828 65.6181 240.85 65.6702 240.85 65.7246C240.85 65.7728 240.832 65.8194 240.8 65.8551C240.768 65.8908 240.723 65.9132 240.675 65.9177L241.236 71.3048C241.331 72.2309 241.652 73.1196 242.171 73.8927L242.352 74.1642C242.649 74.6066 242.809 75.1272 242.811 75.6603V87.0799C242.809 87.3093 242.717 87.5287 242.554 87.6903C242.391 87.8519 242.171 87.9426 241.942 87.9426H237.146C236.917 87.9426 236.697 87.8519 236.534 87.6903C236.371 87.5287 236.279 87.3093 236.277 87.0799V75.6603C236.279 75.1272 236.438 74.6066 236.736 74.1642Z" fill="#E0E0E0"/>
<path d="M237.984 84.6367H242.811V77.3916H237.984V84.6367Z" fill="#F5F5F5"/>
<path d="M265.433 74.1642L265.614 73.8927C266.135 73.12 266.458 72.2314 266.555 71.3048L267.116 65.9177C267.068 65.9133 267.022 65.8912 266.989 65.8556C266.956 65.82 266.936 65.7734 266.935 65.7246C266.935 65.6702 266.957 65.6181 266.995 65.5796C267.034 65.5411 267.086 65.5195 267.14 65.5195H269.342C269.397 65.5195 269.449 65.5411 269.487 65.5796C269.526 65.6181 269.547 65.6702 269.547 65.7246C269.548 65.7728 269.53 65.8194 269.497 65.8551C269.465 65.8908 269.42 65.9132 269.372 65.9177L269.933 71.3048C270.029 72.2309 270.35 73.1196 270.868 73.8927L271.049 74.1642C271.349 74.6053 271.509 75.1268 271.508 75.6603V87.0799C271.508 87.1937 271.485 87.3064 271.442 87.4114C271.398 87.5165 271.334 87.6119 271.253 87.6921C271.172 87.7722 271.077 87.8357 270.971 87.8787C270.866 87.9216 270.753 87.9434 270.639 87.9426H265.843C265.614 87.9426 265.394 87.8519 265.231 87.6903C265.068 87.5287 264.976 87.3093 264.975 87.0799V75.6603C264.976 75.1272 265.136 74.6066 265.433 74.1642Z" fill="#F5F5F5"/>
<path d="M266.404 84.6367H271.496V77.3916H266.404V84.6367Z" fill="#E0E0E0"/>
<path d="M257.078 74.1642L257.259 73.8927C257.777 73.1196 258.098 72.2309 258.194 71.3048L258.755 65.9177C258.707 65.9132 258.662 65.8908 258.63 65.8551C258.597 65.8194 258.58 65.7728 258.58 65.7246C258.58 65.6702 258.601 65.6181 258.64 65.5796C258.678 65.5411 258.73 65.5195 258.785 65.5195H260.987C261.041 65.5195 261.093 65.5411 261.132 65.5796C261.17 65.6181 261.192 65.6702 261.192 65.7246C261.191 65.7734 261.171 65.82 261.138 65.8556C261.105 65.8912 261.059 65.9133 261.011 65.9177L261.572 71.3048C261.669 72.2314 261.992 73.12 262.513 73.8927L262.694 74.1642C262.991 74.6066 263.151 75.1272 263.152 75.6603V87.0799C263.151 87.3093 263.059 87.5287 262.896 87.6903C262.733 87.8519 262.513 87.9426 262.284 87.9426H257.488C257.374 87.9434 257.261 87.9216 257.156 87.8787C257.05 87.8357 256.955 87.7722 256.874 87.6921C256.793 87.6119 256.729 87.5165 256.685 87.4114C256.642 87.3064 256.619 87.1937 256.619 87.0799V75.6603C256.618 75.1268 256.778 74.6053 257.078 74.1642Z" fill="#F5F5F5"/>
<path d="M256.625 84.6367H260.667V77.3916H256.625V84.6367Z" fill="#E0E0E0"/>
<path d="M246.841 35.6876L246.66 35.4162C246.141 34.643 245.82 33.7544 245.725 32.8282L245.164 27.4411C245.212 27.4366 245.256 27.4143 245.289 27.3786C245.321 27.3428 245.339 27.2963 245.339 27.2481C245.339 27.2211 245.333 27.1945 245.323 27.1696C245.313 27.1447 245.298 27.1221 245.279 27.103C245.26 27.084 245.237 27.0689 245.212 27.0586C245.187 27.0483 245.16 27.043 245.134 27.043H242.932C242.878 27.0445 242.828 27.0668 242.79 27.1051C242.753 27.1434 242.733 27.1947 242.733 27.2481C242.732 27.2963 242.75 27.3428 242.783 27.3786C242.815 27.4143 242.86 27.4366 242.908 27.4411L242.346 32.8282C242.251 33.7544 241.93 34.643 241.411 35.4162L241.224 35.6876C240.929 36.1329 240.772 36.6554 240.772 37.1897V48.5973C240.772 48.8261 240.863 49.0455 241.025 49.2073C241.186 49.3691 241.406 49.46 241.635 49.46H246.431C246.544 49.4608 246.657 49.4391 246.763 49.3961C246.868 49.3531 246.964 49.2896 247.044 49.2095C247.125 49.1293 247.189 49.0339 247.233 48.9289C247.277 48.8238 247.299 48.7111 247.299 48.5973V37.1897C247.3 36.6544 247.141 36.1311 246.841 35.6876Z" fill="#F5F5F5"/>
<path d="M247.299 38.9082H243.257V46.1533H247.299V38.9082Z" fill="#E0E0E0"/>
<path d="M195.25 74.1642L195.063 73.8927C194.544 73.1196 194.223 72.2309 194.128 71.3048L193.567 65.9177C193.615 65.9132 193.66 65.8908 193.692 65.8551C193.724 65.8194 193.742 65.7728 193.742 65.7246C193.742 65.6713 193.721 65.62 193.684 65.5817C193.647 65.5434 193.596 65.5211 193.543 65.5195H191.335C191.282 65.5211 191.231 65.5434 191.194 65.5817C191.157 65.62 191.136 65.6713 191.136 65.7246C191.136 65.7728 191.154 65.8194 191.186 65.8551C191.218 65.8908 191.263 65.9132 191.311 65.9177L190.75 71.3048C190.655 72.2309 190.334 73.1196 189.815 73.8927L189.628 74.1642C189.332 74.6071 189.175 75.1278 189.175 75.6603V87.0799C189.175 87.3087 189.266 87.5281 189.428 87.6899C189.59 87.8517 189.809 87.9426 190.038 87.9426H194.864C195.093 87.9426 195.312 87.8517 195.474 87.6899C195.636 87.5281 195.727 87.3087 195.727 87.0799V75.6603C195.72 75.1253 195.554 74.6044 195.25 74.1642Z" fill="#F5F5F5"/>
<path d="M195.015 77.3848H189.809V84.6299H195.015V77.3848Z" fill="#E0E0E0"/>
<path d="M153.294 35.6876L153.481 35.4162C154.006 34.6448 154.333 33.756 154.434 32.8282L154.995 27.4411C154.947 27.4366 154.902 27.4143 154.87 27.3786C154.837 27.3428 154.82 27.2963 154.82 27.2481C154.82 27.1947 154.841 27.1434 154.878 27.1051C154.915 27.0668 154.966 27.0445 155.019 27.043H157.227C157.28 27.0445 157.331 27.0668 157.368 27.1051C157.405 27.1434 157.426 27.1947 157.426 27.2481C157.426 27.2963 157.408 27.3428 157.376 27.3786C157.344 27.4143 157.299 27.4366 157.251 27.4411L157.812 32.8282C157.907 33.7544 158.228 34.643 158.747 35.4162L158.928 35.6876C159.228 36.1311 159.388 36.6544 159.386 37.1897V48.5973C159.387 48.7111 159.364 48.8238 159.32 48.9289C159.277 49.0339 159.212 49.1293 159.132 49.2095C159.051 49.2896 158.955 49.3531 158.85 49.3961C158.744 49.4391 158.632 49.4608 158.518 49.46H153.692C153.463 49.46 153.244 49.3691 153.082 49.2073C152.92 49.0455 152.829 48.8261 152.829 48.5973V37.1897C152.832 36.6542 152.994 36.1316 153.294 35.6876Z" fill="#E0E0E0"/>
<path d="M154.542 46.1602H159.368V38.915H154.542V46.1602Z" fill="#F5F5F5"/>
<path d="M170.788 35.6876L170.607 35.4162C170.088 34.643 169.767 33.7544 169.672 32.8282L169.111 27.4411C169.159 27.4366 169.204 27.4143 169.236 27.3786C169.268 27.3428 169.286 27.2963 169.286 27.2481C169.286 27.1947 169.265 27.1434 169.228 27.1051C169.191 27.0668 169.14 27.0445 169.087 27.043H166.879C166.826 27.0445 166.775 27.0668 166.738 27.1051C166.701 27.1434 166.68 27.1947 166.68 27.2481C166.68 27.2963 166.697 27.3428 166.73 27.3786C166.762 27.4143 166.807 27.4366 166.855 27.4411L166.294 32.8282C166.199 33.7544 165.877 34.643 165.359 35.4162L165.172 35.6876C164.876 36.1329 164.719 36.6554 164.719 37.1897V48.5973C164.719 48.8261 164.81 49.0455 164.972 49.2073C165.134 49.3691 165.353 49.46 165.582 49.46H170.378C170.492 49.4608 170.604 49.4391 170.71 49.3961C170.815 49.3531 170.911 49.2896 170.992 49.2095C171.072 49.1293 171.137 49.0339 171.18 48.9289C171.224 48.8238 171.246 48.7111 171.246 48.5973V37.1897C171.248 36.6544 171.088 36.1311 170.788 35.6876Z" fill="#E0E0E0"/>
<path d="M167.47 38.9082H164.719V46.1533H167.47V38.9082Z" fill="#F5F5F5"/>
<path d="M171.246 38.9082H170.541V46.1533H171.246V38.9082Z" fill="#F5F5F5"/>
<path d="M128.258 35.6876L128.445 35.4162C128.964 34.643 129.285 33.7544 129.381 32.8282L129.942 27.4411C129.894 27.4366 129.849 27.4143 129.817 27.3786C129.784 27.3428 129.766 27.2963 129.767 27.2481C129.767 27.1947 129.787 27.1434 129.825 27.1051C129.862 27.0668 129.912 27.0445 129.966 27.043H132.174C132.227 27.0445 132.278 27.0668 132.315 27.1051C132.352 27.1434 132.373 27.1947 132.373 27.2481C132.373 27.2963 132.355 27.3428 132.323 27.3786C132.29 27.4143 132.246 27.4366 132.198 27.4411L132.759 32.8282C132.854 33.7544 133.175 34.643 133.694 35.4162L133.875 35.6876C134.175 36.1311 134.334 36.6544 134.333 37.1897V48.5973C134.333 48.7111 134.311 48.8238 134.267 48.9289C134.223 49.0339 134.159 49.1293 134.078 49.2095C133.998 49.2896 133.902 49.3531 133.797 49.3961C133.691 49.4391 133.578 49.4608 133.465 49.46H128.639C128.41 49.46 128.19 49.3691 128.029 49.2073C127.867 49.0455 127.776 48.8261 127.776 48.5973V37.1897C127.784 36.6523 127.952 36.1295 128.258 35.6876Z" fill="#E0E0E0"/>
<path d="M130.545 46.1602H134.333V38.915H130.545V46.1602Z" fill="#F5F5F5"/>
<path d="M173.635 35.6876L173.816 35.4162C174.337 34.6435 174.66 33.7549 174.757 32.8282L175.318 27.4411C175.27 27.4367 175.224 27.4146 175.191 27.379C175.158 27.3434 175.139 27.2968 175.137 27.2481C175.137 27.2211 175.143 27.1945 175.153 27.1696C175.163 27.1447 175.178 27.1221 175.197 27.103C175.216 27.084 175.239 27.0689 175.264 27.0586C175.289 27.0483 175.316 27.043 175.342 27.043H177.544C177.599 27.043 177.651 27.0646 177.689 27.103C177.728 27.1415 177.749 27.1937 177.749 27.2481C177.75 27.2963 177.732 27.3428 177.699 27.3786C177.667 27.4143 177.622 27.4366 177.574 27.4411L178.136 32.8282C178.231 33.7544 178.552 34.643 179.071 35.4162L179.252 35.6876C179.549 36.1322 179.709 36.6548 179.71 37.1897V48.5973C179.71 48.7111 179.688 48.8238 179.644 48.9289C179.6 49.0339 179.536 49.1293 179.455 49.2095C179.374 49.2896 179.279 49.3531 179.173 49.3961C179.068 49.4391 178.955 49.4608 178.841 49.46H174.045C173.816 49.46 173.596 49.3693 173.433 49.2077C173.271 49.0461 173.178 48.8267 173.177 48.5973V37.1897C173.178 36.6548 173.338 36.1322 173.635 35.6876Z" fill="#F5F5F5"/>
<path d="M173.183 46.1602H177.225V38.915H173.183V46.1602Z" fill="#E0E0E0"/>
<path d="M150.567 35.6876L150.386 35.4162C149.865 34.6444 149.543 33.755 149.451 32.8282L148.884 27.4411C148.932 27.4367 148.978 27.4146 149.011 27.379C149.044 27.3434 149.064 27.2968 149.065 27.2481C149.065 27.2211 149.06 27.1945 149.049 27.1696C149.039 27.1447 149.024 27.1221 149.005 27.103C148.986 27.084 148.963 27.0689 148.938 27.0586C148.913 27.0483 148.887 27.043 148.86 27.043H146.658C146.631 27.043 146.604 27.0483 146.579 27.0586C146.555 27.0689 146.532 27.084 146.513 27.103C146.494 27.1221 146.479 27.1447 146.468 27.1696C146.458 27.1945 146.453 27.2211 146.453 27.2481C146.454 27.2968 146.473 27.3434 146.507 27.379C146.54 27.4146 146.585 27.4367 146.634 27.4411L146.073 32.8282C145.975 33.7549 145.652 34.6435 145.132 35.4162L144.951 35.6876C144.653 36.1322 144.494 36.6548 144.492 37.1897V48.5973C144.494 48.8267 144.586 49.0461 144.749 49.2077C144.911 49.3693 145.132 49.46 145.361 49.46H150.157C150.386 49.46 150.606 49.3693 150.769 49.2077C150.932 49.0461 151.024 48.8267 151.025 48.5973V37.1897C151.024 36.6548 150.864 36.1322 150.567 35.6876Z" fill="#F5F5F5"/>
<path d="M150.337 38.9082H145.131V46.1533H150.337V38.9082Z" fill="#E0E0E0"/>
<path d="M255.919 35.6876L255.738 35.4162C255.22 34.643 254.899 33.7544 254.803 32.8282L254.242 27.4411C254.29 27.4366 254.335 27.4143 254.367 27.3786C254.4 27.3428 254.417 27.2963 254.417 27.2481C254.417 27.1947 254.396 27.1434 254.359 27.1051C254.322 27.0668 254.272 27.0445 254.218 27.043H252.01C251.957 27.0445 251.906 27.0668 251.869 27.1051C251.832 27.1434 251.811 27.1947 251.811 27.2481C251.811 27.2963 251.829 27.3428 251.861 27.3786C251.894 27.4143 251.938 27.4366 251.986 27.4411L251.425 32.8282C251.33 33.7544 251.009 34.643 250.49 35.4162L250.303 35.6876C250.008 36.1329 249.85 36.6554 249.851 37.1897V48.5973C249.851 48.8261 249.941 49.0455 250.103 49.2073C250.265 49.3691 250.484 49.46 250.713 49.46H255.509C255.623 49.4616 255.737 49.4405 255.843 49.3978C255.949 49.3552 256.046 49.2919 256.127 49.2116C256.208 49.1314 256.273 49.0357 256.317 48.9303C256.361 48.8248 256.384 48.7116 256.384 48.5973V37.1897C256.383 36.6538 256.221 36.1304 255.919 35.6876Z" fill="#E0E0E0"/>
<path d="M252.915 38.9082H249.851V46.1533H252.915V38.9082Z" fill="#F5F5F5"/>
<path d="M256.378 38.9082H255.63V46.1533H256.378V38.9082Z" fill="#F5F5F5"/>
<path d="M230.733 35.6876L230.546 35.4162C230.028 34.643 229.706 33.7544 229.611 32.8282L229.05 27.4411C229.098 27.4366 229.143 27.4143 229.175 27.3786C229.208 27.3428 229.225 27.2963 229.225 27.2481C229.225 27.1947 229.204 27.1434 229.167 27.1051C229.13 27.0668 229.079 27.0445 229.026 27.043H226.824C226.771 27.0445 226.72 27.0668 226.683 27.1051C226.646 27.1434 226.625 27.1947 226.625 27.2481C226.625 27.2963 226.643 27.3428 226.675 27.3786C226.708 27.4143 226.752 27.4366 226.8 27.4411L226.221 32.8282C226.126 33.7544 225.805 34.643 225.286 35.4162L225.099 35.6876C224.804 36.1329 224.646 36.6554 224.646 37.1897V48.5973C224.646 48.8261 224.737 49.0455 224.899 49.2073C225.061 49.3691 225.28 49.46 225.509 49.46H230.335C230.564 49.46 230.783 49.3691 230.945 49.2073C231.107 49.0455 231.198 48.8261 231.198 48.5973V37.1897C231.195 36.6542 231.033 36.1316 230.733 35.6876Z" fill="#E0E0E0"/>
<path d="M229.575 38.9082H224.659V46.1533H229.575V38.9082Z" fill="#F5F5F5"/>
<path d="M272.612 35.6876L272.431 35.4162C271.912 34.643 271.591 33.7544 271.496 32.8282L270.929 27.4411C270.977 27.4367 271.023 27.4146 271.056 27.379C271.089 27.3434 271.109 27.2968 271.11 27.2481C271.11 27.1937 271.088 27.1415 271.05 27.103C271.011 27.0646 270.959 27.043 270.905 27.043H268.703C268.676 27.043 268.649 27.0483 268.624 27.0586C268.599 27.0689 268.577 27.084 268.558 27.103C268.539 27.1221 268.524 27.1447 268.513 27.1696C268.503 27.1945 268.498 27.2211 268.498 27.2481C268.499 27.2968 268.518 27.3434 268.551 27.379C268.585 27.4146 268.63 27.4367 268.679 27.4411L268.118 32.8282C268.02 33.7549 267.697 34.6435 267.177 35.4162L266.996 35.6876C266.698 36.1322 266.539 36.6548 266.537 37.1897V48.5973C266.539 48.8267 266.631 49.0461 266.794 49.2077C266.956 49.3693 267.176 49.46 267.406 49.46H272.232C272.461 49.46 272.681 49.3693 272.844 49.2077C273.007 49.0461 273.099 48.8267 273.101 48.5973V37.1897C273.09 36.6517 272.92 36.1288 272.612 35.6876Z" fill="#E0E0E0"/>
<path d="M270.579 38.9082H266.537V46.1533H270.579V38.9082Z" fill="#F5F5F5"/>
<path d="M301.628 87.9414H100.479V92.502H301.628V87.9414Z" fill="#F5F5F5"/>
<path d="M301.628 49.4648H100.479V54.0255H301.628V49.4648Z" fill="#F5F5F5"/>
<path d="M36.1955 114.467H82.5015L82.5015 45.8102H36.1955L36.1955 114.467Z" fill="#E0E0E0"/>
<path d="M33.3841 114.467H81.6084L81.6084 45.8102H33.3841L33.3841 114.467Z" fill="#F5F5F5"/>
<path d="M37.426 51.2283V109.062H77.5667V51.2283H37.426Z" fill="white"/>
<path d="M57.3395 65.0485V68.0648C56.4388 68.0648 55.5468 67.8874 54.7147 67.5427C53.8825 67.198 53.1263 66.6927 52.4894 66.0558C51.8525 65.4189 51.3473 64.6628 51.0026 63.8306C50.6579 62.9984 50.4805 62.1065 50.4805 61.2057V58.1895C51.3812 58.1895 52.2731 58.3669 53.1053 58.7116C53.9375 59.0563 54.6936 59.5615 55.3305 60.1984C55.9675 60.8353 56.4727 61.5915 56.8174 62.4236C57.1621 63.2558 57.3395 64.1477 57.3395 65.0485Z" fill="#F5F5F5"/>
<path d="M57.3395 74.9295V77.9458C55.5198 77.9442 53.7752 77.2202 52.4891 75.9329C51.2029 74.6457 50.4805 72.9004 50.4805 71.0807V68.0645C51.3817 68.0645 52.2741 68.2421 53.1067 68.5871C53.9393 68.9322 54.6957 69.438 55.3327 70.0755C55.9697 70.7131 56.4748 71.47 56.8191 72.3028C57.1635 73.1357 57.3403 74.0283 57.3395 74.9295Z" fill="#F5F5F5"/>
<path d="M57.3395 84.7926V87.8089C55.5204 87.8089 53.7757 87.0863 52.4894 85.7999C51.2031 84.5136 50.4805 82.769 50.4805 80.9499V77.9336C51.3812 77.9336 52.2731 78.111 53.1053 78.4557C53.9375 78.8004 54.6936 79.3056 55.3305 79.9425C55.9675 80.5795 56.4727 81.3356 56.8174 82.1678C57.1621 83 57.3395 83.8919 57.3395 84.7926Z" fill="#F5F5F5"/>
<path d="M57.3395 94.699V97.7153C55.5198 97.7137 53.7752 96.9897 52.4891 95.7025C51.2029 94.4152 50.4805 92.6699 50.4805 90.8503V87.834C51.3817 87.834 52.2741 88.0116 53.1067 88.3567C53.9393 88.7018 54.6957 89.2075 55.3327 89.8451C55.9697 90.4826 56.4748 91.2395 56.8191 92.0724C57.1635 92.9052 57.3403 93.7978 57.3395 94.699Z" fill="#F5F5F5"/>
<path d="M57.6592 69.4214V72.4377C58.5619 72.4417 59.4566 72.2674 60.2919 71.9248C61.1271 71.5823 61.8866 71.0782 62.5266 70.4416C63.1667 69.8049 63.6747 69.0481 64.0217 68.2147C64.3686 67.3812 64.5476 66.4875 64.5484 65.5847V62.5684C63.6456 62.5645 62.7509 62.7387 61.9157 63.0813C61.0804 63.4238 60.321 63.9279 59.6809 64.5646C59.0409 65.2012 58.5328 65.958 58.1859 66.7915C57.839 67.6249 57.66 68.5186 57.6592 69.4214Z" fill="#F5F5F5"/>
<path d="M57.6592 79.3042V82.3205C58.5617 82.3237 59.456 82.1489 60.2909 81.806C61.1259 81.4632 61.885 80.9591 62.5248 80.3226C63.1647 79.6861 63.6728 78.9296 64.02 78.0966C64.3673 77.2635 64.5468 76.3701 64.5484 75.4675V72.4512C63.6456 72.4473 62.7509 72.6216 61.9157 72.9641C61.0804 73.3066 60.321 73.8107 59.6809 74.4474C59.0409 75.0841 58.5328 75.8408 58.1859 76.6743C57.839 77.5077 57.66 78.4015 57.6592 79.3042Z" fill="#F5F5F5"/>
<path d="M57.6592 89.191V92.2072C58.5619 92.2112 59.4566 92.0369 60.2919 91.6944C61.1271 91.3518 61.8866 90.8478 62.5266 90.2111C63.1667 89.5744 63.6747 88.8177 64.0217 87.9842C64.3686 87.1508 64.5476 86.257 64.5484 85.3542V82.338C63.6456 82.334 62.7509 82.5083 61.9157 82.8508C61.0804 83.1934 60.321 83.6974 59.6809 84.3341C59.0409 84.9708 58.5328 85.7275 58.1859 86.561C57.839 87.3944 57.66 88.2882 57.6592 89.191Z" fill="#F5F5F5"/>
<path d="M57.6592 99.0718V102.088C58.5617 102.091 59.456 101.916 60.2909 101.574C61.1259 101.231 61.885 100.727 62.5248 100.09C63.1647 99.4537 63.6728 98.6972 64.02 97.8641C64.3673 97.031 64.5468 96.1377 64.5484 95.2351V92.2188C63.6456 92.2148 62.7509 92.3891 61.9157 92.7317C61.0804 93.0742 60.321 93.5783 59.6809 94.215C59.0409 94.8516 58.5328 95.6084 58.1859 96.4418C57.839 97.2753 57.66 98.169 57.6592 99.0718Z" fill="#F5F5F5"/>
<path d="M150.814 236.548C215.412 236.548 267.78 233.491 267.78 229.719C267.78 225.948 215.412 222.891 150.814 222.891C86.2158 222.891 33.8486 225.948 33.8486 229.719C33.8486 233.491 86.2158 236.548 150.814 236.548Z" fill="#F5F5F5"/>
<path opacity="0.9" d="M132.867 0.0120797C130.791 0.0367772 128.718 0.183824 126.66 0.452457C128.506 0.149628 130.375 -0.00169072 132.246 1.42477e-05C132.451 1.42477e-05 132.662 1.45243e-05 132.867 0.0120797Z" fill="white"/>
<path d="M172.525 224.471L167.953 223.21L169.654 212.285L174.227 213.546L172.525 224.471Z" fill="#FFC3BD"/>
<path d="M211.435 224.587H206.688L205.511 213.602H210.253L211.435 224.587Z" fill="#FFC3BD"/>
<path d="M206.314 224.037H212.093C212.187 224.038 212.278 224.07 212.352 224.129C212.425 224.188 212.476 224.271 212.497 224.363L213.438 228.586C213.46 228.689 213.458 228.796 213.433 228.898C213.408 229 213.36 229.096 213.292 229.177C213.225 229.258 213.14 229.323 213.044 229.367C212.948 229.411 212.844 229.433 212.738 229.43C210.88 229.4 209.523 229.285 207.176 229.285C205.734 229.285 201.391 229.436 199.4 229.436C197.409 229.436 197.144 227.47 197.964 227.289C201.614 226.492 204.371 225.388 205.541 224.339C205.752 224.145 206.028 224.038 206.314 224.037Z" fill="#263238"/>
<path d="M168.133 222.691L173.128 224.067C173.219 224.091 173.298 224.146 173.353 224.222C173.407 224.297 173.435 224.389 173.43 224.483L173.213 228.802C173.205 228.904 173.174 229.003 173.122 229.091C173.071 229.18 173 229.256 172.916 229.313C172.832 229.371 172.736 229.409 172.635 229.425C172.534 229.441 172.43 229.434 172.332 229.405C170.522 228.881 167.965 228.06 165.696 227.433C163.048 226.703 160.725 226.226 157.619 225.364C155.743 224.845 155.743 222.806 156.575 222.848C160.37 223.053 163.313 223.771 166.933 222.715C167.323 222.596 167.739 222.588 168.133 222.691Z" fill="#263238"/>
<path d="M191.07 82.4465C190.545 82.6395 190.141 82.7783 189.682 82.9291C189.224 83.0799 188.795 83.2066 188.349 83.3333C187.456 83.5927 186.539 83.8219 185.658 84.033C183.835 84.4606 181.985 84.7649 180.12 84.944C178.19 85.1435 176.245 85.1616 174.311 84.9982C172.215 84.8469 170.16 84.3453 168.23 83.5142C167.977 83.4117 167.724 83.285 167.47 83.1523L167.102 82.9834L167.012 82.9351L166.879 82.8567L166.614 82.6878L166.348 82.5128L166.137 82.35L165.733 82.0182C165.516 81.8131 165.268 81.5898 165.081 81.4149C164.392 80.658 163.759 79.8515 163.187 79.0019C162.165 77.4798 161.23 75.9007 160.388 74.2723C158.754 71.1222 157.326 67.87 156.111 64.5358L159.296 62.9492C161.202 65.7906 163.121 68.6681 165.069 71.3948C166.034 72.7642 167.048 74.1034 168.055 75.2979C168.512 75.8479 169.008 76.364 169.539 76.8422C169.654 76.9508 169.744 77.0051 169.847 77.0896L169.956 77.1559C169.956 77.1559 169.992 77.1559 170.004 77.1559H170.034H170.088L170.299 77.2404C170.439 77.3039 170.582 77.3603 170.728 77.4093C171.351 77.6254 171.993 77.7829 172.646 77.8798C173.349 77.9941 174.058 78.0606 174.77 78.0789C176.294 78.1135 177.819 78.0267 179.33 77.8195C180.887 77.6144 182.461 77.3067 184.03 76.9448C184.814 76.7638 185.592 76.5587 186.37 76.3415L187.522 76.0037C187.89 75.8951 188.313 75.7624 188.602 75.6659L191.07 82.4465Z" fill="#FFC3BD"/>
<path d="M194.526 81.8508C192.408 85.8625 178.877 88.2393 178.877 88.2393L175.427 76.8317C175.427 76.8317 180.772 75.4624 186.527 74.3162C190.388 73.544 196.824 77.4833 194.526 81.8508Z" fill="#7E57C2"/>
<path opacity="0.2" d="M186.406 79.9018C184.717 81.0178 182.395 84.8666 181.61 87.6717C184.822 86.9959 187.954 85.9849 190.955 84.6554C189.935 82.6707 187.794 78.9848 186.406 79.9018Z" fill="black"/>
<path d="M177.659 89.3176L174.287 76.5889L176.555 75.7383L180.373 88.8651L177.659 89.3176Z" fill="#263238"/>
<path d="M159.531 63.2648L156.925 58.9395L153.752 63.4337C154.164 64.02 154.695 64.5127 155.31 64.8796C155.926 65.2466 156.612 65.4795 157.323 65.5632L159.531 63.2648Z" fill="#FFC3BD"/>
<path d="M154.301 56.3496L151.942 60.3794L153.752 63.4318L156.925 58.9315L154.301 56.3496Z" fill="#FFC3BD"/>
<path d="M156.629 66.7925L154.886 55.4935C154.808 54.9657 154.572 54.4736 154.21 54.0819L153.987 53.8346C153.354 53.1514 152.901 52.3225 152.666 51.4215L151.284 46.1732C151.333 46.1617 151.374 46.1321 151.401 46.0905C151.428 46.049 151.438 45.9987 151.429 45.95C151.42 45.8976 151.391 45.8508 151.349 45.8193C151.306 45.7878 151.253 45.7741 151.2 45.7811L149.016 46.1189C148.964 46.1278 148.917 46.1567 148.885 46.1994C148.854 46.2422 148.84 46.2955 148.847 46.3481C148.855 46.3966 148.88 46.4407 148.918 46.4718C148.955 46.503 149.003 46.5191 149.052 46.5171L149.318 51.9464C149.364 52.8771 149.182 53.8049 148.787 54.649L148.648 54.9506C148.419 55.4329 148.341 55.9735 148.425 56.501L150.168 67.8C150.185 67.9129 150.224 68.0214 150.283 68.1192C150.342 68.217 150.42 68.3022 150.512 68.37C150.604 68.4378 150.708 68.4869 150.819 68.5143C150.93 68.5417 151.045 68.547 151.158 68.5299L155.905 67.7939C156.019 67.7771 156.129 67.7376 156.227 67.6779C156.326 67.6181 156.411 67.5392 156.479 67.4459C156.546 67.3526 156.594 67.2467 156.62 67.1345C156.646 67.0222 156.649 66.906 156.629 66.7925Z" fill="#7E57C2"/>
<path opacity="0.4" d="M156.629 66.7925L154.886 55.4935C154.808 54.9657 154.572 54.4736 154.21 54.0819L153.987 53.8346C153.354 53.1514 152.901 52.3225 152.666 51.4215L151.284 46.1732C151.333 46.1617 151.374 46.1321 151.401 46.0905C151.428 46.049 151.438 45.9987 151.429 45.95C151.42 45.8976 151.391 45.8508 151.349 45.8193C151.306 45.7878 151.253 45.7741 151.2 45.7811L149.016 46.1189C148.964 46.1278 148.917 46.1567 148.885 46.1994C148.854 46.2422 148.84 46.2955 148.847 46.3481C148.855 46.3966 148.88 46.4407 148.918 46.4718C148.955 46.503 149.003 46.5191 149.052 46.5171L149.318 51.9464C149.364 52.8771 149.182 53.8049 148.787 54.649L148.648 54.9506C148.419 55.4329 148.341 55.9735 148.425 56.501L150.168 67.8C150.185 67.9129 150.224 68.0214 150.283 68.1192C150.342 68.217 150.42 68.3022 150.512 68.37C150.604 68.4378 150.708 68.4869 150.819 68.5143C150.93 68.5417 151.045 68.547 151.158 68.5299L155.905 67.7939C156.019 67.7771 156.129 67.7376 156.227 67.6779C156.326 67.6181 156.411 67.5392 156.479 67.4459C156.546 67.3526 156.594 67.2467 156.62 67.1345C156.646 67.0222 156.649 66.906 156.629 66.7925Z" fill="black"/>
<path d="M152.698 57.5667L148.674 58.1875L149.78 65.3598L153.805 64.739L152.698 57.5667Z" fill="#7E57C2"/>
<path opacity="0.2" d="M169.654 212.285L168.779 217.92L173.352 219.18L174.233 213.546L169.654 212.285Z" fill="black"/>
<path opacity="0.2" d="M210.253 213.607H205.505L206.121 219.272H210.862L210.253 213.607Z" fill="black"/>
<path d="M213.052 75.9262C211.664 81.0469 210.656 86.2632 210.036 91.5324C209.589 95.2063 209.318 98.7112 209.155 101.896C208.757 109.353 208.92 115.035 208.703 116.978C204.992 116.724 191.015 115.771 183.366 115.216C179.921 88.2326 186.503 74.3336 186.503 74.3336C188.496 73.9589 190.511 73.707 192.535 73.5795C192.964 73.5795 193.404 73.5373 193.844 73.5312C197.443 73.5734 201.036 73.8232 204.606 74.2793C205.282 74.3577 205.97 74.4603 206.633 74.5689C210.072 75.0997 213.052 75.9262 213.052 75.9262Z" fill="#7E57C2"/>
<path d="M204.655 74.2598C201.085 73.8036 197.492 73.5539 193.893 73.5117C193.452 73.5117 193.012 73.5117 192.584 73.56H192.433C191.667 75.1465 191.884 77.9215 195.413 78.386C197.461 78.6478 199.541 78.437 201.494 77.7699C203.448 77.1027 205.222 75.9969 206.682 74.5373C206.018 74.4407 205.331 74.3382 204.655 74.2598Z" fill="#263238"/>
<path opacity="0.2" d="M206.664 82.7539C206.615 86.6368 207.704 90.449 209.795 93.7211C209.867 92.9972 209.951 92.2673 210.036 91.5313C210.374 88.7684 210.814 85.9089 211.387 83.0193L206.664 82.7539Z" fill="black"/>
<path d="M204.431 62.0703C203.508 65.4908 202.392 71.7827 204.649 74.2621C203.506 75.3005 202.153 76.0809 200.683 76.5503C199.212 77.0198 197.657 77.1673 196.125 76.9828C193.15 76.7114 193.15 74.6181 193.892 73.5141C197.82 72.8626 197.916 69.9911 197.434 67.2523L204.431 62.0703Z" fill="#FFC3BD"/>
<path opacity="0.2" d="M201.578 64.1855L197.434 67.2441C197.559 67.8822 197.625 68.5303 197.633 69.1805C199.123 69.0719 201.252 67.5939 201.53 66.0617C201.658 65.4442 201.674 64.8088 201.578 64.1855Z" fill="black"/>
<path d="M191.679 50.7159C190.677 53.3521 190.906 61.1462 194.333 59.5475C197.759 57.9489 207.677 50.9451 207.677 50.9451C207.677 50.9451 194.031 44.5445 191.679 50.7159Z" fill="#263238"/>
<path d="M205.204 56.8928C204.601 61.5559 204.468 64.3189 201.934 66.5449C198.122 69.9171 192.481 67.3653 191.679 62.6056C190.967 58.3225 192.089 51.4092 196.812 49.8648C197.854 49.5154 198.967 49.4389 200.046 49.6428C201.125 49.8466 202.134 50.324 202.976 51.0291C203.818 51.7343 204.465 52.6437 204.855 53.6703C205.245 54.6969 205.365 55.8064 205.204 56.8928Z" fill="#FFC3BD"/>
<path d="M196.125 62.8585C196.676 62.9105 197.232 62.8278 197.745 62.6177C198.258 62.4075 198.712 62.0762 199.068 61.652C199.088 61.6264 199.096 61.5943 199.091 61.5626C199.087 61.5309 199.07 61.5023 199.044 61.4831C199.019 61.4639 198.987 61.4557 198.955 61.4602C198.923 61.4647 198.895 61.4816 198.875 61.5072C198.539 61.8931 198.116 62.1941 197.641 62.386C197.166 62.5778 196.653 62.6549 196.143 62.6112C196.111 62.6112 196.08 62.6239 196.057 62.6465C196.035 62.6692 196.022 62.6999 196.022 62.7319C196.022 62.7639 196.035 62.7945 196.057 62.8172C196.08 62.8398 196.111 62.8525 196.143 62.8525L196.125 62.8585Z" fill="#263238"/>
<path d="M201.795 59.0051C200.727 55.1563 201.059 51.217 204.51 50.0105C207.96 48.804 210.385 50.4207 210.844 52.8519C211.302 55.283 203.352 64.6154 201.795 59.0051Z" fill="#263238"/>
<path d="M203.098 52.0434C198.972 52.6467 194.827 52.5683 192.758 49.9984C190.689 47.4285 191.974 43.9658 193.862 43.5918C193.607 43.7847 193.399 44.0345 193.257 44.3214C193.114 44.6083 193.041 44.9244 193.042 45.2447C193.12 46.2341 195.026 47.4707 197.458 46.8735C199.889 46.2763 206.609 45.8419 208.636 47.3561C211.145 49.2383 209.106 50.9033 209.106 50.9033L203.098 52.0434Z" fill="#263238"/>
<path d="M199.171 45.4484C197.398 45.4967 196.336 44.4591 196.354 43.6386C196.354 42.9328 197.168 42.6191 197.168 42.6191C195.805 42.6191 194.393 44.8029 195.449 46.8902C196.505 48.9775 199.364 49.641 202.308 49.8401L206.839 47.4271C205.662 46.0939 200.945 45.3941 199.171 45.4484Z" fill="#263238"/>
<path d="M203.135 45.3706C200.257 45.7084 199.648 44.2666 199.762 43.6634C199.801 43.4789 199.88 43.3053 199.993 43.1551C200.107 43.0049 200.253 42.8818 200.42 42.7947C199.213 42.7283 197.892 44.6045 198.713 46.4504C199.533 48.2964 202.006 49.0444 204.57 49.3521L209.71 48.5799C208.727 46.4926 206.211 45.0147 203.135 45.3706Z" fill="#263238"/>
<path d="M206.965 62.208C206.265 63.1624 205.215 63.8002 204.045 63.9815C202.489 64.2108 201.91 62.775 202.507 61.4117C203.044 60.2052 204.498 58.5884 205.976 58.9986C207.454 59.4089 207.81 61.0256 206.965 62.208Z" fill="#FFC3BD"/>
<path d="M167.355 216.394L175.101 218.523C175.101 218.523 184.796 187.95 187.166 171.161C187.8 166.709 188.777 160.448 190.261 153.776C192.143 145.372 194.484 136.281 196.432 129.163C198.465 121.664 200.016 116.362 200.016 116.362L183.39 115.197C183.39 115.197 174.383 154.469 173.43 168.887C172.435 183.932 167.355 216.394 167.355 216.394Z" fill="#263238"/>
<path opacity="0.2" d="M190.273 153.776C192.155 145.373 194.496 136.282 196.444 129.163L194.713 125.441C190.587 130.346 189.477 145.53 190.273 153.776Z" fill="black"/>
<path d="M192.366 115.826C192.366 115.826 194.176 156.437 196.167 170.192C198.357 185.273 203.925 218.175 203.925 218.175H212.618C212.618 218.175 212.762 186.962 210.042 172.369C206.917 155.756 208.727 116.966 208.727 116.966L192.366 115.826Z" fill="#263238"/>
<path d="M202.887 218.361H213.118V215.303L201.681 215.104L202.887 218.361Z" fill="#7E57C2"/>
<path d="M166.818 216.436L175.56 218.85L176.82 215.833L166.855 213.07L166.818 216.436Z" fill="#7E57C2"/>
<path d="M198.007 57.7071C197.976 58.0872 197.753 58.3828 197.506 58.3647C197.259 58.3466 197.078 58.0208 197.102 57.6408C197.126 57.2607 197.349 56.9651 197.602 56.9832C197.856 57.0013 198.031 57.321 198.007 57.7071Z" fill="#263238"/>
<path d="M193.694 57.4063C193.664 57.7864 193.44 58.082 193.193 58.0639C192.946 58.0458 192.759 57.72 192.789 57.34C192.819 56.9599 193.036 56.6643 193.29 56.6824C193.543 56.7005 193.718 57.0444 193.694 57.4063Z" fill="#263238"/>
<path d="M195.051 57.6895C194.513 58.8233 193.823 59.8786 193 60.8264C193.603 61.502 194.858 61.2064 194.858 61.2064L195.051 57.6895Z" fill="#ED847E"/>
<path d="M199.442 56.4054C199.401 56.4089 199.36 56.4013 199.323 56.3832C199.286 56.3652 199.254 56.3374 199.231 56.3029C199.083 56.0626 198.88 55.8605 198.639 55.7128C198.398 55.5651 198.125 55.4759 197.844 55.4523C197.785 55.4523 197.728 55.4288 197.686 55.3869C197.644 55.345 197.621 55.2883 197.621 55.2291C197.621 55.1699 197.644 55.1131 197.686 55.0712C197.728 55.0294 197.785 55.0059 197.844 55.0059C198.2 55.0268 198.546 55.1331 198.853 55.3158C199.159 55.4985 199.417 55.7522 199.605 56.0555C199.637 56.1061 199.649 56.1673 199.636 56.2259C199.624 56.2845 199.589 56.336 199.539 56.3692C199.509 56.3875 199.477 56.3998 199.442 56.4054Z" fill="#263238"/>
<path d="M191.944 55.7886C191.901 55.8024 191.854 55.8024 191.811 55.7886C191.785 55.7742 191.762 55.7547 191.744 55.7313C191.726 55.708 191.712 55.6812 191.704 55.6525C191.696 55.6239 191.694 55.5939 191.698 55.5645C191.702 55.535 191.712 55.5066 191.727 55.4809C191.897 55.1682 192.14 54.9009 192.435 54.7015C192.73 54.5021 193.068 54.3763 193.422 54.3347C193.452 54.3323 193.482 54.3358 193.51 54.3452C193.538 54.3545 193.565 54.3695 193.587 54.3892C193.61 54.4089 193.628 54.4329 193.641 54.4598C193.654 54.4867 193.662 54.516 193.663 54.5459C193.665 54.6047 193.644 54.6619 193.605 54.7057C193.565 54.7495 193.511 54.7765 193.452 54.7812C193.172 54.8205 192.904 54.925 192.672 55.0864C192.439 55.2477 192.248 55.4614 192.113 55.7102C192.092 55.7349 192.066 55.7548 192.037 55.7684C192.008 55.782 191.976 55.7889 191.944 55.7886Z" fill="#263238"/>
<path d="M204.733 224.869C204.409 224.894 204.086 224.809 203.816 224.628C203.731 224.555 203.665 224.461 203.625 224.356C203.585 224.25 203.572 224.136 203.587 224.025C203.586 223.959 203.603 223.895 203.637 223.839C203.671 223.784 203.721 223.739 203.78 223.711C204.305 223.44 205.831 224.381 206.006 224.489C206.025 224.5 206.039 224.516 206.048 224.536C206.056 224.555 206.059 224.577 206.054 224.598C206.052 224.621 206.043 224.643 206.028 224.66C206.013 224.677 205.993 224.689 205.97 224.694C205.566 224.798 205.151 224.857 204.733 224.869ZM204.028 223.886C203.977 223.882 203.927 223.892 203.883 223.916C203.853 223.916 203.816 223.958 203.81 224.049C203.8 224.123 203.808 224.2 203.835 224.27C203.861 224.341 203.904 224.404 203.961 224.453C204.491 224.695 205.093 224.725 205.644 224.538C205.153 224.218 204.604 223.997 204.028 223.886Z" fill="#7E57C2"/>
<path d="M205.946 224.701H205.891C205.403 224.436 204.45 223.392 204.552 222.891C204.569 222.809 204.613 222.734 204.678 222.681C204.743 222.627 204.824 222.597 204.908 222.596C204.994 222.584 205.082 222.59 205.165 222.615C205.248 222.64 205.325 222.683 205.391 222.74C205.94 223.187 206.054 224.55 206.054 224.617C206.057 224.637 206.054 224.657 206.046 224.675C206.037 224.693 206.023 224.709 206.006 224.719C205.985 224.719 205.964 224.713 205.946 224.701ZM204.986 222.777H204.938C204.793 222.777 204.775 222.861 204.775 222.891C204.715 223.199 205.318 223.989 205.807 224.357C205.775 223.817 205.579 223.299 205.246 222.873C205.174 222.811 205.082 222.776 204.986 222.777Z" fill="#7E57C2"/>
<path d="M167.512 223.199C166.734 223.145 165.371 222.958 164.997 222.379C164.934 222.293 164.896 222.191 164.885 222.085C164.875 221.979 164.892 221.873 164.936 221.776C164.955 221.717 164.988 221.664 165.034 221.623C165.08 221.581 165.135 221.553 165.196 221.54C165.829 221.39 167.416 222.819 167.609 222.988C167.621 223.007 167.627 223.029 167.627 223.052C167.627 223.074 167.621 223.096 167.609 223.115C167.603 223.137 167.591 223.157 167.574 223.172C167.556 223.187 167.535 223.197 167.512 223.199ZM165.292 221.77H165.262C165.237 221.774 165.215 221.785 165.196 221.802C165.178 221.82 165.165 221.842 165.16 221.866C165.132 221.928 165.121 221.996 165.128 222.064C165.134 222.131 165.157 222.196 165.196 222.252C165.407 222.578 166.149 222.825 167.205 222.94C166.535 222.391 165.63 221.733 165.292 221.77Z" fill="#7E57C2"/>
<path d="M167.512 223.198C167.485 223.207 167.455 223.207 167.428 223.198C166.945 222.794 166.125 221.503 166.348 221.015C166.402 220.894 166.535 220.767 166.836 220.822C166.947 220.839 167.053 220.879 167.147 220.939C167.242 220.999 167.323 221.078 167.385 221.171C167.838 221.811 167.621 223.078 167.609 223.132C167.605 223.151 167.596 223.169 167.583 223.184C167.571 223.198 167.554 223.21 167.536 223.216L167.512 223.198ZM166.667 221.009C166.644 221.009 166.62 221.016 166.6 221.029C166.58 221.042 166.564 221.06 166.553 221.081C166.42 221.377 166.945 222.36 167.416 222.854C167.51 222.318 167.436 221.766 167.204 221.274C167.158 221.206 167.098 221.149 167.028 221.106C166.959 221.062 166.881 221.033 166.8 221.021C166.757 221.011 166.712 221.007 166.667 221.009Z" fill="#7E57C2"/>
<path d="M213.661 78.5195C214.265 79.2676 214.729 79.9311 215.224 80.6551C215.718 81.379 216.201 82.0787 216.672 82.8026C217.607 84.2505 218.481 85.7345 219.32 87.2607C221.052 90.3635 222.434 93.6494 223.44 97.0576L223.494 97.2325L223.555 97.4799L223.663 97.9806C223.712 98.2822 223.76 98.5838 223.784 98.8794C223.821 99.4115 223.83 99.9452 223.808 100.478C223.763 101.424 223.664 102.367 223.512 103.301C223.212 105.037 222.809 106.753 222.306 108.441C221.346 111.712 220.151 114.91 218.729 118.009L215.362 116.887C215.966 113.695 216.569 110.45 217.027 107.289C217.263 105.714 217.426 104.134 217.516 102.638C217.561 101.931 217.561 101.221 217.516 100.514C217.516 100.189 217.456 99.911 217.413 99.6335C217.413 99.5068 217.359 99.4103 217.335 99.3017C217.311 99.1931 217.305 99.2354 217.293 99.1992V99.1509L217.245 99.0303C216.726 97.6428 216.08 96.2613 215.399 94.8798C214.717 93.4984 213.927 92.135 213.124 90.7777C212.322 89.4204 211.471 88.0872 210.597 86.76C210.168 86.0904 209.722 85.4328 209.276 84.7813L207.942 82.8811L213.661 78.5195Z" fill="#FFC3BD"/>
<path d="M213.052 75.9254C217.498 76.8243 221.401 87.695 221.401 87.695L212.123 95.2538C212.123 95.2538 209.077 89.7279 206.646 84.3951C203.997 78.5858 207.665 74.8396 213.052 75.9254Z" fill="#7E57C2"/>
<path d="M222.523 88.2621L212.111 96.7439L210.434 94.5963L221.021 85.5957L222.523 88.2621Z" fill="#263238"/>
<path d="M215.875 115.957L212.678 119.577L218.469 121.35C218.469 121.35 220.515 117.682 218.693 116.379L215.875 115.957Z" fill="#FFC3BD"/>
<path d="M212.4 123.512L217.263 124.749L218.469 121.328L212.678 119.555L212.4 123.512Z" fill="#FFC3BD"/>
<path d="M156.376 59.7895C155.588 59.3796 154.754 59.0657 153.891 58.8545C153.388 58.769 152.88 58.7126 152.37 58.6855C152.37 58.6855 151.954 59.9645 154.12 60.3385C154.796 61.2132 157.136 62.3594 157.136 62.3594L156.376 59.7895Z" fill="#FFC3BD"/>
<path d="M144.727 55.1309L144.95 54.8835C145.561 54.193 145.996 53.3652 146.217 52.4705L147.484 47.198C147.437 47.1842 147.396 47.1544 147.368 47.1136C147.341 47.0729 147.328 47.0238 147.333 46.9748C147.342 46.922 147.371 46.8746 147.413 46.8421C147.456 46.8096 147.509 46.7945 147.562 46.7999L149.752 47.0955C149.805 47.0995 149.854 47.1243 149.889 47.1645C149.923 47.2046 149.94 47.2568 149.936 47.3096C149.932 47.3624 149.907 47.4115 149.867 47.446C149.827 47.4805 149.775 47.4976 149.722 47.4936L149.571 52.9229C149.55 53.8556 149.757 54.7793 150.175 55.6135L150.319 55.9091C150.556 56.387 150.644 56.9249 150.573 57.4534L149.071 68.7886C149.056 68.9017 149.02 69.0109 148.963 69.1099C148.907 69.2088 148.831 69.2956 148.741 69.3651C148.651 69.4347 148.547 69.4857 148.437 69.5151C148.327 69.5445 148.212 69.5519 148.099 69.5366L143.334 68.9032C143.221 68.8891 143.112 68.8527 143.013 68.796C142.914 68.7394 142.828 68.6636 142.759 68.5732C142.69 68.4828 142.639 68.3795 142.611 68.2694C142.582 68.1593 142.576 68.0446 142.592 67.932L144.094 56.5968C144.152 56.0554 144.373 55.5443 144.727 55.1309Z" fill="#7E57C2"/>
<path opacity="0.4" d="M144.727 55.1309L144.95 54.8835C145.561 54.193 145.996 53.3652 146.217 52.4705L147.484 47.198C147.437 47.1842 147.396 47.1544 147.368 47.1136C147.341 47.0729 147.328 47.0238 147.333 46.9748C147.342 46.922 147.371 46.8746 147.413 46.8421C147.456 46.8096 147.509 46.7945 147.562 46.7999L149.752 47.0955C149.805 47.0995 149.854 47.1243 149.889 47.1645C149.923 47.2046 149.94 47.2568 149.936 47.3096C149.932 47.3624 149.907 47.4115 149.867 47.446C149.827 47.4805 149.775 47.4976 149.722 47.4936L149.571 52.9229C149.55 53.8556 149.757 54.7793 150.175 55.6135L150.319 55.9091C150.556 56.387 150.644 56.9249 150.573 57.4534L149.071 68.7886C149.056 68.9017 149.02 69.0109 148.963 69.1099C148.907 69.2088 148.831 69.2956 148.741 69.3651C148.651 69.4347 148.547 69.4857 148.437 69.5151C148.327 69.5445 148.212 69.5519 148.099 69.5366L143.334 68.9032C143.221 68.8891 143.112 68.8527 143.013 68.796C142.914 68.7394 142.828 68.6636 142.759 68.5732C142.69 68.4828 142.639 68.3795 142.611 68.2694C142.582 68.1593 142.576 68.0446 142.592 67.932L144.094 56.5968C144.152 56.0554 144.373 55.5443 144.727 55.1309Z" fill="white"/>
<path d="M142.875 65.4737L148.305 66.1934L149.258 58.9991L143.828 58.2794L142.875 65.4737Z" fill="#263238"/>
<path d="M94.5426 87.6526C94.247 88.1111 93.891 88.7083 93.5653 89.2452L92.5699 90.9163C91.9244 92.0443 91.291 93.1785 90.6938 94.3186C90.0966 95.4588 89.4873 96.611 89.0167 97.7753C88.5462 98.9396 88.0274 100.086 87.6172 101.25C87.4483 101.823 87.207 102.408 87.0803 102.975L86.851 103.832C86.8047 103.972 86.7665 104.115 86.7364 104.26C86.62 104.956 86.7434 105.671 87.0863 106.287C87.8585 107.97 89.7949 109.846 91.659 111.355L90.0423 114.974C89.2795 114.768 88.5318 114.51 87.8042 114.202C87.0821 113.896 86.3809 113.544 85.7049 113.146C84.2265 112.297 82.9143 111.188 81.8319 109.871C81.2115 109.106 80.7074 108.255 80.3359 107.343C79.922 106.336 79.6932 105.264 79.6602 104.176C79.6435 103.635 79.6738 103.094 79.7507 102.559L79.9438 101.395C80.0584 100.611 80.2695 99.8867 80.4324 99.1266C81.2166 96.2519 82.2626 93.4552 83.5573 90.7715C84.2027 89.4564 84.8603 88.1594 85.5902 86.9046C85.9522 86.3013 86.3262 85.6498 86.7123 85.0345C87.0984 84.4192 87.4845 83.828 87.961 83.1523L94.5426 87.6526Z" fill="#FF8B7B"/>
<path d="M91.0916 111.053L94.5302 111.421L91.8517 116.766C91.8517 116.766 89.4387 115.776 88.8354 113.592L91.0916 111.053Z" fill="#FF8B7B"/>
<path d="M98.3305 113.013L95.9054 117.296L91.8516 116.735L94.5421 111.42L98.3305 113.013Z" fill="#FF8B7B"/>
<path d="M111.048 63.5215C111.102 63.8955 111.349 64.167 111.591 64.1247C111.832 64.0825 111.983 63.7567 111.922 63.3888C111.862 63.0208 111.621 62.7433 111.379 62.7855C111.138 62.8277 110.999 63.1535 111.048 63.5215Z" fill="#263238"/>
<path d="M111.313 64.1738C111.935 65.2386 112.7 66.2129 113.587 67.0695C113.361 67.29 113.09 67.4584 112.792 67.5626C112.493 67.6668 112.176 67.7044 111.862 67.6727L111.313 64.1738Z" fill="#FF5652"/>
<path d="M109.37 61.6766C109.4 61.6767 109.429 61.6709 109.456 61.6594C109.483 61.648 109.507 61.6313 109.527 61.6103C109.72 61.4102 109.956 61.2583 110.219 61.1671C110.481 61.0759 110.761 61.0479 111.035 61.0854C111.09 61.0906 111.145 61.0755 111.189 61.0429C111.233 61.0103 111.264 60.9625 111.275 60.9087C111.286 60.855 111.277 60.799 111.25 60.7514C111.222 60.7039 111.178 60.6682 111.126 60.6511C110.78 60.5994 110.426 60.631 110.095 60.7433C109.763 60.8555 109.463 61.0452 109.22 61.2966C109.178 61.3383 109.155 61.3947 109.155 61.4534C109.155 61.5121 109.178 61.5685 109.22 61.6103C109.26 61.6503 109.314 61.6739 109.37 61.6766Z" fill="#263238"/>
<path d="M98.6507 67.6191C99.3204 71.0275 99.9839 77.2712 97.6011 79.5516C97.6011 79.5516 98.5301 83.0082 104.87 83.0082C111.838 83.0082 108.2 79.5516 108.2 79.5516C104.394 78.6406 104.496 75.8234 105.154 73.1751L98.6507 67.6191Z" fill="#FF8B7B"/>
<path d="M94.9404 81.6322C95.0173 81.5253 95.0727 81.4044 95.1033 81.2763C95.598 79.3218 97.6913 77.7895 100.406 77.7171C103.271 77.6387 106.493 77.9946 108.405 79.6294C109.244 80.3473 108.309 81.397 108.309 81.397L94.9404 81.6322Z" fill="#7E57C2"/>
<path opacity="0.3" d="M94.9404 81.6322C95.0173 81.5253 95.0727 81.4044 95.1033 81.2763C95.598 79.3218 97.6913 77.7895 100.406 77.7171C103.271 77.6387 106.493 77.9946 108.405 79.6294C109.244 80.3473 108.309 81.397 108.309 81.397L94.9404 81.6322Z" fill="white"/>
<path d="M82.7967 222.153H82.8389C82.9203 222.107 82.9846 222.035 83.0226 221.95C83.0606 221.864 83.0702 221.768 83.0501 221.677C83.0468 221.603 83.0266 221.531 82.9911 221.466C82.9555 221.401 82.9055 221.345 82.845 221.303C82.296 220.868 80.7577 221.134 80.6913 221.146C80.6697 221.15 80.6498 221.16 80.6337 221.175C80.6177 221.19 80.6063 221.209 80.6008 221.23C80.5951 221.251 80.5961 221.272 80.6037 221.292C80.6114 221.311 80.6252 221.328 80.6431 221.339C81.0171 221.61 82.2477 222.371 82.7967 222.153ZM80.9869 221.303C81.5057 221.236 82.3744 221.194 82.7002 221.448C82.7367 221.473 82.7671 221.506 82.789 221.545C82.8109 221.583 82.8239 221.626 82.8269 221.671C82.8269 221.876 82.7545 221.924 82.7303 221.936C82.4408 222.093 81.5781 221.731 80.993 221.303H80.9869Z" fill="#7E57C2"/>
<path d="M81.488 221.129C82.0249 220.918 82.5799 220.574 82.6644 220.242C82.6845 220.161 82.6755 220.076 82.6392 220.001C82.6028 219.926 82.5413 219.866 82.4653 219.832C82.3939 219.788 82.3141 219.759 82.231 219.748C82.1479 219.736 82.0633 219.742 81.9827 219.766C81.3071 219.934 80.6435 221.117 80.6133 221.165C80.6043 221.183 80.5996 221.202 80.5996 221.222C80.5996 221.242 80.6043 221.262 80.6133 221.28C80.6238 221.297 80.6391 221.311 80.6573 221.319C80.6756 221.328 80.6959 221.331 80.7159 221.328C80.9813 221.298 81.2413 221.231 81.488 221.129ZM81.9586 220.001H82.037C82.0893 219.985 82.1443 219.98 82.1984 219.988C82.2526 219.995 82.3045 220.014 82.3507 220.043C82.4713 220.121 82.4593 220.182 82.4532 220.212C82.3748 220.514 81.5122 220.966 80.927 221.099C81.1708 220.653 81.5263 220.279 81.9586 220.013V220.001Z" fill="#7E57C2"/>
<path d="M118.063 225.201C118.666 225.201 119.239 225.117 119.433 224.845C119.483 224.775 119.51 224.691 119.51 224.604C119.51 224.518 119.483 224.433 119.433 224.363C119.352 224.236 119.228 224.143 119.083 224.103C118.304 223.892 116.67 224.821 116.609 224.864C116.589 224.875 116.573 224.892 116.564 224.912C116.554 224.933 116.551 224.956 116.555 224.978C116.559 225.001 116.57 225.021 116.586 225.037C116.603 225.053 116.623 225.064 116.645 225.069C117.113 225.155 117.588 225.199 118.063 225.201ZM118.799 224.296C118.871 224.287 118.944 224.287 119.016 224.296C119.06 224.306 119.101 224.324 119.137 224.35C119.173 224.376 119.204 224.409 119.227 224.447C119.306 224.586 119.282 224.652 119.227 224.695C119.01 224.996 117.834 225.002 116.965 224.882C117.533 224.569 118.156 224.37 118.799 224.296Z" fill="#7E57C2"/>
<path d="M116.652 225.068H116.7C117.261 224.814 118.377 223.807 118.292 223.258C118.292 223.137 118.184 222.98 117.876 222.95C117.658 222.932 117.442 222.999 117.273 223.137C116.67 223.626 116.555 224.881 116.549 224.947C116.547 224.962 116.549 224.978 116.554 224.992C116.558 225.007 116.566 225.02 116.576 225.032C116.586 225.043 116.599 225.052 116.613 225.059C116.627 225.065 116.642 225.068 116.658 225.068H116.652ZM117.792 223.18H117.858C118.057 223.18 118.069 223.282 118.069 223.306C118.124 223.62 117.363 224.416 116.79 224.76C116.841 224.231 117.051 223.73 117.394 223.324C117.504 223.23 117.646 223.178 117.792 223.18Z" fill="#7E57C2"/>
<path d="M111.53 224.96H116.187L116.652 214.162H111.995L111.53 224.96Z" fill="#FF8B7B"/>
<path d="M75.624 220.098L79.9916 221.099L85.0891 210.754L80.7215 209.746L75.624 220.098Z" fill="#FF8B7B"/>
<path d="M80.6192 220.598L75.8595 218.414C75.7757 218.374 75.6808 218.365 75.5908 218.387C75.5007 218.408 75.4209 218.461 75.3648 218.535L72.801 221.919C72.7396 222.001 72.6976 222.097 72.6781 222.198C72.6585 222.299 72.6619 222.403 72.6879 222.503C72.714 222.602 72.762 222.695 72.8286 222.773C72.8952 222.852 72.9785 222.914 73.0724 222.956C74.7495 223.686 75.6001 223.964 77.6934 224.923C78.9844 225.526 83.5329 228.717 85.4452 229.146C87.3576 229.574 88.0151 227.716 87.255 227.378C84.5959 226.046 82.4562 223.866 81.1742 221.183C81.0686 220.925 80.8707 220.717 80.6192 220.598Z" fill="#263238"/>
<path d="M116.157 224.416H111.066C110.973 224.416 110.883 224.448 110.811 224.506C110.738 224.564 110.688 224.645 110.667 224.736L109.75 228.88C109.728 228.98 109.728 229.084 109.751 229.184C109.774 229.283 109.82 229.377 109.884 229.456C109.949 229.536 110.03 229.6 110.123 229.643C110.216 229.687 110.318 229.708 110.42 229.707C112.23 229.676 114.908 229.568 117.219 229.568C119.915 229.568 122.25 229.719 125.411 229.719C127.323 229.719 127.854 227.782 127.058 227.607C123.408 226.811 120.422 226.726 117.279 224.784C116.947 224.559 116.558 224.432 116.157 224.416Z" fill="#263238"/>
<path d="M96.1291 88.5212C95.6465 89.77 95.1096 90.9946 94.5667 92.1408C93.6376 94.1255 92.7147 95.8508 92.039 97.0513C91.4358 98.1251 91.0497 98.7645 91.0497 98.7645L80.8667 93.7153C80.8667 93.7153 84.9688 81.9216 89.252 80.6065C93.6376 79.2673 98.331 82.8989 96.1291 88.5212Z" fill="#263238"/>
<path opacity="0.2" d="M91.6168 89.6855C92.5036 90.3371 93.137 92.0986 93.5894 94.1496C92.9862 95.2898 92.4734 96.2731 92.0391 97.0392C91.4358 98.1191 91.0497 98.7585 91.0497 98.7585L89.8794 98.1553C89.9053 95.2462 90.4953 92.3698 91.6168 89.6855Z" fill="black"/>
<path d="M117.635 96.0374C117.635 97.624 117.599 99.3674 117.508 101.292C117.279 106.522 116.706 113.037 115.614 121.133H90.7118C90.5429 117.308 92.9439 98.6314 89.252 80.6001C92.0093 80.0699 94.7982 79.7193 97.601 79.5504C101.131 79.3452 104.67 79.3452 108.2 79.5504C110.619 79.795 113.015 80.2266 115.367 80.8414C115.367 80.8414 117.665 83.4354 117.635 96.0374Z" fill="#263238"/>
<path d="M112.646 81.9769C112.851 81.9769 113.201 81.9769 113.533 81.9769L114.607 81.9286C115.343 81.8803 116.103 81.82 116.863 81.7476C118.377 81.5847 119.915 81.4098 121.429 81.1444C124.377 80.7259 127.278 80.027 130.092 79.0571C130.418 78.9304 130.744 78.8098 131.039 78.677C131.196 78.6107 131.353 78.5443 131.492 78.4719L131.86 78.297C132.268 78.0782 132.641 77.7974 132.964 77.4645C133.954 76.4435 134.858 75.3417 135.666 74.1707C137.428 71.6853 139.081 68.8922 140.728 66.1836L144.413 67.6073C143.626 70.9342 142.492 74.1693 141.029 77.2594C140.246 78.9421 139.281 80.5341 138.152 82.007C137.438 82.9429 136.579 83.7577 135.606 84.42L135.389 84.5588L135.226 84.6553L134.906 84.8423C134.695 84.975 134.484 85.0836 134.267 85.1982C133.844 85.4335 133.416 85.6386 132.994 85.8437C129.734 87.2976 126.314 88.3626 122.805 89.0169C121.104 89.3366 119.402 89.6201 117.671 89.777C116.808 89.8675 115.934 89.9459 115.041 89.9821C114.594 89.9821 114.142 90.0243 113.665 90.0243C113.189 90.0243 112.718 90.0243 112.103 89.97L112.646 81.9769Z" fill="#FF8B7B"/>
<path d="M140.74 66.2739L142.773 61.9727L146.73 66.1955C146.73 66.1955 144.51 68.7653 142.314 68.8739L140.74 66.2739Z" fill="#FF8B7B"/>
<path d="M147.587 59.293L149.089 63.739L146.73 66.1822L142.773 61.9714L147.587 59.293Z" fill="#FF8B7B"/>
<path d="M107.934 91.1319C111.886 93.1829 125.326 90.2089 125.326 90.2089L124.554 78.6565C120.483 78.619 116.422 79.0583 112.453 79.9656C104.031 82.1433 103.187 88.6706 107.934 91.1319Z" fill="#263238"/>
<path opacity="0.2" d="M116.652 214.166L116.41 219.728H111.747L111.988 214.166H116.652Z" fill="black"/>
<path opacity="0.2" d="M80.7217 209.752L85.0893 210.753L82.4591 216.086L78.0854 215.085L80.7217 209.752Z" fill="black"/>
<path d="M98.5297 64.6742C99.525 69.1926 99.881 71.9133 102.547 73.8678C106.565 76.8479 111.874 73.8678 112.248 69.1564C112.586 64.9034 110.902 58.2254 106.149 57.0913C105.101 56.8407 104.007 56.8622 102.97 57.1538C101.933 57.4454 100.987 57.9974 100.224 58.7573C99.4603 59.5172 98.9038 60.4598 98.6073 61.4954C98.3108 62.5311 98.284 63.6253 98.5297 64.6742Z" fill="#FF8B7B"/>
<path d="M106.62 62.8462C106.777 67.5154 106.107 72.5405 101.757 72.8361C98.2586 73.0774 95.001 69.2166 92.9379 65.398C91.3272 62.3817 93.3059 59.5222 95.0794 59.4921C93.4687 58.0382 94.9166 54.1894 98.3793 54.5273C101.842 54.8651 103.959 51.891 106.451 52.995C108.942 54.099 113.135 54.6298 112.634 52.2168C112.634 52.2168 115.301 56.4396 110.499 56.9584C105.697 57.4772 112.206 60.0591 106.62 62.8462Z" fill="#263238"/>
<path d="M95.9539 59.8413C95.9539 59.8413 93.6374 58.7856 93.6917 56.9336C93.0161 59.3888 93.7581 59.3888 95.9539 59.8413Z" fill="#263238"/>
<path d="M104.756 64.2336C104.881 65.4045 105.39 66.5011 106.203 67.3524C107.283 68.4624 108.345 67.7143 108.478 66.3148C108.604 65.054 108.188 62.9547 106.897 62.3635C105.606 61.7723 104.623 62.8219 104.756 64.2336Z" fill="#FF8B7B"/>
<path d="M106.776 121.134C106.776 121.134 107.313 154.313 103.157 167.313C96.5209 187.914 85.2099 215.622 85.2099 215.622L76.6919 213.45C76.6919 213.45 85.6623 184.216 88.6786 166.836C91.4114 151.248 90.7116 133.844 90.7116 121.109L106.776 121.134Z" fill="#7E57C2"/>
<path opacity="0.3" d="M106.776 121.134C106.776 121.134 107.313 154.313 103.157 167.313C96.5209 187.914 85.2099 215.622 85.2099 215.622L76.6919 213.45C76.6919 213.45 85.6623 184.216 88.6786 166.836C91.4114 151.248 90.7116 133.844 90.7116 121.109L106.776 121.134Z" fill="white"/>
<path opacity="0.2" d="M102.143 126.834C101.263 132.806 104.375 149.45 105.455 154.903C106.589 144.714 106.794 132.625 106.812 126.025C104.532 124.475 102.553 124.077 102.143 126.834Z" fill="black"/>
<path d="M87.4722 213.113C87.5084 213.113 85.3849 215.809 85.3849 215.809L76.0767 213.438L77.1143 210.277L87.4722 213.113Z" fill="#263238"/>
<path d="M115.644 121.133C115.644 121.133 122.666 150.891 123.161 165.11C123.716 181.048 118.148 218.655 118.148 218.655H110.251C110.251 218.655 109.28 180.759 108.93 166.238C108.55 150.409 99.2778 121.133 99.2778 121.133H115.644Z" fill="#7E57C2"/>
<path opacity="0.3" d="M115.644 121.133C115.644 121.133 122.666 150.891 123.161 165.11C123.716 181.048 118.148 218.655 118.148 218.655H110.251C110.251 218.655 109.28 180.759 108.93 166.238C108.55 150.409 99.2778 121.133 99.2778 121.133H115.644Z" fill="white"/>
<path d="M119.668 215.506C119.704 215.506 119.222 218.788 119.222 218.788H109.618L109.358 215.862L119.668 215.506Z" fill="#263238"/>
</svg>
