<svg width="271" height="150" viewBox="0 0 271 150" fill="none" xmlns="http://www.w3.org/2000/svg">
<g clip-path="url(#clip0_2102_58731)">
<path d="M148.662 117.592L132.486 117.47C132.034 117.467 131.675 117.103 131.678 116.651L131.685 115.747C131.689 115.295 132.053 114.937 132.505 114.94L148.681 115.061L148.662 117.592Z" fill="#ECEDEB" stroke="#252526" stroke-linejoin="round"/>
<path d="M147.585 117.887H158.339C158.506 117.887 158.641 117.752 158.641 117.585V114.824C158.641 114.658 158.506 114.523 158.339 114.523H147.585C147.419 114.523 147.284 114.658 147.284 114.824V117.585C147.284 117.752 147.419 117.887 147.585 117.887Z" fill="#A0A0A0" stroke="#252526" stroke-linejoin="round"/>
<path d="M54.9521 66.2441C31.9671 66.2441 13.3301 84.8812 13.3301 107.866C13.3301 130.851 31.9671 149.488 54.9521 149.488C77.9371 149.488 96.5742 130.851 96.5742 107.866C96.5742 84.8812 77.9371 66.2441 54.9521 66.2441ZM54.9521 142.409C35.8833 142.409 20.4194 126.945 20.4194 107.876C20.4194 88.8074 35.8833 73.3435 54.9521 73.3435C74.0209 73.3435 89.4849 88.8074 89.4849 107.876C89.4849 126.945 74.0209 142.409 54.9521 142.409Z" fill="#383838" stroke="#252526" stroke-linejoin="round"/>
<path d="M187.179 66.2441C164.194 66.2441 145.557 84.8812 145.557 107.866C145.557 130.851 164.194 149.488 187.179 149.488C210.164 149.488 228.801 130.851 228.801 107.866C228.801 84.8812 210.164 66.2441 187.179 66.2441ZM187.179 142.409C168.11 142.409 152.646 126.945 152.646 107.876C152.646 88.8074 168.11 73.3435 187.179 73.3435C206.247 73.3435 221.711 88.8074 221.711 107.876C221.711 126.945 206.247 142.409 187.179 142.409Z" fill="#383838" stroke="#252526" stroke-linejoin="round"/>
<path d="M154.112 31.8108C157.115 31.8108 162.688 31.8108 165.479 31.369C168.261 30.9271 172.006 30.5656 172.368 31.369C172.729 32.1723 172.88 32.7647 170.681 34.5923C168.482 36.4299 166.282 37.3035 165.329 38.0365C164.375 38.7696 158.52 39.4524 154.735 37.9361C150.959 36.4198 147.585 34.2208 146.41 34.1505C145.235 34.0802 142.012 34.9237 140.908 34.8634C139.803 34.8132 139.512 33.4877 140.908 32.6844C142.303 31.8811 151.542 31.8108 154.102 31.8008L154.112 31.8108Z" fill="#9C8BDC" stroke="#252526" stroke-linejoin="round"/>
<path d="M138.387 113.117C138.387 113.117 181.164 108.086 182.589 107.865C184.015 107.644 184.849 108.518 184.969 109.15C185.09 109.783 184.728 110.616 183.302 111.088C181.876 111.56 139.1 117.977 139.1 117.977L138.387 113.107V113.117Z" fill="#ECEDEB" stroke="#252526" stroke-linejoin="round"/>
<path d="M87.4058 40.4769C87.4058 40.4769 89.5145 34.7834 89.7555 33.9901C89.9965 33.1969 89.7053 33.0362 88.5807 32.5642C87.456 32.0923 82.2244 30.3451 81.1198 29.8731C80.0153 29.4012 77.3141 28.4472 76.5208 28.3669C75.7275 28.2866 74.8539 28.2866 73.5887 28.3669C72.3235 28.4472 70.4457 28.6079 71.0281 30.1844C71.6105 31.7609 71.7812 32.5241 72.4942 32.263C73.7895 31.791 75.9384 31.7308 77.1334 32.1325C78.0773 32.4538 82.0637 33.9901 82.9373 34.3818C83.811 34.7734 83.9716 34.8537 83.6503 35.5666C83.329 36.2796 82.375 39.0109 82.375 39.0109L87.4058 40.4669V40.4769Z" fill="#7A7A79" stroke="#252526" stroke-linejoin="round"/>
<path d="M133.055 128.31C139.744 128.31 145.165 122.888 145.165 116.2C145.165 109.512 139.744 104.09 133.055 104.09C126.367 104.09 120.945 109.512 120.945 116.2C120.945 122.888 126.367 128.31 133.055 128.31Z" fill="#ECEDEB" stroke="#252526" stroke-linejoin="round"/>
<path d="M187.922 106.811C187.389 106.198 155.699 72.0571 150.326 66.2632C154.423 52.426 158.129 39.9544 158.129 39.9544C158.48 38.7695 158.621 38.7695 157.476 38.639C156.612 38.5386 155.397 38.1771 154.504 37.8457C154.152 39.0306 148.961 56.2016 148.72 56.9145C148.479 57.6275 148.599 58.3404 147.294 57.8685C145.988 57.3965 88.079 42.7761 87.1351 42.3041C87.1351 42.3041 87.2656 41.4908 87.4062 40.4766C87.4163 40.3862 81.7629 38.8499 81.3512 38.7394C80.8993 38.6189 79.5939 43.0372 78.8207 45.1559C76.7622 50.7792 74.5129 56.8744 72.2737 62.4273C69.6729 68.8739 67.0822 75.3206 64.4815 81.7672C62.3025 87.1696 60.1134 92.5819 57.9244 97.9843C56.9403 100.414 56.0366 102.895 54.942 105.284C53.968 107.423 53.3655 108.729 54.1387 109.15C54.7512 109.482 55.4441 109.883 56.5185 107.885C57.5829 105.887 79.3328 64.0641 79.8048 63.2306C80.2767 62.3972 81.2307 62.2767 82.0641 63.2306C82.8976 64.1846 115.804 112.183 116.758 113.85C117.711 115.517 122.019 121.23 122.019 121.23C122.019 121.23 120.162 117.405 121.276 113.368C122.381 109.331 124.53 107.614 124.53 107.614C124.53 107.614 91.4529 58.9529 90.0271 56.8141C88.6012 54.6753 85.8699 51.5825 85.7494 49.9256C85.6289 48.2688 87.2656 47.3148 89.4748 47.7868C91.6839 48.2587 144.562 60.2583 145.747 60.7403C146.932 61.2123 147.294 61.3328 146.932 62.6382C146.581 63.9436 139.451 86.0449 139.21 86.7579C139.09 87.1093 139.09 87.2599 138.989 87.4206L133.577 104.13C134.18 104.16 134.722 104.23 135.244 104.31C136.871 104.551 138.688 105.515 138.688 105.515C138.688 105.515 142.976 91.0355 149.011 70.6513C154.564 76.3348 183.925 106.359 185.391 107.885C187.018 109.572 187.52 109.211 187.892 108.96C188.263 108.709 189.036 108.146 187.892 106.831L187.922 106.811Z" fill="#ECEDEB" stroke="#252526" stroke-linejoin="round"/>
<path d="M54.9526 117.204C60.1046 117.204 64.2811 113.027 64.2811 107.875C64.2811 102.723 60.1046 98.5469 54.9526 98.5469C49.8006 98.5469 45.624 102.723 45.624 107.875C45.624 113.027 49.8006 117.204 54.9526 117.204Z" fill="#ECEDEB" stroke="#252526" stroke-linejoin="round"/>
<path d="M187.178 117.204C192.33 117.204 196.507 113.027 196.507 107.875C196.507 102.723 192.33 98.5469 187.178 98.5469C182.026 98.5469 177.85 102.723 177.85 107.875C177.85 113.027 182.026 117.204 187.178 117.204Z" fill="#ECEDEB" stroke="#252526" stroke-linejoin="round"/>
<path d="M117.437 115.051L133.613 114.929C134.065 114.926 134.429 115.285 134.432 115.737L134.439 116.64C134.443 117.092 134.084 117.456 133.632 117.46L117.456 117.581L117.437 115.051Z" fill="#ECEDEB" stroke="#252526" stroke-linejoin="round"/>
<path d="M118.515 114.514H107.76C107.594 114.514 107.459 114.649 107.459 114.815V117.576C107.459 117.743 107.594 117.878 107.76 117.878H118.515C118.681 117.878 118.816 117.743 118.816 117.576V114.815C118.816 114.649 118.681 114.514 118.515 114.514Z" fill="#A0A0A0" stroke="#252526" stroke-linejoin="round"/>
<path d="M25.5106 30.0438L77.4854 52.5668C78.0176 52.7978 78.349 53.3099 78.3791 53.8823C78.7406 59.5859 81.9941 64.7673 87.3261 67.0869C93.5016 69.7679 100.581 67.7797 105.039 62.6887C105.521 62.1364 105.25 61.2728 104.537 61.1222L96.494 59.4453C93.4213 58.8026 91.4431 55.7902 92.0858 52.7175L92.6079 50.2171C93.2506 47.1444 96.263 45.1663 99.3357 45.8089L107.499 47.5059C108.212 47.6566 108.815 46.9737 108.594 46.2809C107.309 42.204 104.447 38.7497 100.37 36.9724C95.5099 34.8637 90.0875 35.657 85.8299 38.5589C85.3981 38.8502 84.8559 38.9204 84.3739 38.7196L32.4091 16.2166C31.8769 15.9856 31.5455 15.4735 31.5154 14.9012C31.1539 9.18755 27.9005 4.00613 22.5684 1.69659C16.3929 -0.984496 9.31365 1.00372 4.84518 6.09476C4.36318 6.64705 4.63431 7.51062 5.34725 7.66124L13.3905 9.33817C16.4632 9.98083 18.4414 12.9933 17.7987 16.066L17.2766 18.5663C16.6339 21.639 13.6215 23.6172 10.5488 22.9745L2.38501 21.2775C1.67206 21.1269 1.06957 21.8097 1.29048 22.5026C2.5758 26.5895 5.43762 30.0438 9.51448 31.8111C14.3746 33.9198 19.7869 33.1265 24.0546 30.2245C24.4864 29.9333 25.0286 29.863 25.5106 30.0638V30.0438Z" fill="#CECFCF" stroke="#252526" stroke-linecap="round" stroke-linejoin="round"/>
<path d="M186.416 113.147L241.584 100.294C242.146 100.163 242.719 100.374 243.09 100.816C246.786 105.184 252.479 107.413 258.142 106.087C264.7 104.561 269.208 98.7471 269.76 92.0093C269.821 91.2763 269.088 90.7441 268.425 91.0453L260.964 94.4895C258.112 95.805 254.728 94.5598 253.413 91.7081L252.349 89.3885C251.033 86.5367 252.278 83.1627 255.13 81.8373L262.701 78.3428C263.364 78.0416 263.444 77.1378 262.852 76.706C259.388 74.1957 255.04 73.1212 250.702 74.1254C245.54 75.3304 241.664 79.1863 239.967 84.0665C239.797 84.5585 239.405 84.9401 238.893 85.0606L183.725 97.9137C183.163 98.0442 182.59 97.8334 182.219 97.3915C178.523 93.0235 172.83 90.7943 167.166 92.1097C160.609 93.636 156.101 99.4501 155.548 106.188C155.488 106.921 156.221 107.453 156.884 107.142L164.345 103.698C167.197 102.382 170.581 103.627 171.896 106.479L172.96 108.799C174.276 111.65 173.031 115.024 170.179 116.35L162.608 119.844C161.945 120.146 161.864 121.049 162.457 121.481C165.921 123.991 170.269 125.066 174.607 124.062C179.769 122.857 183.645 119.001 185.342 114.131C185.512 113.639 185.904 113.257 186.416 113.137V113.147Z" fill="#CECFCF" stroke="#252526" stroke-linecap="round" stroke-linejoin="round"/>
</g>
<defs>
<clipPath id="clip0_2102_58731">
<rect width="269.504" height="150" fill="white" transform="translate(0.748047)"/>
</clipPath>
</defs>
</svg>
