<svg width="296" height="197" viewBox="0 0 296 197" fill="none" xmlns="http://www.w3.org/2000/svg">
<g clip-path="url(#clip0_93_26466)">
<path d="M12.98 74.3202C2.08998 82.4502 5.53999 84.0502 10.5 103.07C12.01 108.85 -2.64001 108.04 1.11999 123.96C5.29999 141.62 28.85 138.73 40.86 136.02C46.74 134.69 51.75 130.63 53.87 124.98C55.78 119.91 56.46 113.76 48.18 109.14C38.6 103.8 39.67 101.28 41.87 98.1802C43.59 95.7702 48.95 90.3902 48.36 84.9502C47.7 78.7902 43.73 77.3802 39.41 75.7202C29.28 71.8202 34.74 64.1102 34.74 59.3102C34.74 37.2002 10.36 45.5702 15.16 63.5502C15.81 65.9802 15.14 72.1102 12.97 74.3302" fill="#D4D4D4"/>
<path d="M12.98 74.3202C2.08998 82.4502 5.53999 84.0502 10.5 103.07C12.01 108.85 -2.64001 108.04 1.11999 123.96C5.29999 141.62 28.85 138.73 40.86 136.02C46.74 134.69 51.75 130.63 53.87 124.98C55.78 119.91 56.46 113.76 48.18 109.14C38.6 103.8 39.67 101.28 41.87 98.1802C43.59 95.7702 48.95 90.3902 48.36 84.9502C47.7 78.7902 43.73 77.3802 39.41 75.7202C29.28 71.8202 34.74 64.1102 34.74 59.3102C34.74 37.2002 10.36 45.5702 15.16 63.5502C15.81 65.9802 15.14 72.1102 12.97 74.3302" stroke="#171617" stroke-linecap="round" stroke-linejoin="round"/>
<path d="M25.86 86.1699V195.92" stroke="#171617" stroke-linecap="round" stroke-linejoin="round"/>
<path d="M37.24 106.29C37.24 106.29 36.08 108.02 34.45 110.47C31.83 114.4 28.02 120.2 25.86 123.7" stroke="#171617" stroke-linecap="round" stroke-linejoin="round"/>
<path d="M14.72 111.57L18.3 115.39L25.36 122.92" stroke="#171617" stroke-linecap="round" stroke-linejoin="round"/>
<path d="M34.46 93.0596L31.33 95.0896L25.86 98.6296" stroke="#171617" stroke-linecap="round" stroke-linejoin="round"/>
<path d="M25.8599 98.4097L22.1599 92.0597L20.0399 88.4297" stroke="#171617" stroke-linecap="round" stroke-linejoin="round"/>
<path d="M81.0191 165.841L90.8908 171.442C91.2735 171.659 91.4003 172.145 91.1881 172.519L91.0795 172.71C90.8624 173.093 90.3765 173.22 90.0025 173.007L80.1308 167.406L81.024 165.832L81.0191 165.841Z" fill="#ECEDEB" stroke="#252526" stroke-linejoin="round"/>
<path d="M81.574 165.724L75.5205 162.229C75.2527 162.075 74.9102 162.166 74.7555 162.434L74.1155 163.543C73.9609 163.811 74.0526 164.153 74.3205 164.308L80.374 167.803C80.6419 167.957 80.9844 167.866 81.139 167.598L81.779 166.489C81.9336 166.221 81.8419 165.879 81.574 165.724Z" fill="#A0A0A0" stroke="#252526" stroke-linejoin="round"/>
<path d="M34.46 136.44C18.03 136.44 4.71997 149.76 4.71997 166.18C4.71997 182.6 18.04 195.92 34.46 195.92C50.88 195.92 64.2 182.6 64.2 166.18C64.2 149.76 50.88 136.44 34.46 136.44ZM34.46 190.86C20.83 190.86 9.77997 179.81 9.77997 166.18C9.77997 152.55 20.83 141.5 34.46 141.5C48.09 141.5 59.14 152.55 59.14 166.18C59.14 179.81 48.09 190.86 34.46 190.86Z" fill="#383838" stroke="#252526" stroke-linejoin="round"/>
<path d="M128.94 136.44C112.51 136.44 99.2 149.76 99.2 166.18C99.2 182.6 112.52 195.92 128.94 195.92C145.36 195.92 158.68 182.6 158.68 166.18C158.68 149.76 145.36 136.44 128.94 136.44ZM128.94 190.86C115.31 190.86 104.26 179.81 104.26 166.18C104.26 152.55 115.31 141.5 128.94 141.5C142.57 141.5 153.62 152.55 153.62 166.18C153.62 179.81 142.57 190.86 128.94 190.86Z" fill="#383838" stroke="#252526" stroke-linejoin="round"/>
<path d="M105.31 111.83C107.46 111.83 111.44 111.83 113.43 111.52C115.42 111.21 118.09 110.94 118.35 111.52C118.61 112.1 118.72 112.52 117.14 113.83C115.56 115.14 114 115.77 113.32 116.29C112.64 116.81 108.45 117.3 105.75 116.22C103.05 115.14 100.64 113.57 99.8 113.51C98.96 113.45 96.66 114.06 95.87 114.02C95.08 113.98 94.87 113.04 95.87 112.46C96.87 111.88 103.47 111.84 105.3 111.83H105.31Z" fill="#9C8BDC" stroke="#252526" stroke-linejoin="round"/>
<path d="M94.08 169.93C94.08 169.93 124.64 166.34 125.66 166.18C126.68 166.02 127.27 166.65 127.36 167.1C127.45 167.55 127.19 168.15 126.17 168.49C125.15 168.83 94.59 173.41 94.59 173.41L94.08 169.93Z" fill="#ECEDEB" stroke="#252526" stroke-linejoin="round"/>
<path d="M57.6599 118.03C57.6599 118.03 59.1699 113.96 59.3399 113.39C59.5099 112.82 59.3099 112.71 58.4999 112.37C57.6999 112.03 53.9599 110.79 53.1699 110.45C52.3799 110.11 50.4499 109.43 49.8899 109.37C49.3299 109.31 48.6999 109.31 47.7999 109.37C46.8999 109.43 45.5599 109.54 45.9699 110.67C46.3799 111.8 46.5099 112.34 47.0199 112.16C47.9499 111.82 49.4799 111.78 50.3299 112.07C51.0099 112.3 53.8499 113.4 54.4699 113.68C55.0899 113.96 55.2099 114.01 54.9799 114.52C54.7499 115.03 54.0699 116.98 54.0699 116.98L57.6699 118.02L57.6599 118.03Z" fill="#7A7A79" stroke="#252526" stroke-linejoin="round"/>
<path d="M90.27 180.78C95.0473 180.78 98.92 176.908 98.92 172.13C98.92 167.353 95.0473 163.48 90.27 163.48C85.4927 163.48 81.62 167.353 81.62 172.13C81.62 176.908 85.4927 180.78 90.27 180.78Z" fill="#ECEDEB" stroke="#252526" stroke-linejoin="round"/>
<path d="M129.47 165.421C129.09 164.981 106.45 140.591 102.61 136.451C105.54 126.571 108.19 117.651 108.19 117.651C108.44 116.801 108.54 116.811 107.72 116.711C107.11 116.641 106.24 116.381 105.6 116.141C105.35 116.991 101.64 129.261 101.47 129.771C101.3 130.281 101.39 130.791 100.45 130.451C99.52 130.111 58.14 119.671 57.47 119.331C57.47 119.331 57.56 118.751 57.66 118.021C57.66 117.961 53.62 116.861 53.34 116.781C53.02 116.701 52.08 119.851 51.53 121.361C50.06 125.371 48.45 129.731 46.85 133.701C44.99 138.311 43.14 142.911 41.28 147.521C39.72 151.381 38.16 155.251 36.6 159.111C35.9 160.851 35.25 162.621 34.47 164.321C33.77 165.851 33.35 166.781 33.9 167.081C34.34 167.311 34.83 167.601 35.6 166.171C36.36 164.741 51.9 134.861 52.24 134.261C52.58 133.671 53.26 133.581 53.85 134.261C54.44 134.941 77.96 169.241 78.64 170.431C79.32 171.621 82.4 175.701 82.4 175.701C82.4 175.701 81.07 172.961 81.87 170.081C82.66 167.201 84.19 165.971 84.19 165.971C84.19 165.971 60.56 131.201 59.54 129.681C58.52 128.151 56.57 125.941 56.48 124.761C56.39 123.581 57.56 122.891 59.14 123.231C60.72 123.571 98.5 132.141 99.35 132.481C100.2 132.821 100.45 132.901 100.2 133.841C99.95 134.771 94.85 150.561 94.68 151.071C94.6 151.321 94.59 151.431 94.52 151.541L90.65 163.481C91.08 163.501 91.47 163.551 91.84 163.611C93 163.781 94.3 164.471 94.3 164.471C94.3 164.471 97.37 154.121 101.68 139.561C105.65 143.621 126.62 165.081 127.68 166.171C128.84 167.371 129.2 167.111 129.47 166.931C129.74 166.751 130.28 166.351 129.47 165.411V165.421Z" fill="#ECEDEB" stroke="#252526" stroke-linejoin="round"/>
<path d="M34.4599 172.84C38.1381 172.84 41.1199 169.859 41.1199 166.18C41.1199 162.502 38.1381 159.521 34.4599 159.521C30.7817 159.521 27.7999 162.502 27.7999 166.18C27.7999 169.859 30.7817 172.84 34.4599 172.84Z" fill="#ECEDEB" stroke="#252526" stroke-linejoin="round"/>
<path d="M128.94 172.84C132.618 172.84 135.6 169.859 135.6 166.18C135.6 162.502 132.618 159.521 128.94 159.521C125.262 159.521 122.28 162.502 122.28 166.18C122.28 169.859 125.262 172.84 128.94 172.84Z" fill="#ECEDEB" stroke="#252526" stroke-linejoin="round"/>
<path d="M99.4341 178.558L89.6476 172.809C89.2682 172.586 89.1488 172.099 89.3666 171.728L89.478 171.538C89.7009 171.159 90.1885 171.039 90.5593 171.257L100.346 177.006L99.4291 178.566L99.4341 178.558Z" fill="#ECEDEB" stroke="#252526" stroke-linejoin="round"/>
<path d="M97.7327 180.74L103.786 177.245C104.054 177.09 104.146 176.748 103.991 176.48L103.351 175.371C103.197 175.104 102.854 175.012 102.586 175.166L96.5327 178.661C96.2649 178.816 96.1731 179.159 96.3278 179.426L96.9678 180.535C97.1224 180.803 97.4649 180.894 97.7327 180.74Z" fill="#A0A0A0" stroke="#252526" stroke-linejoin="round"/>
<path d="M240.07 3.57952C234.12 -1.18048 225.53 -0.330481 220.89 5.46952C214.41 13.5695 216.27 31.6495 217.09 32.2995C217.91 32.9495 235.95 30.8095 242.44 22.6995C247.08 16.8995 246.03 8.32952 240.08 3.56952L240.07 3.57952ZM227.7 19.0395C224.96 16.8495 224.52 12.8595 226.71 10.1195C228.9 7.37952 232.89 6.93952 235.63 9.12952C238.37 11.3195 238.81 15.3095 236.62 18.0495C234.43 20.7895 230.44 21.2295 227.7 19.0395Z" fill="#473687" stroke="#171617" stroke-linecap="round" stroke-linejoin="round"/>
<path d="M92.89 70.63C92.71 71.92 91.85 74.61 88.05 77.08C88.02 77.1 87.97 77.13 87.94 77.15C87.91 77.14 87.86 77.12 87.83 77.11C86.36 76.58 85.62 75.16 85.3 74.29L85.7 73.86L86.62 72.87C86.62 72.87 86.75 70.75 85.95 69.43C85.16 68.1 84.09 69.56 82.24 69.43C80.68 69.32 79.68 67.93 79.05 66.59C78.93 66.34 78.83 66.09 78.73 65.85C78.51 65.27 78.14 64.56 77.76 63.89C77.15 62.78 76.54 61.8 76.54 61.8C86.36 55.93 85.13 51.39 85.13 51.29C85.13 51.29 87.86 59.95 90.35 58.29C90.44 58.23 90.53 58.16 90.62 58.07C90.62 58.07 90.63 58.07 90.64 58.06C91.12 57.74 91.79 57.68 92.43 58.86C93.67 61.09 91.16 62.29 91.16 62.29C91.16 62.29 91.08 62.94 90.93 63.69C90.76 64.55 90.48 65.53 90.14 65.78C90.04 65.85 89.99 66.01 89.98 66.23C89.89 67.47 91.04 70.7 92.48 70.65H92.57C92.67 70.65 92.77 70.65 92.88 70.65L92.89 70.63Z" fill="#F4F4F4" stroke="#171617" stroke-linecap="round" stroke-linejoin="round"/>
<path d="M90.35 58.29C90.08 58.56 89.9 58.85 89.9 58.85" stroke="#171617" stroke-linecap="round" stroke-linejoin="round"/>
<path d="M98.7599 70.9996C98.7399 71.1896 98.6899 71.3996 98.6099 71.6296C97.1199 75.9596 93.3999 78.3396 92.9499 78.4396C92.4999 78.5396 89.9099 78.9896 88.9199 78.0396C88.6799 77.8096 88.4099 77.4996 88.1699 77.2096C88.1299 77.1696 88.0899 77.1296 88.0699 77.0796C91.8699 74.5996 92.73 71.9196 92.91 70.6296C92.91 70.5896 92.9199 70.5496 92.9199 70.5096C94.9499 69.7496 99.1299 68.4696 98.7699 70.9996H98.7599Z" fill="#6A51CA" stroke="#171617" stroke-linecap="round" stroke-linejoin="round"/>
<path d="M92.91 70.5195C92.78 70.5595 92.69 70.6095 92.58 70.6495" stroke="#171617" stroke-linecap="round" stroke-linejoin="round"/>
<path d="M88.01 79.8904C88.01 80.5904 86.67 80.5903 86.63 80.5903C86.59 80.5903 82.94 81.1904 83.44 76.9104C83.7 74.6404 84.48 73.9804 85.16 73.8604C85.19 73.9804 85.24 74.1204 85.31 74.3004C85.63 75.1704 86.37 76.5904 87.84 77.1204C87.84 77.1504 87.84 77.1904 87.84 77.2204C87.89 78.2604 88.01 79.5204 88.01 79.8904Z" fill="#6A51CA" stroke="#171617" stroke-linecap="round" stroke-linejoin="round"/>
<path d="M85.15 73.8598C85.35 73.8298 85.54 73.8398 85.7 73.8598" stroke="#171617" stroke-linecap="round" stroke-linejoin="round"/>
<path d="M77.76 63.8898C76.97 63.9898 75.31 63.8698 76.54 61.7998C76.54 61.7998 77.16 62.7698 77.76 63.8898Z" fill="#4D4D4D" stroke="#171617" stroke-linecap="round" stroke-linejoin="round"/>
<path d="M94.54 53.9899C94.73 54.1199 94.92 54.3399 95.08 54.6199C95.57 55.4399 95.89 56.8099 95.9 58.3399C95.92 61.6799 94.47 65.7299 89.99 66.2099C89.99 65.9899 90.05 65.8299 90.15 65.7599C90.49 65.5199 90.76 64.5399 90.94 63.6699C91.09 62.9299 91.17 62.2699 91.17 62.2699C91.17 62.2699 93.68 61.0699 92.44 58.8399C91.79 57.6599 91.13 57.7199 90.65 58.0399C90.65 58.0399 90.64 58.0499 90.63 58.0499C90.53 58.1199 90.44 58.1999 90.36 58.2699C87.86 59.9299 85.14 51.2699 85.14 51.2699C85.14 51.3699 86.37 55.9099 76.55 61.7799C75.33 63.8499 76.99 63.9699 77.77 63.8699C78.15 64.5399 78.51 65.2499 78.74 65.8299C78.84 66.0699 78.94 66.3199 79.06 66.5699C77.18 66.4399 71.2 65.3299 73.4 58.2699C75.76 50.6899 78.44 49.0799 78.44 49.0799C78.44 49.0799 83.48 46.0199 86.35 47.7699C86.45 47.7399 93 48.0799 94.55 53.9699" fill="#A0A0A0"/>
<path d="M94.54 53.9899C94.73 54.1199 94.92 54.3399 95.08 54.6199C95.57 55.4399 95.89 56.8099 95.9 58.3399C95.92 61.6799 94.47 65.7299 89.99 66.2099C89.99 65.9899 90.05 65.8299 90.15 65.7599C90.49 65.5199 90.76 64.5399 90.94 63.6699C91.09 62.9299 91.17 62.2699 91.17 62.2699C91.17 62.2699 93.68 61.0699 92.44 58.8399C91.79 57.6599 91.13 57.7199 90.65 58.0399C90.65 58.0399 90.64 58.0499 90.63 58.0499C90.53 58.1199 90.44 58.1999 90.36 58.2699C87.86 59.9299 85.14 51.2699 85.14 51.2699C85.14 51.3699 86.37 55.9099 76.55 61.7799C75.33 63.8499 76.99 63.9699 77.77 63.8699C78.15 64.5399 78.51 65.2499 78.74 65.8299C78.84 66.0699 78.94 66.3199 79.06 66.5699C77.18 66.4399 71.2 65.3299 73.4 58.2699C75.76 50.6899 78.44 49.0799 78.44 49.0799C78.44 49.0799 83.48 46.0199 86.35 47.7699C86.45 47.7399 93 48.0799 94.55 53.9699" stroke="#171617" stroke-linecap="round" stroke-linejoin="round"/>
<path d="M131.25 57.29C129.66 62.72 123.37 61.69 122.1 61.14C118.9 59.83 114.45 58.1 111.29 57.86C108.96 57.68 105.5 59.07 102.53 59.29C100.69 59.42 97.65 58.78 95.9 58.35C95.9 56.82 95.57 55.45 95.08 54.63C97.74 54.13 103.05 52.75 107.04 49.34C111.74 45.33 116.41 44.33 120.11 44.02C121.46 43.91 123.23 44.31 123.44 44.36C123.55 44.38 134.23 47.11 131.24 57.31L131.25 57.29Z" fill="#A0A0A0" stroke="#171617" stroke-linecap="round" stroke-linejoin="round"/>
<path d="M106.18 84.8102C106.18 84.8102 105.07 84.1602 104 83.5402C104.38 88.1902 108.3 102.37 108.9 104.6C109.01 105 109.03 105.37 108.99 105.68C108.8 107.43 106.84 108.03 106.84 108.03C106.84 108.03 96.66 109.91 96.41 109.87C96.16 109.82 91.08 108.68 91.08 108.68C91.08 108.68 90.62 108.7 90.27 108.51C90.07 108.41 89.9 108.22 89.89 107.93C89.85 107.3 86.7 99.0002 85.41 95.6202C83.47 95.0602 82.47 93.6502 82.01 92.0302C81.11 93.0002 79.16 95.0502 78.12 95.4902C77.68 95.6802 76.71 95.2402 75.6 94.5102C73.84 93.3502 71.75 91.4602 70.99 90.2002C70.71 89.7502 70.61 89.3902 70.74 89.1702C71.49 87.9302 77.6 80.2202 77.6 80.2202L83.42 76.8902C82.93 81.1702 86.57 80.5702 86.61 80.5702C86.65 80.5702 87.99 80.5702 87.99 79.8702C87.99 79.4902 87.86 78.2402 87.82 77.2002C87.82 77.1702 87.82 77.1302 87.82 77.1002C87.85 77.1102 87.9 77.1302 87.93 77.1402C87.96 77.1202 88.01 77.0902 88.04 77.0702C88.07 77.1102 88.1 77.1502 88.14 77.2002C88.38 77.5002 88.65 77.8102 88.89 78.0302C89.88 78.9802 92.47 78.5302 92.92 78.4302C93.37 78.3302 97.09 75.9502 98.58 71.6202C98.66 71.3802 98.71 71.1702 98.73 70.9902C100.72 71.2202 106.16 72.2802 111.6 77.2102C111.76 77.3602 111.75 77.6402 111.6 78.0202C111.16 79.1602 109.53 81.1302 108.16 82.6602C107.07 83.8702 106.16 84.8002 106.16 84.8002L106.18 84.8102Z" fill="#F4F4F4" stroke="#171617" stroke-linecap="round" stroke-linejoin="round"/>
<path d="M102.14 82.4297C102.26 82.5197 103.11 83.0297 104.01 83.5497" stroke="#171617" stroke-linecap="round" stroke-linejoin="round"/>
<path d="M130.45 73.0303C130.36 73.1603 130.18 73.4103 129.92 73.7503" stroke="#171617" stroke-linecap="round" stroke-linejoin="round"/>
<path d="M119.98 80.61C119.96 80.55 119.73 80.44 119.34 80.29" stroke="#171617" stroke-linecap="round" stroke-linejoin="round"/>
<path d="M129.94 73.0302C129.94 73.2602 129.93 73.5002 129.93 73.7502C128.16 76.1402 124.62 83.4302 123.91 84.5802C123.04 86.0102 120.6 86.3402 119.69 86.4202C119.47 86.4402 119.25 86.4202 119.05 86.3402L108.19 82.6702C109.56 81.1402 111.19 79.1702 111.63 78.0302C113.88 78.6402 117.81 79.7302 119.34 80.2902C120.74 78.7602 126.86 70.7602 128.1 70.2002C128.09 70.4702 127.94 72.1402 127.94 72.2802C127.98 72.3202 128.17 72.4602 128.48 72.6102C128.83 72.7902 129.33 72.9702 129.95 73.0302H129.94Z" fill="#F4F4F4" stroke="#171617" stroke-linecap="round" stroke-linejoin="round"/>
<path d="M130.94 66.6297C130.9 66.8197 130.86 67.0097 130.82 67.1697C130.21 67.3797 129.81 67.6797 129.81 67.6797C129.78 67.7597 128.44 70.4297 128.46 72.6097C128.15 72.4597 127.97 72.3197 127.92 72.2797C127.92 72.1397 127.94 71.9297 127.95 71.6497C128.05 70.2097 128.33 67.2697 129.08 66.7297C129.55 66.3897 130.29 66.4597 130.93 66.6297H130.94Z" fill="#F4F4F4" stroke="#171617" stroke-linecap="round" stroke-linejoin="round"/>
<path d="M131.99 66.9999C131.99 66.9999 131.9 66.9599 131.84 66.9399C131.61 66.8399 131.29 66.7199 130.94 66.6299" stroke="#171617" stroke-linecap="round" stroke-linejoin="round"/>
<path d="M132.58 72.46C132 72.76 131.45 72.93 130.96 73C130.86 73.01 130.77 73.03 130.68 73.03C130.6 73.03 130.53 73.03 130.45 73.03C130.27 73.04 130.1 73.03 129.94 73.03C129.32 72.97 128.82 72.79 128.47 72.61C128.45 70.43 129.79 67.76 129.82 67.68C129.82 67.68 130.22 67.37 130.83 67.17C131.11 67.08 131.44 67 131.79 67H131.8C131.86 67 131.92 67 131.99 67C132.14 67 132.28 67.02 132.44 67.06C132.92 67.16 133.42 67.39 133.92 67.84C135.91 69.63 132.58 72.47 132.58 72.47V72.46Z" fill="#F4F4F4" stroke="#171617" stroke-linecap="round" stroke-linejoin="round"/>
<path d="M82.02 92.0396C81.1 88.8796 82.2 84.9096 82.24 84.8096" stroke="#171617" stroke-linecap="round" stroke-linejoin="round"/>
<path d="M85.9301 95.7501C85.7601 95.7201 85.5901 95.6701 85.4301 95.6201" stroke="#171617" stroke-linecap="round" stroke-linejoin="round"/>
<path d="M76.3101 94.9497C75.0301 96.6097 72.7401 99.7797 71.5001 101.51C70.9401 102.29 70.1801 102.91 69.3001 103.31L56.0501 109.33L54.7801 112L53.7601 115.18C53.7601 115.18 49.6101 114.45 48.6201 113.87C47.6301 113.29 48.6201 109.88 48.6201 109.88C48.6201 109.88 50.1401 108.02 51.0701 107.29C52.0001 106.56 65.3301 98.9397 65.5201 98.1397C65.6801 97.4997 69.5301 92.2197 70.9901 90.2197C71.7501 91.4697 74.5401 93.7897 76.3001 94.9597L76.3101 94.9497Z" fill="#F4F4F4" stroke="#171617" stroke-linecap="round" stroke-linejoin="round"/>
<path d="M98.91 161.81C98.91 161.81 98.85 161.91 98.8 161.96C98.1 162.66 95.09 163.41 93.7 163.73C93.27 163.83 92.99 163.88 92.99 163.88C92.99 163.88 92.72 162.97 92.29 161.5C93.93 161.21 98.28 160.3 98.97 158.82C99.03 160.47 99.02 161.59 98.92 161.8L98.91 161.81Z" fill="#6A51CA" stroke="#171617" stroke-linecap="round" stroke-linejoin="round"/>
<path d="M94.01 123.24C95.32 119.82 96.31 117.24 96.31 117.24" stroke="#171617" stroke-linecap="round" stroke-linejoin="round"/>
<path d="M99.4199 165.92C99.4199 165.92 96.5299 166.81 94.8599 167.35L93.6899 163.73C95.0799 163.42 98.0999 162.67 98.7899 161.96L99.4099 165.92H99.4199Z" stroke="#171617" stroke-linecap="round" stroke-linejoin="round"/>
<path d="M103.06 174.78L95.12 179.09L91.66 181.25L88.22 181.65C88.22 181.65 83.51 179.86 88.22 176.94C92.93 174.02 94.12 170.7 94.12 170.7C94.12 170.7 93.13 167.98 93.81 167.72C93.97 167.66 94.37 167.53 94.87 167.37C96.53 166.83 99.43 165.94 99.43 165.94L100.43 165.49C100.43 165.86 102.87 174.13 103.07 174.8L103.06 174.78Z" fill="#C1B7E8" stroke="#171617" stroke-linecap="round" stroke-linejoin="round"/>
<path d="M111.55 114.46C109.49 120.43 107.97 123.35 107.97 123.35L97.77 139.6C97.77 139.6 98.76 152.75 98.95 158.83C98.26 160.31 93.91 161.22 92.27 161.51C90.64 155.86 86.74 141.94 87.53 139.99C88.17 138.41 91.62 129.43 93.99 123.24C92.44 124.2 89.73 125.81 87.16 126.95L70.64 122.71C76.08 119.15 85.01 113.86 87.64 112.31C88.16 110.77 89.4 109.36 90.27 108.51C90.62 108.7 91.08 108.68 91.08 108.68C91.08 108.68 96.16 109.82 96.41 109.87C96.65 109.92 106.84 108.03 106.84 108.03C106.84 108.03 108.8 107.42 108.99 105.68C110.51 107.11 113.04 110.11 111.55 114.44V114.46Z" fill="#473687" stroke="#171617" stroke-linecap="round" stroke-linejoin="round"/>
<path d="M77.98 144.93C77.85 145.03 77.73 145.12 77.59 145.2C77.52 145.25 77.45 145.3 77.37 145.33C76.15 146.05 74.49 146.46 73.41 146.68C73.38 146.68 73.35 146.68 73.32 146.69C72.7 146.81 72.29 146.86 72.29 146.86C71.91 146.37 71.55 145.9 71.21 145.43C72.8 144.95 76.04 143.87 77.43 142.92C77.65 143.73 77.84 144.42 77.97 144.93H77.98Z" fill="#6A51CA" stroke="#171617" stroke-linecap="round" stroke-linejoin="round"/>
<path d="M73.91 130.65C74.77 133.56 76.46 139.39 77.44 142.92C76.04 143.87 72.8 144.95 71.22 145.43C59.77 129.97 66.33 125.93 66.33 125.93C66.42 125.76 66.76 125.44 67.3 125.02L81.95 128.56C80.15 129.05 76.48 130.04 73.9 130.65H73.91Z" fill="#473687" stroke="#171617" stroke-linecap="round" stroke-linejoin="round"/>
<path d="M73.91 130.65C73.78 130.01 73.24 129.72 73.24 129.72" stroke="#171617" stroke-linecap="round" stroke-linejoin="round"/>
<path d="M78.57 148.93C77.52 149.46 76.07 149.95 74.84 150.31L73.41 146.67C74.49 146.45 76.14 146.04 77.37 145.33C77.78 146.55 78.25 147.96 78.57 148.93Z" stroke="#171617" stroke-linecap="round" stroke-linejoin="round"/>
<path d="M77.37 145.34V145.33" stroke="#171617" stroke-linecap="round" stroke-linejoin="round"/>
<path d="M82 155.84C81.49 156.31 80.14 157.5 78.92 158.24L74.86 152.26C74.74 151.65 74.48 151.01 74.24 150.49C74.42 150.44 74.61 150.39 74.8 150.33C74.81 150.33 74.83 150.33 74.85 150.32C76.08 149.96 77.53 149.46 78.58 148.94C79.21 148.61 79.69 148.27 79.91 147.94C79.91 147.94 80.67 151.62 81.24 152.82C81.8 154.02 82.7 155.21 82 155.85V155.84Z" fill="#C1B7E8" stroke="#171617" stroke-linecap="round" stroke-linejoin="round"/>
<path d="M130.94 66.6296C131.92 62.2296 139.65 55.8096 145.76 54.0196C149.62 52.8896 200.51 54.6296 217.08 32.3096" stroke="#171617" stroke-linecap="round" stroke-linejoin="round"/>
<path d="M132.44 67.0504C135.08 62.9604 155.46 58.2704 170.12 58.2904C193.12 58.3204 213.12 61.8404 229.34 53.9404" stroke="#171617" stroke-linecap="round" stroke-linejoin="round"/>
<path d="M131.8 66.9904C131.8 66.9904 131.81 66.9604 131.83 66.9504C131.83 66.9504 131.83 66.9504 131.84 66.9404C133.42 64.5604 136.91 58.5704 145.76 54.0304C151.07 51.3004 162.33 48.8904 165.01 48.6804C192.68 46.5304 238.75 48.2404 258.51 32.9404" stroke="#171617" stroke-linecap="round" stroke-linejoin="round"/>
<path d="M130.68 73.0303C131.54 75.6903 133.24 79.8903 135.17 79.1203" stroke="#171617" stroke-linecap="round" stroke-linejoin="round"/>
<path d="M129.92 73.75C129.89 76.36 130.15 79.94 131.82 80.61" stroke="#171617" stroke-linecap="round" stroke-linejoin="round"/>
<path d="M130.96 72.9902C131.98 74.8702 133.97 77.3102 137.29 76.9102" stroke="#171617" stroke-linecap="round" stroke-linejoin="round"/>
<path d="M73.23 162.44C72.21 163.07 70.48 163.99 68.56 164.39C65.52 165.04 65.25 161.36 66.12 160.86C66.82 160.21 68.83 158.59 69.79 157.4L73.23 162.43V162.44Z" fill="#C1B7E8" stroke="#171617" stroke-linecap="round" stroke-linejoin="round"/>
<path d="M230.9 26.9102C230.9 26.9102 212.05 41.3002 190.55 43.9802C161.86 47.5602 134.5 63.9902 131.85 66.9202C131.84 66.9202 131.84 66.9302 131.84 66.9302L131.8 66.9702" stroke="#171617" stroke-linecap="round" stroke-linejoin="round"/>
<path d="M294.35 24.6099C292.63 17.1899 285.36 12.5299 278.12 14.2099C268.01 16.5599 258.28 31.8999 258.52 32.9199C258.76 33.9399 274.25 43.4299 284.36 41.0899C291.6 39.4099 296.08 32.0299 294.35 24.6099ZM275.07 29.0899C274.28 25.6799 276.4 22.2699 279.82 21.4799C283.24 20.6899 286.64 22.8099 287.43 26.2299C288.22 29.6499 286.1 33.0499 282.68 33.8399C279.27 34.6299 275.86 32.5099 275.07 29.0899Z" fill="#6A51CA" stroke="#171617" stroke-linecap="round" stroke-linejoin="round"/>
<path d="M266.13 53.9396C266.13 46.3196 260.1 40.1396 252.67 40.1396C242.29 40.1396 229.34 52.8896 229.34 53.9396C229.34 54.9896 242.29 67.7396 252.67 67.7396C260.1 67.7396 266.13 61.5596 266.13 53.9396ZM246.35 53.7397C246.86 50.2697 250.09 47.8796 253.55 48.3896C257.01 48.8996 259.41 52.1296 258.9 55.5896C258.39 59.0596 255.16 61.4496 251.7 60.9396C248.24 60.4296 245.84 57.1996 246.35 53.7397Z" fill="#6A51CA" stroke="#171617" stroke-linecap="round" stroke-linejoin="round"/>
<path d="M264.31 11.5205C261.12 4.60046 253.06 1.51046 246.31 4.63046C236.88 8.97046 230.46 25.9705 230.9 26.9205C231.34 27.8705 248.43 34.0305 257.86 29.6905C264.61 26.5805 267.5 18.4505 264.31 11.5305V11.5205ZM246.33 19.8105C244.86 16.6305 246.25 12.8605 249.44 11.3905C252.63 9.92046 256.39 11.3105 257.86 14.5005C259.33 17.6805 257.94 21.4505 254.75 22.9205C251.57 24.3905 247.8 23.0005 246.33 19.8105Z" fill="#836ED3" stroke="#171617" stroke-linecap="round" stroke-linejoin="round"/>
<path d="M4.71997 195.92H100.16" stroke="#171617" stroke-linecap="round" stroke-linejoin="round"/>
<path d="M108.18 195.92H156.85" stroke="#171617" stroke-linecap="round" stroke-linejoin="round"/>
</g>
<defs>
<clipPath id="clip0_93_26466">
<rect width="295.21" height="196.42" fill="white"/>
</clipPath>
</defs>
</svg>
