<svg width="265" height="246" viewBox="0 0 265 246" fill="none" xmlns="http://www.w3.org/2000/svg">
<g clip-path="url(#clip0_2230_197014)">
<path d="M89.3594 39.6484H174.669C195.329 39.6484 212.099 56.4184 212.099 77.0784V129.298H89.3594V39.6484Z" fill="#ECEDEB" stroke="#252526" stroke-linecap="round" stroke-linejoin="round"/>
<path d="M89.36 39.6484C103.08 39.6484 114.21 50.7884 114.21 64.4984V129.298H64.5V64.5084C64.5 50.7884 75.64 39.6584 89.35 39.6584L89.36 39.6484Z" stroke="#252526" stroke-linecap="round" stroke-linejoin="round"/>
<path d="M89.36 39.6484C103.08 39.6484 114.21 50.7884 114.21 64.4984V129.298H64.5V64.5084C64.5 50.7884 75.64 39.6584 89.35 39.6584L89.36 39.6484Z" fill="#5F6060" stroke="#252526" stroke-linecap="round" stroke-linejoin="round"/>
<path d="M159.38 129.309H142.09V245.219H159.38V129.309Z" fill="#ECEDEB" stroke="#252526" stroke-linecap="round" stroke-linejoin="round"/>
<path d="M141.57 91.7919C145.331 91.7919 148.38 88.7429 148.38 84.9819C148.38 81.2208 145.331 78.1719 141.57 78.1719C137.809 78.1719 134.76 81.2208 134.76 84.9819C134.76 88.7429 137.809 91.7919 141.57 91.7919Z" fill="#6A51CA" stroke="#252526" stroke-linecap="round" stroke-linejoin="round"/>
<path d="M175.589 91.7919C179.35 91.7919 182.399 88.7429 182.399 84.9819C182.399 81.2208 179.35 78.1719 175.589 78.1719C171.828 78.1719 168.779 81.2208 168.779 84.9819C168.779 88.7429 171.828 91.7919 175.589 91.7919Z" fill="#6A51CA" stroke="#252526" stroke-linecap="round" stroke-linejoin="round"/>
<path d="M47.2207 123.309H114.221V129.309H47.2207C45.5607 129.309 44.2207 127.969 44.2207 126.309C44.2207 124.649 45.5607 123.309 47.2207 123.309Z" fill="#B4B4B4" stroke="#252526" stroke-linecap="round" stroke-linejoin="round"/>
<path d="M0.5 245.031H176.78" stroke="#252526" stroke-linecap="round" stroke-linejoin="round"/>
<path d="M183.381 245.031H206.721" stroke="#252526" stroke-linecap="round" stroke-linejoin="round"/>
<path d="M213.289 245.031H263.549" stroke="#252526" stroke-linecap="round" stroke-linejoin="round"/>
<path d="M128.547 29.3064L123.427 29.268C123.197 29.2663 123.018 29.0849 123.02 28.8549C123.022 28.6249 123.203 28.4463 123.433 28.448L128.553 28.4864L128.547 29.3164L128.547 29.3064Z" fill="#ECEDEB" stroke="#252526" stroke-width="0.5" stroke-linejoin="round"/>
<path d="M128.251 29.4102H131.651C131.734 29.4102 131.801 29.343 131.801 29.2602V28.4602C131.801 28.3773 131.734 28.3102 131.651 28.3102H128.251C128.168 28.3102 128.101 28.3773 128.101 28.4602V29.2602C128.101 29.343 128.168 29.4102 128.251 29.4102Z" fill="#A0A0A0" stroke="#252526" stroke-width="0.5" stroke-linejoin="round"/>
<path d="M98.0402 12.5977C90.5602 12.5977 84.4902 18.6677 84.4902 26.1477C84.4902 33.6277 90.5602 39.6977 98.0402 39.6977C105.52 39.6977 111.59 33.6277 111.59 26.1477C111.59 18.6677 105.52 12.5977 98.0402 12.5977ZM98.0402 37.3977C91.8302 37.3977 86.8002 32.3677 86.8002 26.1577C86.8002 19.9477 91.8302 14.9177 98.0402 14.9177C104.25 14.9177 109.28 19.9477 109.28 26.1577C109.28 32.3677 104.25 37.3977 98.0402 37.3977Z" fill="#383838" stroke="#252526" stroke-width="0.5" stroke-linejoin="round"/>
<path d="M141.091 12.5977C133.611 12.5977 127.541 18.6677 127.541 26.1477C127.541 33.6277 133.611 39.6977 141.091 39.6977C148.571 39.6977 154.641 33.6277 154.641 26.1477C154.641 18.6677 148.571 12.5977 141.091 12.5977ZM141.091 37.3977C134.881 37.3977 129.851 32.3677 129.851 26.1577C129.851 19.9477 134.881 14.9177 141.091 14.9177C147.301 14.9177 152.331 19.9477 152.331 26.1577C152.331 32.3677 147.301 37.3977 141.091 37.3977Z" fill="#383838" stroke="#252526" stroke-width="0.5" stroke-linejoin="round"/>
<path d="M130.32 1.38699C131.3 1.38699 133.11 1.38699 134.02 1.24699C134.93 1.10699 136.14 0.986987 136.26 1.24699C136.38 1.50699 136.43 1.69699 135.71 2.29699C134.99 2.89699 134.28 3.17699 133.97 3.41699C133.66 3.65699 131.75 3.87699 130.52 3.38699C129.29 2.89699 128.19 2.17699 127.81 2.15699C127.43 2.13699 126.38 2.40699 126.02 2.38699C125.66 2.36699 125.57 1.93699 126.02 1.67699C126.47 1.41699 129.48 1.39699 130.32 1.38699Z" fill="#9C8BDC" stroke="#252526" stroke-width="0.5" stroke-linejoin="round"/>
<path d="M125.211 27.8577C125.211 27.8577 139.141 26.2177 139.601 26.1477C140.061 26.0777 140.341 26.3577 140.371 26.5677C140.401 26.7777 140.291 27.0477 139.831 27.1977C139.371 27.3477 125.441 29.4377 125.441 29.4377L125.211 27.8477V27.8577Z" fill="#ECEDEB" stroke="#252526" stroke-width="0.5" stroke-linejoin="round"/>
<path d="M108.61 4.20859C108.61 4.20859 109.3 2.35859 109.37 2.09859C109.44 1.83859 109.35 1.78859 108.99 1.63859C108.63 1.48859 106.92 0.918594 106.56 0.758594C106.2 0.598594 105.32 0.298594 105.06 0.268594C104.8 0.238594 104.52 0.238594 104.11 0.268594C103.7 0.298594 103.09 0.348594 103.28 0.858594C103.47 1.36859 103.53 1.61859 103.76 1.53859C104.18 1.38859 104.88 1.36859 105.27 1.49859C105.58 1.60859 106.88 2.10859 107.16 2.22859C107.44 2.34859 107.5 2.37859 107.39 2.60859C107.28 2.83859 106.97 3.72859 106.97 3.72859L108.61 4.20859Z" fill="#7A7A79" stroke="#252526" stroke-width="0.5" stroke-linejoin="round"/>
<path d="M123.469 32.8097C125.645 32.8097 127.409 31.0457 127.409 28.8697C127.409 26.6937 125.645 24.9297 123.469 24.9297C121.293 24.9297 119.529 26.6937 119.529 28.8697C119.529 31.0457 121.293 32.8097 123.469 32.8097Z" fill="#ECEDEB" stroke="#252526" stroke-width="0.5" stroke-linejoin="round"/>
<path d="M141.331 25.8077C141.161 25.6077 130.841 14.4877 129.091 12.6077C130.421 8.10766 131.631 4.03766 131.631 4.03766C131.751 3.64766 131.791 3.65766 131.421 3.60766C131.141 3.57766 130.741 3.45766 130.451 3.34766C130.331 3.73766 128.641 9.32766 128.571 9.55766C128.491 9.78766 128.531 10.0177 128.111 9.86766C127.681 9.71766 108.831 4.95766 108.521 4.79766C108.521 4.79766 108.561 4.52766 108.611 4.19766C108.611 4.16766 106.771 3.66766 106.641 3.62766C106.491 3.58766 106.071 5.02766 105.811 5.71766C105.141 7.54766 104.411 9.52766 103.681 11.3377C102.831 13.4377 101.991 15.5377 101.141 17.6377C100.431 19.3977 99.721 21.1577 99.011 22.9177C98.691 23.7077 98.391 24.5177 98.041 25.2977C97.721 25.9977 97.531 26.4177 97.781 26.5577C97.981 26.6677 98.211 26.7977 98.551 26.1477C98.901 25.4977 105.981 11.8777 106.131 11.6077C106.281 11.3377 106.591 11.2977 106.871 11.6077C107.151 11.9177 117.861 27.5477 118.171 28.0877C118.481 28.6277 119.881 30.4877 119.881 30.4877C119.881 30.4877 119.281 29.2377 119.641 27.9277C120.001 26.6177 120.701 26.0577 120.701 26.0577C120.701 26.0577 109.931 10.2177 109.471 9.51766C109.011 8.81766 108.121 7.81766 108.081 7.27766C108.041 6.73766 108.571 6.42766 109.291 6.57766C110.011 6.72766 127.221 10.6377 127.611 10.7977C128.001 10.9477 128.111 10.9877 128.001 11.4177C127.881 11.8477 125.561 19.0377 125.491 19.2677C125.451 19.3777 125.451 19.4277 125.421 19.4777L123.661 24.9177C123.861 24.9177 124.031 24.9477 124.201 24.9777C124.731 25.0577 125.321 25.3677 125.321 25.3677C125.321 25.3677 126.721 20.6477 128.681 14.0177C130.491 15.8677 140.051 25.6477 140.531 26.1377C141.061 26.6877 141.221 26.5677 141.351 26.4877C141.471 26.4077 141.721 26.2277 141.351 25.7977L141.331 25.8077Z" fill="#ECEDEB" stroke="#252526" stroke-width="0.5" stroke-linejoin="round"/>
<path d="M98.04 29.1972C99.7189 29.1972 101.08 27.8361 101.08 26.1572C101.08 24.4782 99.7189 23.1172 98.04 23.1172C96.3611 23.1172 95 24.4782 95 26.1572C95 27.8361 96.3611 29.1972 98.04 29.1972Z" fill="#ECEDEB" stroke="#252526" stroke-width="0.5" stroke-linejoin="round"/>
<path d="M141.091 29.1972C142.77 29.1972 144.131 27.8361 144.131 26.1572C144.131 24.4782 142.77 23.1172 141.091 23.1172C139.412 23.1172 138.051 24.4782 138.051 26.1572C138.051 27.8361 139.412 29.1972 141.091 29.1972Z" fill="#ECEDEB" stroke="#252526" stroke-width="0.5" stroke-linejoin="round"/>
<path d="M118.381 28.4905L123.501 28.452C123.731 28.4503 123.912 28.629 123.914 28.859C123.916 29.0889 123.737 29.2703 123.507 29.272L118.387 29.3104L118.381 28.4805L118.381 28.4905Z" fill="#ECEDEB" stroke="#252526" stroke-width="0.5" stroke-linejoin="round"/>
<path d="M118.681 28.3203H115.281C115.198 28.3203 115.131 28.3875 115.131 28.4703V29.2703C115.131 29.3532 115.198 29.4203 115.281 29.4203H118.681C118.764 29.4203 118.831 29.3532 118.831 29.2703V28.4703C118.831 28.3875 118.764 28.3203 118.681 28.3203Z" fill="#A0A0A0" stroke="#252526" stroke-width="0.5" stroke-linejoin="round"/>
</g>
<defs>
<clipPath id="clip0_2230_197014">
<rect width="264.05" height="245.72" fill="white"/>
</clipPath>
</defs>
</svg>
