<svg width="253" height="243" viewBox="0 0 253 243" fill="none" xmlns="http://www.w3.org/2000/svg">
<g clip-path="url(#clip0_2230_191793)">
<path d="M179.939 97.6197C179.749 88.9597 179.028 76.4897 172.618 77.1397C167.848 77.6197 165.658 81.3997 163.398 86.4597C161.138 91.5196 158.889 102.51 156.209 120.52C153.529 138.53 153.709 156.36 155.079 164.88C156.459 173.4 157.649 175.48 158.579 177.1C159.509 178.72 164.209 179.76 166.749 178.28C169.279 176.8 173.238 165.77 174.508 159.47C175.778 153.17 177.459 139.61 178.349 132C179.349 123.42 180.118 105.52 179.948 97.6296L179.939 97.6197ZM175.079 125.31C174.539 132.02 172.608 146.76 171.588 152.24C170.568 157.72 169.049 166.02 167.189 168.21C165.329 170.4 164.168 168.78 163.728 166.97C163.288 165.15 161.869 153.04 161.499 140.88C161.129 128.71 164.009 107.16 165.459 101.05C166.919 94.9397 168.289 85.5497 173.519 86.2897C174.979 86.4997 175.908 94.3596 176.008 97.1397C176.298 105.17 175.618 118.61 175.088 125.32L175.079 125.31Z" fill="#383838" stroke="#252526" stroke-linejoin="round"/>
<path d="M116.119 97.0598C115.539 106.65 114.939 119.12 114.069 127.18C112.439 142.35 113.049 150.16 113.209 154.45C113.369 158.73 114.219 159.53 115.119 159.82C116.019 160.11 116.919 159.07 117.189 153.03C117.439 147.47 121.089 100.61 122.179 90.2598L116.109 97.0698L116.119 97.0598Z" fill="#ECEDEB" stroke="#252526" stroke-linecap="round" stroke-linejoin="round"/>
<path d="M41.1291 106.03C41.1291 106.03 54.4091 107.27 63.8191 102.33C73.2391 97.3999 77.7391 88.0899 91.0391 80.7899C104.329 73.4899 110.119 77.6199 122.009 75.8999C133.899 74.1799 139.749 70.2999 147.189 65.2599C154.629 60.2199 165.219 57.4999 171.879 56.8599L179.019 62.5899C179.019 62.5899 162.729 65.1799 153.499 71.4799C144.269 77.7799 141.289 81.5399 133.589 83.8699C125.889 86.1999 111.409 84.0299 105.259 86.7899C99.1091 89.5499 94.3491 91.5499 81.8591 104.22C69.3691 116.89 63.0691 123.2 37.5391 120.74L44.1291 115.7L39.9891 113.49L44.8791 111.45L41.1191 106.03H41.1291Z" fill="#6A51CA" stroke="#252526" stroke-linecap="round" stroke-linejoin="round"/>
<path d="M145.409 114.86C144.449 104.31 141.839 89.6498 138.449 83.3098C135.059 76.9698 128.729 72.3698 122.919 73.5398C111.529 75.8298 105.649 86.6498 101.039 99.2798C95.8895 113.4 90.4995 137.14 89.2795 153.47C88.0595 169.8 87.3195 186.56 90.7095 207.26C94.0995 227.97 99.2895 234.88 103.289 238.28C107.279 241.68 110.939 242.33 115.279 241.54C119.629 240.75 124.919 235.13 131.669 217.25C138.419 199.37 141.579 177.22 143.279 164.32C144.979 151.43 146.369 125.41 145.409 114.86ZM139.129 143.3C138.159 158.07 137.019 173.25 133.449 189.84C129.879 206.43 124.519 219.8 119.749 225.09C114.979 230.38 110.559 226.93 108.819 223.06C107.079 219.19 103.379 212.81 102.449 187.78C101.529 162.75 105.539 134.38 108.289 121.26C111.039 108.14 115.969 91.7298 126.189 90.2498C133.039 89.2598 135.109 101.26 136.519 109.32C137.939 117.38 140.089 128.53 139.119 143.3H139.129Z" fill="#383838" stroke="#252526" stroke-linejoin="round"/>
<path d="M211.275 7.38076L211.258 2.79078C211.255 1.84085 210.482 1.07362 209.532 1.0771L171.102 1.21796C170.152 1.22144 169.385 1.99431 169.389 2.94424L169.405 7.53422C169.409 8.48414 170.182 9.25138 171.132 9.2479L209.561 9.10705C210.511 9.10357 211.279 8.33068 211.275 7.38076Z" fill="#7A7A79" stroke="#252526" stroke-linecap="round" stroke-linejoin="round"/>
<path d="M101.122 7.02921L101.103 1.97925C101.1 1.15635 100.431 0.491703 99.6077 0.494719L71.6079 0.597344C70.785 0.60036 70.1203 1.26989 70.1233 2.09279L70.1418 7.14276C70.1449 7.96566 70.8144 8.6303 71.6373 8.62729L99.6371 8.52466C100.46 8.52165 101.125 7.85211 101.122 7.02921Z" fill="#7A7A79" stroke="#252526" stroke-linecap="round" stroke-linejoin="round"/>
<path d="M100.75 7.39993C100.75 7.39993 125.61 7.68993 136.59 8.20993C147.57 8.72993 169.95 8.25993 169.95 8.25993V2.93993C169.95 2.93993 148.73 0.999931 133.21 1.40993C117.69 1.81993 100.75 2.14993 100.75 2.14993V7.39993Z" fill="#ECEDEB" stroke="#252526" stroke-linecap="round" stroke-linejoin="round"/>
<path d="M128.318 73.9298C128.698 73.8398 129.558 73.6098 130.848 73.6898C133.088 73.8298 135.628 74.3398 138.418 75.8598C141.248 77.3998 140.978 82.2798 140.558 86.5398C140.188 90.3298 133.408 145.31 132.918 150.51C132.328 156.78 132.948 158.36 134.038 158.77C135.128 159.18 136.338 157.59 136.978 153.34C137.428 150.3 146.218 88.8198 146.978 81.3298C147.738 73.8398 141.658 64.1198 141.658 64.1198C141.658 64.1198 147.728 23.6698 147.738 20.8398C147.738 18.0098 147.188 16.3198 142.988 16.1398C138.798 15.9598 136.348 16.1698 135.898 17.7898C135.438 19.3998 134.278 25.1298 133.578 31.4398C132.878 37.7498 129.798 62.3898 129.798 62.3898C124.008 64.8298 121.228 69.5398 119.488 74.4298C119.488 74.4298 121.948 73.3698 125.218 73.3498C126.748 73.3498 128.338 73.9198 128.338 73.9198L128.318 73.9298Z" fill="#ECEDEB" stroke="#252526" stroke-linecap="round" stroke-linejoin="round"/>
<path d="M130.405 155.999C130.816 147.156 129.091 139.891 126.554 139.773C124.016 139.655 121.626 146.729 121.215 155.572C120.804 164.416 122.528 171.681 125.066 171.798C127.604 171.916 129.994 164.843 130.405 155.999Z" fill="#ECEDEB" stroke="#252526" stroke-linecap="round" stroke-linejoin="round"/>
<path d="M138.689 16.1999C138.909 11.0099 136.189 8.18994 136.189 8.18994L149.049 8.44994C149.049 8.44994 146.429 9.64994 145.229 16.4899L138.689 16.2099V16.1999Z" fill="#ECEDEB" stroke="#252526" stroke-linecap="round" stroke-linejoin="round"/>
<path d="M146.249 32.55C146.249 32.55 161.319 57.1 162.609 59.04C163.899 60.97 162.689 62.65 161.799 63.41C160.909 64.17 159.879 64.23 158.489 62.78C157.099 61.34 144.209 46.79 144.209 46.79L146.249 32.54V32.55Z" fill="#ECEDEB" stroke="#252526" stroke-linecap="round" stroke-linejoin="round"/>
<path d="M132.809 156.13L127.229 156.15" stroke="#252526" stroke-linecap="round" stroke-linejoin="round"/>
<path d="M121.279 155.96L115.529 155.97" stroke="#252526" stroke-linecap="round" stroke-linejoin="round"/>
<path d="M144.149 154.61C145.609 161.58 145.639 161.66 148.069 161.67C149.919 161.67 154.259 157.85 154.689 156.51C155.119 155.17 154.439 151.15 154.439 151.15L146.509 85.1499L142.549 114.03L144.149 154.61Z" fill="#ECEDEB" stroke="#252526" stroke-linecap="round" stroke-linejoin="round"/>
<path d="M163.95 23.0398C166.48 23.6998 169.23 24.4198 171.14 24.2398C173.05 24.0598 174.99 23.9698 176.03 25.6298C177.07 27.2998 176.01 30.0198 175.65 31.2798C175.29 32.5398 173.88 33.1298 172.17 33.3898C170.46 33.6498 168.42 33.8698 166.17 32.5698C163.91 31.2698 159.47 27.8598 158.23 26.4598C156.99 25.0598 155.76 23.1198 157.99 22.5998C160.22 22.0798 161.38 22.3598 163.96 23.0398H163.95Z" fill="#9C8BDC" stroke="#252526" stroke-linejoin="round"/>
<path d="M154.278 149.87C154.278 149.87 155.258 149.25 155.558 145.91C155.858 142.58 163.098 72.2797 163.628 66.6797C164.158 61.0797 167.178 33.0697 167.178 33.0697L162.928 30.4097L159.698 54.4097L158.468 62.7797L150.988 122.57L154.268 149.87" fill="#ECEDEB"/>
<path d="M154.278 149.87C154.278 149.87 155.258 149.25 155.558 145.91C155.858 142.58 163.098 72.2797 163.628 66.6797C164.158 61.0797 167.178 33.0697 167.178 33.0697L162.928 30.4097L159.698 54.4097L158.468 62.7797L150.988 122.57L154.268 149.87" stroke="#252526" stroke-linecap="round" stroke-linejoin="round"/>
<path d="M154.64 93.4899C154.64 93.4899 153.51 85.4699 153.5 84.2999C153.49 83.1299 156.47 78.8499 156.47 78.8499L157.24 72.6699C157.24 72.6699 152.23 79.8499 150.96 82.9299C150.34 84.4199 151.03 87.1999 151.47 90.7699C152.23 96.8499 153.29 104.22 153.29 104.22L154.63 93.4899H154.64Z" fill="#ECEDEB" stroke="#252526" stroke-linecap="round" stroke-linejoin="round"/>
<path d="M173.208 131.35C173.348 130.45 173.438 129.49 173.488 128.48C173.708 123.8 172.788 119.96 171.448 119.9C170.108 119.84 168.838 123.58 168.618 128.26C168.488 131.04 168.758 133.52 169.288 135.09C170.728 133.73 172.078 132.44 173.208 131.36V131.35Z" fill="#ECEDEB" stroke="#252526" stroke-linecap="round" stroke-linejoin="round"/>
<path d="M163.169 115.69C163.169 115.69 164.119 124.89 164.129 127.03C164.129 129.17 163.739 129.26 163.129 129.24C162.519 129.22 162.049 127.2 162.049 127.2L163.169 115.68V115.69Z" fill="#ECEDEB" stroke="#252526" stroke-linecap="round" stroke-linejoin="round"/>
<path d="M165.208 145.76C165.208 145.76 177.108 131.26 178.478 129.59C180.548 127.08 180.808 126.25 180.448 124.28C180.098 122.31 173.828 91.8398 173.228 88.3898C172.628 84.9398 171.698 84.0098 170.768 82.6498C169.838 81.2898 163.168 71.2998 163.168 71.2998L162.548 77.4498C162.548 77.4498 168.568 85.0998 169.068 85.9198C169.568 86.7398 177.558 122.97 178.058 124.66C178.558 126.35 177.238 127.33 176.118 128.52C174.998 129.72 158.318 145.46 158.318 145.46L165.208 145.76Z" fill="#ECEDEB" stroke="#252526" stroke-linecap="round" stroke-linejoin="round"/>
<path d="M163.398 126.89L168.708 126.99" stroke="#252526" stroke-linecap="round" stroke-linejoin="round"/>
<path d="M171.59 127.19L177.43 127.14" stroke="#252526" stroke-linecap="round" stroke-linejoin="round"/>
<path d="M155.599 145.57L163.289 145.26L161.199 149.71L154.289 149.87L155.599 145.57Z" fill="#ECEDEB" stroke="#252526" stroke-linecap="round" stroke-linejoin="round"/>
<path d="M164.639 155.92C164.639 155.92 161.589 155.59 160.629 155.4C159.669 155.21 159.959 153.29 160.329 152.24C160.699 151.19 161.919 147.55 161.919 147.55C162.649 145.41 162.939 144.83 164.259 145.21C165.579 145.59 165.819 146.59 165.309 147.97C164.799 149.35 164.019 151.24 164.019 151.24L165.539 151.4L164.629 155.91L164.639 155.92Z" fill="#ECEDEB" stroke="#252526" stroke-linecap="round" stroke-linejoin="round"/>
<path d="M176.479 158.13C176.479 158.13 178.259 156.84 179.499 155.55C180.409 154.61 181.609 153.52 181.559 152.78C181.519 152.17 180.939 149.28 180.939 149.28L176.059 154.29L176.469 158.13H176.479Z" fill="#ECEDEB" stroke="#252526" stroke-linecap="round" stroke-linejoin="round"/>
<path d="M176.068 154.28C176.068 154.28 176.628 155.76 176.658 156.49C176.718 158 176.778 158.18 176.208 158.13C175.638 158.08 167.648 157.53 165.948 157.33C164.978 157.22 164.908 157.13 164.768 156.46C164.638 155.84 164.318 153.23 164.318 153.23L176.068 154.28Z" fill="#ECEDEB" stroke="#252526" stroke-linecap="round" stroke-linejoin="round"/>
<path d="M168.76 148.92C170.63 148.77 177.73 148.92 179.74 149.04C181.23 149.12 181.53 149.03 179.55 151.04C177.75 152.88 176.83 154.28 175.32 154.37C173.81 154.46 165.55 153.67 164.71 153.46C163.87 153.25 164.32 152.66 165.32 151.61C166.3 150.59 168.21 148.96 168.74 148.92H168.76Z" fill="#ECEDEB" stroke="#252526" stroke-linecap="round" stroke-linejoin="round"/>
<path d="M251.67 65.0901V76.4501C251.67 76.4501 241.22 74.1601 233.32 81.9601C225.42 89.7601 224 98.3101 207.06 100.24C190.12 102.17 177.84 95.8601 170.51 107.33C163.18 118.8 187.86 126.52 187.86 126.52L178.07 127.76L183.06 133.75L177.5 133.9L183.34 144.53C183.34 144.53 169.44 142.67 158.32 128.92C147.21 115.17 156.35 102.83 160.68 98.8901C167.19 92.9601 179.02 90.2501 186.63 91.5601C192.69 92.6001 207.34 97.3801 217.5 85.8101C227.66 74.2301 233.5 62.6601 251.66 65.1001L251.67 65.0901Z" fill="#6A51CA" stroke="#252526" stroke-linecap="round" stroke-linejoin="round"/>
<path d="M21.5508 78.8501L27.2008 77.1401L31.1508 88.4501L26.3508 89.5201L21.5508 78.8501Z" fill="#6A51CA" stroke="#252526" stroke-linecap="round" stroke-linejoin="round"/>
<path d="M14.9004 135.31L24.6904 143.19L28.5704 139.29L19.9304 131.13L14.9004 135.31Z" fill="#6A51CA" stroke="#252526" stroke-linecap="round" stroke-linejoin="round"/>
<path d="M198.311 148.21L209.221 148.87L207.341 153.62L198.311 152.69V148.21Z" fill="#6A51CA" stroke="#252526" stroke-linecap="round" stroke-linejoin="round"/>
<path d="M195.289 128.92L200.559 123.62L202.349 128.92L195.289 133.75V128.92Z" fill="#6A51CA" stroke="#252526" stroke-linecap="round" stroke-linejoin="round"/>
<path d="M209.221 136.06L218.641 138.19L213.931 142.95L209.221 140.29V136.06Z" fill="#6A51CA" stroke="#252526" stroke-linecap="round" stroke-linejoin="round"/>
<path d="M0.5 113.32L8.41 102.35L11.85 106.04L4.94 116.04L0.5 113.32Z" fill="#6A51CA" stroke="#252526" stroke-linecap="round" stroke-linejoin="round"/>
</g>
<defs>
<clipPath id="clip0_2230_191793">
<rect width="252.17" height="242.34" fill="white"/>
</clipPath>
</defs>
</svg>
