<svg width="280" height="158" viewBox="0 0 280 158" fill="none" xmlns="http://www.w3.org/2000/svg">
<g clip-path="url(#clip0_3890_227197)">
<path d="M175.409 115.9L155.089 115.748C154.189 115.741 153.455 115.006 153.462 114.096C153.469 113.196 154.204 112.461 155.114 112.468L175.433 112.62L175.409 115.9Z" fill="#ECEDEB" stroke="#252526" stroke-linejoin="round"/>
<path d="M174.26 116.279H187.71C188.047 116.279 188.32 116.006 188.32 115.669V112.539C188.32 112.202 188.047 111.929 187.71 111.929H174.26C173.923 111.929 173.65 112.202 173.65 112.539V115.669C173.65 116.006 173.923 116.279 174.26 116.279Z" fill="#A0A0A0" stroke="#252526" stroke-linejoin="round"/>
<path d="M54.3 49.5391C24.59 49.5391 0.5 73.6291 0.5 103.339C0.5 133.049 24.59 157.139 54.3 157.139C84.01 157.139 108.1 133.049 108.1 103.339C108.1 73.6291 84.01 49.5391 54.3 49.5391ZM54.3 147.969C29.65 147.969 9.66 127.989 9.66 103.329C9.66 78.6691 29.65 58.6991 54.3 58.6991C78.95 58.6991 98.94 78.6791 98.94 103.339C98.94 127.999 78.96 147.979 54.3 147.979V147.969Z" fill="#383838" stroke="#252526" stroke-linejoin="round"/>
<path d="M225.19 49.5391C195.48 49.5391 171.39 73.6291 171.39 103.339C171.39 133.049 195.48 157.139 225.19 157.139C254.9 157.139 278.99 133.049 278.99 103.339C278.99 73.6291 254.9 49.5391 225.19 49.5391ZM225.19 147.969C200.54 147.969 180.55 127.989 180.55 103.329C180.55 78.6691 200.53 58.6891 225.19 58.6891C249.85 58.6891 269.83 78.6691 269.83 103.329C269.83 127.989 249.85 147.969 225.19 147.969Z" fill="#383838" stroke="#252526" stroke-linejoin="round"/>
<path d="M182.46 5.01814C186.35 5.01814 193.55 5.01814 197.15 4.44814C200.75 3.87814 205.58 3.40814 206.06 4.44814C206.54 5.48814 206.72 6.24814 203.88 8.61814C201.04 10.9881 198.19 12.1281 196.96 13.0681C195.73 14.0181 188.15 14.8981 183.27 12.9381C178.38 10.9781 174.03 8.13814 172.51 8.04814C170.99 7.95814 166.82 9.03814 165.4 8.96814C163.98 8.89814 163.6 7.18814 165.4 6.14814C167.2 5.10814 179.14 5.01814 182.46 5.00814V5.01814Z" fill="#9C8BDC" stroke="#252526" stroke-linejoin="round"/>
<path d="M162.14 110.119C162.14 110.119 217.42 103.619 219.27 103.339C221.12 103.059 222.19 104.179 222.34 104.999C222.49 105.819 222.03 106.889 220.19 107.509C218.35 108.129 163.06 116.419 163.06 116.419L162.14 110.119Z" fill="#ECEDEB" stroke="#252526" stroke-linejoin="round"/>
<path d="M96.25 16.229C96.25 16.229 98.97 8.86903 99.28 7.83903C99.59 6.80903 99.22 6.60903 97.76 5.99903C96.3 5.38903 89.55 3.12903 88.12 2.51903C86.69 1.90903 83.21 0.679029 82.18 0.569029C81.15 0.459029 80.03 0.469029 78.39 0.569029C76.75 0.669029 74.33 0.879029 75.08 2.91903C75.83 4.96903 76.05 5.93903 76.98 5.60903C78.66 4.99903 81.43 4.91903 82.97 5.44903C84.19 5.86903 89.34 7.85903 90.47 8.35903C91.6 8.85903 91.8 8.96903 91.39 9.88903C90.98 10.809 89.74 14.339 89.74 14.339L96.24 16.229H96.25Z" fill="#7A7A79" stroke="#252526" stroke-linejoin="round"/>
<path d="M155.24 129.749C163.883 129.749 170.89 122.742 170.89 114.099C170.89 105.456 163.883 98.4492 155.24 98.4492C146.597 98.4492 139.59 105.456 139.59 114.099C139.59 122.742 146.597 129.749 155.24 129.749Z" fill="#ECEDEB" stroke="#252526" stroke-linejoin="round"/>
<path d="M226.17 101.968C225.48 101.178 184.53 57.0481 177.58 49.5581C182.88 31.6781 187.67 15.5581 187.67 15.5581C188.13 14.0181 188.31 14.0281 186.83 13.8581C185.72 13.7281 184.15 13.2581 182.99 12.8281C182.53 14.3681 175.82 36.5581 175.52 37.4781C175.21 38.3981 175.37 39.3181 173.68 38.7081C171.99 38.0981 97.15 19.2081 95.92 18.5881C95.92 18.5881 96.09 17.5381 96.27 16.2281C96.29 16.1181 88.97 14.1181 88.45 13.9881C87.87 13.8381 86.18 19.5481 85.17 22.2781C82.5 29.5381 79.6 37.4181 76.71 44.5981C73.35 52.9281 69.99 61.2581 66.63 69.5881C63.81 76.5781 60.99 83.5681 58.16 90.5481C56.89 93.6881 55.72 96.8981 54.31 99.9781C53.05 102.738 52.28 104.428 53.28 104.968C54.07 105.388 54.97 105.918 56.35 103.328C57.73 100.748 85.83 46.6881 86.45 45.6181C87.06 44.5381 88.29 44.3881 89.37 45.6181C90.44 46.8481 132.98 108.888 134.21 111.038C135.44 113.188 141.01 120.578 141.01 120.578C141.01 120.578 138.61 115.628 140.04 110.418C141.47 105.198 144.24 102.978 144.24 102.978C144.24 102.978 101.49 40.0881 99.65 37.3281C97.81 34.5681 94.28 30.5681 94.12 28.4181C93.96 26.2681 96.08 25.0381 98.94 25.6581C101.8 26.2681 170.13 41.7781 171.67 42.3981C173.21 43.0081 173.67 43.1681 173.21 44.8581C172.75 46.5481 163.54 75.1081 163.23 76.0281C163.08 76.4781 163.07 76.6681 162.95 76.8781L155.95 98.4781C156.73 98.5181 157.43 98.6081 158.11 98.7181C160.21 99.0281 162.57 100.268 162.57 100.268C162.57 100.268 168.12 81.5481 175.92 55.2081C183.1 62.5481 221.04 101.368 222.95 103.338C225.05 105.518 225.7 105.048 226.19 104.718C226.68 104.398 227.66 103.668 226.19 101.968H226.17Z" fill="#ECEDEB" stroke="#252526" stroke-linejoin="round"/>
<path d="M54.3 115.389C60.955 115.389 66.35 109.994 66.35 103.339C66.35 96.684 60.955 91.2891 54.3 91.2891C47.645 91.2891 42.25 96.684 42.25 103.339C42.25 109.994 47.645 115.389 54.3 115.389Z" fill="#ECEDEB" stroke="#252526" stroke-linejoin="round"/>
<path d="M225.19 115.389C231.845 115.389 237.24 109.994 237.24 103.339C237.24 96.684 231.845 91.2891 225.19 91.2891C218.535 91.2891 213.14 96.684 213.14 103.339C213.14 109.994 218.535 115.389 225.19 115.389Z" fill="#ECEDEB" stroke="#252526" stroke-linejoin="round"/>
<path d="M135.051 112.613L155.37 112.461C156.27 112.454 157.016 113.178 157.023 114.088C157.029 114.988 156.305 115.734 155.395 115.741L135.075 115.893L135.051 112.613Z" fill="#ECEDEB" stroke="#252526" stroke-linejoin="round"/>
<path d="M136.22 111.92H122.77C122.433 111.92 122.16 112.193 122.16 112.53V115.66C122.16 115.997 122.433 116.27 122.77 116.27H136.22C136.557 116.27 136.83 115.997 136.83 115.66V112.53C136.83 112.193 136.557 111.92 136.22 111.92Z" fill="#A0A0A0" stroke="#252526" stroke-linejoin="round"/>
<path d="M133.83 61.241V78.5009C133.83 81.791 135.47 83.0209 140 85.4909C144.52 87.9609 153.15 94.5309 157.26 96.181C161.37 97.8209 161.16 92.8909 161.16 86.3109C161.16 79.7309 162.19 78.091 156.43 74.3909C150.68 70.6909 147.39 69.461 142.87 66.581C138.35 63.701 133.83 57.951 133.83 61.241Z" fill="#D4D4D4" stroke="#252526" stroke-linejoin="round"/>
<path d="M137.01 56.3006C140.32 52.5306 160.03 32.2506 162.08 29.9906C164.13 27.7306 165.16 26.5006 168.25 27.7306C171.33 28.9606 189.83 40.1906 192.91 41.7706C195.99 43.3506 196.4 46.2306 192.91 49.3106C189.42 52.3906 171.54 69.8606 168.25 73.5606C164.96 77.2606 163.57 81.8606 161.13 79.6006C158.69 77.3406 139.98 64.8806 137.01 63.2106C134.04 61.5406 132.21 61.7806 137.01 56.3006Z" fill="#C4C4C5" stroke="#252526" stroke-linejoin="round"/>
<path d="M147.53 75.5197C147.32 70.5397 147.14 69.0597 149.38 70.2797C151.62 71.4997 181.82 91.8597 185.98 94.0197C190.14 96.1797 202.17 102.34 202.17 104.5C202.17 106.66 202.02 115.29 202.17 117.91C202.32 120.53 203.54 127.79 201.8 126.46C199.68 124.85 174.83 109.72 171.49 107.42C168.15 105.12 152.52 95.8397 150.98 94.7497C149.44 93.6597 149.42 94.0497 148.97 91.2597C148.52 88.4697 147.66 78.6497 147.53 75.5097V75.5197Z" fill="#B5A8E4" stroke="#252526" stroke-linejoin="round"/>
<path d="M202.16 104.501C202.26 106.041 202.03 112.361 202.1 115.131C202.17 117.901 202 122.991 202.08 125.001C202.16 127.011 202.32 127.931 204.48 126.541C206.64 125.151 227.29 99.4307 229.45 96.4907C231.61 93.5507 236.71 88.0007 236.69 85.8407C236.66 81.3707 236.35 67.3107 236.35 65.3107C236.35 63.3107 234.66 65.7807 232.99 68.0007C231.32 70.2207 202.01 102.181 202.16 104.491V104.501Z" fill="#9C8BDC" stroke="#252526" stroke-linejoin="round"/>
<path d="M156.77 76.3398C154.2 74.5598 149.88 71.5998 148.8 70.8698C147.72 70.1398 147.44 69.1998 150.37 65.0398C153.3 60.8798 171.95 41.6098 173.8 39.7598C175.65 37.9098 179.97 32.0498 182.43 33.2898C184.89 34.5298 206.28 46.2098 210.02 48.5498C213.97 51.0198 226.79 58.1998 229.9 60.2598C233.35 62.5398 237.24 64.1998 236.16 65.5898C235.08 66.9798 220.59 84.4098 215.26 90.3298C211.54 94.4598 202.16 103.43 202.16 104.51C202.16 105.59 188.34 96.3598 185.2 94.7998C180.27 92.3298 159.36 78.1498 156.76 76.3498L156.77 76.3398Z" fill="#836ED3" stroke="#252526" stroke-linejoin="round"/>
</g>
<defs>
<clipPath id="clip0_3890_227197">
<rect width="279.49" height="157.64" fill="white"/>
</clipPath>
</defs>
</svg>
