<svg width="280" height="158" viewBox="0 0 280 158" fill="none" xmlns="http://www.w3.org/2000/svg">
<g clip-path="url(#clip0_3890_227140)">
<path d="M175.409 115.9L155.089 115.748C154.189 115.741 153.455 115.006 153.462 114.096C153.469 113.196 154.204 112.461 155.114 112.468L175.433 112.62L175.409 115.9Z" fill="#ECEDEB" stroke="#252526" stroke-linejoin="round"/>
<path d="M174.26 116.279H187.71C188.047 116.279 188.32 116.006 188.32 115.669V112.539C188.32 112.202 188.047 111.929 187.71 111.929H174.26C173.923 111.929 173.65 112.202 173.65 112.539V115.669C173.65 116.006 173.923 116.279 174.26 116.279Z" fill="#A0A0A0" stroke="#252526" stroke-linejoin="round"/>
<path d="M54.3 49.5391C24.59 49.5391 0.5 73.6291 0.5 103.339C0.5 133.049 24.59 157.139 54.3 157.139C84.01 157.139 108.1 133.049 108.1 103.339C108.1 73.6291 84.01 49.5391 54.3 49.5391ZM54.3 147.969C29.65 147.969 9.66 127.989 9.66 103.329C9.66 78.6691 29.65 58.6991 54.3 58.6991C78.95 58.6991 98.94 78.6791 98.94 103.339C98.94 127.999 78.96 147.979 54.3 147.979V147.969Z" fill="#383838" stroke="#252526" stroke-linejoin="round"/>
<path d="M225.19 49.5391C195.48 49.5391 171.39 73.6291 171.39 103.339C171.39 133.049 195.48 157.139 225.19 157.139C254.9 157.139 278.99 133.049 278.99 103.339C278.99 73.6291 254.9 49.5391 225.19 49.5391ZM225.19 147.969C200.54 147.969 180.55 127.989 180.55 103.329C180.55 78.6691 200.53 58.6891 225.19 58.6891C249.85 58.6891 269.83 78.6691 269.83 103.329C269.83 127.989 249.85 147.969 225.19 147.969Z" fill="#383838" stroke="#252526" stroke-linejoin="round"/>
<path d="M182.46 5.01814C186.35 5.01814 193.55 5.01814 197.15 4.44814C200.75 3.87814 205.58 3.40814 206.06 4.44814C206.54 5.48814 206.72 6.24814 203.88 8.61814C201.04 10.9881 198.19 12.1281 196.96 13.0681C195.73 14.0181 188.15 14.8981 183.27 12.9381C178.38 10.9781 174.03 8.13814 172.51 8.04814C170.99 7.95814 166.82 9.03814 165.4 8.96814C163.98 8.89814 163.6 7.18814 165.4 6.14814C167.2 5.10814 179.14 5.01814 182.46 5.00814V5.01814Z" fill="#9C8BDC" stroke="#252526" stroke-linejoin="round"/>
<path d="M162.14 110.119C162.14 110.119 217.42 103.619 219.27 103.339C221.12 103.059 222.19 104.179 222.34 104.999C222.49 105.819 222.03 106.889 220.19 107.509C218.35 108.129 163.06 116.419 163.06 116.419L162.14 110.119Z" fill="#ECEDEB" stroke="#252526" stroke-linejoin="round"/>
<path d="M96.25 16.229C96.25 16.229 98.97 8.86903 99.28 7.83903C99.59 6.80903 99.22 6.60903 97.76 5.99903C96.3 5.38903 89.55 3.12903 88.12 2.51903C86.69 1.90903 83.21 0.679029 82.18 0.569029C81.15 0.459029 80.03 0.469029 78.39 0.569029C76.75 0.669029 74.33 0.879029 75.08 2.91903C75.83 4.96903 76.05 5.93903 76.98 5.60903C78.66 4.99903 81.43 4.91903 82.97 5.44903C84.19 5.86903 89.34 7.85903 90.47 8.35903C91.6 8.85903 91.8 8.96903 91.39 9.88903C90.98 10.809 89.74 14.339 89.74 14.339L96.24 16.229H96.25Z" fill="#7A7A79" stroke="#252526" stroke-linejoin="round"/>
<path d="M155.24 129.749C163.883 129.749 170.89 122.742 170.89 114.099C170.89 105.456 163.883 98.4492 155.24 98.4492C146.597 98.4492 139.59 105.456 139.59 114.099C139.59 122.742 146.597 129.749 155.24 129.749Z" fill="#ECEDEB" stroke="#252526" stroke-linejoin="round"/>
<path d="M226.17 101.968C225.48 101.178 184.53 57.0481 177.58 49.5581C182.88 31.6781 187.67 15.5581 187.67 15.5581C188.13 14.0181 188.31 14.0281 186.83 13.8581C185.72 13.7281 184.15 13.2581 182.99 12.8281C182.53 14.3681 175.82 36.5581 175.52 37.4781C175.21 38.3981 175.37 39.3181 173.68 38.7081C171.99 38.0981 97.15 19.2081 95.92 18.5881C95.92 18.5881 96.09 17.5381 96.27 16.2281C96.29 16.1181 88.97 14.1181 88.45 13.9881C87.87 13.8381 86.18 19.5481 85.17 22.2781C82.5 29.5381 79.6 37.4181 76.71 44.5981C73.35 52.9281 69.99 61.2581 66.63 69.5881C63.81 76.5781 60.99 83.5681 58.16 90.5481C56.89 93.6881 55.72 96.8981 54.31 99.9781C53.05 102.738 52.28 104.428 53.28 104.968C54.07 105.388 54.97 105.918 56.35 103.328C57.73 100.748 85.83 46.6881 86.45 45.6181C87.06 44.5381 88.29 44.3881 89.37 45.6181C90.44 46.8481 132.98 108.888 134.21 111.038C135.44 113.188 141.01 120.578 141.01 120.578C141.01 120.578 138.61 115.628 140.04 110.418C141.47 105.198 144.24 102.978 144.24 102.978C144.24 102.978 101.49 40.0881 99.65 37.3281C97.81 34.5681 94.28 30.5681 94.12 28.4181C93.96 26.2681 96.08 25.0381 98.94 25.6581C101.8 26.2681 170.13 41.7781 171.67 42.3981C173.21 43.0081 173.67 43.1681 173.21 44.8581C172.75 46.5481 163.54 75.1081 163.23 76.0281C163.08 76.4781 163.07 76.6681 162.95 76.8781L155.95 98.4781C156.73 98.5181 157.43 98.6081 158.11 98.7181C160.21 99.0281 162.57 100.268 162.57 100.268C162.57 100.268 168.12 81.5481 175.92 55.2081C183.1 62.5481 221.04 101.368 222.95 103.338C225.05 105.518 225.7 105.048 226.19 104.718C226.68 104.398 227.66 103.668 226.19 101.968H226.17Z" fill="#ECEDEB" stroke="#252526" stroke-linejoin="round"/>
<path d="M54.3 115.389C60.955 115.389 66.35 109.994 66.35 103.339C66.35 96.684 60.955 91.2891 54.3 91.2891C47.645 91.2891 42.25 96.684 42.25 103.339C42.25 109.994 47.645 115.389 54.3 115.389Z" fill="#ECEDEB" stroke="#252526" stroke-linejoin="round"/>
<path d="M225.19 115.389C231.845 115.389 237.24 109.994 237.24 103.339C237.24 96.684 231.845 91.2891 225.19 91.2891C218.535 91.2891 213.14 96.684 213.14 103.339C213.14 109.994 218.535 115.389 225.19 115.389Z" fill="#ECEDEB" stroke="#252526" stroke-linejoin="round"/>
<path d="M135.051 112.613L155.37 112.461C156.27 112.454 157.016 113.178 157.023 114.088C157.029 114.988 156.305 115.734 155.395 115.741L135.075 115.893L135.051 112.613Z" fill="#ECEDEB" stroke="#252526" stroke-linejoin="round"/>
<path d="M136.22 111.92H122.77C122.433 111.92 122.16 112.193 122.16 112.53V115.66C122.16 115.997 122.433 116.27 122.77 116.27H136.22C136.557 116.27 136.83 115.997 136.83 115.66V112.53C136.83 112.193 136.557 111.92 136.22 111.92Z" fill="#A0A0A0" stroke="#252526" stroke-linejoin="round"/>
<path d="M185.68 80.9597C183.1 82.1697 170.82 89.4397 168.77 91.7997C166.72 94.1597 165.61 96.1997 165.61 96.1997C165.61 96.1997 161.82 94.1597 158.34 89.5997C154.86 85.0397 149.49 74.3597 146.96 69.6497C144.43 64.9397 138.27 57.2397 136.84 56.1397C136.84 56.1397 137 54.4097 144.11 49.0697C151.22 43.7297 156.97 40.8997 165.93 36.4997C175.89 31.5997 179.56 27.6797 179.56 27.6797C179.56 27.6797 182.03 29.5497 185.46 34.8397C188.36 39.2897 191.53 47.3197 193.43 50.4797C195.33 53.6397 198.8 62.4297 205.6 66.6697C205.6 66.6697 200.38 74.0497 185.68 80.9697V80.9597Z" fill="#6A51CA" stroke="#252526" stroke-linecap="round" stroke-linejoin="round"/>
<path d="M200.17 105.74C200.17 105.74 189.63 94.1496 185.72 91.5896C181.81 89.0296 179.7 86.9196 176.69 86.3196C173.68 85.7196 172.93 86.0196 170.07 83.9096C167.21 81.7996 165.25 80.4496 164.05 78.6396C162.85 76.8296 161.79 74.1196 159.99 72.3196C158.19 70.5196 156.23 67.9596 157.43 66.7496C158.63 65.5396 161.16 66.6496 162.06 67.8596C162.96 69.0696 165.05 71.7096 165.76 72.5196C166.28 73.1096 167.11 74.0796 167.84 74.5996C168.48 72.1996 168.09 67.5896 167.38 66.1496C166.67 64.7096 164.53 61.0496 163.52 58.8096C162.51 56.5696 160.88 52.9196 161.08 51.1896C161.28 49.4596 163.09 49.1896 164.14 50.4696C164.73 51.1896 166.57 55.0496 167.18 56.0696C167.79 57.0896 169.82 60.9496 170.53 62.2696C171.24 63.5896 172.97 65.6196 171.34 62.2696C169.71 58.9196 168.49 57.0096 167.78 54.9196C167.07 52.8296 166 50.4696 165.44 49.1896C164.88 47.9096 164.67 46.4696 165.68 45.9896C167.07 45.3396 168.4 47.0296 169.2 48.5496C170 50.0696 171.25 52.8596 171.68 53.6596C172.33 54.8696 172.74 55.8696 173.35 56.9496C173.85 57.8296 175.6 60.9396 176.32 61.6496C177.04 62.3596 175.07 57.2596 174.67 55.8996C174.27 54.5396 173.68 52.2996 173.28 51.0996C172.88 49.8996 172 46.8096 172.8 45.9196C173.6 45.0296 175.03 45.7496 175.75 47.1896C176.47 48.6296 177.14 51.9696 177.66 53.5396C178.1 54.8496 178.71 56.4596 179.27 57.7396C179.83 59.0196 181.11 62.2096 181.83 62.6896C182.21 62.9396 182.22 62.4596 182.1 61.3596C181.99 60.3496 181.91 58.6696 181.64 57.2196C181.08 54.1796 180.33 52.0596 180.57 50.8596C180.81 49.6596 182.2 49.2396 183.13 50.7496C183.72 51.7096 184.3 54.1196 184.54 55.3396C184.78 56.5596 185.12 58.9196 185.28 59.8796C185.44 60.8396 185.57 62.2396 186.45 63.5896C187.33 64.9396 188.95 67.5596 189.51 69.6396C190.07 71.7196 190.71 76.2596 190.71 77.6996C191.19 77.9996 191.81 78.4496 192.55 79.1496C194.07 80.5896 203.02 86.8996 205.65 88.3396C208.29 89.7796 210.92 90.8996 210.92 90.8996" fill="#ECEDEB"/>
<path d="M200.17 105.739C200.17 105.739 189.63 94.1492 185.72 91.5892C181.81 89.0292 179.7 86.9192 176.69 86.3192C173.68 85.7192 172.93 86.0193 170.07 83.9093C167.21 81.7993 165.25 80.4492 164.05 78.6392C162.85 76.8292 161.79 74.1192 159.99 72.3192C158.19 70.5192 156.23 67.9592 157.43 66.7492C158.63 65.5392 161.16 66.6492 162.06 67.8592C162.96 69.0692 165.05 71.7092 165.76 72.5192C166.47 73.3292 167.78 74.8792 168.61 74.9292" stroke="#252526" stroke-width="0.75" stroke-linecap="round" stroke-linejoin="round"/>
<path d="M167.85 74.5996C168.49 72.1996 168.1 67.5996 167.39 66.1496C166.68 64.6996 164.54 61.0496 163.53 58.8096C162.52 56.5696 160.89 52.9196 161.09 51.1896C161.29 49.4596 163.1 49.1896 164.15 50.4696C164.74 51.1896 166.58 55.0496 167.19 56.0696C167.8 57.0896 169.83 60.9496 170.54 62.2696C171.25 63.5896 172.98 65.6196 171.35 62.2696C169.72 58.9196 168.5 57.0096 167.79 54.9196C167.08 52.8296 166.01 50.4696 165.45 49.1896C164.89 47.9096 164.68 46.4696 165.69 45.9896C167.08 45.3396 168.41 47.0296 169.21 48.5496C170.01 50.0696 171.26 52.8596 171.69 53.6596C172.34 54.8696 172.75 55.8696 173.36 56.9496C173.86 57.8296 175.61 60.9396 176.33 61.6496C177.05 62.3596 175.08 57.2596 174.68 55.8996C174.28 54.5396 173.69 52.2996 173.29 51.0996C172.89 49.8996 172.01 46.8096 172.81 45.9196C173.61 45.0296 175.04 45.7496 175.76 47.1896C176.48 48.6296 177.15 51.9696 177.67 53.5396C178.11 54.8496 178.72 56.4596 179.28 57.7396C179.84 59.0196 181.12 62.2096 181.84 62.6896C182.22 62.9396 182.23 62.4596 182.11 61.3596C182 60.3496 181.92 58.6696 181.65 57.2196C181.09 54.1796 180.34 52.0596 180.58 50.8596C180.82 49.6596 182.21 49.2396 183.14 50.7496C183.73 51.7096 184.31 54.1196 184.55 55.3396C184.79 56.5596 185.13 58.9196 185.29 59.8796C185.45 60.8396 185.58 62.2396 186.46 63.5896C187.34 64.9396 188.96 67.5596 189.52 69.6396C190.08 71.7196 190.72 76.2996 190.72 77.7396" stroke="#252526" stroke-width="0.75" stroke-linecap="round" stroke-linejoin="round"/>
<path d="M189.84 77.2305C189.84 77.2305 191.02 77.7105 192.54 79.1505C194.06 80.5905 203.01 86.9005 205.64 88.3405C208.28 89.7805 210.91 90.9005 210.91 90.9005" stroke="#252526" stroke-width="0.75" stroke-linecap="round" stroke-linejoin="round"/>
</g>
<defs>
<clipPath id="clip0_3890_227140">
<rect width="279.49" height="157.64" fill="white"/>
</clipPath>
</defs>
</svg>
