<svg width="258" height="258" viewBox="0 0 258 258" fill="none" xmlns="http://www.w3.org/2000/svg">
<g clip-path="url(#clip0_2230_193764)">
<path d="M128.869 232.04C185.848 232.04 232.039 185.849 232.039 128.87C232.039 71.8907 185.848 25.7 128.869 25.7C71.89 25.7 25.6992 71.8907 25.6992 128.87C25.6992 185.849 71.89 232.04 128.869 232.04Z" fill="#6A51CA"/>
<path d="M128.869 8C131.078 8 132.869 6.20914 132.869 4C132.869 1.79086 131.078 0 128.869 0C126.66 0 124.869 1.79086 124.869 4C124.869 6.20914 126.66 8 128.869 8Z" fill="#6A51CA"/>
<path d="M128.869 257.74C131.078 257.74 132.869 255.949 132.869 253.74C132.869 251.531 131.078 249.74 128.869 249.74C126.66 249.74 124.869 251.531 124.869 253.74C124.869 255.949 126.66 257.74 128.869 257.74Z" fill="#6A51CA"/>
<path d="M253.74 132.87C255.949 132.87 257.74 131.079 257.74 128.87C257.74 126.661 255.949 124.87 253.74 124.87C251.531 124.87 249.74 126.661 249.74 128.87C249.74 131.079 251.531 132.87 253.74 132.87Z" fill="#6A51CA"/>
<path d="M4 132.87C6.20914 132.87 8 131.079 8 128.87C8 126.661 6.20914 124.87 4 124.87C1.79086 124.87 0 126.661 0 128.87C0 131.079 1.79086 132.87 4 132.87Z" fill="#6A51CA"/>
<path d="M217.17 44.5701C219.379 44.5701 221.17 42.7792 221.17 40.5701C221.17 38.3609 219.379 36.5701 217.17 36.5701C214.961 36.5701 213.17 38.3609 213.17 40.5701C213.17 42.7792 214.961 44.5701 217.17 44.5701Z" fill="#6A51CA"/>
<path d="M40.5703 221.17C42.7795 221.17 44.5703 219.379 44.5703 217.17C44.5703 214.961 42.7795 213.17 40.5703 213.17C38.3612 213.17 36.5703 214.961 36.5703 217.17C36.5703 219.379 38.3612 221.17 40.5703 221.17Z" fill="#6A51CA"/>
<path d="M217.17 221.17C219.379 221.17 221.17 219.379 221.17 217.17C221.17 214.961 219.379 213.17 217.17 213.17C214.961 213.17 213.17 214.961 213.17 217.17C213.17 219.379 214.961 221.17 217.17 221.17Z" fill="#6A51CA"/>
<path d="M40.5703 44.5701C42.7795 44.5701 44.5703 42.7792 44.5703 40.5701C44.5703 38.3609 42.7795 36.5701 40.5703 36.5701C38.3612 36.5701 36.5703 38.3609 36.5703 40.5701C36.5703 42.7792 38.3612 44.5701 40.5703 44.5701Z" fill="#6A51CA"/>
<path d="M175.641 17.0901C177.85 17.0901 179.641 15.2992 179.641 13.0901C179.641 10.8809 177.85 9.09009 175.641 9.09009C173.431 9.09009 171.641 10.8809 171.641 13.0901C171.641 15.2992 173.431 17.0901 175.641 17.0901Z" fill="#6A51CA"/>
<path d="M82.0996 248.65C84.3087 248.65 86.0996 246.859 86.0996 244.65C86.0996 242.441 84.3087 240.65 82.0996 240.65C79.8905 240.65 78.0996 242.441 78.0996 244.65C78.0996 246.859 79.8905 248.65 82.0996 248.65Z" fill="#6A51CA"/>
<path d="M244.65 179.64C246.86 179.64 248.65 177.849 248.65 175.64C248.65 173.431 246.86 171.64 244.65 171.64C242.441 171.64 240.65 173.431 240.65 175.64C240.65 177.849 242.441 179.64 244.65 179.64Z" fill="#6A51CA"/>
<path d="M13.0898 86.1001C15.299 86.1001 17.0898 84.3092 17.0898 82.1001C17.0898 79.891 15.299 78.1001 13.0898 78.1001C10.8807 78.1001 9.08984 79.891 9.08984 82.1001C9.08984 84.3092 10.8807 86.1001 13.0898 86.1001Z" fill="#6A51CA"/>
<path d="M243.811 84.0698C246.02 84.0698 247.811 82.279 247.811 80.0698C247.811 77.8607 246.02 76.0698 243.811 76.0698C241.601 76.0698 239.811 77.8607 239.811 80.0698C239.811 82.279 241.601 84.0698 243.811 84.0698Z" fill="#6A51CA"/>
<path d="M13.9297 181.67C16.1388 181.67 17.9297 179.879 17.9297 177.67C17.9297 175.461 16.1388 173.67 13.9297 173.67C11.7205 173.67 9.92969 175.461 9.92969 177.67C9.92969 179.879 11.7205 181.67 13.9297 181.67Z" fill="#6A51CA"/>
<path d="M177.67 247.81C179.879 247.81 181.67 246.019 181.67 243.81C181.67 241.601 179.879 239.81 177.67 239.81C175.461 239.81 173.67 241.601 173.67 243.81C173.67 246.019 175.461 247.81 177.67 247.81Z" fill="#6A51CA"/>
<path d="M80.0703 17.9299C82.2795 17.9299 84.0703 16.1391 84.0703 13.9299C84.0703 11.7208 82.2795 9.92993 80.0703 9.92993C77.8612 9.92993 76.0703 11.7208 76.0703 13.9299C76.0703 16.1391 77.8612 17.9299 80.0703 17.9299Z" fill="#6A51CA"/>
<path d="M128.87 154.74C128.87 157.06 128.63 158.46 127.74 160.02C127.6 160.27 127.53 160.59 127.67 160.85C128.2 161.83 130.3 161.42 130.92 161.09" fill="#6A51CA"/>
<path d="M149.062 149.859L137.553 149.773C137.043 149.769 136.626 149.346 136.63 148.836C136.634 148.326 137.057 147.909 137.567 147.913L149.076 147.999L149.063 149.849L149.062 149.859Z" fill="#ECEDEB" stroke="#252526" stroke-linejoin="round"/>
<path d="M148.409 150.08H156.019C156.212 150.08 156.369 149.923 156.369 149.73V147.97C156.369 147.777 156.212 147.62 156.019 147.62H148.409C148.216 147.62 148.059 147.777 148.059 147.97V149.73C148.059 149.923 148.216 150.08 148.409 150.08Z" fill="#A0A0A0" stroke="#252526" stroke-linejoin="round"/>
<path d="M80.4893 112.29C63.6693 112.29 50.0293 125.93 50.0293 142.75C50.0293 159.57 63.6693 173.21 80.4893 173.21C97.3093 173.21 110.949 159.57 110.949 142.75C110.949 125.93 97.3093 112.29 80.4893 112.29ZM80.4893 168.02C66.5293 168.02 55.2193 156.71 55.2193 142.75C55.2193 128.79 66.5293 117.48 80.4893 117.48C94.4493 117.48 105.759 128.79 105.759 142.75C105.759 156.71 94.4493 168.02 80.4893 168.02Z" fill="#383838" stroke="#252526" stroke-linejoin="round"/>
<path d="M177.249 112.29C160.429 112.29 146.789 125.93 146.789 142.75C146.789 159.57 160.429 173.21 177.249 173.21C194.069 173.21 207.709 159.57 207.709 142.75C207.709 125.93 194.069 112.29 177.249 112.29ZM177.249 168.02C163.289 168.02 151.979 156.71 151.979 142.75C151.979 128.79 163.289 117.48 177.249 117.48C191.209 117.48 202.519 128.79 202.519 142.75C202.519 156.71 191.209 168.02 177.249 168.02Z" fill="#383838" stroke="#252526" stroke-linejoin="round"/>
<path d="M153.05 87.0903C155.25 87.0903 159.33 87.0903 161.37 86.7703C163.41 86.4503 166.15 86.1803 166.41 86.7703C166.67 87.3603 166.79 87.7903 165.18 89.1303C163.57 90.4703 161.96 91.1203 161.26 91.6503C160.56 92.1903 156.27 92.6903 153.51 91.5803C150.74 90.4703 148.28 88.8603 147.42 88.8103C146.56 88.7603 144.2 89.3703 143.4 89.3303C142.6 89.2903 142.38 88.3203 143.4 87.7303C144.42 87.1403 151.18 87.0903 153.06 87.0903H153.05Z" fill="#9C8BDC" stroke="#252526" stroke-linejoin="round"/>
<path d="M141.549 146.59C141.549 146.59 172.849 142.91 173.889 142.75C174.929 142.59 175.539 143.23 175.629 143.69C175.719 144.15 175.459 144.76 174.409 145.11C173.359 145.46 142.069 150.15 142.069 150.15L141.549 146.59Z" fill="#ECEDEB" stroke="#252526" stroke-linejoin="round"/>
<path d="M104.25 93.4402C104.25 93.4402 105.79 89.2702 105.97 88.6902C106.15 88.1102 105.93 87.9902 105.11 87.6502C104.29 87.3102 100.46 86.0302 99.6501 85.6802C98.8401 85.3302 96.8701 84.6402 96.2901 84.5802C95.7101 84.5202 95.0701 84.5202 94.1501 84.5802C93.2301 84.6402 91.8501 84.7502 92.2801 85.9102C92.7101 87.0702 92.8301 87.6202 93.3601 87.4302C94.3101 87.0802 95.8801 87.0402 96.7501 87.3402C97.4401 87.5802 100.36 88.7002 100.99 88.9902C101.62 89.2802 101.74 89.3302 101.51 89.8502C101.28 90.3702 100.57 92.3702 100.57 92.3702L104.25 93.4402Z" fill="#7A7A79" stroke="#252526" stroke-linejoin="round"/>
<path d="M137.639 157.71C142.533 157.71 146.499 153.743 146.499 148.85C146.499 143.957 142.533 139.99 137.639 139.99C132.746 139.99 128.779 143.957 128.779 148.85C128.779 153.743 132.746 157.71 137.639 157.71Z" fill="#ECEDEB" stroke="#252526" stroke-linejoin="round"/>
<path d="M177.799 141.98C177.409 141.53 154.219 116.55 150.289 112.31C153.289 102.19 155.999 93.06 155.999 93.06C156.259 92.19 156.359 92.2 155.519 92.1C154.889 92.03 153.999 91.76 153.339 91.52C153.079 92.39 149.279 104.95 149.109 105.48C148.939 106 149.019 106.52 148.069 106.18C147.109 105.83 104.739 95.14 104.049 94.79C104.049 94.79 104.149 94.19 104.249 93.45C104.249 93.39 100.119 92.26 99.819 92.18C99.489 92.09 98.529 95.33 97.969 96.88C96.459 100.99 94.819 105.45 93.179 109.52C91.279 114.24 89.379 118.95 87.469 123.67C85.869 127.63 84.279 131.58 82.669 135.54C81.949 137.32 81.289 139.14 80.489 140.88C79.769 142.45 79.339 143.4 79.899 143.71C80.349 143.95 80.859 144.25 81.639 142.78C82.419 141.32 98.329 110.71 98.679 110.1C99.029 109.49 99.719 109.4 100.329 110.1C100.939 110.8 125.019 145.92 125.719 147.14C126.419 148.36 129.569 152.54 129.569 152.54C129.569 152.54 128.209 149.74 129.019 146.79C129.829 143.84 131.399 142.58 131.399 142.58C131.399 142.58 107.199 106.97 106.159 105.41C105.119 103.84 103.119 101.58 103.029 100.37C102.939 99.15 104.139 98.46 105.759 98.8C107.379 99.15 146.069 107.93 146.939 108.28C147.809 108.63 148.069 108.71 147.809 109.67C147.549 110.63 142.329 126.8 142.159 127.32C142.069 127.58 142.069 127.68 141.999 127.8L138.039 140.03C138.479 140.05 138.879 140.11 139.259 140.16C140.449 140.34 141.779 141.04 141.779 141.04C141.779 141.04 144.919 130.44 149.339 115.53C153.399 119.69 174.889 141.66 175.959 142.78C177.149 144.01 177.519 143.75 177.789 143.56C178.059 143.38 178.619 142.97 177.789 142L177.799 141.98Z" fill="#ECEDEB" stroke="#252526" stroke-linejoin="round"/>
<path d="M80.4899 149.57C84.2565 149.57 87.3099 146.517 87.3099 142.75C87.3099 138.984 84.2565 135.93 80.4899 135.93C76.7233 135.93 73.6699 138.984 73.6699 142.75C73.6699 146.517 76.7233 149.57 80.4899 149.57Z" fill="#ECEDEB" stroke="#252526" stroke-linejoin="round"/>
<path d="M177.25 149.57C181.016 149.57 184.07 146.517 184.07 142.75C184.07 138.984 181.016 135.93 177.25 135.93C173.483 135.93 170.43 138.984 170.43 142.75C170.43 146.517 173.483 149.57 177.25 149.57Z" fill="#ECEDEB" stroke="#252526" stroke-linejoin="round"/>
<path d="M126.217 147.999L137.726 147.913C138.236 147.909 138.66 148.326 138.663 148.836C138.667 149.346 138.25 149.769 137.74 149.773L126.231 149.859L126.217 148.009L126.217 147.999Z" fill="#ECEDEB" stroke="#252526" stroke-linejoin="round"/>
<path d="M126.87 147.61H119.26C119.067 147.61 118.91 147.767 118.91 147.96V149.72C118.91 149.914 119.067 150.07 119.26 150.07H126.87C127.063 150.07 127.22 149.914 127.22 149.72V147.96C127.22 147.767 127.063 147.61 126.87 147.61Z" fill="#A0A0A0" stroke="#252526" stroke-linejoin="round"/>
</g>
<defs>
<clipPath id="clip0_2230_193764">
<rect width="257.74" height="257.74" fill="white"/>
</clipPath>
</defs>
</svg>
