<svg width="246" height="293" viewBox="0 0 246 293" fill="none" xmlns="http://www.w3.org/2000/svg">
<g clip-path="url(#clip0_2230_190791)">
<path d="M11.94 291.85C5.36 291.85 0 286.52 0 279.97V64.07C0 52.93 5.98 42.52 15.6 36.9L75.94 1.66C77.8 0.57 79.9 0 82.02 0C88.66 0 94.07 5.38 94.07 11.99V232.18C94.07 240.55 89.58 248.38 82.34 252.6L17.96 290.2C16.12 291.27 14.04 291.84 11.93 291.84L11.94 291.85Z" fill="#3F3F3F"/>
<path d="M16.6 291.85C10.2 291.85 5 286.59 5 280.12V66.6702C5 55.6702 10.81 45.4002 20.16 39.8502L78.81 5.05016C80.62 3.98016 82.66 3.41016 84.72 3.41016C91.18 3.41016 96.43 8.72016 96.43 15.2502V232.95C96.43 241.21 92.06 248.94 85.03 253.11L22.45 290.23C20.66 291.29 18.64 291.85 16.59 291.85H16.6Z" fill="#252526" stroke="#252526" stroke-width="0.75" stroke-linecap="round" stroke-linejoin="round"/>
<path d="M82.4898 248.81L19.9198 285.93C15.5198 288.54 10.0098 285.31 10.0098 280.13V66.6698C10.0098 57.3998 14.8498 48.8198 22.7198 44.1498L81.3598 9.35978C85.8298 6.70978 91.4398 9.98978 91.4398 15.2598V232.95C91.4398 239.48 88.0298 245.52 82.4898 248.81Z" fill="#ECEDEB" stroke="#252526" stroke-width="0.75" stroke-linecap="round" stroke-linejoin="round"/>
<path d="M52.2701 133.25C41.6601 139.16 33.0801 133.86 33.0801 121.48V83.1801C33.0801 71.0701 41.5101 56.5401 51.9201 50.6501C62.3601 44.7501 70.9101 49.7101 71.0201 61.8001L71.3401 100.06C71.4401 112.43 62.9001 127.32 52.2701 133.24V133.25Z" fill="#6A51CA"/>
<path d="M41.7402 81.9101L60.5702 100.36L52.2202 117.3V66.1001L60.5702 74.7601L41.7402 113.54" stroke="#ECEDEB" stroke-width="2" stroke-linecap="round" stroke-linejoin="round"/>
<path d="M166.266 212.033L150.796 211.917C150.106 211.912 149.55 211.348 149.555 210.658C149.561 209.968 150.125 209.412 150.815 209.417L166.284 209.533L166.266 212.023L166.266 212.033Z" fill="#ECEDEB" stroke="#252526" stroke-linejoin="round"/>
<path d="M165.38 212.32H175.63C175.884 212.32 176.09 212.114 176.09 211.86V209.47C176.09 209.216 175.884 209.01 175.63 209.01H165.38C165.126 209.01 164.92 209.216 164.92 209.47V211.86C164.92 212.114 165.126 212.32 165.38 212.32Z" fill="#A0A0A0" stroke="#252526" stroke-linejoin="round"/>
<path d="M74.0498 161.51C51.4298 161.51 33.0898 179.85 33.0898 202.47C33.0898 225.09 51.4298 243.43 74.0498 243.43C96.6698 243.43 115.01 225.09 115.01 202.47C115.01 179.85 96.6698 161.51 74.0498 161.51ZM74.0498 236.46C55.2798 236.46 40.0598 221.24 40.0598 202.47C40.0598 183.7 55.2798 168.48 74.0498 168.48C92.8198 168.48 108.04 183.7 108.04 202.47C108.04 221.24 92.8198 236.46 74.0498 236.46Z" fill="#383838" stroke="#252526" stroke-linejoin="round"/>
<path d="M204.169 161.51C181.549 161.51 163.209 179.85 163.209 202.47C163.209 225.09 181.549 243.43 204.169 243.43C226.789 243.43 245.129 225.09 245.129 202.47C245.129 179.85 226.789 161.51 204.169 161.51ZM204.169 236.46C185.399 236.46 170.179 221.24 170.179 202.47C170.179 183.7 185.399 168.48 204.169 168.48C222.939 168.48 238.159 183.7 238.159 202.47C238.159 221.24 222.939 236.46 204.169 236.46Z" fill="#383838" stroke="#252526" stroke-linejoin="round"/>
<path d="M171.631 127.62C174.591 127.62 180.071 127.62 182.811 127.19C185.551 126.76 189.231 126.4 189.591 127.19C189.951 127.98 190.101 128.56 187.931 130.37C185.771 132.17 183.601 133.04 182.661 133.76C181.721 134.48 175.961 135.15 172.241 133.66C168.521 132.17 165.201 130.01 164.051 129.93C162.901 129.85 159.721 130.69 158.641 130.63C157.561 130.57 157.271 129.28 158.641 128.48C160.011 127.68 169.101 127.62 171.631 127.61V127.62Z" fill="#9C8BDC" stroke="#252526" stroke-linejoin="round"/>
<path d="M156.16 207.64C156.16 207.64 198.25 202.69 199.66 202.48C201.07 202.27 201.88 203.12 202 203.75C202.12 204.38 201.77 205.19 200.36 205.66C198.95 206.13 156.86 212.44 156.86 212.44L156.16 207.65V207.64Z" fill="#ECEDEB" stroke="#252526" stroke-linejoin="round"/>
<path d="M105.99 136.15C105.99 136.15 108.06 130.54 108.3 129.76C108.54 128.98 108.25 128.82 107.15 128.36C106.04 127.89 100.9 126.18 99.8099 125.71C98.7199 125.24 96.0699 124.31 95.2899 124.23C94.5099 124.15 93.6499 124.15 92.4099 124.23C91.1599 124.31 89.3199 124.46 89.8899 126.02C90.4599 127.58 90.6299 128.32 91.3399 128.07C92.6199 127.61 94.7299 127.54 95.8999 127.95C96.8299 128.27 100.75 129.78 101.61 130.17C102.47 130.56 102.62 130.63 102.31 131.33C102 132.03 101.05 134.72 101.05 134.72L106 136.16L105.99 136.15Z" fill="#7A7A79" stroke="#252526" stroke-linejoin="round"/>
<path d="M150.9 222.58C157.478 222.58 162.81 217.247 162.81 210.67C162.81 204.092 157.478 198.76 150.9 198.76C144.323 198.76 138.99 204.092 138.99 210.67C138.99 217.247 144.323 222.58 150.9 222.58Z" fill="#ECEDEB" stroke="#252526" stroke-linejoin="round"/>
<path d="M204.909 201.44C204.389 200.84 173.199 167.24 167.909 161.54C171.939 147.93 175.589 135.65 175.589 135.65C175.939 134.48 176.079 134.49 174.949 134.36C174.099 134.26 172.909 133.9 172.019 133.58C171.669 134.75 166.559 151.65 166.329 152.35C166.099 153.05 166.209 153.75 164.929 153.29C163.639 152.82 106.659 138.44 105.729 137.97C105.729 137.97 105.859 137.17 105.989 136.17C105.999 136.08 100.429 134.57 100.039 134.46C99.5989 134.34 98.3089 138.69 97.5489 140.77C95.5189 146.3 93.3089 152.3 91.1089 157.76C88.5489 164.1 85.9989 170.45 83.4389 176.79C81.2889 182.11 79.1389 187.43 76.9889 192.75C76.0189 195.14 75.1289 197.59 74.0589 199.93C73.0989 202.03 72.5089 203.32 73.2689 203.73C73.8689 204.05 74.5589 204.45 75.6089 202.48C76.6589 200.51 98.0589 159.35 98.5289 158.54C98.9989 157.73 99.9289 157.6 100.749 158.54C101.569 159.48 133.959 206.71 134.889 208.35C135.829 209.99 140.069 215.61 140.069 215.61C140.069 215.61 138.239 211.84 139.329 207.87C140.419 203.9 142.529 202.21 142.529 202.21C142.529 202.21 109.979 154.33 108.579 152.22C107.179 150.12 104.489 147.08 104.369 145.44C104.249 143.8 105.859 142.87 108.039 143.34C110.219 143.81 162.249 155.62 163.419 156.09C164.589 156.56 164.939 156.67 164.589 157.96C164.239 159.25 157.219 180.99 156.989 181.7C156.879 182.04 156.869 182.19 156.779 182.35L151.449 198.79C152.039 198.82 152.569 198.89 153.089 198.97C154.689 199.21 156.479 200.15 156.479 200.15C156.479 200.15 160.699 185.9 166.639 165.84C172.099 171.43 200.999 200.98 202.449 202.48C204.049 204.14 204.549 203.78 204.909 203.53C205.279 203.28 206.029 202.73 204.909 201.43V201.44Z" fill="#ECEDEB" stroke="#252526" stroke-linejoin="round"/>
<path d="M74.0491 211.66C79.1191 211.66 83.2291 207.55 83.2291 202.48C83.2291 197.41 79.1191 193.3 74.0491 193.3C68.9792 193.3 64.8691 197.41 64.8691 202.48C64.8691 207.55 68.9792 211.66 74.0491 211.66Z" fill="#ECEDEB" stroke="#252526" stroke-linejoin="round"/>
<path d="M204.17 211.66C209.24 211.66 213.35 207.55 213.35 202.48C213.35 197.41 209.24 193.3 204.17 193.3C199.1 193.3 194.99 197.41 194.99 202.48C194.99 207.55 199.1 211.66 204.17 211.66Z" fill="#ECEDEB" stroke="#252526" stroke-linejoin="round"/>
<path d="M135.539 209.547L151.009 209.431C151.699 209.426 152.263 209.981 152.268 210.671C152.273 211.361 151.717 211.926 151.027 211.931L135.558 212.047L135.539 209.557L135.539 209.547Z" fill="#ECEDEB" stroke="#252526" stroke-linejoin="round"/>
<path d="M136.431 209.02H126.181C125.927 209.02 125.721 209.226 125.721 209.48V211.87C125.721 212.124 125.927 212.33 126.181 212.33H136.431C136.685 212.33 136.891 212.124 136.891 211.87V209.48C136.891 209.226 136.685 209.02 136.431 209.02Z" fill="#A0A0A0" stroke="#252526" stroke-linejoin="round"/>
<path d="M56.0403 158.38H26.8203V245.05H56.0403V158.38Z" fill="#ECEDEB"/>
<path d="M56.0508 153.78V247.52" stroke="#252526" stroke-linecap="round" stroke-linejoin="round"/>
</g>
<defs>
<clipPath id="clip0_2230_190791">
<rect width="245.63" height="292.23" fill="white"/>
</clipPath>
</defs>
</svg>
