<svg width="285" height="130" viewBox="0 0 285 130" fill="none" xmlns="http://www.w3.org/2000/svg">
<g clip-path="url(#clip0_2230_187077)">
<path d="M121.509 88.1289C94.9191 88.1289 73.3691 97.0889 73.3691 108.139C73.3691 119.189 94.9191 128.149 121.509 128.149C148.099 128.149 169.649 119.189 169.649 108.139C169.649 97.0889 148.099 88.1289 121.509 88.1289ZM121.509 123.059C97.0491 123.059 77.2191 116.379 77.2191 108.139C77.2191 99.8989 97.0491 93.2189 121.509 93.2189C145.969 93.2189 165.799 99.8989 165.799 108.139C165.799 116.379 145.969 123.059 121.509 123.059Z" fill="#383838" stroke="#252526" stroke-linejoin="round"/>
<path d="M121.509 109.598C125.364 109.598 128.489 108.546 128.489 107.248C128.489 105.951 125.364 104.898 121.509 104.898C117.654 104.898 114.529 105.951 114.529 107.248C114.529 108.546 117.654 109.598 121.509 109.598Z" fill="#ECEDEB" stroke="#252526" stroke-linejoin="round"/>
<path d="M198.081 46.4692C196.291 46.2592 194.621 46.7092 193.281 47.6292L150.431 17.1892L151.701 2.87924C151.801 1.76924 150.971 0.789237 149.851 0.709237L147.161 0.509237C146.061 0.429237 145.101 1.25924 145.021 2.35924L144.721 6.49924L80.3908 5.52924L80.8608 3.52924C81.1308 2.36924 80.3409 1.22924 79.1609 1.08924L75.2408 0.599237C74.1808 0.469237 73.2108 1.17924 73.0208 2.22924L60.5708 71.4992C57.4808 71.8392 55.0508 74.3892 54.9008 77.5292C54.7408 81.0592 57.6408 84.1492 61.1708 84.1992C64.7008 84.2492 67.6408 81.3792 67.6408 77.8292C67.6408 75.5292 66.4208 73.5192 64.5908 72.3992L76.0509 23.8492L129.241 72.3492V72.3792C129.041 76.8792 131.461 81.1792 135.531 83.0992C144.541 87.3592 153.371 80.8992 153.371 72.3792C153.371 72.1692 153.351 71.9592 153.341 71.7492L192.931 58.9892C194.111 59.8992 195.591 60.4492 197.201 60.4492C201.341 60.4492 204.631 56.8692 204.161 52.6392C203.811 49.4692 201.231 46.8692 198.061 46.4892L198.081 46.4692ZM61.2808 80.7692C59.6508 80.7692 58.3309 79.4492 58.3309 77.8192C58.3309 76.1892 59.6508 74.8692 61.2808 74.8692C62.9108 74.8692 64.2309 76.1892 64.2309 77.8192C64.2309 79.4492 62.9108 80.7692 61.2808 80.7692ZM132.421 64.2392L78.8309 12.1292L79.0408 11.2592L144.261 12.9592L140.831 60.3292C137.501 60.4592 134.521 61.9392 132.421 64.2392ZM141.321 77.9592C138.241 77.9592 135.741 75.4592 135.741 72.3792C135.741 69.2992 138.241 66.7992 141.321 66.7992C144.401 66.7992 146.901 69.2992 146.901 72.3792C146.901 75.4592 144.401 77.9592 141.321 77.9592ZM150.841 64.9792C149.691 63.4992 148.201 62.2992 146.481 61.4792L149.751 24.8292L190.551 51.2592C190.331 51.9392 190.201 52.6692 190.201 53.4292C190.201 54.3192 190.371 55.1592 190.671 55.9492L150.831 64.9792H150.841ZM197.211 56.6792C195.421 56.6792 193.971 55.2292 193.971 53.4392C193.971 51.6492 195.421 50.1992 197.211 50.1992C199.001 50.1992 200.451 51.6492 200.451 53.4392C200.451 55.2292 199.001 56.6792 197.211 56.6792Z" fill="#ECEDEB" stroke="#252526" stroke-linejoin="round"/>
<path d="M0.56989 107.011C0.28989 106.371 0.94989 104.461 1.62989 104.291C5.95989 103.201 20.8599 100.191 26.6799 98.251C33.5899 95.951 37.9699 93.661 47.3299 93.091C57.1599 92.501 57.0399 91.291 66.4099 89.911C73.0999 88.921 77.4599 88.111 79.0399 87.781C79.5799 87.671 80.1199 87.961 80.3299 88.471C80.3299 88.471 81.4499 91.211 80.6299 91.901C75.9199 92.791 57.9699 96.571 55.3799 98.001C52.7899 99.431 53.4599 100.631 54.4899 103.501C55.7299 106.961 55.2599 110.341 51.5899 111.261C48.4499 112.041 45.3499 110.591 43.7599 107.711C41.5299 103.671 38.7499 101.071 33.0699 102.301C28.2699 103.341 9.43989 108.591 3.70989 110.201C2.74989 110.471 1.74989 109.991 1.34989 109.081L0.57989 107.021L0.56989 107.011Z" fill="#383838" stroke="#252526" stroke-linejoin="round"/>
<path d="M1.42952 105.49C1.14952 104.85 1.50952 104.11 2.18952 103.94C6.51952 102.85 20.6895 98.7299 26.4995 96.7899C33.4095 94.4899 37.9595 90.2199 47.3295 89.6499C57.1595 89.0599 56.7795 90.1699 66.1495 88.7899C72.8395 87.7999 77.1995 86.9899 78.7795 86.6599C79.3195 86.5499 79.8595 86.8399 80.0695 87.3499L80.5495 88.5099C80.8295 89.1799 80.4195 89.9399 79.6995 90.0799C74.6595 91.0299 57.4795 94.3199 54.9095 95.7399C52.1995 97.2399 52.6595 98.8199 53.8195 101.61C55.0295 104.52 55.5995 107.12 51.7495 108.14C48.6195 108.97 45.2995 107.18 43.7595 104.26C42.2195 101.34 39.3095 98.5799 33.6195 99.8099C28.5895 100.9 8.19952 106.61 3.53952 107.91C2.98952 108.06 2.41952 107.79 2.19952 107.26L1.42952 105.49Z" fill="#5F6060" stroke="#252526" stroke-linejoin="round"/>
<path d="M214.001 94.8005C212.321 93.5405 207.331 89.9205 205.381 88.3705C203.431 86.8205 200.561 85.9205 199.561 86.9005C198.561 87.8805 200.081 89.7005 202.181 91.2505C204.331 92.8405 207.631 96.3605 208.711 97.8305C209.791 99.3005 212.671 103.14 216.531 104.24C220.921 105.49 226.281 103.07 226.751 101.33C227.411 98.8605 218.941 98.5105 214.001 94.8005Z" fill="#9C8BDC" stroke="#252526" stroke-linejoin="round"/>
<path d="M208.991 98.1992L211.501 101.089L195.761 111.779C194.661 112.529 193.191 111.619 193.371 110.299L193.571 108.849C193.631 108.409 193.881 108.009 194.261 107.759L209.001 98.1992H208.991Z" fill="#ECEDEB" stroke="#252526" stroke-linejoin="round"/>
<path d="M200.061 119.059C200.061 119.059 202.251 116.129 205.331 116.709C205.711 116.779 205.861 117.249 205.611 117.539L202.431 121.189L200.061 119.069V119.059Z" fill="#C4C4C5" stroke="#252526" stroke-miterlimit="10" stroke-linecap="round"/>
<path d="M197.38 120.489C197.38 120.489 198.23 118.599 198.97 117.899C199.11 117.759 199.34 117.769 199.49 117.889L205.62 122.829L209.36 119.519C209.66 119.249 210.14 119.429 210.19 119.829C210.35 121.259 210.44 124.009 209.17 125.549C207.39 127.709 203.02 127.769 200.99 127.069C198.96 126.369 199.34 125.419 196.68 125.679C194.62 125.879 183.97 128.159 179.27 129.179C178.08 129.439 176.94 128.589 176.85 127.379L176.67 124.999C176.59 123.909 177.38 122.959 178.47 122.859C183.43 122.379 196.21 121.089 197.38 120.479V120.489Z" fill="#C4C4C5" stroke="#252526" stroke-miterlimit="10" stroke-linecap="round"/>
<path d="M201.904 122.618L200.701 121.416C200.405 121.12 199.923 121.12 199.627 121.416L199.485 121.558C199.188 121.855 199.188 122.336 199.485 122.633L200.687 123.835C200.984 124.131 201.465 124.131 201.762 123.835L201.904 123.693C202.2 123.396 202.2 122.915 201.904 122.618Z" fill="#FAFAFA" stroke="#252526" stroke-miterlimit="10" stroke-linecap="round"/>
<path d="M218.44 116.011L218.24 116.831C218.21 116.951 218.27 117.071 218.38 117.131L219.48 117.681C219.48 117.681 219.55 117.711 219.59 117.711H221C221 117.711 221.04 117.731 221.06 117.731L232.43 120.471C232.57 120.501 232.71 120.421 232.75 120.281L232.92 119.561C232.95 119.421 232.87 119.281 232.73 119.241L221.36 116.501C221.36 116.501 221.32 116.491 221.3 116.481L220.04 115.851C220.04 115.851 219.97 115.821 219.93 115.821H218.7C218.58 115.811 218.47 115.891 218.44 116.011Z" fill="#7A7A79" stroke="#252526" stroke-miterlimit="10" stroke-linecap="round"/>
<path d="M243.97 119.581L235.03 118.341C234.96 118.341 234.89 118.311 234.82 118.281L233.52 117.761C233.1 117.591 232.63 117.761 232.54 118.131L231.79 121.231C231.7 121.601 232.04 121.971 232.49 122.011L233.89 122.141C233.96 122.141 234.03 122.161 234.1 122.191L242.62 125.161C243.24 125.381 243.9 125.101 244.03 124.581L244.96 120.741C245.09 120.211 244.62 119.671 243.97 119.581Z" fill="#B5A8E4" stroke="#252526" stroke-miterlimit="10" stroke-linecap="round"/>
<path d="M242.181 5.48047C218.911 5.48047 200.051 24.3405 200.051 47.6105C200.051 70.8805 218.911 89.7405 242.181 89.7405C265.451 89.7405 284.311 70.8805 284.311 47.6105C284.311 24.3405 265.451 5.48047 242.181 5.48047ZM242.181 83.2405C222.501 83.2405 206.551 67.2905 206.551 47.6105C206.551 27.9305 222.501 11.9805 242.181 11.9805C261.861 11.9805 277.811 27.9305 277.811 47.6105C277.811 67.2905 261.861 83.2405 242.181 83.2405Z" fill="#383838" stroke="#252526" stroke-linejoin="round"/>
<path d="M242.18 54.9617C246.239 54.9617 249.53 51.671 249.53 47.6117C249.53 43.5524 246.239 40.2617 242.18 40.2617C238.121 40.2617 234.83 43.5524 234.83 47.6117C234.83 51.671 238.121 54.9617 242.18 54.9617Z" fill="#ECEDEB" stroke="#252526" stroke-linejoin="round"/>
<path d="M237.471 121.797L242.681 123.057" stroke="#252526" stroke-miterlimit="10" stroke-linecap="round"/>
<path d="M237.852 120.219L243.062 121.469" stroke="#252526" stroke-miterlimit="10" stroke-linecap="round"/>
</g>
<defs>
<clipPath id="clip0_2230_187077">
<rect width="284.81" height="129.74" fill="white"/>
</clipPath>
</defs>
</svg>
