<svg width="285" height="130" viewBox="0 0 285 130" fill="none" xmlns="http://www.w3.org/2000/svg">
<g clip-path="url(#clip0_3890_227544)">
<path d="M121.51 88.1309C94.92 88.1309 73.37 97.0909 73.37 108.141C73.37 119.191 94.92 128.151 121.51 128.151C148.1 128.151 169.65 119.191 169.65 108.141C169.65 97.0909 148.1 88.1309 121.51 88.1309ZM121.51 123.061C97.05 123.061 77.22 116.381 77.22 108.141C77.22 99.9009 97.05 93.2209 121.51 93.2209C145.97 93.2209 165.8 99.9009 165.8 108.141C165.8 116.381 145.97 123.061 121.51 123.061Z" fill="#383838" stroke="#252526" stroke-linejoin="round"/>
<path d="M121.51 109.6C125.365 109.6 128.49 108.548 128.49 107.25C128.49 105.953 125.365 104.9 121.51 104.9C117.655 104.9 114.53 105.953 114.53 107.25C114.53 108.548 117.655 109.6 121.51 109.6Z" fill="#ECEDEB" stroke="#252526" stroke-linejoin="round"/>
<path d="M198.08 46.4692C196.29 46.2592 194.62 46.7092 193.28 47.6292L150.43 17.1892L151.7 2.87924C151.8 1.76924 150.97 0.789237 149.85 0.709237L147.16 0.509237C146.06 0.429237 145.1 1.25924 145.02 2.35924L144.72 6.49924L80.39 5.52924L80.86 3.52924C81.13 2.36924 80.34 1.22924 79.16 1.08924L75.24 0.599237C74.18 0.469237 73.21 1.17924 73.02 2.22924L60.57 71.4992C57.48 71.8392 55.05 74.3892 54.9 77.5292C54.74 81.0592 57.64 84.1492 61.17 84.1992C64.7 84.2492 67.64 81.3792 67.64 77.8292C67.64 75.5292 66.42 73.5192 64.59 72.3992L76.05 23.8492L129.24 72.3492V72.3792C129.04 76.8792 131.46 81.1792 135.53 83.0992C144.54 87.3592 153.37 80.8992 153.37 72.3792C153.37 72.1692 153.35 71.9592 153.34 71.7492L192.93 58.9892C194.11 59.8992 195.59 60.4492 197.2 60.4492C201.34 60.4492 204.63 56.8692 204.16 52.6392C203.81 49.4692 201.23 46.8692 198.06 46.4892L198.08 46.4692ZM61.28 80.7692C59.65 80.7692 58.33 79.4492 58.33 77.8192C58.33 76.1892 59.65 74.8692 61.28 74.8692C62.91 74.8692 64.23 76.1892 64.23 77.8192C64.23 79.4492 62.91 80.7692 61.28 80.7692ZM132.42 64.2392L78.83 12.1292L79.04 11.2592L144.26 12.9592L140.83 60.3292C137.5 60.4592 134.52 61.9392 132.42 64.2392ZM141.32 77.9592C138.24 77.9592 135.74 75.4592 135.74 72.3792C135.74 69.2992 138.24 66.7992 141.32 66.7992C144.4 66.7992 146.9 69.2992 146.9 72.3792C146.9 75.4592 144.4 77.9592 141.32 77.9592ZM150.84 64.9792C149.69 63.4992 148.2 62.2992 146.48 61.4792L149.75 24.8292L190.55 51.2592C190.33 51.9392 190.2 52.6692 190.2 53.4292C190.2 54.3192 190.37 55.1592 190.67 55.9492L150.83 64.9792H150.84ZM197.21 56.6792C195.42 56.6792 193.97 55.2292 193.97 53.4392C193.97 51.6492 195.42 50.1992 197.21 50.1992C199 50.1992 200.45 51.6492 200.45 53.4392C200.45 55.2292 199 56.6792 197.21 56.6792Z" fill="#ECEDEB" stroke="#252526" stroke-linejoin="round"/>
<path d="M0.569997 107.009C0.289997 106.369 0.949997 104.459 1.63 104.289C5.96 103.199 20.86 100.189 26.68 98.249C33.59 95.949 37.97 93.659 47.33 93.089C57.16 92.499 57.04 91.289 66.41 89.909C73.1 88.919 77.46 88.109 79.04 87.779C79.58 87.669 80.12 87.959 80.33 88.469C80.33 88.469 81.45 91.209 80.63 91.899C75.92 92.789 57.97 96.569 55.38 97.999C52.79 99.429 53.46 100.629 54.49 103.499C55.73 106.959 55.26 110.339 51.59 111.259C48.45 112.039 45.35 110.589 43.76 107.709C41.53 103.669 38.75 101.069 33.07 102.299C28.27 103.339 9.44 108.589 3.71 110.199C2.75 110.469 1.75 109.989 1.35 109.079L0.579997 107.019L0.569997 107.009Z" fill="#383838" stroke="#252526" stroke-linejoin="round"/>
<path d="M1.43001 105.49C1.15001 104.85 1.51001 104.11 2.19001 103.94C6.52001 102.85 20.69 98.7299 26.5 96.7899C33.41 94.4899 37.96 90.2199 47.33 89.6499C57.16 89.0599 56.78 90.1699 66.15 88.7899C72.84 87.7999 77.2 86.9899 78.78 86.6599C79.32 86.5499 79.86 86.8399 80.07 87.3499L80.55 88.5099C80.83 89.1799 80.42 89.9399 79.7 90.0799C74.66 91.0299 57.48 94.3199 54.91 95.7399C52.2 97.2399 52.66 98.8199 53.82 101.61C55.03 104.52 55.6 107.12 51.75 108.14C48.62 108.97 45.3 107.18 43.76 104.26C42.22 101.34 39.31 98.5799 33.62 99.8099C28.59 100.9 8.20001 106.61 3.54001 107.91C2.99001 108.06 2.42001 107.79 2.20001 107.26L1.43001 105.49Z" fill="#5F6060" stroke="#252526" stroke-linejoin="round"/>
<path d="M214 94.8005C212.32 93.5405 207.33 89.9205 205.38 88.3705C203.43 86.8205 200.56 85.9205 199.56 86.9005C198.56 87.8805 200.08 89.7005 202.18 91.2505C204.33 92.8405 207.63 96.3605 208.71 97.8305C209.79 99.3005 212.67 103.14 216.53 104.24C220.92 105.49 226.28 103.07 226.75 101.33C227.41 98.8605 218.94 98.5105 214 94.8005Z" fill="#9C8BDC" stroke="#252526" stroke-linejoin="round"/>
<path d="M208.99 98.1992L211.5 101.089L195.76 111.779C194.66 112.529 193.19 111.619 193.37 110.299L193.57 108.849C193.63 108.409 193.88 108.009 194.26 107.759L209 98.1992H208.99Z" fill="#ECEDEB" stroke="#252526" stroke-linejoin="round"/>
<path d="M200.06 119.061C200.06 119.061 202.25 116.131 205.33 116.711C205.71 116.781 205.86 117.251 205.61 117.541L202.43 121.191L200.06 119.071V119.061Z" fill="#C4C4C5" stroke="#252526" stroke-miterlimit="10" stroke-linecap="round"/>
<path d="M197.38 120.489C197.38 120.489 198.23 118.599 198.97 117.899C199.11 117.759 199.34 117.769 199.49 117.889L205.62 122.829L209.36 119.519C209.66 119.249 210.14 119.429 210.19 119.829C210.35 121.259 210.44 124.009 209.17 125.549C207.39 127.709 203.02 127.769 200.99 127.069C198.96 126.369 199.34 125.419 196.68 125.679C194.62 125.879 183.97 128.159 179.27 129.179C178.08 129.439 176.94 128.589 176.85 127.379L176.67 124.999C176.59 123.909 177.38 122.959 178.47 122.859C183.43 122.379 196.21 121.089 197.38 120.479V120.489Z" fill="#C4C4C5" stroke="#252526" stroke-miterlimit="10" stroke-linecap="round"/>
<path d="M201.903 122.618L200.701 121.416C200.404 121.12 199.923 121.12 199.626 121.416L199.485 121.558C199.188 121.855 199.188 122.336 199.485 122.633L200.687 123.835C200.984 124.131 201.465 124.131 201.762 123.835L201.903 123.693C202.2 123.396 202.2 122.915 201.903 122.618Z" fill="#FAFAFA" stroke="#252526" stroke-miterlimit="10" stroke-linecap="round"/>
<path d="M218.44 116.009L218.24 116.829C218.21 116.949 218.27 117.069 218.38 117.129L219.48 117.679C219.48 117.679 219.55 117.709 219.59 117.709H221C221 117.709 221.04 117.729 221.06 117.729L232.43 120.469C232.57 120.499 232.71 120.419 232.75 120.279L232.92 119.559C232.95 119.419 232.87 119.279 232.73 119.239L221.36 116.499C221.36 116.499 221.32 116.489 221.3 116.479L220.04 115.849C220.04 115.849 219.97 115.819 219.93 115.819H218.7C218.58 115.809 218.47 115.889 218.44 116.009Z" fill="#7A7A79" stroke="#252526" stroke-miterlimit="10" stroke-linecap="round"/>
<path d="M243.97 119.579L235.03 118.339C234.96 118.339 234.89 118.309 234.82 118.279L233.52 117.759C233.1 117.589 232.63 117.759 232.54 118.129L231.79 121.229C231.7 121.599 232.04 121.969 232.49 122.009L233.89 122.139C233.96 122.139 234.03 122.159 234.1 122.189L242.62 125.159C243.24 125.379 243.9 125.099 244.03 124.579L244.96 120.739C245.09 120.209 244.62 119.669 243.97 119.579Z" fill="#B5A8E4" stroke="#252526" stroke-miterlimit="10" stroke-linecap="round"/>
<path d="M242.18 5.48047C218.91 5.48047 200.05 24.3405 200.05 47.6105C200.05 70.8805 218.91 89.7405 242.18 89.7405C265.45 89.7405 284.31 70.8805 284.31 47.6105C284.31 24.3405 265.45 5.48047 242.18 5.48047ZM242.18 83.2405C222.5 83.2405 206.55 67.2905 206.55 47.6105C206.55 27.9305 222.5 11.9805 242.18 11.9805C261.86 11.9805 277.81 27.9305 277.81 47.6105C277.81 67.2905 261.86 83.2405 242.18 83.2405Z" fill="#383838" stroke="#252526" stroke-linejoin="round"/>
<path d="M242.18 54.9598C246.239 54.9598 249.53 51.6691 249.53 47.6098C249.53 43.5505 246.239 40.2598 242.18 40.2598C238.121 40.2598 234.83 43.5505 234.83 47.6098C234.83 51.6691 238.121 54.9598 242.18 54.9598Z" fill="#ECEDEB" stroke="#252526" stroke-linejoin="round"/>
<path d="M237.47 121.801L242.68 123.061" stroke="#252526" stroke-miterlimit="10" stroke-linecap="round"/>
<path d="M237.85 120.221L243.06 121.471" stroke="#252526" stroke-miterlimit="10" stroke-linecap="round"/>
</g>
<defs>
<clipPath id="clip0_3890_227544">
<rect width="284.81" height="129.74" fill="white"/>
</clipPath>
</defs>
</svg>
