<svg width="150" height="69" viewBox="0 0 150 69" fill="none" xmlns="http://www.w3.org/2000/svg">
<path d="M6.04 9.94L0.72 1.84H3.88L7.36 7.48L10.88 1.84H13.88L8.56 9.94V16H6.04V9.94ZM12.8417 11.2C12.8417 10.44 12.9751 9.75333 13.2417 9.14C13.5217 8.51333 13.8951 7.98 14.3617 7.54C14.8284 7.1 15.3817 6.76 16.0217 6.52C16.6617 6.28 17.3417 6.16 18.0617 6.16C18.7817 6.16 19.4617 6.28 20.1017 6.52C20.7417 6.76 21.2951 7.1 21.7617 7.54C22.2284 7.98 22.5951 8.51333 22.8617 9.14C23.1417 9.75333 23.2817 10.44 23.2817 11.2C23.2817 11.96 23.1417 12.6533 22.8617 13.28C22.5951 13.8933 22.2284 14.42 21.7617 14.86C21.2951 15.3 20.7417 15.64 20.1017 15.88C19.4617 16.12 18.7817 16.24 18.0617 16.24C17.3417 16.24 16.6617 16.12 16.0217 15.88C15.3817 15.64 14.8284 15.3 14.3617 14.86C13.8951 14.42 13.5217 13.8933 13.2417 13.28C12.9751 12.6533 12.8417 11.96 12.8417 11.2ZM15.2417 11.2C15.2417 11.5733 15.3017 11.9333 15.4217 12.28C15.5551 12.6267 15.7417 12.9333 15.9817 13.2C16.2351 13.4667 16.5351 13.68 16.8817 13.84C17.2284 14 17.6217 14.08 18.0617 14.08C18.5017 14.08 18.8951 14 19.2417 13.84C19.5884 13.68 19.8817 13.4667 20.1217 13.2C20.3751 12.9333 20.5617 12.6267 20.6817 12.28C20.8151 11.9333 20.8817 11.5733 20.8817 11.2C20.8817 10.8267 20.8151 10.4667 20.6817 10.12C20.5617 9.77333 20.3751 9.46667 20.1217 9.2C19.8817 8.93333 19.5884 8.72 19.2417 8.56C18.8951 8.4 18.5017 8.32 18.0617 8.32C17.6217 8.32 17.2284 8.4 16.8817 8.56C16.5351 8.72 16.2351 8.93333 15.9817 9.2C15.7417 9.46667 15.5551 9.77333 15.4217 10.12C15.3017 10.4667 15.2417 10.8267 15.2417 11.2ZM34.4888 16H32.2088V14.46H32.1687C31.9421 14.94 31.5954 15.36 31.1288 15.72C30.6621 16.0667 30.0287 16.24 29.2287 16.24C28.5887 16.24 28.0421 16.14 27.5887 15.94C27.1487 15.7267 26.7887 15.4467 26.5087 15.1C26.2287 14.74 26.0287 14.3333 25.9087 13.88C25.7887 13.4267 25.7287 12.9533 25.7287 12.46V6.4H28.1287V11.26C28.1287 11.5267 28.1421 11.8267 28.1687 12.16C28.1954 12.48 28.2621 12.7867 28.3687 13.08C28.4887 13.36 28.6621 13.6 28.8887 13.8C29.1287 13.9867 29.4621 14.08 29.8888 14.08C30.2888 14.08 30.6221 14.0133 30.8887 13.88C31.1687 13.7467 31.3954 13.5667 31.5687 13.34C31.7554 13.1133 31.8887 12.8533 31.9688 12.56C32.0487 12.2667 32.0887 11.96 32.0887 11.64V6.4H34.4888V16ZM37.4131 6.4H39.8131V7.92H39.8531C40.1198 7.36 40.4998 6.92667 40.9931 6.62C41.4865 6.31333 42.0531 6.16 42.6931 6.16C42.8398 6.16 42.9798 6.17333 43.1131 6.2C43.2598 6.22667 43.4065 6.26 43.5531 6.3V8.62C43.3531 8.56667 43.1531 8.52667 42.9531 8.5C42.7665 8.46 42.5798 8.44 42.3931 8.44C41.8331 8.44 41.3798 8.54667 41.0331 8.76C40.6998 8.96 40.4398 9.19333 40.2531 9.46C40.0798 9.72667 39.9598 9.99333 39.8931 10.26C39.8398 10.5267 39.8131 10.7267 39.8131 10.86V16H37.4131V6.4ZM51.5045 0.879999H53.9045V7.62H53.9645C54.0845 7.46 54.2379 7.3 54.4245 7.14C54.6112 6.96667 54.8379 6.80667 55.1045 6.66C55.3712 6.51333 55.6779 6.39333 56.0245 6.3C56.3712 6.20667 56.7712 6.16 57.2245 6.16C57.9045 6.16 58.5312 6.29333 59.1045 6.56C59.6779 6.81333 60.1645 7.16667 60.5645 7.62C60.9779 8.07333 61.2979 8.60667 61.5245 9.22C61.7512 9.83333 61.8645 10.4933 61.8645 11.2C61.8645 11.9067 61.7579 12.5667 61.5445 13.18C61.3312 13.7933 61.0179 14.3267 60.6045 14.78C60.1912 15.2333 59.6912 15.5933 59.1045 15.86C58.5179 16.1133 57.8579 16.24 57.1245 16.24C56.4445 16.24 55.8112 16.1067 55.2245 15.84C54.6379 15.5733 54.1712 15.1467 53.8245 14.56H53.7845V16H51.5045V0.879999ZM59.4645 11.2C59.4645 10.8267 59.3979 10.4667 59.2645 10.12C59.1445 9.77333 58.9579 9.46667 58.7045 9.2C58.4645 8.93333 58.1712 8.72 57.8245 8.56C57.4779 8.4 57.0845 8.32 56.6445 8.32C56.2045 8.32 55.8112 8.4 55.4645 8.56C55.1179 8.72 54.8179 8.93333 54.5645 9.2C54.3245 9.46667 54.1379 9.77333 54.0045 10.12C53.8845 10.4667 53.8245 10.8267 53.8245 11.2C53.8245 11.5733 53.8845 11.9333 54.0045 12.28C54.1379 12.6267 54.3245 12.9333 54.5645 13.2C54.8179 13.4667 55.1179 13.68 55.4645 13.84C55.8112 14 56.2045 14.08 56.6445 14.08C57.0845 14.08 57.4779 14 57.8245 13.84C58.1712 13.68 58.4645 13.4667 58.7045 13.2C58.9579 12.9333 59.1445 12.6267 59.2645 12.28C59.3979 11.9333 59.4645 11.5733 59.4645 11.2ZM64.3422 6.4H66.7422V16H64.3422V6.4ZM64.0022 3.14C64.0022 2.75333 64.1422 2.42 64.4222 2.14C64.7155 1.84667 65.0822 1.7 65.5222 1.7C65.9622 1.7 66.3289 1.84 66.6222 2.12C66.9289 2.38667 67.0822 2.72667 67.0822 3.14C67.0822 3.55333 66.9289 3.9 66.6222 4.18C66.3289 4.44667 65.9622 4.58 65.5222 4.58C65.0822 4.58 64.7155 4.44 64.4222 4.16C64.1422 3.86667 64.0022 3.52667 64.0022 3.14ZM69.6975 0.879999H72.0975V10.38L75.7975 6.4H78.8775L74.7575 10.76L79.1375 16H75.9575L72.1375 11.1H72.0975V16H69.6975V0.879999ZM82.5597 12.04C82.6397 12.76 82.9197 13.32 83.3997 13.72C83.8797 14.12 84.4597 14.32 85.1397 14.32C85.7397 14.32 86.2397 14.2 86.6397 13.96C87.053 13.7067 87.413 13.3933 87.7197 13.02L89.4397 14.32C88.8797 15.0133 88.253 15.5067 87.5597 15.8C86.8664 16.0933 86.1397 16.24 85.3797 16.24C84.6597 16.24 83.9797 16.12 83.3397 15.88C82.6997 15.64 82.1464 15.3 81.6797 14.86C81.213 14.42 80.8397 13.8933 80.5597 13.28C80.293 12.6533 80.1597 11.96 80.1597 11.2C80.1597 10.44 80.293 9.75333 80.5597 9.14C80.8397 8.51333 81.213 7.98 81.6797 7.54C82.1464 7.1 82.6997 6.76 83.3397 6.52C83.9797 6.28 84.6597 6.16 85.3797 6.16C86.0464 6.16 86.653 6.28 87.1997 6.52C87.7597 6.74667 88.233 7.08 88.6197 7.52C89.0197 7.96 89.3264 8.50667 89.5397 9.16C89.7664 9.8 89.8797 10.54 89.8797 11.38V12.04H82.5597ZM87.4797 10.24C87.4664 9.53333 87.2464 8.98 86.8197 8.58C86.393 8.16667 85.7997 7.96 85.0397 7.96C84.3197 7.96 83.7464 8.16667 83.3197 8.58C82.9064 8.99333 82.653 9.54667 82.5597 10.24H87.4797ZM97.142 6.4H99.742L101.822 13.12H101.862L103.802 6.4H106.402L108.482 13.12H108.522L110.522 6.4H112.942L109.682 16H107.302L105.022 9.44H104.982L102.962 16H100.482L97.142 6.4ZM114.6 6.4H117V16H114.6V6.4ZM114.26 3.14C114.26 2.75333 114.4 2.42 114.68 2.14C114.973 1.84667 115.34 1.7 115.78 1.7C116.22 1.7 116.587 1.84 116.88 2.12C117.187 2.38667 117.34 2.72667 117.34 3.14C117.34 3.55333 117.187 3.9 116.88 4.18C116.587 4.44667 116.22 4.58 115.78 4.58C115.34 4.58 114.973 4.44 114.68 4.16C114.4 3.86667 114.26 3.52667 114.26 3.14ZM119.995 0.879999H122.395V16H119.995V0.879999ZM125.41 0.879999H127.81V16H125.41V0.879999ZM2.36 30.4H4.64V31.94H4.68C4.90667 31.46 5.25333 31.0467 5.72 30.7C6.18667 30.34 6.82 30.16 7.62 30.16C8.26 30.16 8.8 30.2667 9.24 30.48C9.69333 30.6933 10.06 30.9733 10.34 31.32C10.62 31.6667 10.82 32.0667 10.94 32.52C11.06 32.9733 11.12 33.4467 11.12 33.94V40H8.72V35.14C8.72 34.8733 8.70667 34.58 8.68 34.26C8.65333 33.9267 8.58 33.62 8.46 33.34C8.35333 33.0467 8.18 32.8067 7.94 32.62C7.7 32.42 7.37333 32.32 6.96 32.32C6.56 32.32 6.22 32.3867 5.94 32.52C5.67333 32.6533 5.44667 32.8333 5.26 33.06C5.08667 33.2867 4.96 33.5467 4.88 33.84C4.8 34.1333 4.76 34.44 4.76 34.76V40H2.36V30.4ZM15.9644 36.04C16.0444 36.76 16.3244 37.32 16.8044 37.72C17.2844 38.12 17.8644 38.32 18.5444 38.32C19.1444 38.32 19.6444 38.2 20.0444 37.96C20.4577 37.7067 20.8177 37.3933 21.1244 37.02L22.8444 38.32C22.2844 39.0133 21.6577 39.5067 20.9644 39.8C20.271 40.0933 19.5444 40.24 18.7844 40.24C18.0644 40.24 17.3844 40.12 16.7444 39.88C16.1044 39.64 15.551 39.3 15.0844 38.86C14.6177 38.42 14.2444 37.8933 13.9644 37.28C13.6977 36.6533 13.5644 35.96 13.5644 35.2C13.5644 34.44 13.6977 33.7533 13.9644 33.14C14.2444 32.5133 14.6177 31.98 15.0844 31.54C15.551 31.1 16.1044 30.76 16.7444 30.52C17.3844 30.28 18.0644 30.16 18.7844 30.16C19.451 30.16 20.0577 30.28 20.6044 30.52C21.1644 30.7467 21.6377 31.08 22.0244 31.52C22.4244 31.96 22.731 32.5067 22.9444 33.16C23.171 33.8 23.2844 34.54 23.2844 35.38V36.04H15.9644ZM20.8844 34.24C20.871 33.5333 20.651 32.98 20.2244 32.58C19.7977 32.1667 19.2044 31.96 18.4444 31.96C17.7244 31.96 17.151 32.1667 16.7244 32.58C16.311 32.9933 16.0577 33.5467 15.9644 34.24H20.8844ZM24.4287 30.4H27.0487L29.6088 37.12H29.6487L32.2287 30.4H34.6888L30.9088 40H28.3487L24.4287 30.4ZM38.2198 36.04C38.2998 36.76 38.5798 37.32 39.0598 37.72C39.5398 38.12 40.1198 38.32 40.7998 38.32C41.3998 38.32 41.8998 38.2 42.2998 37.96C42.7132 37.7067 43.0732 37.3933 43.3798 37.02L45.0998 38.32C44.5398 39.0133 43.9132 39.5067 43.2198 39.8C42.5265 40.0933 41.7998 40.24 41.0398 40.24C40.3198 40.24 39.6398 40.12 38.9998 39.88C38.3598 39.64 37.8065 39.3 37.3398 38.86C36.8732 38.42 36.4998 37.8933 36.2198 37.28C35.9532 36.6533 35.8198 35.96 35.8198 35.2C35.8198 34.44 35.9532 33.7533 36.2198 33.14C36.4998 32.5133 36.8732 31.98 37.3398 31.54C37.8065 31.1 38.3598 30.76 38.9998 30.52C39.6398 30.28 40.3198 30.16 41.0398 30.16C41.7065 30.16 42.3132 30.28 42.8598 30.52C43.4198 30.7467 43.8932 31.08 44.2798 31.52C44.6798 31.96 44.9865 32.5067 45.1998 33.16C45.4265 33.8 45.5398 34.54 45.5398 35.38V36.04H38.2198ZM43.1398 34.24C43.1265 33.5333 42.9065 32.98 42.4798 32.58C42.0532 32.1667 41.4598 31.96 40.6998 31.96C39.9798 31.96 39.4065 32.1667 38.9798 32.58C38.5665 32.9933 38.3132 33.5467 38.2198 34.24H43.1398ZM47.9842 30.4H50.3842V31.92H50.4242C50.6909 31.36 51.0709 30.9267 51.5642 30.62C52.0576 30.3133 52.6242 30.16 53.2642 30.16C53.4109 30.16 53.5509 30.1733 53.6842 30.2C53.8309 30.2267 53.9776 30.26 54.1242 30.3V32.62C53.9242 32.5667 53.7242 32.5267 53.5242 32.5C53.3376 32.46 53.1509 32.44 52.9642 32.44C52.4042 32.44 51.9509 32.5467 51.6042 32.76C51.2709 32.96 51.0109 33.1933 50.8242 33.46C50.6509 33.7267 50.5309 33.9933 50.4642 34.26C50.4109 34.5267 50.3842 34.7267 50.3842 34.86V40H47.9842V30.4ZM62.0756 24.88H64.4756V31.62H64.5356C64.6556 31.46 64.809 31.3 64.9956 31.14C65.1823 30.9667 65.409 30.8067 65.6756 30.66C65.9423 30.5133 66.249 30.3933 66.5956 30.3C66.9423 30.2067 67.3423 30.16 67.7956 30.16C68.4756 30.16 69.1023 30.2933 69.6756 30.56C70.249 30.8133 70.7356 31.1667 71.1356 31.62C71.549 32.0733 71.869 32.6067 72.0956 33.22C72.3223 33.8333 72.4356 34.4933 72.4356 35.2C72.4356 35.9067 72.329 36.5667 72.1156 37.18C71.9023 37.7933 71.589 38.3267 71.1756 38.78C70.7623 39.2333 70.2623 39.5933 69.6756 39.86C69.089 40.1133 68.429 40.24 67.6956 40.24C67.0156 40.24 66.3823 40.1067 65.7956 39.84C65.209 39.5733 64.7423 39.1467 64.3956 38.56H64.3556V40H62.0756V24.88ZM70.0356 35.2C70.0356 34.8267 69.969 34.4667 69.8356 34.12C69.7156 33.7733 69.529 33.4667 69.2756 33.2C69.0356 32.9333 68.7423 32.72 68.3956 32.56C68.049 32.4 67.6556 32.32 67.2156 32.32C66.7756 32.32 66.3823 32.4 66.0356 32.56C65.689 32.72 65.389 32.9333 65.1356 33.2C64.8956 33.4667 64.709 33.7733 64.5756 34.12C64.4556 34.4667 64.3956 34.8267 64.3956 35.2C64.3956 35.5733 64.4556 35.9333 64.5756 36.28C64.709 36.6267 64.8956 36.9333 65.1356 37.2C65.389 37.4667 65.689 37.68 66.0356 37.84C66.3823 38 66.7756 38.08 67.2156 38.08C67.6556 38.08 68.049 38 68.3956 37.84C68.7423 37.68 69.0356 37.4667 69.2756 37.2C69.529 36.9333 69.7156 36.6267 69.8356 36.28C69.969 35.9333 70.0356 35.5733 70.0356 35.2ZM76.7933 36.04C76.8733 36.76 77.1533 37.32 77.6333 37.72C78.1133 38.12 78.6933 38.32 79.3733 38.32C79.9733 38.32 80.4733 38.2 80.8733 37.96C81.2866 37.7067 81.6466 37.3933 81.9533 37.02L83.6733 38.32C83.1133 39.0133 82.4866 39.5067 81.7933 39.8C81.0999 40.0933 80.3733 40.24 79.6133 40.24C78.8933 40.24 78.2133 40.12 77.5733 39.88C76.9333 39.64 76.3799 39.3 75.9133 38.86C75.4466 38.42 75.0733 37.8933 74.7933 37.28C74.5266 36.6533 74.3933 35.96 74.3933 35.2C74.3933 34.44 74.5266 33.7533 74.7933 33.14C75.0733 32.5133 75.4466 31.98 75.9133 31.54C76.3799 31.1 76.9333 30.76 77.5733 30.52C78.2133 30.28 78.8933 30.16 79.6133 30.16C80.2799 30.16 80.8866 30.28 81.4333 30.52C81.9933 30.7467 82.4666 31.08 82.8533 31.52C83.2533 31.96 83.5599 32.5067 83.7733 33.16C83.9999 33.8 84.1133 34.54 84.1133 35.38V36.04H76.7933ZM81.7133 34.24C81.6999 33.5333 81.4799 32.98 81.0533 32.58C80.6266 32.1667 80.0333 31.96 79.2733 31.96C78.5533 31.96 77.9799 32.1667 77.5533 32.58C77.1399 32.9933 76.8866 33.5467 76.7933 34.24H81.7133ZM92.1956 35.2C92.1956 34.44 92.329 33.7533 92.5956 33.14C92.8756 32.5133 93.249 31.98 93.7156 31.54C94.1823 31.1 94.7356 30.76 95.3756 30.52C96.0156 30.28 96.6956 30.16 97.4156 30.16C98.1356 30.16 98.8156 30.28 99.4556 30.52C100.096 30.76 100.649 31.1 101.116 31.54C101.582 31.98 101.949 32.5133 102.216 33.14C102.496 33.7533 102.636 34.44 102.636 35.2C102.636 35.96 102.496 36.6533 102.216 37.28C101.949 37.8933 101.582 38.42 101.116 38.86C100.649 39.3 100.096 39.64 99.4556 39.88C98.8156 40.12 98.1356 40.24 97.4156 40.24C96.6956 40.24 96.0156 40.12 95.3756 39.88C94.7356 39.64 94.1823 39.3 93.7156 38.86C93.249 38.42 92.8756 37.8933 92.5956 37.28C92.329 36.6533 92.1956 35.96 92.1956 35.2ZM94.5956 35.2C94.5956 35.5733 94.6556 35.9333 94.7756 36.28C94.909 36.6267 95.0956 36.9333 95.3356 37.2C95.589 37.4667 95.889 37.68 96.2356 37.84C96.5823 38 96.9756 38.08 97.4156 38.08C97.8556 38.08 98.249 38 98.5956 37.84C98.9423 37.68 99.2356 37.4667 99.4756 37.2C99.729 36.9333 99.9156 36.6267 100.036 36.28C100.169 35.9333 100.236 35.5733 100.236 35.2C100.236 34.8267 100.169 34.4667 100.036 34.12C99.9156 33.7733 99.729 33.4667 99.4756 33.2C99.2356 32.9333 98.9423 32.72 98.5956 32.56C98.249 32.4 97.8556 32.32 97.4156 32.32C96.9756 32.32 96.5823 32.4 96.2356 32.56C95.889 32.72 95.589 32.9333 95.3356 33.2C95.0956 33.4667 94.909 33.7733 94.7756 34.12C94.6556 34.4667 94.5956 34.8267 94.5956 35.2ZM113.843 40H111.563V38.46H111.523C111.296 38.94 110.949 39.36 110.483 39.72C110.016 40.0667 109.383 40.24 108.583 40.24C107.943 40.24 107.396 40.14 106.943 39.94C106.503 39.7267 106.143 39.4467 105.863 39.1C105.583 38.74 105.383 38.3333 105.263 37.88C105.143 37.4267 105.083 36.9533 105.083 36.46V30.4H107.483V35.26C107.483 35.5267 107.496 35.8267 107.523 36.16C107.549 36.48 107.616 36.7867 107.723 37.08C107.843 37.36 108.016 37.6 108.243 37.8C108.483 37.9867 108.816 38.08 109.243 38.08C109.643 38.08 109.976 38.0133 110.243 37.88C110.523 37.7467 110.749 37.5667 110.923 37.34C111.109 37.1133 111.243 36.8533 111.323 36.56C111.403 36.2667 111.443 35.96 111.443 35.64V30.4H113.843V40ZM115.647 32.44V30.4H117.627V27.62H120.027V30.4H122.667V32.44H120.027V36.64C120.027 37.12 120.114 37.5 120.287 37.78C120.474 38.06 120.834 38.2 121.367 38.2C121.58 38.2 121.814 38.18 122.067 38.14C122.32 38.0867 122.52 38.0067 122.667 37.9V39.92C122.414 40.04 122.1 40.12 121.727 40.16C121.367 40.2133 121.047 40.24 120.767 40.24C120.127 40.24 119.6 40.1667 119.187 40.02C118.787 39.8867 118.467 39.68 118.227 39.4C118 39.1067 117.84 38.7467 117.747 38.32C117.667 37.8933 117.627 37.4 117.627 36.84V32.44H115.647ZM130.378 35.2C130.378 34.44 130.512 33.7533 130.778 33.14C131.058 32.5133 131.432 31.98 131.898 31.54C132.365 31.1 132.918 30.76 133.558 30.52C134.198 30.28 134.878 30.16 135.598 30.16C136.318 30.16 136.998 30.28 137.638 30.52C138.278 30.76 138.832 31.1 139.298 31.54C139.765 31.98 140.132 32.5133 140.398 33.14C140.678 33.7533 140.818 34.44 140.818 35.2C140.818 35.96 140.678 36.6533 140.398 37.28C140.132 37.8933 139.765 38.42 139.298 38.86C138.832 39.3 138.278 39.64 137.638 39.88C136.998 40.12 136.318 40.24 135.598 40.24C134.878 40.24 134.198 40.12 133.558 39.88C132.918 39.64 132.365 39.3 131.898 38.86C131.432 38.42 131.058 37.8933 130.778 37.28C130.512 36.6533 130.378 35.96 130.378 35.2ZM132.778 35.2C132.778 35.5733 132.838 35.9333 132.958 36.28C133.092 36.6267 133.278 36.9333 133.518 37.2C133.772 37.4667 134.072 37.68 134.418 37.84C134.765 38 135.158 38.08 135.598 38.08C136.038 38.08 136.432 38 136.778 37.84C137.125 37.68 137.418 37.4667 137.658 37.2C137.912 36.9333 138.098 36.6267 138.218 36.28C138.352 35.9333 138.418 35.5733 138.418 35.2C138.418 34.8267 138.352 34.4667 138.218 34.12C138.098 33.7733 137.912 33.4667 137.658 33.2C137.418 32.9333 137.125 32.72 136.778 32.56C136.432 32.4 136.038 32.32 135.598 32.32C135.158 32.32 134.765 32.4 134.418 32.56C134.072 32.72 133.772 32.9333 133.518 33.2C133.278 33.4667 133.092 33.7733 132.958 34.12C132.838 34.4667 132.778 34.8267 132.778 35.2ZM144.125 32.44H142.145V30.4H144.125V29.04C144.125 28.3733 144.172 27.7733 144.265 27.24C144.359 26.6933 144.532 26.2267 144.785 25.84C145.052 25.4533 145.419 25.16 145.885 24.96C146.352 24.7467 146.959 24.64 147.705 24.64C148.252 24.64 148.759 24.6867 149.225 24.78L149.065 26.82C148.892 26.78 148.725 26.7467 148.565 26.72C148.405 26.6933 148.239 26.68 148.065 26.68C147.732 26.68 147.465 26.7333 147.265 26.84C147.065 26.9467 146.905 27.0933 146.785 27.28C146.679 27.4533 146.605 27.66 146.565 27.9C146.539 28.14 146.525 28.3933 146.525 28.66V30.4H148.745V32.44H146.525V40H144.125V32.44ZM7.48 57.06C7.01333 56.4067 6.38667 56.08 5.6 56.08C5.28 56.08 4.96667 56.16 4.66 56.32C4.35333 56.48 4.2 56.74 4.2 57.1C4.2 57.3933 4.32667 57.6067 4.58 57.74C4.83333 57.8733 5.15333 57.9867 5.54 58.08C5.92667 58.1733 6.34 58.2733 6.78 58.38C7.23333 58.4733 7.65333 58.6267 8.04 58.84C8.42667 59.04 8.74667 59.32 9 59.68C9.25333 60.04 9.38 60.5333 9.38 61.16C9.38 61.7333 9.25333 62.22 9 62.62C8.76 63.0067 8.44 63.32 8.04 63.56C7.65333 63.8 7.21333 63.9733 6.72 64.08C6.22667 64.1867 5.73333 64.24 5.24 64.24C4.49333 64.24 3.80667 64.1333 3.18 63.92C2.55333 63.7067 1.99333 63.32 1.5 62.76L3.1 61.26C3.40667 61.6067 3.73333 61.8933 4.08 62.12C4.44 62.3333 4.87333 62.44 5.38 62.44C5.55333 62.44 5.73333 62.42 5.92 62.38C6.10667 62.34 6.28 62.2733 6.44 62.18C6.6 62.0867 6.72667 61.9733 6.82 61.84C6.92667 61.6933 6.98 61.5267 6.98 61.34C6.98 61.0067 6.85333 60.76 6.6 60.6C6.34667 60.44 6.02667 60.3133 5.64 60.22C5.25333 60.1133 4.83333 60.02 4.38 59.94C3.94 59.8467 3.52667 59.7067 3.14 59.52C2.75333 59.32 2.43333 59.0467 2.18 58.7C1.92667 58.3533 1.8 57.8733 1.8 57.26C1.8 56.7267 1.90667 56.2667 2.12 55.88C2.34667 55.48 2.64 55.1533 3 54.9C3.36 54.6467 3.77333 54.46 4.24 54.34C4.70667 54.22 5.18 54.16 5.66 54.16C6.3 54.16 6.93333 54.2733 7.56 54.5C8.18667 54.7133 8.69333 55.0867 9.08 55.62L7.48 57.06ZM11.4867 54.4H13.8867V64H11.4867V54.4ZM11.1467 51.14C11.1467 50.7533 11.2867 50.42 11.5667 50.14C11.8601 49.8467 12.2267 49.7 12.6667 49.7C13.1067 49.7 13.4734 49.84 13.7667 50.12C14.0734 50.3867 14.2267 50.7267 14.2267 51.14C14.2267 51.5533 14.0734 51.9 13.7667 52.18C13.4734 52.4467 13.1067 52.58 12.6667 52.58C12.2267 52.58 11.8601 52.44 11.5667 52.16C11.2867 51.8667 11.1467 51.5267 11.1467 51.14ZM26.722 54.4V63.14C26.722 64.0067 26.6154 64.7867 26.402 65.48C26.1887 66.1867 25.8554 66.78 25.402 67.26C24.962 67.7533 24.402 68.1333 23.722 68.4C23.042 68.6667 22.2354 68.8 21.302 68.8C20.4087 68.8 19.562 68.6867 18.762 68.46C17.962 68.2333 17.222 67.82 16.542 67.22L17.982 65.26C18.462 65.7 18.962 66.04 19.482 66.28C20.002 66.52 20.602 66.64 21.282 66.64C21.8554 66.64 22.3354 66.56 22.722 66.4C23.122 66.24 23.4354 66.02 23.662 65.74C23.902 65.46 24.0687 65.12 24.162 64.72C24.2687 64.3333 24.322 63.9 24.322 63.42V62.72H24.282C23.9354 63.1867 23.4754 63.54 22.902 63.78C22.3287 64.0067 21.742 64.12 21.142 64.12C20.422 64.12 19.7687 63.9933 19.182 63.74C18.5954 63.4733 18.0887 63.12 17.662 62.68C17.2487 62.24 16.9287 61.72 16.702 61.12C16.4754 60.52 16.362 59.88 16.362 59.2C16.362 58.4933 16.4687 57.8333 16.682 57.22C16.8954 56.6067 17.2087 56.0733 17.622 55.62C18.0354 55.1667 18.5287 54.8133 19.102 54.56C19.6887 54.2933 20.3554 54.16 21.102 54.16C21.782 54.16 22.4154 54.2933 23.002 54.56C23.5887 54.8267 24.0554 55.2533 24.402 55.84H24.442V54.4H26.722ZM21.602 56.32C21.1754 56.32 20.7887 56.3933 20.442 56.54C20.0954 56.6733 19.7954 56.8667 19.542 57.12C19.302 57.36 19.1087 57.66 18.962 58.02C18.8287 58.3667 18.762 58.7533 18.762 59.18C18.762 59.5667 18.8287 59.9267 18.962 60.26C19.1087 60.5933 19.3087 60.8867 19.562 61.14C19.8154 61.3933 20.1154 61.5933 20.462 61.74C20.8087 61.8867 21.182 61.96 21.582 61.96C22.022 61.96 22.4154 61.8867 22.762 61.74C23.122 61.5933 23.422 61.4 23.662 61.16C23.9154 60.9067 24.1087 60.6067 24.242 60.26C24.3754 59.9133 24.442 59.54 24.442 59.14C24.442 58.3 24.1887 57.62 23.682 57.1C23.1754 56.58 22.482 56.32 21.602 56.32ZM32.0397 55.74H32.0797C32.2664 55.34 32.593 54.98 33.0597 54.66C33.5397 54.3267 34.153 54.16 34.8997 54.16C35.5397 54.16 36.0797 54.2667 36.5197 54.48C36.973 54.6933 37.3397 54.9733 37.6197 55.32C37.8997 55.6667 38.0997 56.0667 38.2197 56.52C38.3397 56.9733 38.3997 57.4467 38.3997 57.94V64H35.9997V59.14C35.9997 58.8733 35.9864 58.58 35.9597 58.26C35.933 57.9267 35.8597 57.62 35.7397 57.34C35.633 57.0467 35.4597 56.8067 35.2197 56.62C34.9797 56.42 34.653 56.32 34.2397 56.32C33.8397 56.32 33.4997 56.3867 33.2197 56.52C32.953 56.6533 32.7264 56.8333 32.5397 57.06C32.3664 57.2867 32.2397 57.5467 32.1597 57.84C32.0797 58.1333 32.0397 58.44 32.0397 58.76V64H29.6397V48.88H32.0397V55.74ZM40.2041 56.44V54.4H42.1841V51.62H44.5841V54.4H47.2241V56.44H44.5841V60.64C44.5841 61.12 44.6707 61.5 44.8441 61.78C45.0307 62.06 45.3907 62.2 45.9241 62.2C46.1374 62.2 46.3707 62.18 46.6241 62.14C46.8774 62.0867 47.0774 62.0067 47.2241 61.9V63.92C46.9707 64.04 46.6574 64.12 46.2841 64.16C45.9241 64.2133 45.6041 64.24 45.3241 64.24C44.6841 64.24 44.1574 64.1667 43.7441 64.02C43.3441 63.8867 43.0241 63.68 42.7841 63.4C42.5574 63.1067 42.3974 62.7467 42.3041 62.32C42.2241 61.8933 42.1841 61.4 42.1841 60.84V56.44H40.2041ZM49.2975 62.6C49.2975 62.1733 49.4508 61.8067 49.7575 61.5C50.0775 61.1933 50.4575 61.04 50.8975 61.04C51.3242 61.04 51.6975 61.1867 52.0175 61.48C52.3375 61.7733 52.4975 62.1333 52.4975 62.56C52.4975 62.9867 52.3375 63.3533 52.0175 63.66C51.7108 63.9667 51.3375 64.12 50.8975 64.12C50.6842 64.12 50.4775 64.08 50.2775 64C50.0908 63.92 49.9242 63.8133 49.7775 63.68C49.6308 63.5467 49.5108 63.3867 49.4175 63.2C49.3375 63.0133 49.2975 62.8133 49.2975 62.6Z" fill="#3F3F3F"/>
</svg>
