<svg width="257" height="286" viewBox="0 0 257 286" fill="none" xmlns="http://www.w3.org/2000/svg">
<g clip-path="url(#clip0_3512_65814)">
<path d="M121.655 231.789V283.259C121.655 284.303 122.501 285.149 123.545 285.149H147.275C148.319 285.149 149.165 284.303 149.165 283.259V231.789C149.165 230.746 148.319 229.899 147.275 229.899H123.545C122.501 229.899 121.655 230.746 121.655 231.789Z" fill="#252526" stroke="#252526" stroke-linecap="round" stroke-linejoin="round"/>
<path d="M123.995 284.13H146.805C147.501 284.13 148.065 283.566 148.065 282.87V232.18C148.065 231.484 147.501 230.92 146.805 230.92H123.995C123.299 230.92 122.735 231.484 122.735 232.18V282.87C122.735 283.566 123.299 284.13 123.995 284.13Z" fill="#ECEDEB"/>
<path d="M130.405 255.799L131.595 255.989C131.715 256.369 131.855 256.729 132.045 257.069L131.345 258.039C131.265 258.139 131.285 258.289 131.365 258.369L133.085 260.089C133.175 260.179 133.315 260.189 133.415 260.109L134.385 259.409C134.725 259.599 135.085 259.739 135.465 259.859L135.655 261.049C135.675 261.169 135.785 261.269 135.915 261.269H138.355C138.475 261.269 138.585 261.179 138.615 261.049L138.805 259.859C139.185 259.739 139.545 259.599 139.885 259.409L140.855 260.109C140.955 260.189 141.105 260.169 141.185 260.089L142.915 258.369C143.005 258.279 143.015 258.139 142.935 258.039L142.235 257.069C142.425 256.729 142.565 256.369 142.685 255.989L143.875 255.799C143.995 255.779 144.095 255.669 144.095 255.539V253.099C144.095 252.979 144.005 252.869 143.875 252.839L142.685 252.649C142.565 252.269 142.425 251.909 142.235 251.569L142.935 250.599C143.015 250.499 142.995 250.349 142.915 250.269L141.195 248.549C141.105 248.459 140.965 248.449 140.865 248.529L139.895 249.229C139.555 249.039 139.195 248.899 138.815 248.779L138.625 247.589C138.605 247.469 138.495 247.369 138.365 247.369H135.925C135.805 247.369 135.695 247.459 135.665 247.589L135.475 248.779C135.095 248.899 134.735 249.039 134.395 249.229L133.425 248.529C133.325 248.449 133.175 248.469 133.095 248.549L131.375 250.269C131.285 250.359 131.275 250.499 131.355 250.599L132.055 251.569C131.865 251.909 131.725 252.269 131.605 252.649L130.415 252.839C130.295 252.859 130.195 252.969 130.195 253.099V255.539C130.195 255.659 130.285 255.769 130.415 255.799H130.405ZM137.145 251.229C138.855 251.229 140.235 252.609 140.235 254.319C140.235 256.029 138.855 257.409 137.145 257.409C135.435 257.409 134.055 256.029 134.055 254.319C134.055 252.609 135.435 251.229 137.145 251.229Z" fill="#6A51CA"/>
<path d="M126.815 265.489L127.415 265.589C127.475 265.779 127.545 265.959 127.635 266.129L127.285 266.619C127.245 266.669 127.255 266.739 127.295 266.789L128.155 267.649C128.155 267.649 128.275 267.699 128.325 267.659L128.815 267.309C128.985 267.399 129.165 267.479 129.355 267.529L129.455 268.129C129.465 268.189 129.525 268.239 129.585 268.239H130.805C130.865 268.239 130.925 268.189 130.935 268.129L131.035 267.529C131.225 267.469 131.405 267.399 131.575 267.309L132.065 267.659C132.115 267.699 132.185 267.689 132.235 267.649L133.105 266.789C133.105 266.789 133.155 266.669 133.115 266.619L132.765 266.129C132.855 265.959 132.935 265.779 132.985 265.589L133.585 265.489C133.645 265.479 133.695 265.419 133.695 265.359V264.139C133.695 264.079 133.645 264.019 133.585 264.009L132.985 263.909C132.925 263.719 132.855 263.539 132.765 263.369L133.115 262.879C133.155 262.829 133.145 262.759 133.105 262.709L132.245 261.849C132.245 261.849 132.125 261.799 132.075 261.839L131.585 262.189C131.415 262.099 131.235 262.019 131.045 261.969L130.945 261.369C130.935 261.309 130.875 261.259 130.815 261.259H129.595C129.535 261.259 129.475 261.309 129.465 261.369L129.365 261.969C129.175 262.029 128.995 262.099 128.825 262.189L128.335 261.839C128.285 261.799 128.215 261.809 128.165 261.849L127.305 262.709C127.305 262.709 127.255 262.829 127.295 262.879L127.645 263.369C127.555 263.539 127.475 263.719 127.425 263.909L126.825 264.009C126.765 264.019 126.715 264.079 126.715 264.139V265.359C126.715 265.419 126.765 265.479 126.825 265.489H126.815ZM130.185 263.199C131.035 263.199 131.735 263.889 131.735 264.749C131.735 265.609 131.045 266.299 130.185 266.299C129.325 266.299 128.635 265.609 128.635 264.749C128.635 263.889 129.325 263.199 130.185 263.199Z" fill="#6A51CA"/>
<path d="M144.515 29.7158L139.326 29.6769C139.096 29.6751 138.907 29.4837 138.909 29.2537C138.911 29.0237 139.102 28.8352 139.332 28.8369L144.522 28.8758L144.515 29.7158Z" fill="#ECEDEB" stroke="#252526" stroke-width="0.5" stroke-linejoin="round"/>
<path d="M144.215 29.8203H147.645C147.733 29.8203 147.805 29.7487 147.805 29.6603V28.8703C147.805 28.7819 147.733 28.7103 147.645 28.7103H144.215C144.127 28.7103 144.055 28.7819 144.055 28.8703V29.6603C144.055 29.7487 144.127 29.8203 144.215 29.8203Z" fill="#A0A0A0" stroke="#252526" stroke-width="0.5" stroke-linejoin="round"/>
<path d="M113.585 12.7695C105.995 12.7695 99.845 18.9195 99.845 26.5095C99.845 34.0995 105.995 40.2495 113.585 40.2495C121.175 40.2495 127.325 34.0995 127.325 26.5095C127.325 18.9195 121.175 12.7695 113.585 12.7695ZM113.585 37.9095C107.285 37.9095 102.185 32.8095 102.185 26.5095C102.185 20.2095 107.285 15.1095 113.585 15.1095C119.885 15.1095 124.985 20.2095 124.985 26.5095C124.985 32.8095 119.885 37.9095 113.585 37.9095Z" fill="#383838" stroke="#252526" stroke-width="0.5" stroke-linejoin="round"/>
<path d="M157.225 12.7695C149.635 12.7695 143.485 18.9195 143.485 26.5095C143.485 34.0995 149.635 40.2495 157.225 40.2495C164.815 40.2495 170.965 34.0995 170.965 26.5095C170.965 18.9195 164.815 12.7695 157.225 12.7695ZM157.225 37.9095C150.925 37.9095 145.825 32.8095 145.825 26.5095C145.825 20.2095 150.925 15.1095 157.225 15.1095C163.525 15.1095 168.625 20.2095 168.625 26.5095C168.625 32.8095 163.525 37.9095 157.225 37.9095Z" fill="#383838" stroke="#252526" stroke-width="0.5" stroke-linejoin="round"/>
<path d="M146.315 1.40923C147.305 1.40923 149.145 1.40923 150.065 1.25923C150.985 1.10923 152.215 0.989227 152.345 1.25923C152.475 1.52923 152.515 1.71923 151.785 2.31923C151.055 2.92923 150.335 3.21923 150.015 3.45923C149.695 3.69923 147.765 3.92923 146.515 3.42923C145.265 2.92923 144.155 2.19923 143.765 2.17923C143.375 2.15923 142.315 2.42923 141.945 2.41923C141.575 2.40923 141.485 1.96923 141.945 1.69923C142.405 1.42923 145.455 1.40923 146.305 1.40923H146.315Z" fill="#9C8BDC" stroke="#252526" stroke-width="0.5" stroke-linejoin="round"/>
<path d="M141.125 28.2397C141.125 28.2397 155.245 26.5797 155.715 26.5097C156.185 26.4397 156.465 26.7297 156.495 26.9297C156.525 27.1297 156.415 27.4097 155.945 27.5697C155.475 27.7297 141.355 29.8397 141.355 29.8397L141.115 28.2297L141.125 28.2397Z" fill="#ECEDEB" stroke="#252526" stroke-width="0.5" stroke-linejoin="round"/>
<path d="M124.295 4.26957C124.295 4.26957 124.995 2.38957 125.065 2.12957C125.135 1.86957 125.045 1.81957 124.675 1.65957C124.305 1.49957 122.575 0.92957 122.215 0.76957C121.855 0.60957 120.965 0.29957 120.695 0.26957C120.425 0.23957 120.145 0.23957 119.725 0.26957C119.305 0.29957 118.685 0.34957 118.885 0.86957C119.085 1.38957 119.135 1.63957 119.375 1.55957C119.805 1.39957 120.515 1.37957 120.905 1.51957C121.215 1.62957 122.535 2.12957 122.815 2.25957C123.095 2.38957 123.155 2.40957 123.055 2.64957C122.955 2.88957 122.635 3.78957 122.635 3.78957L124.295 4.26957Z" fill="#7A7A79" stroke="#252526" stroke-width="0.5" stroke-linejoin="round"/>
<path d="M139.365 33.2598C141.574 33.2598 143.365 31.4689 143.365 29.2598C143.365 27.0506 141.574 25.2598 139.365 25.2598C137.156 25.2598 135.365 27.0506 135.365 29.2598C135.365 31.4689 137.156 33.2598 139.365 33.2598Z" fill="#ECEDEB" stroke="#252526" stroke-width="0.5" stroke-linejoin="round"/>
<path d="M157.475 26.1592C157.295 25.9592 146.845 14.6892 145.065 12.7792C146.415 8.20918 147.645 4.09918 147.645 4.09918C147.765 3.70918 147.805 3.70918 147.425 3.66918C147.145 3.63918 146.745 3.51918 146.445 3.40918C146.325 3.79918 144.615 9.46918 144.535 9.69918C144.455 9.93918 144.495 10.1692 144.065 10.0092C143.635 9.84918 124.525 5.02918 124.205 4.86918C124.205 4.86918 124.245 4.59918 124.295 4.26918C124.295 4.23918 122.435 3.72918 122.295 3.69918C122.145 3.65918 121.715 5.11918 121.455 5.81918C120.775 7.66918 120.035 9.68918 119.295 11.5192C118.435 13.6492 117.585 15.7792 116.725 17.8992C116.005 19.6792 115.285 21.4692 114.565 23.2492C114.245 24.0492 113.945 24.8692 113.585 25.6592C113.265 26.3692 113.065 26.7992 113.325 26.9292C113.525 27.0392 113.755 27.1692 114.105 26.5092C114.455 25.8492 121.635 12.0492 121.795 11.7692C121.955 11.4892 122.265 11.4592 122.545 11.7692C122.825 12.0792 133.685 27.9292 133.995 28.4792C134.305 29.0292 135.735 30.9192 135.735 30.9192C135.735 30.9192 135.125 29.6592 135.485 28.3192C135.855 26.9892 136.555 26.4192 136.555 26.4192C136.555 26.4192 125.635 10.3592 125.165 9.64918C124.695 8.93918 123.795 7.91918 123.755 7.37918C123.715 6.83918 124.255 6.51918 124.985 6.66918C125.715 6.82918 143.165 10.7892 143.555 10.9392C143.945 11.0992 144.065 11.1392 143.945 11.5692C143.825 11.9992 141.475 19.2992 141.395 19.5292C141.355 19.6492 141.355 19.6892 141.325 19.7492L139.535 25.2692C139.735 25.2792 139.915 25.2992 140.085 25.3292C140.625 25.4092 141.225 25.7292 141.225 25.7292C141.225 25.7292 142.645 20.9492 144.635 14.2192C146.465 16.0892 156.155 26.0092 156.645 26.5092C157.185 27.0692 157.345 26.9492 157.475 26.8592C157.595 26.7792 157.855 26.5892 157.475 26.1592Z" fill="#ECEDEB" stroke="#252526" stroke-width="0.5" stroke-linejoin="round"/>
<path d="M113.585 29.5897C115.286 29.5897 116.665 28.2107 116.665 26.5097C116.665 24.8087 115.286 23.4297 113.585 23.4297C111.884 23.4297 110.505 24.8087 110.505 26.5097C110.505 28.2107 111.884 29.5897 113.585 29.5897Z" fill="#ECEDEB" stroke="#252526" stroke-width="0.5" stroke-linejoin="round"/>
<path d="M157.225 29.5897C158.926 29.5897 160.305 28.2107 160.305 26.5097C160.305 24.8087 158.926 23.4297 157.225 23.4297C155.524 23.4297 154.145 24.8087 154.145 26.5097C154.145 28.2107 155.524 29.5897 157.225 29.5897Z" fill="#ECEDEB" stroke="#252526" stroke-width="0.5" stroke-linejoin="round"/>
<path d="M134.218 28.8779L139.408 28.839C139.638 28.8373 139.829 29.0258 139.831 29.2558C139.833 29.4858 139.644 29.6772 139.414 29.679L134.224 29.7179L134.218 28.8779Z" fill="#ECEDEB" stroke="#252526" stroke-width="0.5" stroke-linejoin="round"/>
<path d="M134.505 28.6992H131.075C130.987 28.6992 130.915 28.7709 130.915 28.8592V29.6492C130.915 29.7376 130.987 29.8092 131.075 29.8092H134.505C134.593 29.8092 134.665 29.7376 134.665 29.6492V28.8592C134.665 28.7709 134.593 28.6992 134.505 28.6992Z" fill="#A0A0A0" stroke="#252526" stroke-width="0.5" stroke-linejoin="round"/>
<path d="M228.055 130.619C227.875 108.039 219.615 87.3895 206.025 71.4095C189.025 51.4195 163.705 38.7295 135.405 38.7295C109.535 38.7295 86.155 49.3295 69.345 66.4195C52.895 83.1395 42.755 106.07 42.755 131.38C42.755 132.24 42.765 133.1 42.795 133.96C44.165 183.939 85.105 224.039 135.415 224.039C185.725 224.039 228.075 182.56 228.075 131.38C228.075 131.119 228.075 130.869 228.075 130.609L228.055 130.619Z" fill="#ECEDEB" stroke="#252526" stroke-linecap="round" stroke-linejoin="round"/>
<mask id="mask0_3512_65814" style="mask-type:luminance" maskUnits="userSpaceOnUse" x="42" y="38" width="187" height="187">
<path d="M228.055 130.619C227.875 108.039 219.615 87.3895 206.025 71.4095C189.025 51.4195 163.705 38.7295 135.405 38.7295C109.535 38.7295 86.155 49.3295 69.345 66.4195C52.895 83.1395 42.755 106.07 42.755 131.38C42.755 132.24 42.765 133.1 42.795 133.96C44.165 183.939 85.105 224.039 135.415 224.039C185.725 224.039 228.075 182.56 228.075 131.38C228.075 131.119 228.075 130.869 228.075 130.609L228.055 130.619Z" fill="white"/>
</mask>
<g mask="url(#mask0_3512_65814)">
<path d="M75.255 68.8595C74.835 65.4895 73.125 67.2095 77.085 62.4095C81.035 57.6095 84.425 58.7395 87.245 56.4795C90.065 54.2195 94.585 55.6895 95.715 52.5295C96.845 49.3695 97.645 51.3995 102.185 52.5295C106.725 53.6595 107.295 56.1995 104.745 57.6095C102.205 59.0195 103.235 61.2795 106.245 60.7195C109.255 60.1495 111.235 58.1795 112.085 60.7195C112.935 63.2595 111.235 61.8495 109.265 67.2095C107.285 72.5695 106.155 75.6795 106.155 79.3495C106.155 83.0195 99.895 86.4095 102.175 89.7995C104.455 93.1895 107.565 93.4695 104.175 96.8595C100.785 100.25 97.115 98.5495 94.855 102.51C92.595 106.47 92.875 112.96 90.055 112.11C87.235 111.26 86.105 113.24 84.405 106.75C82.715 100.26 85.815 99.9695 84.685 95.7395C83.555 91.4995 81.575 92.3495 80.735 86.6995C79.885 81.0495 77.895 78.7895 74.935 79.9195C71.975 81.0495 70.365 75.7595 71.495 73.2195C72.625 70.6795 75.515 71.1095 75.235 68.8595H75.255Z" fill="#CECFCF" stroke="#252526" stroke-linecap="round" stroke-linejoin="round"/>
<path d="M139.365 66.9297C136.365 66.1397 136.595 66.5797 134.665 66.9297C132.735 67.2797 133.925 68.4197 131.695 68.5497C129.465 68.6797 127.855 69.0797 128.835 72.0097C129.815 74.9397 130.915 80.6197 132.795 80.2397C134.675 79.8597 134.245 77.7297 135.445 75.9197C136.645 74.1097 136.645 71.5997 138.315 71.0397C139.985 70.4797 140.205 67.1497 139.365 66.9297Z" fill="#CECFCF" stroke="#252526" stroke-linecap="round" stroke-linejoin="round"/>
<path d="M145.565 141.58C146.715 139.35 147.515 139.49 145.565 138.79C143.615 138.09 140.675 139.49 139.845 137.26C139.015 135.03 139.435 134.19 137.895 134.89C136.355 135.59 138.735 140.23 136.505 138.12C134.275 136.01 134.695 132.08 132.605 131.4C130.515 130.72 132.465 130.69 129.395 131.4C126.325 132.11 124.795 131.41 123.675 133.5C122.555 135.59 123.115 137.26 120.465 137.54C117.815 137.82 115.725 139.49 114.885 136.98C114.045 134.47 114.465 133.5 114.885 132.24C115.305 130.98 120.745 132.66 120.045 130.15C119.345 127.64 115.725 126.8 118.795 125.83C121.865 124.85 123.955 125.55 124.375 123.18C124.795 120.81 127.725 121.37 127.165 119.56C126.605 117.75 127.795 114.96 128.175 116.35C128.555 117.74 128.175 121.93 130.535 120.81C132.885 119.69 135.715 118.3 135.415 116.77C135.115 115.24 135.255 115.38 137.485 114.54C139.715 113.7 143.605 113.04 139.845 112.19C136.085 111.34 133.485 111.76 135.415 109.25C137.345 106.74 140.275 102.98 137.485 104.51C134.695 106.04 132.325 106.88 132.185 109.95C132.045 113.02 132.225 116.92 130.535 115.25C128.845 113.58 127.585 116.09 125.635 114.55C123.685 113.02 123.825 114.13 124.655 111.48C125.495 108.83 128.555 109.11 129.255 105.21C129.955 101.31 131.325 98.9398 134.195 97.3998C137.065 95.8598 137.205 94.0498 140.545 94.6098C143.895 95.1698 142.775 95.8598 145.705 97.6798C148.635 99.4998 151.565 101.44 149.465 102.14C147.375 102.84 148.785 104.79 150.175 104.51C151.555 104.23 153.095 102 155.185 100.47C157.275 98.9398 161.735 100.05 162.575 97.9598C163.415 95.8698 163.555 96.4298 165.785 96.9798C168.015 97.5398 169.405 98.9298 169.135 95.8598C168.855 92.7898 168.715 89.8698 170.665 89.1698C172.615 88.4698 170.945 90.1498 172.755 91.9598C174.565 93.7698 176.245 93.7698 177.635 91.5398C179.025 89.3098 179.025 87.7798 181.125 85.8198C183.215 83.8698 183.355 82.4998 186.425 81.5098C189.495 80.5198 191.445 78.2898 193.675 77.7298C195.905 77.1698 194.795 81.2498 197.575 80.2598C200.355 79.2698 201.895 81.0798 201.195 83.4498C200.495 85.8198 195.065 88.7498 198.265 88.3298C201.475 87.9098 202.165 88.1898 204.395 88.6098C206.625 89.0298 205.785 86.3798 208.855 87.6298C211.925 88.8798 212.065 88.6098 212.065 90.8398C212.065 93.0698 213.185 98.0898 214.015 95.1598C214.855 92.2298 215.965 93.3498 218.475 92.3698C220.985 91.3898 218.615 88.3298 222.235 89.5798C225.855 90.8298 225.795 93.3398 228.065 93.6198C230.325 93.8998 233.395 93.1998 234.085 94.5998C234.775 95.9998 233.385 97.8098 236.455 97.3898C239.525 96.9698 241.615 95.2998 244.265 96.1398C246.915 96.9798 246.635 96.8398 249.565 98.6498C252.495 100.46 256.315 102.14 255.425 103.53C254.535 104.92 255.145 107.29 252.495 106.88C249.845 106.46 249.845 103.39 248.455 104.23C247.065 105.07 244.695 104.93 245.525 106.32C246.355 107.71 248.875 108.78 246.915 109.64C244.965 110.5 245.245 110.08 242.735 111.48C240.225 112.87 240.785 111.34 238.555 112.46C236.325 113.58 235.345 113.58 235.485 115.39C235.625 117.2 236.465 118.46 234.645 120.27C232.835 122.08 231.715 126.13 230.745 125.01C229.775 123.89 230.605 121.39 230.465 118.88C230.325 116.37 231.445 116.37 232.835 114C234.225 111.63 234.505 108.7 232.555 110.38C230.605 112.06 231.435 114.56 228.655 114.7C225.865 114.84 224.895 113.58 223.075 114.98C221.255 116.38 220.425 114 218.895 116.51C217.365 119.02 214.855 120.97 217.505 120.97C220.155 120.97 219.875 119.02 220.155 120.97C220.435 122.92 220.155 122.92 218.905 126.69C217.655 130.45 217.785 131.58 216.115 132.27C214.445 132.96 213.745 130.87 212.625 133.24C211.505 135.61 211.505 135.61 211.785 137.42C212.065 139.23 210.395 142.44 209.835 140.77C209.275 139.1 210.255 137.42 208.855 136.45C207.455 135.48 208.295 133.8 206.345 135.06C204.395 136.31 204.255 137.43 205.505 139.24C206.755 141.05 208.435 142.03 206.895 144.12C205.365 146.21 206.055 147.47 204.665 148.02C203.275 148.57 202.575 150.67 200.625 150.39C198.675 150.11 197.695 148.07 196.725 150.42C195.745 152.76 195.475 153.32 196.725 154.44C197.975 155.56 198.395 157.65 197.145 157.93C195.895 158.21 195.475 160.86 194.635 159.74C193.795 158.62 194.635 157.79 193.105 157.37C191.575 156.95 190.035 157.65 190.735 158.76C191.435 159.87 193.105 160.43 193.385 161.83C193.665 163.23 192.685 164.2 191.575 162.53C190.455 160.86 189.345 160.16 189.485 158.77C189.625 157.38 191.855 156.82 190.325 155.28C188.795 153.75 190.325 153.47 188.795 153.75C187.265 154.03 187.125 152.91 186.145 151.24C185.165 149.57 184.895 149.01 183.355 150.26C181.825 151.51 179.455 151.79 178.755 153.19C178.055 154.59 177.505 155.14 177.365 157.09C177.225 159.04 180.015 162.95 178.485 161.69C176.955 160.44 176.115 161.69 174.995 159.6C173.875 157.51 173.045 155.14 172.625 153.61C172.205 152.08 172.765 150.68 172.065 149.71C171.365 148.74 171.365 151.94 169.275 149.85C167.185 147.76 167.325 148.18 165.095 147.2C162.865 146.22 162.445 147.76 160.635 146.64C158.825 145.52 158.965 146.36 157.425 145.25C155.885 144.14 154.635 143.72 155.895 145.39C157.145 147.06 158.265 149.71 159.655 149.15C161.045 148.59 162.865 148.17 163.145 149.85C163.425 151.52 163.005 152.92 161.055 153.34C159.105 153.76 157.845 155.29 156.035 155.29C154.225 155.29 152.965 158.36 152.135 156.27C151.295 154.18 151.995 152.78 150.185 151.95C148.375 151.11 146.565 150.7 147.815 152.37C149.065 154.04 151.435 157.81 152.555 158.23C153.675 158.65 154.365 158.51 155.765 157.95C157.155 157.39 158.415 157.53 157.715 159.2C157.015 160.87 154.505 162.22 153.535 163.43C152.565 164.64 149.145 166.17 149.115 168.54C149.085 170.91 151.165 171.61 150.615 173.98C150.055 176.35 148.535 178.16 147.345 179.14C146.155 180.12 143.835 180.26 144.785 181.79C145.735 183.32 144.755 184.58 143.925 186.25C143.085 187.92 143.215 190.57 140.505 191.13C137.795 191.69 135.145 191.97 134.305 191.13C133.465 190.29 134.245 188.2 132.325 185.97C130.405 183.74 130.645 181.37 130.385 179.56C130.125 177.75 130.925 174.12 130.385 172.03C129.845 169.94 129.365 169.8 128.205 168.54C127.055 167.29 129.915 164.22 128.205 163.1C126.495 161.98 126.075 163.94 124.265 162.4C122.455 160.87 122.595 162.54 119.945 162.26C117.295 161.98 117.715 164.07 115.345 162.96C112.975 161.84 111.165 159.47 110.045 157.52C108.925 155.57 110.745 152.78 110.045 150.41C109.345 148.04 112.835 146.65 113.395 144.69C113.955 142.74 114.645 140.65 116.605 140.79C118.555 140.93 120.645 140.65 121.625 139.54C122.605 138.43 123.855 137.03 126.365 138.15C128.875 139.27 127.615 141.36 129.435 141.36C131.255 141.36 134.175 144.98 134.735 143.59C135.295 142.2 134.735 141.64 137.525 142.34C140.315 143.04 140.595 144.29 142.265 143.46C143.935 142.62 144.575 143.64 145.615 141.65L145.565 141.58Z" fill="#CECFCF" stroke="#252526" stroke-linecap="round" stroke-linejoin="round"/>
<path d="M152.255 177.829C151.695 176.579 155.325 177.409 155.465 176.019C155.605 174.629 157.415 172.399 157.415 174.349C157.415 176.299 156.715 177.839 156.025 179.929C155.325 182.019 155.745 185.369 154.075 184.949C152.405 184.529 151.285 184.809 151.425 182.859C151.565 180.909 152.815 179.099 152.265 177.839L152.255 177.829Z" fill="#CECFCF" stroke="#252526" stroke-linecap="round" stroke-linejoin="round"/>
<path d="M188.085 162.629C188.895 163.489 189.755 164.159 190.455 165.979C191.155 167.799 191.845 169.469 193.525 170.019C195.195 170.579 195.335 171.409 197.285 171.689C199.235 171.969 202.725 173.359 203.975 172.809C205.225 172.249 205.925 172.389 207.595 172.109C209.265 171.829 207.175 170.719 205.225 170.299C203.275 169.879 200.115 171.549 198.145 170.019C196.165 168.489 197.705 168.899 195.465 166.809C193.235 164.719 192.675 166.109 191.145 164.439C189.615 162.769 186.825 161.299 188.075 162.629H188.085Z" fill="#CECFCF" stroke="#252526" stroke-linecap="round" stroke-linejoin="round"/>
<path d="M201.465 162.12C202.745 160.68 204.255 159.85 204.535 161.24C204.815 162.63 203.005 163.33 203.005 165C203.005 166.67 204.125 169.04 201.475 168.07C198.825 167.09 196.315 166.4 196.735 165C197.155 163.6 200.685 163 201.475 162.11L201.465 162.12Z" fill="#CECFCF" stroke="#252526" stroke-linecap="round" stroke-linejoin="round"/>
<path d="M217.775 166.679C216.695 167.189 216.655 167.929 214.845 166.679C213.035 165.429 211.775 166.569 213.035 167.529C214.285 168.489 213.875 169.049 215.825 169.599C217.775 170.159 216.425 169.509 219.055 171.299C221.685 173.089 222.385 170.489 223.355 171.299C224.325 172.109 223.915 173.509 226.005 173.579C228.095 173.649 228.235 170.939 226.985 169.849C225.735 168.769 225.735 169.619 223.365 168.299C220.995 166.979 219.175 166.019 217.785 166.679H217.775Z" fill="#CECFCF" stroke="#252526" stroke-linecap="round" stroke-linejoin="round"/>
<path d="M218.895 177.409C217.645 176.709 216.115 176.959 216.605 176.069C217.095 175.179 218.305 174.619 216.515 174.199C214.715 173.779 213.425 173.079 212.545 174.199C211.665 175.319 210.965 175.589 209.565 176.289C208.175 176.989 208.035 177.929 205.805 179.269C203.575 180.609 201.345 179.219 201.205 181.589C201.065 183.959 200.645 184.799 201.205 186.749C201.765 188.699 203.155 189.399 202.325 190.509C201.485 191.629 202.675 193.519 204.585 192.179C206.495 190.839 208.455 189.389 211.105 190.089C213.755 190.789 214.455 188.969 215.565 190.649C216.685 192.319 216.955 192.599 218.915 193.579C220.865 194.559 221.145 197.199 223.095 195.669C225.045 194.139 227.625 193.519 227.805 191.599C227.985 189.679 229.655 188.839 229.235 186.889C228.815 184.939 229.725 184.239 227.805 182.569C225.885 180.899 226.305 182.259 224.775 179.279C223.245 176.299 222.965 176.719 221.845 174.909C220.725 173.099 220.325 171.889 220.185 173.609C220.045 175.329 221.305 177.559 220.185 177.979C219.065 178.399 218.925 177.419 218.925 177.419L218.895 177.409Z" fill="#CECFCF" stroke="#252526" stroke-linecap="round" stroke-linejoin="round"/>
<path d="M219.305 134.64C219.435 133.22 219.465 132.24 220.145 130.57C220.825 128.9 221.535 128.9 221.535 128.06C221.535 127.22 221.255 130.15 222.235 130.57C223.215 130.99 225.305 131.55 224.185 132.25C223.065 132.94 222.275 132.67 221.905 133.92C221.535 135.17 220.575 135.17 220.155 136.71C219.725 138.24 219.445 138.66 218.475 139.92C217.505 141.18 217.635 140.76 216.105 141.04C214.575 141.32 212.305 144.25 212.535 142.85C212.765 141.46 216.245 139.09 216.805 137.97C217.365 136.85 219.235 135.5 219.315 134.65L219.305 134.64Z" fill="#CECFCF" stroke="#252526" stroke-linecap="round" stroke-linejoin="round"/>
<path d="M205.925 153.009C205.695 153.919 205.085 156.079 205.925 156.499C206.765 156.919 207.285 159.289 208.205 158.449C209.125 157.609 209.825 157.649 208.845 155.819C207.865 153.989 206.385 151.159 205.915 153.009H205.925Z" fill="#CECFCF" stroke="#252526" stroke-linecap="round" stroke-linejoin="round"/>
<path d="M205.495 164.41C206.485 163.61 207.285 164.31 208.205 163.47C209.125 162.63 208.255 164.03 208.205 165.28C208.155 166.53 208.475 168.1 207.065 167.53C205.645 166.96 205.495 164.41 205.495 164.41Z" fill="#CECFCF" stroke="#252526" stroke-linecap="round" stroke-linejoin="round"/>
<path d="M185.315 65.0191C185.295 65.2091 185.385 65.3991 185.475 65.5691C185.865 66.2991 186.345 67.1291 186.005 67.8791C185.765 68.3891 185.165 68.8991 185.465 69.3691C186.215 69.6491 186.845 70.2191 187.205 70.9391C187.595 71.7191 187.795 72.7791 188.635 73.0191C189.255 73.1991 189.865 72.7991 190.475 72.5891C191.085 72.3891 191.975 72.5591 192.025 73.1991C192.045 73.4691 191.895 73.7191 191.855 73.9791C191.765 74.5591 192.275 75.1191 192.855 75.2391C193.435 75.3591 194.035 75.1191 194.505 74.7591C194.935 74.4291 195.295 73.9791 195.385 73.4491C195.535 72.6391 195.035 71.8391 194.425 71.2891C193.815 70.7391 193.075 70.3491 192.465 69.7891C192.285 69.6191 192.105 69.4291 191.865 69.3791C191.525 69.2991 191.165 69.5191 190.815 69.4491C190.155 69.3191 190.115 68.3991 190.195 67.7291C190.335 66.6591 190.375 65.5691 190.325 64.4891C190.255 63.0191 189.495 62.1391 188.145 62.7791C187.625 63.0291 185.375 64.4991 185.335 65.0191H185.315Z" fill="#CECFCF" stroke="#252526" stroke-linecap="round" stroke-linejoin="round"/>
<path d="M164.655 80.7193C163.365 80.8693 161.875 81.2393 161.385 82.4393C161.185 82.9293 161.195 83.4693 161.145 83.9993C160.995 85.3993 160.315 86.7393 159.265 87.6793C158.585 88.2893 157.745 88.7693 157.305 89.5793C156.845 90.4193 156.945 91.4793 157.335 92.3593C157.725 93.2393 158.355 93.9793 158.985 94.6993C159.175 94.9093 159.365 95.1293 159.635 95.2293C160.365 95.5093 161.095 94.6693 161.115 93.8993C161.135 93.1293 160.725 92.4093 160.515 91.6593C160.065 90.0593 160.555 88.2193 161.755 87.0693C163.285 85.5993 165.615 85.3393 167.355 84.1193C168.415 83.3793 169.215 82.2793 169.605 81.0493C169.775 80.5193 169.855 79.9093 169.565 79.4393C168.905 78.3793 168.215 79.4693 167.645 79.7893C166.665 80.3493 165.805 80.5893 164.665 80.7293L164.655 80.7193Z" fill="#CECFCF" stroke="#252526" stroke-linecap="round" stroke-linejoin="round"/>
<path d="M162.205 63.8998C161.585 64.4498 161.075 65.2198 161.115 66.0598C161.155 66.8998 161.905 67.7098 162.725 67.5798C163.735 67.4198 164.115 66.1598 164.955 65.5698C165.515 65.1798 166.245 65.1098 166.835 64.7798C167.515 64.3998 167.975 63.5798 167.775 62.8298C167.205 60.6898 163.095 63.1198 162.205 63.9198V63.8998Z" fill="#CECFCF" stroke="#252526" stroke-linecap="round" stroke-linejoin="round"/>
<path d="M156.815 64.0191C155.955 63.6491 155.035 63.3391 154.095 63.3991C153.155 63.4591 152.195 63.9691 151.835 64.8291C151.755 65.0291 151.705 65.2491 151.765 65.4491C151.905 65.8791 152.445 65.9891 152.795 66.2691C153.445 66.7691 153.455 67.7991 154.085 68.3191C154.625 68.7591 155.425 68.6791 156.065 68.3991C156.935 68.0191 157.675 67.2591 157.865 66.3291C158.055 65.3991 157.585 64.3291 156.705 63.9791" fill="#CECFCF"/>
<path d="M156.815 64.0191C155.955 63.6491 155.035 63.3391 154.095 63.3991C153.155 63.4591 152.195 63.9691 151.835 64.8291C151.755 65.0291 151.705 65.2491 151.765 65.4491C151.905 65.8791 152.445 65.9891 152.795 66.2691C153.445 66.7691 153.455 67.7991 154.085 68.3191C154.625 68.7591 155.425 68.6791 156.065 68.3991C156.935 68.0191 157.675 67.2591 157.865 66.3291C158.055 65.3991 157.585 64.3291 156.705 63.9791" stroke="#252526" stroke-linecap="round" stroke-linejoin="round"/>
<path d="M106.825 104.049C106.615 104.089 106.395 104.119 106.195 104.049C105.395 103.749 105.805 102.219 105.005 101.909C104.605 101.749 104.175 102.029 103.845 102.289C103.535 102.539 103.205 102.829 103.175 103.229C103.125 104.159 104.695 104.399 104.855 105.319C104.215 105.739 104.135 106.729 104.535 107.379C104.935 108.029 105.685 108.399 106.435 108.579C107.385 108.799 108.515 108.709 109.165 107.979C109.615 107.469 109.765 106.709 110.335 106.319C110.665 106.099 111.075 106.039 111.425 105.849C112.215 105.419 112.475 104.239 111.935 103.519C110.895 102.129 108.145 103.809 106.835 104.049H106.825Z" fill="#CECFCF" stroke="#252526" stroke-linecap="round" stroke-linejoin="round"/>
<path d="M58.215 58.559C59.035 57.389 60.145 56.039 61.565 56.269C62.385 56.399 63.145 57.069 63.945 56.829C65.555 56.339 64.685 53.159 66.305 52.689C66.595 52.609 66.905 52.639 67.205 52.689C68.815 52.989 70.325 53.789 71.475 54.949C72.145 55.629 72.865 56.489 73.815 56.419C74.295 56.379 74.735 56.099 75.215 56.049C76.405 55.929 77.275 57.379 76.995 58.539C76.715 59.699 75.685 60.519 74.635 61.099C73.485 61.749 72.015 62.569 72.165 63.889C72.215 64.299 72.425 64.669 72.465 65.079C72.595 66.479 70.885 67.169 69.605 67.749C68.135 68.419 66.715 69.929 67.215 71.459C67.345 71.849 67.585 72.199 67.675 72.589C67.915 73.579 67.205 74.539 66.445 75.229C65.695 75.919 64.805 76.569 64.515 77.539C64.285 78.319 64.485 79.159 64.475 79.979C64.465 80.799 64.125 81.749 63.335 81.959C62.045 82.299 61.115 80.439 59.785 80.389C58.455 80.339 57.395 82.099 56.135 81.679C55.945 81.619 55.755 81.499 55.545 81.529C55.095 81.589 55.045 82.249 55.265 82.639C55.775 83.559 56.965 83.879 58.015 83.809C59.065 83.739 60.085 83.379 61.135 83.319C61.895 83.269 62.765 83.449 63.145 84.109C63.555 84.819 63.135 85.789 62.445 86.229C61.755 86.669 60.885 86.719 60.065 86.679C58.665 86.619 57.275 86.369 55.945 85.949C55.305 85.749 54.635 85.469 54.295 84.899C54.025 84.469 53.995 83.939 53.875 83.439C53.655 82.459 53.095 81.559 52.315 80.929C51.815 80.519 51.145 80.029 51.295 79.399C51.475 78.669 52.535 78.669 53.215 78.979C53.905 79.289 54.695 79.729 55.345 79.339C56.235 78.799 55.815 77.309 56.525 76.549C57.165 75.869 58.655 75.789 58.555 74.859C58.515 74.519 58.235 74.249 58.135 73.919C57.775 72.719 59.865 72.039 59.885 70.789C59.895 70.029 59.075 69.479 58.315 69.509C57.555 69.539 56.885 69.969 56.265 70.399C55.605 70.859 54.945 71.349 54.215 71.679C53.625 71.939 52.925 72.089 52.345 71.799C51.325 71.289 51.335 69.799 51.815 68.769C52.295 67.739 53.085 66.809 53.195 65.679C53.245 65.129 53.125 64.579 53.135 64.029C53.175 60.939 56.705 60.689 58.205 58.549L58.215 58.559Z" fill="#CECFCF" stroke="#252526" stroke-linecap="round" stroke-linejoin="round"/>
<path d="M46.215 73.7593C46.955 74.1793 47.515 74.9093 47.735 75.7293C47.845 76.1493 47.905 76.6292 48.255 76.8892C48.515 77.0892 48.875 77.0893 49.205 77.0493C49.785 76.9793 50.405 76.7493 50.725 76.2593C51.135 75.6493 50.965 74.7992 50.545 74.1992C49.975 73.3692 47.895 71.2892 46.885 71.0992C44.835 70.7092 44.765 72.9293 46.215 73.7593Z" fill="#CECFCF" stroke="#252526" stroke-linecap="round" stroke-linejoin="round"/>
<path d="M48.935 80.989C48.555 80.899 48.165 80.809 47.785 80.859C47.405 80.909 47.015 81.129 46.885 81.499C46.645 82.169 47.315 82.779 47.675 83.389C48.005 83.939 48.095 84.629 47.925 85.239C47.885 85.379 47.825 85.529 47.865 85.679C47.925 85.919 48.195 86.049 48.445 86.089C49.145 86.189 49.865 85.819 50.295 85.259C50.725 84.699 50.885 83.959 50.855 83.249C50.815 82.309 50.385 81.2991 49.525 80.9091" fill="#CECFCF"/>
<path d="M48.935 80.989C48.555 80.899 48.165 80.809 47.785 80.859C47.405 80.909 47.015 81.129 46.885 81.499C46.645 82.169 47.315 82.779 47.675 83.389C48.005 83.939 48.095 84.629 47.925 85.239C47.885 85.379 47.825 85.529 47.865 85.679C47.925 85.919 48.195 86.049 48.445 86.089C49.145 86.189 49.865 85.819 50.295 85.259C50.725 84.699 50.885 83.959 50.855 83.249C50.815 82.309 50.385 81.2991 49.525 80.9091" stroke="#252526" stroke-linecap="round" stroke-linejoin="round"/>
<path d="M41.625 73.5299C41.145 73.1599 40.515 73.1499 39.835 73.8399C39.365 74.3199 39.165 75.0299 39.175 75.6999C39.185 76.3499 39.395 77.0099 39.855 77.4599C40.315 77.9099 41.075 78.0899 41.645 77.7799C43.065 76.9999 42.695 74.3599 41.625 73.5299Z" fill="#CECFCF" stroke="#252526" stroke-linecap="round" stroke-linejoin="round"/>
<path d="M44.655 82.8792C45.255 83.2292 45.585 83.9792 45.445 84.6492C45.305 85.3192 44.705 85.8792 44.025 85.9692C43.465 86.0392 42.915 85.8292 42.355 85.7092C41.795 85.5892 41.155 85.5892 40.755 85.9892C40.635 86.1192 40.545 86.2692 40.415 86.3992C40.045 86.7492 39.445 86.7392 38.995 86.5092C38.545 86.2792 38.205 85.8692 37.885 85.4792C37.135 84.5592 36.345 83.4792 36.545 82.3192C36.945 79.9892 38.785 80.9492 39.845 81.7492C40.665 82.3692 39.865 82.7492 40.855 81.7892C41.385 81.2692 41.615 79.9792 42.505 79.8492C44.005 79.6492 43.415 82.1492 44.655 82.8792Z" fill="#CECFCF" stroke="#252526" stroke-linecap="round" stroke-linejoin="round"/>
<path d="M62.745 88.6197C61.875 88.7097 60.975 88.9797 60.135 88.7397C59.345 88.5197 58.625 87.8697 57.825 88.0397C57.025 88.2097 56.625 89.0997 56.455 89.8997C56.145 91.3797 56.235 92.9497 56.715 94.3897C56.815 94.6897 56.935 94.9897 57.175 95.1997C57.575 95.5397 58.155 95.4997 58.675 95.5897C59.565 95.7497 60.315 96.3297 61.055 96.8597C61.795 97.3797 62.635 97.8797 63.545 97.8197C64.445 97.7597 65.335 96.8697 65.055 96.0097C66.375 97.1697 67.095 98.8497 67.775 100.47C68.195 101.46 68.605 102.62 68.085 103.56C67.635 104.38 66.645 104.71 65.855 105.23C65.065 105.75 64.445 106.88 65.065 107.58C65.655 108.25 66.745 107.89 67.625 108.07C68.795 108.32 69.445 109.51 70.195 110.44C70.945 111.37 72.385 112.11 73.255 111.29C74.405 110.21 72.885 108.28 73.275 106.75C73.515 105.8 74.445 105.21 74.935 104.36C75.615 103.19 75.285 101.54 74.205 100.72C73.765 100.39 73.235 100.19 72.805 99.8297C71.785 98.9797 71.635 97.5097 71.445 96.2097C71.255 94.9097 70.765 93.4097 69.525 92.9697C68.615 92.6497 67.455 92.9697 66.795 92.2597C65.225 90.5797 66.075 88.2797 62.765 88.6397L62.745 88.6197Z" fill="#CECFCF" stroke="#252526" stroke-linecap="round" stroke-linejoin="round"/>
<path d="M57.795 106.04C57.685 106.36 57.665 106.79 57.515 107.38C57.105 109.01 55.685 110.16 55.065 111.71C54.165 113.97 55.445 116.84 57.725 117.68C58.795 118.08 60.115 118.14 60.795 119.05C61.385 119.86 61.215 120.96 61.185 121.97C61.155 122.97 61.485 124.19 62.455 124.43C63.645 124.72 64.545 123.21 64.435 121.99C64.325 120.77 63.685 119.62 63.715 118.4C63.765 116.71 65.105 115.13 64.665 113.5C64.395 112.47 63.515 111.2 64.355 110.54C64.615 110.34 64.965 110.3 65.295 110.3C67.085 110.3 68.865 111.18 69.935 112.62C70.565 113.47 71.365 114.65 72.345 114.27C72.745 114.12 73.015 113.72 73.425 113.6C74.095 113.41 74.735 114.04 74.945 114.7C75.155 115.36 75.115 116.09 75.355 116.74C76.065 118.64 78.845 119.21 79.325 121.18C79.595 122.28 79.025 123.56 79.625 124.53C79.945 125.04 80.515 125.32 80.945 125.75C81.795 126.58 81.945 128.14 81.075 128.95C80.205 129.76 78.445 129.29 78.305 128.11C78.175 127.05 79.135 125.73 78.305 125.06C77.965 124.79 77.465 124.82 77.035 124.89C74.875 125.24 72.815 126.18 71.135 127.58C72.135 127.68 73.175 127.79 74.035 128.3C74.895 128.81 75.525 129.88 75.215 130.83C74.505 133.04 70.775 131.85 69.135 133.5C67.875 134.76 68.485 137.08 67.355 138.46C66.365 139.67 64.315 139.78 63.625 141.18C62.575 143.32 65.745 146.07 64.325 147.98C63.625 148.92 62.105 148.91 61.165 148.2C60.225 147.5 59.765 146.32 59.515 145.17C59.365 144.46 59.215 143.64 58.605 143.24C58.175 142.95 57.605 142.96 57.095 143.02C55.035 143.27 53.065 144.26 51.645 145.77C50.795 146.67 50.325 148.44 51.475 148.9C51.975 149.1 52.585 148.9 53.075 149.13C54.275 149.69 53.505 151.88 54.595 152.62C55.745 153.4 57.145 151.62 58.515 151.84C59.675 152.02 60.115 153.46 60.185 154.64C60.255 155.82 60.315 157.22 61.315 157.83C62.415 158.51 63.995 157.78 65.085 158.49C65.615 158.83 65.955 159.48 66.565 159.62C67.365 159.81 68.025 159.05 68.615 158.49C70.425 156.78 73.405 156.48 75.515 157.8C76.425 158.36 77.175 159.19 78.175 159.57C79.015 159.89 79.935 159.86 80.795 160.1C85.165 161.32 86.185 168.6 90.725 168.73C92.525 168.78 94.575 167.62 95.965 168.77C97.185 169.78 96.785 171.71 96.265 173.2C95.375 175.79 94.405 178.51 92.315 180.28C90.995 181.39 89.275 182.08 88.285 183.49C86.745 185.68 87.105 189.34 84.655 190.4C82.885 191.16 80.625 189.98 79.005 191.02C77.325 192.11 77.685 194.61 77.265 196.57C76.605 199.62 73.715 201.79 72.965 204.82C72.395 207.13 73.165 209.54 74.035 211.76C74.345 212.55 74.495 213.75 73.675 213.99C73.385 214.07 73.075 213.98 72.795 213.86C71.575 213.34 70.605 212.37 69.835 211.29C66.965 207.25 66.845 201.87 67.515 196.95C68.185 192.03 69.535 187.15 69.195 182.2C69.055 180.17 68.595 178.11 67.445 176.43C66.385 174.89 64.805 173.79 63.575 172.38C62.345 170.97 61.445 168.99 62.135 167.25C62.535 166.26 63.375 165.52 63.945 164.62C64.515 163.72 64.825 162.48 64.305 161.54C63.785 160.6 62.595 159.98 61.505 160.15C60.945 160.23 60.405 160.49 59.835 160.45C58.595 160.37 57.935 159.02 57.155 158.05C54.455 154.67 48.385 154.61 46.945 150.53C46.415 149.02 46.305 146.83 44.715 146.61C43.745 146.48 42.875 147.36 42.665 148.31C42.455 149.26 42.725 150.25 42.985 151.19C40.855 150.16 39.225 148.16 38.655 145.86C38.325 144.53 38.315 143.07 37.545 141.94C36.805 140.85 35.515 140.27 34.655 139.26C32.285 136.47 34.285 131.99 32.805 128.64C31.455 125.61 27.575 124.25 26.425 121.15C25.985 119.97 25.905 118.51 24.855 117.82C24.175 117.37 23.305 117.41 22.515 117.25C20.675 116.88 19.255 115.48 17.685 114.45C16.115 113.42 13.915 112.8 12.455 113.98C10.775 115.33 10.805 118.51 8.705 119C8.315 119.09 7.885 119.06 7.515 118.91C4.975 117.88 6.485 113.09 4.015 111.88C3.615 111.68 3.165 111.62 2.765 111.43C1.715 110.93 1.245 109.61 1.455 108.47C1.665 107.33 2.425 106.36 3.295 105.6C4.065 104.92 5.045 104.02 4.665 103.06C4.405 102.41 3.635 102.15 3.185 101.61C2.565 100.85 2.745 99.6698 3.335 98.8898C3.925 98.1098 4.815 97.6198 5.685 97.1598C7.685 96.0998 9.825 95.0098 12.085 95.1498C14.955 95.3298 17.485 97.4898 20.365 97.4198C21.715 97.3898 23.005 96.8598 24.345 96.6398C26.655 96.2598 28.995 96.8198 31.265 97.3698C33.275 97.8598 35.315 98.3598 37.125 99.3698C37.905 99.8098 38.655 100.34 39.515 100.6C41.235 101.11 43.265 100.27 44.115 98.6898C45.205 99.9698 47.065 100.22 48.735 100.38C49.585 100.46 50.475 100.53 51.275 100.24C52.075 99.9498 52.785 99.1898 52.725 98.3398C52.655 97.2998 51.545 96.6198 51.235 95.6198C50.765 94.1298 52.205 92.4998 51.665 91.0298C51.385 90.2598 50.585 89.6598 50.615 88.8498C50.635 88.1498 51.305 87.6098 51.995 87.4998C52.685 87.3898 53.385 87.5998 54.045 87.8298C54.645 87.6798 55.075 88.2798 55.045 88.8998C55.015 89.5198 54.625 90.0498 54.265 90.5598C53.905 91.0698 53.565 91.6498 53.645 92.2598C53.715 92.7898 54.085 93.2198 54.295 93.7098C54.605 94.4398 54.535 95.2898 54.805 96.0298C55.245 97.2198 56.505 98.0398 56.685 99.2998C56.735 99.6398 56.685 99.9998 56.785 100.33C56.885 100.66 57.165 100.99 57.505 100.95C58.125 100.89 58.085 99.9798 58.285 99.3898C58.595 98.4998 59.925 98.2498 60.635 98.8798C61.345 99.5098 61.365 100.7 60.785 101.46C60.325 102.06 59.515 102.57 59.635 103.31C59.685 103.65 59.945 103.95 59.925 104.29C59.895 104.71 59.465 104.99 59.065 105.1C58.155 105.35 57.855 105.6 57.715 106.01L57.795 106.04Z" fill="#CECFCF" stroke="#252526" stroke-linecap="round" stroke-linejoin="round"/>
<path d="M39.545 89.9198C39.165 89.7998 38.795 89.6398 38.405 89.6098C37.345 89.5398 36.415 90.4798 36.175 91.5198C35.935 92.5598 36.225 93.6398 36.605 94.6398C36.905 95.4298 37.265 96.1998 37.685 96.9298C38.055 97.5798 38.545 98.2698 39.285 98.3798C40.555 98.5798 41.375 97.0498 42.545 96.5098C43.795 95.9298 45.305 96.5998 46.295 97.5698C46.595 97.8698 46.875 98.1998 47.265 98.3598C47.905 98.6298 48.705 98.3498 49.115 97.7798C49.525 97.2098 49.575 96.4398 49.355 95.7798C48.985 94.6798 47.955 93.8598 47.755 92.7298C47.555 91.6298 49.245 85.9898 45.845 87.7198C45.095 88.0998 44.805 89.1898 44.005 89.6498C42.745 90.3698 40.905 90.3498 39.565 89.9198H39.545Z" fill="#CECFCF" stroke="#252526" stroke-linecap="round" stroke-linejoin="round"/>
</g>
<path d="M228.055 130.619C227.875 108.039 219.615 87.3895 206.025 71.4095C189.025 51.4195 163.705 38.7295 135.405 38.7295C109.535 38.7295 86.155 49.3295 69.345 66.4195C52.895 83.1395 42.755 106.07 42.755 131.38C42.755 132.24 42.765 133.1 42.795 133.96C44.165 183.94 85.105 224.039 135.415 224.039C185.725 224.039 228.075 182.56 228.075 131.38C228.075 131.12 228.075 130.869 228.075 130.609L228.055 130.619Z" stroke="#252526" stroke-linecap="round" stroke-linejoin="round"/>
</g>
<defs>
<clipPath id="clip0_3512_65814">
<rect width="255.09" height="285.65" fill="white" transform="translate(0.955002)"/>
</clipPath>
</defs>
</svg>
