<svg width="297" height="132" viewBox="0 0 297 132" fill="none" xmlns="http://www.w3.org/2000/svg">
<g clip-path="url(#clip0_2100_57690)">
<path d="M65.7451 120.22L65.7451 11.02C65.7451 4.93382 60.8113 0 54.7251 0L11.1351 0C5.04893 0 0.115112 4.93382 0.115112 11.02L0.115112 120.22C0.115112 126.306 5.04893 131.24 11.1351 131.24H54.7251C60.8113 131.24 65.7451 126.306 65.7451 120.22Z" fill="#252526"/>
<path d="M54.8154 3.20996H11.4554C7.07577 3.20996 3.52539 6.76034 3.52539 11.14V120.1C3.52539 124.48 7.07577 128.03 11.4554 128.03H54.8154C59.195 128.03 62.7454 124.48 62.7454 120.1V11.14C62.7454 6.76034 59.195 3.20996 54.8154 3.20996Z" fill="#ECEDEB" stroke="#252526" stroke-miterlimit="10"/>
<path d="M53.1651 55.7495C53.1651 44.5768 44.1078 35.5195 32.9351 35.5195C21.7624 35.5195 12.7051 44.5768 12.7051 55.7495V75.4995C12.7051 86.6723 21.7624 95.7295 32.9351 95.7295C44.1078 95.7295 53.1651 86.6723 53.1651 75.4995V55.7495Z" fill="#6A51CA"/>
<path d="M23.5654 58.1297L42.2954 73.1096L32.9354 80.5996V50.6396L42.2954 58.1297L23.5654 73.1096" stroke="#ECEDEB" stroke-width="2" stroke-linecap="round" stroke-linejoin="round"/>
<path d="M94.7148 69.6201C96.924 69.6201 98.7148 67.8293 98.7148 65.6201C98.7148 63.411 96.924 61.6201 94.7148 61.6201C92.5057 61.6201 90.7148 63.411 90.7148 65.6201C90.7148 67.8293 92.5057 69.6201 94.7148 69.6201Z" fill="#B5A8E4"/>
<path d="M116.555 69.6201C118.764 69.6201 120.555 67.8293 120.555 65.6201C120.555 63.411 118.764 61.6201 116.555 61.6201C114.346 61.6201 112.555 63.411 112.555 65.6201C112.555 67.8293 114.346 69.6201 116.555 69.6201Z" fill="#B5A8E4"/>
<path d="M138.395 69.6201C140.604 69.6201 142.395 67.8293 142.395 65.6201C142.395 63.411 140.604 61.6201 138.395 61.6201C136.185 61.6201 134.395 63.411 134.395 65.6201C134.395 67.8293 136.185 69.6201 138.395 69.6201Z" fill="#B5A8E4"/>
<path d="M245.499 83.8213L235.469 83.746C235.049 83.7429 234.712 83.4003 234.715 82.9803L234.716 82.8903C234.719 82.4703 235.061 82.1329 235.481 82.1361L245.511 82.2113L245.499 83.8213Z" fill="#ECEDEB" stroke="#252526" stroke-linejoin="round"/>
<path d="M244.925 84.0195H251.535C251.701 84.0195 251.835 83.8852 251.835 83.7195V82.1795C251.835 82.0138 251.701 81.8795 251.535 81.8795H244.925C244.759 81.8795 244.625 82.0138 244.625 82.1795V83.7195C244.625 83.8852 244.759 84.0195 244.925 84.0195Z" fill="#A0A0A0" stroke="#252526" stroke-linejoin="round"/>
<path d="M186.005 51.2305C171.405 51.2305 159.575 63.0605 159.575 77.6605C159.575 92.2605 171.405 104.09 186.005 104.09C200.605 104.09 212.435 92.2605 212.435 77.6605C212.435 63.0605 200.605 51.2305 186.005 51.2305ZM186.005 99.5905C173.895 99.5905 164.075 89.7705 164.075 77.6605C164.075 65.5505 173.895 55.7305 186.005 55.7305C198.115 55.7305 207.935 65.5505 207.935 77.6605C207.935 89.7705 198.115 99.5905 186.005 99.5905Z" fill="#383838" stroke="#252526" stroke-linejoin="round"/>
<path d="M269.955 51.2305C255.355 51.2305 243.525 63.0605 243.525 77.6605C243.525 92.2605 255.355 104.09 269.955 104.09C284.555 104.09 296.385 92.2605 296.385 77.6605C296.385 63.0605 284.555 51.2305 269.955 51.2305ZM269.955 99.5905C257.845 99.5905 248.025 89.7705 248.025 77.6605C248.025 65.5505 257.845 55.7305 269.955 55.7305C282.065 55.7305 291.885 65.5505 291.885 77.6605C291.885 89.7705 282.065 99.5905 269.955 99.5905Z" fill="#383838" stroke="#252526" stroke-linejoin="round"/>
<path d="M248.966 29.3704C250.876 29.3704 254.416 29.3704 256.186 29.0904C257.956 28.8104 260.326 28.5804 260.566 29.0904C260.806 29.6004 260.896 29.9704 259.496 31.1404C258.096 32.3004 256.706 32.8604 256.096 33.3304C255.486 33.8004 251.766 34.2304 249.366 33.2704C246.966 32.3104 244.826 30.9104 244.076 30.8704C243.326 30.8304 241.286 31.3604 240.586 31.3204C239.886 31.2804 239.706 30.4504 240.586 29.9304C241.466 29.4104 247.336 29.3804 248.966 29.3704Z" fill="#9C8BDC" stroke="#252526" stroke-linejoin="round"/>
<path d="M238.985 81.0007C238.985 81.0007 266.145 77.8107 267.045 77.6707C267.955 77.5307 268.475 78.0807 268.555 78.4907C268.635 78.9007 268.405 79.4207 267.495 79.7207C266.585 80.0207 239.435 84.1007 239.435 84.1007L238.985 81.0107V81.0007Z" fill="#ECEDEB" stroke="#252526" stroke-linejoin="round"/>
<path d="M206.616 34.8703C206.616 34.8703 207.956 31.2503 208.106 30.7503C208.256 30.2503 208.076 30.1503 207.366 29.8403C206.656 29.5303 203.336 28.4303 202.626 28.1303C201.916 27.8303 200.216 27.2203 199.706 27.1703C199.196 27.1203 198.646 27.1203 197.846 27.1703C197.046 27.2203 195.856 27.3203 196.216 28.3303C196.576 29.3403 196.696 29.8203 197.146 29.6503C197.976 29.3503 199.336 29.3103 200.086 29.5703C200.686 29.7803 203.216 30.7503 203.766 31.0003C204.316 31.2503 204.416 31.3003 204.216 31.7503C204.016 32.2003 203.406 33.9403 203.406 33.9403L206.606 34.8703H206.616Z" fill="#7A7A79" stroke="#252526" stroke-linejoin="round"/>
<path d="M235.595 90.6407C239.842 90.6407 243.285 87.1978 243.285 82.9507C243.285 78.7037 239.842 75.2607 235.595 75.2607C231.348 75.2607 227.905 78.7037 227.905 82.9507C227.905 87.1978 231.348 90.6407 235.595 90.6407Z" fill="#ECEDEB" stroke="#252526" stroke-linejoin="round"/>
<path d="M270.436 76.99C270.096 76.6 249.976 54.92 246.566 51.24C249.166 42.46 251.516 34.54 251.516 34.54C251.746 33.79 251.826 33.79 251.106 33.71C250.556 33.65 249.786 33.42 249.216 33.21C248.986 33.96 245.695 44.87 245.545 45.32C245.395 45.77 245.466 46.23 244.636 45.92C243.806 45.62 207.036 36.34 206.436 36.04C206.436 36.04 206.516 35.52 206.606 34.88C206.606 34.82 203.016 33.84 202.766 33.78C202.476 33.71 201.646 36.51 201.156 37.85C199.846 41.42 198.416 45.29 196.996 48.81C195.346 52.9 193.695 57 192.045 61.09C190.655 64.52 189.276 67.96 187.886 71.39C187.266 72.93 186.686 74.51 185.996 76.02C185.376 77.38 184.996 78.21 185.486 78.47C185.876 78.68 186.316 78.93 186.996 77.67C187.676 76.4 201.476 49.84 201.786 49.32C202.096 48.8 202.696 48.72 203.216 49.32C203.736 49.92 224.646 80.4 225.246 81.46C225.846 82.52 228.586 86.15 228.586 86.15C228.586 86.15 227.406 83.72 228.116 81.16C228.816 78.6 230.176 77.51 230.176 77.51C230.176 77.51 209.176 46.62 208.276 45.26C207.366 43.9 205.636 41.94 205.556 40.88C205.476 39.82 206.516 39.22 207.926 39.52C209.326 39.82 242.905 47.44 243.655 47.74C244.405 48.04 244.635 48.12 244.405 48.95C244.175 49.78 239.656 63.81 239.506 64.26C239.436 64.48 239.426 64.58 239.366 64.68L235.926 75.29C236.306 75.31 236.655 75.36 236.986 75.41C238.015 75.56 239.176 76.17 239.176 76.17C239.176 76.17 241.896 66.97 245.736 54.04C249.266 57.65 267.906 76.71 268.836 77.68C269.866 78.75 270.186 78.52 270.426 78.36C270.666 78.2 271.146 77.84 270.426 77.01L270.436 76.99Z" fill="#ECEDEB" stroke="#252526" stroke-linejoin="round"/>
<path d="M186.005 83.5802C189.274 83.5802 191.925 80.9298 191.925 77.6602C191.925 74.3907 189.274 71.7402 186.005 71.7402C182.735 71.7402 180.085 74.3907 180.085 77.6602C180.085 80.9298 182.735 83.5802 186.005 83.5802Z" fill="#ECEDEB" stroke="#252526" stroke-linejoin="round"/>
<path d="M269.955 83.5802C273.225 83.5802 275.875 80.9298 275.875 77.6602C275.875 74.3907 273.225 71.7402 269.955 71.7402C266.686 71.7402 264.035 74.3907 264.035 77.6602C264.035 80.9298 266.686 83.5802 269.955 83.5802Z" fill="#ECEDEB" stroke="#252526" stroke-linejoin="round"/>
<path d="M225.675 82.2148L235.705 82.1396C236.125 82.1364 236.467 82.4739 236.47 82.8938L236.471 82.9838C236.474 83.4038 236.137 83.7464 235.717 83.7495L225.687 83.8248L225.675 82.2148Z" fill="#ECEDEB" stroke="#252526" stroke-linejoin="round"/>
<path d="M226.255 81.8799H219.645C219.479 81.8799 219.345 82.0142 219.345 82.1799V83.7199C219.345 83.8856 219.479 84.0199 219.645 84.0199H226.255C226.42 84.0199 226.555 83.8856 226.555 83.7199V82.1799C226.555 82.0142 226.42 81.8799 226.255 81.8799Z" fill="#A0A0A0" stroke="#252526" stroke-linejoin="round"/>
</g>
<defs>
<clipPath id="clip0_2100_57690">
<rect width="296.77" height="131.24" fill="white" transform="translate(0.115234)"/>
</clipPath>
</defs>
</svg>
