<svg width="133" height="150" viewBox="0 0 133 150" fill="none" xmlns="http://www.w3.org/2000/svg">
<g clip-path="url(#clip0_2100_55240)">
<path d="M73.3415 91.1162H62.2402V145.799H73.3415V91.1162Z" fill="#252526" stroke="#252526" stroke-linecap="round" stroke-linejoin="round"/>
<path d="M55.669 7.0376L8.5549 79.6764C2.32244 89.2859 9.22299 101.97 20.672 101.97H114.9C126.349 101.97 133.241 89.2768 127.017 79.6764L79.9033 7.0376C74.2108 -1.7391 61.3706 -1.7391 55.6781 7.0376H55.669Z" fill="#6A51CA" stroke="#252526" stroke-linecap="round" stroke-linejoin="round"/>
<path d="M67.7861 88.5996C70.9149 88.5996 73.4512 86.0633 73.4512 82.9346C73.4512 79.8059 70.9149 77.2695 67.7861 77.2695C64.6574 77.2695 62.1211 79.8059 62.1211 82.9346C62.1211 86.0633 64.6574 88.5996 67.7861 88.5996Z" fill="#F4F4F4" stroke="#252526" stroke-miterlimit="10"/>
<path d="M74.8152 32.764C74.8152 28.8836 71.6669 25.7354 67.7865 25.7354C63.9061 25.7354 60.7578 28.8836 60.7578 32.764C60.7578 33.1759 60.8036 33.5785 60.8676 33.9721L64.1349 69.5822H64.1898C64.4735 71.3211 65.9744 72.6481 67.7956 72.6481C69.8182 72.6481 71.4564 71.0099 71.4564 68.9873L74.7145 33.9995C74.7877 33.5969 74.8335 33.185 74.8335 32.764H74.8152Z" fill="#F4F4F4" stroke="#252526" stroke-miterlimit="10"/>
<path d="M0.519531 145.809H99.7447" stroke="#252526" stroke-linecap="round" stroke-linejoin="round"/>
<path d="M106.983 145.809H132.481" stroke="#252526" stroke-linecap="round" stroke-linejoin="round"/>
<path d="M43.6709 143.557C43.6709 146.55 40.2024 147.09 35.9193 147.09C31.6362 147.09 29.458 147.63 29.458 144.637C29.458 141.644 31.6362 139.731 35.9193 139.731C40.2024 139.731 43.6709 140.564 43.6709 143.566V143.557Z" fill="#8E8E8E" stroke="#252526" stroke-linecap="round" stroke-linejoin="round"/>
<path d="M127.484 143.557C127.484 146.55 124.015 147.09 119.732 147.09C115.449 147.09 111.98 146.559 111.98 143.557C111.98 140.555 115.449 137.27 119.732 137.27C124.015 137.27 127.484 140.564 127.484 143.557Z" fill="#8E8E8E" stroke="#252526" stroke-linecap="round" stroke-linejoin="round"/>
<path d="M64.8667 144.243C64.8667 148.737 59.6593 149.542 53.2346 149.542C46.81 149.542 41.6025 148.737 41.6025 144.243C41.6025 139.75 46.81 134.808 53.2346 134.808C59.6593 134.808 64.8667 139.741 64.8667 144.243Z" fill="#8E8E8E" stroke="#252526" stroke-linecap="round" stroke-linejoin="round"/>
</g>
<defs>
<clipPath id="clip0_2100_55240">
<rect width="132.877" height="150" fill="white" transform="translate(0.0615234)"/>
</clipPath>
</defs>
</svg>
