<svg width="181" height="150" viewBox="0 0 181 150" fill="none" xmlns="http://www.w3.org/2000/svg">
<g clip-path="url(#clip0_2014_49328)">
<path d="M109.142 122.031C111.018 119.93 113.614 117.156 114.893 115.823C115.606 115.079 115.862 114.157 115.885 113.304C115.924 111.801 115.296 110.468 115.296 110.468C115.296 110.468 115.908 108.569 100.044 101.927C93.379 99.145 84.5906 99.0365 76.6392 99.858C75.0814 100.021 73.5547 100.222 72.0822 100.439C69.6797 100.796 67.4245 101.199 65.4095 101.625C64.2083 101.865 63.1 102.113 62.108 102.353L61.9143 102.392C58.4423 103.214 56.2646 103.88 56.2646 103.88C56.2646 103.88 52.7074 104.926 55.2261 108.933C57.7526 112.924 61.209 119.086 65.6033 119.667C65.2468 119.884 64.9135 120.14 64.6035 120.372C56.4816 117.853 50.8551 115.319 50.8551 115.319C40.137 112.638 35.5413 102.973 33.6968 97.068C36.1458 96.8665 38.463 96.5332 40.5245 96.0217C40.5245 96.0217 50.5916 91.767 64.4563 89.2405C64.4873 89.2328 64.526 89.2328 64.5648 89.225C64.6345 89.2173 64.681 89.2095 64.681 89.2095C64.9213 89.163 65.177 89.1165 65.425 89.07C65.8823 89.0003 66.3318 88.915 66.7967 88.853C67.254 88.7755 67.7035 88.6981 68.1685 88.6361C69.0985 88.4966 70.044 88.3493 71.005 88.2408C71.4467 88.1866 71.8807 88.1323 72.3302 88.0858C72.9114 88.0238 73.5082 87.9463 74.0972 87.8998C74.1592 87.8843 74.2289 87.8766 74.2987 87.8766C74.5699 87.8533 74.8334 87.8301 75.1047 87.8068C75.5697 87.7603 76.0269 87.7293 76.4919 87.6906C77.1429 87.6363 77.8094 87.5976 78.4682 87.5666C78.8246 87.5433 79.1811 87.5201 79.5376 87.5123C79.6926 87.4968 79.8399 87.4891 79.9871 87.4968C80.3591 87.4736 80.7311 87.4658 81.1186 87.4581C81.1496 87.4503 81.1806 87.4503 81.2194 87.4503C81.2426 87.4503 81.2581 87.4503 81.2736 87.4581C81.2969 87.4503 81.3201 87.4503 81.3511 87.4503C81.5294 87.4426 81.7154 87.4426 81.8936 87.4426C82.4981 87.4271 83.1104 87.4116 83.7226 87.4116C85.3036 87.4116 86.9001 87.4581 88.4888 87.5511C99.4085 88.1401 106.011 89.7598 109.979 91.3718C114.955 93.4023 115.792 95.4095 115.792 95.4095C115.792 95.4095 129.997 112.072 109.158 122.038L109.142 122.031Z" fill="#DFE0E0" stroke="#252526" stroke-linejoin="round"/>
<path d="M50.8395 115.327C50.8395 115.327 42.2293 113.854 34.9753 114.474C27.7214 115.087 17.1427 118.28 17.1427 118.28C17.1427 118.28 16.4375 118.45 15.3448 118.644C13.9963 117.388 12.9113 115.513 14.3683 113.296C12.8338 111.77 10.1291 107.98 14.3295 103.159C12.6245 101.95 14.5233 98.9047 15.802 97.2152C21.475 97.3857 27.9462 97.5717 33.6656 97.0757C35.5101 102.973 40.1136 112.645 50.824 115.327H50.8395Z" fill="#A0A0A0" stroke="#252526" stroke-linejoin="round"/>
<path d="M15.3527 118.652C11.4933 119.334 2.80558 120.24 3.37132 114.521C1.78259 113.498 -0.681892 111.289 1.90659 108.522C-0.960889 104.81 3.33257 103.407 3.33257 103.407C3.33257 103.407 1.09284 96.9517 9.81927 97.0757C11.6405 97.099 13.6632 97.161 15.8022 97.223C14.5235 98.9125 12.6247 101.95 14.3297 103.167C10.1215 107.995 12.834 111.785 14.3685 113.304C12.9115 115.528 13.9965 117.396 15.345 118.652H15.3527Z" fill="#5F6060" stroke="#252526" stroke-linejoin="round"/>
<path d="M76.6239 99.8579C75.0661 100.021 73.5394 100.222 72.0669 100.439L76.6239 99.8579Z" fill="#3F3F3F"/>
<path d="M76.6239 99.8579C75.0661 100.021 73.5394 100.222 72.0669 100.439" stroke="#252526" stroke-linejoin="round"/>
<path d="M77.6469 117.179C77.5771 117.164 77.5074 117.14 77.4376 117.125C77.4144 117.117 77.3989 117.117 77.3679 117.109C75.9651 116.722 74.6321 116.319 73.3999 115.9" fill="#3F3F3F"/>
<path d="M77.6469 117.179C77.5771 117.164 77.5074 117.14 77.4376 117.125C77.4144 117.117 77.3989 117.117 77.3679 117.109C75.9651 116.722 74.6321 116.319 73.3999 115.9" stroke="#252526" stroke-linejoin="round"/>
<path d="M73.3919 115.893C70.9429 115.063 68.8194 114.195 67.0137 113.304L73.3919 115.893Z" fill="#B4B4B4"/>
<path d="M73.3919 115.893C70.9429 115.063 68.8194 114.195 67.0137 113.304" stroke="#252526" stroke-linejoin="round"/>
<path d="M72.0667 100.447C69.6643 100.803 67.409 101.206 65.394 101.633L72.0667 100.447Z" fill="#B4B4B4"/>
<path d="M72.0667 100.447C69.6643 100.803 67.409 101.206 65.394 101.633" stroke="#252526" stroke-linejoin="round"/>
<path d="M67.014 113.304C65.0377 112.343 63.4258 111.382 62.0928 110.437L67.014 113.304Z" fill="#3F3F3F"/>
<path d="M67.014 113.304C65.0377 112.343 63.4258 111.382 62.0928 110.437" stroke="#252526" stroke-linejoin="round"/>
<path d="M65.3942 101.633L62.0928 102.361C63.0925 102.121 64.193 101.873 65.3942 101.633Z" fill="#3F3F3F" stroke="#252526" stroke-linejoin="round"/>
<path d="M115.877 113.304C115.854 114.157 115.598 115.071 114.885 115.823C113.614 117.164 111.01 119.93 109.135 122.031H109.127V122.046C109.073 122.108 109.011 122.17 108.964 122.232C108.112 123.193 107.43 123.983 107.135 124.417H107.127C103.004 123.503 101.524 119.535 101.044 117.582C94.1151 118.845 85.722 119.341 77.6388 117.179L73.3841 115.893L67.0059 113.304L62.0847 110.437C57.0937 106.91 56.2412 103.888 56.2412 103.888C56.2412 103.888 58.4189 103.221 61.8909 102.4L62.0847 102.361L65.3861 101.633L72.0588 100.447L76.6158 99.8657C84.575 99.0442 93.3557 99.1527 100.021 101.935C115.885 108.577 115.272 110.475 115.272 110.475C115.272 110.475 115.908 111.808 115.861 113.312L115.877 113.304Z" fill="#DFE0E0" stroke="#252526" stroke-linejoin="round"/>
<path d="M107.135 124.425C107.097 124.479 107.073 124.518 107.05 124.557C106.306 125.727 101.455 129.176 101.455 129.176C101.455 129.176 96.2854 133.725 95.1849 134.399C94.069 135.074 87.187 139.437 84.2343 139.747C81.2816 140.049 72.0591 139.933 69.5404 139.747C67.0217 139.561 62.4027 141.584 62.4027 141.584C62.4027 141.584 54.9628 142.506 52.8083 142.018C50.6538 141.522 54.7768 138.639 54.7768 138.639C54.7768 138.639 54.7768 133.578 58.272 131.842C58.427 130.16 58.9927 126.944 61.1317 125.58C61.4727 124.286 62.333 122.162 64.5882 120.372C64.8904 120.14 65.2237 119.892 65.5802 119.667C67.8819 118.202 71.3229 117.094 76.4611 117.109C76.7633 117.133 77.0966 117.148 77.4376 117.125C77.5073 117.14 77.5771 117.164 77.6468 117.179C85.7378 119.349 94.131 118.853 101.052 117.59C101.532 119.543 103.012 123.503 107.135 124.425Z" fill="#B4B4B4" stroke="#252526" stroke-linejoin="round"/>
<path d="M77.4376 117.125C77.1043 117.117 76.7711 117.109 76.4611 117.109C71.3229 117.102 67.8819 118.202 65.5802 119.675C61.186 119.093 57.7295 112.932 55.203 108.941C52.6843 104.942 56.2415 103.888 56.2415 103.888C56.2415 103.888 57.094 106.918 62.085 110.437C63.4179 111.382 65.0299 112.343 67.0062 113.304C68.8196 114.195 70.9354 115.063 73.3844 115.893C74.6166 116.311 75.9496 116.714 77.3523 117.102C77.3833 117.109 77.3988 117.109 77.4221 117.117L77.4376 117.125Z" fill="#A0A0A0" stroke="#252526" stroke-linejoin="round"/>
<path d="M117.907 45.8719C112.01 47.7164 111.188 53.9551 111.103 56.3653C105.275 56.5591 97.9281 57.3495 90.8834 59.194C90.8679 59.194 90.8446 59.2018 90.8214 59.2095C88.7056 59.7598 86.6209 60.4108 84.6137 61.1703H84.6059C82.7614 61.8678 80.9712 62.6582 79.2895 63.5495C76.8405 64.836 74.8178 66.3627 73.1593 68.0212C73.1593 68.0212 73.1593 68.029 73.1515 68.0445C72.361 68.8272 71.6325 69.6487 70.997 70.4857C70.997 70.4857 60.0929 74.9109 59.3566 83.8001C58.0082 68.1995 71.8418 58.8375 72.5315 58.2718C80.762 51.5138 80.018 32.4568 74.9418 24.0946C74.1668 22.8158 71.865 19.8166 73.508 18.3054C75.151 16.7786 80.111 19.9406 77.7317 18.3054C75.3525 16.6624 74.2443 11.4777 75.151 10.2222C76.05 8.97445 78.1425 10.5089 78.1425 10.5089C78.1425 10.5089 82.5832 14.8954 84.8152 16.4531C82.0717 12.8727 79.4832 4.04549 81.0952 3.47974C82.9939 2.81325 84.4122 4.89798 84.4122 4.89798C84.4122 4.89798 95.6031 17.5614 91.7281 13.0044C89.6976 10.6097 88.9381 4.73523 89.1629 2.00725C89.3024 0.356518 91.4336 -0.216977 92.3714 1.15476C97.5638 8.7807 110.467 29.9613 117.907 45.8719Z" fill="#B4B4B4" stroke="#252526" stroke-linejoin="round"/>
<path d="M122.457 57.303C122.457 57.303 122.457 57.2953 122.449 57.2875C121.395 53.8311 119.822 49.9406 117.915 45.8796H117.908C112.01 47.7241 111.188 53.9628 111.103 56.373C105.275 56.5668 97.9283 57.3573 90.8836 59.2018C90.8681 59.2018 90.8449 59.2095 90.8216 59.2173C88.7059 59.7675 86.6211 60.4185 84.6062 61.178H84.5984C82.7539 61.8755 80.9637 62.666 79.282 63.5572C76.833 64.8437 74.8102 66.3705 73.1518 68.029C73.1518 68.029 73.1518 68.0367 73.144 68.0522C72.3535 68.8349 71.625 69.6564 70.9895 70.4934C70.9895 70.4934 60.0854 74.9186 59.3491 83.8078C59.7521 89.4188 63.4798 89.3568 64.4331 89.256C64.4718 89.2483 64.5028 89.2483 64.5416 89.2405C64.6113 89.2328 64.6578 89.225 64.6578 89.225C64.9058 89.1785 65.1538 89.1398 65.4096 89.0933C65.8591 89.0158 66.3163 88.9383 66.7736 88.8685C67.2231 88.791 67.6881 88.7213 68.153 88.6515C69.083 88.512 70.0285 88.3725 70.9818 88.2563C71.4158 88.1943 71.8653 88.14 72.307 88.1013C72.8883 88.0315 73.485 87.9618 74.074 87.9075C74.1437 87.8998 74.2058 87.892 74.2755 87.892C74.5467 87.8688 74.818 87.8378 75.0892 87.8145C75.5542 87.768 76.0115 87.737 76.4765 87.6983C77.1275 87.644 77.794 87.613 78.4527 87.5743C78.8092 87.551 79.1657 87.5278 79.5222 87.52C79.6695 87.5045 79.8167 87.4968 79.9639 87.5045C80.3359 87.4813 80.7157 87.4735 81.0877 87.458C81.1187 87.4503 81.1574 87.4503 81.1884 87.4503H81.3202C81.5062 87.4425 81.6844 87.4425 81.8704 87.4425C82.4749 87.427 83.0872 87.4193 83.6994 87.4193C85.2727 87.4193 86.8691 87.4658 88.4656 87.551C99.3775 88.14 105.98 89.7675 109.956 91.3718C110.568 88.1943 113.079 78.5844 122.085 70.3229C124.526 68.0832 124.286 63.3402 122.449 57.3108L122.457 57.303Z" fill="#DFE0E0" stroke="#252526" stroke-linejoin="round"/>
<path d="M122.473 57.3418C122.473 57.3418 122.465 57.3185 122.457 57.3108" stroke="#252526" stroke-linejoin="round"/>
<path d="M81.3203 87.5898C81.297 87.5433 81.266 87.4968 81.2505 87.4503C81.2505 87.4503 81.2428 87.4503 81.2505 87.4426" stroke="#252526" stroke-linejoin="round"/>
<path d="M161.951 99.2612L158.998 128.006C158.843 129.532 157.44 130.61 155.929 130.377L127.479 125.975L127.371 125.96C127.456 125.27 127.797 124.611 128.386 124.154L128.556 124.022L134.997 119.047C134.997 119.047 135.002 119.042 135.012 119.031C135.012 119.031 135.035 119.016 135.043 119.016L136.058 118.233C136.058 118.233 136.058 118.225 136.074 118.218C136.074 118.218 136.082 118.218 136.074 118.21L136.926 117.551L140.383 114.893L159.936 99.7959C160.525 99.3387 161.253 99.1682 161.943 99.2689L161.951 99.2612Z" fill="#6A51CA" stroke="#252526" stroke-linejoin="round"/>
<path d="M179.171 124.696L147.621 149.054C146.451 149.961 144.777 149.744 143.87 148.566L127.905 127.897C127.494 127.362 127.316 126.735 127.363 126.107C127.363 126.053 127.363 125.998 127.37 125.952L127.479 125.967L155.929 130.369C157.44 130.602 158.843 129.525 158.998 127.998L161.951 99.2534C162.617 99.3387 163.245 99.6797 163.694 100.261L179.659 120.93C180.566 122.108 180.349 123.782 179.171 124.689V124.696Z" fill="#9887D8" stroke="#252526" stroke-linejoin="round"/>
<path d="M141.785 107.701C142.087 108.034 143.73 109.344 144.048 109.731C145.04 110.933 145.986 112.312 145.862 113.11C145.621 114.738 145.66 111.994 139.824 111.498C139.708 111.491 139.6 111.483 139.483 111.475" fill="#252526"/>
<path d="M141.785 107.701C142.087 108.034 143.73 109.344 144.048 109.731C145.04 110.933 145.986 112.312 145.862 113.11C145.621 114.738 145.66 111.994 139.824 111.498C139.708 111.491 139.6 111.483 139.483 111.475" stroke="#252526" stroke-linejoin="round"/>
<path d="M133.361 102.749C132.516 102.749 131.827 103.438 131.827 104.283C131.827 105.128 132.516 105.825 133.361 105.825C134.206 105.825 134.903 105.136 134.903 104.283C134.903 103.431 134.214 102.749 133.361 102.749Z" stroke="#252526" stroke-linejoin="round"/>
<path d="M141.731 101.563C141.103 100.238 140.049 99.2844 138.84 98.5869H138.833C136.523 97.2384 133.648 96.8742 132.183 96.7889H132.175C131.881 96.7657 131.641 96.7657 131.478 96.7657C130.734 96.7657 127.037 96.4557 123.418 96.1224" stroke="#252526" stroke-linejoin="round"/>
<path d="M138.77 111.894C138.367 112.111 137.956 112.273 137.522 112.413" stroke="#252526" stroke-linejoin="round"/>
<path d="M142.622 101.571C142.343 101.578 142.049 101.578 141.739 101.563H141.731C137.841 101.423 132.16 99.5712 127.665 97.8429C126.882 97.5407 126.13 97.2385 125.441 96.9595C124.697 96.665 124.023 96.3782 123.418 96.1147H123.41C122.387 95.6885 121.589 95.332 121.093 95.1072C120.473 93.2627 121.326 90.3953 131.796 89.845C141.956 89.3025 145.374 102.353 142.615 101.571H142.622Z" fill="#C1B7E8" stroke="#252526" stroke-linejoin="round"/>
<path d="M126.177 94.0455V93.9215C126.177 93.9215 137.716 96.0915 138.786 98.3855C139.848 100.687 126.177 94.0455 126.177 94.0455Z" fill="#6A51CA"/>
<path d="M140.421 97.2384C138.569 94.2392 129.254 92.5497 127.355 92.232C129.881 91.7825 137.717 91.1547 140.421 97.2384Z" fill="#6A51CA"/>
<path d="M134.903 104.283C134.903 105.136 134.214 105.825 133.361 105.825C132.509 105.825 131.827 105.136 131.827 104.283C131.827 103.431 132.516 102.749 133.361 102.749C134.206 102.749 134.903 103.438 134.903 104.283Z" fill="#252526" stroke="#252526" stroke-linejoin="round"/>
<path d="M59.3567 83.8C59.3412 83.9395 59.3334 84.079 59.3257 84.2185" stroke="#252526" stroke-linejoin="round"/>
<path d="M133.361 105.825C132.516 105.825 131.827 105.136 131.827 104.283C131.827 103.431 132.516 102.749 133.361 102.749C134.206 102.749 134.903 103.438 134.903 104.283C134.903 105.128 134.214 105.825 133.361 105.825ZM141.336 109.026L141.855 107.902C142.351 106.833 142.591 105.655 142.483 104.477C142.382 103.369 142.142 102.384 141.739 101.555H141.731C137.841 101.416 132.16 99.5557 127.673 97.8352C126.882 97.5252 126.138 97.2307 125.449 96.9517C124.712 96.6572 124.03 96.3782 123.426 96.107H123.418C119.551 95.7582 115.777 95.394 115.777 95.394C115.777 95.394 129.982 112.056 109.143 122.023H109.135V122.038C109.081 122.1 109.019 122.162 108.972 122.224C110.708 122.124 119.435 121.511 125.131 119.024C125.906 118.698 126.619 118.334 127.239 117.923C127.254 117.915 127.27 117.9 127.285 117.892C127.471 117.776 127.642 117.667 127.812 117.543C127.859 117.505 127.921 117.466 127.967 117.427C128.502 117.016 128.944 116.582 129.3 116.102C129.401 115.97 129.494 115.862 129.595 115.738H129.602C131.858 113.048 134.896 113.25 137.476 112.428C137.476 112.428 137.482 112.426 137.492 112.421C137.492 112.421 137.515 112.413 137.523 112.413L138.771 111.894C138.771 111.894 138.778 111.878 138.786 111.878C138.786 111.878 138.794 111.878 138.794 111.87C139.034 111.739 139.274 111.591 139.499 111.413C140.212 110.863 140.848 110.088 141.351 108.98V108.964" fill="#A0A0A0"/>
<path d="M141.336 109.026L141.855 107.902C142.351 106.833 142.591 105.655 142.483 104.477C142.382 103.369 142.142 102.384 141.739 101.555H141.731C137.841 101.416 132.16 99.5557 127.673 97.8352C126.882 97.5252 126.138 97.2307 125.449 96.9517C124.712 96.6572 124.03 96.3782 123.426 96.107H123.418C119.551 95.7582 115.777 95.394 115.777 95.394C115.777 95.394 129.982 112.056 109.143 122.023H109.135V122.038C109.081 122.1 109.019 122.162 108.972 122.224C110.708 122.124 119.435 121.511 125.131 119.024C125.906 118.698 126.619 118.334 127.239 117.923C127.254 117.915 127.27 117.9 127.285 117.892C127.471 117.776 127.642 117.667 127.812 117.543C127.859 117.505 127.921 117.466 127.967 117.427C128.502 117.016 128.944 116.582 129.3 116.102C129.401 115.97 129.494 115.862 129.595 115.738H129.602C131.858 113.048 134.896 113.25 137.476 112.428C137.476 112.428 137.482 112.426 137.492 112.421C137.492 112.421 137.515 112.413 137.523 112.413L138.771 111.894C138.771 111.894 138.778 111.878 138.786 111.878C138.786 111.878 138.794 111.878 138.794 111.87C139.034 111.739 139.274 111.591 139.499 111.413C140.212 110.863 140.848 110.088 141.351 108.98V108.964M133.361 105.825C132.516 105.825 131.827 105.136 131.827 104.283C131.827 103.431 132.516 102.749 133.361 102.749C134.206 102.749 134.903 103.438 134.903 104.283C134.903 105.128 134.214 105.825 133.361 105.825Z" stroke="#252526" stroke-linejoin="round"/>
</g>
<defs>
<clipPath id="clip0_2014_49328">
<rect width="180.209" height="150" fill="white" transform="translate(0.395508)"/>
</clipPath>
</defs>
</svg>
