<svg width="135" height="217" viewBox="0 0 135 217" fill="none" xmlns="http://www.w3.org/2000/svg">
<g clip-path="url(#clip0_3552_10855)">
<path d="M118.604 204.09L118.604 12.7099C118.604 5.90021 113.084 0.379883 106.274 0.379883L29.8545 0.379883C23.0448 0.379883 17.5245 5.90021 17.5245 12.7099L17.5245 204.09C17.5245 210.9 23.0448 216.42 29.8545 216.42H106.274C113.084 216.42 118.604 210.9 118.604 204.09Z" fill="#252526" stroke="#252526" stroke-width="0.75" stroke-linecap="round" stroke-linejoin="round"/>
<path d="M106.285 4.37012H29.8652C25.2646 4.37012 21.5352 8.09959 21.5352 12.7001V204.08C21.5352 208.681 25.2646 212.41 29.8652 212.41H106.285C110.886 212.41 114.615 208.681 114.615 204.08V12.7001C114.615 8.09959 110.886 4.37012 106.285 4.37012Z" fill="#DAD4F2"/>
<path d="M78.4652 170.6L76.6352 170.3C76.4552 169.72 76.2252 169.16 75.9452 168.63L77.0352 167.12C77.1452 166.96 77.1352 166.74 76.9952 166.6L74.3452 163.95C74.2052 163.81 73.9852 163.79 73.8252 163.91L72.3152 165C71.7852 164.72 71.2252 164.48 70.6452 164.31L70.3452 162.48C70.3152 162.29 70.1452 162.14 69.9552 162.14H66.2052C66.0052 162.14 65.8452 162.28 65.8152 162.48L65.5152 164.31C64.9352 164.49 64.3752 164.72 63.8452 165L62.3352 163.91C62.1752 163.8 61.9552 163.81 61.8152 163.95L59.1652 166.6C59.0252 166.74 59.0052 166.96 59.1252 167.12L60.2152 168.63C59.9252 169.16 59.6952 169.72 59.5252 170.3L57.6952 170.6C57.5052 170.63 57.3652 170.8 57.3652 170.99V174.74C57.3652 174.94 57.5052 175.1 57.6952 175.13L59.5252 175.43C59.7052 176.01 59.9352 176.57 60.2152 177.1L59.1252 178.6C59.0152 178.76 59.0252 178.98 59.1652 179.12L61.8152 181.77C61.9552 181.91 62.1752 181.93 62.3352 181.81L63.8352 180.73C64.3652 181.02 64.9252 181.25 65.5052 181.42L65.8052 183.25C65.8352 183.44 66.0052 183.58 66.1952 183.58H69.9452C70.1452 183.58 70.3052 183.44 70.3352 183.25L70.6352 181.42C71.2152 181.24 71.7852 181.01 72.3052 180.73L73.8052 181.81C73.9652 181.92 74.1852 181.91 74.3252 181.77L76.9752 179.12C77.1152 178.98 77.1352 178.76 77.0152 178.6L75.9252 177.1C76.2152 176.57 76.4452 176.01 76.6152 175.43L78.4452 175.13C78.6352 175.1 78.7752 174.93 78.7752 174.74V170.99C78.7752 170.79 78.6352 170.63 78.4452 170.6H78.4652ZM68.0752 177.64C65.4452 177.64 63.3052 175.51 63.3052 172.87C63.3052 170.23 65.4352 168.1 68.0752 168.1C70.7152 168.1 72.8452 170.23 72.8452 172.87C72.8452 175.51 70.7152 177.64 68.0752 177.64Z" fill="#B4B4B4" stroke="#7A7A79" stroke-miterlimit="10"/>
<path d="M86.4251 61.7799C86.4251 59.4899 84.5651 57.6299 82.2751 57.6299H57.3851C55.0951 57.6299 53.2351 59.4899 53.2351 61.7799C53.2351 64.0699 51.3751 65.9299 49.0851 65.9299H36.6451C34.3551 65.9299 32.4951 67.7899 32.4951 70.0799V111.56C32.4951 113.85 34.3551 115.71 36.6451 115.71H103.015C105.305 115.71 107.165 113.85 107.165 111.56V70.0799C107.165 67.7899 105.305 65.9299 103.015 65.9299H90.5751C88.2851 65.9299 86.4251 64.0699 86.4251 61.7799Z" fill="#9C8BDC" stroke="#6A51CA" stroke-width="3" stroke-linecap="round" stroke-linejoin="round"/>
<path d="M69.8351 107.61C78.9975 107.61 86.4251 100.182 86.4251 91.0197C86.4251 81.8573 78.9975 74.4297 69.8351 74.4297C60.6727 74.4297 53.2451 81.8573 53.2451 91.0197C53.2451 100.182 60.6727 107.61 69.8351 107.61Z" fill="#6A51CA" stroke="#473687" stroke-width="3" stroke-linecap="round" stroke-linejoin="round"/>
<path d="M90.9648 73.3799H99.2648" stroke="#6A51CA" stroke-width="3" stroke-linecap="round" stroke-linejoin="round"/>
<path d="M112.814 50.7395L111.884 49.8095C110.724 48.6495 110.724 46.7595 111.884 45.5895L112.814 44.6595C113.004 44.4695 113.054 44.1495 112.894 43.9295C112.684 43.6395 112.284 43.6195 112.054 43.8595L111.104 44.8095C109.944 45.9695 108.054 45.9695 106.884 44.8095L105.954 43.8795C105.754 43.6795 105.444 43.6395 105.224 43.7995C104.934 44.0095 104.914 44.4095 105.154 44.6395L106.104 45.5895C107.264 46.7495 107.264 48.6395 106.104 49.8095L105.174 50.7395C104.984 50.9295 104.934 51.2495 105.094 51.4695C105.304 51.7595 105.704 51.7795 105.934 51.5395L106.884 50.5895C108.044 49.4295 109.934 49.4295 111.104 50.5895L112.054 51.5395C112.294 51.7795 112.694 51.7495 112.894 51.4695C113.054 51.2495 113.004 50.9295 112.814 50.7395Z" fill="#836ED3"/>
<path d="M125.015 139.22L124.065 138.27C122.885 137.09 122.885 135.17 124.065 133.98L125.015 133.03C125.215 132.83 125.265 132.51 125.095 132.29C124.885 132 124.475 131.98 124.235 132.22L123.265 133.19C122.085 134.37 120.165 134.37 118.975 133.19L118.025 132.24C117.825 132.04 117.505 131.99 117.285 132.16C116.995 132.37 116.975 132.78 117.215 133.02L118.185 133.99C119.365 135.17 119.365 137.09 118.185 138.28L117.235 139.23C117.035 139.43 116.985 139.75 117.155 139.97C117.365 140.26 117.775 140.28 118.015 140.04L118.985 139.07C120.165 137.89 122.085 137.89 123.275 139.07L124.245 140.04C124.485 140.28 124.895 140.26 125.105 139.97C125.265 139.74 125.225 139.42 125.025 139.23L125.015 139.22Z" fill="#B5A8E4"/>
<path d="M41.7345 52.02H40.9945C40.0745 52.02 39.3245 51.27 39.3245 50.35V49.61C39.3245 49.46 39.2145 49.31 39.0645 49.29C38.8745 49.26 38.7045 49.41 38.7045 49.6V50.35C38.7045 51.27 37.9545 52.02 37.0345 52.02H36.2945C36.1445 52.02 35.9945 52.13 35.9745 52.28C35.9445 52.47 36.0945 52.64 36.2845 52.64H37.0345C37.9545 52.64 38.7045 53.39 38.7045 54.31V55.05C38.7045 55.2 38.8145 55.35 38.9645 55.37C39.1545 55.4 39.3245 55.25 39.3245 55.06V54.31C39.3245 53.39 40.0745 52.64 40.9945 52.64H41.7445C41.9345 52.64 42.0845 52.47 42.0545 52.28C42.0345 52.13 41.8845 52.02 41.7345 52.02Z" fill="#B5A8E4"/>
<path d="M133.915 74.1196H133.175C132.255 74.1196 131.505 73.3696 131.505 72.4496V71.7096C131.505 71.5596 131.395 71.4096 131.245 71.3896C131.055 71.3596 130.885 71.5096 130.885 71.6996V72.4496C130.885 73.3696 130.135 74.1196 129.215 74.1196H128.475C128.325 74.1196 128.175 74.2296 128.155 74.3796C128.125 74.5696 128.275 74.7396 128.465 74.7396H129.215C130.135 74.7396 130.885 75.4896 130.885 76.4096V77.1496C130.885 77.2996 130.995 77.4496 131.145 77.4696C131.335 77.4996 131.505 77.3496 131.505 77.1596V76.4096C131.505 75.4896 132.255 74.7396 133.175 74.7396H133.925C134.115 74.7396 134.265 74.5696 134.235 74.3796C134.215 74.2296 134.065 74.1196 133.915 74.1196Z" fill="#6A51CA"/>
<path d="M6.51458 89.3999H5.77458C4.85458 89.3999 4.10458 88.6499 4.10458 87.7299V86.9899C4.10458 86.8399 3.99458 86.6899 3.84458 86.6699C3.65458 86.6399 3.48458 86.7899 3.48458 86.9799V87.7299C3.48458 88.6499 2.73458 89.3999 1.81458 89.3999H1.08458C0.934577 89.3999 0.784577 89.5099 0.764577 89.6599C0.734577 89.8499 0.884577 90.0198 1.07458 90.0198H1.82458C2.74458 90.0198 3.49458 90.7699 3.49458 91.6899V92.4299C3.49458 92.5799 3.60458 92.7299 3.75458 92.7499C3.94458 92.7799 4.11458 92.6299 4.11458 92.4399V91.6899C4.11458 90.7699 4.86458 90.0198 5.78458 90.0198H6.53458C6.72458 90.0198 6.87458 89.8499 6.84458 89.6599C6.82458 89.5099 6.67458 89.3999 6.52458 89.3999H6.51458Z" fill="#836ED3"/>
<path d="M24.6947 110.9L23.9247 110.13C22.9647 109.17 22.9647 107.61 23.9247 106.65L24.6947 105.88C24.8547 105.72 24.8947 105.46 24.7647 105.28C24.5947 105.04 24.2647 105.03 24.0647 105.22L23.2747 106.01C22.3147 106.97 20.7547 106.97 19.7947 106.01L19.0247 105.24C18.8647 105.08 18.6047 105.04 18.4247 105.17C18.1847 105.34 18.1747 105.67 18.3647 105.87L19.1547 106.66C20.1147 107.62 20.1147 109.18 19.1547 110.14L18.3847 110.91C18.2247 111.07 18.1847 111.33 18.3147 111.51C18.4847 111.75 18.8147 111.76 19.0147 111.57L19.8047 110.78C20.7647 109.82 22.3247 109.82 23.2847 110.78L24.0747 111.57C24.2747 111.77 24.6047 111.75 24.7747 111.51C24.9047 111.33 24.8647 111.07 24.7047 110.91L24.6947 110.9Z" fill="#F0EEFA"/>
</g>
<defs>
<clipPath id="clip0_3552_10855">
<rect width="133.49" height="216.79" fill="white" transform="translate(0.754883)"/>
</clipPath>
</defs>
</svg>
