<svg width="145" height="130" viewBox="0 0 145 130" fill="none" xmlns="http://www.w3.org/2000/svg">
<g clip-path="url(#clip0_3520_4831)">
<path d="M47.5593 33.9082H12.4866C5.85204 33.9082 0.477539 39.2827 0.477539 45.9173C0.477539 52.5519 5.85204 57.9264 12.4866 57.9264H47.4257C54.1462 57.9264 59.5971 63.3773 59.5971 70.0978C59.5971 76.8183 54.1462 82.2692 47.4257 82.2692H9.54642" stroke="#7A7A79" stroke-linecap="round" stroke-linejoin="round" stroke-dasharray="3 3"/>
<path d="M26.376 54.6034L51.4156 47.4629L75.5484 54.6989L95.9581 47.4629L119.623 54.6034L143.67 129.522L106.373 111.852L74.1833 124.128L38.156 111.852L2.3291 129.522L26.376 54.6034Z" fill="#FAFAFA"/>
<path d="M26.376 54.6034L51.4156 47.4629L38.156 111.852L2.3291 129.522L26.376 54.6034Z" fill="#D4D4D4"/>
<path d="M75.5482 54.6989L95.958 47.4629L106.373 111.852L74.1831 124.128L75.5482 54.6989Z" fill="#D4D4D4"/>
<path d="M10.1094 105.284L41.335 91.929L53.5159 101.265L61.277 84.1488L75.7585 88.4924L101.906 78.8984H116.836" stroke="#7A7A79" stroke-linecap="round" stroke-linejoin="round" stroke-dasharray="3 3"/>
<path d="M26.376 54.6034L51.4156 47.4629L75.5484 54.6989L95.9581 47.4629L119.623 54.6034L143.67 129.522L106.373 111.852L74.1833 124.128L38.156 111.852L2.3291 129.522L26.376 54.6034Z" stroke="#252526" stroke-linecap="round" stroke-linejoin="round"/>
<path d="M49.5828 56.3223L39.4639 105.495" stroke="#252526" stroke-linecap="round" stroke-linejoin="round"/>
<path d="M96.7793 52.5039L105.314 105.285" stroke="#252526" stroke-linecap="round" stroke-linejoin="round"/>
<path d="M75.7583 0.476562C61.315 0.476562 49.6113 11.8938 49.6113 25.984C49.6113 45.6491 73.7632 70.1924 75.7583 70.1924C77.7535 70.1924 101.905 45.6491 101.905 25.984C101.905 11.8938 90.2017 0.476562 75.7583 0.476562ZM75.7583 41.907C67.7204 41.907 61.2099 35.3965 61.2099 27.3586C61.2099 19.3207 67.7204 12.8102 75.7583 12.8102C83.7962 12.8102 90.3067 19.3207 90.3067 27.3586C90.3067 35.3965 83.7962 41.907 75.7583 41.907Z" fill="#6A51CA" stroke="#473687" stroke-linecap="round" stroke-linejoin="round"/>
<path d="M86.2217 74.8418L78.6899 74.7853C78.3558 74.7828 78.081 74.5134 78.0836 74.1697C78.0861 73.8356 78.3555 73.5608 78.6991 73.5634L86.2308 73.6199L86.2218 74.8322L86.2217 74.8418Z" fill="#ECEDEB" stroke="#252526" stroke-linejoin="round"/>
<path d="M85.7819 74.9863H90.765C90.8916 74.9863 90.9941 74.8838 90.9941 74.7572V73.6021C90.9941 73.4756 90.8916 73.373 90.765 73.373H85.7819C85.6554 73.373 85.5528 73.4756 85.5528 73.6021V74.7572C85.5528 74.8838 85.6554 74.9863 85.7819 74.9863Z" fill="#A0A0A0" stroke="#252526" stroke-linejoin="round"/>
<path d="M41.3348 50.252C30.328 50.252 21.4023 59.1776 21.4023 70.1844C21.4023 81.1911 30.328 90.1168 41.3348 90.1168C52.3415 90.1168 61.2672 81.1911 61.2672 70.1844C61.2672 59.1776 52.3415 50.252 41.3348 50.252ZM41.3348 86.7279C32.1991 86.7279 24.7912 79.3201 24.7912 70.1844C24.7912 61.0487 32.1991 53.6408 41.3348 53.6408C50.4705 53.6408 57.8783 61.0487 57.8783 70.1844C57.8783 79.3201 50.4705 86.7279 41.3348 86.7279Z" fill="#383838" stroke="#252526" stroke-linejoin="round"/>
<path d="M104.664 50.252C93.6576 50.252 84.7319 59.1776 84.7319 70.1844C84.7319 81.1911 93.6576 90.1168 104.664 90.1168C115.671 90.1168 124.597 81.1911 124.597 70.1844C124.597 59.1776 115.671 50.252 104.664 50.252ZM104.664 86.7279C95.5287 86.7279 88.1208 79.3201 88.1208 70.1844C88.1208 61.0487 95.5287 53.6408 104.664 53.6408C113.8 53.6408 121.208 61.0487 121.208 70.1844C121.208 79.3201 113.8 86.7279 104.664 86.7279Z" fill="#383838" stroke="#252526" stroke-linejoin="round"/>
<path d="M88.827 33.7665C90.2685 33.7665 92.9319 33.7665 94.2684 33.5565C95.6048 33.3465 97.39 33.1747 97.5713 33.5565C97.7527 33.9384 97.8195 34.2248 96.7599 35.103C95.7003 35.9813 94.6502 36.4013 94.192 36.7545C93.7338 37.1077 90.9272 37.4323 89.123 36.7068C87.3092 35.9813 85.6959 34.9312 85.1327 34.893C84.5694 34.8548 83.0229 35.2653 82.4979 35.2367C81.9729 35.208 81.8297 34.578 82.4979 34.1961C83.1661 33.8143 87.586 33.7761 88.8175 33.7761L88.827 33.7665Z" fill="#9C8BDC" stroke="#252526" stroke-linejoin="round"/>
<path d="M81.2949 72.7048C81.2949 72.7048 101.781 70.2992 102.459 70.1942C103.137 70.0892 103.538 70.5092 103.595 70.8147C103.652 71.1202 103.48 71.5211 102.802 71.7407C102.125 71.9602 81.6386 75.0437 81.6386 75.0437L81.2949 72.7144V72.7048Z" fill="#ECEDEB" stroke="#252526" stroke-linejoin="round"/>
<path d="M56.8853 37.9184C56.8853 37.9184 57.8972 35.1882 58.0118 34.8064C58.1263 34.4245 57.9927 34.3482 57.4486 34.1191C56.9044 33.8899 54.4033 33.0594 53.8783 32.8303C53.3532 32.6012 52.055 32.143 51.6827 32.1048C51.3104 32.0666 50.8903 32.0666 50.2794 32.1048C49.6684 32.143 48.7806 32.2194 49.0575 32.9735C49.3343 33.7277 49.4202 34.0904 49.7639 33.9663C50.3844 33.7372 51.4154 33.7086 51.9881 33.909C52.4464 34.0618 54.346 34.7968 54.7661 34.9878C55.1861 35.1787 55.2625 35.2169 55.1097 35.551C54.957 35.8851 54.4988 37.2025 54.4988 37.2025L56.9044 37.8993L56.8853 37.9184Z" fill="#7A7A79" stroke="#252526" stroke-linejoin="round"/>
<path d="M78.7462 79.9699C81.9464 79.9699 84.5407 77.3756 84.5407 74.1754C84.5407 70.9752 81.9464 68.3809 78.7462 68.3809C75.546 68.3809 72.9517 70.9752 72.9517 74.1754C72.9517 77.3756 75.546 79.9699 78.7462 79.9699Z" fill="#ECEDEB" stroke="#252526" stroke-linejoin="round"/>
<path d="M105.027 69.688C104.769 69.3921 89.6003 53.0395 87.0228 50.2711C88.9894 43.646 90.7554 37.6701 90.7554 37.6701C90.9272 37.0973 90.994 37.1069 90.4404 37.04C90.0299 36.9923 89.4476 36.8205 89.018 36.6582C88.8462 37.231 86.3641 45.4502 86.2496 45.7939C86.135 46.1376 86.1923 46.4812 85.5623 46.2521C84.9322 46.023 57.2101 39.0257 56.7519 38.7965C56.7519 38.7965 56.8187 38.4052 56.876 37.9183C56.876 37.8801 54.1744 37.1355 53.9739 37.0878C53.7544 37.0305 53.1339 39.1498 52.7616 40.1617C51.7783 42.8537 50.6996 45.7748 49.6304 48.4287C48.3894 51.5121 47.1389 54.605 45.8979 57.6885C44.8573 60.2755 43.8072 62.872 42.7572 65.4591C42.2894 66.6237 41.8503 67.817 41.3348 68.953C40.867 69.9744 40.5806 70.6045 40.9529 70.8049C41.2489 70.9577 41.583 71.1581 42.0889 70.194C42.6044 69.2393 53.0098 49.2019 53.2389 48.8105C53.468 48.4191 53.9262 48.3523 54.3176 48.8105C54.709 49.2687 70.4793 72.2559 70.9375 73.0483C71.3957 73.8406 73.4577 76.5804 73.4577 76.5804C73.4577 76.5804 72.5699 74.7475 73.1045 72.8096C73.6391 70.8813 74.6605 70.0508 74.6605 70.0508C74.6605 70.0508 58.8234 46.7485 58.1361 45.7271C57.4487 44.7056 56.1409 43.226 56.0836 42.4241C56.0264 41.6222 56.8091 41.1735 57.8688 41.4027C58.9284 41.6318 84.2449 47.3786 84.8177 47.6077C85.3904 47.8368 85.5527 47.8941 85.3904 48.5146C85.2186 49.1446 81.8011 59.7218 81.6961 60.0655C81.6388 60.2373 81.6388 60.3041 81.5911 60.3805L78.9945 68.3802C79.2809 68.3993 79.5386 68.4279 79.7964 68.4661C80.5696 68.5807 81.4479 69.0389 81.4479 69.0389C81.4479 69.0389 83.5003 62.0988 86.3928 52.3426C89.0562 55.0633 103.108 69.4494 103.815 70.1749C104.597 70.9863 104.836 70.8049 105.017 70.6904C105.199 70.5663 105.562 70.299 105.017 69.6689L105.027 69.688Z" fill="#ECEDEB" stroke="#252526" stroke-linejoin="round"/>
<path d="M41.3348 74.6618C43.8022 74.6618 45.8024 72.6616 45.8024 70.1942C45.8024 67.7268 43.8022 65.7266 41.3348 65.7266C38.8674 65.7266 36.8672 67.7268 36.8672 70.1942C36.8672 72.6616 38.8674 74.6618 41.3348 74.6618Z" fill="#ECEDEB" stroke="#252526" stroke-linejoin="round"/>
<path d="M104.664 74.6618C107.132 74.6618 109.132 72.6616 109.132 70.1942C109.132 67.7268 107.132 65.7266 104.664 65.7266C102.197 65.7266 100.197 67.7268 100.197 70.1942C100.197 72.6616 102.197 74.6618 104.664 74.6618Z" fill="#ECEDEB" stroke="#252526" stroke-linejoin="round"/>
<path d="M71.2583 73.6289L78.79 73.5724C79.1241 73.5699 79.403 73.8351 79.4056 74.1787C79.4081 74.5128 79.1429 74.7917 78.7992 74.7943L71.2675 74.8508L71.2584 73.6385L71.2583 73.6289Z" fill="#ECEDEB" stroke="#252526" stroke-linejoin="round"/>
<path d="M71.701 73.373H66.7179C66.5913 73.373 66.4888 73.4756 66.4888 73.6022V74.7572C66.4888 74.8838 66.5913 74.9864 66.7179 74.9864H71.701C71.8275 74.9864 71.9301 74.8838 71.9301 74.7572V73.6022C71.9301 73.4756 71.8275 73.373 71.701 73.373Z" fill="#A0A0A0" stroke="#252526" stroke-linejoin="round"/>
<path d="M14.7582 26.3086H31.3113C32.0082 26.3086 32.5809 26.8814 32.5809 27.5782V36.4371C32.5809 39.2341 30.3089 41.5157 27.5024 41.5157H18.5576C15.7605 41.5157 13.479 39.2437 13.479 36.4371V27.5782C13.479 26.8814 14.0518 26.3086 14.7486 26.3086H14.7582Z" fill="#252526"/>
<path d="M17.7651 26.3083V23.664C17.7651 20.7524 20.123 18.3945 23.0346 18.3945C25.9462 18.3945 28.3041 20.7524 28.3041 23.664V26.3083" stroke="#252526" stroke-width="1.5" stroke-linecap="round" stroke-linejoin="round"/>
<path d="M23.0347 33.9062V37.5815" stroke="#F4F4F4" stroke-linecap="round" stroke-linejoin="round"/>
<path d="M119.196 35.5412L130.595 39.835C131.077 40.0167 131.322 40.5578 131.14 41.0402L128.842 47.1418C128.115 49.0714 125.963 50.0459 124.033 49.319L117.878 47.0006C115.949 46.2737 114.974 44.1215 115.701 42.1919L117.999 36.0903C118.181 35.6079 118.722 35.3629 119.205 35.5446L119.196 35.5412Z" fill="#252526"/>
<path d="M128.616 38.8235L129.533 36.3988C130.287 34.3941 132.521 33.3822 134.525 34.1364C136.53 34.8905 137.542 37.1243 136.788 39.129L136.301 40.4178" stroke="#252526" stroke-width="1.5" stroke-linecap="round" stroke-linejoin="round"/>
<path d="M122.927 42.918L121.981 45.4477" stroke="#F4F4F4" stroke-linecap="round" stroke-linejoin="round"/>
<path d="M107.375 10.252H116.836" stroke="#5F6060" stroke-width="1.5" stroke-linecap="round" stroke-linejoin="round"/>
<path d="M112.11 5.51758V14.9779" stroke="#5F6060" stroke-width="1.5" stroke-linecap="round" stroke-linejoin="round"/>
<path d="M128.616 24.9922C129.343 24.9922 129.933 24.4024 129.933 23.6748C129.933 22.9472 129.343 22.3574 128.616 22.3574C127.888 22.3574 127.298 22.9472 127.298 23.6748C127.298 24.4024 127.888 24.9922 128.616 24.9922Z" fill="#7A7A79"/>
<path d="M40.791 11.5703C41.5186 11.5703 42.1084 10.9805 42.1084 10.2529C42.1084 9.52536 41.5186 8.93555 40.791 8.93555C40.0634 8.93555 39.4736 9.52536 39.4736 10.2529C39.4736 10.9805 40.0634 11.5703 40.791 11.5703Z" fill="#7A7A79"/>
<path d="M3.65599 76.894C4.69462 76.894 5.53659 76.052 5.53659 75.0134C5.53659 73.9748 4.69462 73.1328 3.65599 73.1328C2.61736 73.1328 1.77539 73.9748 1.77539 75.0134C1.77539 76.052 2.61736 76.894 3.65599 76.894Z" fill="#7A7A79"/>
</g>
<defs>
<clipPath id="clip0_3520_4831">
<rect width="144.147" height="130" fill="white"/>
</clipPath>
</defs>
</svg>
