<svg width="227" height="150" viewBox="0 0 227 150" fill="none" xmlns="http://www.w3.org/2000/svg">
<g clip-path="url(#clip0_3034_61477)">
<path d="M110.175 77.6973V144.87L34.002 138.453V70.4862L110.175 77.6973Z" fill="#6A51CA" stroke="#252526" stroke-linecap="round" stroke-linejoin="round"/>
<path d="M134.254 57.4606V146.896L110.175 144.87V77.6973L34.0016 70.4862V138.453L19.5703 137.23V46.507L67.6017 9.85822L134.254 57.4606Z" fill="#C1B7E8" stroke="#252526" stroke-linecap="round" stroke-linejoin="round"/>
<path d="M226.008 48.0588V137.495L134.254 146.896V57.4606L226.008 48.0588Z" fill="#B5A8E4" stroke="#252526" stroke-linecap="round" stroke-linejoin="round"/>
<path d="M226.008 48.0588L134.254 57.4606L67.6016 9.85822L159.356 0.456406L226.008 48.0588Z" fill="#E6E2F6" stroke="#252526" stroke-linecap="round" stroke-linejoin="round"/>
<path d="M31.0352 37.7624C50.7059 51.2627 81.1021 54.2293 118.216 46.0141" stroke="#252526" stroke-linecap="round" stroke-linejoin="round"/>
<path d="M43.1292 43.7779L34.2051 39.2563L27.6991 52.0969L36.6232 56.6185L43.1292 43.7779Z" fill="#ECEDEB" stroke="#252526" stroke-linecap="round" stroke-linejoin="round"/>
<path d="M31.5371 50.9432C31.2541 50.7972 31.2723 50.4138 31.3362 50.1217C31.4275 49.6379 31.6009 49.1815 31.7379 48.7069C32.2217 47.1825 32.8332 45.6855 33.5817 44.2707C33.673 44.0881 33.7643 43.9147 33.8647 43.7413C33.9468 43.6043 34.1477 43.6135 34.2207 43.7413C34.2937 43.8691 34.2481 44.0973 34.102 44.1612C33.3992 45.4847 32.7785 46.863 32.3129 48.287C32.1486 48.7708 31.9934 49.2637 31.8474 49.7566C31.7835 50.0031 31.7014 50.2678 31.7287 50.5233C32.0756 50.7698 33.3718 48.8073 33.6091 48.4878C33.956 47.9858 34.3393 47.5202 34.7045 47.0456C34.8323 46.8813 34.9418 46.7079 35.0604 46.5344C35.2065 46.3245 35.5168 46.4797 35.4347 46.7261C35.3708 46.8813 35.2887 47.0273 35.2156 47.1825C34.6679 48.5061 34.5128 49.9574 34.4854 51.354C34.5402 51.8652 34.7866 51.856 35.1791 51.6187C35.7998 51.2262 36.2927 50.6603 36.7765 50.1035C37.4976 49.2637 38.1822 48.3783 38.8212 47.4655C38.9033 47.3377 38.9855 47.2099 39.0311 47.0638C39.0494 46.9817 39.0129 46.8904 39.0768 46.8083C39.2319 46.5892 39.5423 46.717 39.5058 46.9817C39.4054 47.5933 38.8759 48.1136 38.5382 48.6065C37.8536 49.4645 35.599 52.6319 34.4945 52.1846C34.1842 52.0386 34.0655 51.6643 34.0564 51.3175C34.0929 50.2039 34.1933 49.072 34.5036 47.9766C33.9195 48.7251 33.4265 49.5467 32.7967 50.2586C32.4772 50.6146 32.03 51.1806 31.5279 50.9341L31.5371 50.9432Z" fill="#252526" stroke="#252526" stroke-width="0.5" stroke-miterlimit="10"/>
<path d="M53.2615 47.2343L43.7539 44.1213L39.2746 57.8014L48.7822 60.9145L53.2615 47.2343Z" fill="#ECEDEB" stroke="#252526" stroke-linecap="round" stroke-linejoin="round"/>
<path d="M44.0774 50.0487C43.9678 49.93 44.0043 49.7292 44.1504 49.6562C44.2417 49.6014 44.3329 49.6379 44.4242 49.6562C44.7711 49.7018 45.118 49.6653 45.4648 49.6471C46.3594 49.5923 47.2448 49.4554 48.1393 49.355C48.4314 49.3641 48.5136 49.7657 48.258 49.8935C48.1484 49.9483 48.0206 49.93 47.9111 49.9392C47.6647 49.9574 47.4091 49.9848 47.1626 50.0122C46.6606 50.0487 44.3421 50.3317 44.0865 50.0396L44.0774 50.0487Z" fill="#252526" stroke="#252526" stroke-width="0.5" stroke-miterlimit="10"/>
<path d="M43.2024 52.568C43.0198 52.4859 43.0563 52.1847 43.2572 52.1482C43.3667 52.1208 43.4488 52.2029 43.5493 52.2029C43.7501 52.2212 43.9509 52.2029 44.1608 52.2029C45.4753 52.1208 46.8079 51.8834 48.1224 52.1208C48.4966 52.1573 48.4418 52.6958 48.0676 52.6502C47.027 52.3946 45.9408 52.5224 44.8819 52.5954C44.4164 52.6137 43.6223 52.7506 43.2115 52.568H43.2024Z" fill="#252526" stroke="#252526" stroke-width="0.5" stroke-miterlimit="10"/>
<path d="M43.2933 55.8085C43.1016 55.7354 42.9099 55.6442 42.7638 55.4981C42.3713 54.9961 42.5174 54.2932 42.7456 53.7547C43.1746 52.7415 43.8227 51.8287 44.3156 50.8429C44.4251 50.6147 44.5347 50.3865 44.6351 50.1491C44.7081 49.9939 44.7355 49.8114 44.8359 49.6653C45.0641 49.3915 45.4657 49.7566 45.1827 49.994C44.8633 50.8611 44.3977 51.6552 43.9413 52.4494C43.5762 53.1248 42.8551 54.1837 43.0559 54.9596C43.275 55.918 47.3643 55.1695 48.2132 55.1056C48.4049 55.0874 48.6149 54.9961 48.7518 55.1969C48.8431 55.3247 48.8065 55.5164 48.6696 55.6077C48.5692 55.6807 48.4414 55.6533 48.3228 55.6716C47.2183 55.7811 46.1138 55.9636 44.9911 55.9819C44.416 56.0002 43.8318 56.0093 43.2841 55.8085H43.2933Z" fill="#252526" stroke="#252526" stroke-width="0.5" stroke-miterlimit="10"/>
<path d="M99.1913 48.8531L89.2363 49.845L90.6635 64.1689L100.618 63.177L99.1913 48.8531Z" fill="#ECEDEB" stroke="#252526" stroke-linecap="round" stroke-linejoin="round"/>
<path d="M92.3118 60.6919C92.184 60.6554 92.1201 60.5367 92.1201 60.4089C92.1019 60.2902 92.0836 60.1625 92.0745 60.0438C92.0471 59.6239 92.0471 59.204 92.0562 58.7841C92.0928 57.4058 92.2023 56.0275 92.4031 54.6674C92.4122 54.5761 92.4214 54.4757 92.4487 54.3936C92.4761 54.2749 92.6404 54.2293 92.7317 54.3114C92.8139 54.3753 92.8412 54.5122 92.7774 54.6035C92.6222 55.7628 92.5309 56.9312 92.4944 58.0995C92.4761 58.7294 92.467 59.3592 92.5218 59.989C92.7043 60.062 92.6587 60.272 92.6404 60.4272C92.613 60.6006 92.5126 60.7649 92.3118 60.7101V60.6919Z" fill="#252526" stroke="#252526" stroke-width="0.5" stroke-miterlimit="10"/>
<path d="M97.4143 61.0479C97.1131 61.0205 97.1861 60.701 97.1769 60.4911C97.1769 59.9434 97.1587 59.4048 97.1404 58.8572C97.1039 57.3237 97.1769 55.781 97.25 54.2475C97.25 54.0193 97.2682 53.28 97.0674 53.1613C96.6019 53.4625 96.3919 54.1015 96.1729 54.5853C95.8534 55.4524 95.7073 56.3743 95.6343 57.2871C95.5887 57.7435 95.6069 58.2182 95.5248 58.6746C95.47 58.8754 95.1962 58.9393 95.0684 58.7659C95.041 58.7294 95.0227 58.6837 95.0227 58.6381C94.9771 58.5103 94.9406 58.3734 94.895 58.2456C94.685 57.5336 94.3838 56.8581 94.1738 56.1461C94.0643 55.7719 93.9548 55.3977 93.8635 55.0234C93.7631 54.6765 93.7174 54.2932 93.471 54.0193C93.471 54.0193 93.4619 54.0193 93.4527 54.0193C93.2884 54.1928 93.1972 54.4118 93.0876 54.6127C92.9507 54.8774 92.832 55.1512 92.759 55.4342C92.7134 55.5985 92.6769 55.7628 92.6586 55.9271C92.6586 56.0275 92.6586 56.1644 92.5308 56.1827C92.2661 56.1918 92.4213 55.7354 92.4304 55.5893C92.5034 55.2151 92.613 54.8409 92.7773 54.494C92.9142 54.2201 93.0237 53.9189 93.2428 53.709C93.4527 53.5629 93.7266 53.6633 93.8452 53.8642C94.0004 54.0741 94.0734 54.3297 94.1465 54.5761C94.2286 54.8956 94.3108 55.2242 94.402 55.5437C94.6029 56.2648 94.8767 56.9585 95.1414 57.6614C95.2144 56.3926 95.397 55.0964 95.9629 53.9372C96.1729 53.499 96.4285 53.0244 96.8666 52.7871C96.9853 52.7232 97.1404 52.7323 97.2591 52.7871C97.4873 52.8875 97.5603 53.1522 97.6151 53.3712C97.7155 53.9007 97.6516 54.4392 97.6333 54.9686C97.5968 56.0549 97.5421 57.1502 97.5603 58.2456C97.5603 58.9028 97.606 59.5691 97.6333 60.2264C97.6333 60.418 97.6516 60.6189 97.6516 60.8105C97.6516 60.9383 97.5238 61.057 97.396 61.0479H97.4143Z" fill="#252526" stroke="#252526" stroke-width="0.5" stroke-miterlimit="10"/>
<path d="M88.1551 50.1434L78.1562 50.4716L78.6285 64.8586L88.6274 64.5304L88.1551 50.1434Z" fill="#ECEDEB" stroke="#252526" stroke-linecap="round" stroke-linejoin="round"/>
<path d="M82.5082 61.1939C83.5671 61.057 84.4799 60.345 85.0549 59.4688C85.3561 58.985 85.4839 58.4282 85.5935 57.8714C85.6756 57.2963 85.7486 56.6847 85.63 56.1097C85.5113 55.6624 85.2831 55.206 84.9089 54.923C84.7902 55.0417 84.6076 55.0052 84.5072 54.8956C84.2517 54.8135 83.9961 54.9139 83.7679 55.0326C82.3165 55.8723 80.8834 57.7983 80.8104 59.5144C80.7374 60.6463 81.3763 61.2852 82.5082 61.1939ZM81.9788 61.7599C80.7648 61.6047 80.1714 60.6737 80.2536 59.5053C80.3175 57.771 81.5863 55.9819 82.9281 54.9504C82.7547 54.7131 83.0376 54.494 83.2202 54.3571C83.8226 53.9828 84.6533 54.0741 85.2283 54.4666C85.776 54.8683 86.1046 55.5255 86.2324 56.1918C86.2872 56.5478 86.2689 56.9038 86.2598 57.2507C86.1868 58.1635 86.0042 59.1219 85.4931 59.9069C84.7172 61.0205 83.3936 61.9242 81.997 61.769L81.9788 61.7599Z" fill="#252526" stroke="#252526" stroke-width="0.5" stroke-miterlimit="10"/>
<path d="M76.7143 50.3972L66.7344 49.6994L65.7302 64.0591L75.7101 64.757L76.7143 50.3972Z" fill="#ECEDEB" stroke="#252526" stroke-linecap="round" stroke-linejoin="round"/>
<path d="M69.7102 61.6138C69.2447 61.5134 68.7609 61.34 68.4323 60.984C67.8025 60.2355 67.6747 59.1949 67.9759 58.2912C68.1493 57.6523 68.5145 57.1046 68.9161 56.5752C69.2082 56.1735 69.5185 55.7902 69.8745 55.4433C70.3583 54.9869 71.8827 53.7546 72.476 54.4484C72.5308 54.5944 72.3665 54.7313 72.2295 54.6674C72.1018 54.6035 71.9557 54.5944 71.8188 54.64C71.189 54.85 70.6778 55.2881 70.2031 55.7354C69.838 56.1096 69.5094 56.5295 69.2082 56.9585C68.6423 57.6979 68.2224 58.6198 68.341 59.5692C68.4049 59.9708 68.5784 60.3633 68.8522 60.6645C69.0713 60.8562 69.3634 60.9566 69.6372 61.0388C70.267 61.2122 70.906 61.0205 71.5176 60.8745C72.2204 60.6828 72.9324 60.5093 73.6079 60.2446C73.8726 59.6969 74.5481 60.4272 73.973 60.7193C73.7083 60.8653 73.4162 60.9383 73.1241 61.0205C72.7681 61.13 72.4121 61.2304 72.0561 61.3217C71.2894 61.5043 70.4952 61.769 69.7011 61.6138H69.7102Z" fill="#252526" stroke="#252526" stroke-width="0.5" stroke-miterlimit="10"/>
<path d="M64.8247 49.4358L54.9883 47.611L52.3626 61.7643L62.199 63.5892L64.8247 49.4358Z" fill="#ECEDEB" stroke="#252526" stroke-linecap="round" stroke-linejoin="round"/>
<path d="M57.069 59.8704C56.0558 59.4414 56.074 58.1543 56.1197 57.2141C56.1744 56.4017 56.2931 55.5985 56.4209 54.7952C56.5852 53.6999 56.7769 52.6045 56.8956 51.5C56.9229 51.3357 57.1146 51.2353 57.2607 51.3175C57.4159 51.3996 57.4889 51.6278 57.3702 51.7647C57.215 53.0518 56.996 54.3388 56.8134 55.6259C56.713 56.5295 56.357 58.492 57.0234 59.1766C57.215 59.3775 57.4159 59.3866 57.6714 59.3136C57.8723 59.2588 58.0731 59.1949 58.2739 59.1219C58.9676 58.9028 59.634 58.5925 60.2547 58.2091C60.3368 58.0722 60.4829 57.9535 60.6472 57.9352C60.8297 57.917 60.994 58.1087 60.9301 58.2912C60.9119 58.3551 60.8662 58.4099 60.8115 58.4647C60.7841 58.5833 60.6837 58.6564 60.5741 58.7111C60.0173 59.0397 59.4331 59.3318 58.8216 59.5418C58.283 59.6969 57.6258 60.0529 57.069 59.8704Z" fill="#252526" stroke="#252526" stroke-width="0.5" stroke-miterlimit="10"/>
<path d="M110.894 47.4459L101.006 48.9643L103.191 63.1923L113.079 61.6739L110.894 47.4459Z" fill="#ECEDEB" stroke="#252526" stroke-linecap="round" stroke-linejoin="round"/>
<path d="M104.132 53.6816C104.05 53.4808 104.224 53.3439 104.379 53.2617C104.534 53.1613 104.689 53.07 104.854 52.9696C105.693 52.4402 106.588 51.9929 107.446 51.5C107.93 51.1623 108.295 51.6734 107.93 51.9382C107.738 52.0021 107.555 52.1025 107.382 52.1937C106.789 52.5132 106.186 52.8144 105.602 53.1522C105.337 53.3074 105.063 53.4625 104.799 53.6268C104.58 53.7546 104.324 54.0102 104.132 53.6816Z" fill="#252526" stroke="#252526" stroke-width="0.5" stroke-miterlimit="10"/>
<path d="M104.416 57.0407C104.16 56.9768 104.115 56.6117 104.343 56.4839C104.443 56.42 104.553 56.3652 104.662 56.3105C105.064 56.1097 105.484 55.9454 105.895 55.7537C106.287 55.5802 106.671 55.3977 107.036 55.1786C107.419 54.9595 107.83 54.7313 108.158 54.4301C108.514 53.9828 109.007 54.421 108.706 54.7678C108.533 54.9413 108.341 55.0964 108.14 55.2334C107.291 55.7993 106.36 56.2192 105.42 56.6208C105.247 56.6938 105.082 56.776 104.909 56.8581C104.754 56.9312 104.599 57.0863 104.416 57.0316V57.0407Z" fill="#252526" stroke="#252526" stroke-width="0.5" stroke-miterlimit="10"/>
<path d="M106.706 60.0986C104.962 59.7517 105.108 56.6208 105.108 55.2425C105.136 54.5031 105.2 53.7637 105.255 53.0244C105.291 52.7323 105.729 52.6958 105.802 52.9879C105.784 53.6359 105.684 54.2932 105.665 54.9504C105.629 55.9362 105.51 59.7608 107.08 59.4779C107.527 59.3592 107.893 59.0397 108.248 58.7567C108.76 58.3369 109.28 57.917 109.764 57.4697C109.873 56.8764 110.722 57.2141 110.457 57.7253C110.019 58.1999 109.472 58.5651 108.979 58.9849C108.312 59.4779 107.61 60.2081 106.706 60.0894V60.0986Z" fill="#252526" stroke="#252526" stroke-width="0.5" stroke-miterlimit="10"/>
<path d="M134.254 57.4606C172.053 71.4629 190.263 73.8727 226.008 48.0497" stroke="#252526" stroke-linecap="round" stroke-linejoin="round"/>
<path d="M142.332 72.75L151.378 62.983L140.57 59.5509L142.332 72.75Z" fill="#D4D4D4" stroke="#252526" stroke-linecap="round" stroke-linejoin="round"/>
<path d="M161.756 77.9529L169.606 67.2001L158.461 65.0551L161.756 77.9529Z" fill="#D4D4D4" stroke="#252526" stroke-linecap="round" stroke-linejoin="round"/>
<path d="M184.247 79.0026L188.692 66.4608L177.41 67.5835L184.247 79.0026Z" fill="#D4D4D4" stroke="#252526" stroke-linecap="round" stroke-linejoin="round"/>
<path d="M205.452 73.5167L206.273 60.2264L195.73 64.4161L205.452 73.5167Z" fill="#D4D4D4" stroke="#252526" stroke-linecap="round" stroke-linejoin="round"/>
<path d="M220.851 65.6301L219.747 52.3672L209.916 58.0357L220.851 65.6301Z" fill="#D4D4D4" stroke="#252526" stroke-linecap="round" stroke-linejoin="round"/>
<path d="M192.355 55.2881C192.939 63.3664 181.711 70.7601 181.711 70.7601C181.711 70.7601 170.393 65.3837 168.951 56.9859C167.508 48.5882 173.131 41.9795 179.594 41.514C186.056 41.0485 191.771 47.2099 192.355 55.2881Z" fill="#252526" stroke="#252526" stroke-linecap="round" stroke-linejoin="round"/>
<path d="M211.979 65.8766C210.081 73.179 197.959 76.3464 197.959 76.3464C197.959 76.3464 189.579 68.2133 190.821 60.3724C191.998 52.924 198.999 48.3783 204.841 49.9026C210.683 51.427 213.878 58.5742 211.979 65.8766Z" fill="#6A51CA" stroke="#252526" stroke-linecap="round" stroke-linejoin="round"/>
<path d="M196.325 131.543H187.051V143.738H196.325V131.543Z" fill="#8E8E8E" stroke="#252526" stroke-linecap="round" stroke-linejoin="round"/>
<path d="M181.994 70.7966L189.771 131.543" stroke="#252526" stroke-linecap="round" stroke-linejoin="round"/>
<path d="M198.078 76.109L191.725 131.543V98.0801" stroke="#252526" stroke-linecap="round" stroke-linejoin="round"/>
<path d="M203.455 83.4205C203.455 91.5171 191.726 98.0801 191.726 98.0801C191.726 98.0801 180.827 91.9004 179.996 83.4205C179.166 74.9407 185.245 68.761 191.726 68.761C198.207 68.761 203.455 75.324 203.455 83.4205Z" fill="#ECEDEB" stroke="#252526" stroke-linecap="round" stroke-linejoin="round"/>
<mask id="mask0_3034_61477" style="mask-type:luminance" maskUnits="userSpaceOnUse" x="23" y="63" width="87" height="87">
<path d="M109.864 63.2751H23.1387V150H109.864V63.2751Z" fill="white"/>
</mask>
<g mask="url(#mask0_3034_61477)">
<path d="M97.1915 127.283L89.4786 127.225C89.1682 127.223 88.9237 126.965 88.9259 126.664L88.9268 126.555C88.9291 126.244 89.1865 126 89.4877 126.002L97.2007 126.06L97.1914 127.292L97.1915 127.283Z" fill="#ECEDEB" stroke="#252526" stroke-linejoin="round"/>
<path d="M96.7911 127.417H101.775C101.926 127.417 102.049 127.295 102.049 127.144V126.048C102.049 125.897 101.926 125.774 101.775 125.774H96.7911C96.6399 125.774 96.5173 125.897 96.5173 126.048V127.144C96.5173 127.295 96.6399 127.417 96.7911 127.417Z" fill="#A0A0A0" stroke="#252526" stroke-linejoin="round"/>
<path d="M51.5629 102.279C40.372 102.279 31.2988 111.352 31.2988 122.543C31.2988 133.734 40.372 142.807 51.5629 142.807C62.7538 142.807 71.827 133.734 71.827 122.543C71.827 111.352 62.7538 102.279 51.5629 102.279ZM51.5629 139.357C42.2798 139.357 34.7492 131.826 34.7492 122.543C34.7492 113.26 42.2798 105.729 51.5629 105.729C60.8461 105.729 68.3767 113.26 68.3767 122.543C68.3767 131.826 60.8461 139.357 51.5629 139.357Z" fill="#383838" stroke="#252526" stroke-linejoin="round"/>
<path d="M115.942 102.279C104.751 102.279 95.6777 111.352 95.6777 122.543C95.6777 133.734 104.751 142.807 115.942 142.807C127.133 142.807 136.206 133.734 136.206 122.543C136.206 111.352 127.133 102.279 115.942 102.279ZM115.942 139.357C106.659 139.357 99.1281 131.826 99.1281 122.543C99.1281 113.26 106.659 105.729 115.942 105.729C125.225 105.729 132.756 113.26 132.756 122.543C132.756 131.826 125.225 139.357 115.942 139.357Z" fill="#383838" stroke="#252526" stroke-linejoin="round"/>
<path d="M99.8405 85.5109C101.301 85.5109 104.021 85.5109 105.372 85.3009C106.723 85.091 108.549 84.9084 108.731 85.3009C108.914 85.6934 108.978 85.9764 107.91 86.8709C106.842 87.7655 105.765 88.1945 105.299 88.5505C104.834 88.9065 101.986 89.2351 100.142 88.5048C98.2979 87.7655 96.6549 86.6975 96.0889 86.661C95.523 86.6245 93.9438 87.0352 93.4144 87.0079C92.885 86.9805 92.7389 86.3415 93.4144 85.949C94.0899 85.5565 98.59 85.52 99.8405 85.52V85.5109Z" fill="#9C8BDC" stroke="#252526" stroke-linejoin="round"/>
<path d="M92.1914 125.099C92.1914 125.099 113.021 122.653 113.715 122.543C114.409 122.434 114.811 122.863 114.874 123.173C114.938 123.483 114.756 123.885 114.062 124.122C113.368 124.36 92.5383 127.481 92.5383 127.481L92.1914 125.108V125.099Z" fill="#ECEDEB" stroke="#252526" stroke-linejoin="round"/>
<path d="M67.3638 89.7371C67.3638 89.7371 68.3861 86.9622 68.5048 86.5789C68.6234 86.1955 68.4774 86.1133 67.9297 85.8851C67.382 85.6569 64.8353 84.808 64.2968 84.5707C63.7582 84.3334 62.4438 83.877 62.0604 83.8405C61.677 83.804 61.248 83.804 60.6364 83.8405C60.0249 83.877 59.1121 83.9591 59.3859 84.7259C59.6597 85.4926 59.751 85.8669 60.0979 85.7391C60.7277 85.5109 61.7774 85.4744 62.3525 85.6752C62.818 85.8304 64.7532 86.5789 65.173 86.7705C65.5929 86.9622 65.6751 86.9987 65.5199 87.3456C65.3647 87.6925 64.8992 89.0252 64.8992 89.0252L67.3455 89.7371H67.3638Z" fill="#7A7A79" stroke="#252526" stroke-linejoin="round"/>
<path d="M89.59 132.502C92.8467 132.502 95.4867 129.862 95.4867 126.605C95.4867 123.348 92.8467 120.708 89.59 120.708C86.3334 120.708 83.6934 123.348 83.6934 126.605C83.6934 129.862 86.3334 132.502 89.59 132.502Z" fill="#ECEDEB" stroke="#252526" stroke-linejoin="round"/>
<path d="M116.307 122.032C116.051 121.731 100.616 105.109 98.0054 102.288C100.004 95.5517 101.803 89.4816 101.803 89.4816C101.976 88.9065 102.04 88.9065 101.483 88.8426C101.063 88.797 100.47 88.6144 100.032 88.4592C99.8584 89.0343 97.33 97.3955 97.2204 97.7424C97.1018 98.0892 97.1657 98.4361 96.5267 98.2079C95.8877 97.9797 67.7006 90.8599 67.235 90.6317C67.235 90.6317 67.2989 90.23 67.3628 89.7371C67.3628 89.6915 64.6153 88.943 64.4145 88.8882C64.1954 88.8335 63.5565 90.9785 63.1822 92.01C62.1781 94.7484 61.0828 97.715 59.9966 100.417C58.7278 103.557 57.4681 106.697 56.1993 109.828C55.1405 112.457 54.0725 115.095 53.0045 117.724C52.5299 118.91 52.0826 120.115 51.5532 121.274C51.0785 122.315 50.7864 122.954 51.1607 123.155C51.4619 123.319 51.7996 123.511 52.3199 122.534C52.8402 121.557 63.4287 101.202 63.6569 100.791C63.8851 100.38 64.3506 100.326 64.7522 100.791C65.1539 101.257 81.1826 124.624 81.6481 125.437C82.1136 126.249 84.2131 129.033 84.2131 129.033C84.2131 129.033 83.3094 127.171 83.8479 125.208C84.3865 123.246 85.4271 122.406 85.4271 122.406C85.4271 122.406 69.3253 98.7191 68.6316 97.6785C67.9379 96.6379 66.6052 95.1318 66.5504 94.3194C66.4957 93.507 67.2898 93.0506 68.3669 93.2788C69.444 93.507 95.1849 99.3489 95.7691 99.5862C96.3441 99.8144 96.5176 99.8783 96.3441 100.508C96.1707 101.147 92.7021 111.909 92.5834 112.256C92.5287 112.429 92.5286 112.502 92.4739 112.575L89.8359 120.708C90.128 120.727 90.3927 120.763 90.6483 120.8C91.4424 120.918 92.3278 121.384 92.3278 121.384C92.3278 121.384 94.4181 114.328 97.3574 104.415C100.059 107.181 114.354 121.804 115.075 122.543C115.869 123.365 116.115 123.182 116.298 123.063C116.48 122.945 116.855 122.671 116.298 122.023L116.307 122.032Z" fill="#ECEDEB" stroke="#252526" stroke-linejoin="round"/>
<path d="M51.562 127.089C54.0675 127.089 56.0986 125.058 56.0986 122.552C56.0986 120.047 54.0675 118.016 51.562 118.016C49.0565 118.016 47.0254 120.047 47.0254 122.552C47.0254 125.058 49.0565 127.089 51.562 127.089Z" fill="#ECEDEB" stroke="#252526" stroke-linejoin="round"/>
<path d="M81.9903 126.041L89.7032 125.983C90.0136 125.981 90.2619 126.234 90.2642 126.536L90.265 126.645C90.2673 126.956 90.0136 127.204 89.7124 127.206L81.9995 127.264L81.9902 126.032L81.9903 126.041Z" fill="#ECEDEB" stroke="#252526" stroke-linejoin="round"/>
<path d="M82.3886 125.784H77.4047C77.2535 125.784 77.1309 125.906 77.1309 126.057V127.153C77.1309 127.304 77.2535 127.427 77.4047 127.427H82.3886C82.5398 127.427 82.6624 127.304 82.6624 127.153V126.057C82.6624 125.906 82.5398 125.784 82.3886 125.784Z" fill="#A0A0A0" stroke="#252526" stroke-linejoin="round"/>
<path d="M79.8691 79.7694L65.7207 82.3252L70.5768 90.7412L79.8691 79.7694Z" fill="#B5A8E4" stroke="#252526" stroke-linecap="round" stroke-linejoin="round"/>
</g>
<path d="M0.238516 59.5235H0.228516" stroke="#252526" stroke-width="0.5" stroke-linecap="round" stroke-linejoin="round"/>
</g>
<defs>
<clipPath id="clip0_3034_61477">
<rect width="226.465" height="150" fill="white"/>
</clipPath>
</defs>
</svg>
