<svg width="227" height="142" viewBox="0 0 227 142" fill="none" xmlns="http://www.w3.org/2000/svg">
<rect width="226.458" height="142" rx="15" fill="#D4D4D4"/>
<path d="M184.46 21.5703H181.175V22.5727H184.46V21.5703Z" fill="#6A51CA"/>
<path d="M191.124 18.7027L191.199 18.6191H189.881L187.681 21.2178V18.6191H186.586V24.7354H187.681V21.9696L189.955 24.7168L189.964 24.7354H191.282L188.73 21.5984L191.124 18.7027Z" fill="#6A51CA"/>
<path d="M193.88 22.1645H196.284V21.125H193.88V19.6679H196.498V18.6191H192.785V24.7354H196.544V23.6773H193.88V22.1645Z" fill="#6A51CA"/>
<path d="M200.452 21.2178L199.041 18.647L199.022 18.6191H197.77L199.904 22.3037V24.7354H200.999V22.3037L203.134 18.6191H201.881L200.452 21.2178Z" fill="#6A51CA"/>
<path d="M207.449 15.3245C207.254 15.1482 206.967 15.1667 206.79 15.3524C206.614 15.538 206.633 15.835 206.818 16.0113C208.396 17.4592 209.25 19.4917 209.157 21.5892C209.055 23.7053 208.006 25.6822 206.298 27.0186C206.094 27.1764 206.057 27.4641 206.215 27.6683C206.308 27.789 206.447 27.8446 206.577 27.8446C206.679 27.8446 206.781 27.8168 206.865 27.7518C208.795 26.2483 209.964 24.0209 210.085 21.6356C210.187 19.2597 209.231 16.958 207.449 15.3338V15.3245Z" fill="#6A51CA"/>
<path d="M205.408 17.3655C205.222 17.1892 204.925 17.2078 204.749 17.3934C204.573 17.579 204.591 17.876 204.777 18.0523C205.751 18.9433 206.253 20.2055 206.15 21.5142C206.048 22.8506 205.362 24.1129 204.266 24.9853C204.062 25.1431 204.034 25.44 204.192 25.6349C204.285 25.7463 204.415 25.8113 204.554 25.8113C204.656 25.8113 204.758 25.7742 204.842 25.7092C206.141 24.6697 206.949 23.1662 207.069 21.5791C207.19 19.9828 206.577 18.4421 205.399 17.3563L205.408 17.3655Z" fill="#6A51CA"/>
<path d="M209.491 13.2728C209.306 13.0964 209.009 13.115 208.832 13.3006C208.656 13.4862 208.675 13.7832 208.86 13.9596C211.06 15.9643 212.266 18.7671 212.155 21.6535C212.053 24.54 210.651 27.2315 208.322 29.032C208.118 29.1898 208.081 29.4775 208.238 29.6817C208.331 29.8023 208.47 29.858 208.61 29.858C208.712 29.858 208.804 29.8301 208.897 29.7652C211.45 27.7976 212.981 24.8462 213.092 21.6814C213.204 18.5258 211.895 15.4631 209.491 13.2635V13.2728Z" fill="#6A51CA"/>
<path d="M172.33 22.3037C172.182 22.9348 171.745 23.3617 171.031 23.5938C170.52 23.7608 170.047 23.7701 169.611 23.6123C169.175 23.4638 168.831 23.1575 168.581 22.7028L173.1 21.2364C173.073 21.0879 173.045 20.9394 172.998 20.8094C172.748 20.0298 172.274 19.4358 171.597 19.046C170.919 18.647 170.177 18.582 169.388 18.8419C168.553 19.111 167.959 19.6029 167.615 20.3175C167.263 21.0229 167.226 21.7839 167.485 22.6007C167.755 23.4174 168.237 24.0114 168.952 24.3734C169.657 24.7353 170.446 24.7724 171.3 24.5033C172.015 24.2713 172.683 23.8258 173.045 23.1204C173.193 22.842 173.314 22.4707 173.258 22.0717L172.33 22.3222V22.3037ZM168.562 20.5496C168.803 20.1598 169.175 19.8813 169.676 19.7143C170.103 19.5751 170.53 19.5843 170.938 19.7421C171.346 19.8999 171.671 20.2247 171.922 20.7073L168.321 21.8768C168.246 21.3756 168.321 20.9301 168.562 20.5403V20.5496Z" fill="#6A51CA"/>
<path d="M177.62 23.5371L175.736 18.6553H174.604L177.007 24.6694H178.232L180.645 18.6553H179.513L177.62 23.5371Z" fill="#6A51CA"/>
<path d="M54.9542 107.929H52.3555V122.88H54.9542V107.929Z" fill="#6A51CA"/>
<path d="M16.4837 118.082C17.1426 119.27 18.0429 120.068 19.1937 120.477C20.3446 120.876 21.5882 120.867 22.934 120.421C24.8088 119.808 25.9503 118.676 26.3587 117.015L28.8182 116.347C28.9667 117.395 28.6233 118.379 28.2428 119.112C27.2775 120.978 25.5234 122.157 23.6394 122.769C21.3841 123.502 19.3144 123.391 17.4489 122.435C15.5741 121.479 14.2933 119.92 13.588 117.757C12.8919 115.613 13.0033 113.609 13.9314 111.734C14.8502 109.859 16.4187 108.569 18.6183 107.855C20.7065 107.177 22.6463 107.363 24.4375 108.402C26.2288 109.442 27.4631 111.001 28.1407 113.061C28.2613 113.423 28.3448 113.804 28.4191 114.203L16.5022 118.073L16.4837 118.082ZM19.3608 110.193C18.0336 110.62 17.0591 111.353 16.428 112.393C15.7969 113.423 15.5834 114.602 15.7783 115.92L25.2821 112.829C24.6324 111.548 23.7693 110.704 22.6927 110.277C21.6161 109.85 20.5024 109.822 19.3608 110.193Z" fill="#6A51CA"/>
<path d="M64.3645 118.082C65.0235 119.27 65.9237 120.068 67.0746 120.477C68.2254 120.876 69.4691 120.867 70.8148 120.421C72.6896 119.808 73.8312 118.676 74.2395 117.015L76.699 116.347C76.8475 117.395 76.5041 118.379 76.1236 119.112C75.1584 120.978 73.4042 122.157 71.5202 122.769C69.2649 123.502 67.1952 123.391 65.3297 122.435C63.455 121.479 62.1742 119.92 61.4688 117.757C60.7635 115.595 60.8841 113.609 61.8122 111.734C62.731 109.859 64.2995 108.569 66.4992 107.855C68.5874 107.177 70.5271 107.363 72.3184 108.402C74.1096 109.442 75.344 111.001 76.0215 113.061C76.1422 113.423 76.2257 113.804 76.2999 114.203L64.3831 118.073L64.3645 118.082ZM67.2416 110.193C65.9144 110.62 64.9399 111.353 64.3088 112.393C63.6777 113.423 63.4642 114.602 63.6591 115.92L73.1629 112.829C72.5133 111.548 71.6501 110.704 70.5735 110.277C69.4969 109.85 68.3832 109.822 67.2416 110.193Z" fill="#6A51CA"/>
<path d="M44.3359 107.929H47.1481L41.1618 122.88H38.1083L32.1221 107.929H34.9342L39.6304 120.068L44.3266 107.929H44.3359Z" fill="#6A51CA"/>
<path d="M13.1895 125.87H13.7556L14.3496 127.838H14.3589L14.99 125.87H15.5283L16.1965 127.838H16.2058L16.7719 125.87H17.3102L16.4564 128.506H15.9459L15.2498 126.538H15.2406L14.6002 128.506H14.0619L13.1895 125.87Z" fill="#6A51CA"/>
<path d="M18.3125 125.87H18.8786L19.4726 127.838H19.4819L20.113 125.87H20.6513L21.3196 127.838H21.3288L21.895 125.87H22.4333L21.5794 128.506H21.069L20.3729 126.538H20.3636L19.7232 128.506H19.1849L18.3125 125.87Z" fill="#6A51CA"/>
<path d="M23.4268 125.87H23.9929L24.5869 127.838H24.5962L25.2273 125.87H25.7656L26.4338 127.838H26.4431L27.0092 125.87H27.5475L26.6937 128.506H26.1832L25.4871 126.538H25.4779L24.8375 128.506H24.2992L23.4268 125.87Z" fill="#6A51CA"/>
<path d="M28.9484 128.541C28.8463 128.541 28.7628 128.504 28.6885 128.43C28.6143 128.356 28.5771 128.272 28.5771 128.17C28.5771 128.068 28.6143 127.984 28.6885 127.91C28.7628 127.836 28.8463 127.799 28.9484 127.799C29.0505 127.799 29.134 127.836 29.2083 127.91C29.2825 127.984 29.3196 128.068 29.3196 128.17C29.3196 128.272 29.2825 128.356 29.2083 128.43C29.134 128.504 29.0505 128.541 28.9484 128.541Z" fill="#6A51CA"/>
<path d="M31.3708 127.373C31.3708 127.484 31.3987 127.595 31.4451 127.688C31.4915 127.781 31.5564 127.865 31.64 127.93C31.7235 127.995 31.8163 128.05 31.9277 128.087C32.0391 128.124 32.1504 128.143 32.2618 128.143C32.4196 128.143 32.5495 128.106 32.6702 128.032C32.7908 127.957 32.8929 127.865 32.9857 127.744L33.3662 128.032C33.0878 128.394 32.698 128.57 32.1968 128.57C31.9926 128.57 31.7977 128.533 31.6307 128.468C31.4636 128.394 31.3151 128.301 31.2038 128.171C31.0831 128.05 30.9996 127.902 30.9346 127.735C30.8696 127.568 30.8418 127.382 30.8418 127.187C30.8418 126.992 30.8789 126.807 30.9439 126.639C31.0089 126.472 31.1109 126.324 31.2316 126.203C31.3523 126.083 31.5008 125.981 31.6585 125.916C31.8163 125.851 32.0112 125.813 32.2061 125.813C32.4381 125.813 32.633 125.851 32.8001 125.934C32.9579 126.018 33.0971 126.12 33.1992 126.25C33.3013 126.38 33.3755 126.528 33.4219 126.695C33.4683 126.862 33.4869 127.029 33.4869 127.196V127.373H31.3708ZM32.9486 126.974C32.9486 126.862 32.93 126.76 32.8929 126.667C32.8651 126.575 32.8187 126.491 32.7537 126.426C32.6887 126.361 32.6145 126.305 32.5217 126.268C32.4289 126.231 32.3175 126.213 32.1875 126.213C32.0576 126.213 31.9555 126.24 31.8534 126.287C31.7513 126.333 31.6678 126.398 31.5936 126.472C31.5193 126.547 31.4729 126.63 31.4265 126.723C31.3894 126.816 31.3708 126.909 31.3708 126.992H32.9486V126.974Z" fill="#6A51CA"/>
<path d="M34.666 125.87H35.2414L36.0303 127.893L36.7914 125.87H37.3297L36.2902 128.506H35.7426L34.666 125.87Z" fill="#6A51CA"/>
<path d="M38.582 124.922C38.582 124.82 38.6192 124.736 38.6934 124.662C38.7677 124.588 38.8512 124.551 38.9533 124.551C39.0554 124.551 39.1389 124.588 39.2131 124.662C39.2874 124.736 39.3245 124.82 39.3245 124.922C39.3245 125.024 39.2874 125.108 39.2131 125.182C39.1389 125.256 39.0554 125.293 38.9533 125.293C38.8512 125.293 38.7677 125.256 38.6934 125.182C38.6192 125.108 38.582 125.024 38.582 124.922ZM38.7027 125.869H39.2039V128.505H38.7027V125.869Z" fill="#6A51CA"/>
<path d="M41.2644 127.373C41.2644 127.484 41.2922 127.595 41.3386 127.688C41.385 127.781 41.45 127.865 41.5335 127.93C41.6171 127.995 41.7099 128.05 41.8212 128.087C41.9326 128.124 42.044 128.143 42.1554 128.143C42.3131 128.143 42.4431 128.106 42.5637 128.032C42.6844 127.957 42.7865 127.865 42.8793 127.744L43.2598 128.032C42.9814 128.394 42.5916 128.57 42.0904 128.57C41.8862 128.57 41.6913 128.533 41.5242 128.468C41.3572 128.394 41.2087 128.301 41.0973 128.171C40.9767 128.05 40.8931 127.902 40.8282 127.735C40.7632 127.568 40.7354 127.382 40.7354 127.187C40.7354 126.992 40.7725 126.807 40.8374 126.639C40.9024 126.472 41.0045 126.324 41.1252 126.203C41.2458 126.083 41.3943 125.981 41.5521 125.916C41.7099 125.851 41.9048 125.813 42.0997 125.813C42.3317 125.813 42.5266 125.851 42.6937 125.934C42.8514 126.018 42.9906 126.12 43.0927 126.25C43.1948 126.38 43.2691 126.528 43.3155 126.695C43.3619 126.862 43.3805 127.029 43.3805 127.196V127.373H41.2644ZM42.8421 126.974C42.8421 126.862 42.8236 126.76 42.7865 126.667C42.7586 126.575 42.7122 126.491 42.6472 126.426C42.5823 126.361 42.508 126.305 42.4152 126.268C42.3224 126.231 42.211 126.213 42.0811 126.213C41.9512 126.213 41.8491 126.24 41.747 126.287C41.6449 126.333 41.5614 126.398 41.4871 126.472C41.4129 126.547 41.3665 126.63 41.3201 126.723C41.2829 126.816 41.2644 126.909 41.2644 126.992H42.8421V126.974Z" fill="#6A51CA"/>
<path d="M44.875 124.301H45.3762V126.25H45.3855C45.4783 126.111 45.5989 125.999 45.766 125.925C45.933 125.851 46.1094 125.804 46.3043 125.804C46.5085 125.804 46.6941 125.841 46.8611 125.906C47.0282 125.981 47.1674 126.073 47.2881 126.194C47.4087 126.315 47.4923 126.463 47.5572 126.63C47.6222 126.797 47.65 126.983 47.65 127.178C47.65 127.373 47.6222 127.558 47.5572 127.725C47.4923 127.893 47.3994 128.041 47.2881 128.162C47.1674 128.292 47.0282 128.384 46.8611 128.459C46.6941 128.533 46.5085 128.561 46.3043 128.561C46.1279 128.561 45.9516 128.524 45.7845 128.44C45.6175 128.366 45.4876 128.255 45.3855 128.115H45.3762V128.496H44.875V124.282V124.301ZM46.2486 128.106C46.3785 128.106 46.4992 128.078 46.6106 128.032C46.7219 127.985 46.8055 127.92 46.8797 127.846C46.954 127.772 47.0096 127.67 47.056 127.558C47.0932 127.447 47.121 127.326 47.121 127.187C47.121 127.048 47.1025 126.927 47.056 126.816C47.0096 126.705 46.954 126.602 46.8797 126.528C46.8055 126.454 46.7126 126.389 46.6106 126.343C46.4992 126.296 46.3785 126.268 46.2486 126.268C46.1187 126.268 45.998 126.296 45.8866 126.343C45.7753 126.389 45.6917 126.454 45.6175 126.528C45.5432 126.602 45.4875 126.705 45.4411 126.816C45.3947 126.927 45.3762 127.048 45.3762 127.187C45.3762 127.326 45.3947 127.447 45.4411 127.558C45.4783 127.67 45.5432 127.772 45.6175 127.846C45.6917 127.92 45.7845 127.985 45.8866 128.032C45.998 128.078 46.1187 128.106 46.2486 128.106Z" fill="#6A51CA"/>
<path d="M49.0889 124.922C49.0889 124.82 49.126 124.736 49.2002 124.662C49.2745 124.588 49.358 124.551 49.4601 124.551C49.5622 124.551 49.6457 124.588 49.72 124.662C49.7942 124.736 49.8314 124.82 49.8314 124.922C49.8314 125.024 49.7942 125.108 49.72 125.182C49.6457 125.256 49.5622 125.293 49.4601 125.293C49.358 125.293 49.2745 125.256 49.2002 125.182C49.126 125.108 49.0889 125.024 49.0889 124.922ZM49.2095 125.869H49.7107V128.505H49.2095V125.869Z" fill="#6A51CA"/>
<path d="M51.3901 124.301H51.8913V127.02L53.0236 125.879H53.7197L52.4853 127.076L53.8218 128.514H53.1071L51.882 127.141V128.514H51.3809V124.301H51.3901Z" fill="#6A51CA"/>
<path d="M55.5486 127.373C55.5486 127.484 55.5764 127.595 55.6228 127.688C55.6692 127.781 55.7342 127.865 55.8177 127.93C55.9012 127.995 55.994 128.05 56.1054 128.087C56.2168 128.124 56.3282 128.143 56.4395 128.143C56.5973 128.143 56.7272 128.106 56.8479 128.032C56.9686 127.957 57.0706 127.865 57.1635 127.744L57.544 128.032C57.2655 128.394 56.8757 128.57 56.3746 128.57C56.1704 128.57 55.9755 128.533 55.8084 128.468C55.6414 128.394 55.4929 128.301 55.3815 128.171C55.2608 128.05 55.1773 127.902 55.1123 127.735C55.0474 127.568 55.0195 127.382 55.0195 127.187C55.0195 126.992 55.0567 126.807 55.1216 126.639C55.1866 126.472 55.2887 126.324 55.4093 126.203C55.53 126.083 55.6785 125.981 55.8363 125.916C55.994 125.851 56.1889 125.813 56.3838 125.813C56.6159 125.813 56.8108 125.851 56.9778 125.934C57.1356 126.018 57.2748 126.12 57.3769 126.25C57.479 126.38 57.5533 126.528 57.5997 126.695C57.6461 126.862 57.6646 127.029 57.6646 127.196V127.373H55.5486ZM57.1263 126.974C57.1263 126.862 57.1078 126.76 57.0706 126.667C57.0428 126.575 56.9964 126.491 56.9314 126.426C56.8665 126.361 56.7922 126.305 56.6994 126.268C56.6066 126.231 56.4952 126.213 56.3653 126.213C56.2353 126.213 56.1333 126.24 56.0312 126.287C55.9291 126.333 55.8455 126.398 55.7713 126.472C55.697 126.547 55.6506 126.63 55.6042 126.723C55.5671 126.816 55.5486 126.909 55.5486 126.992H57.1263V126.974Z" fill="#6A51CA"/>
<path d="M60.5597 126.538C60.504 126.464 60.4298 126.399 60.337 126.352C60.2535 126.306 60.1421 126.278 60.0214 126.278C59.9008 126.278 59.7987 126.306 59.7152 126.352C59.6316 126.399 59.5852 126.473 59.5852 126.575C59.5852 126.649 59.6131 126.714 59.6595 126.761C59.7059 126.807 59.7708 126.844 59.8358 126.881C59.9008 126.909 59.975 126.937 60.0586 126.946C60.1328 126.965 60.2071 126.974 60.2627 126.983C60.3741 127.011 60.4762 127.039 60.569 127.076C60.6618 127.113 60.7453 127.16 60.8103 127.225C60.8753 127.28 60.931 127.355 60.9681 127.438C61.0052 127.522 61.0238 127.624 61.0238 127.754C61.0238 127.902 60.9959 128.032 60.931 128.134C60.866 128.236 60.7825 128.329 60.6897 128.394C60.5876 128.459 60.4762 128.505 60.3463 128.543C60.2163 128.57 60.0864 128.589 59.9565 128.589C59.7337 128.589 59.5481 128.552 59.381 128.487C59.214 128.422 59.0655 128.301 58.9355 128.116L59.3161 127.8C59.3996 127.884 59.4924 127.958 59.5852 128.014C59.6873 128.079 59.808 128.106 59.9565 128.106C60.0214 128.106 60.0864 128.106 60.1514 128.088C60.2163 128.079 60.272 128.051 60.3277 128.023C60.3741 127.995 60.4205 127.958 60.4484 127.921C60.4762 127.884 60.4948 127.828 60.4948 127.772C60.4948 127.698 60.4762 127.633 60.4205 127.587C60.3741 127.54 60.3184 127.503 60.2535 127.475C60.1885 127.447 60.1235 127.429 60.0493 127.41C59.975 127.392 59.9101 127.382 59.8544 127.364C59.743 127.336 59.6409 127.308 59.5481 127.271C59.4553 127.234 59.3625 127.197 59.2882 127.141C59.214 127.085 59.1583 127.011 59.1119 126.928C59.0655 126.844 59.0469 126.733 59.0469 126.612C59.0469 126.473 59.0748 126.352 59.1304 126.25C59.1861 126.148 59.2604 126.065 59.3625 126C59.4646 125.935 59.5667 125.879 59.6873 125.851C59.808 125.823 59.9286 125.805 60.0493 125.805C60.2256 125.805 60.402 125.842 60.5597 125.907C60.7268 125.972 60.8567 126.083 60.9495 126.241L60.5597 126.538Z" fill="#6A51CA"/>
<path d="M62.9171 128.541C62.8151 128.541 62.7315 128.504 62.6573 128.43C62.583 128.356 62.5459 128.272 62.5459 128.17C62.5459 128.068 62.583 127.984 62.6573 127.91C62.7315 127.836 62.8151 127.799 62.9171 127.799C63.0192 127.799 63.1028 127.836 63.177 127.91C63.2513 127.984 63.2884 128.068 63.2884 128.17C63.2884 128.272 63.2513 128.356 63.177 128.43C63.1028 128.504 63.0192 128.541 62.9171 128.541Z" fill="#6A51CA"/>
<path d="M66.8524 126.575C66.7596 126.482 66.6575 126.407 66.5554 126.352C66.4533 126.296 66.3326 126.278 66.1934 126.278C66.0542 126.278 65.9335 126.305 65.8315 126.352C65.7294 126.398 65.6458 126.472 65.5716 126.556C65.5066 126.639 65.4509 126.742 65.4138 126.853C65.3767 126.964 65.3581 127.085 65.3581 127.206C65.3581 127.326 65.3767 127.447 65.4231 127.558C65.4602 127.67 65.5252 127.762 65.5994 127.846C65.6737 127.93 65.7665 127.995 65.8686 128.041C65.9707 128.087 66.0913 128.115 66.2213 128.115C66.3605 128.115 66.4811 128.087 66.5832 128.041C66.6853 127.995 66.7781 127.92 66.8617 127.818L67.2143 128.171C67.0844 128.319 66.9359 128.421 66.7596 128.486C66.5832 128.551 66.4069 128.579 66.212 128.579C66.0078 128.579 65.8222 128.542 65.6551 128.477C65.4881 128.412 65.3396 128.319 65.2189 128.199C65.0983 128.078 65.0054 127.93 64.9312 127.763C64.8662 127.595 64.8291 127.41 64.8291 127.206C64.8291 127.001 64.8662 126.816 64.9312 126.639C64.9962 126.472 65.089 126.324 65.2096 126.203C65.3303 126.083 65.4788 125.99 65.6458 125.916C65.8129 125.851 65.9985 125.813 66.212 125.813C66.4069 125.813 66.5925 125.851 66.7688 125.916C66.9452 125.981 67.0937 126.092 67.2236 126.231L66.8431 126.575H66.8524Z" fill="#6A51CA"/>
<path d="M68.4121 127.188C68.4121 126.993 68.4492 126.816 68.5235 126.649C68.5977 126.482 68.6998 126.334 68.8205 126.213C68.9504 126.083 69.0989 125.99 69.266 125.916C69.433 125.842 69.6186 125.805 69.8135 125.805C70.0085 125.805 70.1941 125.842 70.3611 125.916C70.5282 125.99 70.6767 126.083 70.8066 126.213C70.9366 126.343 71.0294 126.482 71.1036 126.649C71.1779 126.816 71.215 126.993 71.215 127.188C71.215 127.382 71.1779 127.559 71.1036 127.726C71.0294 127.893 70.9366 128.041 70.8066 128.162C70.6767 128.283 70.5282 128.385 70.3611 128.459C70.1941 128.533 70.0085 128.57 69.8135 128.57C69.6186 128.57 69.433 128.533 69.266 128.459C69.0989 128.385 68.9504 128.292 68.8205 128.162C68.6905 128.041 68.5977 127.893 68.5235 127.726C68.4492 127.559 68.4121 127.373 68.4121 127.188ZM68.9504 127.188C68.9504 127.317 68.969 127.447 69.0154 127.559C69.0525 127.67 69.1175 127.772 69.1917 127.847C69.266 127.921 69.3588 127.986 69.4609 128.032C69.5722 128.079 69.6929 128.106 69.8228 128.106C69.9528 128.106 70.0734 128.079 70.1848 128.032C70.2962 127.986 70.3797 127.921 70.4539 127.847C70.5282 127.772 70.5839 127.67 70.6303 127.559C70.6674 127.447 70.6952 127.327 70.6952 127.188C70.6952 127.048 70.6767 126.928 70.6303 126.816C70.5839 126.705 70.5282 126.603 70.4539 126.529C70.3797 126.454 70.2869 126.389 70.1848 126.343C70.0827 126.297 69.9528 126.269 69.8228 126.269C69.6929 126.269 69.5722 126.297 69.4609 126.343C69.3495 126.389 69.266 126.454 69.1917 126.529C69.1175 126.603 69.0618 126.705 69.0154 126.816C68.969 126.928 68.9504 127.048 68.9504 127.188Z" fill="#6A51CA"/>
<path d="M72.7368 125.87H73.2009V126.279H73.2102C73.2102 126.279 73.2473 126.195 73.2937 126.139C73.3401 126.084 73.3958 126.028 73.47 125.982C73.5443 125.935 73.6278 125.889 73.7299 125.852C73.832 125.814 73.9341 125.796 74.0547 125.796C74.2496 125.796 74.4167 125.833 74.5466 125.917C74.6766 126 74.7879 126.121 74.8715 126.288C74.955 126.121 75.0757 126 75.2334 125.917C75.3912 125.833 75.549 125.796 75.7068 125.796C75.9109 125.796 76.078 125.833 76.2079 125.898C76.3379 125.963 76.44 126.056 76.5142 126.158C76.5885 126.269 76.6349 126.39 76.672 126.529C76.7091 126.668 76.7091 126.808 76.7091 126.956V128.497H76.2079V127.03C76.2079 126.928 76.2079 126.835 76.1894 126.743C76.1801 126.65 76.1523 126.566 76.1059 126.501C76.0594 126.436 76.0038 126.371 75.9295 126.334C75.8553 126.297 75.7532 126.269 75.6325 126.269C75.3912 126.269 75.2149 126.343 75.1128 126.492C75.0107 126.64 74.955 126.835 74.955 127.067V128.506H74.4538V127.123C74.4538 126.993 74.4538 126.882 74.4353 126.78C74.426 126.678 74.3981 126.585 74.361 126.511C74.3239 126.436 74.2682 126.371 74.194 126.334C74.1197 126.297 74.0269 126.269 73.897 126.269C73.8042 126.269 73.7206 126.288 73.6371 126.325C73.5536 126.362 73.4793 126.418 73.4143 126.483C73.3494 126.557 73.303 126.64 73.2659 126.752C73.2287 126.863 73.2102 126.993 73.2102 127.142V128.515H72.709V125.879L72.7368 125.87Z" fill="#6A51CA"/>
<path d="M54.9542 107.929H52.3555V122.88H54.9542V107.929Z" fill="#6A51CA"/>
<path d="M16.4837 118.082C17.1426 119.27 18.0429 120.068 19.1937 120.477C20.3446 120.876 21.5882 120.867 22.934 120.421C24.8088 119.808 25.9503 118.676 26.3587 117.015L28.8182 116.347C28.9667 117.395 28.6233 118.379 28.2428 119.112C27.2775 120.978 25.5234 122.157 23.6394 122.769C21.3841 123.502 19.3144 123.391 17.4489 122.435C15.5741 121.479 14.2933 119.92 13.588 117.757C12.8919 115.613 13.0033 113.609 13.9314 111.734C14.8502 109.859 16.4187 108.569 18.6183 107.855C20.7065 107.177 22.6463 107.363 24.4375 108.402C26.2288 109.442 27.4631 111.001 28.1407 113.061C28.2613 113.423 28.3448 113.804 28.4191 114.203L16.5022 118.073L16.4837 118.082ZM19.3608 110.193C18.0336 110.62 17.0591 111.353 16.428 112.393C15.7969 113.423 15.5834 114.602 15.7783 115.92L25.2821 112.829C24.6324 111.548 23.7693 110.704 22.6927 110.277C21.6161 109.85 20.5024 109.822 19.3608 110.193Z" fill="#6A51CA"/>
<path d="M64.3645 118.082C65.0235 119.27 65.9237 120.068 67.0746 120.477C68.2254 120.876 69.4691 120.867 70.8148 120.421C72.6896 119.808 73.8312 118.676 74.2395 117.015L76.699 116.347C76.8475 117.395 76.5041 118.379 76.1236 119.112C75.1584 120.978 73.4042 122.157 71.5202 122.769C69.2649 123.502 67.1952 123.391 65.3297 122.435C63.455 121.479 62.1742 119.92 61.4688 117.757C60.7635 115.595 60.8841 113.609 61.8122 111.734C62.731 109.859 64.2995 108.569 66.4992 107.855C68.5874 107.177 70.5271 107.363 72.3184 108.402C74.1096 109.442 75.344 111.001 76.0215 113.061C76.1422 113.423 76.2257 113.804 76.2999 114.203L64.3831 118.073L64.3645 118.082ZM67.2416 110.193C65.9144 110.62 64.9399 111.353 64.3088 112.393C63.6777 113.423 63.4642 114.602 63.6591 115.92L73.1629 112.829C72.5133 111.548 71.6501 110.704 70.5735 110.277C69.4969 109.85 68.3832 109.822 67.2416 110.193Z" fill="#6A51CA"/>
<path d="M44.3359 107.929H47.1481L41.1618 122.88H38.1083L32.1221 107.929H34.9342L39.6304 120.068L44.3266 107.929H44.3359Z" fill="#6A51CA"/>
<mask id="mask0_2102_57907" style="mask-type:luminance" maskUnits="userSpaceOnUse" x="101" y="44" width="126" height="85">
<path d="M226.254 44.8281H101.628V128.914H226.254V44.8281Z" fill="white"/>
</mask>
<g mask="url(#mask0_2102_57907)">
<path d="M219.024 75.2791C212.806 75.2791 207.079 77.4137 202.531 80.9777L194.225 72.4205L200.211 53.1438H206.986C207.887 53.1438 208.611 52.4199 208.611 51.5196C208.611 50.6194 207.887 49.8954 206.986 49.8954H191.042C190.141 49.8954 189.417 50.6194 189.417 51.5196C189.417 52.4199 190.141 53.1438 191.042 53.1438H196.814L192.489 67.0561L150.669 56.5685L152.757 51.928C152.934 51.5382 152.943 51.0834 152.794 50.6843C152.637 50.276 152.33 49.9511 151.931 49.7841L141.314 45.0786C140.497 44.7166 139.532 45.0786 139.17 45.9046C138.808 46.7213 139.17 47.6865 139.996 48.0485L149.119 52.095L146.929 56.9769L137.926 77.0147C134.975 75.8916 131.782 75.2791 128.45 75.2791C113.675 75.2791 101.646 87.298 101.646 102.083C101.646 116.867 113.665 128.886 128.45 128.886C143.235 128.886 155.254 116.867 155.254 102.083C155.254 91.7901 149.425 82.8431 140.896 78.3511L147.151 64.4296L179.366 111.457C179.672 111.902 180.173 112.162 180.702 112.162C180.786 112.162 180.86 112.162 180.944 112.143C181.556 112.051 182.067 111.614 182.252 111.02L182.902 108.932L192.814 107.568C195.357 119.717 206.151 128.877 219.042 128.877C233.818 128.877 245.846 116.858 245.846 102.073C245.846 87.2888 233.827 75.2698 219.042 75.2698L219.024 75.2791ZM151.996 102.083C151.996 115.067 141.434 125.638 128.441 125.638C115.447 125.638 104.886 115.076 104.886 102.083C104.886 89.0893 115.447 78.5275 128.441 78.5275C131.299 78.5275 134.047 79.0379 136.59 79.9846L126.965 101.415C126.594 102.231 126.965 103.196 127.782 103.558C127.995 103.651 128.227 103.698 128.45 103.698C129.072 103.698 129.666 103.345 129.935 102.742L139.56 81.3118C146.957 85.2841 152.005 93.0987 152.005 102.073L151.996 102.083ZM195.469 102.083C195.469 95.6046 198.095 89.7297 202.346 85.4604L217.344 100.904L195.543 103.911C195.496 103.308 195.469 102.695 195.469 102.073V102.083ZM148.692 60.9677L149.314 59.5941L191.524 70.1745L180.136 106.862L148.701 60.9677H148.692ZM183.951 105.517L193.13 75.9659L200.1 83.1401C195.246 87.9941 192.239 94.695 192.239 102.092C192.239 102.862 192.276 103.614 192.341 104.366L183.96 105.517H183.951ZM219.024 125.638C207.766 125.638 198.346 117.703 196.025 107.132L220.973 103.688C221.576 103.605 222.087 103.187 222.291 102.612C222.486 102.036 222.346 101.387 221.92 100.95L204.805 83.3258C208.759 80.3187 213.687 78.5367 219.024 78.5367C232.008 78.5367 242.579 89.0986 242.579 102.092C242.579 115.086 232.017 125.647 219.024 125.647V125.638Z" fill="#6A51CA"/>
</g>
</svg>
