<svg width="71" height="150" viewBox="0 0 71 150" fill="none" xmlns="http://www.w3.org/2000/svg">
<g clip-path="url(#clip0_2014_49517)">
<path d="M66.638 0H5.3584V19.1157H66.638V0Z" fill="#6A51CA"/>
<path d="M22.8463 4.088H29.2443V5.348H24.1903V8.302H28.8943V9.562H24.1903V12.74H29.4963V14H22.8463V4.088ZM33.7009 8.792L30.3689 4.088H32.0909L34.6669 7.896L37.2149 4.088H38.8949L35.5909 8.778L39.2309 14H37.4669L34.6249 9.702L31.7689 14H30.1029L33.7009 8.792ZM40.483 4.088H41.827V14H40.483V4.088ZM46.4515 5.348H43.2595V4.088H50.9875V5.348H47.7955V14H46.4515V5.348Z" fill="#F0EEFA"/>
<path d="M68.9046 32.7623H2.09521V148.264H68.9046V32.7623Z" stroke="#3F3F3F" stroke-width="4" stroke-miterlimit="10"/>
<path d="M26.02 137.256L64.8417 144.791V36.174L26.02 43.7178V137.256Z" fill="#3F3F3F"/>
<path d="M37.9304 88.2777H28.7285V90.3004H37.9304V88.2777Z" fill="#F0EEFA"/>
</g>
<defs>
<clipPath id="clip0_2014_49517">
<rect width="70.2818" height="150" fill="white" transform="translate(0.358887)"/>
</clipPath>
</defs>
</svg>
