<svg width="189" height="150" viewBox="0 0 189 150" fill="none" xmlns="http://www.w3.org/2000/svg">
<mask id="mask0_3552_10870" style="mask-type:luminance" maskUnits="userSpaceOnUse" x="0" y="0" width="189" height="150">
<path d="M188.031 0H0.969727V150H188.031V0Z" fill="white"/>
</mask>
<g mask="url(#mask0_3552_10870)">
<path d="M146.455 39.4706L107.605 21.0153V6.81641L146.455 25.2633V39.4706Z" fill="#6A51CA"/>
<path d="M116.795 14.4492L121.561 16.7154V18.3878L118.342 16.8575V18.3878L121.386 19.8344V21.5069L118.342 20.0602V21.7326L121.737 23.3465V25.019L116.795 22.6692V14.4492Z" fill="#F0EEFA"/>
<path d="M124.723 22.135L122.407 17.1094L124.347 18.0292L125.844 21.6166L127.282 19.4173L129.155 20.3037L126.889 23.1134L129.423 28.6491L127.483 27.7293L125.768 23.6068L124.104 26.1238L122.273 25.2541L124.731 22.1267L124.723 22.135Z" fill="#F0EEFA"/>
<path d="M130.107 20.7695L131.654 21.5054V29.7254L130.107 28.9895V20.7695Z" fill="#F0EEFA"/>
<path d="M134.422 24.4182L132.423 23.4649V21.8594L137.976 24.4934V26.099L135.977 25.1457V31.7601L134.43 31.0243V24.4098L134.422 24.4182Z" fill="#F0EEFA"/>
<path d="M146.429 147.182L146.722 147.316V43.4746L107.621 24.8438V128.367" fill="#FAFAFA"/>
<path d="M146.722 147.316V43.4746L107.621 24.8438V128.367" stroke="#252526" stroke-width="3" stroke-miterlimit="10"/>
<mask id="mask1_3552_10870" style="mask-type:luminance" maskUnits="userSpaceOnUse" x="3" y="42" width="143" height="126">
<path d="M3.16138 167.32L145.477 167.32L145.477 42.5322L3.16138 42.5322L3.16138 167.32Z" fill="white"/>
</mask>
<g mask="url(#mask1_3552_10870)">
<path d="M81.665 116.105L90.7043 116.038C91.0638 116.035 91.3503 116.325 91.3529 116.677L91.3542 116.844C91.3569 117.203 91.0664 117.49 90.7152 117.493L81.676 117.56L81.665 116.105Z" fill="#ECEDEB" stroke="#252526" stroke-linejoin="round"/>
<path d="M81.9422 115.793H76.4901C76.2084 115.793 75.98 116.021 75.98 116.303V117.215C75.98 117.496 76.2084 117.725 76.4901 117.725H81.9422C82.2239 117.725 82.4523 117.496 82.4523 117.215V116.303C82.4523 116.021 82.2239 115.793 81.9422 115.793Z" fill="#A0A0A0" stroke="#252526" stroke-linejoin="round"/>
<path d="M111.359 111.97C111.359 125.174 121.979 135.877 135.082 135.877C148.186 135.877 158.806 125.174 158.806 111.97C158.806 98.766 148.186 88.0625 135.082 88.0625C121.979 88.0625 111.359 98.766 111.359 111.97ZM115.398 111.97C115.398 101.015 124.211 92.1349 135.082 92.1349C145.953 92.1349 154.767 101.015 154.767 111.97C154.767 122.924 145.953 131.805 135.082 131.805C124.211 131.805 115.398 122.924 115.398 111.97Z" fill="#383838" stroke="#252526" stroke-linejoin="round"/>
<path d="M36 111.97C36 125.174 46.6199 135.877 59.7234 135.877C72.8268 135.877 83.4468 125.174 83.4468 111.97C83.4468 98.766 72.8268 88.0625 59.7234 88.0625C46.6199 88.0625 36 98.766 36 111.97ZM40.0389 111.97C40.0389 101.015 48.8526 92.1349 59.7234 92.1349C70.5942 92.1349 79.4079 101.015 79.4079 111.97C79.4079 122.924 70.5942 131.805 59.7234 131.805C48.8526 131.805 40.0389 122.924 40.0389 111.97Z" fill="#383838" stroke="#252526" stroke-linejoin="round"/>
<path d="M78.5724 68.2769C76.8581 68.2769 73.6805 68.2768 72.0917 68.026C70.5029 67.7751 68.3706 67.5661 68.1615 68.026C67.9525 68.4859 67.8688 68.8288 69.1232 69.8824C70.3775 70.936 71.6318 71.4377 72.1753 71.8642C72.7189 72.2907 76.0554 72.6753 78.2128 71.8057C80.3702 70.936 82.2852 69.6733 82.9541 69.6315C83.6231 69.5897 85.4628 70.0747 86.0899 70.0413C86.7171 70.0078 86.8843 69.2552 86.0899 68.7869C85.2955 68.3187 80.0274 68.2852 78.564 68.2852L78.5724 68.2769Z" fill="#9C8BDC" stroke="#252526" stroke-linejoin="round"/>
<path d="M87.527 114.989C87.527 114.989 63.1514 112.096 62.3402 111.978C61.5291 111.861 61.0525 112.355 60.9856 112.714C60.9187 113.074 61.1194 113.559 61.9305 113.827C62.7416 114.094 87.1172 117.782 87.1172 117.782L87.527 114.981V114.989Z" fill="#ECEDEB" stroke="#252526" stroke-linejoin="round"/>
<path d="M116.577 73.2621C116.577 73.2621 115.373 69.9925 115.239 69.5326C115.105 69.0727 115.264 68.989 115.908 68.7131C116.552 68.4371 119.529 67.442 120.164 67.1661C120.8 66.8901 122.33 66.3466 122.782 66.3048C123.233 66.263 123.727 66.263 124.454 66.3048C125.182 66.3466 126.244 66.4386 125.909 67.3501C125.575 68.2615 125.483 68.6964 125.073 68.5458C124.329 68.2783 123.108 68.2364 122.431 68.4706C121.887 68.6546 119.621 69.5409 119.128 69.7667C118.634 69.9925 118.542 70.0343 118.718 70.4441C118.893 70.8538 119.445 72.4259 119.445 72.4259L116.577 73.2621Z" fill="#7A7A79" stroke="#252526" stroke-linejoin="round"/>
<path d="M90.5711 123.711C94.3812 123.711 97.4699 120.597 97.4699 116.754C97.4699 112.912 94.3812 109.797 90.5711 109.797C86.761 109.797 83.6724 112.912 83.6724 116.754C83.6724 120.597 86.761 123.711 90.5711 123.711Z" fill="#ECEDEB" stroke="#252526" stroke-linejoin="round"/>
<path d="M59.2968 111.369C59.5979 111.018 77.6601 91.4088 80.7206 88.0807C78.3876 80.1367 76.272 72.9703 76.272 72.9703C76.0713 72.2846 75.9876 72.293 76.6399 72.2177C77.1332 72.1592 77.8189 71.9501 78.3374 71.7578C78.5381 72.4435 81.4983 82.3025 81.6321 82.7122C81.7659 83.122 81.699 83.5317 82.4432 83.2557C83.1874 82.9798 116.184 74.5842 116.728 74.3166C116.728 74.3166 116.653 73.8483 116.577 73.263C116.577 73.2128 119.797 72.3264 120.023 72.2679C120.282 72.201 121.026 74.7347 121.469 75.9556C122.648 79.1834 123.928 82.6871 125.199 85.8731C126.679 89.5775 128.159 93.282 129.639 96.978C130.885 100.08 132.131 103.191 133.377 106.293C133.937 107.69 134.456 109.12 135.074 110.483C135.635 111.712 135.969 112.465 135.526 112.699C135.175 112.891 134.782 113.117 134.171 111.971C133.561 110.826 121.168 86.8013 120.901 86.3247C120.633 85.848 120.09 85.7811 119.613 86.3247C119.136 86.8682 100.38 114.447 99.8365 115.4C99.2929 116.353 96.8344 119.639 96.8344 119.639C96.8344 119.639 97.8881 117.44 97.2609 115.124C96.6254 112.808 95.4045 111.821 95.4045 111.821C95.4045 111.821 114.253 83.8746 115.064 82.6453C115.875 81.4161 117.43 79.6433 117.506 78.69C117.573 77.7367 116.644 77.1848 115.382 77.4608C114.119 77.7367 83.9902 84.6271 83.3129 84.9031C82.6355 85.179 82.4348 85.2459 82.6355 85.9985C82.8362 86.7511 86.9002 99.4448 87.034 99.8546C87.1009 100.055 87.1009 100.139 87.1595 100.231L90.2451 109.831C89.9022 109.847 89.5928 109.889 89.2918 109.939C88.3636 110.081 87.3267 110.633 87.3267 110.633C87.3267 110.633 84.885 102.313 81.4398 90.6061C78.2789 93.8673 61.5462 111.118 60.7017 111.996C59.7735 112.966 59.4891 112.757 59.2717 112.615C59.0543 112.473 58.6195 112.147 59.2717 111.394L59.2968 111.369Z" fill="#ECEDEB" stroke="#252526" stroke-linejoin="round"/>
<path d="M135.083 117.33C138.021 117.33 140.402 114.93 140.402 111.97C140.402 109.009 138.021 106.609 135.083 106.609C132.146 106.609 129.765 109.009 129.765 111.97C129.765 114.93 132.146 117.33 135.083 117.33Z" fill="#ECEDEB" stroke="#252526" stroke-linejoin="round"/>
<path d="M59.7231 117.33C62.6603 117.33 65.0414 114.93 65.0414 111.97C65.0414 109.009 62.6603 106.609 59.7231 106.609C56.7859 106.609 54.4048 109.009 54.4048 111.97C54.4048 114.93 56.7859 117.33 59.7231 117.33Z" fill="#ECEDEB" stroke="#252526" stroke-linejoin="round"/>
<path d="M99.4556 117.555L90.4164 117.487C90.0568 117.484 89.7747 117.189 89.7773 116.838L89.7786 116.671C89.7813 116.311 90.0761 116.029 90.4273 116.032L99.4665 116.1L99.4556 117.555Z" fill="#ECEDEB" stroke="#252526" stroke-linejoin="round"/>
<path d="M99.1916 117.727H104.644C104.925 117.727 105.154 117.498 105.154 117.216V116.305C105.154 116.023 104.925 115.795 104.644 115.795H99.1916C98.9099 115.795 98.6815 116.023 98.6815 116.305V117.216C98.6815 117.498 98.9099 117.727 99.1916 117.727Z" fill="#A0A0A0" stroke="#252526" stroke-linejoin="round"/>
</g>
</g>
</svg>
