<svg width="189" height="150" viewBox="0 0 189 150" fill="none" xmlns="http://www.w3.org/2000/svg">
<mask id="mask0_2100_55957" style="mask-type:luminance" maskUnits="userSpaceOnUse" x="0" y="0" width="189" height="150">
<path d="M188.03 0H0.96875V150H188.03V0Z" fill="white"/>
</mask>
<g mask="url(#mask0_2100_55957)">
<path d="M146.454 39.4696L107.604 21.0143V6.81543L146.454 25.2623V39.4696Z" fill="#6A51CA"/>
<path d="M116.793 14.4502L121.559 16.7163V18.3888L118.34 16.8585V18.3888L121.384 19.8354V21.5078L118.34 20.0612V21.7336L121.735 23.3475V25.0199L116.793 22.6702V14.4502Z" fill="#F0EEFA"/>
<path d="M124.722 22.135L122.405 17.1094L124.345 18.0292L125.842 21.6166L127.28 19.4173L129.154 20.3037L126.887 23.1134L129.421 28.6491L127.481 27.7293L125.767 23.6068L124.103 26.1238L122.271 25.2541L124.73 22.1267L124.722 22.135Z" fill="#F0EEFA"/>
<path d="M130.105 20.7715L131.652 21.5074V29.7273L130.105 28.9915V20.7715Z" fill="#F0EEFA"/>
<path d="M134.42 24.4182L132.422 23.4649V21.8594L137.974 24.4934V26.099L135.976 25.1457V31.7601L134.429 31.0243V24.4098L134.42 24.4182Z" fill="#F0EEFA"/>
<path d="M146.428 147.182L146.72 147.316V43.4746L107.619 24.8438V128.367" fill="#FAFAFA"/>
<path d="M146.72 147.316V43.4746L107.619 24.8438V128.367" stroke="#252526" stroke-width="3" stroke-miterlimit="10"/>
<mask id="mask1_2100_55957" style="mask-type:luminance" maskUnits="userSpaceOnUse" x="3" y="42" width="143" height="126">
<path d="M3.15942 167.318L145.475 167.318L145.475 42.5302L3.15942 42.5302L3.15942 167.318Z" fill="white"/>
</mask>
<g mask="url(#mask1_2100_55957)">
<path d="M81.6641 116.103L90.7033 116.035C91.0628 116.032 91.3493 116.323 91.352 116.674L91.3532 116.841C91.3559 117.201 91.0654 117.487 90.7142 117.49L81.675 117.558L81.6641 116.103Z" fill="#ECEDEB" stroke="#252526" stroke-linejoin="round"/>
<path d="M81.9407 115.791H76.4886C76.2069 115.791 75.9785 116.019 75.9785 116.301V117.213C75.9785 117.494 76.2069 117.723 76.4886 117.723H81.9407C82.2224 117.723 82.4508 117.494 82.4508 117.213V116.301C82.4508 116.019 82.2224 115.791 81.9407 115.791Z" fill="#A0A0A0" stroke="#252526" stroke-linejoin="round"/>
<path d="M111.357 111.97C111.357 125.174 121.977 135.877 135.081 135.877C148.184 135.877 158.804 125.174 158.804 111.97C158.804 98.766 148.184 88.0625 135.081 88.0625C121.977 88.0625 111.357 98.766 111.357 111.97ZM115.396 111.97C115.396 101.015 124.21 92.1349 135.081 92.1349C145.952 92.1349 154.765 101.015 154.765 111.97C154.765 122.924 145.952 131.805 135.081 131.805C124.21 131.805 115.396 122.924 115.396 111.97Z" fill="#383838" stroke="#252526" stroke-linejoin="round"/>
<path d="M35.998 111.97C35.998 125.174 46.618 135.877 59.7214 135.877C72.8249 135.877 83.4448 125.174 83.4448 111.97C83.4448 98.766 72.8249 88.0625 59.7214 88.0625C46.618 88.0625 35.998 98.766 35.998 111.97ZM40.037 111.97C40.037 101.015 48.8507 92.1349 59.7214 92.1349C70.5922 92.1349 79.4059 101.015 79.4059 111.97C79.4059 122.924 70.5922 131.805 59.7214 131.805C48.8507 131.805 40.037 122.924 40.037 111.97Z" fill="#383838" stroke="#252526" stroke-linejoin="round"/>
<path d="M78.5704 68.2778C76.8562 68.2778 73.6786 68.2778 72.0898 68.027C70.501 67.7761 68.3686 67.567 68.1596 68.027C67.9505 68.4869 67.8669 68.8297 69.1212 69.8834C70.3755 70.937 71.6299 71.4387 72.1734 71.8652C72.7169 72.2917 76.0534 72.6763 78.2109 71.8067C80.3683 70.937 82.2832 69.6743 82.9522 69.6325C83.6212 69.5907 85.4608 70.0757 86.088 70.0422C86.7151 70.0088 86.8824 69.2562 86.088 68.7879C85.2936 68.3196 80.0254 68.2862 78.5621 68.2862L78.5704 68.2778Z" fill="#9C8BDC" stroke="#252526" stroke-linejoin="round"/>
<path d="M87.526 114.988C87.526 114.988 63.1504 112.095 62.3393 111.978C61.5281 111.86 61.0515 112.354 60.9846 112.713C60.9177 113.073 61.1184 113.558 61.9295 113.826C62.7407 114.093 87.1163 117.781 87.1163 117.781L87.526 114.98V114.988Z" fill="#ECEDEB" stroke="#252526" stroke-linejoin="round"/>
<path d="M116.575 73.2611C116.575 73.2611 115.371 69.9915 115.237 69.5316C115.103 69.0717 115.262 68.9881 115.906 68.7121C116.55 68.4362 119.527 67.4411 120.162 67.1651C120.798 66.8892 122.328 66.3456 122.78 66.3038C123.231 66.262 123.725 66.262 124.452 66.3038C125.18 66.3456 126.242 66.4376 125.907 67.3491C125.573 68.2606 125.481 68.6954 125.071 68.5449C124.327 68.2773 123.106 68.2355 122.429 68.4696C121.885 68.6536 119.619 69.54 119.126 69.7657C118.632 69.9915 118.54 70.0333 118.716 70.4431C118.891 70.8528 119.443 72.4249 119.443 72.4249L116.575 73.2611Z" fill="#7A7A79" stroke="#252526" stroke-linejoin="round"/>
<path d="M90.5687 123.71C94.3788 123.71 97.4674 120.596 97.4674 116.753C97.4674 112.911 94.3788 109.796 90.5687 109.796C86.7586 109.796 83.6699 112.911 83.6699 116.753C83.6699 120.596 86.7586 123.71 90.5687 123.71Z" fill="#ECEDEB" stroke="#252526" stroke-linejoin="round"/>
<path d="M59.2954 111.367C59.5964 111.016 77.6586 91.4069 80.7191 88.0788C78.3861 80.1347 76.2705 72.9684 76.2705 72.9684C76.0698 72.2827 75.9862 72.291 76.6384 72.2158C77.1318 72.1572 77.8175 71.9482 78.3359 71.7559C78.5366 72.4416 81.4968 82.3005 81.6306 82.7103C81.7644 83.12 81.6975 83.5297 82.4417 83.2538C83.186 82.9778 116.183 74.5823 116.726 74.3147C116.726 74.3147 116.651 73.8464 116.576 73.261C116.576 73.2109 119.795 72.3245 120.021 72.266C120.28 72.1991 121.025 74.7328 121.468 75.9537C122.647 79.1814 123.926 82.6852 125.197 85.8711C126.677 89.5756 128.158 93.28 129.638 96.9761C130.884 100.078 132.13 103.189 133.376 106.291C133.936 107.688 134.454 109.118 135.073 110.481C135.633 111.71 135.968 112.463 135.525 112.697C135.173 112.889 134.78 113.115 134.17 111.969C133.559 110.824 121.167 86.7993 120.899 86.3227C120.632 85.8461 120.088 85.7792 119.611 86.3227C119.135 86.8662 100.379 114.445 99.835 115.398C99.2915 116.351 96.833 119.637 96.833 119.637C96.833 119.637 97.8866 117.438 97.2594 115.122C96.6239 112.806 95.4031 111.819 95.4031 111.819C95.4031 111.819 114.251 83.8726 115.062 82.6434C115.874 81.4141 117.429 79.6414 117.504 78.6881C117.571 77.7348 116.643 77.1829 115.38 77.4588C114.118 77.7348 83.9887 84.6252 83.3114 84.9011C82.6341 85.1771 82.4334 85.244 82.6341 85.9966C82.8348 86.7492 86.8988 99.4429 87.0326 99.8526C87.0995 100.053 87.0995 100.137 87.158 100.229L90.2436 109.829C89.9008 109.845 89.5914 109.887 89.2903 109.937C88.3621 110.08 87.3252 110.631 87.3252 110.631C87.3252 110.631 84.8835 102.311 81.4383 90.6041C78.2774 93.8653 61.5448 111.116 60.7002 111.994C59.772 112.964 59.4877 112.755 59.2703 112.613C59.0529 112.471 58.618 112.145 59.2703 111.392L59.2954 111.367Z" fill="#ECEDEB" stroke="#252526" stroke-linejoin="round"/>
<path d="M135.082 117.33C138.019 117.33 140.4 114.93 140.4 111.97C140.4 109.009 138.019 106.609 135.082 106.609C132.145 106.609 129.764 109.009 129.764 111.97C129.764 114.93 132.145 117.33 135.082 117.33Z" fill="#ECEDEB" stroke="#252526" stroke-linejoin="round"/>
<path d="M59.7207 117.33C62.6579 117.33 65.039 114.93 65.039 111.97C65.039 109.009 62.6579 106.609 59.7207 106.609C56.7834 106.609 54.4023 109.009 54.4023 111.97C54.4023 114.93 56.7834 117.33 59.7207 117.33Z" fill="#ECEDEB" stroke="#252526" stroke-linejoin="round"/>
<path d="M99.4531 117.553L90.4139 117.485C90.0544 117.482 89.7722 117.187 89.7749 116.836L89.7761 116.669C89.7788 116.309 90.0736 116.027 90.4248 116.03L99.464 116.098L99.4531 117.553Z" fill="#ECEDEB" stroke="#252526" stroke-linejoin="round"/>
<path d="M99.1882 117.723H104.64C104.922 117.723 105.15 117.494 105.15 117.213V116.301C105.15 116.019 104.922 115.791 104.64 115.791H99.1882C98.9065 115.791 98.6781 116.019 98.6781 116.301V117.213C98.6781 117.494 98.9065 117.723 99.1882 117.723Z" fill="#A0A0A0" stroke="#252526" stroke-linejoin="round"/>
</g>
</g>
</svg>
