<svg width="241" height="150" viewBox="0 0 241 150" fill="none" xmlns="http://www.w3.org/2000/svg">
<g clip-path="url(#clip0_3512_64003)">
<path d="M212.239 123.455C212.239 123.455 106.826 147.148 94.4452 149.347C88.8642 150.345 84.6872 147.625 83.6187 147.113C81.9673 146.309 37.098 125.177 37.0892 125.177C28.0553 121.141 31.0578 112.028 33.0623 111.454C31.932 112.416 33.1065 113.609 35.1464 114.589L84.749 138.591C87.9104 140.119 93.9331 140.613 98.1453 139.686L214.138 114.218C216.655 113.661 218.721 112.31 218.703 111.312C221.9 120.885 213.467 123.172 212.257 123.455H212.239Z" fill="#313131" stroke="#252526" stroke-linejoin="round"/>
<path d="M217.935 111.728C217.962 112.717 216.637 113.662 214.12 114.218L98.1278 139.686C93.9155 140.613 87.8929 140.119 84.7315 138.591L35.1289 114.589C33.0889 113.6 32.7269 112.417 33.8484 111.454C34.4754 110.915 35.5439 110.456 37.0363 110.129L153.02 84.6525C157.232 83.7341 163.264 84.2286 166.425 85.7475L216.028 109.758C217.299 110.377 217.918 111.065 217.935 111.728Z" fill="#D4D4D4" stroke="#252526" stroke-width="3" stroke-linejoin="round"/>
<path d="M217.935 111.728C217.9 111.648 217.856 111.569 217.82 111.48" stroke="#252526" stroke-linejoin="round"/>
<path d="M226.898 102.455C226.898 102.455 238.52 112.769 228.232 124.338" stroke="#B4B4B4" stroke-width="2" stroke-linecap="round" stroke-linejoin="round"/>
<path d="M232.948 98.0752C232.948 98.0752 248.764 112.319 232.462 130.405" stroke="#B4B4B4" stroke-width="2" stroke-linecap="round" stroke-linejoin="round"/>
<path d="M18.5004 119.234C18.5004 119.234 13.5375 103.709 28.5763 99.7617" stroke="#B4B4B4" stroke-width="2" stroke-linecap="round" stroke-linejoin="round"/>
<path d="M11.0649 119.888C11.0649 119.888 3.52341 98.535 28.0642 92.3799" stroke="#B4B4B4" stroke-width="2" stroke-linecap="round" stroke-linejoin="round"/>
<path d="M187.734 102.181L171.936 94.1719C170.434 93.4125 170.938 92.3351 172.942 91.7876C174.876 91.2578 177.596 91.399 179.071 92.0878L194.445 99.3203C196.256 100.177 196.37 101.528 194.595 102.349C192.75 103.206 189.606 103.135 187.734 102.181Z" fill="#252526" stroke="#252526" stroke-linejoin="round"/>
<path d="M86.5859 134.29L45.9643 115.172C42.6439 113.609 44.516 111.781 49.5142 110.827L50.4591 110.65C55.4485 109.697 59.8109 109.052 63.1313 110.624L104.574 130.308C107.771 131.827 106.393 133.84 101.519 134.794L100.6 134.97C95.717 135.924 89.8092 135.809 86.6036 134.29H86.5859Z" fill="#E9E9E9"/>
<path d="M146.07 103.224L131.146 96.6358C128.453 95.4436 128.806 93.8805 131.976 93.1829L147.845 89.6683C151.059 88.953 153.347 88.9176 155.828 90.1716L168.995 96.8212C171.229 97.9515 170.558 99.391 167.547 100.036L152.419 103.294C149.443 103.939 148.481 104.292 146.061 103.224H146.07Z" fill="#F0EEFA"/>
<path d="M118.554 102.367L112.089 99.5146C110.924 99.0024 111.074 98.3224 112.452 98.0222L119.322 96.5033C120.717 96.1942 121.706 96.1765 122.775 96.7152L128.479 99.5941C129.442 100.08 129.159 100.707 127.852 100.989L121.3 102.402C120.011 102.676 119.596 102.835 118.545 102.376L118.554 102.367Z" fill="#F4F4F4"/>
<path d="M129.98 107.789L123.516 104.936C122.351 104.424 122.501 103.744 123.878 103.444L130.749 101.925C132.144 101.616 133.133 101.598 134.202 102.137L139.906 105.016C140.869 105.502 140.586 106.129 139.279 106.411L132.727 107.824C131.437 108.098 131.022 108.257 129.972 107.798L129.98 107.789Z" fill="#F4F4F4"/>
<path d="M141.328 113.132L134.864 110.279C133.698 109.767 133.848 109.087 135.226 108.787L142.096 107.268C143.492 106.959 144.481 106.941 145.549 107.48L151.254 110.359C152.216 110.844 151.934 111.471 150.627 111.754L144.074 113.167C142.785 113.441 142.37 113.6 141.319 113.14L141.328 113.132Z" fill="#F4F4F4"/>
<path d="M152.923 119.145L146.459 116.293C145.293 115.781 145.443 115.101 146.821 114.8L153.691 113.282C155.086 112.973 156.075 112.955 157.144 113.494L162.849 116.372C163.811 116.858 163.529 117.485 162.222 117.768L155.669 119.181C154.38 119.454 153.965 119.613 152.914 119.154L152.923 119.145Z" fill="#F4F4F4"/>
<path d="M103.93 105.554L97.4655 102.702C96.2998 102.19 96.4499 101.51 97.8275 101.21L104.698 99.6908C106.093 99.3817 107.082 99.364 108.151 99.9027L113.855 102.782C114.818 103.267 114.535 103.894 113.228 104.177L106.676 105.59C105.387 105.864 104.972 106.022 103.921 105.563L103.93 105.554Z" fill="#F4F4F4"/>
<path d="M115.357 110.977L108.893 108.125C107.727 107.613 107.877 106.933 109.255 106.633L116.125 105.114C117.52 104.805 118.509 104.787 119.578 105.326L125.283 108.204C126.245 108.69 125.963 109.317 124.656 109.6L118.103 111.013C116.814 111.286 116.399 111.445 115.348 110.986L115.357 110.977Z" fill="#F4F4F4"/>
<path d="M126.704 116.32L120.24 113.468C119.075 112.956 119.225 112.276 120.602 111.975L127.473 110.456C128.868 110.147 129.857 110.13 130.926 110.668L136.63 113.547C137.593 114.033 137.31 114.66 136.003 114.942L129.451 116.355C128.162 116.629 127.747 116.788 126.696 116.329L126.704 116.32Z" fill="#F4F4F4"/>
<path d="M138.299 122.334L131.835 119.481C130.669 118.969 130.82 118.289 132.197 117.989L139.068 116.47C140.463 116.161 141.452 116.143 142.52 116.682L148.225 119.561C149.188 120.047 148.905 120.674 147.598 120.956L141.046 122.369C139.756 122.643 139.341 122.802 138.29 122.343L138.299 122.334Z" fill="#F4F4F4"/>
<path d="M89.2177 109.025L82.7535 106.173C81.5879 105.661 81.738 104.981 83.1156 104.68L89.986 103.161C91.3812 102.852 92.3703 102.835 93.4388 103.373L99.1435 106.252C100.106 106.738 99.8235 107.365 98.5165 107.648L91.9641 109.06C90.6748 109.334 90.2597 109.493 89.2089 109.034L89.2177 109.025Z" fill="#F4F4F4"/>
<path d="M100.644 114.447L94.1803 111.595C93.0146 111.082 93.1648 110.402 94.5424 110.102L101.413 108.583C102.808 108.274 103.797 108.257 104.866 108.795L110.57 111.674C111.533 112.16 111.25 112.787 109.943 113.069L103.391 114.482C102.102 114.756 101.686 114.915 100.636 114.456L100.644 114.447Z" fill="#F4F4F4"/>
<path d="M111.992 119.781L105.528 116.929C104.362 116.416 104.512 115.736 105.89 115.436L112.76 113.917C114.156 113.608 115.145 113.591 116.213 114.129L121.918 117.008C122.88 117.494 122.598 118.121 121.291 118.403L114.738 119.816C113.449 120.09 113.034 120.249 111.983 119.79L111.992 119.781Z" fill="#F4F4F4"/>
<path d="M123.587 125.803L117.123 122.951C115.957 122.439 116.107 121.759 117.485 121.459L124.355 119.94C125.75 119.631 126.739 119.613 127.808 120.152L133.513 123.031C134.475 123.516 134.193 124.143 132.886 124.426L126.333 125.839C125.044 126.113 124.629 126.271 123.578 125.812L123.587 125.803Z" fill="#F4F4F4"/>
<path d="M55.9164 116.77L49.4523 113.918C48.2866 113.406 48.4367 112.726 49.8143 112.425L56.6847 110.907C58.08 110.598 59.069 110.58 60.1375 111.119L65.8422 113.997C66.8048 114.483 66.5222 115.11 65.2153 115.393L58.6628 116.806C57.3735 117.079 56.9585 117.238 55.9076 116.779L55.9164 116.77Z" fill="#F4F4F4"/>
<path d="M67.5907 122.334L61.1266 119.481C59.9609 118.969 60.111 118.289 61.4887 117.989L68.359 116.47C69.7543 116.161 70.7433 116.143 71.8119 116.682L77.5166 119.561C78.4791 120.047 78.1965 120.674 76.8896 120.956L70.3371 122.369C69.0478 122.643 68.6328 122.802 67.5819 122.343L67.5907 122.334Z" fill="#F4F4F4"/>
<path d="M78.4706 128.135L72.0065 125.283C70.8408 124.771 70.9909 124.091 72.3685 123.791L79.2389 122.272C80.6342 121.963 81.6232 121.945 82.6917 122.484L88.3964 125.363C89.359 125.848 89.0764 126.475 87.7695 126.758L81.217 128.171C79.9277 128.445 79.5127 128.604 78.4618 128.144L78.4706 128.135Z" fill="#F4F4F4"/>
<path d="M90.4892 133.699L84.025 130.847C82.8594 130.334 83.0095 129.654 84.3871 129.354L91.2575 127.835C92.6527 127.526 93.6418 127.509 94.7103 128.047L100.415 130.926C101.378 131.412 101.095 132.039 99.788 132.321L93.2356 133.734C91.9463 134.008 91.5312 134.167 90.4803 133.708L90.4892 133.699Z" fill="#F4F4F4"/>
<path d="M169.728 115.154L154.804 108.558C152.11 107.365 152.393 105.82 155.501 105.131L171.388 101.617C174.682 100.892 177.04 100.848 179.601 102.138L193.174 108.99C195.47 110.147 194.728 111.604 191.575 112.222L176.086 115.287C173.101 115.878 172.148 116.214 169.719 115.137L169.728 115.154Z" fill="#E6E2F6"/>
<path d="M184.14 125.274L165.595 129.213" stroke="#7A7A79" stroke-width="3" stroke-linecap="round" stroke-linejoin="round"/>
<path opacity="0.92" d="M195.09 23.4277H54.5298C48.9046 23.4277 44.2949 28.2405 44.2949 34.1218V56.1812C44.2949 62.0625 48.9046 66.8753 54.5298 66.8753H176.413C176.66 69.9484 176.651 76.492 172.368 78.2052C172.368 78.2052 187.539 79.1324 187.398 66.8753H195.09C200.715 66.8753 205.325 62.0625 205.325 56.1812V34.1218C205.325 28.2405 200.715 23.4277 195.09 23.4277Z" fill="#FAFAFA" stroke="#252526" stroke-miterlimit="10"/>
<path d="M111.065 32.0732H161.692" stroke="#6A51CA" stroke-width="6" stroke-linecap="round" stroke-linejoin="round"/>
<path d="M108.468 42.2197H189.12" stroke="#A0A0A0" stroke-linecap="round" stroke-linejoin="round"/>
<path d="M108.389 47.9072H189.041" stroke="#A0A0A0" stroke-linecap="round" stroke-linejoin="round"/>
<path d="M108.115 53.5938H163.423" stroke="#A0A0A0" stroke-linecap="round" stroke-linejoin="round"/>
<path d="M65.0477 59.6784C80.8349 59.6784 93.633 46.8803 93.633 31.0931C93.633 15.3059 80.8349 2.50781 65.0477 2.50781C49.2605 2.50781 36.4624 15.3059 36.4624 31.0931C36.4624 46.8803 49.2605 59.6784 65.0477 59.6784Z" fill="#9C8BDC" stroke="#6A51CA" stroke-linecap="round" stroke-linejoin="round"/>
<path d="M86.8509 19.1452C92.1377 19.1452 96.4235 14.8594 96.4235 9.57259C96.4235 4.28579 92.1377 0 86.8509 0C81.5641 0 77.2783 4.28579 77.2783 9.57259C77.2783 14.8594 81.5641 19.1452 86.8509 19.1452Z" fill="#6A51CA"/>
<path d="M86.8511 15.9396C87.4852 15.9396 87.9991 15.4256 87.9991 14.7916C87.9991 14.1575 87.4852 13.6436 86.8511 13.6436C86.2171 13.6436 85.7031 14.1575 85.7031 14.7916C85.7031 15.4256 86.2171 15.9396 86.8511 15.9396Z" fill="#F4F4F4"/>
<path d="M88.2727 4.64539C88.2727 3.85945 87.6369 3.22363 86.851 3.22363C86.065 3.22363 85.4292 3.85945 85.4292 4.64539C85.4292 4.72487 85.4292 4.81318 85.4557 4.89265L86.118 12.0898H86.1268C86.1798 12.443 86.4889 12.7079 86.8598 12.7079C87.266 12.7079 87.6016 12.3723 87.6016 11.9661L88.2639 4.89265C88.2815 4.81318 88.2904 4.72487 88.2904 4.64539H88.2727Z" fill="#F4F4F4"/>
<mask id="mask0_3512_64003" style="mask-type:luminance" maskUnits="userSpaceOnUse" x="36" y="2" width="58" height="58">
<path d="M64.9857 59.6784C80.7729 59.6784 93.571 46.8803 93.571 31.0931C93.571 15.3059 80.7729 2.50781 64.9857 2.50781C49.1985 2.50781 36.4004 15.3059 36.4004 31.0931C36.4004 46.8803 49.1985 59.6784 64.9857 59.6784Z" fill="white"/>
</mask>
<g mask="url(#mask0_3512_64003)">
<path d="M38.1328 41.5264L44.0405 41.482C44.1729 41.481 44.2797 41.5862 44.2807 41.7187L44.284 42.1602C44.285 42.2927 44.1798 42.3994 44.0473 42.4004L38.1397 42.4447L38.1328 41.5264Z" fill="#ECEDEB" stroke="#252526" stroke-width="0.5" stroke-linejoin="round"/>
<path d="M38.3609 41.3281H34.7845C34.6381 41.3281 34.5195 41.4467 34.5195 41.593V42.2819C34.5195 42.4282 34.6381 42.5468 34.7845 42.5468H38.3609C38.5072 42.5468 38.6259 42.4282 38.6259 42.2819V41.593C38.6259 41.4467 38.5072 41.3281 38.3609 41.3281Z" fill="#A0A0A0" stroke="#252526" stroke-width="0.5" stroke-linejoin="round"/>
<path d="M57.0467 37.3891C56.1018 46.9175 64.0407 54.8564 73.5692 53.9115C80.6161 53.2139 86.3208 47.5092 87.0185 40.4622C87.9634 30.9338 80.0245 22.9949 70.496 23.9398C63.4491 24.6374 57.7444 30.3421 57.0467 37.3891ZM59.5988 40.1973C58.8129 32.2937 65.4007 25.706 73.3042 26.4919C79.1502 27.0747 83.8835 31.7992 84.4575 37.6452C85.2435 45.5488 78.6557 52.1365 70.7521 51.3506C64.9061 50.7678 60.1728 46.0433 59.5988 40.1973Z" fill="#383838" stroke="#252526" stroke-width="0.5" stroke-linejoin="round"/>
<path d="M9.2103 37.3891C8.2654 46.9175 16.2043 54.8564 25.7327 53.9115C32.7797 53.2139 38.4844 47.5092 39.182 40.4622C40.1269 30.9338 32.188 22.9949 22.6596 23.9398C15.6126 24.6374 9.90793 30.3421 9.2103 37.3891ZM11.7624 40.1973C10.9765 32.2937 17.5642 25.706 25.4678 26.4919C31.3138 27.0747 36.0471 31.7992 36.6211 37.6452C37.407 45.5488 30.8193 52.1365 22.9157 51.3506C17.0697 50.7678 12.3364 46.0433 11.7624 40.1973Z" fill="#383838" stroke="#252526" stroke-width="0.5" stroke-linejoin="round"/>
<path d="M36.162 11.4007C35.0758 11.4007 33.0624 11.4007 32.0469 11.2417C31.0313 11.0828 29.6891 10.9503 29.5566 11.2417C29.4241 11.5331 29.3711 11.7451 30.1659 12.4074C30.9607 13.0697 31.7555 13.3876 32.0999 13.6525C32.4443 13.9175 34.5637 14.1647 35.9324 13.6172C37.3012 13.0697 38.5199 12.2749 38.9437 12.2484C39.3676 12.222 40.5333 12.531 40.9307 12.5045C41.3281 12.478 41.434 12.01 40.9307 11.7186C40.4273 11.4272 37.0804 11.4007 36.1532 11.4007H36.162Z" fill="#9C8BDC" stroke="#252526" stroke-width="0.5" stroke-linejoin="round"/>
<path d="M41.8488 40.8242C41.8488 40.8242 26.3772 39.005 25.8562 38.9255C25.3352 38.8461 25.0438 39.164 24.9996 39.3936C24.9555 39.6232 25.0879 39.9234 25.6001 40.1C26.1123 40.2767 41.5927 42.5903 41.5927 42.5903L41.8488 40.8242Z" fill="#ECEDEB" stroke="#252526" stroke-width="0.5" stroke-linejoin="round"/>
<path d="M60.2879 14.544C60.2879 14.544 59.5284 12.4864 59.4401 12.195C59.3518 11.9036 59.4578 11.8506 59.864 11.6828C60.2702 11.515 62.16 10.8792 62.5662 10.7114C62.9636 10.5436 63.9438 10.1992 64.2264 10.1639C64.509 10.1286 64.8269 10.1374 65.2861 10.1639C65.7453 10.1904 66.4253 10.2522 66.2133 10.8262C66.0014 11.4002 65.9396 11.674 65.6835 11.5769C65.2154 11.4091 64.4383 11.3826 64.0056 11.5327C63.6612 11.6475 62.2218 12.2038 61.9039 12.3451C61.586 12.4864 61.533 12.5129 61.6478 12.769C61.7626 13.0251 62.107 14.0142 62.107 14.0142L60.2879 14.544Z" fill="#7A7A79" stroke="#252526" stroke-width="0.5" stroke-linejoin="round"/>
<path d="M43.7741 46.3168C46.1932 46.3168 48.1542 44.3558 48.1542 41.9367C48.1542 39.5177 46.1932 37.5566 43.7741 37.5566C41.3551 37.5566 39.394 39.5177 39.394 41.9367C39.394 44.3558 41.3551 46.3168 43.7741 46.3168Z" fill="#ECEDEB" stroke="#252526" stroke-width="0.5" stroke-linejoin="round"/>
<path d="M23.9226 38.5369C24.1169 38.3161 35.5793 25.9618 37.5221 23.8689C36.0385 18.8619 34.6962 14.3493 34.6962 14.3493C34.5638 13.9166 34.5196 13.9255 34.9347 13.8725C35.2437 13.8371 35.6853 13.7047 36.012 13.5811C36.1445 14.0138 38.0166 20.2218 38.1049 20.4779C38.1932 20.734 38.1491 20.9901 38.6171 20.8223C39.094 20.6545 60.0406 15.3649 60.385 15.1883C60.385 15.1883 60.3409 14.8968 60.2879 14.526C60.2879 14.4906 62.3278 13.9343 62.4779 13.899C62.6369 13.8548 63.1137 15.4532 63.3963 16.2215C64.1469 18.2525 64.9505 20.4602 65.763 22.4648C66.699 24.7962 67.6439 27.1275 68.58 29.4588C69.366 31.4193 70.1607 33.3709 70.9555 35.3225C71.3087 36.2056 71.6355 37.0975 72.0328 37.9629C72.3861 38.74 72.598 39.208 72.3243 39.3582C72.1035 39.473 71.8474 39.6231 71.4677 38.899C71.0791 38.1748 63.2109 23.0477 63.0431 22.7386C62.8753 22.4295 62.5309 22.3942 62.2307 22.7386C61.9304 23.083 50.0265 40.4532 49.6821 41.0537C49.3377 41.6542 47.7746 43.7206 47.7746 43.7206C47.7746 43.7206 48.4458 42.3341 48.0484 40.8771C47.651 39.42 46.8739 38.793 46.8739 38.793C46.8739 38.793 58.8396 21.1844 59.3518 20.4161C59.864 19.639 60.8531 18.5263 60.8972 17.9258C60.9414 17.3253 60.3497 16.9809 59.5461 17.1487C58.7425 17.3165 39.615 21.6612 39.1823 21.8379C38.7496 22.0056 38.6259 22.0498 38.7496 22.5267C38.882 23.0035 41.4606 30.9954 41.5401 31.2515C41.5842 31.3751 41.5842 31.4281 41.6196 31.4899L43.58 37.539C43.3592 37.5478 43.165 37.5743 42.9795 37.6008C42.3878 37.6891 41.7344 38.0335 41.7344 38.0335C41.7344 38.0335 40.1801 32.7969 37.9989 25.4232C35.9855 27.4807 25.3709 38.3426 24.8322 38.899C24.2406 39.5083 24.0639 39.3758 23.9226 39.2875C23.7902 39.1992 23.5076 38.9961 23.9226 38.5192V38.5369Z" fill="#ECEDEB" stroke="#252526" stroke-width="0.5" stroke-linejoin="round"/>
<path d="M72.0325 42.2995C73.8956 42.2995 75.4059 40.7892 75.4059 38.9261C75.4059 37.063 73.8956 35.5527 72.0325 35.5527C70.1695 35.5527 68.6592 37.063 68.6592 38.9261C68.6592 40.7892 70.1695 42.2995 72.0325 42.2995Z" fill="#ECEDEB" stroke="#252526" stroke-width="0.5" stroke-linejoin="round"/>
<path d="M49.4204 42.4355L43.5128 42.3912C43.3803 42.3902 43.2751 42.2835 43.2761 42.151L43.2794 41.7095C43.2804 41.577 43.3872 41.4718 43.5197 41.4728L49.4273 41.5172L49.4204 42.4355Z" fill="#ECEDEB" stroke="#252526" stroke-width="0.5" stroke-linejoin="round"/>
<path d="M49.1962 42.5469H52.7727C52.919 42.5469 53.0376 42.4283 53.0376 42.282V41.5931C53.0376 41.4468 52.919 41.3282 52.7727 41.3282H49.1962C49.0499 41.3282 48.9313 41.4468 48.9313 41.5931V42.282C48.9313 42.4283 49.0499 42.5469 49.1962 42.5469Z" fill="#A0A0A0" stroke="#252526" stroke-width="0.5" stroke-linejoin="round"/>
</g>
</g>
<defs>
<clipPath id="clip0_3512_64003">
<rect width="240.71" height="150" fill="white"/>
</clipPath>
</defs>
</svg>
