<svg width="267" height="140" viewBox="0 0 267 140" fill="none" xmlns="http://www.w3.org/2000/svg">
<g clip-path="url(#clip0_2014_49537)">
<path d="M118.337 0.185024L2.84377 41.3786C1.13755 41.9871 0.247732 43.8636 0.856294 45.5698L29.032 124.565C29.6405 126.272 31.517 127.161 33.2232 126.553L148.717 85.3594C150.423 84.7508 151.313 82.8743 150.704 81.1681L122.529 2.1725C121.92 0.466285 120.044 -0.423538 118.337 0.185024Z" fill="#252526"/>
<path d="M55.2453 82.6501C55.1453 82.3601 55.0953 82.0801 55.1053 81.8001C55.1153 81.5301 55.1753 81.2801 55.2853 81.0501C55.3953 80.8201 55.5553 80.6201 55.7553 80.4401C55.9553 80.2601 56.1953 80.1301 56.4853 80.0301C56.7653 79.9301 57.0453 79.8701 57.3153 79.8801C57.5853 79.8801 57.8353 79.9401 58.0653 80.0501C58.2953 80.1601 58.5053 80.3101 58.6853 80.5101C58.8653 80.7101 59.0053 80.9601 59.1153 81.2501C59.2253 81.5401 59.2653 81.8101 59.2453 82.0801C59.2253 82.3501 59.1653 82.6001 59.0553 82.8301C58.9453 83.0601 58.7853 83.2601 58.5853 83.4401C58.3853 83.6201 58.1353 83.7601 57.8553 83.8701C57.5753 83.9701 57.2953 84.0201 57.0353 84.0101C56.7753 84.0001 56.5153 83.9501 56.2853 83.8401C56.0553 83.7301 55.8553 83.5801 55.6753 83.3801C55.4953 83.1801 55.3553 82.9401 55.2553 82.6501H55.2453ZM55.9153 82.3701C55.9853 82.5701 56.0753 82.7401 56.1953 82.8801C56.3153 83.0201 56.4453 83.1401 56.6053 83.2201C56.7653 83.3001 56.9253 83.3501 57.1053 83.3601C57.2853 83.3701 57.4653 83.3501 57.6553 83.2801C57.8453 83.2101 58.0053 83.1201 58.1353 82.9901C58.2653 82.8601 58.3653 82.7201 58.4353 82.5701C58.5053 82.4101 58.5353 82.2401 58.5353 82.0501C58.5353 81.8601 58.5053 81.6701 58.4353 81.4801C58.3653 81.3001 58.2753 81.1401 58.1653 81.0001C58.0553 80.8601 57.9153 80.7601 57.7653 80.6801C57.6153 80.6001 57.4453 80.5601 57.2653 80.5401C57.0853 80.5301 56.9053 80.5601 56.7153 80.6201C56.5253 80.6801 56.3653 80.7801 56.2353 80.9001C56.1053 81.0201 56.0053 81.1601 55.9453 81.3201C55.8853 81.4801 55.8453 81.6501 55.8353 81.8301C55.8353 82.0101 55.8653 82.1901 55.9253 82.3701H55.9153Z" fill="#ECEDEB"/>
<path d="M58.8052 79.3101L59.5152 79.0601L61.1352 81.4401H61.1452L61.0252 78.5201L61.6652 78.2901L63.4052 80.6301H63.4152L63.1952 77.7401L63.8552 77.5001L64.0952 81.5301L63.4752 81.7501L61.6452 79.2701H61.6352L61.7852 82.3501L61.1852 82.5601L58.8052 79.3001V79.3101Z" fill="#ECEDEB"/>
<path d="M64.395 77.3101L65.255 77.0001L67.985 79.0801H67.995L67.025 76.3701L67.675 76.1401L68.975 79.7901L68.155 80.0801L65.355 77.9301H65.345L66.345 80.7301L65.695 80.9601L64.395 77.3101Z" fill="#ECEDEB"/>
<path d="M68.6152 75.8001L71.0352 74.9401L71.2452 75.5301L69.4752 76.1601L69.7952 77.0601L71.4652 76.4601L71.6752 77.0501L70.0052 77.6501L70.3552 78.6401L72.2152 77.9801L72.4252 78.5701L69.9152 79.4601L68.6152 75.8101V75.8001Z" fill="#ECEDEB"/>
<path d="M71.8955 74.6401L73.1655 74.1901C73.3455 74.1301 73.5155 74.0801 73.6855 74.0601C73.8555 74.0401 74.0255 74.0401 74.1755 74.0701C74.3355 74.1001 74.4655 74.1701 74.5955 74.2801C74.7155 74.3901 74.8155 74.5401 74.8955 74.7501C74.9855 75.0101 74.9955 75.2601 74.9155 75.4901C74.8355 75.7201 74.6655 75.9001 74.4055 76.0401L75.9455 77.3101L75.1655 77.5901L73.7655 76.3501L73.2955 76.5201L73.8455 78.0701L73.1955 78.3001L71.8955 74.6501V74.6401ZM73.5955 75.7701C73.6855 75.7401 73.7755 75.7001 73.8655 75.6601C73.9555 75.6201 74.0355 75.5701 74.0955 75.5101C74.1655 75.4501 74.2055 75.3801 74.2255 75.2901C74.2455 75.2001 74.2355 75.1001 74.1955 74.9801C74.1555 74.8701 74.1055 74.8001 74.0355 74.7501C73.9655 74.7001 73.8955 74.6701 73.8055 74.6701C73.7155 74.6701 73.6355 74.6701 73.5455 74.6901C73.4555 74.7101 73.3655 74.7401 73.2855 74.7701L72.7255 74.9701L73.0755 75.9601L73.5755 75.7801L73.5955 75.7701Z" fill="#ECEDEB"/>
<path d="M77.3351 73.58C77.2351 73.5 77.1151 73.46 76.9851 73.46C76.8551 73.46 76.7251 73.47 76.5951 73.52C76.5151 73.55 76.4451 73.58 76.3851 73.62C76.3251 73.66 76.2651 73.71 76.2251 73.77C76.1851 73.83 76.1551 73.89 76.1451 73.97C76.1351 74.04 76.1451 74.12 76.1651 74.2C76.2051 74.32 76.2851 74.4 76.3951 74.44C76.5051 74.47 76.6351 74.49 76.7751 74.5C76.9151 74.5 77.0751 74.5 77.2451 74.5C77.4151 74.5 77.5751 74.5 77.7251 74.54C77.8851 74.57 78.0251 74.64 78.1551 74.74C78.2851 74.84 78.3951 75 78.4651 75.21C78.5351 75.41 78.5551 75.59 78.5351 75.76C78.5151 75.93 78.4651 76.09 78.3751 76.23C78.2851 76.37 78.1751 76.49 78.0251 76.6C77.8851 76.71 77.7151 76.79 77.5451 76.85C77.3151 76.93 77.0851 76.97 76.8551 76.97C76.6151 76.97 76.3951 76.91 76.1751 76.78L76.4951 76.13C76.6151 76.22 76.7551 76.28 76.9051 76.3C77.0551 76.32 77.2051 76.3 77.3551 76.25C77.4351 76.22 77.5051 76.19 77.5751 76.14C77.6451 76.09 77.7051 76.04 77.7451 75.97C77.7951 75.91 77.8251 75.84 77.8351 75.76C77.8551 75.68 77.8351 75.6 77.8151 75.52C77.7651 75.39 77.6851 75.3 77.5751 75.26C77.4651 75.22 77.3351 75.2 77.1951 75.19C77.0451 75.19 76.8951 75.19 76.7251 75.19C76.5551 75.19 76.3951 75.19 76.2451 75.16C76.0951 75.13 75.9451 75.06 75.8151 74.96C75.6851 74.86 75.5751 74.7 75.5051 74.49C75.4351 74.3 75.4151 74.12 75.4451 73.96C75.4751 73.8 75.5351 73.64 75.6251 73.51C75.7151 73.38 75.8351 73.26 75.9851 73.15C76.1351 73.05 76.2851 72.97 76.4551 72.91C76.6451 72.84 76.8451 72.8 77.0451 72.8C77.2451 72.8 77.4451 72.83 77.6351 72.91L77.3351 73.58Z" fill="#ECEDEB"/>
<path d="M78.3555 72.3301L79.0055 72.1001L79.5255 73.5501L81.2355 72.9401L80.7155 71.4901L81.3655 71.2601L82.6655 74.9101L82.0155 75.1401L81.4455 73.5301L79.7355 74.1401L80.3055 75.7501L79.6555 75.9801L78.3555 72.3301Z" fill="#ECEDEB"/>
<path d="M82.2852 70.9301L82.9352 70.7001L84.2352 74.3501L83.5852 74.5801L82.2852 70.9301Z" fill="#ECEDEB"/>
<path d="M83.8652 70.3701L85.0952 69.9301C85.2752 69.8701 85.4452 69.8201 85.6252 69.8001C85.8052 69.7801 85.9652 69.7801 86.1152 69.8201C86.2652 69.8601 86.4052 69.9301 86.5252 70.0401C86.6452 70.1501 86.7452 70.3101 86.8152 70.5101C86.8952 70.7401 86.9252 70.9401 86.8952 71.1101C86.8652 71.2801 86.7952 71.4301 86.6952 71.5501C86.5852 71.6701 86.4552 71.7801 86.2852 71.8701C86.1152 71.9601 85.9352 72.0401 85.7452 72.1101L85.2852 72.2801L85.8252 73.7901L85.1752 74.0201L83.8752 70.3701H83.8652ZM85.4652 71.5801C85.5552 71.5501 85.6552 71.5101 85.7452 71.4701C85.8452 71.4301 85.9252 71.3701 85.9952 71.3101C86.0652 71.2501 86.1152 71.1701 86.1452 71.0801C86.1752 70.9901 86.1652 70.8901 86.1252 70.7601C86.0852 70.6501 86.0252 70.5601 85.9552 70.5201C85.8852 70.4701 85.8052 70.4401 85.7152 70.4301C85.6252 70.4201 85.5352 70.4301 85.4352 70.4501C85.3352 70.4701 85.2452 70.5001 85.1652 70.5301L84.7052 70.7001L85.0752 71.7301L85.4652 71.5901V71.5801Z" fill="#ECEDEB"/>
<path d="M91.595 68.5701C91.405 68.4701 91.245 68.4201 91.105 68.4201C90.965 68.4201 90.825 68.4401 90.705 68.4801C90.515 68.5501 90.355 68.6401 90.225 68.7601C90.095 68.8801 89.995 69.0201 89.935 69.1801C89.875 69.3401 89.835 69.5101 89.825 69.6901C89.815 69.8701 89.855 70.0501 89.915 70.2301C89.985 70.4301 90.075 70.6001 90.195 70.7401C90.315 70.8801 90.445 71.0001 90.605 71.0801C90.765 71.1601 90.925 71.2101 91.105 71.2201C91.285 71.2301 91.465 71.2101 91.655 71.1401C91.805 71.0901 91.935 71.0001 92.045 70.8801C92.155 70.7601 92.245 70.6001 92.315 70.4001L92.985 70.5901C92.905 70.8801 92.755 71.1101 92.555 71.3001C92.355 71.4901 92.125 71.6301 91.855 71.7201C91.575 71.8201 91.295 71.8701 91.035 71.8601C90.775 71.8501 90.515 71.8001 90.285 71.6901C90.055 71.5801 89.855 71.4301 89.675 71.2301C89.495 71.0301 89.355 70.7901 89.255 70.5001C89.155 70.2101 89.105 69.9301 89.115 69.6501C89.125 69.3801 89.185 69.1301 89.295 68.9001C89.405 68.6701 89.565 68.4701 89.765 68.2901C89.965 68.1101 90.215 67.9801 90.495 67.8801C90.745 67.7901 90.985 67.7501 91.225 67.7701C91.465 67.7901 91.715 67.8601 91.975 68.0101L91.605 68.5601L91.595 68.5701Z" fill="#ECEDEB"/>
<path d="M93.6255 66.8901L94.1854 66.6901L97.0555 69.7801L96.3155 70.0401L95.6755 69.3301L94.0955 69.8901L94.0655 70.8401L93.3354 71.1001L93.6255 66.8901ZM95.2554 68.8501L94.1655 67.5701L94.1255 69.2601L95.2554 68.8601V68.8501Z" fill="#ECEDEB"/>
<path d="M96.2954 65.9401L97.5654 65.4901C97.7454 65.4301 97.9154 65.3801 98.0954 65.3601C98.2754 65.3401 98.4354 65.3401 98.5854 65.3701C98.7454 65.4001 98.8754 65.4701 99.0054 65.5801C99.1254 65.6901 99.2254 65.8401 99.3054 66.0501C99.3954 66.3101 99.4054 66.5601 99.3254 66.7901C99.2454 67.0201 99.0754 67.2001 98.8154 67.3401L100.355 68.6101L99.5754 68.8901L98.1754 67.6501L97.7054 67.8201L98.2554 69.3701L97.6054 69.6001L96.3054 65.9501L96.2954 65.9401ZM97.9954 67.0701C98.0854 67.0401 98.1754 67.0001 98.2654 66.9601C98.3554 66.9201 98.4354 66.8701 98.4954 66.8101C98.5654 66.7501 98.6054 66.6801 98.6254 66.5901C98.6454 66.5101 98.6354 66.4001 98.5954 66.2801C98.5554 66.1701 98.5054 66.1001 98.4354 66.0501C98.3654 66.0001 98.2954 65.9701 98.2054 65.9701C98.1154 65.9701 98.0354 65.9701 97.9454 65.9901C97.8554 66.0101 97.7654 66.0401 97.6854 66.0701L97.1254 66.2701L97.4754 67.2601L97.9754 67.0801L97.9954 67.0701Z" fill="#ECEDEB"/>
<path d="M99.665 64.7301L101.105 64.2201C101.345 64.1301 101.595 64.0901 101.835 64.0801C102.085 64.0801 102.325 64.1201 102.545 64.2101C102.775 64.3001 102.975 64.4401 103.165 64.6301C103.345 64.8201 103.495 65.0701 103.605 65.3801C103.715 65.6901 103.755 65.9801 103.715 66.2501C103.675 66.5201 103.595 66.7601 103.455 66.9801C103.325 67.2001 103.155 67.3801 102.955 67.5401C102.755 67.7001 102.545 67.8101 102.325 67.8901L100.965 68.3701L99.665 64.7201V64.7301ZM101.885 67.3901C102.085 67.3201 102.275 67.2301 102.435 67.1201C102.595 67.0101 102.735 66.8801 102.825 66.7401C102.925 66.5901 102.985 66.4301 103.005 66.2501C103.025 66.0701 103.005 65.8601 102.915 65.6401C102.825 65.4201 102.735 65.2401 102.605 65.1101C102.485 64.9801 102.335 64.8801 102.185 64.8301C102.025 64.7801 101.855 64.7501 101.675 64.7701C101.495 64.7801 101.305 64.8301 101.105 64.9001L100.515 65.1101L101.395 67.5801L101.875 67.4101L101.885 67.3901Z" fill="#ECEDEB"/>
<path d="M78.9599 45.744L76.7842 46.52L81.2522 59.047L83.428 58.271L78.9599 45.744Z" fill="#ECEDEB"/>
<path d="M49.755 65.7599C50.665 66.5599 51.655 66.9599 52.745 66.9499C53.825 66.9499 54.865 66.5599 55.865 65.7899C57.255 64.7199 57.875 63.4299 57.715 61.9099L59.575 60.6199C60.015 61.4499 60.025 62.3799 59.925 63.1099C59.675 64.9599 58.555 66.4699 57.155 67.5499C55.485 68.8399 53.725 69.3599 51.865 69.1199C50.015 68.8799 48.465 67.9599 47.235 66.3599C46.005 64.7599 45.505 63.0599 45.715 61.2099C45.925 59.3699 46.845 57.8199 48.475 56.5599C50.025 55.3699 51.705 54.9399 53.515 55.2799C55.335 55.6199 56.825 56.5499 58.005 58.0799C58.215 58.3499 58.405 58.6399 58.575 58.9499L49.745 65.7599H49.755ZM49.815 58.2899C48.835 59.0499 48.235 59.9499 48.015 61.0099C47.795 62.0599 47.965 63.1099 48.525 64.1599L55.565 58.7299C54.645 57.8499 53.665 57.3999 52.635 57.3599C51.605 57.3299 50.665 57.6399 49.825 58.2899H49.815Z" fill="#ECEDEB"/>
<path d="M89.8848 51.45C90.7948 52.25 91.7848 52.65 92.8748 52.64C93.9548 52.64 94.9948 52.25 95.9948 51.48C97.3848 50.41 98.0048 49.12 97.8448 47.6L99.7048 46.31C100.145 47.14 100.155 48.07 100.055 48.8C99.8048 50.65 98.6848 52.16 97.2848 53.24C95.6148 54.53 93.8548 55.05 91.9948 54.81C90.1448 54.57 88.5948 53.65 87.3648 52.05C86.1448 50.46 85.6348 48.75 85.8448 46.9C86.0548 45.06 86.9748 43.51 88.6048 42.25C90.1548 41.06 91.8348 40.63 93.6448 40.97C95.4648 41.31 96.9548 42.24 98.1348 43.77C98.3448 44.04 98.5348 44.33 98.7048 44.64L89.8748 51.45H89.8848ZM89.9448 43.98C88.9648 44.74 88.3648 45.64 88.1448 46.7C87.9248 47.75 88.0948 48.8 88.6548 49.85L95.6948 44.42C94.7748 43.54 93.7948 43.09 92.7648 43.05C91.7348 43.02 90.7948 43.33 89.9548 43.98H89.9448Z" fill="#ECEDEB"/>
<path d="M70.075 48.92L72.435 48.08L71.895 62.4L69.335 63.31L59.855 52.57L62.215 51.73L69.775 60.5L70.085 48.92H70.075Z" fill="#ECEDEB"/>
<path d="M92.955 58.28C93.255 58.17 93.545 58.2 93.835 58.35C94.125 58.5 94.325 58.74 94.445 59.06C94.565 59.38 94.555 59.7 94.425 60C94.295 60.3 94.085 60.5 93.785 60.61C93.485 60.72 93.205 60.7 92.955 60.54L93.045 60.8L92.475 61L91.375 57.93L91.945 57.73L92.355 58.87C92.445 58.6 92.645 58.41 92.955 58.3V58.28ZM92.985 60.08C93.145 60.15 93.305 60.16 93.485 60.1C93.665 60.04 93.785 59.93 93.855 59.77C93.925 59.61 93.935 59.44 93.865 59.26C93.795 59.08 93.685 58.95 93.535 58.88C93.375 58.81 93.215 58.8 93.035 58.86C92.855 58.92 92.735 59.03 92.665 59.19C92.595 59.35 92.585 59.52 92.655 59.7C92.725 59.88 92.825 60.01 92.985 60.08Z" fill="#ECEDEB"/>
<path d="M94.8552 57.3799C94.7652 57.4099 94.6652 57.4099 94.5752 57.3599C94.4852 57.3199 94.4152 57.2499 94.3852 57.1499C94.3552 57.0499 94.3552 56.9599 94.4052 56.8699C94.4452 56.7799 94.5152 56.7099 94.6152 56.6799C94.7152 56.6499 94.8052 56.6499 94.9052 56.6999C94.9952 56.7499 95.0652 56.8199 95.0952 56.9099C95.1252 56.9999 95.1252 57.0999 95.0752 57.1899C95.0252 57.2799 94.9652 57.3499 94.8652 57.3799H94.8552ZM95.4552 59.9399L94.6752 57.7399L95.2452 57.5399L96.0252 59.7399L95.4552 59.9399Z" fill="#ECEDEB"/>
<path d="M98.7748 58.75L98.1148 58.9799L96.9648 58.27L97.3248 59.27L96.7548 59.47L95.6548 56.4L96.2248 56.2L96.8848 58.0499L97.2948 56.81L97.9748 56.57L97.4748 57.97L98.7748 58.7599V58.75Z" fill="#ECEDEB"/>
<path d="M99.2948 57.5899C99.4648 57.8399 99.7248 57.8999 100.065 57.7799C100.285 57.6999 100.415 57.5699 100.475 57.3899L101.025 57.49C100.925 57.88 100.655 58.1499 100.235 58.2999C99.8748 58.4299 99.5448 58.4199 99.2448 58.2799C98.9448 58.1399 98.7348 57.8999 98.6148 57.5699C98.4948 57.2399 98.5048 56.92 98.6448 56.63C98.7848 56.33 99.0248 56.1199 99.3648 55.9999C99.6848 55.8899 99.9948 55.8999 100.285 56.0499C100.575 56.1999 100.775 56.4399 100.895 56.7599C100.925 56.8299 100.945 56.9099 100.955 56.9999L99.2948 57.5899ZM99.1248 57.15L100.245 56.7499C100.155 56.6099 100.055 56.52 99.9248 56.49C99.7948 56.45 99.6748 56.4599 99.5448 56.4999C99.3948 56.5499 99.2848 56.6399 99.2048 56.7499C99.1348 56.8599 99.1048 57 99.1248 57.15Z" fill="#ECEDEB"/>
<path d="M101.765 55.9199C101.785 55.9799 101.845 56.0099 101.935 56.0199C102.025 56.0199 102.135 56.0199 102.255 56.0199C102.375 56.0099 102.495 55.9999 102.625 56.0099C102.755 56.0099 102.875 56.0499 102.985 56.1199C103.095 56.1899 103.185 56.2999 103.235 56.4499C103.315 56.6799 103.295 56.8799 103.165 57.0599C103.035 57.2399 102.855 57.3799 102.595 57.4699C102.145 57.6299 101.775 57.5699 101.485 57.2799L101.875 56.8299C102.005 56.9999 102.185 57.0399 102.405 56.9599C102.605 56.8899 102.685 56.7899 102.645 56.6599C102.625 56.5999 102.565 56.5699 102.475 56.5599C102.385 56.5599 102.275 56.5599 102.155 56.5599C102.035 56.5699 101.905 56.5699 101.785 56.5599C101.655 56.5599 101.535 56.5199 101.425 56.4499C101.315 56.3799 101.235 56.2799 101.185 56.1299C101.105 55.9099 101.125 55.7099 101.245 55.5299C101.365 55.3499 101.535 55.2199 101.775 55.1299C101.955 55.0699 102.135 55.0499 102.305 55.0799C102.485 55.1099 102.635 55.1799 102.775 55.2999L102.385 55.7399C102.265 55.6199 102.115 55.5799 101.955 55.6399C101.885 55.6699 101.825 55.6999 101.795 55.7499C101.755 55.7999 101.745 55.8499 101.765 55.9099V55.9199Z" fill="#ECEDEB"/>
<path d="M263.639 32.5626L116.778 9.82733C115.359 9.60765 114.031 10.5799 113.811 11.999L98.1363 113.253C97.9166 114.672 98.8889 116 100.308 116.22L247.169 138.955C248.588 139.175 249.916 138.203 250.136 136.784L265.811 35.5297C266.03 34.1107 265.058 32.7822 263.639 32.5626Z" fill="#FAFAFA" stroke="#171617" stroke-miterlimit="10"/>
<path d="M186.495 58.39L184.585 70.72L196.915 72.63L198.825 60.3L186.495 58.39ZM193.445 67.88L189.335 67.24L189.975 63.13L194.085 63.77L193.445 67.88Z" fill="#252526"/>
<path d="M170.055 55.84L168.145 68.17L180.475 70.08L182.385 57.75L170.055 55.84ZM177.005 65.33L172.895 64.69L173.535 60.58L177.645 61.22L177.005 65.33Z" fill="#252526"/>
<path d="M188.071 75.4493L183.959 74.8129L183.323 78.9239L187.434 79.5603L188.071 75.4493Z" fill="#252526"/>
<path d="M191.543 80.1957L187.432 79.5593L186.795 83.6704L190.906 84.3068L191.543 80.1957Z" fill="#252526"/>
<path d="M186.796 83.6782L182.685 83.0417L182.049 87.1528L186.16 87.7892L186.796 83.6782Z" fill="#252526"/>
<path d="M195.656 80.837L191.545 80.2006L190.909 84.3116L195.02 84.948L195.656 80.837Z" fill="#252526"/>
<path d="M195.015 84.9508L190.904 84.3143L190.268 88.4254L194.379 89.0618L195.015 84.9508Z" fill="#252526"/>
<path d="M167.515 72.2799L165.605 84.6099L177.935 86.5199L179.845 74.1899L167.515 72.2799ZM174.465 81.7699L170.355 81.1299L170.995 77.0199L175.105 77.6599L174.465 81.7699Z" fill="#252526"/>
<path d="M249.992 41.394L127.738 22.4681L127.156 26.2234L249.41 45.1493L249.992 41.394Z" fill="#8E8E8E"/>
<path d="M252.428 46.9523L123.741 27.0305L123.16 30.7858L251.847 50.7076L252.428 46.9523Z" fill="#8E8E8E"/>
<path d="M142.292 101.13L110.105 96.1469L109.524 99.9021L141.71 104.885L142.292 101.13Z" fill="#8E8E8E"/>
<path d="M177.126 111.888L109.294 101.387L108.596 105.894L176.428 116.395L177.126 111.888Z" fill="#8E8E8E"/>
<path d="M228.191 114.43L186.981 108.051L186.4 111.806L227.609 118.186L228.191 114.43Z" fill="#8E8E8E"/>
<path d="M214.594 117.68L186.172 113.28L185.475 117.786L213.896 122.186L214.594 117.68Z" fill="#8E8E8E"/>
</g>
<defs>
<clipPath id="clip0_2014_49537">
<rect width="265.67" height="139.5" fill="white" transform="translate(0.665039)"/>
</clipPath>
</defs>
</svg>
