<svg width="257" height="160" viewBox="0 0 257 160" fill="none" xmlns="http://www.w3.org/2000/svg">
<g clip-path="url(#clip0_2102_58769)">
<path d="M194.529 137.805H256.542" stroke="#252526" stroke-linejoin="round"/>
<path d="M7.58691 137.805H190.712" stroke="#252526" stroke-linejoin="round"/>
<path d="M205.831 80.6783C205.831 80.6783 203.623 83.269 201.032 82.6778C198.45 82.0867 187.035 75.7663 186.296 75.0882C185.557 74.4101 175.751 62.4822 177.281 60.1436C178.811 57.805 179.95 59.2829 179.95 59.2829C179.95 59.2829 189.913 70.124 189.748 70.3762C189.583 70.6283 198.572 73.0278 200.911 74.6361C203.249 76.2445 207.779 77.8006 205.823 80.687L205.831 80.6783Z" fill="#F4F4F4" stroke="#252526" stroke-linecap="round" stroke-linejoin="round"/>
<path d="M177.168 60.0564C177.168 60.0564 176.994 59.2305 176.811 59.1C176.629 58.9696 175.16 55.979 175.107 55.4574C175.055 54.9357 174.412 54.0403 174.116 53.8577C173.821 53.6751 173.682 53.1448 173.682 53.1448C173.682 53.1448 173.569 52.5363 174.429 53.0057C175.29 53.4752 175.742 54.501 175.916 54.475C176.09 54.4489 174.934 52.0755 174.516 51.8147C174.099 51.5539 174.577 50.6323 174.994 50.9018C175.412 51.1713 176.603 53.5273 176.69 53.5013C176.777 53.4752 176.568 52.5189 175.925 51.3626C175.281 50.2063 176.012 50.0498 176.012 50.0498C176.012 50.0498 176.481 50.2933 176.577 50.4584C176.672 50.6236 177.646 53.1535 177.794 53.11C177.942 53.0666 177.776 52.3624 177.776 52.3624C177.776 52.3624 177.098 50.528 177.046 50.302C176.994 50.0759 177.411 49.8325 177.724 49.9977C178.037 50.1629 179.811 54.9879 180.063 55.1096C180.315 55.2313 180.776 54.7619 181.106 54.3011C181.436 53.8403 181.784 53.31 181.975 53.3882C182.167 53.4665 182.697 53.7534 182.488 54.1881C182.28 54.6228 181.289 56.7266 180.95 57.1613C180.611 57.596 179.811 58.8305 179.959 58.9609C180.019 59.0131 178.202 60.6736 177.281 60.1694" fill="#ECEDEB"/>
<path d="M177.168 60.0564C177.168 60.0564 176.994 59.2305 176.811 59.1C176.629 58.9696 175.16 55.979 175.107 55.4574C175.055 54.9357 174.412 54.0403 174.116 53.8577C173.821 53.6751 173.682 53.1448 173.682 53.1448C173.682 53.1448 173.569 52.5363 174.429 53.0057C175.29 53.4752 175.742 54.501 175.916 54.475C176.09 54.4489 174.934 52.0755 174.516 51.8147C174.099 51.5539 174.577 50.6323 174.994 50.9018C175.412 51.1713 176.603 53.5273 176.69 53.5013C176.777 53.4752 176.568 52.5189 175.925 51.3626C175.281 50.2063 176.012 50.0498 176.012 50.0498C176.012 50.0498 176.481 50.2933 176.577 50.4584C176.672 50.6236 177.646 53.1535 177.794 53.11C177.942 53.0666 177.776 52.3624 177.776 52.3624C177.776 52.3624 177.098 50.528 177.046 50.302C176.994 50.0759 177.411 49.8325 177.724 49.9977C178.037 50.1629 179.811 54.9879 180.063 55.1096C180.315 55.2313 180.776 54.7619 181.106 54.3011C181.436 53.8403 181.784 53.31 181.975 53.3882C182.167 53.4665 182.697 53.7534 182.488 54.1881C182.28 54.6228 181.289 56.7266 180.95 57.1613C180.611 57.596 179.811 58.8305 179.959 58.9609C180.019 59.0131 178.202 60.6736 177.281 60.1694" stroke="#252526" stroke-linecap="round" stroke-linejoin="round"/>
<path d="M165.935 0.435547C149.478 0.435547 136.142 13.7718 136.142 30.2291C136.142 46.6864 149.478 60.0226 165.935 60.0226C182.392 60.0226 195.729 46.6864 195.729 30.2291C195.729 13.7718 182.384 0.435547 165.935 0.435547ZM165.935 54.9454C152.286 54.9454 141.219 43.8783 141.219 30.2291C141.219 16.5799 152.286 5.5127 165.935 5.5127C179.584 5.5127 190.651 16.5799 190.651 30.2291C190.651 43.8783 179.584 54.9454 165.935 54.9454Z" fill="#383838" stroke="#252526" stroke-linejoin="round"/>
<path d="M165.936 36.9064C169.623 36.9064 172.612 33.917 172.612 30.2295C172.612 26.542 169.623 23.5527 165.936 23.5527C162.248 23.5527 159.259 26.542 159.259 30.2295C159.259 33.917 162.248 36.9064 165.936 36.9064Z" fill="#ECEDEB" stroke="#252526" stroke-linejoin="round"/>
<path d="M200.858 70.7845C200.858 70.7845 202.389 72.6102 203.397 74.4185C203.866 75.2705 204.223 76.1225 204.24 76.7571C204.31 78.6958 210.3 71.9843 210.065 71.0453C210.065 71.0453 210.039 70.9845 210.013 70.9671C209.239 70.4802 208.752 69.3066 208.752 69.3066C208.752 69.3066 207.9 67.5504 207.492 66.4898C207.327 66.0725 207.231 65.7595 207.292 65.6987C207.5 65.4813 199.198 66.7854 200.858 70.7758V70.7845Z" fill="#ECEDEB" stroke="#252526" stroke-linecap="round" stroke-linejoin="round"/>
<path d="M204.283 132.772C204.387 133.633 208.126 149.751 208.126 149.751C208.256 149.881 208.386 150.003 208.525 150.116C211.151 152.307 213.603 150.499 214.263 149.916C214.385 149.821 214.437 149.751 214.437 149.751C214.846 146.804 211.62 132.529 211.62 132.529C210.968 126.582 212.333 121.331 212.942 119.358C215.289 123.452 218.193 129.303 218.975 130.52C220.193 132.424 222.27 132.494 223.409 132.32C224.557 132.155 238.058 127.982 238.058 127.982C239.441 126.643 238.754 124.391 238.276 123.348C238.258 123.313 238.232 123.278 238.189 123.252C237.085 122.54 227.33 125.687 226.374 125.887C225.391 126.104 223.774 124.226 223.827 123.548C223.879 122.87 221.853 106.813 221.853 106.813C221.853 106.813 221.836 106.812 221.818 106.839C221.027 107.23 207.534 113.837 203.196 108.786C203.196 108.786 203.179 108.769 203.179 108.76C203.144 108.882 203.109 109.021 203.075 109.169V109.186C202.127 113.759 204.179 131.955 204.283 132.763V132.772Z" fill="#9C8BDC" stroke="#252526" stroke-linecap="round" stroke-linejoin="round"/>
<path d="M203.075 109.186V109.177V109.168" stroke="#252526" stroke-linecap="round" stroke-linejoin="round"/>
<path d="M203.075 109.167C203.101 109.011 203.144 108.872 203.179 108.759C203.179 108.759 203.179 108.776 203.197 108.785C207.535 113.827 221.028 107.22 221.819 106.837C220.671 99.4998 216.542 77.5307 216.029 76.244C215.594 75.166 211.916 72.3405 210.073 71.0625C210.308 72.0014 204.318 78.7043 204.249 76.7743C204.222 76.131 203.875 75.2877 203.405 74.4357C202.397 75.4268 200.841 77.2264 200.571 77.6437C200.18 78.2088 199.763 101.308 203.084 109.185L203.075 109.167Z" fill="#F4F4F4" stroke="#252526" stroke-linecap="round" stroke-linejoin="round"/>
<path d="M212.943 119.348C211.63 117.061 210.5 115.323 210.013 115.262" stroke="#252526" stroke-linecap="round" stroke-linejoin="round"/>
<path d="M238.05 127.972C238.963 128.041 241.571 134.892 241.571 134.892C241.571 134.892 242.118 136.7 243.605 136.196C245.083 135.692 245.431 133.153 245.222 131.258C245.022 129.354 243.318 125.407 241.701 123.034C240.458 121.199 238.85 122.529 238.18 123.242C238.224 123.268 238.25 123.303 238.267 123.338C238.737 124.372 239.432 126.633 238.05 127.972Z" fill="#ECEDEB" stroke="#252526" stroke-linecap="round" stroke-linejoin="round"/>
<path d="M202.64 158.609C203.318 160.087 206.491 159.643 207.943 158.609C209.404 157.574 214.185 154.531 214.837 154.088C215.376 153.723 214.568 150.889 214.263 149.906C213.603 150.489 211.151 152.297 208.526 150.106C208.569 151.871 202.005 157.209 202.64 158.609Z" fill="#ECEDEB" stroke="#252526" stroke-linecap="round" stroke-linejoin="round"/>
<path d="M197.702 64.4638C197.441 66.0026 199.049 70.6538 199.78 70.9407C200.51 71.2276 203.857 69.5149 204.952 68.8107C206.039 68.1152 206.091 66.5242 206.091 66.5242H206.074C206.169 66.5503 206.613 66.6546 207.143 66.5851C207.839 66.4895 208.699 66.0895 209.134 64.7681C209.925 62.3338 207.213 63.4727 207.213 63.4727C206.43 63.2988 208.152 59.1084 203.909 57.4914C199.953 55.9874 198.493 58.752 197.963 60.6994C197.702 61.6383 197.667 62.4034 197.667 62.4034C197.667 62.4034 197.954 62.9511 197.693 64.4812L197.702 64.4638Z" fill="#ECEDEB" stroke="#252526" stroke-linecap="round" stroke-linejoin="round"/>
<path d="M197.972 60.6816C198.502 58.7342 199.963 55.9696 203.918 57.4736C208.161 59.0907 206.448 63.281 207.222 63.4549C207.222 63.4549 209.943 62.316 209.143 64.7503C208.708 66.0717 207.856 66.4717 207.152 66.5673C207.152 66.5673 207.743 69.4797 208.752 69.3058C209.752 69.1406 209.03 67.7149 209.786 66.0544C210.552 64.3939 210.995 57.0302 206.535 57.0389C206.518 57.3171 205.205 54.0657 201.058 54.6481C197.372 55.1698 194.042 58.6473 197.972 60.6903V60.6816Z" fill="#FAFAFA" stroke="#252526" stroke-linecap="round" stroke-linejoin="round"/>
<path d="M188.73 55.8306C188.73 55.8306 188.312 55.0568 188.086 54.9786C187.86 54.9003 185.496 52.3617 185.287 51.8488C185.078 51.3359 184.165 50.6404 183.809 50.5447C183.453 50.4491 183.157 49.9623 183.157 49.9623C183.157 49.9623 182.861 49.3885 183.861 49.5971C184.861 49.8058 185.626 50.7012 185.791 50.6143C185.956 50.5274 184.087 48.5191 183.592 48.3713C183.096 48.2235 183.296 47.1716 183.792 47.3107C184.287 47.4498 186.191 49.4493 186.261 49.3972C186.33 49.345 185.843 48.4582 184.852 47.4845C183.861 46.5108 184.548 46.1457 184.548 46.1457C184.548 46.1457 185.087 46.25 185.235 46.3804C185.383 46.5108 187.113 48.7538 187.252 48.6669C187.391 48.58 187.008 47.9279 187.008 47.9279C187.008 47.9279 185.783 46.2935 185.661 46.0935C185.539 45.8936 185.887 45.5111 186.252 45.5806C186.617 45.6502 189.834 49.9449 190.121 49.9883C190.408 50.0318 190.729 49.4319 190.921 48.8582C191.112 48.2844 191.294 47.6671 191.512 47.6845C191.729 47.7019 192.338 47.8323 192.268 48.3278C192.199 48.8234 191.833 51.2316 191.625 51.7619C191.416 52.2922 190.99 53.7701 191.181 53.8658C191.251 53.9005 189.947 56.1087 188.869 55.874" fill="#ECEDEB"/>
<path d="M188.73 55.8306C188.73 55.8306 188.312 55.0568 188.086 54.9786C187.86 54.9003 185.496 52.3617 185.287 51.8488C185.078 51.3359 184.165 50.6404 183.809 50.5447C183.453 50.4491 183.157 49.9623 183.157 49.9623C183.157 49.9623 182.861 49.3885 183.861 49.5971C184.861 49.8058 185.626 50.7012 185.791 50.6143C185.956 50.5274 184.087 48.5191 183.592 48.3713C183.096 48.2235 183.296 47.1716 183.792 47.3107C184.287 47.4498 186.191 49.4493 186.261 49.3972C186.33 49.345 185.843 48.4582 184.852 47.4845C183.861 46.5108 184.548 46.1457 184.548 46.1457C184.548 46.1457 185.087 46.25 185.235 46.3804C185.383 46.5108 187.113 48.7538 187.252 48.6669C187.391 48.58 187.008 47.9279 187.008 47.9279C187.008 47.9279 185.783 46.2935 185.661 46.0935C185.539 45.8936 185.887 45.5111 186.252 45.5806C186.617 45.6502 189.834 49.9449 190.121 49.9883C190.408 50.0318 190.729 49.4319 190.921 48.8582C191.112 48.2844 191.294 47.6671 191.512 47.6845C191.729 47.7019 192.338 47.8323 192.268 48.3278C192.199 48.8234 191.833 51.2316 191.625 51.7619C191.416 52.2922 190.99 53.7701 191.181 53.8658C191.251 53.9005 189.947 56.1087 188.869 55.874" stroke="#252526" stroke-linecap="round" stroke-linejoin="round"/>
<path d="M216.593 80.2509C216.593 80.2509 214.289 82.9547 211.586 82.3374C208.882 81.7202 196.441 75.5824 195.667 74.8695C194.894 74.1566 187.66 57.7341 189.269 55.2998C190.868 52.8656 192.39 55.9258 192.39 55.9258C192.39 55.9258 200.84 68.3144 200.658 68.5665C200.475 68.8186 208.499 71.0442 210.942 72.7221C213.385 74.4 218.636 77.2342 216.593 80.2509Z" fill="#F4F4F4" stroke="#252526" stroke-linecap="round" stroke-linejoin="round"/>
<path d="M118.693 130.578L129.772 134.01C130.054 134.097 130.214 134.402 130.127 134.684L129.911 135.381C129.823 135.664 129.519 135.824 129.237 135.737L118.158 132.305L118.693 130.578Z" fill="#ECEDEB" stroke="#252526" stroke-linejoin="round"/>
<path d="M119.491 130.432L112.258 128.132C112.121 128.088 111.974 128.164 111.931 128.301L111.359 130.099C111.315 130.236 111.391 130.383 111.529 130.427L118.761 132.727C118.899 132.77 119.045 132.694 119.089 132.557L119.661 130.759C119.704 130.622 119.628 130.475 119.491 130.432Z" fill="#A0A0A0" stroke="#252526" stroke-linejoin="round"/>
<path d="M65.6784 108.342C60.6968 123.999 69.3558 140.717 85.0133 145.699C100.671 150.68 117.389 142.021 122.37 126.372C127.352 110.715 118.693 93.9969 103.044 89.0153C87.3867 84.0338 70.6686 92.6928 65.687 108.342H65.6784ZM70.5034 109.88C74.6329 96.8919 88.5082 89.7108 101.497 93.8404C114.485 97.9699 121.666 111.845 117.537 124.834C113.407 137.822 99.5319 145.003 86.5434 140.874C73.5549 136.744 66.3739 122.869 70.5034 109.88Z" fill="#383838" stroke="#252526" stroke-linejoin="round"/>
<path d="M133.003 72.7148C130.96 72.0628 127.161 70.8544 125.361 69.9502C123.561 69.0461 121.092 67.9854 120.666 68.4549C120.24 68.9244 120.014 69.2895 121.118 71.0196C122.223 72.7409 123.527 73.819 124.013 74.5231C124.5 75.2273 128.343 76.9574 131.247 76.7487C134.15 76.5401 136.924 75.7664 137.732 75.975C138.549 76.175 140.558 77.4529 141.323 77.6529C142.088 77.8529 142.566 77.0183 141.792 76.1663C141.018 75.3143 134.742 73.2712 132.994 72.7061L133.003 72.7148Z" fill="#9C8BDC" stroke="#252526" stroke-linejoin="round"/>
<path d="M126.1 131.485C126.1 131.485 98.0626 118.801 97.1411 118.34C96.2195 117.88 95.4632 118.297 95.2458 118.706C95.0285 119.114 95.0893 119.758 95.9587 120.384C96.8281 121.018 124.561 134.641 124.561 134.641L126.1 131.477V131.485Z" fill="#ECEDEB" stroke="#252526" stroke-linejoin="round"/>
<path d="M176.541 93.0669C176.541 93.0669 176.341 88.7287 176.35 88.1375C176.359 87.5463 176.585 87.5029 177.454 87.4246C178.323 87.3464 182.262 87.2855 183.114 87.2073C183.966 87.129 186.009 87.0595 186.565 87.1812C187.121 87.3029 187.713 87.4855 188.565 87.8158C189.408 88.1462 190.651 88.6591 189.912 89.6068C189.173 90.5544 188.895 91.0325 188.46 90.7022C187.678 90.1023 186.226 89.5894 185.331 89.6155C184.618 89.6328 181.575 89.8154 180.897 89.8937C180.219 89.9719 180.097 89.9893 180.158 90.5457C180.219 91.1021 180.279 93.1712 180.279 93.1712L176.541 93.0756V93.0669Z" fill="#7A7A79" stroke="#252526" stroke-linejoin="round"/>
<path d="M129.073 143.394C133.851 143.394 137.723 139.521 137.723 134.744C137.723 129.967 133.851 126.094 129.073 126.094C124.296 126.094 120.423 129.967 120.423 134.744C120.423 139.521 124.296 143.394 129.073 143.394Z" fill="#ECEDEB" stroke="#252526" stroke-linejoin="round"/>
<path d="M93.7414 116.47C94.2369 116.166 123.205 99.778 128.117 97.0047C128.325 86.6939 128.499 77.4003 128.499 77.4003C128.516 76.5135 128.421 76.4875 129.229 76.6439C129.838 76.7657 130.742 76.7743 131.429 76.7483C131.411 77.635 131.229 90.4496 131.238 90.9886C131.238 91.5277 131.012 91.9884 132.003 91.945C132.994 91.9015 175.584 94.4922 176.341 94.3705C176.341 94.3705 176.428 93.788 176.549 93.0665C176.558 93.0056 180.749 93.1795 181.044 93.1969C181.374 93.2142 181.314 96.5092 181.383 98.1175C181.574 102.386 181.783 107.029 182.105 111.289C182.479 116.244 182.852 121.191 183.226 126.146C183.539 130.302 183.861 134.457 184.174 138.604C184.322 140.474 184.4 142.36 184.626 144.221C184.826 145.89 184.948 146.907 184.33 147.02C183.844 147.116 183.278 147.237 182.983 145.646C182.687 144.055 176.941 110.871 176.793 110.202C176.645 109.532 176.028 109.246 175.254 109.715C174.48 110.184 141.679 135.744 140.67 136.666C139.662 137.596 135.489 140.552 135.489 140.552C135.489 140.552 137.584 138.344 137.697 135.362C137.819 132.371 136.732 130.737 136.732 130.737C136.732 130.737 169.786 104.768 171.22 103.621C172.655 102.473 175.185 100.96 175.628 99.8563C176.071 98.7522 175.158 97.7437 173.55 97.5959C171.942 97.4394 133.341 94.1619 132.429 94.2314C131.516 94.301 131.246 94.301 131.211 95.266C131.168 96.231 131.238 112.827 131.246 113.358C131.246 113.619 131.22 113.723 131.246 113.853L131.316 126.407C130.899 126.294 130.516 126.233 130.142 126.172C128.986 125.99 127.534 126.242 127.534 126.242C127.534 126.242 127.751 115.453 128.047 100.274C123.039 102.943 96.5408 117.035 95.2106 117.748C93.7414 118.539 93.4719 118.183 93.2719 117.931C93.072 117.678 92.672 117.131 93.7327 116.479L93.7414 116.47Z" fill="#ECEDEB" stroke="#252526" stroke-linejoin="round"/>
<path d="M94.0197 124.016C97.7024 124.016 100.688 121.031 100.688 117.348C100.688 113.665 97.7024 110.68 94.0197 110.68C90.337 110.68 87.3516 113.665 87.3516 117.348C87.3516 121.031 90.337 124.016 94.0197 124.016Z" fill="#ECEDEB" stroke="#252526" stroke-linejoin="round"/>
<path d="M139.404 139.062L128.379 135.465C128.098 135.374 127.942 135.067 128.034 134.786L128.26 134.091C128.352 133.81 128.659 133.654 128.94 133.746L139.965 137.343L139.404 139.062Z" fill="#ECEDEB" stroke="#252526" stroke-linejoin="round"/>
<path d="M138.657 139.053L145.89 141.353C146.027 141.396 146.174 141.32 146.218 141.183L146.789 139.385C146.833 139.248 146.757 139.101 146.62 139.058L139.387 136.758C139.25 136.714 139.103 136.79 139.06 136.927L138.488 138.725C138.444 138.862 138.52 139.009 138.657 139.053Z" fill="#A0A0A0" stroke="#252526" stroke-linejoin="round"/>
<path d="M56.3591 83.6072C55.2463 87.9888 54.316 94.2483 55.5679 95.7089C56.5416 96.8391 56.2895 103.377 56.3591 106.602C53.777 105.628 51.8992 107.724 51.8992 107.724C51.7079 106.307 51.4297 104.742 51.1602 104.472C50.6473 103.959 48.4738 99.5602 48.5173 98.1171C48.5694 96.6826 48.7085 93.4833 48.5173 92.8312C48.3347 92.1879 46.6655 84.3461 47.4045 83.7028C47.4045 83.7028 48.9607 72.5574 56.3677 75.6524C56.5068 75.7132 57.4806 79.2342 56.3677 83.6072H56.3591Z" fill="#B5A8E4" stroke="#252526" stroke-linecap="round" stroke-linejoin="round"/>
<path d="M57.8979 116.661C56.5764 116.895 52.499 115.6 52.0817 113.696C51.6644 111.792 51.9426 110.166 52.0817 110.123C52.1426 110.105 52.0556 108.975 51.8905 107.723C51.8905 107.723 53.7683 105.628 56.3504 106.602C56.3678 107.523 56.4112 108.175 56.5242 108.358C57.0111 109.193 58.4716 110.027 58.6803 111.001C58.8889 111.975 59.2106 116.426 57.8892 116.652L57.8979 116.661Z" fill="#ECEDEB" stroke="#252526" stroke-linecap="round" stroke-linejoin="round"/>
<path d="M49.578 83.7892C43.0403 87.1276 42.0231 96.6299 42.0231 96.6299C41.8492 96.7429 41.6753 96.856 41.5015 96.9603C41.4841 96.969 41.458 96.9864 41.4406 96.9951C33.4337 101.638 22.4187 92.8568 19.3324 89.5706C19.2889 89.5358 19.2628 89.501 19.228 89.4663C18.6282 88.8229 18.3674 88.4143 18.5412 88.4056C19.4019 88.3622 31.947 61.994 33.9987 60.4813C36.3721 58.7512 46.3439 62.6112 46.3439 62.6112C46.3439 62.6112 51.2906 68.0796 51.8731 68.4969C52.4469 68.9142 55.9331 75.278 56.3591 75.6519C56.7764 76.017 56.1157 80.4595 49.578 83.7979V83.7892Z" fill="#B5A8E4" stroke="#252526" stroke-linecap="round" stroke-linejoin="round"/>
<path d="M12.0991 143.141C11.5514 145.305 10.3691 150.383 10.8733 151.608C11.5253 153.182 13.1946 154.112 14.3943 154.39C15.6027 154.669 21.784 154.616 21.9231 153.191C22.1317 151 16.7503 146.705 17.0894 143.767" fill="#A0A0A0"/>
<path d="M12.0991 143.141C11.5514 145.305 10.3691 150.383 10.8733 151.608C11.5253 153.182 13.1946 154.112 14.3943 154.39C15.6027 154.669 21.784 154.616 21.9231 153.191C22.1317 151 16.7503 146.705 17.0894 143.767" stroke="#252526" stroke-linecap="round" stroke-linejoin="round"/>
<path d="M51.8208 142.186C53.177 145.715 59.2105 148.106 60.4276 148.341C61.7317 148.593 62.2881 150.645 60.7927 151.523C59.3061 152.401 47.3522 151.844 45.2657 151.523C43.6486 151.271 44.8049 145.341 45.3961 142.733" fill="#A0A0A0"/>
<path d="M51.8208 142.186C53.177 145.715 59.2105 148.106 60.4276 148.341C61.7317 148.593 62.2881 150.645 60.7927 151.523C59.3061 152.401 47.3522 151.844 45.2657 151.523C43.6486 151.271 44.8049 145.341 45.3961 142.733" stroke="#252526" stroke-linecap="round" stroke-linejoin="round"/>
<path d="M15.1855 151.513C15.1855 151.513 17.3155 149.105 20.0541 150.027" stroke="#252526" stroke-linecap="round" stroke-linejoin="round"/>
<path d="M54.3594 122.312C52.8554 128.702 53.4291 140.178 52.6641 141.847C52.5598 142.082 52.3424 142.273 52.0555 142.429C50.482 143.299 46.6741 143.186 45.6308 142.977C45.483 142.951 45.3874 142.916 45.3613 142.89C45.1527 142.612 44.4746 122.295 44.944 119.878C45.4048 117.478 36.059 109.602 32.1642 107.898L32.0773 107.985C30.2081 109.871 28.0347 118.095 27.3479 120.512C26.7915 122.46 18.8627 142.629 17.8195 143.742C17.6978 143.872 17.5239 143.959 17.3153 144.029C15.9938 144.438 13.2118 143.673 12.325 143.412C12.1512 143.36 12.0468 143.325 12.0468 143.325C12.0468 143.325 11.8382 143.047 12.0468 140.265C12.2555 137.483 18.741 118.782 18.8106 118.078C18.8975 117.165 18.0281 100.456 17.6804 97.0131C17.4457 94.7353 18.7584 91.5882 19.5582 89.832C22.6445 93.1183 33.6595 101.908 41.6665 97.2565C41.6839 97.2478 41.71 97.2304 41.7273 97.2217C45.0049 101.525 54.3507 112.723 54.3507 112.723C54.3507 112.723 55.8547 115.922 54.3507 122.321L54.3594 122.312Z" fill="#F4F4F4" stroke="#252526" stroke-linecap="round" stroke-linejoin="round"/>
<path d="M31.9297 107.646C33.3555 106.194 33.4946 105.629 33.4946 105.629" stroke="#252526" stroke-linecap="round" stroke-linejoin="round"/>
<path d="M18.1936 79.9394L54.0467 107.89C54.4118 108.177 54.5683 108.637 54.4814 109.09C53.6207 113.593 55.0986 118.279 58.7848 121.148C63.0447 124.469 68.9478 124.347 73.4338 121.296C73.9206 120.965 73.8859 120.235 73.3555 119.974L67.4438 117.053C65.1834 115.94 64.2532 113.202 65.3747 110.941L66.2788 109.107C67.3916 106.847 70.1301 105.916 72.3905 107.038L78.3892 110.002C78.9109 110.263 79.5194 109.855 79.4846 109.272C79.3108 105.847 77.7807 102.587 74.9639 100.387C71.6081 97.7703 67.2438 97.3008 63.349 98.7005C62.9578 98.8396 62.5144 98.7874 62.1841 98.5266L26.331 70.5849C25.9658 70.298 25.8093 69.8372 25.8963 69.3851C26.7657 64.8731 25.279 60.1958 21.5929 57.3269C17.3329 54.0059 11.4299 54.1276 6.94388 57.1791C6.45703 57.5095 6.49181 58.2397 7.02213 58.5005L12.9339 61.4217C15.1943 62.5345 16.1245 65.273 15.003 67.5334L14.0989 69.3678C12.986 71.6281 10.2475 72.5584 7.98714 71.4369L1.98844 68.4723C1.46681 68.2115 0.858251 68.6201 0.893026 69.2026C1.0669 72.6279 2.597 75.8881 5.41378 78.0876C8.76957 80.7044 13.1338 81.1739 17.0286 79.7742C17.4199 79.6351 17.8633 79.6872 18.1936 79.9481V79.9394Z" fill="#CECFCF" stroke="#252526" stroke-linecap="round" stroke-linejoin="round"/>
<path d="M24.7748 72.6805C24.1314 71.446 23.5142 70.4288 23.1143 70.168" stroke="#252526" stroke-linecap="round" stroke-linejoin="round"/>
<path d="M31.1563 71.6453C30.1565 71.9844 26.3139 72.4799 24.7751 72.6799C25.9661 74.9576 27.2354 77.9744 27.418 78.2786C27.4788 78.3743 27.6179 78.5742 27.8266 78.8524C25.3141 78.0352 23.6188 81.391 23.6188 81.391C21.5497 78.8177 18.1243 74.5142 17.6375 73.8274C16.942 72.8537 15.5075 71.967 17.6375 69.098C19.7675 66.2291 32.7994 60.6651 32.7994 60.6651C32.7994 60.6651 35.3032 60.4738 35.5293 60.6651C35.764 60.8477 36.6421 60.9868 37.4332 63.8209C38.2243 66.6464 32.4082 71.2367 31.1563 71.654V71.6453Z" fill="#B5A8E4" stroke="#252526" stroke-linecap="round" stroke-linejoin="round"/>
<path d="M32.4782 88.9376C32.1044 89.1202 31.8261 88.19 31.7827 88.3291C31.7305 88.4682 31.5045 91.3458 30.5742 91.8066C29.644 92.2673 29.0441 91.9457 28.5834 91.8066C28.1226 91.6675 27.8879 90.3199 27.4706 89.9548C27.0533 89.5897 25.3841 88.7985 24.9668 88.2421C24.5495 87.6857 25.3841 83.5127 25.2015 83.3301C25.1493 83.278 24.5147 82.4868 23.6279 81.3914C23.6279 81.3914 25.3232 78.0356 27.8357 78.8529C28.6355 79.9309 30.3656 82.1739 31.5045 83.9822C32.9389 86.2512 32.852 88.7551 32.4782 88.9376Z" fill="#ECEDEB" stroke="#252526" stroke-linecap="round" stroke-linejoin="round"/>
<path d="M62.6532 61.1863C62.288 61.1689 61.9664 61.0211 61.7056 60.8038C61.0361 60.2822 60.6449 59.3519 60.358 58.9955C59.9668 58.4826 55.4895 57.2046 55.3939 58.2478C55.2983 59.2911 53.1335 60.5691 53.1335 60.5691C52.6032 60.7603 52.125 58.7086 52.1772 58.5782C52.2207 58.4391 50.7427 56.7264 49.8994 59.2302C49.7603 59.6562 49.6908 60.0388 49.6821 60.3865C49.2126 60.5082 48.4302 60.8125 47.9259 60.8473C47.6477 60.8647 47.4478 60.7951 47.4304 60.5691C47.3608 59.7345 48.2911 56.1092 49.9081 53.0577C51.5599 49.9366 56.4719 49.9279 59.7755 51.8405C64.0181 54.2922 63.0444 59.6997 63.1835 59.9344C63.9833 61.3776 63.9486 61.2559 62.6619 61.1863H62.6532Z" fill="#FAFAFA" stroke="#252526" stroke-linecap="round" stroke-linejoin="round"/>
<path d="M59.9149 62.9347C59.9758 63.4041 60.3322 64.9777 59.5932 64.9255C58.8456 64.8734 58.5761 65.5254 58.5761 65.5254C58.5761 65.5254 57.4111 69.0464 56.7156 69.0985C56.4026 69.1159 55.1681 68.9681 53.8988 68.2987C52.3339 67.4728 50.7343 65.8645 50.7343 62.7956C50.7343 62.7956 49.5867 62.0653 49.6736 60.3787C49.6823 60.0309 49.7519 59.6484 49.891 59.2224C50.7256 56.7186 52.2122 58.4313 52.1688 58.5704C52.1166 58.7095 52.6034 60.7525 53.1251 60.5613C53.1251 60.5613 55.2898 59.2833 55.3854 58.24C55.4811 57.1968 59.9497 58.4748 60.3496 58.9877C60.6278 59.3441 61.0277 60.2744 61.6971 60.796C61.0016 61.1785 59.8019 62.1522 59.9149 62.926V62.9347Z" fill="#ECEDEB" stroke="#252526" stroke-linecap="round" stroke-linejoin="round"/>
<path d="M53.8989 68.297C52.9947 68.8881 51.6385 69.8879 51.3429 70.7138C45.3007 70.9746 45.0051 64.3587 45.0573 62.42C46.3787 62.6199 47.4481 61.6376 47.9262 60.8377C48.4305 60.8116 49.2129 60.4987 49.6824 60.377C49.5954 62.0548 50.743 62.7938 50.743 62.7938C50.743 65.854 52.3427 67.4711 53.9075 68.297H53.8989Z" fill="#ECEDEB" stroke="#252526" stroke-linecap="round" stroke-linejoin="round"/>
</g>
<defs>
<clipPath id="clip0_2102_58769">
<rect width="256.083" height="160" fill="white" transform="translate(0.458008)"/>
</clipPath>
</defs>
</svg>
