<svg width="231" height="135" viewBox="0 0 231 135" fill="none" xmlns="http://www.w3.org/2000/svg">
<path d="M127.595 103.695L112.415 103.581C111.995 103.578 111.658 103.235 111.661 102.815L111.667 101.966C111.67 101.546 112.013 101.208 112.433 101.211L127.613 101.325L127.595 103.705L127.595 103.695Z" fill="#ECEDEB" stroke="#252526" stroke-linejoin="round"/>
<path d="M126.615 103.973H136.665C136.831 103.973 136.965 103.838 136.965 103.673V101.113C136.965 100.947 136.831 100.813 136.665 100.813H126.615C126.449 100.813 126.315 100.947 126.315 101.113V103.673C126.315 103.838 126.449 103.973 126.615 103.973Z" fill="#A0A0A0" stroke="#252526" stroke-linejoin="round"/>
<path d="M39.6943 55.541C18.1343 55.541 0.654297 73.021 0.654297 94.581C0.654297 116.141 18.1343 133.621 39.6943 133.621C61.2543 133.621 78.7343 116.141 78.7343 94.581C78.7343 73.021 61.2543 55.541 39.6943 55.541ZM39.6943 126.981C21.8043 126.981 7.30429 112.481 7.30429 94.591C7.30429 76.701 21.8043 62.201 39.6943 62.201C57.5843 62.201 72.0843 76.701 72.0843 94.591C72.0843 112.481 57.5843 126.981 39.6943 126.981Z" fill="#383838" stroke="#252526" stroke-linejoin="round"/>
<path d="M163.725 55.541C142.165 55.541 124.685 73.021 124.685 94.581C124.685 116.141 142.165 133.621 163.725 133.621C185.285 133.621 202.765 116.141 202.765 94.581C202.765 73.021 185.285 55.541 163.725 55.541ZM163.725 126.981C145.835 126.981 131.335 112.481 131.335 94.591C131.335 76.701 145.835 62.201 163.725 62.201C181.615 62.201 196.115 76.701 196.115 94.591C196.115 112.481 181.615 126.981 163.725 126.981Z" fill="#383838" stroke="#252526" stroke-linejoin="round"/>
<path d="M132.704 23.2312C135.524 23.2312 140.754 23.2312 143.364 22.8212C145.974 22.4112 149.484 22.0612 149.834 22.8212C150.184 23.5812 150.314 24.1312 148.254 25.8512C146.194 27.5712 144.124 28.3912 143.234 29.0812C142.344 29.7712 136.844 30.4112 133.294 28.9912C129.744 27.5712 126.584 25.5112 125.484 25.4412C124.384 25.3712 121.354 26.1612 120.324 26.1112C119.294 26.0612 119.014 24.8212 120.324 24.0612C121.634 23.3012 130.294 23.2412 132.704 23.2312Z" fill="#9C8BDC" stroke="#252526" stroke-linejoin="round"/>
<path d="M117.964 99.5116C117.964 99.5116 158.084 94.7916 159.424 94.5916C160.764 94.3916 161.544 95.2016 161.654 95.8016C161.764 96.4016 161.434 97.1816 160.094 97.6216C158.754 98.0716 118.634 104.082 118.634 104.082L117.964 99.5116Z" fill="#ECEDEB" stroke="#252526" stroke-linejoin="round"/>
<path d="M70.1444 31.3717C70.1444 31.3717 72.1244 26.0317 72.3444 25.2817C72.5644 24.5317 72.2944 24.3917 71.2444 23.9417C70.1944 23.4917 65.2844 21.8617 64.2444 21.4117C63.2044 20.9617 60.6744 20.0717 59.9344 20.0017C59.1944 19.9317 58.3744 19.9317 57.1844 20.0017C55.9944 20.0717 54.2444 20.2217 54.7844 21.7117C55.3244 23.2017 55.4944 23.9017 56.1644 23.6617C57.3844 23.2217 59.3944 23.1617 60.5144 23.5417C61.4044 23.8517 65.1344 25.2917 65.9544 25.6517C66.7744 26.0117 66.9244 26.0917 66.6244 26.7617C66.3244 27.4317 65.4244 29.9917 65.4244 29.9917L70.1444 31.3617V31.3717Z" fill="#7A7A79" stroke="#252526" stroke-linejoin="round"/>
<path d="M112.955 113.751C119.229 113.751 124.315 108.665 124.315 102.391C124.315 96.1173 119.229 91.0312 112.955 91.0312C106.681 91.0312 101.595 96.1173 101.595 102.391C101.595 108.665 106.681 113.751 112.955 113.751Z" fill="#ECEDEB" stroke="#252526" stroke-linejoin="round"/>
<path d="M164.435 93.5923C163.935 93.0223 134.215 60.9923 129.175 55.5623C133.015 42.5823 136.495 30.8823 136.495 30.8823C136.825 29.7723 136.955 29.7723 135.885 29.6523C135.075 29.5623 133.935 29.2123 133.095 28.9023C132.765 30.0123 127.895 46.1223 127.675 46.7923C127.455 47.4623 127.565 48.1323 126.335 47.6823C125.105 47.2323 70.7946 33.5323 69.9046 33.0823C69.9046 33.0823 70.0246 32.3123 70.1546 31.3623C70.1646 31.2823 64.8546 29.8323 64.4746 29.7323C64.0546 29.6223 62.8246 33.7623 62.0946 35.7523C60.1546 41.0223 58.0546 46.7423 55.9546 51.9523C53.5146 58.0023 51.0846 64.0423 48.6446 70.0923C46.5946 75.1623 44.5546 80.2323 42.4946 85.3023C41.5746 87.5823 40.7246 89.9123 39.7046 92.1523C38.7846 94.1623 38.2346 95.3823 38.9546 95.7723C39.5246 96.0823 40.1846 96.4623 41.1846 94.5823C42.1846 92.7023 62.5846 53.4723 63.0246 52.6923C63.4646 51.9123 64.3646 51.8023 65.1446 52.6923C65.9246 53.5823 96.7946 98.6123 97.6846 100.172C98.5746 101.732 102.625 107.092 102.625 107.092C102.625 107.092 100.885 103.502 101.925 99.7123C102.965 95.9223 104.975 94.3123 104.975 94.3123C104.975 94.3123 73.9546 48.6723 72.6146 46.6623C71.2746 44.6523 68.7146 41.7623 68.6046 40.2023C68.4946 38.6423 70.0246 37.7523 72.1046 38.1923C74.1746 38.6423 123.775 49.8923 124.885 50.3423C125.995 50.7923 126.335 50.9023 125.995 52.1223C125.665 53.3523 118.975 74.0823 118.755 74.7423C118.645 75.0723 118.645 75.2123 118.555 75.3623L113.475 91.0323C114.035 91.0623 114.545 91.1323 115.045 91.2023C116.565 91.4323 118.275 92.3323 118.275 92.3323C118.275 92.3323 122.295 78.7423 127.965 59.6323C133.175 64.9623 160.715 93.1323 162.095 94.5623C163.625 96.1423 164.095 95.8023 164.445 95.5623C164.795 95.3323 165.515 94.8023 164.445 93.5623L164.435 93.5923Z" fill="#ECEDEB" stroke="#252526" stroke-linejoin="round"/>
<path d="M39.6943 103.332C44.5268 103.332 48.4443 99.4145 48.4443 94.582C48.4443 89.7495 44.5268 85.832 39.6943 85.832C34.8618 85.832 30.9443 89.7495 30.9443 94.582C30.9443 99.4145 34.8618 103.332 39.6943 103.332Z" fill="#ECEDEB" stroke="#252526" stroke-linejoin="round"/>
<path d="M163.725 103.332C168.557 103.332 172.475 99.4145 172.475 94.582C172.475 89.7495 168.557 85.832 163.725 85.832C158.892 85.832 154.975 89.7495 154.975 94.582C154.975 99.4145 158.892 103.332 163.725 103.332Z" fill="#ECEDEB" stroke="#252526" stroke-linejoin="round"/>
<path d="M98.3067 101.33L113.486 101.216C113.906 101.213 114.249 101.551 114.252 101.971L114.258 102.821C114.262 103.241 113.924 103.583 113.504 103.586L98.3245 103.7L98.3066 101.32L98.3067 101.33Z" fill="#ECEDEB" stroke="#252526" stroke-linejoin="round"/>
<path d="M99.2943 100.822H89.2443C89.0787 100.822 88.9443 100.957 88.9443 101.122V103.682C88.9443 103.848 89.0787 103.982 89.2443 103.982H99.2943C99.46 103.982 99.5943 103.848 99.5943 103.682V101.122C99.5943 100.957 99.46 100.822 99.2943 100.822Z" fill="#A0A0A0" stroke="#252526" stroke-linejoin="round"/>
<path d="M172.604 13.6616C187.154 28.0016 187.324 51.4216 172.984 65.9616C158.654 80.5016 135.234 80.6716 120.684 66.3316C106.144 52.0016 105.974 28.5816 120.304 14.0416C134.644 -0.508357 158.064 -0.678357 172.604 13.6516V13.6616Z" fill="#DFE0E0" stroke="#252526" stroke-width="5" stroke-miterlimit="10"/>
<mask id="mask0_3526_62204" style="mask-type:luminance" maskUnits="userSpaceOnUse" x="110" y="3" width="75" height="74">
<path d="M173.474 13.6616C188.024 28.0016 188.194 51.4216 173.854 65.9616C159.524 80.5016 136.104 80.6716 121.554 66.3316C107.014 52.0016 106.844 28.5816 121.174 14.0416C135.514 -0.508357 158.934 -0.678357 173.474 13.6516V13.6616Z" fill="white"/>
</mask>
<g mask="url(#mask0_3526_62204)">
<path d="M185.825 56.9727C156.535 56.9727 132.795 80.7127 132.795 110.003C132.795 139.293 156.535 163.033 185.825 163.033C215.115 163.033 238.855 139.293 238.855 110.003C238.855 80.7127 215.115 56.9727 185.825 56.9727ZM185.825 154.003C161.525 154.003 141.825 134.303 141.825 110.003C141.825 85.7027 161.525 66.0027 185.825 66.0027C210.125 66.0027 229.825 85.7027 229.825 110.003C229.825 134.303 210.125 154.003 185.825 154.003Z" fill="#383838" stroke="#252526" stroke-linejoin="round"/>
<path d="M143.694 13.1023C147.524 13.1023 154.624 13.1023 158.174 12.5423C161.724 11.9823 166.484 11.5123 166.954 12.5423C167.424 13.5723 167.604 14.3123 164.804 16.6523C162.004 18.9923 159.194 20.1123 157.984 21.0423C156.774 21.9724 149.304 22.8423 144.494 20.9123C139.674 18.9823 135.384 16.1823 133.884 16.0923C132.384 16.0023 128.274 17.0723 126.874 17.0023C125.474 16.9323 125.104 15.2523 126.874 14.2223C128.644 13.1923 140.424 13.1123 143.694 13.1023Z" fill="#9C8BDC" stroke="#252526" stroke-linejoin="round"/>
<path d="M186.785 108.663C186.105 107.883 145.735 64.3827 138.895 57.0027C144.115 39.3727 148.835 23.4827 148.835 23.4827C149.285 21.9727 149.465 21.9827 148.005 21.8127C146.915 21.6827 145.365 21.2227 144.215 20.8027C143.765 22.3127 137.155 44.1927 136.845 45.1027C136.545 46.0127 136.695 46.9227 135.025 46.3127C133.355 45.7027 59.5952 27.0927 58.3852 26.4827C58.3852 26.4827 58.5552 25.4427 58.7252 24.1527C58.7352 24.0427 51.5252 22.0727 51.0152 21.9427C50.4452 21.7927 48.7752 27.4227 47.7852 30.1127C45.1552 37.2727 42.2952 45.0427 39.4452 52.1127C36.1352 60.3227 32.8252 68.5327 29.5152 76.7527C26.7352 83.6427 23.9552 90.5327 21.1652 97.4127C19.9152 100.503 18.7552 103.673 17.3652 106.713C16.1152 109.433 15.3652 111.103 16.3452 111.633C17.1252 112.053 18.0152 112.563 19.3752 110.013C20.7352 107.463 48.4352 54.1827 49.0452 53.1227C49.6552 52.0627 50.8652 51.9127 51.9252 53.1227C52.9852 54.3327 94.9152 115.483 96.1252 117.603C97.3352 119.723 102.825 127.003 102.825 127.003C102.825 127.003 100.465 122.123 101.875 116.983C103.285 111.843 106.015 109.653 106.015 109.653C106.015 109.653 63.8852 47.6627 62.0652 44.9427C60.2452 42.2227 56.7652 38.2827 56.6152 36.1627C56.4652 34.0427 58.5452 32.8327 61.3652 33.4427C64.1852 34.0527 131.545 49.3327 133.055 49.9427C134.565 50.5527 135.025 50.7027 134.565 52.3627C134.115 54.0327 125.025 82.1827 124.725 83.0927C124.575 83.5327 124.575 83.7327 124.445 83.9327L117.545 105.223C118.305 105.263 119.005 105.353 119.675 105.453C121.745 105.763 124.065 106.983 124.065 106.983C124.065 106.983 129.535 88.5327 137.225 62.5727C144.295 69.8127 181.705 108.073 183.575 110.013C185.645 112.163 186.285 111.693 186.765 111.373C187.245 111.053 188.215 110.333 186.765 108.663H186.785Z" fill="#ECEDEB" stroke="#252526" stroke-linejoin="round"/>
</g>
<path d="M174.918 65.0494L172.11 67.8984L196.32 91.7562L199.128 88.9071L174.918 65.0494Z" fill="#B4B4B4" stroke="#252526" stroke-miterlimit="10"/>
<path d="M186.132 73.917L181.141 78.9813C179.951 80.189 179.965 82.1327 181.173 83.3228L218.859 120.461C220.067 121.651 222.011 121.636 223.201 120.429L228.191 115.364C229.381 114.157 229.367 112.213 228.159 111.023L190.473 73.8852C189.266 72.6951 187.322 72.7094 186.132 73.917Z" fill="#C1B7E8" stroke="#252526" stroke-miterlimit="10"/>
<path d="M148.604 16.1016C148.604 16.1016 171.194 19.3416 172.274 40.3516" stroke="#FAFAFA" stroke-width="5" stroke-linecap="round" stroke-linejoin="round"/>
<path d="M174.024 12.2223C158.684 -2.89768 133.984 -2.71768 118.864 12.6323C103.754 27.9623 103.934 52.6623 119.264 67.7723C134.614 82.9023 159.304 82.7223 174.424 67.3823C189.544 52.0423 189.364 27.3423 174.024 12.2223ZM171.574 64.5723C158.014 78.3323 135.844 78.5023 122.074 64.9323C108.314 51.3623 108.154 29.2023 121.714 15.4323C135.284 1.66232 157.454 1.50232 171.214 15.0723C184.984 28.6423 185.144 50.8023 171.574 64.5723Z" fill="#B4B4B4" stroke="black" stroke-miterlimit="10"/>
</svg>
