<svg width="163" height="217" viewBox="0 0 163 217" fill="none" xmlns="http://www.w3.org/2000/svg">
<g clip-path="url(#clip0_3552_10796)">
<path d="M137.675 12.7109V204.081C137.675 210.891 132.145 216.411 125.345 216.411H48.9348C42.1248 216.411 36.6048 210.881 36.6048 204.081L36.6048 12.7109C36.6048 5.90086 42.1348 0.380859 48.9348 0.380859L125.345 0.380859C132.155 0.380859 137.675 5.91086 137.675 12.7109Z" fill="#252526" stroke="#252526" stroke-width="0.75" stroke-linecap="round" stroke-linejoin="round"/>
<path d="M125.345 4.36914H48.9247C44.3242 4.36914 40.5947 8.09861 40.5947 12.6991V204.079C40.5947 208.68 44.3242 212.409 48.9247 212.409H125.345C129.945 212.409 133.675 208.68 133.675 204.079V12.6991C133.675 8.09861 129.945 4.36914 125.345 4.36914Z" fill="#DAD4F2"/>
<path d="M87.1351 53.4902C66.7251 53.4902 50.1851 69.6302 50.1851 89.5402C50.1851 117.34 84.3151 152.02 87.1351 152.02C89.9551 152.02 124.085 117.34 124.085 89.5402C124.085 69.6302 107.545 53.4902 87.1351 53.4902ZM87.1351 112.03C75.7851 112.03 66.5751 102.83 66.5751 91.4702C66.5751 80.1102 75.7751 70.9102 87.1351 70.9102C98.4951 70.9102 107.695 80.1102 107.695 91.4702C107.695 102.83 98.4951 112.03 87.1351 112.03Z" fill="#6A51CA" stroke="#473687" stroke-linecap="round" stroke-linejoin="round"/>
<path d="M97.5351 170.601L95.7051 170.301C95.5251 169.721 95.2951 169.161 95.0151 168.631L96.1051 167.121C96.2151 166.961 96.2051 166.741 96.0651 166.601L93.4151 163.951C93.2751 163.811 93.0551 163.791 92.8951 163.911L91.3851 165.001C90.8551 164.721 90.2951 164.481 89.7151 164.311L89.4151 162.481C89.3851 162.291 89.2151 162.141 89.0251 162.141H85.2751C85.0751 162.141 84.9151 162.281 84.8851 162.481L84.5851 164.311C84.0051 164.491 83.4451 164.721 82.9151 165.001L81.4051 163.911C81.2451 163.801 81.0251 163.811 80.8851 163.951L78.2351 166.601C78.0951 166.741 78.0751 166.961 78.1951 167.121L79.2851 168.631C78.9951 169.161 78.7651 169.721 78.5951 170.301L76.7651 170.601C76.5751 170.631 76.4351 170.801 76.4351 170.991V174.741C76.4351 174.941 76.5751 175.101 76.7651 175.131L78.5951 175.431C78.7751 176.011 79.0051 176.571 79.2851 177.101L78.1951 178.601C78.0851 178.761 78.0951 178.981 78.2351 179.121L80.8851 181.771C81.0251 181.911 81.2451 181.931 81.4051 181.811L82.9051 180.731C83.4351 181.021 83.9951 181.251 84.5751 181.421L84.8751 183.251C84.9051 183.441 85.0751 183.581 85.2651 183.581H89.0151C89.2151 183.581 89.3751 183.441 89.4051 183.251L89.7051 181.421C90.2851 181.241 90.8551 181.011 91.3751 180.731L92.8751 181.811C93.0351 181.921 93.2551 181.911 93.3951 181.771L96.0451 179.121C96.1851 178.981 96.2051 178.761 96.0851 178.601L94.9951 177.101C95.2851 176.571 95.5151 176.011 95.6851 175.431L97.5151 175.131C97.7051 175.101 97.8451 174.931 97.8451 174.741V170.991C97.8451 170.791 97.7051 170.631 97.5151 170.601H97.5351ZM87.1451 177.641C84.5151 177.641 82.3751 175.511 82.3751 172.871C82.3751 170.231 84.5051 168.101 87.1451 168.101C89.7851 168.101 91.9151 170.231 91.9151 172.871C91.9151 175.511 89.7851 177.641 87.1451 177.641Z" fill="#B4B4B4" stroke="#7A7A79" stroke-miterlimit="10"/>
<path d="M111.805 40.8195C105.315 41.0695 99.9652 46.4795 99.7852 52.9695C99.6552 57.6795 102.135 61.8195 105.875 64.0595L104.555 65.7495C103.995 66.4595 104.635 67.4795 105.515 67.2895L112.285 65.8495C119.195 65.8495 124.805 60.2495 124.805 53.3295C124.805 46.4095 118.935 40.5495 111.795 40.8195H111.805Z" fill="#7A7A79" stroke="#3F3F3F" stroke-miterlimit="10"/>
<path d="M109.595 54.7897C109.715 54.3397 109.865 53.9697 110.075 53.6897C110.285 53.4097 110.555 53.1697 110.905 52.9697C111.425 52.6697 111.905 52.4197 112.335 52.2097C112.765 51.9997 113.145 51.7997 113.465 51.5997C113.785 51.3997 114.055 51.2097 114.255 51.0097C114.455 50.8197 114.595 50.5897 114.655 50.3397C114.785 49.8497 114.725 49.4197 114.495 49.0597C114.255 48.6997 113.905 48.4597 113.445 48.3397C112.745 48.1597 112.155 48.2097 111.685 48.5097C111.215 48.8097 110.885 49.2197 110.695 49.7697L107.295 48.6497C107.875 47.1097 108.775 46.0497 109.995 45.4797C111.215 44.9097 112.615 44.8297 114.185 45.2397C114.875 45.4197 115.495 45.6797 116.055 46.0297C116.615 46.3697 117.075 46.7897 117.445 47.2897C117.815 47.7897 118.055 48.3497 118.185 48.9697C118.315 49.5897 118.275 50.2697 118.095 50.9797C117.985 51.4097 117.835 51.7997 117.655 52.1197C117.475 52.4497 117.225 52.7597 116.925 53.0497C116.615 53.3397 116.245 53.6097 115.805 53.8697C115.365 54.1297 114.815 54.3997 114.165 54.6797C113.745 54.8597 113.445 55.0597 113.265 55.2897C113.075 55.5097 112.955 55.7497 112.885 56.0097L112.715 56.6597L109.345 55.7797L109.605 54.7897H109.595ZM108.095 59.0097C108.165 58.7297 108.295 58.4697 108.465 58.2397C108.635 58.0097 108.835 57.8297 109.075 57.6897C109.315 57.5497 109.575 57.4597 109.855 57.4197C110.135 57.3797 110.425 57.3997 110.705 57.4697C110.985 57.5397 111.245 57.6697 111.475 57.8397C111.705 58.0097 111.885 58.2097 112.025 58.4497C112.165 58.6897 112.255 58.9497 112.295 59.2297C112.335 59.5097 112.315 59.7997 112.245 60.0797C112.175 60.3597 112.045 60.6197 111.875 60.8497C111.705 61.0797 111.505 61.2597 111.265 61.3997C111.025 61.5397 110.775 61.6297 110.485 61.6697C110.195 61.7097 109.925 61.6897 109.635 61.6197C109.345 61.5497 109.095 61.4197 108.865 61.2497C108.635 61.0797 108.455 60.8797 108.315 60.6397C108.175 60.3997 108.085 60.1497 108.045 59.8597C108.005 59.5797 108.025 59.2897 108.095 59.0097Z" fill="#F0EEFA"/>
<path d="M71.7085 131.45H70.2185C69.8385 126.11 65.3885 121.9 59.9585 121.9C58.2185 121.9 56.5885 122.33 55.1485 123.09C52.4085 118.26 47.2185 115 41.2685 115C32.4585 115 25.3185 122.14 25.3185 130.95V131.44H24.3685C18.6385 131.44 13.9985 136.08 13.9985 141.81C13.9985 147.54 18.6385 152.18 24.3685 152.18H71.7085C77.4385 152.18 82.0785 147.54 82.0785 141.81C82.0785 136.08 77.4385 131.44 71.7085 131.44V131.45Z" fill="#F0EEFA" stroke="#6A51CA" stroke-linecap="round" stroke-linejoin="round"/>
<path d="M149.696 34.3498C149.349 34.3498 149.016 34.3869 148.691 34.4536C148.174 30.2559 144.614 27 140.294 27C135.973 27 132.318 30.3375 131.874 34.6168C131.372 34.4611 130.855 34.3498 130.301 34.3498C127.369 34.3498 124.999 36.7379 124.999 39.6749C124.999 42.6119 127.377 45 130.301 45H149.696V44.9852C152.62 44.9852 154.999 42.6045 154.999 39.6675C154.999 36.7305 152.628 34.3424 149.696 34.3424V34.3498Z" fill="#F0EEFA" stroke="#6A51CA" stroke-linecap="round" stroke-linejoin="round"/>
</g>
<defs>
<clipPath id="clip0_3552_10796">
<rect width="162.37" height="216.79" fill="white" transform="translate(0.314941)"/>
</clipPath>
</defs>
</svg>
