<svg width="193" height="150" viewBox="0 0 193 150" fill="none" xmlns="http://www.w3.org/2000/svg">
<mask id="mask0_931_125577" style="mask-type:luminance" maskUnits="userSpaceOnUse" x="0" y="0" width="193" height="150">
<path d="M192.116 0H0.882812V150H192.116V0Z" fill="white"/>
</mask>
<g mask="url(#mask0_931_125577)">
<path d="M48.8348 114.313C48.3161 113.157 43.3583 109.481 41.1648 108.837C40.8609 108.748 40.3496 108.711 39.7049 108.703C39.1713 108.703 38.5488 108.718 37.8596 108.762C33.2798 109.029 25.795 110.163 24.1572 110.637C21.9711 111.282 16.5538 118.241 12.1741 122.235C7.79437 126.229 -1.35783 125.585 -3.66997 125.718C-5.98952 125.844 -132.527 120.316 -132.527 120.316C-132.527 120.316 -143.68 146.253 -120.841 148.995C-109.621 150.344 3.8667 140.599 4.7634 141.503C5.6675 142.4 12.3668 143.37 15.7164 142.533C19.0661 141.696 27.4772 134.507 27.4772 134.507C28.7 134.737 31.7309 132.966 31.7309 132.966C31.8273 133.27 34.2876 134.5 35.5845 135.13C34.5618 136.241 33.591 137.872 34.7471 139.309C36.3182 141.273 39.401 138.635 40.6312 137.427C39.4158 137.123 36.6961 135.589 38.2672 132.803C38.8378 131.78 39.2899 131.017 39.6974 130.424C39.4751 128.86 39.6826 126.17 39.6826 126.17C38.5488 126.007 36.4219 124.547 34.9991 123.487C35.6142 123.273 36.2589 123.035 36.911 122.783C37.1259 122.702 37.3408 122.613 37.5558 122.531C38.0967 122.324 38.6377 122.102 39.1565 121.879C39.3343 121.805 39.5048 121.731 39.6752 121.65C40.357 121.346 41.0017 121.042 41.5724 120.731C42.0244 120.479 42.432 120.234 42.7803 119.99C42.9359 119.878 43.0841 119.775 43.2175 119.664C43.7066 119.263 44.0846 118.826 44.3736 118.367C47.2267 125.036 50.5171 122.739 51.2063 121.916C51.9177 121.079 49.3388 115.469 48.8274 114.313H48.8348ZM37.9856 114.55C37.4742 114.795 36.8962 115.039 36.2663 115.276V114.209C36.2663 113.224 36.9407 112.401 37.8596 112.179C38.0226 112.134 38.1931 112.112 38.3635 112.112H39.4899C39.5641 112.112 39.6308 112.112 39.7049 112.119C40.3718 112.194 40.9424 112.564 41.2685 113.112C40.4459 113.416 39.3862 113.883 37.9856 114.55Z" fill="#ECEDEB" stroke="#252526" stroke-linecap="round" stroke-linejoin="round"/>
<path d="M46.3828 130.938C46.0642 132.739 41.8771 137.533 40.973 137.489C40.8841 137.481 40.7655 137.467 40.6321 137.43C39.4168 137.126 36.6971 135.592 38.2681 132.805C38.8387 131.783 39.2908 131.019 39.6984 130.426C39.4761 128.863 39.6836 126.173 39.6836 126.173C38.5497 126.01 36.4229 124.55 35 123.49C35.6151 123.275 36.2598 123.038 36.912 122.786C37.1269 122.712 37.3418 122.623 37.5567 122.534C37.8012 122.638 38.068 122.697 38.357 122.697H39.4835C40.5951 122.697 41.5066 121.837 41.5733 120.733C42.0254 120.481 42.4329 120.237 42.7812 119.992C43.5297 120.429 44.3449 121.007 44.5746 121.593C45.0267 122.756 46.7015 129.137 46.3754 130.938H46.3828Z" fill="#ECEDEB" stroke="#252526" stroke-linecap="round" stroke-linejoin="round"/>
<path d="M41.2678 113.114C40.4453 113.418 39.3855 113.884 37.9849 114.551C37.4736 114.796 36.8955 115.041 36.2656 115.278V114.211C36.2656 113.225 36.94 112.402 37.8589 112.18C38.022 112.136 38.1924 112.113 38.3629 112.113H39.4893C39.5634 112.113 39.6301 112.113 39.7042 112.121C40.3712 112.195 40.9418 112.565 41.2678 113.114Z" fill="#A0A0A0" stroke="#252526" stroke-linecap="round" stroke-linejoin="round"/>
<path d="M41.5791 120.734C41.5124 121.839 40.6009 122.698 39.4893 122.698H38.3629C38.0738 122.698 37.8071 122.639 37.5625 122.535C38.1035 122.328 38.6445 122.105 39.1632 121.883C39.3411 121.809 39.5189 121.735 39.682 121.653C40.3637 121.349 41.0085 121.046 41.5791 120.734Z" fill="#A0A0A0" stroke="#252526" stroke-linecap="round" stroke-linejoin="round"/>
<path d="M37.5621 122.531H37.5547" stroke="#252526" stroke-linecap="round" stroke-linejoin="round"/>
<path d="M39.7046 -0.00390625H37.8594V112.113H39.7046V-0.00390625Z" fill="#252526" stroke="#252526" stroke-linecap="round" stroke-linejoin="round"/>
<path d="M19.6895 137.487C27.5077 134.908 30.2126 125.03 30.2126 125.03C30.2126 125.03 32.3766 124.407 35 123.488" stroke="#252526" stroke-linecap="round" stroke-linejoin="round"/>
<path d="M41.2676 113.113C43.7502 112.179 43.9947 112.638 44.4764 112.831C45.01 113.046 45.9215 115.958 44.3801 118.367" stroke="#252526" stroke-linecap="round" stroke-linejoin="round"/>
<path d="M18.2285 119.664C18.2285 119.664 29.9226 117.671 36.2662 115.277" stroke="#252526" stroke-linecap="round" stroke-linejoin="round"/>
<path d="M39.6973 130.425C40.5347 129.217 41.2016 128.684 42.454 128.039" stroke="#252526" stroke-linecap="round" stroke-linejoin="round"/>
<path d="M32.5527 127.992C32.5527 127.992 36.6583 131.216 37.2141 131.32C37.2141 131.32 36.9992 133.639 37.1103 133.765C37.1103 133.765 36.3322 134.306 35.5837 135.129" stroke="#252526" stroke-linecap="round" stroke-linejoin="round"/>
<path d="M115.605 13.2734H109.765C107.371 13.2734 105.43 15.2144 105.43 17.6087V28.9989C105.43 31.3932 107.371 33.3342 109.765 33.3342H115.605C117.999 33.3342 119.94 31.3932 119.94 28.9989V17.6087C119.94 15.2144 117.999 13.2734 115.605 13.2734Z" fill="#9C8BDC" stroke="#252526" stroke-linecap="round" stroke-linejoin="round"/>
<path d="M149.064 66.4514C149.064 66.4514 149.064 66.4588 149.064 66.4662C148.568 70.2086 132.472 73.21 112.685 73.21C92.8988 73.21 76.7953 70.2086 76.2988 66.4662C76.2988 66.4662 76.2988 66.4662 76.2988 66.4514C76.2988 66.318 76.2988 66.192 76.3062 66.0661C76.9213 62.3459 92.9729 59.3594 112.685 59.3594C132.398 59.3594 148.442 62.3459 149.057 66.0661C149.057 66.192 149.057 66.318 149.057 66.4514H149.064Z" fill="#F0EEFA" stroke="#252526" stroke-linecap="round" stroke-linejoin="round"/>
<path d="M76.2832 66.2887C76.2832 66.2146 76.2906 66.1405 76.3054 66.0664C76.298 66.1924 76.298 66.3184 76.298 66.4518C76.2832 66.3999 76.2832 66.3406 76.2832 66.2887Z" stroke="#252526" stroke-linecap="round" stroke-linejoin="round"/>
<path d="M149.079 66.2887C149.079 66.3406 149.079 66.3999 149.064 66.4518C149.064 66.3184 149.064 66.1924 149.064 66.0664C149.079 66.1405 149.087 66.2146 149.087 66.2887H149.079Z" stroke="#252526" stroke-linecap="round" stroke-linejoin="round"/>
<path opacity="0.8" d="M178.5 169.316H46.8633L87.096 56.5469H138.267L178.5 169.316Z" fill="url(#paint0_linear_931_125577)"/>
<path d="M112.686 70.1658C118.666 70.1658 123.513 65.3184 123.513 59.3388C123.513 53.3591 118.666 48.5117 112.686 48.5117C106.707 48.5117 101.859 53.3591 101.859 59.3388C101.859 65.3184 106.707 70.1658 112.686 70.1658Z" fill="#FAFAFA" stroke="#E9E9E9" stroke-miterlimit="10"/>
<path d="M149.058 66.0694C148.442 62.3492 132.391 59.3627 112.686 59.3627C92.9807 59.3627 76.9217 62.3492 76.3066 66.0694C76.8328 45.564 88.7047 28.549 104.482 24.1026C107.113 23.3615 109.862 22.9688 112.678 22.9688C115.494 22.9688 118.251 23.3615 120.882 24.1026C136.674 28.5564 148.531 45.564 149.058 66.0694Z" fill="#9C8BDC" stroke="#252526" stroke-linecap="round" stroke-linejoin="round"/>
<path d="M113.605 -0.0351562H111.76V12.8891H113.605V-0.0351562Z" fill="#252526" stroke="#252526" stroke-linecap="round" stroke-linejoin="round"/>
</g>
<defs>
<linearGradient id="paint0_linear_931_125577" x1="112.685" y1="169.316" x2="112.685" y2="56.5469" gradientUnits="userSpaceOnUse">
<stop stop-color="white" stop-opacity="0"/>
<stop offset="0.1" stop-color="#FEFEFE" stop-opacity="0.09"/>
<stop offset="0.32" stop-color="#FDFDFD" stop-opacity="0.33"/>
<stop offset="0.63" stop-color="#FBFBFB" stop-opacity="0.71"/>
<stop offset="0.86" stop-color="#FAFAFA"/>
</linearGradient>
</defs>
</svg>
