<svg width="121" height="150" viewBox="0 0 121 150" fill="none" xmlns="http://www.w3.org/2000/svg">
<g clip-path="url(#clip0_2102_59061)">
<path d="M71.375 51.6997V50.4297" stroke="#252526" stroke-linecap="round" stroke-linejoin="round"/>
<path d="M19.1143 51.6997V50.4297" stroke="#252526" stroke-linecap="round" stroke-linejoin="round"/>
<path d="M52.1545 0.5C23.7245 0.5 15.3145 22.69 15.3145 36.62V56.75H88.9944V36.62C88.9944 23.45 79.0445 0.5 52.1545 0.5ZM78.4845 50.43H25.8245V36.04C25.8245 26.09 31.8345 10.23 52.1545 10.23C71.3745 10.23 78.4845 26.63 78.4845 36.04V50.43Z" fill="#7A7A79" stroke="#252526" stroke-linecap="round" stroke-linejoin="round"/>
<path d="M103.585 52.4297V124.33C103.585 128.75 100.005 132.33 95.5846 132.33H8.72461C4.30461 132.33 0.724609 128.75 0.724609 124.33V52.4297C0.724609 51.3297 1.61461 50.4297 2.72461 50.4297H101.585C102.695 50.4297 103.585 51.3297 103.585 52.4297Z" fill="#B4B4B4" stroke="#252526" stroke-linecap="round" stroke-linejoin="round"/>
<path d="M24.9148 90.7789C25.4395 90.7789 25.8648 90.3536 25.8648 89.8289C25.8648 89.3042 25.4395 88.8789 24.9148 88.8789C24.3902 88.8789 23.9648 89.3042 23.9648 89.8289C23.9648 90.3536 24.3902 90.7789 24.9148 90.7789Z" fill="#252526" stroke="#252526" stroke-miterlimit="10"/>
<path d="M28.085 95.2784C25.945 96.5384 24.915 89.8184 24.915 89.8184C24.915 89.8184 30.245 94.0584 28.085 95.2784Z" fill="#252526" stroke="#252526" stroke-width="0.5" stroke-miterlimit="10"/>
<path d="M31.2243 89.7977C31.2443 92.2877 24.9043 89.8177 24.9043 89.8177C24.9043 89.8177 31.2343 87.3277 31.2243 89.7977Z" fill="#252526" stroke="#252526" stroke-width="0.5" stroke-miterlimit="10"/>
<path d="M28.055 84.3384C30.215 85.5584 24.915 89.8184 24.915 89.8184C24.915 89.8184 25.925 83.0884 28.055 84.3384Z" fill="#252526" stroke="#252526" stroke-width="0.5" stroke-miterlimit="10"/>
<path d="M21.735 84.3585C23.875 83.0985 24.905 89.8185 24.905 89.8185C24.905 89.8185 19.575 85.5785 21.735 84.3585Z" fill="#252526" stroke="#252526" stroke-width="0.5" stroke-miterlimit="10"/>
<path d="M18.5948 89.8384C18.5748 87.3484 24.9148 89.8184 24.9148 89.8184C24.9148 89.8184 18.5848 92.3084 18.5948 89.8384Z" fill="#252526" stroke="#252526" stroke-width="0.5" stroke-miterlimit="10"/>
<path d="M21.7646 95.2984C19.6046 94.0784 24.9046 89.8184 24.9046 89.8184C24.9046 89.8184 23.8946 96.5484 21.7646 95.2984Z" fill="#252526" stroke="#252526" stroke-width="0.5" stroke-miterlimit="10"/>
<path d="M43.365 90.7691C43.8897 90.7691 44.315 90.3438 44.315 89.8191C44.315 89.2945 43.8897 88.8691 43.365 88.8691C42.8404 88.8691 42.415 89.2945 42.415 89.8191C42.415 90.3438 42.8404 90.7691 43.365 90.7691Z" fill="#252526" stroke="#252526" stroke-miterlimit="10"/>
<path d="M46.5343 95.2686C44.3943 96.5286 43.3643 89.8086 43.3643 89.8086C43.3643 89.8086 48.6943 94.0486 46.5343 95.2686Z" fill="#252526" stroke="#252526" stroke-width="0.5" stroke-miterlimit="10"/>
<path d="M49.6843 89.7879C49.7043 92.2779 43.3643 89.8079 43.3643 89.8079C43.3643 89.8079 49.6943 87.3179 49.6843 89.7879Z" fill="#252526" stroke="#252526" stroke-width="0.5" stroke-miterlimit="10"/>
<path d="M46.515 84.3286C48.675 85.5486 43.375 89.8086 43.375 89.8086C43.375 89.8086 44.385 83.0786 46.515 84.3286Z" fill="#252526" stroke="#252526" stroke-width="0.5" stroke-miterlimit="10"/>
<path d="M40.1949 84.3488C42.3349 83.0888 43.3649 89.8088 43.3649 89.8088C43.3649 89.8088 38.0349 85.5688 40.1949 84.3488Z" fill="#252526" stroke="#252526" stroke-width="0.5" stroke-miterlimit="10"/>
<path d="M37.0547 89.8287C37.0347 87.3387 43.3747 89.8087 43.3747 89.8087C43.3747 89.8087 37.0447 92.2987 37.0547 89.8287Z" fill="#252526" stroke="#252526" stroke-width="0.5" stroke-miterlimit="10"/>
<path d="M40.2245 95.2886C38.0645 94.0686 43.3645 89.8086 43.3645 89.8086C43.3645 89.8086 42.3545 96.5386 40.2245 95.2886Z" fill="#252526" stroke="#252526" stroke-width="0.5" stroke-miterlimit="10"/>
<path d="M61.825 90.7594C62.3497 90.7594 62.775 90.334 62.775 89.8094C62.775 89.2847 62.3497 88.8594 61.825 88.8594C61.3003 88.8594 60.875 89.2847 60.875 89.8094C60.875 90.334 61.3003 90.7594 61.825 90.7594Z" fill="#252526" stroke="#252526" stroke-miterlimit="10"/>
<path d="M64.9952 95.2588C62.8552 96.5188 61.8252 89.7988 61.8252 89.7988C61.8252 89.7988 67.1552 94.0388 64.9952 95.2588Z" fill="#252526" stroke="#252526" stroke-width="0.5" stroke-miterlimit="10"/>
<path d="M68.1345 89.7782C68.1545 92.2682 61.8145 89.7982 61.8145 89.7982C61.8145 89.7982 68.1445 87.3082 68.1345 89.7782Z" fill="#252526" stroke="#252526" stroke-width="0.5" stroke-miterlimit="10"/>
<path d="M64.9652 84.3189C67.1252 85.5389 61.8252 89.7989 61.8252 89.7989C61.8252 89.7989 62.8352 83.0689 64.9652 84.3189Z" fill="#252526" stroke="#252526" stroke-width="0.5" stroke-miterlimit="10"/>
<path d="M58.6549 84.339C60.7949 83.079 61.8249 89.799 61.8249 89.799C61.8249 89.799 56.4949 85.559 58.6549 84.339Z" fill="#252526" stroke="#252526" stroke-width="0.5" stroke-miterlimit="10"/>
<path d="M55.5049 89.8189C55.4849 87.3289 61.8249 89.7989 61.8249 89.7989C61.8249 89.7989 55.4949 92.2889 55.5049 89.8189Z" fill="#252526" stroke="#252526" stroke-width="0.5" stroke-miterlimit="10"/>
<path d="M58.6747 95.2788C56.5147 94.0588 61.8147 89.7988 61.8147 89.7988C61.8147 89.7988 60.8047 96.5288 58.6747 95.2788Z" fill="#252526" stroke="#252526" stroke-width="0.5" stroke-miterlimit="10"/>
<path d="M80.2752 90.7887C80.7999 90.7887 81.2252 90.3633 81.2252 89.8387C81.2252 89.314 80.7999 88.8887 80.2752 88.8887C79.7505 88.8887 79.3252 89.314 79.3252 89.8387C79.3252 90.3633 79.7505 90.7887 80.2752 90.7887Z" fill="#252526" stroke="#252526" stroke-miterlimit="10"/>
<path d="M83.4444 95.2881C81.3044 96.5481 80.2744 89.8281 80.2744 89.8281C80.2744 89.8281 85.6044 94.0681 83.4444 95.2881Z" fill="#252526" stroke="#252526" stroke-width="0.5" stroke-miterlimit="10"/>
<path d="M86.5944 89.8075C86.6144 92.2975 80.2744 89.8275 80.2744 89.8275C80.2744 89.8275 86.6044 87.3375 86.5944 89.8075Z" fill="#252526" stroke="#252526" stroke-width="0.5" stroke-miterlimit="10"/>
<path d="M83.4252 84.3482C85.5852 85.5682 80.2852 89.8282 80.2852 89.8282C80.2852 89.8282 81.2952 83.0982 83.4252 84.3482Z" fill="#252526" stroke="#252526" stroke-width="0.5" stroke-miterlimit="10"/>
<path d="M77.1051 84.3683C79.2451 83.1083 80.2751 89.8283 80.2751 89.8283C80.2751 89.8283 74.9451 85.5883 77.1051 84.3683Z" fill="#252526" stroke="#252526" stroke-width="0.5" stroke-miterlimit="10"/>
<path d="M73.9649 89.8482C73.9449 87.3582 80.2849 89.8282 80.2849 89.8282C80.2849 89.8282 73.9549 92.3182 73.9649 89.8482Z" fill="#252526" stroke="#252526" stroke-width="0.5" stroke-miterlimit="10"/>
<path d="M77.1347 95.3081C74.9747 94.0881 80.2747 89.8281 80.2747 89.8281C80.2747 89.8281 79.2647 96.5581 77.1347 95.3081Z" fill="#252526" stroke="#252526" stroke-width="0.5" stroke-miterlimit="10"/>
<path d="M97.7744 149.211C110.201 149.211 120.274 139.137 120.274 126.711C120.274 114.285 110.201 104.211 97.7744 104.211C85.348 104.211 75.2744 114.285 75.2744 126.711C75.2744 139.137 85.348 149.211 97.7744 149.211Z" fill="#6A51CA" stroke="#252526" stroke-linecap="round" stroke-linejoin="round"/>
<path d="M104.225 121.149C104.225 123.889 102.505 126.239 100.095 127.169C100.095 127.169 100.085 127.169 100.075 127.169C99.965 127.209 99.865 127.239 99.775 127.279C99.235 127.489 98.995 127.789 98.995 128.919V131.949C98.995 132.619 98.445 133.169 97.775 133.169C97.105 133.169 96.555 132.619 96.555 131.949V127.409C96.555 126.309 96.765 125.579 98.985 124.909C100.615 124.389 101.805 122.869 101.805 121.059C101.805 118.829 99.995 117.029 97.775 117.029C95.625 117.029 93.865 118.709 93.745 120.829C93.745 120.909 93.745 120.979 93.745 121.059C93.745 121.119 93.745 121.169 93.745 121.229C93.715 121.869 93.185 122.379 92.535 122.379C91.925 122.379 91.415 121.929 91.335 121.339C91.335 121.279 91.335 121.209 91.335 121.139C91.335 119.099 92.285 117.289 93.755 116.109C94.855 115.229 96.255 114.699 97.785 114.699C101.345 114.699 104.235 117.579 104.235 121.139L104.225 121.149Z" fill="#FAFAFA" stroke="#FAFAFA" stroke-miterlimit="10"/>
<path d="M97.7753 138.709C98.6479 138.709 99.3553 138.001 99.3553 137.129C99.3553 136.256 98.6479 135.549 97.7753 135.549C96.9027 135.549 96.1953 136.256 96.1953 137.129C96.1953 138.001 96.9027 138.709 97.7753 138.709Z" fill="#FAFAFA" stroke="#FAFAFA" stroke-miterlimit="10"/>
</g>
<defs>
<clipPath id="clip0_2102_59061">
<rect width="120.55" height="149.71" fill="white" transform="translate(0.224609)"/>
</clipPath>
</defs>
</svg>
