<svg width="215" height="185" viewBox="0 0 215 185" fill="none" xmlns="http://www.w3.org/2000/svg">
<g clip-path="url(#clip0_3034_63327)">
<path d="M104.094 184.92C141.197 184.92 171.274 181.123 171.274 176.44C171.274 171.757 141.197 167.96 104.094 167.96C66.9916 167.96 36.9141 171.757 36.9141 176.44C36.9141 181.123 66.9916 184.92 104.094 184.92Z" fill="#CDC5ED"/>
<path d="M142.116 31.5998L134.986 35.6098L140.396 48.0098L125.716 55.5498C134.936 60.2398 140.756 70.2698 139.556 81.1598C138.466 91.1098 131.806 99.0898 123.026 102.35L112.836 115.91L123.566 157C141.846 140.06 166.496 111.29 169.436 84.4598C171.846 62.4998 160.476 42.1398 142.116 31.5898V31.5998Z" fill="#6A51CA"/>
<path d="M115.575 105.11C112.125 106.85 108.225 107.83 104.095 107.83C89.9651 107.83 78.5051 96.37 78.5051 82.24C78.5051 68.11 89.9651 56.65 104.095 56.65C107.275 56.65 110.325 57.24 113.135 58.3L126.905 49.21L120.175 37.47L126.825 32.71C119.885 29.68 112.205 27.98 104.105 27.98C73.3651 27.98 48.4551 52.29 48.4551 82.28C48.4551 124.15 99.8751 176.39 104.105 176.39C105.615 176.39 113.085 169.78 122.085 159.39L106.935 119.72L115.585 105.13L115.575 105.11Z" fill="#6A51CA"/>
<path d="M145.155 1.5L136.635 21.55" stroke="#6A51CA" stroke-width="3" stroke-miterlimit="10" stroke-linecap="round"/>
<path d="M163.565 16.3599L148.045 27.9599" stroke="#6A51CA" stroke-width="3" stroke-miterlimit="10" stroke-linecap="round"/>
<path d="M118.914 1.66992L124.114 20.5199" stroke="#6A51CA" stroke-width="3" stroke-miterlimit="10" stroke-linecap="round"/>
<path d="M20.745 83.7699C20.915 80.9499 22.725 75.6099 28.905 75.6099C36.105 75.6099 38.385 81.7799 38.335 85.8299C39.435 84.8399 42.195 84.4599 44.255 85.9699C46.935 87.9399 46.775 93.0299 43.925 93.2799C41.075 93.5299 6.46499 93.2799 5.81499 93.2799C5.16499 93.2799 4.40499 89.9499 7.20499 88.2099C9.13499 87.0099 11.125 87.7899 12.415 88.5099C12.005 87.1699 12.375 84.6499 14.465 83.2299C17.045 81.4799 19.755 83.0099 20.755 83.7599L20.745 83.7699Z" fill="#CECFCF" stroke="#7A7A79" stroke-linecap="round" stroke-linejoin="round"/>
<path d="M183.525 87.74C182.835 87.74 182.145 87.79 181.485 87.88C181.575 87.27 181.625 86.65 181.625 86.02C181.625 78.7 175.185 72.77 167.245 72.77C159.305 72.77 152.865 78.7 152.865 86.02C152.865 86.04 152.865 86.05 152.865 86.07C152.535 86.04 152.205 86.02 151.875 86.02C146.355 86.02 141.875 90.15 141.875 95.23C141.875 98.89 143.825 99.77 145.755 99.77C150.125 99.77 179.425 99.77 191.995 99.77C193.745 99.77 195.035 98.17 194.725 96.44C193.745 91.05 190.185 87.73 183.525 87.73V87.74Z" fill="#CECFCF" stroke="#8E8E8E" stroke-linecap="round" stroke-linejoin="round"/>
<path d="M157.844 124.73H180.544" stroke="#836ED3" stroke-linecap="round" stroke-linejoin="round"/>
<path d="M174.004 120.98C174.004 118.98 176.924 111.91 184.614 111.91C193.784 111.91 195.364 122.05 195.364 122.05C195.364 122.05 198.344 119.24 202.724 120.21C205.864 120.91 207.934 123.4 208.584 125.19C210.154 129.5 207.444 129.92 205.454 129.92H197.174" stroke="#836ED3" stroke-linecap="round" stroke-linejoin="round"/>
<path d="M184.064 132.64L189.504 127.2" stroke="#836ED3" stroke-linecap="round" stroke-linejoin="round"/>
<path d="M184.064 127.2L189.504 132.64" stroke="#836ED3" stroke-linecap="round" stroke-linejoin="round"/>
<path d="M32.6445 65.6597H41.6545" stroke="#9C8BDC" stroke-linecap="round" stroke-linejoin="round"/>
<path d="M37.1543 61.1499V70.1599" stroke="#9C8BDC" stroke-linecap="round" stroke-linejoin="round"/>
<path d="M210.134 112.29C212.233 112.29 213.934 110.589 213.934 108.49C213.934 106.391 212.233 104.69 210.134 104.69C208.035 104.69 206.334 106.391 206.334 108.49C206.334 110.589 208.035 112.29 210.134 112.29Z" stroke="#9C8BDC" stroke-linecap="round" stroke-linejoin="round"/>
<path d="M75.154 101.99C68.164 101.99 63.674 106.83 61.094 112.35C63.124 98.3802 54.784 89.4902 42.604 89.4902C31.184 89.4902 25.124 100.11 24.784 107.49C24.614 111.08 25.254 114.49 25.794 115.76C22.944 113.53 19.104 112.23 16.024 113.4C12.444 114.76 8.53398 118.39 10.064 124.98C5.49398 123.4 1.08398 125.25 1.08398 130.46C1.08398 131.44 2.26398 132.72 4.37398 132.67C14.594 132.41 37.624 132.29 41.984 132.29C49.744 132.29 70.424 132.67 77.074 132.67C86.084 132.67 91.264 125.81 91.264 117.84C91.264 110.96 85.234 102 75.164 102L75.154 101.99Z" fill="#DAD4F2" stroke="#C1B7E8" stroke-linecap="round" stroke-linejoin="round"/>
</g>
<defs>
<clipPath id="clip0_3034_63327">
<rect width="213.85" height="184.92" fill="white" transform="translate(0.574219)"/>
</clipPath>
</defs>
</svg>
