<svg width="230" height="150" viewBox="0 0 230 150" fill="none" xmlns="http://www.w3.org/2000/svg">
<g clip-path="url(#clip0_2097_50874)">
<path d="M160.582 21.375H158.542C158.021 14.4421 151.948 8.96341 144.53 8.96341C142.152 8.96341 139.92 9.53049 137.954 10.5183C134.213 4.2439 127.125 0 118.994 0C106.957 0 97.1979 9.28354 97.1979 20.7256V21.3659H95.8991C88.079 21.3659 81.7314 27.4024 81.7314 34.8384C81.7314 42.2835 88.0699 48.311 95.8991 48.311H160.573C168.393 48.311 174.741 42.2744 174.741 34.8384C174.741 27.3933 168.402 21.3659 160.573 21.3659L160.582 21.375Z" fill="#F4F4F4"/>
<path d="M58.9388 50.0399H57.576C57.2284 45.1557 53.1583 41.3051 48.1919 41.3051C46.6004 41.3051 45.1095 41.6984 43.7925 42.3935C41.2864 37.9758 36.5394 34.9941 31.0973 34.9941C23.0394 34.9941 16.5089 41.5246 16.5089 49.5826V50.0307H15.64C10.3992 50.0307 6.15527 54.2746 6.15527 59.5155C6.15527 64.7563 10.3992 69.0002 15.64 69.0002H58.9388C64.1797 69.0002 68.4236 64.7563 68.4236 59.5155C68.4236 54.2746 64.1797 50.0307 58.9388 50.0307V50.0399Z" fill="#F4F4F4"/>
<path d="M183.622 62.6984C175.875 68.488 178.336 69.6222 181.857 83.1496C182.927 87.2655 172.509 86.6892 175.189 98.0124C178.162 110.579 194.918 108.522 203.461 106.592C207.65 105.65 211.208 102.75 212.717 98.735C214.08 95.1313 214.564 90.7502 208.665 87.4667C201.851 83.6618 202.61 81.8783 204.174 79.674C205.4 77.9545 209.205 74.1313 208.793 70.2624C208.327 65.8722 205.5 64.8844 202.427 63.6953C195.22 60.924 199.107 55.4362 199.107 52.0155C199.107 36.2838 181.766 42.238 185.177 55.0246C185.635 56.7533 185.159 61.1161 183.622 62.6892" fill="#D4D4D4"/>
<path d="M183.622 62.6984C175.875 68.488 178.336 69.6222 181.857 83.1496C182.927 87.2655 172.509 86.6892 175.189 98.0124C178.162 110.579 194.918 108.522 203.461 106.592C207.65 105.65 211.208 102.75 212.717 98.735C214.08 95.1313 214.564 90.7502 208.665 87.4667C201.851 83.6618 202.61 81.8783 204.174 79.674C205.4 77.9545 209.205 74.1313 208.793 70.2624C208.327 65.8722 205.5 64.8844 202.427 63.6953C195.22 60.924 199.107 55.4362 199.107 52.0155C199.107 36.2838 181.766 42.238 185.177 55.0246C185.635 56.7533 185.159 61.1161 183.622 62.6892" stroke="#171617" stroke-linecap="round" stroke-linejoin="round"/>
<path d="M192.787 71.1313V149.214" stroke="#171617" stroke-linecap="round" stroke-linejoin="round"/>
<path d="M200.882 85.4453C200.882 85.4453 200.058 86.6801 198.897 88.4179C197.031 91.2167 194.324 95.3417 192.787 97.8295" stroke="#171617" stroke-linecap="round" stroke-linejoin="round"/>
<path d="M184.866 89.2046L187.409 91.9211L192.43 97.2808" stroke="#171617" stroke-linecap="round" stroke-linejoin="round"/>
<path d="M198.906 76.0337L196.683 77.4788L192.787 79.9941" stroke="#171617" stroke-linecap="round" stroke-linejoin="round"/>
<path d="M192.787 79.8479L190.153 75.3205L188.644 72.7412" stroke="#171617" stroke-linecap="round" stroke-linejoin="round"/>
<path d="M0.457031 148.747H183.137" stroke="#171617" stroke-linecap="round" stroke-linejoin="round"/>
<path d="M196.207 148.747H229.17" stroke="#171617" stroke-linecap="round" stroke-linejoin="round"/>
<path d="M113.104 145.207C113.579 145.015 115.235 145.189 116.168 145.162C117.951 145.107 118.409 144.631 118.464 145.345C118.546 146.341 118.656 148.692 118.464 149.113C118.272 149.534 116.104 149.36 113.488 149.442C111.384 149.506 107.195 149.826 106.647 148.774C106.098 147.723 108.622 146.927 109.537 146.726C111.293 146.341 113.104 145.198 113.104 145.198V145.207Z" fill="#ECEDEB" stroke="#252526" stroke-linecap="round" stroke-linejoin="round"/>
<path d="M118.043 144.96C118.015 144.384 117.951 143.771 117.851 143.204L113.872 143.433C113.817 144 113.836 144.567 113.918 145.125C113.918 145.125 115.034 145.235 116.159 145.207C117.284 145.18 118.043 144.96 118.043 144.96Z" fill="#ECEDEB" stroke="#252526" stroke-linecap="round" stroke-linejoin="round"/>
<path d="M97.4452 123.604C97.8476 123.283 99.4757 122.954 100.354 122.652C102.046 122.076 102.329 121.482 102.604 122.149C102.979 123.073 103.774 125.286 103.72 125.753C103.665 126.219 101.534 126.686 99.0641 127.536C97.0793 128.222 93.1556 129.759 92.3324 128.918C91.5092 128.076 93.6678 126.567 94.4909 126.11C96.0641 125.222 97.4543 123.604 97.4543 123.604H97.4452Z" fill="#ECEDEB" stroke="#252526" stroke-linecap="round" stroke-linejoin="round"/>
<path d="M95.4883 129.725L104.113 129.66C104.47 129.657 104.765 129.948 104.767 130.304L104.768 130.396C104.771 130.753 104.48 131.047 104.123 131.05L95.4987 131.115L95.4883 129.734L95.4883 129.725Z" fill="#D7D8D6" stroke="#252526" stroke-linejoin="round"/>
<path d="M95.7709 129.439H90.5026C90.245 129.439 90.0361 129.648 90.0361 129.905V130.811C90.0361 131.069 90.245 131.277 90.5026 131.277H95.7709C96.0285 131.277 96.2374 131.069 96.2374 130.811V129.905C96.2374 129.648 96.0285 129.439 95.7709 129.439Z" fill="#A0A0A0" stroke="#252526" stroke-linejoin="round"/>
<path d="M61.3719 103.088C48.8231 103.088 38.6523 113.259 38.6523 125.808C38.6523 138.357 48.8231 148.527 61.3719 148.527C73.9206 148.527 84.0914 138.357 84.0914 125.808C84.0914 113.259 73.9206 103.088 61.3719 103.088ZM61.3719 144.668C50.9633 144.668 42.5212 136.226 42.5212 125.817C42.5212 115.408 50.9633 106.966 61.3719 106.966C71.7804 106.966 80.2225 115.408 80.2225 125.817C80.2225 136.226 71.7804 144.668 61.3719 144.668Z" fill="#383838" stroke="#252526" stroke-linejoin="round"/>
<path d="M133.554 103.088C121.006 103.088 110.835 113.259 110.835 125.808C110.835 138.357 121.006 148.527 133.554 148.527C146.103 148.527 156.274 138.357 156.274 125.808C156.274 113.259 146.103 103.088 133.554 103.088ZM133.554 144.668C123.146 144.668 114.704 136.226 114.704 125.817C114.704 115.408 123.146 106.966 133.554 106.966C143.963 106.966 152.405 115.408 152.405 125.817C152.405 136.226 143.963 144.668 133.554 144.668Z" fill="#383838" stroke="#252526" stroke-linejoin="round"/>
<path d="M115.5 84.2836C117.137 84.2836 120.183 84.2836 121.701 84.0458C123.22 83.808 125.268 83.6068 125.46 84.0458C125.652 84.4848 125.744 84.805 124.537 85.8111C123.329 86.8172 122.131 87.2928 121.619 87.6952C121.107 88.0976 117.896 88.4635 115.838 87.6403C113.771 86.8172 111.933 85.6098 111.293 85.5733C110.652 85.5367 108.887 85.994 108.293 85.9665C107.698 85.9391 107.534 85.2165 108.293 84.7775C109.052 84.3385 114.101 84.3019 115.5 84.2928V84.2836Z" fill="#806EAF" stroke="#252526" stroke-linejoin="round"/>
<path d="M106.921 128.67C106.921 128.67 130.272 125.927 131.049 125.808C131.826 125.689 132.284 126.164 132.348 126.512C132.412 126.86 132.22 127.308 131.442 127.573C130.665 127.838 107.314 131.332 107.314 131.332L106.921 128.67Z" fill="#ECEDEB" stroke="#252526" stroke-linejoin="round"/>
<path d="M79.0972 89.0123C79.0972 89.0123 80.2496 85.9026 80.3777 85.4727C80.5057 85.0428 80.3502 84.9514 79.7374 84.6953C79.1246 84.4392 76.271 83.4879 75.6673 83.2227C75.0636 82.9575 73.5911 82.4453 73.1612 82.3995C72.7313 82.3538 72.2557 82.3538 71.5606 82.3995C70.8655 82.4453 69.8502 82.5276 70.1612 83.3965C70.4722 84.2654 70.5728 84.677 70.9661 84.5306C71.6795 84.2745 72.8502 84.2379 73.4996 84.4575C74.021 84.6312 76.1886 85.4727 76.6642 85.6831C77.1399 85.8934 77.2222 85.9392 77.0575 86.3325C76.8929 86.7258 76.3624 88.2166 76.3624 88.2166L79.1063 89.0123H79.0972Z" fill="#7A7A79" stroke="#252526" stroke-linejoin="round"/>
<path d="M104.012 136.966C107.664 136.966 110.625 134.006 110.625 130.354C110.625 126.701 107.664 123.741 104.012 123.741C100.36 123.741 97.3994 126.701 97.3994 130.354C97.3994 134.006 100.36 136.966 104.012 136.966Z" fill="#ECEDEB" stroke="#252526" stroke-linejoin="round"/>
<path d="M133.966 125.231C133.673 124.893 116.377 106.262 113.441 103.097C115.682 95.5424 117.704 88.7375 117.704 88.7375C117.896 88.0881 117.969 88.0973 117.347 88.0241C116.881 87.9692 116.213 87.768 115.728 87.5942C115.536 88.2436 112.701 97.6186 112.573 98.0028C112.445 98.3961 112.509 98.7802 111.795 98.5241C111.082 98.268 79.472 90.2833 78.9506 90.0272C78.9506 90.0272 79.0238 89.579 79.097 89.0302C79.097 88.9845 76.0147 88.143 75.7952 88.079C75.5482 88.015 74.8348 90.4296 74.4141 91.582C73.2891 94.6461 72.0634 97.9753 70.8378 101.012C69.4202 104.533 68.0025 108.055 66.5848 111.567C65.3958 114.521 64.1976 117.466 63.0086 120.42C62.4689 121.747 61.975 123.1 61.3805 124.408C60.85 125.579 60.5208 126.292 60.9415 126.512C61.2708 126.695 61.6549 126.914 62.2403 125.817C62.8256 124.728 74.6976 101.89 74.9537 101.442C75.2098 100.994 75.7311 100.92 76.1885 101.442C76.6458 101.963 94.6092 128.167 95.1305 129.073C95.6519 129.978 98.0025 133.106 98.0025 133.106C98.0025 133.106 96.9872 131.021 97.5909 128.817C98.1945 126.613 99.3653 125.68 99.3653 125.68C99.3653 125.68 81.3104 99.1186 80.533 97.9479C79.7555 96.7772 78.2647 95.0942 78.2006 94.1888C78.1366 93.2833 79.033 92.7619 80.2403 93.018C81.4476 93.2741 110.313 99.832 110.963 100.088C111.612 100.344 111.804 100.408 111.612 101.122C111.42 101.835 107.524 113.899 107.396 114.292C107.332 114.484 107.332 114.567 107.277 114.649L104.323 123.768C104.652 123.786 104.945 123.823 105.237 123.869C106.124 123.997 107.121 124.527 107.121 124.527C107.121 124.527 109.463 116.625 112.756 105.494C115.783 108.594 131.816 124.984 132.621 125.817C133.509 126.741 133.783 126.539 133.984 126.402C134.185 126.265 134.606 125.954 133.984 125.241L133.966 125.231Z" fill="#ECEDEB" stroke="#252526" stroke-linejoin="round"/>
<path d="M61.3719 130.902C64.1855 130.902 66.4664 128.622 66.4664 125.808C66.4664 122.994 64.1855 120.713 61.3719 120.713C58.5582 120.713 56.2773 122.994 56.2773 125.808C56.2773 128.622 58.5582 130.902 61.3719 130.902Z" fill="#ECEDEB" stroke="#252526" stroke-linejoin="round"/>
<path d="M133.554 130.902C136.368 130.902 138.649 128.622 138.649 125.808C138.649 122.994 136.368 120.713 133.554 120.713C130.741 120.713 128.46 122.994 128.46 125.808C128.46 128.622 130.741 130.902 133.554 130.902Z" fill="#ECEDEB" stroke="#252526" stroke-linejoin="round"/>
<path d="M112.534 131.11L103.909 131.045C103.553 131.042 103.262 130.748 103.265 130.391L103.266 130.299C103.268 129.943 103.563 129.652 103.92 129.655L112.545 129.72L112.534 131.101L112.534 131.11Z" fill="#ECEDEB" stroke="#252526" stroke-linejoin="round"/>
<path d="M112.253 131.268H117.521C117.778 131.268 117.987 131.059 117.987 130.802V129.896C117.987 129.638 117.778 129.43 117.521 129.43H112.253C111.995 129.43 111.786 129.638 111.786 129.896V130.802C111.786 131.059 111.995 131.268 112.253 131.268Z" fill="#5F6060" stroke="#252526" stroke-linejoin="round"/>
<path d="M133.189 62.7165C133.088 60.0366 132.969 55.6006 131.671 51.5305C130.719 48.5305 129.576 46.7195 128.232 46.1616C126.338 45.3842 122.341 44.3415 120.036 44.3506L114.283 45.9878C114.283 45.9878 109.985 46.2439 105.219 50.9086C100.463 55.5732 97.7285 68.0122 97.3078 68.4055C96.3932 69.2378 89.2865 73.1067 86.2316 74.808C84.6493 75.6952 79.7194 78.7409 79.198 79.125C78.9145 79.3354 78.6858 79.6921 79.6279 80.5702C81.6127 82.4177 82.0151 83.9086 82.9023 83.5793C83.5243 83.3506 93.9968 78.4208 95.9907 77.2317C97.9938 76.0427 102.485 73.5549 103.628 72.0458C104.003 71.5519 105.027 70.1525 105.027 70.1525L105.924 70.1799C105.915 70.6098 105.905 70.7927 106.71 71.0854C106.637 72.7592 106.472 76.2348 106.454 77.0214C106.427 78.0641 106.372 78.5763 107.707 79.1799C109.573 80.0305 117.485 82.7927 119.561 83.2775C121.582 83.7531 122.899 83.8994 124.482 83.9452C125.744 83.9817 128.378 83.8263 128.552 83.2775C128.68 82.8842 129.155 77.7988 129.384 75.3385C130.381 75.2104 131.113 74.9634 131.442 74.5793C132.768 73.0519 133.271 64.811 133.198 62.7165H133.189Z" fill="#ECEDEB" stroke="#252526" stroke-linecap="round" stroke-linejoin="round"/>
<path d="M113.972 42.8232C113.972 42.8232 114.274 43.4818 114.32 44.8263C114.365 46.1708 113.817 46.1525 114.631 46.1616C116.021 46.1799 119.496 45.2379 119.972 44.5427C120.246 44.1403 119.441 43.7744 119.524 41.5793C119.588 39.6769 121.353 37.9208 121.454 36.6769C121.554 35.4421 121.015 34.5092 120.164 34.747C119.478 34.9391 119.158 35.6891 118.874 36.119C118.664 36.4391 118.527 36.2013 118.381 36.0549C117.905 35.5793 117.283 34.4726 117.1 33.9879C116.716 32.9635 116.734 32.058 116.807 31.0793C115.893 30.7683 115.115 29.9635 114.621 29.0488C111.448 30.7409 109.362 31.1525 107.414 31.2714C107.451 32.5702 107.615 34.3263 107.835 35.7805C108.347 39.1464 109.335 40.8568 110.158 41.7165C111.347 42.9604 112.188 43.061 112.984 43.0153C114.448 42.9238 116.277 41.5061 116.789 40.7287" fill="#ECEDEB"/>
<path d="M113.972 42.8232C113.972 42.8232 114.274 43.4818 114.32 44.8263C114.365 46.1708 113.817 46.1525 114.631 46.1616C116.021 46.1799 119.496 45.2379 119.972 44.5427C120.246 44.1403 119.441 43.7744 119.524 41.5793C119.588 39.6769 121.353 37.9208 121.454 36.6769C121.554 35.4421 121.015 34.5092 120.164 34.747C119.478 34.9391 119.158 35.6891 118.874 36.119C118.664 36.4391 118.527 36.2013 118.381 36.0549C117.905 35.5793 117.283 34.4726 117.1 33.9879C116.716 32.9635 116.734 32.058 116.807 31.0793C115.893 30.7683 115.115 29.9635 114.621 29.0488C111.448 30.7409 109.362 31.1525 107.414 31.2714C107.451 32.5702 107.615 34.3263 107.835 35.7805C108.347 39.1464 109.335 40.8568 110.158 41.7165C111.347 42.9604 112.188 43.061 112.984 43.0153C114.448 42.9238 116.277 41.5061 116.789 40.7287" stroke="#252526" stroke-linecap="round" stroke-linejoin="round"/>
<path d="M79.0242 79.8477C79.0242 79.8477 76.4724 80.2684 75.2559 81.2928C73.2071 83.0306 72.2468 84.2196 72.6675 85.18C73.0882 86.1403 76.0699 86.9544 76.5273 86.5336C77.076 86.0214 76.7102 85.8294 77.9084 84.7867C79.0974 83.744 79.4815 84.6312 80.2407 84.6586C80.8992 84.6861 82.2437 83.4605 82.2437 83.4605" fill="#ECEDEB"/>
<path d="M79.0242 79.8477C79.0242 79.8477 76.4724 80.2684 75.2559 81.2928C73.2071 83.0306 72.2468 84.2196 72.6675 85.18C73.0882 86.1403 76.0699 86.9544 76.5273 86.5336C77.076 86.0214 76.7102 85.8294 77.9084 84.7867C79.0974 83.744 79.4815 84.6312 80.2407 84.6586C80.8992 84.6861 82.2437 83.4605 82.2437 83.4605" stroke="#252526" stroke-linecap="round" stroke-linejoin="round"/>
<path d="M114.275 45.9971C114.275 45.9971 109.976 46.2532 105.211 50.9178C100.454 55.5824 97.7197 68.0215 97.299 68.4148C96.3844 69.2471 89.2777 73.116 86.2228 74.8172C84.6405 75.7044 79.7106 78.7501 79.1892 79.1343C78.9057 79.3446 78.6771 79.7013 79.6191 80.5794C81.6039 82.4269 82.0063 83.9178 82.8935 83.5885C83.5155 83.3599 93.988 78.43 95.9819 77.241C97.9758 76.0519 102.476 73.5641 103.619 72.055C103.994 71.5611 105.019 70.1617 105.019 70.1617" stroke="#252526" stroke-linecap="round" stroke-linejoin="round"/>
<path d="M124.253 54.1279C124.253 54.1279 123.292 58.2346 124.463 67.1249" stroke="#252526" stroke-linecap="round" stroke-linejoin="round"/>
<path d="M106.436 66.1188C106.436 66.1188 105.659 64.9115 104.991 64.5365C104.323 64.1615 104.36 64.9938 103.93 65.2316C103.5 65.4694 102.622 65.5426 101.662 64.6737C101.012 64.0883 100.482 63.5578 99.6952 64.07C99.0184 64.509 98.6159 65.2956 98.936 66.2011C99.2562 67.1066 101.735 69.2651 102.732 69.7407C103.729 70.2163 105.906 70.1615 105.906 70.1615" stroke="#252526" stroke-linecap="round" stroke-linejoin="round"/>
<path d="M104.378 64.7104C104.378 64.7104 103.299 63.1647 102.677 62.3049C102.247 61.7013 102.037 61.3263 101.698 61.2988C101.36 61.2714 99.622 61.2988 98.7256 61.2988C97.8293 61.2988 97.7744 61.5275 97.9939 61.9391C98.2134 62.3506 99.5671 64.1708 99.5671 64.1708C99.5671 64.1708 100.189 63.7043 100.601 63.9147C101.012 64.125 101.909 64.9025 102.146 65.0397C102.384 65.1769 103.125 65.5519 103.71 65.3232C104.296 65.0945 104.387 64.7013 104.387 64.7013L104.378 64.7104Z" fill="#6A51CA" stroke="#252526" stroke-linecap="round" stroke-linejoin="round"/>
<path d="M107.972 56.8354C107.972 56.8354 107.405 60.3568 107.131 65.4147" stroke="#252526" stroke-linecap="round" stroke-linejoin="round"/>
<path d="M121.482 110.149C121.125 116.625 120.997 119.561 120.522 123.686C120.147 126.905 118.272 142.061 118.198 142.857C118.125 143.652 113.982 143.497 113.269 143.415C112.555 143.332 112.692 142.692 112.692 141.887C112.692 141.082 110.955 118.226 110.817 113.204C110.689 108.192 111.247 89.5609 111.247 89.5609C111.247 89.5609 107.131 92.817 105 94.3078C104.25 94.8292 103.098 95.6158 102.284 96.0365L88.5918 92.5334C88.8936 91.7103 89.0857 91.3902 89.3692 90.9969C90.2656 89.753 92.2503 88.3261 95.8174 85.756C100.692 82.253 106.738 78.5396 106.738 78.5396C106.738 78.5396 107.259 78.9511 108.787 79.6188C111.485 80.7896 116.333 82.6097 119.982 83.3597C125.717 84.5395 128.077 83.57 128.077 83.57C128.077 83.57 127.244 93.1371 125.827 98.1493C124.263 103.71 121.464 110.122 121.464 110.122L121.482 110.149Z" fill="#9C8BDC" stroke="#252526" stroke-linecap="round" stroke-linejoin="round"/>
<path d="M106.737 71.0942C106.737 71.0942 106.472 75.9692 106.435 77.0119C106.399 78.0546 106.353 78.5668 107.689 79.1705C109.554 80.0211 117.466 82.7833 119.542 83.268C121.618 83.7528 122.881 83.89 124.463 83.9357C125.725 83.9723 128.359 83.8168 128.533 83.268C128.707 82.7192 129.32 75.329 129.32 75.329" stroke="#252526" stroke-linecap="round" stroke-linejoin="round"/>
<path d="M88.1703 94.7925C88.1703 94.7925 89.2221 100.509 90.6489 105.128C92.0758 109.747 95.6428 118.701 95.9355 119.414C96.2282 120.128 96.4111 121.033 96.9325 120.841C97.4538 120.649 100.692 119.753 101.405 119.607C101.789 119.524 102.228 119.323 102.228 118.61C102.228 118.079 101.414 109.189 100.829 106.317C100.07 102.603 98.0666 97.0516 98.0666 97.0516L88.1611 94.7925H88.1703Z" fill="#9C8BDC" stroke="#252526" stroke-miterlimit="10"/>
<path d="M98.1039 123.311C97.9027 122.79 97.3447 120.713 97.3447 120.713L101.671 119.524C101.671 119.524 102.183 121.756 102.019 121.93C102.019 121.93 101.168 122.323 100.464 122.616C99.7594 122.909 98.1039 123.302 98.1039 123.302V123.311Z" fill="#ECEDEB" stroke="#252526" stroke-linecap="round" stroke-linejoin="round"/>
<path d="M120.028 44.3599C122.332 44.3508 126.339 45.3935 128.223 46.1709C129.567 46.7288 130.71 48.5398 131.662 51.5398C132.951 55.6008 133.079 60.0459 133.18 62.7258C133.253 64.8294 132.75 73.0703 131.424 74.5886C130.244 75.9422 123.924 75.6221 119.012 74.241C114.101 72.8599 107.79 71.4697 106.729 71.1038C105.878 70.8111 105.86 70.6922 105.906 69.9514C105.97 68.9361 106.381 65.8721 106.61 65.5063C106.839 65.1404 115.829 65.8447 117.997 66.1008C122.186 66.5947 126.631 67.5825 126.631 67.5825" stroke="#252526" stroke-linecap="round" stroke-linejoin="round"/>
<path d="M120.11 39.5853C120.659 38.4694 121.391 37.4725 121.455 36.6859C121.555 35.4512 121.016 34.5182 120.165 34.756C119.479 34.9481 119.159 35.6981 118.875 36.128C118.665 36.4481 118.528 36.2103 118.381 36.064C117.906 35.5884 117.284 34.4816 117.101 33.9969C116.717 32.9725 116.735 32.067 116.808 31.0884C115.894 30.7774 115.116 29.9725 114.622 29.0579C111.448 30.7499 109.363 31.1615 107.415 31.2804C107.415 31.2804 104.086 29.9725 103.226 28.9207C102.366 27.8688 102.467 27.3475 104.269 27.064C106.07 26.7804 108.787 25.3993 110.461 24.256C112.125 23.1127 115.089 21.814 117.366 22.253C119.314 22.6371 120.083 24.064 120.083 24.064C120.083 24.064 122.415 24.3932 123.558 27.3932C124.702 30.3932 124.134 34.381 123.211 35.9999C122.214 37.7652 120.567 38.4237 120.119 39.5762L120.11 39.5853Z" fill="#B4B4B4" stroke="#252526" stroke-linecap="round" stroke-linejoin="round"/>
<path d="M111.987 88.9756C111.987 88.9756 108.301 91.939 105 94.3171C104.259 94.8567 103.097 95.625 102.283 96.0457" stroke="#252526" stroke-linecap="round" stroke-linejoin="round"/>
<path d="M121.518 105.448C121.518 106.628 121.546 109.061 121.445 110.79" stroke="#252526" stroke-linecap="round" stroke-linejoin="round"/>
</g>
<defs>
<clipPath id="clip0_2097_50874">
<rect width="229.628" height="150" fill="white"/>
</clipPath>
</defs>
</svg>
