<svg width="225" height="224" viewBox="0 0 225 224" fill="none" xmlns="http://www.w3.org/2000/svg">
<path d="M32.8309 208.33C76.6729 229.222 147.718 229.222 191.56 208.33C235.402 187.438 235.347 153.596 191.56 132.704C147.772 111.812 76.6948 111.818 32.8747 132.704C-10.9454 153.591 -10.9564 187.449 32.8309 208.33Z" fill="#EBEBEB"/>
<path d="M174.089 53.049L176.103 51.5001V47.0666C176.103 43.5582 178.9 39.4805 181.943 37.7235C184.986 35.9665 187.455 37.3896 187.455 40.9036V41.5439C188.094 40.5051 188.968 39.6299 190.005 38.9879C192.195 37.7235 193.973 38.747 193.973 41.2757V41.5713L198.002 39.2451C199.441 38.4132 200.613 39.0864 200.613 40.7503C200.563 41.656 200.301 42.5373 199.847 43.3227C199.394 44.1082 198.762 44.7758 198.002 45.2713L174.089 59.0753C172.649 59.9072 171.478 59.234 171.478 57.5701C171.527 56.6644 171.789 55.7831 172.243 54.9977C172.697 54.2122 173.329 53.5446 174.089 53.049Z" fill="#EBEBEB"/>
<path d="M29.596 173.542C29.3114 173.493 29.0104 173.405 28.671 173.317C27.5273 173.011 26.4001 172.645 25.2939 172.223C23.0876 171.422 21.0068 170.311 19.1144 168.922C18.0766 168.184 17.1888 167.255 16.4981 166.186C15.8079 165.102 15.5628 163.794 15.814 162.535C15.953 161.913 16.2671 161.344 16.719 160.895C17.171 160.446 17.742 160.136 18.3646 160.001C18.9502 159.908 19.5578 160.001 20.1434 159.897C20.4433 159.873 20.7277 159.753 20.9551 159.557C21.1825 159.36 21.3411 159.095 21.4078 158.802C21.4101 158.466 21.3192 158.137 21.1451 157.85C20.0817 155.902 19.1668 153.876 18.4084 151.79C17.7735 149.929 17.7352 147.916 18.2989 146.032C18.7776 144.158 19.8025 142.468 21.2436 141.178C21.9004 140.63 22.809 140.159 23.6026 140.504C23.855 140.633 24.0766 140.814 24.2523 141.036C24.428 141.258 24.5537 141.515 24.6207 141.791C24.7432 142.34 24.8056 142.902 24.8068 143.465C24.8849 144.678 25.1167 145.875 25.4964 147.029C25.6664 147.749 26.0802 148.389 26.6677 148.84C27.6858 149.475 29.087 148.977 30.1707 149.492C31.2544 150.006 31.6266 151.188 31.6759 152.305C31.7252 153.422 31.5008 154.549 31.6266 155.66C31.6487 156.011 31.7598 156.35 31.9496 156.645C32.2509 156.968 32.5997 157.243 32.984 157.461C33.489 157.879 33.8937 158.404 34.1684 158.999C34.4431 159.594 34.5808 160.243 34.5713 160.898C34.5381 162.207 34.2885 163.502 33.8324 164.73C33.3299 166.446 32.9639 168.199 32.7377 169.973C32.5593 171.06 32.0988 172.081 31.4022 172.934C31.1956 173.204 30.9135 173.405 30.5917 173.513C30.27 173.622 29.9234 173.632 29.596 173.542Z" fill="#6A51CA"/>
<path d="M31.4133 172.633C31.381 172.632 31.3494 172.624 31.3216 172.607C31.2938 172.591 31.2706 172.568 31.2545 172.54C24.8671 161.768 22.8474 154.182 22.2727 149.71C21.6432 144.839 22.5299 142.556 22.5682 142.463C22.5772 142.44 22.5906 142.419 22.6077 142.402C22.6248 142.384 22.6453 142.369 22.6679 142.36C22.6905 142.35 22.7149 142.344 22.7396 142.344C22.7642 142.343 22.7888 142.348 22.8118 142.357C22.8348 142.366 22.8558 142.379 22.8736 142.396C22.8914 142.413 22.9057 142.434 22.9156 142.456C22.9255 142.479 22.9309 142.503 22.9314 142.528C22.9319 142.553 22.9275 142.577 22.9185 142.6C22.9185 142.639 22.0318 144.932 22.6503 149.716C23.1977 154.144 25.2447 161.664 31.5775 172.354C31.5903 172.375 31.5987 172.398 31.6023 172.423C31.606 172.447 31.6047 172.472 31.5986 172.496C31.5924 172.52 31.5816 172.542 31.5667 172.562C31.5518 172.582 31.5331 172.598 31.5118 172.611C31.481 172.626 31.4473 172.633 31.4133 172.633Z" fill="white"/>
<path d="M27.9978 166.388C20.2146 165.534 18.0143 162.978 17.9212 162.868C17.8865 162.833 17.8669 162.786 17.8669 162.737C17.8669 162.688 17.8865 162.64 17.9212 162.605C17.9381 162.588 17.9585 162.573 17.9811 162.564C18.0036 162.554 18.028 162.549 18.0526 162.549C18.0772 162.549 18.1015 162.554 18.1241 162.564C18.1467 162.573 18.1671 162.588 18.1839 162.605C18.1839 162.633 20.4061 165.156 28.0087 165.994C28.0533 166.001 28.0937 166.024 28.1229 166.059C28.152 166.093 28.168 166.137 28.168 166.182C28.168 166.228 28.152 166.271 28.1229 166.306C28.0937 166.34 28.0533 166.364 28.0087 166.371L27.9978 166.388Z" fill="white"/>
<path d="M25.8029 161.536C25.7615 161.536 25.7211 161.523 25.688 161.498C25.6684 161.483 25.6521 161.464 25.6398 161.443C25.6276 161.421 25.6197 161.398 25.6167 161.373C25.6136 161.349 25.6154 161.324 25.622 161.3C25.6286 161.277 25.6399 161.255 25.6551 161.235C28.1236 157.989 28.2824 152.669 28.2878 152.615C28.2878 152.59 28.2928 152.565 28.3026 152.543C28.3123 152.52 28.3266 152.5 28.3446 152.483C28.3625 152.466 28.3837 152.453 28.4069 152.444C28.4301 152.436 28.4548 152.432 28.4794 152.434C28.5041 152.434 28.5285 152.439 28.5512 152.449C28.5738 152.458 28.5942 152.473 28.6112 152.491C28.6281 152.509 28.6412 152.53 28.6496 152.553C28.658 152.576 28.6615 152.601 28.66 152.625C28.66 152.85 28.4958 158.099 25.9562 161.46C25.9383 161.483 25.9152 161.503 25.8886 161.516C25.862 161.529 25.8327 161.536 25.8029 161.536Z" fill="white"/>
<path d="M185.32 140.273C186.075 135.183 186.086 128.971 182.348 119.896C178.61 110.821 179.77 106.064 183.776 104.767C187.783 103.47 196.661 110.361 196.332 121.948C196.01 133.136 188.451 142.375 188.451 142.375L185.32 140.273Z" fill="#6A51CA"/>
<path opacity="0.1" d="M185.32 140.273C186.075 135.183 186.086 128.971 182.348 119.896C178.61 110.821 179.77 106.064 183.776 104.767C187.783 103.47 196.661 110.361 196.332 121.948C196.01 133.136 188.451 142.375 188.451 142.375L185.32 140.273Z" fill="black"/>
<path d="M187.274 141.773C187.251 141.778 187.226 141.778 187.203 141.773C187.18 141.764 187.158 141.751 187.141 141.733C187.123 141.716 187.109 141.695 187.1 141.672C187.09 141.648 187.086 141.624 187.087 141.599C187.088 141.574 187.094 141.549 187.104 141.527C187.143 141.434 191.237 131.872 190.936 123.191C190.596 113.202 185.063 107.707 185.008 107.652C184.99 107.635 184.976 107.614 184.967 107.591C184.957 107.569 184.952 107.544 184.952 107.52C184.951 107.495 184.956 107.471 184.965 107.448C184.974 107.425 184.988 107.404 185.005 107.386C185.023 107.369 185.043 107.355 185.066 107.345C185.088 107.335 185.113 107.33 185.137 107.33C185.162 107.33 185.187 107.334 185.209 107.344C185.232 107.353 185.253 107.366 185.271 107.384C185.325 107.438 190.963 113.027 191.291 123.18C191.593 131.937 187.46 141.582 187.427 141.675C187.412 141.702 187.39 141.726 187.363 141.743C187.336 141.76 187.306 141.771 187.274 141.773Z" fill="white"/>
<path d="M185.539 144.789C185.539 144.789 187.652 132.485 195.15 125.413C202.649 118.342 215.15 116.995 219.069 120.772C222.988 124.548 220.476 128.221 214.953 129.496C208.713 130.936 204.887 133.454 208.713 135.38C212.265 137.165 211.866 141.034 208.166 142.89C202.255 145.856 191.581 143.032 189.009 148.867L185.539 144.789Z" fill="#6A51CA"/>
<path d="M187.126 147.395H187.066C187.019 147.377 186.981 147.342 186.96 147.297C186.938 147.253 186.935 147.201 186.951 147.154C188.68 142.342 191.343 137.921 194.789 134.143C197.489 131.223 200.651 128.765 204.148 126.869C207.623 124.952 211.405 123.655 215.325 123.038C215.375 123.033 215.425 123.048 215.464 123.08C215.503 123.112 215.528 123.158 215.533 123.208C215.536 123.232 215.534 123.257 215.528 123.281C215.521 123.304 215.51 123.327 215.494 123.346C215.479 123.365 215.46 123.381 215.439 123.393C215.417 123.405 215.393 123.413 215.369 123.416C211.488 124.039 207.747 125.335 204.313 127.247C198.839 130.219 191.412 136.114 187.29 147.307C187.272 147.334 187.248 147.356 187.219 147.371C187.191 147.387 187.159 147.395 187.126 147.395Z" fill="white"/>
<path d="M190.93 139.654C190.891 139.654 190.852 139.642 190.82 139.62C190.788 139.597 190.763 139.565 190.75 139.528C190.734 139.481 190.737 139.43 190.758 139.385C190.78 139.34 190.818 139.305 190.864 139.287C197.263 137.054 206.436 138.226 206.529 138.237C206.554 138.24 206.577 138.248 206.599 138.26C206.62 138.273 206.639 138.289 206.654 138.309C206.669 138.328 206.68 138.35 206.686 138.374C206.692 138.398 206.694 138.423 206.691 138.447C206.688 138.472 206.68 138.495 206.667 138.517C206.655 138.538 206.639 138.557 206.619 138.572C206.599 138.587 206.577 138.598 206.553 138.604C206.529 138.61 206.505 138.612 206.48 138.609C206.393 138.609 197.301 137.437 190.99 139.643C190.972 139.652 190.951 139.656 190.93 139.654Z" fill="white"/>
<path d="M37.456 13.4777C37.4103 12.6324 37.1659 11.8097 36.7427 11.0765C36.3195 10.3433 35.7294 9.72017 35.0204 9.25769L33.0335 8.10827C32.2788 7.72509 31.4443 7.52539 30.5978 7.52539C29.7514 7.52539 28.9169 7.72509 28.1622 8.10827L12.448 17.1777C11.6996 17.648 11.0881 18.3067 10.6746 19.0879C10.3186 19.7086 10.095 20.3963 10.0178 21.1076C10.0178 21.2061 10.0178 21.3047 10.0178 21.4032V39.5421C10.0642 40.3879 10.3094 41.2108 10.7336 41.9441C11.1577 42.6773 11.7489 43.3002 12.459 43.7621L14.4403 44.9115L14.6921 45.0428L14.7852 45.0811L14.9548 45.1523L15.0862 45.2016L15.2285 45.2508L15.3872 45.2946L15.5076 45.3274L15.6937 45.3712H15.7868L16.0112 45.4095H16.055C17.1771 45.5935 18.3286 45.4112 19.339 44.8896L35.0204 35.842C35.7306 35.379 36.3217 34.7551 36.7458 34.021C37.1699 33.2868 37.4151 32.4631 37.4615 31.6166L37.456 13.4777Z" fill="#6A51CA"/>
<path opacity="0.4" d="M17.582 22.9631C17.3006 23.4292 17.0903 23.9347 16.958 24.4628C17.2848 23.0948 18.1256 21.9051 19.3061 21.1405L35.0203 12.071C36.3667 11.2938 37.4614 11.9232 37.4614 13.4777C37.4151 12.6319 37.1698 11.8089 36.7457 11.0757C36.3215 10.3424 35.7304 9.71956 35.0203 9.25769L33.0334 8.10827C32.2787 7.72509 31.4442 7.52539 30.5978 7.52539C29.7513 7.52539 28.9168 7.72509 28.1621 8.10827L12.4479 17.1777C11.6996 17.648 11.088 18.3067 10.6746 19.0879L10.7238 19.0004L17.582 22.9631Z" fill="white"/>
<path opacity="0.1" d="M18.8026 45.141L18.6877 45.1738L18.4907 45.2122H18.3046H18.113C17.8867 45.1955 17.67 45.1138 17.489 44.9768L17.4014 44.8947L17.3522 44.8509L17.2865 44.7688L17.2318 44.6977L17.177 44.6101L17.1278 44.5225C17.1278 44.5225 17.1278 44.4623 17.0895 44.4295C17.0726 44.3958 17.0579 44.3611 17.0457 44.3255L16.9581 44.2379V44.1284C16.9581 44.0956 16.9581 44.0627 16.9581 44.0299C16.9551 43.977 16.9551 43.924 16.9581 43.8712C16.9551 43.8421 16.9551 43.8127 16.9581 43.7836C16.9581 43.7015 16.9581 43.6139 16.9581 43.5209V25.3656C16.9584 25.1693 16.9749 24.9735 17.0074 24.7799C17.0074 24.7088 17.0074 24.6321 17.0512 24.561V24.4734C17.1765 23.9465 17.3794 23.4411 17.6532 22.9737L10.7239 19L10.6746 19.0876C10.3186 19.7083 10.095 20.3959 10.0178 21.1073C10.0178 21.2058 10.0178 21.3043 10.0178 21.4028V39.5417C10.0642 40.3875 10.3094 41.2105 10.7336 41.9437C11.1577 42.677 11.7489 43.2998 12.459 43.7617L14.4403 44.9111L14.6921 45.0425L14.7852 45.0808L14.9548 45.152L15.0862 45.2012L15.2285 45.2505L15.3872 45.2943L15.5077 45.3271L15.6937 45.3709H15.7868L16.0112 45.4092H16.055C16.9789 45.5496 17.9233 45.4574 18.8026 45.141Z" fill="black"/>
<path d="M30.5922 30.1115C31.6417 27.7669 32.1791 25.2254 32.1685 22.6567C32.6813 21.8612 33.1123 21.0158 33.4548 20.1334C33.0129 20.6515 32.5155 21.1196 31.9715 21.5291C32.5235 20.7575 32.9093 19.8797 33.1045 18.9512C32.6308 19.6097 32.0795 20.2088 31.4624 20.7355C31.1895 20.5325 30.8584 20.4228 30.5183 20.4228C30.1781 20.4228 29.847 20.5325 29.5741 20.7355C27.9321 21.6988 26.6842 24.4793 27.0618 26.4169C24.9162 27.5116 23.0115 27.2379 21.7417 25.8696C21.063 27.8071 21.3914 29.6462 22.5408 30.002C22.1891 30.2132 21.7765 30.2999 21.3695 30.2483C21.3695 31.8903 22.196 32.8591 23.4384 32.4705C23.1091 32.7985 22.7108 33.049 22.2726 33.2039C22.601 34.3807 23.5534 34.846 24.6864 34.2056C23.8044 35.7739 22.4688 37.0388 20.855 37.8344C21.9934 38.1519 23.3509 37.9384 24.8123 37.0955C27.3629 35.6232 29.3223 32.9576 30.5758 30.0731" fill="white"/>
<path d="M37.4559 79.5242C37.4068 78.6826 37.1608 77.8643 36.7378 77.1352C36.3147 76.406 35.7264 75.7864 35.0202 75.326L33.0334 74.1766C32.2787 73.7934 31.4442 73.5938 30.5977 73.5938C29.7513 73.5938 28.9168 73.7934 28.1621 74.1766L12.4534 83.2461C11.705 83.7163 11.0934 84.3751 10.68 85.1563C10.324 85.777 10.1004 86.4646 10.0232 87.176C10.0232 87.2745 10.0232 87.373 10.0232 87.4715V105.61C10.0711 106.451 10.3154 107.269 10.7365 107.998C11.1576 108.727 11.7437 109.347 12.4479 109.809L14.4293 110.958L14.6811 111.084L14.7741 111.128L14.9438 111.199L15.0751 111.248L15.2175 111.297L15.3762 111.341L15.4966 111.374L15.6827 111.418H15.7757L16.0002 111.456H16.0439C17.169 111.632 18.3207 111.44 19.328 110.909L35.0202 101.888C35.7305 101.425 36.3216 100.802 36.7457 100.067C37.1698 99.3333 37.415 98.5096 37.4614 97.663L37.4559 79.5242Z" fill="#6A51CA"/>
<path opacity="0.4" d="M17.5819 89.0096C17.3081 89.4769 17.1052 89.9823 16.9798 90.5093C17.3012 89.1448 18.1338 87.9556 19.306 87.1869L35.0202 78.1175C36.3666 77.3403 37.4613 77.9697 37.4613 79.5242C37.4116 78.6821 37.1648 77.8635 36.7408 77.1343C36.3167 76.4052 35.7274 75.7858 35.0202 75.326L33.0333 74.1766C32.2786 73.7934 31.4441 73.5938 30.5977 73.5938C29.7512 73.5938 28.9167 73.7934 28.162 74.1766L12.4533 83.2461C11.7049 83.7163 11.0934 84.3751 10.6799 85.1563L10.7292 85.0687L17.5819 89.0096Z" fill="white"/>
<path opacity="0.1" d="M18.8026 111.189L18.6877 111.221C18.6233 111.241 18.5574 111.256 18.4906 111.265H18.3045H18.113C17.8866 111.249 17.6699 111.167 17.489 111.03L17.4014 110.948L17.3522 110.904L17.2865 110.816L17.2317 110.751L17.177 110.663L17.1277 110.576C17.1277 110.543 17.1277 110.515 17.0894 110.483C17.0716 110.447 17.0569 110.411 17.0457 110.373L17.0128 110.28L16.98 110.149C16.98 110.149 16.98 110.088 16.98 110.056C16.9769 110.003 16.9769 109.95 16.98 109.897C16.977 109.868 16.977 109.838 16.98 109.809C16.98 109.727 16.98 109.634 16.98 109.541V91.4132C16.9803 91.217 16.9968 91.0211 17.0292 90.8276C17.0292 90.7509 17.0292 90.6798 17.073 90.6086V90.5211C17.1984 89.9941 17.4013 89.4887 17.6751 89.0213L10.8169 85.0586L10.7677 85.1462C10.4117 85.7668 10.188 86.4545 10.1108 87.1659C10.1108 87.2644 10.1108 87.3629 10.1108 87.4614V105.6C10.1472 106.435 10.3773 107.25 10.7829 107.981C11.1886 108.711 11.7586 109.337 12.448 109.809L14.4294 110.959L14.6811 111.085L14.7742 111.128L14.9439 111.2L15.0752 111.249L15.2175 111.298L15.3763 111.342L15.4967 111.375L15.6828 111.419H15.7758L16.0002 111.457H16.044C16.9715 111.599 17.9199 111.507 18.8026 111.189Z" fill="black"/>
<path d="M27.1604 87.9154C28.7696 86.9849 28.9612 86.8864 29.5961 86.558C29.9303 86.3573 30.3035 86.2304 30.6908 86.1858C30.9383 86.1606 31.1858 86.2333 31.3804 86.3883C31.5992 86.5544 31.7586 86.7866 31.8347 87.0506C31.9757 87.4947 32.0459 87.9584 32.0427 88.4244C32.0701 89.2509 32.0755 89.5191 32.0755 91.6482C32.0755 93.7774 32.0755 94.0456 32.0427 94.9323C32.0331 95.4747 31.9633 96.0144 31.8347 96.5414C31.7357 96.9537 31.5829 97.3512 31.3804 97.7237C31.1989 98.0884 30.9667 98.4256 30.6908 98.7253C30.369 99.0798 30.0007 99.3891 29.5961 99.6449C28.9612 100.05 28.7696 100.192 27.1604 101.095C25.5512 101.998 25.3651 102.13 24.7302 102.458C24.3956 102.657 24.0224 102.782 23.6355 102.825C23.3863 102.85 23.137 102.778 22.9404 102.622C22.7248 102.454 22.5677 102.223 22.4916 101.96C22.3509 101.518 22.2807 101.056 22.2836 100.592C22.2836 99.7598 22.2453 99.4971 22.2453 97.3679C22.2453 95.2388 22.2453 94.9651 22.2836 94.0839C22.2917 93.5305 22.3615 92.9798 22.4916 92.4419C22.5921 92.0309 22.7429 91.6338 22.9404 91.2596C23.1266 90.8963 23.3603 90.5595 23.6355 90.258C23.9561 89.9023 24.3245 89.5928 24.7302 89.3384C25.3651 88.9334 25.5567 88.7911 27.1604 87.888M27.1604 86.443C25.5184 87.3844 25.3214 87.5377 24.681 87.9208C24.1403 88.2589 23.6486 88.6696 23.2196 89.1414C22.7848 89.6005 22.4163 90.1182 22.1249 90.6794C21.8197 91.2563 21.5862 91.8684 21.4298 92.5021C21.2594 93.1939 21.1658 93.9025 21.1506 94.6148C21.1506 95.4851 21.1123 95.7642 21.1123 97.9426C21.1123 100.121 21.1123 100.395 21.1506 101.227C21.1507 101.834 21.2449 102.438 21.4298 103.016C21.551 103.419 21.7938 103.775 22.1249 104.035C22.4354 104.277 22.828 104.389 23.2196 104.347C23.7347 104.295 24.2329 104.135 24.681 103.876C25.3214 103.542 25.5239 103.432 27.1604 102.491C28.797 101.55 28.9995 101.396 29.6454 101.008C30.7212 100.342 31.5955 99.3961 32.1741 98.271C32.4785 97.6944 32.7102 97.0822 32.8637 96.4484C33.0362 95.7587 33.1316 95.0519 33.1483 94.3411C33.1483 93.4654 33.1812 93.1862 33.1812 91.0078C33.1812 88.8294 33.1812 88.5612 33.1483 87.7238C33.1476 87.1178 33.0515 86.5156 32.8637 85.9395C32.7433 85.5361 32.5027 85.179 32.1741 84.9159C31.8633 84.6746 31.4703 84.5646 31.0794 84.6094C30.5637 84.6577 30.0649 84.8184 29.618 85.0801C28.9721 85.4085 28.7696 85.518 27.1331 86.4649M27.1331 90.3674C25.4254 91.3527 24.0406 93.9963 24.0406 96.2733C24.0406 98.5502 25.4254 99.5956 27.1331 98.6104C28.8408 97.6252 30.2255 94.9815 30.2255 92.7046C30.2255 90.4277 28.8408 89.3822 27.1331 90.3674ZM27.1331 97.1654C26.0384 97.8058 25.1298 97.1271 25.1298 95.6493C25.1298 94.1715 26.0274 92.4528 27.1331 91.8179C28.2387 91.183 29.1418 91.8562 29.1418 93.3395C29.1418 94.8228 28.2442 96.5305 27.1331 97.1709M31.0684 87.9372C31.0684 87.3899 30.7455 87.16 30.3459 87.3899C30.1253 87.5479 29.945 87.7555 29.8195 87.9961C29.694 88.2367 29.6268 88.5034 29.6235 88.7747C29.6235 89.322 29.9464 89.5464 30.3459 89.322C30.5658 89.1646 30.7457 88.9578 30.8712 88.7183C30.9967 88.4787 31.0642 88.2131 31.0684 87.9427" fill="white"/>
<path d="M64.801 37.2922C64.7581 36.4487 64.5172 35.6272 64.0979 34.894C63.6786 34.1609 63.0925 33.5368 62.3872 33.0722L60.4003 31.9228C59.6446 31.5396 58.8093 31.3398 57.9619 31.3398C57.1146 31.3398 56.2792 31.5396 55.5235 31.9228L39.8149 40.9922C39.1505 41.4329 38.5897 42.0125 38.1711 42.691C37.7525 43.3695 37.486 44.1307 37.3901 44.9221C37.3901 45.0207 37.3901 45.1192 37.3901 45.2177V63.3566C37.4355 64.202 37.6797 65.0248 38.1029 65.7581C38.5261 66.4914 39.1164 67.1144 39.8258 67.5766L41.8127 68.726L42.0644 68.8573L42.1575 68.8957L42.3271 68.9668L42.453 69.0161L42.6008 69.0653L42.7541 69.1091L42.88 69.142L43.0661 69.1858H43.1591L43.3835 69.2241H43.4273C44.5494 69.4076 45.7008 69.2253 46.7114 68.7041L62.3872 59.6565C63.0967 59.1932 63.687 58.5691 64.1102 57.835C64.5333 57.1008 64.7775 56.2773 64.8229 55.4311L64.801 37.2922Z" fill="#6A51CA"/>
<path opacity="0.4" d="M44.9327 46.7776C44.6596 47.246 44.455 47.751 44.3251 48.2773C44.6478 46.912 45.4825 45.7227 46.6568 44.955L62.3874 35.8855C63.7338 35.1083 64.823 35.7378 64.823 37.2922C64.7777 36.4468 64.5335 35.624 64.1103 34.8907C63.6871 34.1574 63.0968 33.5344 62.3874 33.0722L60.4005 31.9228C59.6448 31.5396 58.8094 31.3398 57.9621 31.3398C57.1148 31.3398 56.2794 31.5396 55.5237 31.9228L39.815 40.9922C39.0695 41.4642 38.4601 42.1227 38.0471 42.9024L38.0909 42.8149L44.9327 46.7776Z" fill="white"/>
<path opacity="0.1" d="M46.1532 68.9562L46.0328 68.9891C45.9702 69.0088 45.9061 69.0235 45.8412 69.0329H45.6606H45.4197C45.1952 69.0155 44.9805 68.9338 44.8012 68.7975L44.7137 68.7154L44.6644 68.6716L44.5933 68.584L44.544 68.5183C44.5226 68.4913 44.5042 68.4619 44.4893 68.4308L44.44 68.3432C44.44 68.3158 44.44 68.283 44.3962 68.2502L44.3579 68.1462L44.3251 68.0476C44.3251 68.0075 44.3141 67.9637 44.2922 67.9163C44.2891 67.8853 44.2891 67.8542 44.2922 67.8232C44.2892 67.7704 44.2892 67.7174 44.2922 67.6645C44.2892 67.6354 44.2892 67.606 44.2922 67.5769C44.2866 67.4894 44.2866 67.4017 44.2922 67.3142V49.1808C44.2953 48.9847 44.3117 48.789 44.3415 48.5951C44.3415 48.5185 44.3415 48.4474 44.3798 48.3762C44.3819 48.3471 44.3819 48.3178 44.3798 48.2886C44.5097 47.7623 44.7143 47.2573 44.9873 46.7889L38.1237 42.8262L38.0799 42.9137C37.7215 43.5334 37.4978 44.2215 37.4231 44.9334C37.4231 45.032 37.4231 45.1305 37.4231 45.229V63.3679C37.4684 64.2133 37.7126 65.0361 38.1359 65.7694C38.5591 66.5027 39.1494 67.1257 39.8588 67.5879L41.8456 68.7373L42.0974 68.8686L42.1904 68.907L42.3601 68.9781L42.486 69.0274L42.6338 69.0766L42.787 69.1204L42.9129 69.1533L43.099 69.1971H43.1921L43.4165 69.2354H43.4603C44.3672 69.3631 45.2917 69.2673 46.1532 68.9562Z" fill="black"/>
<path d="M52.8143 62.3655L55.436 60.8494V52.0919L57.2641 51.0355L57.4557 47.9923L55.436 49.1582V47.4888C55.436 46.7991 55.54 46.4652 56.0381 46.1806L57.4557 45.3596V42.3164L55.644 43.3673C54.7476 43.8398 54.005 44.5586 53.5037 45.4392C53.0023 46.3197 52.7631 47.3252 52.8143 48.3372V50.6962L51.4404 51.4679V54.4345L52.8033 53.6518L52.8143 62.3655Z" fill="white"/>
<path d="M29.306 176.586L92.1024 212.831C92.8401 213.206 93.6559 213.402 94.4834 213.402C95.3109 213.402 96.1266 213.206 96.8643 212.831L194.795 156.296C196.108 155.536 196.108 154.31 194.795 153.56L131.998 117.293C131.261 116.918 130.447 116.723 129.62 116.723C128.793 116.723 127.978 116.918 127.242 117.293L29.306 173.85C27.9924 174.594 27.9924 175.82 29.306 176.586Z" fill="#E0E0E0"/>
<path d="M31.282 167.828L92.2995 203.06C93.0451 203.438 93.8692 203.635 94.7051 203.635C95.541 203.635 96.3651 203.438 97.1106 203.06L193.853 147.215C195.183 146.449 195.183 145.206 193.853 144.44L132.83 109.208C132.085 108.83 131.26 108.633 130.425 108.633C129.589 108.633 128.765 108.83 128.019 109.208L31.282 165.091C29.9519 165.83 29.9519 167.073 31.282 167.828Z" fill="#37474F"/>
<path d="M92.2994 203.072L31.2818 167.828C30.0941 167.144 29.9682 166.077 30.9042 165.311C30.3094 165.782 29.8211 166.374 29.4711 167.048C29.1212 167.721 28.9175 168.461 28.8735 169.219V171.479C28.9191 172.315 29.1609 173.128 29.5793 173.852C29.9977 174.577 30.581 175.193 31.2818 175.65L92.2994 210.877C93.0401 211.27 93.8691 211.468 94.7077 211.451V203.646C93.8691 203.663 93.0401 203.465 92.2994 203.072Z" fill="#455A64"/>
<path d="M193.853 155.031C194.553 154.575 195.136 153.96 195.553 153.236C195.971 152.512 196.211 151.7 196.256 150.866V148.605C196.212 147.848 196.009 147.108 195.659 146.434C195.309 145.76 194.82 145.169 194.225 144.697C195.161 145.464 195.041 146.531 193.853 147.215L97.1106 203.071C96.3715 203.464 95.5445 203.662 94.7078 203.646V211.462C95.5445 211.478 96.3715 211.28 97.1106 210.887L193.853 155.031Z" fill="#263238"/>
<path d="M64.0293 184.1C65.0646 184.627 66.2095 184.901 67.3709 184.901C68.5322 184.901 69.6771 184.627 70.7124 184.1C72.5569 183.005 72.5569 181.309 70.7124 180.241C69.6763 179.718 68.5317 179.445 67.3709 179.445C66.21 179.445 65.0655 179.718 64.0293 180.241C62.2067 181.309 62.2067 183.038 64.0293 184.1Z" fill="#263238"/>
<path d="M101.796 195.596L43.3892 161.853C42.5955 161.393 42.5955 160.643 43.3892 160.183L119.47 116.243C119.917 116.016 120.411 115.898 120.912 115.898C121.413 115.898 121.907 116.016 122.354 116.243L180.761 149.987C181.56 150.446 181.56 151.191 180.761 151.629L104.68 195.575C104.235 195.804 103.742 195.926 103.241 195.93C102.74 195.934 102.245 195.82 101.796 195.596Z" fill="white"/>
<path d="M158.927 129.302C159.19 129.434 159.479 129.503 159.773 129.503C160.067 129.503 160.356 129.434 160.619 129.302C160.71 129.257 160.786 129.187 160.84 129.1C160.893 129.014 160.922 128.914 160.922 128.812C160.922 128.71 160.893 128.611 160.84 128.524C160.786 128.438 160.71 128.368 160.619 128.322C160.356 128.19 160.067 128.121 159.773 128.121C159.479 128.121 159.19 128.19 158.927 128.322C158.457 128.591 158.457 129.028 158.927 129.302Z" fill="#263238"/>
<path d="M161.631 136.976C162.156 137.24 162.735 137.378 163.322 137.378C163.91 137.378 164.489 137.24 165.014 136.976C165.95 136.428 165.95 135.558 165.014 135.022C164.49 134.755 163.91 134.615 163.322 134.615C162.734 134.615 162.155 134.755 161.631 135.022C160.695 135.536 160.695 136.434 161.631 136.976Z" fill="#263238"/>
<path d="M159.266 133.571C159.89 133.216 159.858 132.614 159.19 132.23L148.057 125.799C147.699 125.609 147.301 125.506 146.896 125.499C146.491 125.491 146.09 125.579 145.725 125.755C145.101 126.117 145.134 126.719 145.802 127.102L156.935 133.533C157.293 133.722 157.691 133.824 158.096 133.831C158.501 133.838 158.902 133.749 159.266 133.571Z" fill="#263238"/>
<path d="M118.484 125.317C117.685 125.776 117.685 126.521 118.484 126.959L162.983 152.656C163.431 152.883 163.926 153.001 164.428 153.001C164.93 153.001 165.425 152.883 165.873 152.656L175.725 146.98L128.336 119.613L118.484 125.317Z" fill="#EBEBEB"/>
<path d="M118.813 129.777L115.26 127.73C115.112 127.655 114.948 127.615 114.781 127.615C114.615 127.615 114.451 127.655 114.303 127.73L112.064 129.022C111.796 129.175 111.796 129.421 112.064 129.569L112.37 129.75L111.237 130.352C111.106 130.423 111.117 130.467 111.27 130.456L113.263 130.264L115.616 131.622C115.766 131.695 115.931 131.733 116.098 131.733C116.265 131.733 116.43 131.695 116.579 131.622L118.813 130.33C118.869 130.309 118.917 130.271 118.951 130.221C118.985 130.172 119.004 130.113 119.004 130.053C119.004 129.993 118.985 129.935 118.951 129.886C118.917 129.836 118.869 129.798 118.813 129.777Z" fill="#EBEBEB"/>
<path d="M119.858 135.119L119.595 134.572C119.256 133.855 119.048 132.881 120.033 132.317C120.406 132.128 120.819 132.029 121.237 132.029C121.656 132.029 122.068 132.128 122.442 132.317C122.956 132.612 123.071 133.056 122.786 133.411C123.425 133.236 124.107 133.307 124.697 133.609C124.843 133.656 124.97 133.749 125.061 133.873C125.151 133.997 125.2 134.147 125.2 134.301C125.2 134.455 125.151 134.604 125.061 134.729C124.97 134.853 124.843 134.946 124.697 134.993C123.733 135.541 122.047 135.442 120.805 135.251L119.858 135.119Z" fill="#EBEBEB"/>
<path d="M71.0901 154.341L115.594 180.039C116.042 180.265 116.537 180.383 117.039 180.383C117.541 180.383 118.036 180.265 118.484 180.039L153.142 160.023C153.936 159.563 153.936 158.818 153.142 158.381L108.638 132.661C108.19 132.434 107.695 132.316 107.193 132.316C106.691 132.316 106.196 132.434 105.748 132.661L71.0901 152.677C70.2909 153.137 70.2909 153.881 71.0901 154.341Z" fill="#EBEBEB"/>
<path d="M71.4294 157.139L67.8607 155.086C67.7108 155.013 67.546 154.975 67.3791 154.975C67.2121 154.975 67.0474 155.013 66.8974 155.086L64.6588 156.378C64.6044 156.4 64.5579 156.438 64.5251 156.487C64.4924 156.536 64.4749 156.593 64.4749 156.652C64.4749 156.71 64.4924 156.768 64.5251 156.817C64.5579 156.865 64.6044 156.903 64.6588 156.925L64.9708 157.106L63.8378 157.703C63.7009 157.774 63.7174 157.823 63.8378 157.807L65.8301 157.62L68.1837 158.978C68.3336 159.051 68.4984 159.09 68.6653 159.09C68.8323 159.09 68.9971 159.051 69.147 158.978L71.3856 157.681C71.4425 157.665 71.4931 157.631 71.5307 157.586C71.5682 157.54 71.5909 157.484 71.5957 157.425C71.6004 157.366 71.587 157.307 71.5573 157.256C71.5276 157.205 71.483 157.164 71.4294 157.139Z" fill="#EBEBEB"/>
<path d="M72.4473 162.476L72.1901 161.929C71.8453 161.212 71.6427 160.238 72.628 159.668C73.0002 159.479 73.4119 159.381 73.8294 159.381C74.2469 159.381 74.6585 159.479 75.0308 159.668C75.5781 159.969 75.6657 160.413 75.3756 160.763C76.0169 160.594 76.6977 160.664 77.2913 160.96C77.4368 161.009 77.5633 161.102 77.653 161.227C77.7426 161.352 77.7908 161.502 77.7908 161.655C77.7908 161.809 77.7426 161.958 77.653 162.083C77.5633 162.208 77.4368 162.301 77.2913 162.35C76.328 162.898 74.6422 162.799 73.3942 162.607L72.4473 162.476Z" fill="#EBEBEB"/>
<path d="M58.3644 160.024C58.8123 159.798 59.3073 159.68 59.8093 159.68C60.3113 159.68 60.8063 159.798 61.2543 160.024L105.753 185.716C106.552 186.176 106.552 186.926 105.753 187.386L96.6727 192.629L49.2949 165.262L58.3644 160.024Z" fill="#EBEBEB"/>
<path d="M107.817 154.107L82.4856 160.911L115.605 180.035C116.053 180.262 116.548 180.38 117.05 180.38C117.552 180.38 118.047 180.262 118.495 180.035L119.212 179.619L133.503 158.65L103.153 164.605L107.817 154.107Z" fill="#E0E0E0"/>
<path d="M120.291 139.393L108.638 132.661C108.19 132.434 107.695 132.316 107.193 132.316C106.691 132.316 106.196 132.434 105.748 132.661L92.7209 140.187C93.3175 141.32 94.5491 142.376 96.4155 143.29C101.889 145.907 110.8 145.907 116.289 143.29C118.588 142.196 119.918 140.816 120.291 139.393Z" fill="#E0E0E0"/>
<path opacity="0.2" d="M176.486 137.024L118.074 103.286C117.627 103.059 117.133 102.941 116.632 102.941C116.13 102.941 115.636 103.059 115.189 103.286L39.1089 147.226C38.3153 147.686 38.3153 148.431 39.1089 148.868L51.4569 155.984L97.5375 182.601C97.9846 182.828 98.4787 182.946 98.9798 182.946C99.4809 182.946 99.975 182.828 100.422 182.601L168.905 143.034L176.481 138.655C177.285 138.234 177.285 137.484 176.486 137.024Z" fill="white"/>
<path d="M176.628 136.784L128.331 108.869L118.216 103.046C117.727 102.795 117.184 102.664 116.634 102.664C116.084 102.664 115.542 102.795 115.052 103.046L38.9721 146.986C38.7553 147.069 38.5688 147.217 38.4373 147.408C38.3058 147.6 38.2354 147.827 38.2354 148.059C38.2354 148.291 38.3058 148.518 38.4373 148.71C38.5688 148.901 38.7553 149.048 38.9721 149.132L51.3201 156.247L97.4172 182.881C97.9065 183.132 98.4488 183.264 98.999 183.264C99.5492 183.264 100.091 183.132 100.581 182.881L169.059 143.313L176.639 138.935C176.856 138.85 177.041 138.702 177.172 138.51C177.303 138.318 177.373 138.091 177.373 137.859C177.373 137.627 177.303 137.4 177.172 137.208C177.041 137.016 176.856 136.868 176.639 136.784H176.628ZM176.349 138.453L168.769 142.832L100.291 182.399C99.8853 182.601 99.4384 182.707 98.9853 182.707C98.5322 182.707 98.0853 182.601 97.6799 182.399L51.5993 155.787L39.2567 148.672C39.1249 148.638 39.008 148.561 38.9245 148.454C38.8411 148.346 38.7958 148.214 38.7958 148.078C38.7958 147.942 38.8411 147.81 38.9245 147.702C39.008 147.595 39.1249 147.518 39.2567 147.484L115.337 103.544C115.743 103.342 116.19 103.238 116.643 103.238C117.095 103.238 117.542 103.342 117.948 103.544L128.068 109.373L176.366 137.287C176.497 137.321 176.614 137.398 176.698 137.505C176.781 137.613 176.827 137.745 176.827 137.881C176.827 138.017 176.781 138.149 176.698 138.257C176.614 138.364 176.497 138.441 176.366 138.475L176.349 138.453Z" fill="white"/>
<path d="M150.274 0.19917C151.078 -0.26607 151.735 0.111593 151.735 1.04207V108.644C151.707 109.151 151.56 109.645 151.306 110.085C151.052 110.525 150.699 110.899 150.274 111.178L108.282 135.425L103.356 151.845C102.912 153.334 102.026 153.4 101.38 151.982L96.8698 142.026L84.6094 149.103C83.8048 149.568 83.1479 149.191 83.1479 148.26V40.6586C83.1753 40.1511 83.3219 39.6572 83.5758 39.2169C83.8297 38.7766 84.1838 38.4023 84.6094 38.1244L150.274 0.19917Z" fill="#6A51CA"/>
<path d="M144.91 83.2636C144.86 83.9603 144.646 84.6353 144.285 85.2336C143.925 85.8319 143.428 86.3365 142.836 86.7064L119.765 100.029C118.621 100.685 117.691 100.22 117.691 98.9778C117.743 98.2815 117.957 97.6072 118.318 97.0092C118.678 96.4111 119.174 95.9062 119.765 95.535L142.846 82.2182C143.985 81.5559 144.91 82.0266 144.91 83.2636Z" fill="white"/>
<path d="M140.657 96.5703C140.606 97.2666 140.391 97.9411 140.031 98.5392C139.67 99.1373 139.174 99.6422 138.583 100.013L119.42 111.091C118.276 111.753 117.351 111.283 117.351 110.04C117.402 109.345 117.615 108.671 117.975 108.074C118.334 107.477 118.829 106.973 119.42 106.603L138.605 95.5248C139.748 94.8625 140.657 95.3333 140.657 96.5703Z" fill="white"/>
<path d="M106.093 115.496L106.043 114.85C104.998 117.488 103.422 119.382 101.665 120.395C98.5611 122.19 95.7861 120.597 95.7861 115.846C95.7861 111.369 97.9755 106.459 101.385 104.505C103.624 103.214 105.151 104.166 105.403 104.73V103.635C105.403 103.027 106.021 102.179 106.777 101.741C107.532 101.303 108.156 101.703 108.156 102.639V112.792C108.156 114.084 108.638 114.346 109.322 113.947C110.57 113.23 111.719 110.159 111.719 106.662C111.719 99.9076 108.178 96.7604 102.529 100.023C97.2366 103.077 93.0385 110.794 93.0385 117.537C93.0385 124.155 97.0067 126.678 102.201 123.684C103.693 122.757 105.015 121.582 106.109 120.208C106.7 119.486 107.346 119.267 107.631 119.782C107.915 120.296 107.74 121.358 107.154 122.08C105.77 123.818 104.105 125.313 102.228 126.503C95.7642 130.23 90.8765 126.979 90.8765 118.802C90.8765 110.449 95.9941 101.084 102.557 97.2913C109.119 93.4982 113.93 96.8699 113.93 105.321C113.93 110.444 111.922 114.932 109.07 116.574C107.494 117.439 106.372 117.236 106.093 115.496ZM98.7636 113.958C98.7636 116.574 100.033 118.008 101.971 116.892C103.909 115.775 105.255 112.907 105.255 110.263C105.255 107.718 103.958 106.432 101.944 107.592C100.033 108.676 98.7636 111.451 98.7636 113.958Z" fill="white"/>
<path d="M117.428 34.8249C128.763 28.2568 137.948 33.5879 137.948 46.6748C137.948 59.7617 128.763 75.6839 117.428 82.2191C106.093 88.7544 96.9082 83.4561 96.9082 70.3692C96.9082 57.2823 106.093 41.393 117.428 34.8249Z" fill="white"/>
<path d="M117.428 34.8249C128.763 28.2568 137.948 33.5879 137.948 46.6748C137.948 59.7617 128.763 75.6839 117.428 82.2191C106.093 88.7544 96.9082 83.4561 96.9082 70.3692C96.9082 57.2823 106.093 41.393 117.428 34.8249Z" fill="#F5F5F5"/>
<path d="M109.946 52.2031C109.006 52.3656 108.165 52.8878 107.603 53.6591C106.596 54.9563 106.804 56.8063 107.603 60.9715L110.718 60.4953L109.946 52.2031Z" fill="#263238"/>
<path d="M128.096 46.0731C128.795 45.8862 129.455 45.5747 130.044 45.1535C131.002 44.3489 131.248 45.3725 130.723 46.4562C130.374 47.2288 129.876 47.9245 129.257 48.5033C128.638 49.082 127.91 49.5322 127.116 49.8278C127.083 49.6965 126.218 47.6385 126.218 47.6385L128.096 46.0731Z" fill="#263238"/>
<path d="M111.736 73.6873C111.736 73.6873 105.934 77.4311 104.675 78.7502C103.416 80.0692 102.896 84.1798 102.431 89.2098C102.431 89.2098 109.037 91.9958 119.398 86.8672C129.76 81.7386 130.696 77.6828 130.696 77.6828C130.696 77.6828 129.355 71.5909 128.857 69.8997C128.227 67.7596 127.012 66.2161 119.946 69.4235L111.736 73.6873Z" fill="#263238"/>
<path d="M111.407 60.3147C110.942 60.7143 110.285 60.0028 109.716 59.5594C109.147 59.1161 107.286 58.7986 106.355 61.0044C105.425 63.2102 107.56 65.3229 108.818 65.8648C109.249 66.0459 109.723 66.0978 110.183 66.0143C110.643 65.9307 111.068 65.7152 111.407 65.3941L111.736 73.6863C111.736 73.6863 113.378 76.527 117.866 75.9358C122.354 75.3447 121.418 70.8346 119.951 69.4225V67.7148C119.951 67.7148 122.267 67.5615 123.356 66.9813C123.941 66.6694 125.332 64.6114 126.229 62.4877C128.08 58.5757 128.502 54.139 127.423 49.9481C125.819 43.5552 118.49 45.3121 114.122 49.2311C109.754 53.15 111.407 60.3147 111.407 60.3147Z" fill="#FFA8A7"/>
<path d="M129.36 39.6584C128.966 38.3666 128.725 38.5965 125.556 40.8242C123.136 42.5284 120.435 43.7938 117.576 44.5625C115.343 45.2412 112.289 45.7776 110.718 47.8466C110.042 48.7364 109.698 49.8337 109.743 50.95C109.61 50.8265 109.449 50.7381 109.273 50.6928C108.501 50.4848 107.554 51.0485 107.155 51.9571L109.891 52.6851C109.678 54.2614 109.065 59.1273 109.733 59.5542C110.307 59.9209 111.188 61.1524 111.424 61.0868C112.206 60.8623 112.518 57.3922 112.945 55.2904C113.411 52.8985 113.591 52.0064 114.451 51.9079C117.242 51.4679 119.989 50.7847 122.661 49.8663C125.616 48.7114 126.465 47.7316 126.465 47.7316L128.041 46.73C128.745 45.7098 129.226 44.5529 129.453 43.3345C129.68 42.1162 129.649 40.8637 129.36 39.6584Z" fill="#263238"/>
<path d="M119.94 67.715C119.94 67.715 115.797 67.9941 114.352 67.611C113.52 67.4127 112.8 66.8933 112.349 66.166C112.554 66.927 112.945 67.6249 113.487 68.1967C114.544 69.2913 119.94 68.8206 119.94 68.8206V67.715Z" fill="#F28F8F"/>
<path d="M118.884 62.9043L120.778 63.1068C120.7 63.3877 120.532 63.6352 120.299 63.8113C120.067 63.9873 119.783 64.0821 119.491 64.0811C118.966 64.0263 118.698 63.5009 118.884 62.9043Z" fill="#F28F8F"/>
<path d="M121.621 55.5156L121.894 60.4362L124.505 58.8544L121.621 55.5156Z" fill="#F28F8F"/>
<path d="M118.944 57.2667C118.939 57.5129 118.856 57.7511 118.708 57.9477C118.56 58.1442 118.353 58.2889 118.118 58.3614C118.019 58.3951 117.914 58.4039 117.812 58.3871C117.709 58.3702 117.612 58.3282 117.53 58.2647C117.447 58.2013 117.382 58.1184 117.339 58.0235C117.297 57.9287 117.278 57.8247 117.286 57.721C117.292 57.4743 117.376 57.2359 117.525 57.0395C117.675 56.8431 117.882 56.6985 118.118 56.6263C118.216 56.5923 118.321 56.5832 118.423 56.6C118.526 56.6168 118.622 56.6589 118.705 56.7225C118.787 56.7861 118.852 56.8692 118.893 56.9642C118.935 57.0592 118.953 57.1632 118.944 57.2667Z" fill="#263238"/>
<path d="M118.063 54.3598L116.29 55.8157C116.175 55.5518 116.153 55.2567 116.229 54.979C116.305 54.7014 116.473 54.4578 116.706 54.2886C116.793 54.192 116.901 54.1161 117.021 54.0664C117.141 54.0167 117.271 53.9944 117.401 54.0012C117.531 54.008 117.658 54.0437 117.773 54.1058C117.887 54.1678 117.986 54.2546 118.063 54.3598Z" fill="#263238"/>
<path d="M126.35 52.8263L124.708 52.0163C124.831 51.7629 125.042 51.5629 125.302 51.4532C125.562 51.3436 125.852 51.3316 126.12 51.4197C126.232 51.4933 126.327 51.5894 126.4 51.7018C126.473 51.8141 126.522 51.9404 126.543 52.0726C126.565 52.2048 126.559 52.34 126.526 52.4698C126.492 52.5995 126.432 52.7209 126.35 52.8263Z" fill="#263238"/>
<path d="M125.879 55.171C125.872 55.4167 125.789 55.6542 125.641 55.8504C125.493 56.0466 125.287 56.1918 125.053 56.2657C124.954 56.2994 124.849 56.3082 124.746 56.2913C124.644 56.2745 124.547 56.2325 124.465 56.169C124.382 56.1056 124.317 56.0227 124.274 55.9278C124.232 55.833 124.213 55.729 124.221 55.6253C124.227 55.3786 124.311 55.1402 124.46 54.9438C124.609 54.7473 124.817 54.6028 125.053 54.5306C125.151 54.4965 125.256 54.4875 125.358 54.5043C125.461 54.5211 125.557 54.5632 125.639 54.6268C125.721 54.6904 125.786 54.7735 125.828 54.8685C125.87 54.9635 125.888 55.0675 125.879 55.171Z" fill="#263238"/>
</svg>
