<svg width="215" height="185" viewBox="0 0 215 185" fill="none" xmlns="http://www.w3.org/2000/svg">
<g clip-path="url(#clip0_2440_54183)">
<path d="M104.095 184.921C141.198 184.921 171.275 181.124 171.275 176.441C171.275 171.758 141.198 167.961 104.095 167.961C66.9925 167.961 36.915 171.758 36.915 176.441C36.915 181.124 66.9925 184.921 104.095 184.921Z" fill="#CDC5ED"/>
<path d="M142.115 31.5998L134.985 35.6098L140.395 48.0098L125.715 55.5498C134.935 60.2398 140.755 70.2698 139.555 81.1598C138.465 91.1098 131.805 99.0898 123.025 102.35L112.835 115.91L123.565 157C141.845 140.06 166.495 111.29 169.435 84.4598C171.845 62.4998 160.475 42.1398 142.115 31.5898V31.5998Z" fill="#6A51CA"/>
<path d="M115.575 105.11C112.125 106.85 108.225 107.83 104.095 107.83C89.9648 107.83 78.5048 96.3705 78.5048 82.2405C78.5048 68.1105 89.9648 56.6505 104.095 56.6505C107.275 56.6505 110.325 57.2405 113.135 58.3005L126.905 49.2105L120.175 37.4705L126.825 32.7105C119.885 29.6805 112.205 27.9805 104.105 27.9805C73.3648 27.9805 48.4548 52.2905 48.4548 82.2805C48.4548 124.15 99.8748 176.39 104.105 176.39C105.615 176.39 113.085 169.78 122.085 159.39L106.935 119.72L115.585 105.13L115.575 105.11Z" fill="#6A51CA"/>
<path d="M145.155 1.5L136.635 21.55" stroke="#6A51CA" stroke-width="3" stroke-miterlimit="10" stroke-linecap="round"/>
<path d="M163.565 16.3594L148.045 27.9594" stroke="#6A51CA" stroke-width="3" stroke-miterlimit="10" stroke-linecap="round"/>
<path d="M118.915 1.66992L124.115 20.5199" stroke="#6A51CA" stroke-width="3" stroke-miterlimit="10" stroke-linecap="round"/>
<path d="M20.745 83.7694C20.915 80.9494 22.725 75.6094 28.905 75.6094C36.105 75.6094 38.385 81.7794 38.335 85.8294C39.435 84.8394 42.195 84.4594 44.255 85.9694C46.935 87.9394 46.775 93.0294 43.925 93.2794C41.075 93.5294 6.46499 93.2794 5.81499 93.2794C5.16499 93.2794 4.40499 89.9494 7.20499 88.2094C9.13499 87.0094 11.125 87.7894 12.415 88.5094C12.005 87.1694 12.375 84.6494 14.465 83.2294C17.045 81.4794 19.755 83.0094 20.755 83.7594L20.745 83.7694Z" fill="#CECFCF" stroke="#7A7A79" stroke-linecap="round" stroke-linejoin="round"/>
<path d="M183.525 87.7395C182.835 87.7395 182.145 87.7895 181.485 87.8795C181.575 87.2695 181.625 86.6495 181.625 86.0195C181.625 78.6995 175.185 72.7695 167.245 72.7695C159.305 72.7695 152.865 78.6995 152.865 86.0195C152.865 86.0395 152.865 86.0495 152.865 86.0695C152.535 86.0395 152.205 86.0195 151.875 86.0195C146.355 86.0195 141.875 90.1495 141.875 95.2295C141.875 98.8895 143.825 99.7695 145.755 99.7695C150.125 99.7695 179.425 99.7695 191.995 99.7695C193.745 99.7695 195.035 98.1695 194.725 96.4395C193.745 91.0495 190.185 87.7295 183.525 87.7295V87.7395Z" fill="#CECFCF" stroke="#8E8E8E" stroke-linecap="round" stroke-linejoin="round"/>
<path d="M157.845 124.73H180.545" stroke="#836ED3" stroke-linecap="round" stroke-linejoin="round"/>
<path d="M174.005 120.98C174.005 118.98 176.925 111.91 184.615 111.91C193.785 111.91 195.365 122.05 195.365 122.05C195.365 122.05 198.345 119.24 202.725 120.21C205.865 120.91 207.935 123.4 208.585 125.19C210.155 129.5 207.445 129.92 205.455 129.92H197.175" stroke="#836ED3" stroke-linecap="round" stroke-linejoin="round"/>
<path d="M184.065 132.639L189.505 127.199" stroke="#836ED3" stroke-linecap="round" stroke-linejoin="round"/>
<path d="M184.065 127.199L189.505 132.639" stroke="#836ED3" stroke-linecap="round" stroke-linejoin="round"/>
<path d="M32.645 65.6602H41.655" stroke="#9C8BDC" stroke-linecap="round" stroke-linejoin="round"/>
<path d="M37.155 61.1504V70.1604" stroke="#9C8BDC" stroke-linecap="round" stroke-linejoin="round"/>
<path d="M210.135 112.289C212.234 112.289 213.935 110.588 213.935 108.489C213.935 106.391 212.234 104.689 210.135 104.689C208.036 104.689 206.335 106.391 206.335 108.489C206.335 110.588 208.036 112.289 210.135 112.289Z" stroke="#9C8BDC" stroke-linecap="round" stroke-linejoin="round"/>
<path d="M75.155 101.99C68.165 101.99 63.675 106.83 61.095 112.35C63.125 98.3802 54.785 89.4902 42.605 89.4902C31.185 89.4902 25.125 100.11 24.785 107.49C24.615 111.08 25.255 114.49 25.795 115.76C22.945 113.53 19.105 112.23 16.025 113.4C12.445 114.76 8.53496 118.39 10.065 124.98C5.49496 123.4 1.08496 125.25 1.08496 130.46C1.08496 131.44 2.26496 132.72 4.37496 132.67C14.595 132.41 37.625 132.29 41.985 132.29C49.745 132.29 70.425 132.67 77.075 132.67C86.085 132.67 91.265 125.81 91.265 117.84C91.265 110.96 85.235 102 75.165 102L75.155 101.99Z" fill="#DAD4F2" stroke="#C1B7E8" stroke-linecap="round" stroke-linejoin="round"/>
</g>
<defs>
<clipPath id="clip0_2440_54183">
<rect width="213.85" height="184.92" fill="white" transform="translate(0.574951)"/>
</clipPath>
</defs>
</svg>
