<svg width="320" height="212" viewBox="0 0 320 212" fill="none" xmlns="http://www.w3.org/2000/svg">
<g clip-path="url(#clip0_3890_227362)">
<path d="M194.544 164.51L174.225 164.357C173.325 164.351 172.59 163.615 172.597 162.705C172.604 161.805 173.34 161.071 174.25 161.077L194.569 161.23L194.544 164.51Z" fill="#ECEDEB" stroke="#252526" stroke-linejoin="round"/>
<path d="M193.39 164.9H206.84C207.177 164.9 207.45 164.627 207.45 164.29V161.16C207.45 160.824 207.177 160.55 206.84 160.55H193.39C193.053 160.55 192.78 160.824 192.78 161.16V164.29C192.78 164.627 193.053 164.9 193.39 164.9Z" fill="#A0A0A0" stroke="#252526" stroke-linejoin="round"/>
<path d="M73.43 98.1602C43.72 98.1602 19.63 122.25 19.63 151.96C19.63 181.67 43.72 205.76 73.43 205.76C103.14 205.76 127.23 181.67 127.23 151.96C127.23 122.25 103.14 98.1602 73.43 98.1602ZM73.43 196.59C48.78 196.59 28.79 176.61 28.79 151.95C28.79 127.29 48.77 107.31 73.43 107.31C98.09 107.31 118.07 127.29 118.07 151.95C118.07 176.61 98.09 196.59 73.43 196.59Z" fill="#383838" stroke="#252526" stroke-linejoin="round"/>
<path d="M244.33 98.1602C214.62 98.1602 190.53 122.25 190.53 151.96C190.53 181.67 214.62 205.76 244.33 205.76C274.04 205.76 298.13 181.67 298.13 151.96C298.13 122.25 274.04 98.1602 244.33 98.1602ZM244.33 196.59C219.68 196.59 199.69 176.61 199.69 151.95C199.69 127.29 219.67 107.31 244.33 107.31C268.99 107.31 288.97 127.29 288.97 151.95C288.97 176.61 268.99 196.59 244.33 196.59Z" fill="#383838" stroke="#252526" stroke-linejoin="round"/>
<path d="M201.59 53.651C205.48 53.651 212.68 53.651 216.28 53.081C219.88 52.511 224.71 52.041 225.19 53.081C225.67 54.121 225.85 54.881 223.01 57.251C220.17 59.621 217.32 60.761 216.09 61.701C214.86 62.651 207.28 63.531 202.4 61.571C197.51 59.611 193.16 56.771 191.64 56.681C190.12 56.591 185.95 57.671 184.53 57.601C183.11 57.531 182.73 55.821 184.53 54.781C186.33 53.741 198.27 53.651 201.59 53.641V53.651Z" fill="#9C8BDC" stroke="#252526" stroke-linejoin="round"/>
<path d="M181.28 158.74C181.28 158.74 236.56 152.24 238.41 151.96C240.26 151.68 241.33 152.8 241.48 153.62C241.63 154.44 241.17 155.51 239.33 156.13C237.49 156.75 182.2 165.04 182.2 165.04L181.28 158.74Z" fill="#ECEDEB" stroke="#252526" stroke-linejoin="round"/>
<path d="M115.39 64.8501C115.39 64.8501 118.11 57.4901 118.42 56.4601C118.73 55.4301 118.36 55.2301 116.9 54.6201C115.44 54.0101 108.69 51.7501 107.26 51.1401C105.83 50.5301 102.35 49.3001 101.32 49.1901C100.29 49.0801 99.17 49.0901 97.53 49.1901C95.89 49.2901 93.47 49.5001 94.22 51.5401C94.97 53.5901 95.19 54.5601 96.12 54.2301C97.8 53.6201 100.57 53.5401 102.11 54.0701C103.33 54.4901 108.48 56.4801 109.61 56.9801C110.74 57.4801 110.94 57.5901 110.53 58.5101C110.12 59.4301 108.88 62.9601 108.88 62.9601L115.38 64.8501H115.39Z" fill="#7A7A79" stroke="#252526" stroke-linejoin="round"/>
<path d="M174.37 178.37C183.013 178.37 190.02 171.364 190.02 162.72C190.02 154.077 183.013 147.07 174.37 147.07C165.727 147.07 158.72 154.077 158.72 162.72C158.72 171.364 165.727 178.37 174.37 178.37Z" fill="#ECEDEB" stroke="#252526" stroke-linejoin="round"/>
<path d="M245.3 150.589C244.61 149.799 203.66 105.669 196.71 98.1792C202.01 80.2992 206.8 64.1792 206.8 64.1792C207.26 62.6392 207.44 62.6492 205.96 62.4792C204.85 62.3492 203.28 61.8792 202.12 61.4492C201.66 62.9892 194.95 85.1792 194.65 86.0992C194.34 87.0192 194.5 87.9392 192.81 87.3292C191.12 86.7192 116.28 67.8292 115.05 67.2092C115.05 67.2092 115.22 66.1592 115.4 64.8492C115.42 64.7392 108.1 62.7392 107.58 62.6092C107 62.4592 105.31 68.1692 104.3 70.8992C101.63 78.1592 98.73 86.0392 95.84 93.2192C92.48 101.549 89.12 109.879 85.76 118.209C82.94 125.199 80.12 132.189 77.29 139.169C76.02 142.309 74.85 145.519 73.44 148.599C72.18 151.359 71.41 153.049 72.41 153.589C73.2 154.009 74.1 154.539 75.48 151.949C76.86 149.369 104.96 95.3092 105.58 94.2392C106.19 93.1592 107.42 93.0092 108.5 94.2392C109.57 95.4692 152.11 157.509 153.34 159.659C154.57 161.809 160.14 169.199 160.14 169.199C160.14 169.199 157.74 164.249 159.17 159.039C160.6 153.819 163.37 151.599 163.37 151.599C163.37 151.599 120.62 88.7092 118.78 85.9492C116.94 83.1892 113.41 79.1892 113.25 77.0392C113.09 74.8892 115.21 73.6592 118.07 74.2792C120.93 74.8892 189.26 90.3992 190.8 91.0192C192.34 91.6292 192.8 91.7892 192.34 93.4792C191.88 95.1692 182.67 123.729 182.36 124.649C182.21 125.099 182.2 125.289 182.08 125.499L175.08 147.099C175.86 147.139 176.56 147.229 177.24 147.339C179.34 147.649 181.7 148.889 181.7 148.889C181.7 148.889 187.25 130.169 195.05 103.829C202.23 111.169 240.17 149.989 242.08 151.959C244.18 154.139 244.83 153.669 245.32 153.339C245.81 153.019 246.79 152.289 245.32 150.589H245.3Z" fill="#ECEDEB" stroke="#252526" stroke-linejoin="round"/>
<path d="M73.43 164.01C80.085 164.01 85.48 158.615 85.48 151.96C85.48 145.305 80.085 139.91 73.43 139.91C66.775 139.91 61.38 145.305 61.38 151.96C61.38 158.615 66.775 164.01 73.43 164.01Z" fill="#ECEDEB" stroke="#252526" stroke-linejoin="round"/>
<path d="M244.33 164.01C250.985 164.01 256.38 158.615 256.38 151.96C256.38 145.305 250.985 139.91 244.33 139.91C237.675 139.91 232.28 145.305 232.28 151.96C232.28 158.615 237.675 164.01 244.33 164.01Z" fill="#ECEDEB" stroke="#252526" stroke-linejoin="round"/>
<path d="M154.195 161.248L174.515 161.096C175.415 161.089 176.16 161.813 176.167 162.723C176.174 163.623 175.449 164.369 174.539 164.375L154.22 164.528L154.195 161.248Z" fill="#ECEDEB" stroke="#252526" stroke-linejoin="round"/>
<path d="M155.36 160.551H141.91C141.573 160.551 141.3 160.824 141.3 161.161V164.291C141.3 164.628 141.573 164.901 141.91 164.901H155.36C155.697 164.901 155.97 164.628 155.97 164.291V161.161C155.97 160.824 155.697 160.551 155.36 160.551Z" fill="#A0A0A0" stroke="#252526" stroke-linejoin="round"/>
<path d="M154.29 52.2098C154.46 48.2598 156.93 45.1198 159.96 45.1198V45.0998C156.93 45.0998 154.45 41.9598 154.29 38.0098C154.12 41.9498 151.66 45.0898 148.64 45.0998V45.1298C151.66 45.1398 154.13 48.2798 154.29 52.2198V52.2098Z" fill="#6A51CA" stroke="#252526" stroke-linecap="round" stroke-linejoin="round"/>
<path d="M313.43 114.43C313.6 110.48 316.07 107.34 319.1 107.34V107.32C316.07 107.32 313.59 104.18 313.43 100.23C313.26 104.17 310.8 107.31 307.78 107.32V107.35C310.8 107.36 313.27 110.5 313.43 114.44V114.43Z" fill="#6A51CA" stroke="#252526" stroke-linecap="round" stroke-linejoin="round"/>
<path d="M6.15 149.3C6.32 145.35 8.79 142.21 11.82 142.21V142.19C8.79 142.19 6.31 139.05 6.15 135.1C5.98 139.04 3.52 142.18 0.5 142.19V142.22C3.52 142.23 5.99 145.37 6.15 149.31V149.3Z" fill="#6A51CA" stroke="#252526" stroke-linecap="round" stroke-linejoin="round"/>
<path d="M197.74 11.28C197.87 8.28 199.75 5.9 202.05 5.9V5.88C199.75 5.88 197.87 3.5 197.74 0.5C197.61 3.49 195.74 5.87 193.45 5.88V5.9C195.74 5.91 197.62 8.29 197.74 11.28Z" fill="#6A51CA" stroke="#252526" stroke-linecap="round" stroke-linejoin="round"/>
<path d="M284.65 211.149C284.78 208.149 286.66 205.769 288.96 205.769V205.749C286.66 205.749 284.78 203.369 284.65 200.369C284.52 203.359 282.65 205.739 280.36 205.749V205.769C282.65 205.779 284.53 208.159 284.65 211.149Z" fill="#6A51CA" stroke="#252526" stroke-linecap="round" stroke-linejoin="round"/>
<path d="M252.07 63.0007C252.2 60.0007 254.08 57.6207 256.38 57.6207V57.6007C254.08 57.6007 252.2 55.2207 252.07 52.2207C251.94 55.2107 250.07 57.5907 247.78 57.6007V57.6207C250.07 57.6307 251.95 60.0107 252.07 63.0007Z" fill="#6A51CA" stroke="#252526" stroke-linecap="round" stroke-linejoin="round"/>
<path d="M134.36 207.38C134.49 204.38 136.37 202 138.67 202V201.98C136.37 201.98 134.49 199.6 134.36 196.6C134.23 199.59 132.36 201.97 130.07 201.98V202C132.36 202.01 134.24 204.39 134.36 207.38Z" fill="#6A51CA" stroke="#252526" stroke-linecap="round" stroke-linejoin="round"/>
<path d="M170.07 112.719C170.2 109.719 172.08 107.339 174.38 107.339V107.319C172.08 107.319 170.2 104.939 170.07 101.939C169.94 104.929 168.07 107.309 165.78 107.319V107.339C168.07 107.349 169.95 109.729 170.07 112.719Z" fill="#6A51CA" stroke="#252526" stroke-linecap="round" stroke-linejoin="round"/>
<path d="M118.06 20.6296C118.19 17.6296 120.07 15.2496 122.37 15.2496V15.2296C120.07 15.2296 118.19 12.8496 118.06 9.84961C117.93 12.8396 116.06 15.2196 113.77 15.2296V15.2496C116.06 15.2596 117.94 17.6396 118.06 20.6296Z" fill="#6A51CA" stroke="#252526" stroke-linecap="round" stroke-linejoin="round"/>
<path d="M57.69 74.1502C57.8 71.5802 59.41 69.5402 61.38 69.5402V69.5201C59.41 69.5201 57.8 67.4802 57.69 64.9102C57.58 67.4802 55.98 69.5201 54.01 69.5201V69.5402C55.98 69.5402 57.58 71.5902 57.69 74.1502Z" fill="#6A51CA" stroke="#252526" stroke-linecap="round" stroke-linejoin="round"/>
<path d="M261.8 135.09C261.91 132.52 263.52 130.48 265.49 130.48V130.46C263.52 130.46 261.91 128.42 261.8 125.85C261.69 128.42 260.09 130.46 258.12 130.46V130.48C260.09 130.48 261.69 132.53 261.8 135.09Z" fill="#6A51CA" stroke="#252526" stroke-linecap="round" stroke-linejoin="round"/>
<path d="M217.17 190.25C217.28 187.68 218.89 185.64 220.86 185.64V185.62C218.89 185.62 217.28 183.58 217.17 181.01C217.06 183.58 215.46 185.62 213.49 185.62V185.64C215.46 185.64 217.06 187.69 217.17 190.25Z" fill="#6A51CA" stroke="#252526" stroke-linecap="round" stroke-linejoin="round"/>
<path d="M60.76 182.99C60.87 180.42 62.48 178.38 64.45 178.38V178.36C62.48 178.36 60.87 176.32 60.76 173.75C60.65 176.32 59.05 178.36 57.08 178.36V178.38C59.05 178.38 60.65 180.43 60.76 182.99Z" fill="#6A51CA" stroke="#252526" stroke-linecap="round" stroke-linejoin="round"/>
</g>
<defs>
<clipPath id="clip0_3890_227362">
<rect width="319.6" height="211.65" fill="white"/>
</clipPath>
</defs>
</svg>
