<svg width="133" height="151" viewBox="0 0 133 151" fill="none" xmlns="http://www.w3.org/2000/svg">
<path d="M73.341 91.6611H62.2397V146.344H73.341V91.6611Z" fill="#252526" stroke="#252526" stroke-linecap="round" stroke-linejoin="round"/>
<path d="M55.6685 7.58252L8.55441 80.2213C2.32195 89.8308 9.2225 102.515 20.6716 102.515H114.9C126.349 102.515 133.24 89.8217 127.017 80.2213L79.9028 7.58252C74.2103 -1.19417 61.3702 -1.19417 55.6777 7.58252H55.6685Z" fill="#6A51CA" stroke="#252526" stroke-linecap="round" stroke-linejoin="round"/>
<path d="M67.7856 89.1445C70.9144 89.1445 73.4507 86.6082 73.4507 83.4795C73.4507 80.3508 70.9144 77.8145 67.7856 77.8145C64.6569 77.8145 62.1206 80.3508 62.1206 83.4795C62.1206 86.6082 64.6569 89.1445 67.7856 89.1445Z" fill="#F4F4F4" stroke="#252526" stroke-miterlimit="10"/>
<path d="M74.8142 33.3085C74.8142 29.428 71.6659 26.2798 67.7855 26.2798C63.9051 26.2798 60.7568 29.428 60.7568 33.3085C60.7568 33.7203 60.8026 34.123 60.8667 34.5165L64.1339 70.1266H64.1888C64.4725 71.8655 65.9734 73.1925 67.7947 73.1925C69.8172 73.1925 71.4554 71.5543 71.4554 69.5318L74.7135 34.544C74.7867 34.1413 74.8325 33.7294 74.8325 33.3085H74.8142Z" fill="#F4F4F4" stroke="#252526" stroke-miterlimit="10"/>
<path d="M0.519043 146.353H99.7442" stroke="#252526" stroke-linecap="round" stroke-linejoin="round"/>
<path d="M106.983 146.353H132.481" stroke="#252526" stroke-linecap="round" stroke-linejoin="round"/>
<path d="M43.6705 144.102C43.6705 147.095 40.2019 147.635 35.9188 147.635C31.6357 147.635 29.4575 148.174 29.4575 145.182C29.4575 142.189 31.6357 140.276 35.9188 140.276C40.2019 140.276 43.6705 141.109 43.6705 144.111V144.102Z" fill="#8E8E8E" stroke="#252526" stroke-linecap="round" stroke-linejoin="round"/>
<path d="M127.484 144.102C127.484 147.094 124.015 147.634 119.732 147.634C115.449 147.634 111.98 147.104 111.98 144.102C111.98 141.1 115.449 137.814 119.732 137.814C124.015 137.814 127.484 141.109 127.484 144.102Z" fill="#8E8E8E" stroke="#252526" stroke-linecap="round" stroke-linejoin="round"/>
<path d="M64.8662 144.788C64.8662 149.282 59.6588 150.087 53.2341 150.087C46.8095 150.087 41.6021 149.282 41.6021 144.788C41.6021 140.295 46.8095 135.353 53.2341 135.353C59.6588 135.353 64.8662 140.285 64.8662 144.788Z" fill="#8E8E8E" stroke="#252526" stroke-linecap="round" stroke-linejoin="round"/>
</svg>
