<svg width="234" height="253" viewBox="0 0 234 253" fill="none" xmlns="http://www.w3.org/2000/svg">
<g clip-path="url(#clip0_2230_190694)">
<path d="M147.72 243.78C148.66 243.4 151.93 243.74 153.77 243.69C157.3 243.59 158.19 242.64 158.31 244.05C158.48 246.02 158.69 250.66 158.31 251.51C157.93 252.36 153.64 251.99 148.47 252.16C144.31 252.29 136.02 252.91 134.95 250.84C133.88 248.77 138.85 247.18 140.66 246.79C144.14 246.04 147.71 243.78 147.71 243.78H147.72Z" fill="#ECEDEB" stroke="#252526" stroke-linecap="round" stroke-linejoin="round"/>
<path d="M157.491 243.28C157.431 242.14 157.301 240.92 157.121 239.8L149.241 240.25C149.141 241.36 149.171 242.49 149.341 243.6C149.341 243.6 151.551 243.82 153.771 243.76C155.991 243.7 157.491 243.28 157.491 243.28Z" fill="#ECEDEB" stroke="#252526" stroke-linecap="round" stroke-linejoin="round"/>
<path d="M116.75 201.06C117.54 200.42 120.76 199.78 122.5 199.19C125.84 198.05 126.42 196.88 126.95 198.2C127.69 200.03 129.26 204.41 129.15 205.33C129.04 206.25 124.83 207.17 119.94 208.85C116.01 210.2 108.27 213.24 106.63 211.58C105 209.92 109.28 206.94 110.89 206.03C113.99 204.28 116.74 201.07 116.74 201.07L116.75 201.06Z" fill="#ECEDEB" stroke="#252526" stroke-linecap="round" stroke-linejoin="round"/>
<path d="M112.875 213.177L129.845 213.049C130.595 213.044 131.219 213.649 131.225 214.409C131.23 215.159 130.625 215.784 129.865 215.789L112.896 215.917L112.875 213.177Z" fill="#D9DAD8" stroke="#252526" stroke-linejoin="round"/>
<path d="M113.849 212.59H102.619C102.338 212.59 102.109 212.818 102.109 213.1V215.71C102.109 215.992 102.338 216.22 102.619 216.22H113.849C114.131 216.22 114.359 215.992 114.359 215.71V213.1C114.359 212.818 114.131 212.59 113.849 212.59Z" fill="#A0A0A0" stroke="#252526" stroke-linejoin="round"/>
<path d="M45.43 160.49C20.62 160.49 0.5 180.61 0.5 205.42C0.5 230.23 20.62 250.35 45.43 250.35C70.24 250.35 90.36 230.23 90.36 205.42C90.36 180.61 70.24 160.49 45.43 160.49ZM45.43 242.7C24.84 242.7 8.15 226.01 8.15 205.42C8.15 184.83 24.84 168.14 45.43 168.14C66.02 168.14 82.71 184.83 82.71 205.42C82.71 226.01 66.02 242.7 45.43 242.7Z" fill="#383838" stroke="#252526" stroke-linejoin="round"/>
<path d="M188.151 160.49C163.341 160.49 143.221 180.61 143.221 205.42C143.221 230.23 163.341 250.35 188.151 250.35C212.961 250.35 233.081 230.23 233.081 205.42C233.081 180.61 212.961 160.49 188.151 160.49ZM188.151 242.7C167.561 242.7 150.871 226.01 150.871 205.42C150.871 184.83 167.561 168.14 188.151 168.14C208.741 168.14 225.431 184.83 225.431 205.42C225.431 226.01 208.741 242.7 188.151 242.7Z" fill="#383838" stroke="#252526" stroke-linejoin="round"/>
<path d="M152.459 123.31C155.709 123.31 161.719 123.31 164.729 122.84C167.739 122.37 171.769 121.97 172.169 122.84C172.569 123.71 172.719 124.34 170.349 126.32C167.979 128.3 165.599 129.25 164.569 130.04C163.539 130.83 157.219 131.57 153.139 129.93C149.059 128.3 145.419 125.92 144.149 125.84C142.879 125.76 139.399 126.67 138.209 126.61C137.019 126.55 136.709 125.13 138.209 124.26C139.709 123.39 149.689 123.32 152.459 123.31Z" fill="#806EB1" stroke="#252526" stroke-linejoin="round"/>
<path d="M135.5 211.08C135.5 211.08 181.67 205.65 183.21 205.42C184.75 205.19 185.65 206.12 185.78 206.81C185.91 207.5 185.52 208.39 183.98 208.91C182.44 209.42 136.27 216.35 136.27 216.35L135.5 211.09V211.08Z" fill="#ECEDEB" stroke="#252526" stroke-linejoin="round"/>
<path d="M80.4698 132.67C80.4698 132.67 82.7398 126.52 82.9998 125.67C83.2598 124.82 82.9498 124.64 81.7298 124.13C80.5198 123.62 74.8698 121.74 73.6798 121.22C72.4898 120.7 69.5798 119.68 68.7198 119.6C67.8598 119.52 66.9198 119.51 65.5598 119.6C64.1998 119.69 62.1698 119.86 62.7998 121.57C63.4298 123.28 63.6098 124.1 64.3898 123.81C65.7898 123.3 68.1098 123.23 69.3898 123.67C70.4098 124.02 74.7098 125.68 75.6498 126.1C76.5898 126.52 76.7598 126.61 76.4198 127.38C76.0798 128.15 75.0398 131.1 75.0398 131.1L80.4698 132.68V132.67Z" fill="#7A7A79" stroke="#252526" stroke-linejoin="round"/>
<path d="M129.73 227.47C136.949 227.47 142.8 221.618 142.8 214.4C142.8 207.182 136.949 201.33 129.73 201.33C122.512 201.33 116.66 207.182 116.66 214.4C116.66 221.618 122.512 227.47 129.73 227.47Z" fill="#ECEDEB" stroke="#252526" stroke-linejoin="round"/>
<path d="M188.97 204.27C188.4 203.61 154.19 166.75 148.39 160.5C152.81 145.57 156.81 132.1 156.81 132.1C157.19 130.82 157.34 130.83 156.11 130.68C155.18 130.57 153.87 130.18 152.9 129.82C152.52 131.1 146.92 149.64 146.66 150.41C146.4 151.18 146.53 151.95 145.12 151.44C143.71 150.93 81.2103 135.15 80.1803 134.64C80.1803 134.64 80.3203 133.76 80.4703 132.67C80.4803 132.58 74.3703 130.91 73.9403 130.8C73.4503 130.67 72.0403 135.44 71.2003 137.73C68.9703 143.79 66.5503 150.38 64.1403 156.37C61.3403 163.33 58.5303 170.29 55.7203 177.24C53.3603 183.08 51.0103 188.91 48.6403 194.75C47.5803 197.37 46.6003 200.05 45.4203 202.63C44.3603 204.94 43.7203 206.35 44.5603 206.8C45.2203 207.15 45.9703 207.59 47.1203 205.43C48.2703 203.27 71.7403 158.13 72.2603 157.23C72.7803 156.33 73.8003 156.2 74.7003 157.23C75.6003 158.26 111.12 210.07 112.15 211.87C113.18 213.67 117.83 219.84 117.83 219.84C117.83 219.84 115.83 215.71 117.02 211.35C118.22 206.99 120.53 205.14 120.53 205.14C120.53 205.14 84.8303 152.62 83.2903 150.31C81.7503 148 78.8003 144.67 78.6703 142.87C78.5403 141.07 80.3103 140.05 82.7003 140.56C85.0903 141.07 142.16 154.03 143.44 154.54C144.72 155.05 145.11 155.18 144.72 156.59C144.34 158 136.64 181.86 136.38 182.63C136.25 183.01 136.25 183.17 136.14 183.34L130.29 201.38C130.94 201.41 131.52 201.49 132.09 201.58C133.84 201.84 135.81 202.88 135.81 202.88C135.81 202.88 140.44 187.25 146.96 165.25C152.95 171.38 184.64 203.8 186.23 205.44C187.99 207.26 188.53 206.87 188.93 206.6C189.34 206.33 190.16 205.72 188.93 204.3L188.97 204.27Z" fill="#ECEDEB" stroke="#252526" stroke-linejoin="round"/>
<path d="M45.4294 215.49C50.9909 215.49 55.4994 210.982 55.4994 205.42C55.4994 199.859 50.9909 195.35 45.4294 195.35C39.8679 195.35 35.3594 199.859 35.3594 205.42C35.3594 210.982 39.8679 215.49 45.4294 215.49Z" fill="#ECEDEB" stroke="#252526" stroke-linejoin="round"/>
<path d="M188.15 215.49C193.712 215.49 198.22 210.982 198.22 205.42C198.22 199.859 193.712 195.35 188.15 195.35C182.589 195.35 178.08 199.859 178.08 205.42C178.08 210.982 182.589 215.49 188.15 215.49Z" fill="#ECEDEB" stroke="#252526" stroke-linejoin="round"/>
<path d="M146.584 215.903L129.614 215.776C128.864 215.77 128.249 215.156 128.255 214.396C128.26 213.646 128.875 213.03 129.635 213.036L146.605 213.163L146.584 215.903Z" fill="#ECEDEB" stroke="#252526" stroke-linejoin="round"/>
<path d="M145.621 216.22H156.851C157.133 216.22 157.361 215.991 157.361 215.71V213.1C157.361 212.818 157.133 212.59 156.851 212.59H145.621C145.34 212.59 145.111 212.818 145.111 213.1V215.71C145.111 215.991 145.34 216.22 145.621 216.22Z" fill="#5F6060" stroke="#252526" stroke-linejoin="round"/>
<path d="M187.42 80.67C187.23 75.38 186.98 66.59 184.43 58.56C182.54 52.62 180.29 49.04 177.62 47.94C173.88 46.4 165.97 44.34 161.41 44.37L150.03 47.61C150.03 47.61 141.53 48.11 132.12 57.33C122.71 66.55 117.31 91.16 116.47 91.92C114.66 93.57 100.6 101.21 94.5698 104.58C91.4398 106.33 81.6898 112.36 80.6598 113.12C80.0998 113.53 79.6498 114.24 81.5198 115.98C85.4498 119.63 86.2498 122.58 87.9898 121.93C89.2198 121.47 109.92 111.74 113.87 109.38C117.82 107.03 126.71 102.1 128.98 99.13C129.73 98.15 131.75 95.38 131.75 95.38L133.52 95.43C133.49 96.28 133.48 96.65 135.07 97.21C134.92 100.51 134.61 107.39 134.56 108.95C134.5 111.02 134.39 112.02 137.03 113.23C140.72 114.92 156.36 120.38 160.47 121.34C164.47 122.27 167.07 122.56 170.19 122.66C172.69 122.73 177.9 122.42 178.25 121.34C178.5 120.56 179.45 110.51 179.9 105.64C181.87 105.38 183.32 104.89 183.97 104.14C186.59 101.12 187.59 84.83 187.44 80.68L187.42 80.67Z" fill="#ECEDEB" stroke="#252526" stroke-linecap="round" stroke-linejoin="round"/>
<path d="M149.439 41.3301C149.439 41.3301 150.029 42.6301 150.129 45.2901C150.229 47.9501 149.129 47.9101 150.739 47.9401C153.499 47.9801 160.359 46.1101 161.299 44.7401C161.849 43.9501 160.259 43.2101 160.409 38.8801C160.539 35.1201 164.019 31.6401 164.229 29.1901C164.439 26.7401 163.369 24.9101 161.669 25.3801C160.309 25.7601 159.679 27.2401 159.109 28.0901C158.689 28.7301 158.419 28.2601 158.139 27.9701C157.199 27.0301 155.969 24.8301 155.609 23.8901C154.859 21.8701 154.889 20.0701 155.029 18.1401C153.219 17.5301 151.689 15.9301 150.699 14.1201C144.419 17.4701 140.299 18.2801 136.439 18.5101C136.509 21.0701 136.839 24.5601 137.269 27.4201C138.279 34.0801 140.229 37.4501 141.859 39.1501C144.209 41.6001 145.879 41.8101 147.449 41.7101C150.339 41.5201 153.949 38.7301 154.979 37.1901" fill="#ECEDEB"/>
<path d="M149.439 41.3301C149.439 41.3301 150.029 42.6301 150.129 45.2901C150.229 47.9501 149.129 47.9101 150.739 47.9401C153.499 47.9801 160.359 46.1101 161.299 44.7401C161.849 43.9501 160.259 43.2101 160.409 38.8801C160.539 35.1201 164.019 31.6401 164.229 29.1901C164.439 26.7401 163.369 24.9101 161.669 25.3801C160.309 25.7601 159.679 27.2401 159.109 28.0901C158.689 28.7301 158.419 28.2601 158.139 27.9701C157.199 27.0301 155.969 24.8301 155.609 23.8901C154.859 21.8701 154.889 20.0701 155.029 18.1401C153.219 17.5301 151.689 15.9301 150.699 14.1201C144.419 17.4701 140.299 18.2801 136.439 18.5101C136.509 21.0701 136.839 24.5601 137.269 27.4201C138.279 34.0801 140.229 37.4501 141.859 39.1501C144.209 41.6001 145.879 41.8101 147.449 41.7101C150.339 41.5201 153.949 38.7301 154.979 37.1901" stroke="#252526" stroke-linecap="round" stroke-linejoin="round"/>
<path d="M80.3309 114.54C80.3309 114.54 75.2809 115.36 72.8809 117.4C68.8309 120.84 66.9209 123.2 67.7709 125.09C68.6209 126.99 74.4909 128.6 75.3909 127.77C76.4809 126.77 75.7609 126.38 78.1109 124.31C80.4609 122.24 81.2109 124 82.7309 124.06C84.0209 124.11 86.6809 121.7 86.6809 121.7" fill="#ECEDEB"/>
<path d="M80.3309 114.54C80.3309 114.54 75.2809 115.36 72.8809 117.4C68.8309 120.84 66.9209 123.2 67.7709 125.09C68.6209 126.99 74.4909 128.6 75.3909 127.77C76.4809 126.77 75.7609 126.38 78.1109 124.31C80.4609 122.24 81.2109 124 82.7309 124.06C84.0209 124.11 86.6809 121.7 86.6809 121.7" stroke="#252526" stroke-linecap="round" stroke-linejoin="round"/>
<path d="M150.03 47.6099C150.03 47.6099 141.53 48.1099 132.12 57.3299C122.71 66.5499 117.31 91.1599 116.47 91.9199C114.66 93.5699 100.6 101.21 94.5698 104.58C91.4398 106.33 81.6898 112.36 80.6598 113.12C80.0998 113.53 79.6498 114.24 81.5198 115.98C85.4498 119.63 86.2498 122.58 87.9898 121.93C89.2198 121.47 109.92 111.74 113.87 109.38C117.82 107.03 126.71 102.1 128.98 99.1299C129.73 98.1499 131.75 95.3799 131.75 95.3799" stroke="#252526" stroke-linecap="round" stroke-linejoin="round"/>
<path d="M169.77 63.6899C169.77 63.6899 167.87 71.7999 170.18 89.3899" stroke="#252526" stroke-linecap="round" stroke-linejoin="round"/>
<path d="M134.54 87.3999C134.54 87.3999 133.01 85.0099 131.68 84.2799C130.36 83.5499 130.43 85.1899 129.58 85.6599C128.73 86.1299 127 86.2699 125.1 84.5599C123.81 83.3999 122.77 82.3499 121.21 83.3799C119.88 84.2499 119.08 85.8099 119.7 87.5999C120.32 89.3899 125.24 93.6699 127.21 94.5999C129.19 95.5299 133.48 95.4399 133.48 95.4399" stroke="#252526" stroke-linecap="round" stroke-linejoin="round"/>
<path d="M130.47 84.6099C130.47 84.6099 128.33 81.5599 127.1 79.8499C126.25 78.6599 125.83 77.9099 125.16 77.8499C124.49 77.7899 121.06 77.8499 119.29 77.8499C117.52 77.8499 117.41 78.2899 117.85 79.1199C118.29 79.9499 120.96 83.5399 120.96 83.5399C120.96 83.5399 122.19 82.6199 123 83.0399C123.81 83.4599 125.59 84.9999 126.05 85.2599C126.51 85.5199 127.98 86.2699 129.14 85.8299C130.3 85.3899 130.48 84.5999 130.48 84.5999L130.47 84.6099Z" fill="#6A51CA" stroke="#252526" stroke-linecap="round" stroke-linejoin="round"/>
<path d="M137.58 69.0298C137.58 69.0298 136.45 75.9998 135.92 85.9798" stroke="#252526" stroke-linecap="round" stroke-linejoin="round"/>
<path d="M164.28 174.46C163.57 187.26 163.32 193.06 162.38 201.23C161.64 207.6 157.94 237.56 157.78 239.14C157.62 240.73 149.44 240.41 148.03 240.25C146.62 240.09 146.9 238.82 146.9 237.24C146.9 235.66 143.46 190.45 143.2 180.53C142.94 170.61 144.05 133.78 144.05 133.78C144.05 133.78 135.92 140.22 131.7 143.16C130.21 144.2 127.94 145.74 126.33 146.59L99.2598 139.67C99.8498 138.04 100.23 137.41 100.8 136.63C102.58 134.17 106.5 131.35 113.55 126.28C123.19 119.35 135.14 112.02 135.14 112.02C135.14 112.02 136.16 112.84 139.2 114.16C144.53 116.48 154.12 120.07 161.34 121.56C172.68 123.9 177.34 121.97 177.34 121.97C177.34 121.97 175.69 140.88 172.9 150.8C169.81 161.79 164.27 174.48 164.27 174.48L164.28 174.46Z" fill="#9C8BDC" stroke="#252526" stroke-linecap="round" stroke-linejoin="round"/>
<path d="M135.131 97.2402C135.131 97.2402 134.601 106.88 134.541 108.95C134.481 111.02 134.371 112.02 137.011 113.23C140.701 114.92 156.341 120.38 160.451 121.34C164.451 122.27 167.051 122.56 170.171 122.66C172.671 122.73 177.881 122.42 178.231 121.34C178.581 120.26 179.781 105.65 179.781 105.65" stroke="#252526" stroke-linecap="round" stroke-linejoin="round"/>
<path d="M98.4199 144.1C98.4199 144.1 100.5 155.41 103.32 164.54C106.14 173.67 113.2 191.38 113.77 192.79C114.34 194.2 114.71 195.99 115.75 195.61C116.79 195.23 123.19 193.45 124.6 193.16C125.36 193 126.23 192.6 126.23 191.18C126.23 190.14 124.62 172.55 123.47 166.88C121.97 159.54 118.01 148.56 118.01 148.56L98.4199 144.09V144.1Z" fill="#9C8BDC" stroke="#252526" stroke-miterlimit="10"/>
<path d="M118.061 200.48C117.671 199.45 116.561 195.35 116.561 195.35L125.121 193.01C125.121 193.01 126.121 197.42 125.811 197.77C125.811 197.77 124.121 198.56 122.731 199.12C121.341 199.68 118.061 200.48 118.061 200.48Z" fill="#ECEDEB" stroke="#252526" stroke-linecap="round" stroke-linejoin="round"/>
<path d="M161.41 44.3698C165.97 44.3498 173.88 46.4098 177.62 47.9398C180.28 49.0398 182.54 52.6198 184.43 58.5598C186.99 66.5998 187.23 75.3798 187.42 80.6698C187.57 84.8298 186.57 101.12 183.95 104.13C181.62 106.81 169.13 106.17 159.41 103.45C149.69 100.73 137.23 97.9698 135.13 97.2398C133.45 96.6498 133.41 96.4198 133.5 94.9598C133.62 92.9598 134.44 86.8898 134.89 86.1598C135.34 85.4298 153.12 86.8298 157.41 87.3398C165.7 88.3298 174.49 90.2698 174.49 90.2698" stroke="#252526" stroke-linecap="round" stroke-linejoin="round"/>
<path d="M161.56 34.9298C162.64 32.7298 164.1 30.7498 164.23 29.1998C164.44 26.7498 163.37 24.9198 161.67 25.3898C160.31 25.7698 159.68 27.2498 159.11 28.0998C158.69 28.7398 158.42 28.2698 158.14 27.9798C157.2 27.0398 155.97 24.8398 155.61 23.8998C154.86 21.8798 154.89 20.0798 155.03 18.1498C153.22 17.5398 151.69 15.9398 150.7 14.1298C144.42 17.4798 140.3 18.2898 136.44 18.5198C136.44 18.5198 129.85 15.9298 128.16 13.8598C126.47 11.7898 126.65 10.7498 130.23 10.1898C133.81 9.62979 139.17 6.89979 142.47 4.63979C145.77 2.37979 151.62 -0.190208 156.12 0.689792C159.98 1.43979 161.48 4.26979 161.48 4.26979C161.48 4.26979 166.09 4.92979 168.35 10.8598C170.61 16.7898 169.49 24.6798 167.67 27.8798C165.69 31.3598 162.44 32.6698 161.56 34.9498V34.9298Z" fill="#B4B4B4" stroke="#252526" stroke-linecap="round" stroke-linejoin="round"/>
<path d="M145.51 132.59C145.51 132.59 138.22 138.46 131.7 143.15C130.23 144.21 127.94 145.73 126.33 146.58" stroke="#252526" stroke-linecap="round" stroke-linejoin="round"/>
<path d="M164.351 165.15C164.351 167.49 164.401 172.29 164.211 175.7" stroke="#252526" stroke-linecap="round" stroke-linejoin="round"/>
</g>
<defs>
<clipPath id="clip0_2230_190694">
<rect width="233.58" height="252.85" fill="white"/>
</clipPath>
</defs>
</svg>
