<svg width="258" height="258" viewBox="0 0 258 258" fill="none" xmlns="http://www.w3.org/2000/svg">
<g clip-path="url(#clip0_2230_193697)">
<path d="M128.87 231.79C185.833 231.79 232.01 185.613 232.01 128.65C232.01 71.6874 185.833 25.51 128.87 25.51C71.9078 25.51 25.7305 71.6874 25.7305 128.65C25.7305 185.613 71.9078 231.79 128.87 231.79Z" fill="#6A51CA"/>
<path d="M128.869 8C131.078 8 132.869 6.20914 132.869 4C132.869 1.79086 131.078 0 128.869 0C126.66 0 124.869 1.79086 124.869 4C124.869 6.20914 126.66 8 128.869 8Z" fill="#6A51CA"/>
<path d="M128.869 257.74C131.078 257.74 132.869 255.949 132.869 253.74C132.869 251.531 131.078 249.74 128.869 249.74C126.66 249.74 124.869 251.531 124.869 253.74C124.869 255.949 126.66 257.74 128.869 257.74Z" fill="#6A51CA"/>
<path d="M253.74 132.87C255.949 132.87 257.74 131.079 257.74 128.87C257.74 126.661 255.949 124.87 253.74 124.87C251.531 124.87 249.74 126.661 249.74 128.87C249.74 131.079 251.531 132.87 253.74 132.87Z" fill="#6A51CA"/>
<path d="M4 132.87C6.20914 132.87 8 131.079 8 128.87C8 126.661 6.20914 124.87 4 124.87C1.79086 124.87 0 126.661 0 128.87C0 131.079 1.79086 132.87 4 132.87Z" fill="#6A51CA"/>
<path d="M217.17 44.57C219.379 44.57 221.17 42.7791 221.17 40.57C221.17 38.3609 219.379 36.57 217.17 36.57C214.961 36.57 213.17 38.3609 213.17 40.57C213.17 42.7791 214.961 44.57 217.17 44.57Z" fill="#6A51CA"/>
<path d="M40.5703 221.17C42.7795 221.17 44.5703 219.379 44.5703 217.17C44.5703 214.961 42.7795 213.17 40.5703 213.17C38.3612 213.17 36.5703 214.961 36.5703 217.17C36.5703 219.379 38.3612 221.17 40.5703 221.17Z" fill="#6A51CA"/>
<path d="M217.17 221.17C219.379 221.17 221.17 219.379 221.17 217.17C221.17 214.961 219.379 213.17 217.17 213.17C214.961 213.17 213.17 214.961 213.17 217.17C213.17 219.379 214.961 221.17 217.17 221.17Z" fill="#6A51CA"/>
<path d="M40.5703 44.57C42.7795 44.57 44.5703 42.7791 44.5703 40.57C44.5703 38.3609 42.7795 36.57 40.5703 36.57C38.3612 36.57 36.5703 38.3609 36.5703 40.57C36.5703 42.7791 38.3612 44.57 40.5703 44.57Z" fill="#6A51CA"/>
<path d="M175.641 17.09C177.85 17.09 179.641 15.2991 179.641 13.09C179.641 10.8809 177.85 9.09 175.641 9.09C173.431 9.09 171.641 10.8809 171.641 13.09C171.641 15.2991 173.431 17.09 175.641 17.09Z" fill="#6A51CA"/>
<path d="M82.0996 248.65C84.3087 248.65 86.0996 246.859 86.0996 244.65C86.0996 242.441 84.3087 240.65 82.0996 240.65C79.8905 240.65 78.0996 242.441 78.0996 244.65C78.0996 246.859 79.8905 248.65 82.0996 248.65Z" fill="#6A51CA"/>
<path d="M244.65 179.64C246.86 179.64 248.65 177.849 248.65 175.64C248.65 173.431 246.86 171.64 244.65 171.64C242.441 171.64 240.65 173.431 240.65 175.64C240.65 177.849 242.441 179.64 244.65 179.64Z" fill="#6A51CA"/>
<path d="M13.0898 86.1C15.299 86.1 17.0898 84.3091 17.0898 82.1C17.0898 79.8909 15.299 78.1 13.0898 78.1C10.8807 78.1 9.08984 79.8909 9.08984 82.1C9.08984 84.3091 10.8807 86.1 13.0898 86.1Z" fill="#6A51CA"/>
<path d="M243.811 84.07C246.02 84.07 247.811 82.2791 247.811 80.07C247.811 77.8609 246.02 76.07 243.811 76.07C241.601 76.07 239.811 77.8609 239.811 80.07C239.811 82.2791 241.601 84.07 243.811 84.07Z" fill="#6A51CA"/>
<path d="M13.9297 181.67C16.1388 181.67 17.9297 179.879 17.9297 177.67C17.9297 175.461 16.1388 173.67 13.9297 173.67C11.7205 173.67 9.92969 175.461 9.92969 177.67C9.92969 179.879 11.7205 181.67 13.9297 181.67Z" fill="#6A51CA"/>
<path d="M177.67 247.81C179.879 247.81 181.67 246.019 181.67 243.81C181.67 241.601 179.879 239.81 177.67 239.81C175.461 239.81 173.67 241.601 173.67 243.81C173.67 246.019 175.461 247.81 177.67 247.81Z" fill="#6A51CA"/>
<path d="M80.0703 17.93C82.2795 17.93 84.0703 16.1391 84.0703 13.93C84.0703 11.7209 82.2795 9.92999 80.0703 9.92999C77.8612 9.92999 76.0703 11.7209 76.0703 13.93C76.0703 16.1391 77.8612 17.93 80.0703 17.93Z" fill="#6A51CA"/>
<path d="M128.87 154.74C128.87 157.06 128.63 158.46 127.74 160.02C127.6 160.27 127.53 160.59 127.67 160.85C128.2 161.83 130.3 161.42 130.92 161.09" fill="#6A51CA"/>
<path d="M87.0996 149.44C87.0996 149.44 94.8296 194.55 128.87 194.55C162.92 194.55 170.64 149.44 170.64 149.44C170.64 149.44 174.29 136.67 176.65 128.72C179.01 120.77 176.65 112.45 176.65 112.45C176.65 112.45 153.55 104.58 128.87 104.58C104.19 104.58 81.5996 114.44 81.5996 114.44C81.5996 114.44 82.1596 126.23 82.1496 131.51C82.1396 136.79 87.0996 149.44 87.0996 149.44Z" fill="#ECEDEB" stroke="#252526" stroke-width="1.5" stroke-miterlimit="10"/>
<path d="M181.96 94.1C180.14 87.93 174.19 84.6 174.19 84.6C174.19 84.6 174.16 80.4 170.74 75.68C166.57 69.92 160.38 68.49 160.38 68.49C160.38 68.49 158.65 63.6 152.32 61.01C145.99 58.42 141.1 59.57 141.1 59.57C141.1 59.57 136.21 56.12 128.87 56.12C121.53 56.12 116.64 59.57 116.64 59.57C116.64 59.57 111.75 58.42 105.42 61.01C99.0897 63.6 97.3597 68.49 97.3597 68.49C97.3597 68.49 91.1697 69.93 86.9997 75.68C83.5797 80.4 83.5497 84.6 83.5497 84.6C83.5497 84.6 77.5997 87.93 75.7797 94.1C74.5897 98.12 74.3397 103.99 75.0397 109.36C78.4097 107.79 84.5497 105.27 92.3797 103.55C100.04 101.86 114.15 100.93 128.87 100.87C143.59 100.93 157.7 101.87 165.36 103.55C173.19 105.27 179.33 107.8 182.7 109.36C183.4 103.99 183.15 98.12 181.96 94.1Z" fill="#C1B7E8" stroke="#C1B7E8" stroke-miterlimit="10"/>
<path d="M137.319 90.79C137.319 90.79 141.199 82.59 142.209 72.95C142.749 67.75 142.929 65.62 146.809 65.61C149.829 65.61 151.789 68.9 150.689 72.95C147.519 84.6 137.309 90.79 137.309 90.79H137.319Z" fill="#473680" stroke="#473680" stroke-linejoin="round"/>
<path d="M146.799 91.51C146.799 91.51 152.489 86.09 155.249 79.58C157.349 74.63 159.479 73.85 161.809 74.14C164.309 74.44 166.779 77.31 168.289 80.87C169.249 83.12 169.679 86.82 168.289 88.54C167.229 89.86 163.769 92.18 156.439 92.18C152.219 92.18 146.789 91.51 146.789 91.51H146.799Z" fill="#473680" stroke="#473680" stroke-linejoin="round"/>
<path d="M167.43 97.93C167.43 97.93 173.42 97.16 176.93 95.05C178.66 94.01 180.77 98.12 178.18 98.41C175.59 98.7 167.44 97.93 167.44 97.93H167.43Z" fill="#473680" stroke="#473680" stroke-linejoin="round"/>
<path d="M120.42 90.79C120.42 90.79 116.54 82.59 115.53 72.95C114.99 67.75 114.81 65.62 110.93 65.61C107.91 65.61 105.95 68.9 107.05 72.95C110.22 84.6 120.43 90.79 120.43 90.79H120.42Z" fill="#473680" stroke="#473680" stroke-linejoin="round"/>
<path d="M110.939 91.51C110.939 91.51 105.249 86.09 102.489 79.58C100.389 74.63 98.2591 73.85 95.9291 74.14C93.4291 74.44 90.9591 77.31 89.4491 80.87C88.4891 83.12 88.0591 86.82 89.4491 88.54C90.5091 89.86 93.9691 92.18 101.299 92.18C105.519 92.18 110.949 91.51 110.949 91.51H110.939Z" fill="#473680" stroke="#473680" stroke-linejoin="round"/>
<path d="M90.3092 97.93C90.3092 97.93 84.3192 97.16 80.8092 95.05C79.0792 94.01 76.9692 98.12 79.5592 98.41C82.1492 98.7 90.2993 97.93 90.2993 97.93H90.3092Z" fill="#473680" stroke="#473680" stroke-linejoin="round"/>
<path d="M132.08 67.24C131.98 64.75 131.02 62.83 128.87 62.83C126.72 62.83 125.75 64.75 125.66 67.24C125.57 69.73 125.66 78.2 128.87 83.13C132.09 78.2 132.18 69.73 132.08 67.24Z" fill="#473680" stroke="#473680" stroke-linejoin="round"/>
<path d="M176.06 133.23C175.77 129.74 173.41 129.95 167.43 130.06C163.16 130.14 155.39 130.44 148.29 131.98C141.19 133.51 136.2 134.62 128.87 134.62C121.54 134.62 116.54 133.51 109.45 131.98C102.35 130.45 94.5795 130.15 90.3095 130.06C84.3295 129.94 81.9695 129.74 81.6795 133.23C81.4295 136.29 81.6495 142.87 84.3295 146.75C86.0495 149.24 98.0695 157.88 106.73 158.84C115.39 159.8 120.76 158.46 122.68 153.85C124.6 149.25 125.08 145.41 128.87 145.41C132.66 145.41 133.14 149.25 135.06 153.85C136.98 158.45 142.35 159.8 151.01 158.84C159.67 157.88 171.69 149.24 173.41 146.75C176.1 142.87 176.32 136.29 176.06 133.23Z" fill="#9C8BDC"/>
<path d="M83.0193 123.78C83.0193 123.78 82.8993 127.65 83.4593 130.43C81.5993 131.08 81.3893 132.85 81.8193 139.05C80.3293 135.69 79.8893 133.16 79.3193 129.81C78.5693 125.39 78.7193 120.77 78.7193 120.77C78.7193 120.77 80.6693 125.1 83.0093 123.78H83.0193Z" fill="#252526"/>
<path d="M174.719 123.78C174.719 123.78 174.839 127.65 174.279 130.43C176.139 131.08 176.349 132.85 175.919 139.05C177.409 135.69 177.849 133.16 178.419 129.81C179.169 125.39 179.019 120.77 179.019 120.77C179.019 120.77 177.069 125.1 174.729 123.78H174.719Z" fill="#252526"/>
<path d="M145.1 161.81L167.43 127.32L157.23 128.11L136.58 160.01L145.1 161.81Z" fill="#E6E2F6"/>
<path d="M155.75 159.03L175.39 128.72L173.03 127.32L151.07 161.24L155.75 159.03Z" fill="#E6E2F6"/>
<path d="M89.2797 154.27L105.83 128.72H102.11L86.9297 152.15L89.2797 154.27Z" fill="#E6E2F6"/>
<path d="M108.89 162.29L128.87 131.42L118.91 130.02L98.9805 160.78L108.89 162.29Z" fill="#E6E2F6"/>
<path d="M176.06 133.23C175.77 129.74 173.41 129.95 167.43 130.06C163.16 130.14 155.39 130.44 148.29 131.98C141.19 133.51 136.2 134.62 128.87 134.62C121.54 134.62 116.54 133.51 109.45 131.98C102.35 130.45 94.5795 130.15 90.3095 130.06C84.3295 129.94 81.9695 129.74 81.6795 133.23C81.4295 136.29 81.6495 142.87 84.3295 146.75C86.0495 149.24 98.0695 157.88 106.73 158.84C115.39 159.8 120.76 158.46 122.68 153.85C124.6 149.25 125.08 145.41 128.87 145.41C132.66 145.41 133.14 149.25 135.06 153.85C136.98 158.45 142.35 159.8 151.01 158.84C159.67 157.88 171.69 149.24 173.41 146.75C176.1 142.87 176.32 136.29 176.06 133.23V133.23Z" stroke="#252526" stroke-width="1.5" stroke-miterlimit="10"/>
<path d="M165.359 103.55C157.699 101.86 143.589 100.93 128.869 100.87C114.149 100.93 100.039 101.87 92.3791 103.55C84.5491 105.27 78.4091 107.8 75.0391 109.36C75.4491 112.45 76.1691 115.38 77.2191 117.69C80.0991 124.02 81.4691 125.09 83.8391 123.16C85.4191 121.86 87.0091 116.11 96.1091 112.78C101.309 110.88 115.799 109.17 128.869 109.34C141.949 109.18 156.439 110.89 161.629 112.78C170.729 116.11 172.319 121.86 173.899 123.16C176.269 125.1 177.639 124.02 180.519 117.69C181.569 115.38 182.289 112.45 182.699 109.36C179.329 107.79 173.189 105.27 165.359 103.55Z" fill="#252526" stroke="#252526" stroke-miterlimit="10"/>
</g>
<defs>
<clipPath id="clip0_2230_193697">
<rect width="257.74" height="257.74" fill="white"/>
</clipPath>
</defs>
</svg>
