<svg width="211" height="245" viewBox="0 0 211 245" fill="none" xmlns="http://www.w3.org/2000/svg">
<g clip-path="url(#clip0_2230_190873)">
<path d="M87.7534 17.086L0.5 31.8281L16.7015 127.719L103.955 112.977L87.7534 17.086Z" fill="#ECEDEB"/>
<path d="M74.1881 42.2938L26.0898 50.4204L34.2164 98.5187L82.3147 90.3921L74.1881 42.2938Z" fill="#FAFAFA"/>
<path d="M42.4611 51.1482L30.0273 53.249L32.1281 65.6828L44.5619 63.582L42.4611 51.1482Z" stroke="#252526" stroke-miterlimit="10"/>
<path d="M42.2567 61.9433L40.8223 53.4536L32.3326 54.888L33.767 63.3777L42.2567 61.9433Z" fill="#252526"/>
<path d="M71.3752 46.2601L58.9414 48.3608L61.0422 60.7946L73.476 58.6938L71.3752 46.2601Z" stroke="#252526" stroke-miterlimit="10"/>
<path d="M71.1649 57.0658L69.7305 48.5762L61.2408 50.0106L62.6752 58.5002L71.1649 57.0658Z" fill="#252526"/>
<path d="M47.3498 80.0511L34.916 82.1519L37.0168 94.5856L49.4506 92.4848L47.3498 80.0511Z" stroke="#252526" stroke-miterlimit="10"/>
<path d="M47.1434 90.851L45.709 82.3613L37.2193 83.7957L38.6537 92.2854L47.1434 90.851Z" fill="#252526"/>
<path d="M53.257 52.0517L49.0664 52.7598L49.7744 56.9504L53.965 56.2423L53.257 52.0517Z" fill="#252526"/>
<path d="M53.964 56.2446L49.7734 56.9526L50.4815 61.1432L54.6721 60.4352L53.964 56.2446Z" fill="#252526"/>
<path d="M55.9484 67.9511L51.7578 68.6592L52.4658 72.8498L56.6565 72.1418L55.9484 67.9511Z" fill="#252526"/>
<path d="M52.464 72.8642L48.2734 73.5723L48.9815 77.7629L53.1721 77.0548L52.464 72.8642Z" fill="#252526"/>
<path d="M57.675 78.1621L53.4844 78.8701L54.1924 83.0607L58.383 82.3527L57.675 78.1621Z" fill="#252526"/>
<path d="M59.091 86.5385L54.9004 87.2466L55.6084 91.4372L59.799 90.7292L59.091 86.5385Z" fill="#252526"/>
<path d="M62.5656 81.6372L58.375 82.3452L59.083 86.5358L63.2736 85.8278L62.5656 81.6372Z" fill="#252526"/>
<path d="M67.468 85.1318L63.2773 85.8398L63.9854 90.0305L68.176 89.3224L67.468 85.1318Z" fill="#252526"/>
<path d="M72.089 74.1758L67.8984 74.8838L68.6065 79.0744L72.7971 78.3664L72.089 74.1758Z" fill="#252526"/>
<path d="M76.2922 73.4555L72.1016 74.1636L72.8096 78.3542L77.0002 77.6461L76.2922 73.4555Z" fill="#252526"/>
<path d="M76.9894 77.6504L72.7988 78.3584L73.5069 82.549L77.6975 81.841L76.9894 77.6504Z" fill="#252526"/>
<path d="M70.6203 65.4819L66.4297 66.1899L67.1377 70.3805L71.3283 69.6725L70.6203 65.4819Z" fill="#252526"/>
<path d="M65.718 61.9868L61.5273 62.6948L62.2354 66.8854L66.426 66.1774L65.718 61.9868Z" fill="#252526"/>
<path d="M36.6515 66.9013L32.4609 67.6094L33.169 71.8L37.3596 71.0919L36.6515 66.9013Z" fill="#252526"/>
<path d="M41.5461 70.396L37.3555 71.104L38.0635 75.2946L42.2541 74.5866L41.5461 70.396Z" fill="#252526"/>
<path d="M45.0383 65.4834L40.8477 66.1914L41.5557 70.382L45.7463 69.674L45.0383 65.4834Z" fill="#252526"/>
<path d="M103.95 112.98L16.7 127.72L0.5 31.8198" stroke="#252526" stroke-miterlimit="10" stroke-linecap="round"/>
<path d="M65.9391 112.69C65.9391 112.69 59.1791 118.09 57.2191 125.58C55.2591 133.07 61.2691 135.46 64.2491 134.96C67.2291 134.46 69.2091 132.05 69.2091 132.05L65.9391 112.69Z" fill="#ECEDEB" stroke="#252526" stroke-miterlimit="10"/>
<path d="M71.5394 145.82C71.5394 145.82 69.0594 153.72 68.3894 160.04C67.7194 166.36 68.1894 171.4 71.7494 173.62C75.3094 175.84 81.1794 171.47 81.1794 171.47L71.5494 145.83L71.5394 145.82Z" fill="#ECEDEB" stroke="#252526" stroke-miterlimit="10"/>
<path d="M84.8691 171.06C84.8691 171.06 86.1491 176.01 88.3091 177.4C90.4691 178.8 91.5791 179.81 94.7191 179.29C97.8591 178.77 99.8891 176.49 100.829 174.23C101.769 171.97 101.509 168.55 101.509 168.55L84.8791 171.05L84.8691 171.06Z" fill="#ECEDEB" stroke="#252526" stroke-miterlimit="10"/>
<path d="M154.488 151.765L130.34 8.84023C129.42 3.39457 124.259 -0.274141 118.814 0.645947L57.3349 11.0332C51.8892 11.9533 48.2205 17.1138 49.1406 22.5595L73.2888 165.484C74.2089 170.929 79.3694 174.598 84.815 173.678L146.294 163.291C151.739 162.371 155.408 157.21 154.488 151.765Z" fill="#252526" stroke="#252526" stroke-miterlimit="10"/>
<path d="M119.477 4.57454L57.9982 14.9618C54.7308 15.5139 52.5296 18.6102 53.0816 21.8776L77.2298 164.802C77.7818 168.069 80.8781 170.271 84.1455 169.719L145.624 159.331C148.892 158.779 151.093 155.683 150.541 152.415L126.393 9.49112C125.841 6.22372 122.744 4.02249 119.477 4.57454Z" fill="#ECEDEB" stroke="#252526" stroke-miterlimit="10"/>
<path d="M210.53 224.33C202.53 212.5 183.55 180.88 183.55 180.88C182.09 177.84 181.37 174.04 181.16 169.69C180.89 164.17 179.25 147.04 178.74 142.91C178.23 138.78 175.4 123.46 172.26 117.6C169.12 111.74 164.13 107.22 158.93 101.45C153.73 95.6701 150.25 89.6201 148.2 86.3101C146.15 83.0001 142.35 80.0601 142.35 80.0601L150.37 127.44C150.37 127.44 150.57 128.67 147.11 130.57C143.65 132.47 134.11 132.18 134.11 132.18C132.36 129.45 129.81 120.55 129 118.38C128.2 116.2 127.45 115.86 125.23 114.32C123.01 112.78 115.82 109.48 112.78 108.24C109.74 107 104.84 105.2 100.14 107.09C95.4403 108.98 92.6003 112.44 93.3803 118.37C94.1603 124.3 103.59 131.19 106.74 134.66C109.89 138.13 112.07 143.62 112.68 152.25C113.29 160.88 111.7 169.43 118.2 183C124.71 196.57 131.36 199.86 136.92 202.81C139.87 204.38 145.2 206.54 148.45 210.13C151.65 213.67 153.86 215.5 158.1 223C167.14 239 169.89 244.01 169.89 244.01" fill="#ECEDEB"/>
<path d="M210.53 224.33C202.53 212.5 183.55 180.88 183.55 180.88C182.09 177.84 181.37 174.04 181.16 169.69C180.89 164.17 179.25 147.04 178.74 142.91C178.23 138.78 175.4 123.46 172.26 117.6C169.12 111.74 164.13 107.22 158.93 101.45C153.73 95.6701 150.25 89.6201 148.2 86.3101C146.15 83.0001 142.35 80.0601 142.35 80.0601L150.37 127.44C150.37 127.44 150.57 128.67 147.11 130.57C143.65 132.47 134.11 132.18 134.11 132.18C132.36 129.45 129.81 120.55 129 118.38C128.2 116.2 127.45 115.86 125.23 114.32C123.01 112.78 115.82 109.48 112.78 108.24C109.74 107 104.84 105.2 100.14 107.09C95.4403 108.98 92.6003 112.44 93.3803 118.37C94.1603 124.3 103.59 131.19 106.74 134.66C109.89 138.13 112.07 143.62 112.68 152.25C113.29 160.88 111.7 169.43 118.2 183C124.71 196.57 131.36 199.86 136.92 202.81C139.87 204.38 145.2 206.54 148.45 210.13C151.65 213.67 153.86 215.5 158.1 223C167.14 239 169.89 244.01 169.89 244.01" stroke="#252526" stroke-miterlimit="10"/>
<path d="M119.21 39.8871L71.1113 48.0137L79.2379 96.112L127.336 87.9854L119.21 39.8871Z" fill="#FAFAFA"/>
<path d="M87.4826 48.7415L75.0488 50.8423L77.1496 63.2761L89.5834 61.1753L87.4826 48.7415Z" stroke="#252526" stroke-miterlimit="10"/>
<path d="M87.284 59.5541L85.8496 51.0645L77.3599 52.4989L78.7943 60.9885L87.284 59.5541Z" fill="#252526"/>
<path d="M116.397 43.8631L103.963 45.9639L106.064 58.3976L118.497 56.2969L116.397 43.8631Z" stroke="#252526" stroke-miterlimit="10"/>
<path d="M116.192 54.6669L114.758 46.1772L106.268 47.6116L107.703 56.1013L116.192 54.6669Z" fill="#252526"/>
<path d="M92.3615 77.6541L79.9277 79.7549L82.0285 92.1887L94.4623 90.0879L92.3615 77.6541Z" stroke="#252526" stroke-miterlimit="10"/>
<path d="M92.161 88.4623L90.7266 79.9727L82.2369 81.4071L83.6713 89.8967L92.161 88.4623Z" fill="#252526"/>
<path d="M98.2785 49.645L94.0879 50.353L94.7959 54.5436L98.9865 53.8356L98.2785 49.645Z" fill="#252526"/>
<path d="M98.9777 53.8496L94.7871 54.5576L95.4951 58.7482L99.6858 58.0402L98.9777 53.8496Z" fill="#252526"/>
<path d="M100.96 65.5561L96.7695 66.2642L97.4776 70.4548L101.668 69.7467L100.96 65.5561Z" fill="#252526"/>
<path d="M97.4758 70.4575L93.2852 71.1655L93.9932 75.3561L98.1838 74.6481L97.4758 70.4575Z" fill="#252526"/>
<path d="M102.687 75.7553L98.4961 76.4634L99.2041 80.654L103.395 79.946L102.687 75.7553Z" fill="#252526"/>
<path d="M104.105 84.1533L99.9141 84.8613L100.622 89.0519L104.813 88.3439L104.105 84.1533Z" fill="#252526"/>
<path d="M107.587 79.2402L103.396 79.9482L104.105 84.1388L108.295 83.4308L107.587 79.2402Z" fill="#252526"/>
<path d="M112.489 82.7251L108.299 83.4331L109.007 87.6237L113.197 86.9157L112.489 82.7251Z" fill="#252526"/>
<path d="M117.111 71.7685L112.92 72.4766L113.628 76.6672L117.819 75.9591L117.111 71.7685Z" fill="#252526"/>
<path d="M121.304 71.0605L117.113 71.7686L117.821 75.9592L122.012 75.2511L121.304 71.0605Z" fill="#252526"/>
<path d="M122.013 75.2539L117.822 75.9619L118.53 80.1525L122.721 79.4445L122.013 75.2539Z" fill="#252526"/>
<path d="M115.642 63.0752L111.451 63.7832L112.159 67.9738L116.35 67.2658L115.642 63.0752Z" fill="#252526"/>
<path d="M110.739 59.5903L106.549 60.2983L107.257 64.4889L111.447 63.7809L110.739 59.5903Z" fill="#252526"/>
<path d="M81.6633 64.5044L77.4727 65.2124L78.1807 69.403L82.3713 68.695L81.6633 64.5044Z" fill="#252526"/>
<path d="M86.5676 67.9892L82.377 68.6973L83.085 72.8879L87.2756 72.1798L86.5676 67.9892Z" fill="#252526"/>
<path d="M90.0519 63.0884L85.8613 63.7964L86.5694 67.987L90.76 67.279L90.0519 63.0884Z" fill="#252526"/>
<path d="M124.419 40.7401L123.309 34.1401L116.709 35.2501" stroke="#6A51CA" stroke-linecap="round" stroke-linejoin="round"/>
<path d="M71.9398 42.8101L65.3398 43.9301L66.4598 50.5301" stroke="#6A51CA" stroke-linecap="round" stroke-linejoin="round"/>
<path d="M74.0195 95.29L75.1295 101.89L81.7295 100.78" stroke="#6A51CA" stroke-linecap="round" stroke-linejoin="round"/>
<path d="M126.5 93.22L133.1 92.1L131.98 85.5" stroke="#6A51CA" stroke-linecap="round" stroke-linejoin="round"/>
<path d="M97.3395 111.21C99.4295 108.46 103.919 108.15 105.509 108.32C107.099 108.49 110.099 109.01 111.599 110.04C113.099 111.08 112.989 111.2 112.509 112.11C112.029 113.02 111.039 113.83 108.359 117.57C105.679 121.31 104.789 121.7 103.729 122.18C102.669 122.66 101.939 122.74 100.819 122.12C99.6995 121.5 97.7795 120.48 97.0395 119.36C96.2995 118.24 94.0595 115.49 97.3295 111.2L97.3395 111.21Z" fill="#C4C4C5" stroke="#252526" stroke-miterlimit="10"/>
<path d="M131.08 124.71C131.08 124.71 132.71 129.92 134.11 132.18C136.51 136.07 140.08 139.49 140.08 139.49" stroke="#252526" stroke-miterlimit="10" stroke-linecap="round"/>
<path d="M146.859 130.69C146.859 130.69 150.739 129.54 153.549 122.11" stroke="#252526" stroke-miterlimit="10" stroke-linecap="round"/>
</g>
<defs>
<clipPath id="clip0_2230_190873">
<rect width="210.94" height="244.25" fill="white"/>
</clipPath>
</defs>
</svg>
