<svg width="334" height="170" viewBox="0 0 334 170" fill="none" xmlns="http://www.w3.org/2000/svg">
<g clip-path="url(#clip0_2230_192071)">
<path d="M134.049 136.594L118.529 136.477C117.839 136.472 117.284 135.908 117.289 135.218C117.294 134.528 117.858 133.972 118.548 133.977L134.068 134.094L134.049 136.594Z" fill="#ECEDEB" stroke="#252526" stroke-linejoin="round"/>
<path d="M133.17 136.88H143.43C143.69 136.88 143.9 136.67 143.9 136.41V134.03C143.9 133.77 143.69 133.56 143.43 133.56H133.17C132.911 133.56 132.7 133.77 132.7 134.03V136.41C132.7 136.67 132.911 136.88 133.17 136.88Z" fill="#A0A0A0" stroke="#252526" stroke-linejoin="round"/>
<path d="M41.58 85.93C18.89 85.93 0.5 104.32 0.5 127C0.5 149.68 18.89 168.08 41.58 168.08C64.27 168.08 82.66 149.69 82.66 127C82.66 104.31 64.27 85.92 41.58 85.92V85.93ZM41.58 161.09C22.76 161.09 7.5 145.83 7.5 127.01C7.5 108.19 22.76 92.93 41.58 92.93C60.4 92.93 75.66 108.19 75.66 127.01C75.66 145.83 60.4 161.09 41.58 161.09Z" fill="#383838" stroke="#252526" stroke-linejoin="round"/>
<path d="M172.06 85.93C149.37 85.93 130.98 104.32 130.98 127.01C130.98 149.7 149.37 168.09 172.06 168.09C194.75 168.09 213.14 149.7 213.14 127.01C213.14 104.32 194.75 85.93 172.06 85.93ZM172.06 161.09C153.24 161.09 137.98 145.83 137.98 127.01C137.98 108.19 153.24 92.93 172.06 92.93C190.88 92.93 206.14 108.19 206.14 127.01C206.14 145.83 190.88 161.09 172.06 161.09Z" fill="#383838" stroke="#252526" stroke-linejoin="round"/>
<path d="M139.43 51.94C142.4 51.94 147.9 51.94 150.65 51.51C153.4 51.08 157.09 50.71 157.45 51.51C157.81 52.31 157.96 52.88 155.79 54.69C153.62 56.5 151.45 57.37 150.51 58.09C149.57 58.81 143.79 59.49 140.06 57.99C136.33 56.5 133 54.32 131.84 54.25C130.68 54.18 127.5 55.01 126.41 54.96C125.32 54.91 125.04 53.6 126.41 52.81C127.78 52.01 136.9 51.95 139.44 51.94H139.43Z" fill="#9C8BDC" stroke="#252526" stroke-linejoin="round"/>
<path d="M123.92 132.18C123.92 132.18 166.13 127.22 167.54 127C168.95 126.79 169.77 127.64 169.89 128.27C170.01 128.9 169.66 129.72 168.25 130.19C166.84 130.66 124.63 136.99 124.63 136.99L123.93 132.18H123.92Z" fill="#ECEDEB" stroke="#252526" stroke-linejoin="round"/>
<path d="M73.61 60.5C73.61 60.5 75.69 54.88 75.92 54.1C76.15 53.32 75.87 53.16 74.76 52.69C73.65 52.22 68.49 50.5 67.4 50.03C66.31 49.56 63.65 48.62 62.87 48.54C62.09 48.46 61.23 48.46 59.98 48.54C58.73 48.62 56.88 48.77 57.45 50.34C58.02 51.91 58.19 52.65 58.9 52.39C60.18 51.92 62.3 51.86 63.47 52.27C64.41 52.59 68.33 54.11 69.19 54.49C70.05 54.87 70.21 54.95 69.89 55.66C69.57 56.37 68.63 59.06 68.63 59.06L73.6 60.5H73.61Z" fill="#7A7A79" stroke="#252526" stroke-linejoin="round"/>
<path d="M118.649 147.17C125.249 147.17 130.599 141.82 130.599 135.22C130.599 128.62 125.249 123.27 118.649 123.27C112.049 123.27 106.699 128.62 106.699 135.22C106.699 141.82 112.049 147.17 118.649 147.17Z" fill="#ECEDEB" stroke="#252526" stroke-linejoin="round"/>
<path d="M172.8 125.96C172.28 125.36 141 91.66 135.7 85.95C139.74 72.3 143.4 59.99 143.4 59.99C143.75 58.82 143.89 58.83 142.76 58.69C141.91 58.59 140.71 58.23 139.83 57.91C139.48 59.08 134.36 76.03 134.12 76.73C133.89 77.43 134 78.14 132.71 77.67C131.42 77.2 74.2804 62.78 73.3404 62.31C73.3404 62.31 73.4704 61.5 73.6104 60.51C73.6204 60.42 68.0404 58.9 67.6404 58.8C67.2004 58.68 65.9104 63.04 65.1404 65.13C63.1004 70.67 60.8904 76.69 58.6804 82.17C56.1204 88.53 53.5504 94.89 50.9904 101.25C48.8404 106.59 46.6804 111.92 44.5204 117.25C43.5504 119.65 42.6604 122.1 41.5804 124.45C40.6204 126.56 40.0304 127.85 40.7904 128.26C41.3904 128.58 42.0804 128.98 43.1304 127.01C44.1904 125.04 65.6404 83.76 66.1104 82.94C66.5804 82.12 67.5204 82 68.3404 82.94C69.1604 83.88 101.64 131.25 102.58 132.89C103.52 134.53 107.77 140.17 107.77 140.17C107.77 140.17 105.94 136.39 107.03 132.41C108.12 128.43 110.24 126.73 110.24 126.73C110.24 126.73 77.6004 78.71 76.2004 76.6C74.7904 74.49 72.1004 71.44 71.9804 69.8C71.8604 68.16 73.4804 67.22 75.6604 67.69C77.8404 68.16 130.02 80 131.19 80.47C132.36 80.94 132.71 81.06 132.36 82.35C132.01 83.64 124.97 105.45 124.74 106.15C124.63 106.49 124.62 106.64 124.53 106.8L119.19 123.29C119.78 123.32 120.32 123.39 120.84 123.47C122.44 123.71 124.24 124.66 124.24 124.66C124.24 124.66 128.47 110.37 134.43 90.26C139.91 95.87 168.88 125.5 170.34 127.01C171.95 128.67 172.44 128.31 172.81 128.07C173.18 127.82 173.94 127.27 172.81 125.97L172.8 125.96Z" fill="#ECEDEB" stroke="#252526" stroke-linejoin="round"/>
<path d="M41.5809 136.2C46.6619 136.2 50.7809 132.081 50.7809 127C50.7809 121.919 46.6619 117.8 41.5809 117.8C36.4998 117.8 32.3809 121.919 32.3809 127C32.3809 132.081 36.4998 136.2 41.5809 136.2Z" fill="#ECEDEB" stroke="#252526" stroke-linejoin="round"/>
<path d="M172.059 136.2C177.14 136.2 181.259 132.081 181.259 127C181.259 121.919 177.14 117.8 172.059 117.8C166.978 117.8 162.859 121.919 162.859 127C162.859 132.081 166.978 136.2 172.059 136.2Z" fill="#ECEDEB" stroke="#252526" stroke-linejoin="round"/>
<path d="M103.234 134.091L118.754 133.975C119.444 133.97 120.008 134.526 120.013 135.216C120.018 135.906 119.463 136.47 118.773 136.475L103.253 136.591L103.234 134.091Z" fill="#ECEDEB" stroke="#252526" stroke-linejoin="round"/>
<path d="M104.121 133.56H93.8606C93.6011 133.56 93.3906 133.77 93.3906 134.03V136.41C93.3906 136.67 93.6011 136.88 93.8606 136.88H104.121C104.38 136.88 104.591 136.67 104.591 136.41V134.03C104.591 133.77 104.38 133.56 104.121 133.56Z" fill="#A0A0A0" stroke="#252526" stroke-linejoin="round"/>
<path d="M315.341 16.77L330.221 1.11001C329.861 0.74001 329.351 0.51001 328.791 0.51001H298.981C298.421 0.51001 297.921 0.74001 297.551 1.11001L312.431 16.77C313.221 17.6 314.541 17.6 315.331 16.77H315.341Z" fill="#9A89DA" stroke="#252526" stroke-linejoin="round"/>
<path d="M330.22 1.10001L315.34 16.76C314.55 17.59 313.23 17.59 312.44 16.76L297.56 1.10001C297.21 1.46001 296.99 1.95001 296.99 2.50001V22.03C296.99 23.13 297.89 24.03 298.99 24.03H328.8C329.9 24.03 330.8 23.13 330.8 22.03V2.50001C330.8 1.96001 330.58 1.46001 330.23 1.10001H330.22Z" fill="#6A51CA" stroke="#252526" stroke-linejoin="round"/>
<path d="M274.85 46.16L278.65 38.06C278.46 37.96 278.23 37.94 278.01 38.01L266.3 41.91C266.08 41.98 265.91 42.14 265.82 42.33L273.72 46.54C274.14 46.76 274.66 46.59 274.86 46.16H274.85Z" fill="#BFB5E6" stroke="#252526" stroke-linejoin="round"/>
<path d="M281.611 46.21L279.061 38.54C278.991 38.33 278.841 38.16 278.651 38.07L274.851 46.17C274.651 46.6 274.131 46.77 273.711 46.55L265.811 42.34C265.721 42.53 265.701 42.75 265.771 42.96L268.321 50.63C268.461 51.06 268.931 51.3 269.371 51.15L281.081 47.25C281.511 47.11 281.751 46.64 281.601 46.2L281.611 46.21Z" fill="#9A89DA" stroke="#252526" stroke-linejoin="round"/>
<path d="M218.671 61.51L219.611 54.73C219.451 54.7 219.281 54.73 219.131 54.84L211.451 60.35C211.311 60.45 211.221 60.61 211.191 60.77L217.921 62.05C218.281 62.12 218.621 61.87 218.671 61.51Z" fill="#B3A6E2" stroke="#252526" stroke-linejoin="round"/>
<path d="M223.621 60.01L220.011 54.98C219.911 54.84 219.761 54.75 219.601 54.73L218.661 61.51C218.611 61.87 218.271 62.11 217.911 62.05L211.181 60.77C211.161 60.93 211.181 61.1 211.291 61.24L214.901 66.27C215.101 66.55 215.501 66.62 215.781 66.42L223.461 60.91C223.741 60.71 223.811 60.31 223.611 60.03L223.621 60.01Z" fill="#B3A6E2" stroke="#252526" stroke-linejoin="round"/>
<path d="M239.5 34.09L244.53 20.82C244.22 20.69 243.85 20.67 243.51 20.82L225.46 28.4C225.12 28.54 224.88 28.81 224.75 29.13L237.74 34.83C238.43 35.13 239.23 34.8 239.5 34.09Z" fill="#6A51CA" stroke="#252526" stroke-linejoin="round"/>
<path d="M250.2 33.35L245.24 21.53C245.1 21.2 244.84 20.96 244.54 20.83L239.51 34.1C239.24 34.8 238.44 35.14 237.75 34.84L224.76 29.14C224.64 29.45 224.63 29.8 224.76 30.13L229.72 41.95C230 42.62 230.77 42.93 231.44 42.65L249.49 35.07C250.16 34.79 250.47 34.02 250.19 33.35H250.2Z" fill="#9A89DA" stroke="#252526" stroke-linejoin="round"/>
<path d="M5.21094 168.6H244.531" stroke="#252526" stroke-linecap="round" stroke-linejoin="round"/>
<path d="M268.99 168.6H332.73" stroke="#252526" stroke-linecap="round" stroke-linejoin="round"/>
<path d="M249.65 168.45H263.38" stroke="#252526" stroke-linecap="round" stroke-linejoin="round"/>
<path d="M198.96 100.54H148.76C147.103 100.54 145.76 101.883 145.76 103.54V120.33C145.76 121.987 147.103 123.33 148.76 123.33H198.96C200.617 123.33 201.96 121.987 201.96 120.33V103.54C201.96 101.883 200.617 100.54 198.96 100.54Z" fill="#9A89DA" stroke="#252526" stroke-linejoin="round"/>
<path d="M201.869 78.78H145.859C144.755 78.78 143.859 79.6754 143.859 80.78V108.48C143.859 109.585 144.755 110.48 145.859 110.48H201.869C202.974 110.48 203.869 109.585 203.869 108.48V80.78C203.869 79.6754 202.974 78.78 201.869 78.78Z" fill="#6A51CA" stroke="#252526" stroke-linejoin="round"/>
<path d="M159.689 106.07H158.109C157.557 106.07 157.109 106.518 157.109 107.07V112.22C157.109 112.772 157.557 113.22 158.109 113.22H159.689C160.242 113.22 160.689 112.772 160.689 112.22V107.07C160.689 106.518 160.242 106.07 159.689 106.07Z" fill="#473685" stroke="#252526" stroke-linejoin="round"/>
<path d="M189.619 106.07H188.039C187.487 106.07 187.039 106.518 187.039 107.07V112.22C187.039 112.772 187.487 113.22 188.039 113.22H189.619C190.171 113.22 190.619 112.772 190.619 112.22V107.07C190.619 106.518 190.171 106.07 189.619 106.07Z" fill="#473685" stroke="#252526" stroke-linejoin="round"/>
</g>
<defs>
<clipPath id="clip0_2230_192071">
<rect width="333.23" height="169.1" fill="white"/>
</clipPath>
</defs>
</svg>
