<svg width="243" height="251" viewBox="0 0 243 251" fill="none" xmlns="http://www.w3.org/2000/svg">
<path d="M123.912 251C189.531 251 242.726 220.288 242.726 182.403C242.726 144.518 189.531 113.806 123.912 113.806C58.2925 113.806 5.09766 144.518 5.09766 182.403C5.09766 220.288 58.2925 251 123.912 251Z" fill="#F5F5F5"/>
<path d="M105.011 206.43C120.414 206.43 132.9 199.22 132.9 190.327C132.9 181.434 120.414 174.224 105.011 174.224C89.6077 174.224 77.1211 181.434 77.1211 190.327C77.1211 199.22 89.6077 206.43 105.011 206.43Z" fill="#E0E0E0"/>
<path d="M152.294 221.383C170.944 221.383 186.063 212.654 186.063 201.887C186.063 191.12 170.944 182.392 152.294 182.392C133.644 182.392 118.525 191.12 118.525 201.887C118.525 212.654 133.644 221.383 152.294 221.383Z" fill="#E0E0E0"/>
<path d="M114.583 184.165C114.583 182.749 113.654 181.333 111.785 180.262C108.052 178.104 101.997 178.104 98.2646 180.262C96.3955 181.338 95.4609 182.754 95.4609 184.165V188.532C95.4609 189.948 96.3955 191.364 98.2646 192.44C101.997 194.592 108.052 194.592 111.785 192.44C113.654 191.358 114.583 189.948 114.583 188.532V184.165Z" fill="#263238"/>
<path d="M111.807 184.629C115.54 186.787 115.54 190.293 111.807 192.44C108.075 194.587 102.02 194.592 98.2874 192.44C94.5548 190.288 94.5492 186.776 98.2874 184.629C102.026 182.483 108.075 182.477 111.807 184.629Z" fill="#37474F"/>
<path d="M114.606 184.165H95.4839V188.532H114.606V184.165Z" fill="#37474F"/>
<path d="M111.807 180.279C115.54 182.432 115.54 185.943 111.807 188.084C108.075 190.225 102.02 190.242 98.2874 188.084C94.5548 185.926 94.5492 182.42 98.2874 180.279C102.026 178.138 108.075 178.104 111.807 180.279Z" fill="#455A64"/>
<path d="M108.228 181.254C109.989 182.267 109.989 183.916 108.228 184.93C107.241 185.43 106.151 185.69 105.045 185.69C103.938 185.69 102.848 185.43 101.861 184.93C100.105 183.916 100.105 182.267 101.861 181.254C102.848 180.754 103.938 180.493 105.045 180.493C106.151 180.493 107.241 180.754 108.228 181.254Z" fill="#263238"/>
<path d="M109.547 100.649H100.542V183.094H109.547V100.649Z" fill="#263238"/>
<path d="M141.821 62.5753V62.513C141.736 62.0429 141.634 61.5671 141.515 61.0913C141.531 61.1416 141.544 61.1926 141.555 61.2442C141.481 60.9214 141.396 60.5985 141.306 60.2757C141.34 60.3946 141.368 60.5136 141.396 60.6325C141.306 60.2757 141.204 59.9245 141.096 59.5677C141.147 59.7206 141.198 59.8792 141.238 60.0321C141.181 59.8282 141.119 59.6243 141.056 59.4204L140.954 59.0976V59.0523V59.0862C140.194 56.7764 139.191 54.5532 137.964 52.4537C137.924 52.38 137.885 52.3064 137.839 52.2328C134.752 46.9822 130.278 42.1848 125.282 39.2055L125.039 39.0583C123.606 38.2263 122.087 37.5539 120.507 37.0532C119.195 36.6381 117.828 36.4186 116.452 36.4019H115.976H115.687C115.449 36.4019 115.217 36.4472 114.991 36.4812H114.781L114.396 36.5548C114.232 36.5888 114.067 36.6284 113.909 36.6737L113.467 36.804C113.467 36.804 113.467 36.804 113.439 36.804L112.997 36.9626C112.85 37.0249 112.702 37.0872 112.566 37.1552L111.592 37.7216L62.5361 66.0416H62.4965C59.84 67.5313 58.2315 70.5729 58.2315 74.8945V101.578L39.7724 111.773C37.9437 112.781 36.4156 114.257 35.3445 116.049C34.2734 117.842 33.6977 119.887 33.6764 121.975C33.6551 124.063 34.1889 126.119 35.2232 127.933C36.2574 129.747 37.7551 131.254 39.5629 132.299C44.7032 135.264 50.533 136.825 56.4671 136.825C62.4013 136.825 68.2311 135.264 73.3714 132.299L92.4931 121.538L142.184 92.8268V66.1379C142.169 64.9419 142.048 63.7496 141.821 62.5753Z" fill="#BA68C8"/>
<path d="M61.6865 99.7256V69.9159L93.2464 51.8704L96.0898 79.4315L61.6865 99.7256Z" fill="#BA68C8"/>
<path opacity="0.5" d="M61.6865 99.7256V69.9159L93.2464 51.8704L96.0898 79.4315L61.6865 99.7256Z" fill="black"/>
<path d="M61.6865 99.7256L96.0898 79.4314V111.869L88.9758 115.483L61.6865 99.7256Z" fill="#BA68C8"/>
<path opacity="0.3" d="M61.6865 99.7256L96.0898 79.4314V111.869L88.9758 115.483L61.6865 99.7256Z" fill="black"/>
<path d="M141.827 62.5753L138.564 64.3708L118.706 75.2401L115.115 77.1942L90.2957 90.7878C88.7211 88.1257 84.6317 75.7045 82.451 73.4559C80.3502 71.2464 77.9521 69.3401 75.3257 67.7919C72.2105 65.9907 69.2935 65.1355 66.773 65.1355C65.29 65.105 63.8239 65.454 62.5137 66.1493L111.575 37.8292L112.55 37.2628C112.686 37.1949 112.833 37.1326 112.98 37.0703L113.422 36.9117C113.422 36.9117 113.422 36.9117 113.45 36.9117L113.892 36.7814C114.051 36.7361 114.215 36.6964 114.379 36.6625L114.764 36.5888H114.974C115.2 36.5548 115.433 36.5265 115.67 36.5095H115.959H116.435C117.812 36.5263 119.178 36.7457 120.491 37.1609C122.07 37.6616 123.589 38.3339 125.022 39.1659L125.265 39.3132C133.472 44.0993 140.281 53.9037 141.827 62.5753Z" fill="#BA68C8"/>
<g opacity="0.3">
<path d="M141.826 62.5756L138.564 64.3711L118.706 75.2403L115.115 77.1944L90.2952 90.788C88.7206 88.1259 84.6312 75.7048 82.4505 73.4561C80.3497 71.2466 77.9516 69.3404 75.3252 67.7921C72.21 65.991 69.293 65.1357 66.7725 65.1357C65.2896 65.1053 63.8234 65.4543 62.5132 66.1496L111.575 37.8295L112.549 37.2631C112.685 37.1951 112.832 37.1328 112.98 37.0705L113.421 36.9119C113.421 36.9119 113.421 36.9119 113.45 36.9119L113.891 36.7816C114.05 36.7363 114.214 36.6967 114.379 36.6627L114.764 36.5891H114.973C115.2 36.5551 115.432 36.5268 115.67 36.5098H115.959H116.435C117.811 36.5265 119.178 36.746 120.49 37.1611C122.069 37.6618 123.589 38.3342 125.021 39.1662L125.265 39.3135C133.472 44.0996 140.28 53.904 141.826 62.5756Z" fill="black"/>
</g>
<path d="M137.805 52.2725C137.85 52.3402 137.895 52.4135 137.935 52.4868C137.912 52.3966 137.873 52.3232 137.805 52.2725Z" fill="#BA68C8"/>
<path d="M140.439 57.6531C141.053 59.2473 141.517 60.895 141.827 62.5751L138.564 64.3706L118.706 75.2398L115.115 77.1939L90.2954 90.7876L92.4931 121.538L142.183 92.8266V66.1378C142.117 63.2276 141.526 60.3534 140.439 57.6531Z" fill="#BA68C8"/>
<path d="M139.703 55.8746C139.493 55.4101 139.272 54.94 139.04 54.4756C139.272 54.94 139.504 55.4101 139.703 55.8746Z" fill="#BA68C8"/>
<path d="M138.179 52.8389C138.417 53.2693 138.655 53.6998 138.876 54.1359C138.655 53.7224 138.423 53.292 138.179 52.8389Z" fill="#BA68C8"/>
<path d="M140.422 57.6022C140.224 57.0924 140.014 56.5883 139.793 56.0842C140.014 56.5883 140.224 57.0924 140.422 57.6022Z" fill="#BA68C8"/>
<g opacity="0.5">
<path d="M137.805 52.2725C137.85 52.3402 137.895 52.4135 137.935 52.4868C137.912 52.3966 137.873 52.3232 137.805 52.2725Z" fill="black"/>
<path d="M140.439 57.6533C141.053 59.2475 141.517 60.8953 141.827 62.5754L138.564 64.3708L118.706 75.2401L115.115 77.1942L90.2954 90.7878L92.4931 121.538L142.183 92.8269V66.138C142.117 63.2279 141.526 60.3536 140.439 57.6533Z" fill="black"/>
<path d="M139.703 55.8748C139.493 55.4104 139.272 54.9403 139.04 54.4758C139.272 54.9403 139.504 55.4104 139.703 55.8748Z" fill="black"/>
<path d="M138.179 52.8389C138.417 53.2693 138.655 53.6998 138.876 54.1359C138.655 53.7224 138.423 53.292 138.179 52.8389Z" fill="black"/>
<path d="M140.422 57.6024C140.224 57.0927 140.014 56.5886 139.793 56.0845C140.014 56.5886 140.224 57.0927 140.422 57.6024Z" fill="black"/>
</g>
<path d="M66.7729 68.6586C68.7496 68.6586 71.1058 69.4119 73.5697 70.8449C81.9128 75.6593 88.9645 86.6531 88.9645 94.8546V115.483L61.6753 99.7257V75.0589C61.6753 69.7687 64.4393 68.6586 66.7729 68.6586ZM66.7729 65.1582C61.6413 65.1582 58.1919 68.7095 58.1919 75.0589V101.742L92.4705 121.566V94.8546C92.4705 85.3844 84.7958 73.2804 75.3312 67.8146C72.216 66.0191 69.2877 65.1582 66.7729 65.1582Z" fill="#BA68C8"/>
<path d="M58.1919 101.742L39.7329 111.937C37.9041 112.945 36.376 114.421 35.3049 116.214C34.2338 118.006 33.6582 120.051 33.6368 122.139C33.6155 124.227 34.1493 126.284 35.1836 128.098C36.2179 129.912 37.7155 131.418 39.5233 132.464C44.6636 135.429 50.4934 136.99 56.4276 136.99C62.3618 136.99 68.1915 135.429 73.3318 132.464L92.4932 121.538L58.1919 101.742Z" fill="#BA68C8"/>
<path opacity="0.2" d="M58.1919 101.742L39.7329 111.937C37.9041 112.945 36.376 114.421 35.3049 116.214C34.2338 118.006 33.6582 120.051 33.6368 122.139C33.6155 124.227 34.1493 126.284 35.1836 128.098C36.2179 129.912 37.7155 131.418 39.5233 132.464C44.6636 135.429 50.4934 136.99 56.4276 136.99C62.3618 136.99 68.1915 135.429 73.3318 132.464L92.4932 121.538L58.1919 101.742Z" fill="white"/>
<path d="M103.906 113.41L100.055 115.63V78.4459L103.906 76.22V113.41Z" fill="#E0E0E0"/>
<path d="M111.179 79.4541L100.055 85.8715V78.446L111.179 72.0229V79.4541Z" fill="#E0E0E0"/>
<path d="M105.565 112.102C105.498 113.355 105.135 114.576 104.507 115.663C103.879 116.751 103.004 117.675 101.952 118.36C99.9524 119.493 98.3325 118.581 98.3325 116.276C98.4049 115.026 98.7703 113.811 99.399 112.729C100.028 111.647 100.902 110.727 101.952 110.046C103.946 108.862 105.565 109.796 105.565 112.102Z" fill="#BA68C8"/>
<path opacity="0.2" d="M105.565 112.102C105.498 113.355 105.135 114.576 104.507 115.663C103.879 116.751 103.004 117.675 101.952 118.36C99.9524 119.493 98.3325 118.581 98.3325 116.276C98.4049 115.026 98.7703 113.811 99.399 112.729C100.028 111.647 100.902 110.727 101.952 110.046C103.946 108.862 105.565 109.796 105.565 112.102Z" fill="black"/>
<path d="M106.766 112.798C106.695 114.047 106.33 115.262 105.702 116.344C105.075 117.426 104.201 118.346 103.153 119.028C101.159 120.161 99.5391 119.244 99.5391 116.938C99.6083 115.685 99.9714 114.465 100.599 113.378C101.227 112.291 102.102 111.366 103.153 110.68C105.152 109.558 106.766 110.493 106.766 112.798Z" fill="#BA68C8"/>
<path d="M187.49 174.049L193.879 177.753C193.879 177.753 190.651 167.45 192.441 157.091C193.115 153.182 194.542 151.24 195.04 150.192C195.539 149.144 199.402 142.687 196.003 139.708C192.605 136.728 184.647 142.653 185.004 158.614C185.179 163.843 186.015 169.029 187.49 174.049Z" fill="#BA68C8"/>
<path opacity="0.3" d="M187.49 174.049L193.879 177.753C193.879 177.753 190.651 167.45 192.441 157.091C193.115 153.182 194.542 151.24 195.04 150.192C195.539 149.144 199.402 142.687 196.003 139.708C192.605 136.728 184.647 142.653 185.004 158.614C185.179 163.843 186.015 169.029 187.49 174.049Z" fill="black"/>
<path d="M190.481 176.054C190.423 176.052 190.367 176.034 190.32 176C190.272 175.967 190.236 175.921 190.215 175.867C190.215 175.799 187.774 169.07 187.898 158.308C188.023 147.547 193.721 141.701 193.777 141.645C193.831 141.591 193.903 141.562 193.978 141.562C194.054 141.562 194.126 141.591 194.18 141.645C194.233 141.698 194.263 141.77 194.263 141.846C194.263 141.921 194.233 141.994 194.18 142.047C194.123 142.104 188.595 147.711 188.47 158.314C188.346 168.917 190.736 175.595 190.736 175.663C190.761 175.734 190.758 175.811 190.726 175.879C190.694 175.947 190.636 176 190.566 176.025C190.54 176.041 190.511 176.05 190.481 176.054Z" fill="white"/>
<path d="M192.446 176.943L203.01 183.173C203.01 183.173 207.847 182.46 207.484 177.906C207.122 173.352 205.151 172.276 207.598 170.276C210.044 168.277 210.679 168.147 210.56 166.181C210.441 164.216 209.127 163.349 208.504 162.59C207.881 161.831 206.153 160.183 207.371 157.816C208.589 155.448 210.237 153.165 207.79 152.084C206.323 151.438 203.865 152.248 202.239 153.975C200.614 155.703 199.26 156.955 197.708 157.374C196.156 157.793 192.945 157.804 193.052 160.466C193.16 163.128 193.851 164.046 193.205 165.224C191.999 167.416 186.805 168.617 192.446 176.943Z" fill="#BA68C8"/>
<path d="M196.751 179.758C196.679 179.758 196.609 179.731 196.556 179.681C196.504 179.632 196.472 179.564 196.468 179.492C196.468 179.333 195.301 163.587 206.244 153.245C206.269 153.213 206.302 153.187 206.338 153.168C206.375 153.149 206.415 153.139 206.456 153.137C206.497 153.135 206.538 153.142 206.577 153.157C206.615 153.173 206.649 153.196 206.678 153.226C206.706 153.255 206.728 153.291 206.741 153.329C206.755 153.368 206.76 153.409 206.757 153.45C206.753 153.491 206.741 153.531 206.721 153.567C206.701 153.603 206.673 153.634 206.64 153.658C195.879 163.808 197.011 179.294 197.011 179.447C197.018 179.522 196.994 179.597 196.945 179.656C196.896 179.714 196.827 179.751 196.751 179.758Z" fill="white"/>
<path d="M198.643 166.255C198.571 166.255 198.502 166.228 198.45 166.18C198.397 166.132 198.365 166.065 198.359 165.994C198.276 164.784 197.948 163.603 197.396 162.523C196.844 161.442 196.08 160.484 195.148 159.707C195.118 159.685 195.092 159.658 195.073 159.626C195.053 159.594 195.04 159.559 195.035 159.522C195.029 159.485 195.03 159.448 195.039 159.411C195.048 159.375 195.064 159.341 195.086 159.311C195.108 159.281 195.135 159.255 195.167 159.236C195.199 159.216 195.234 159.203 195.271 159.198C195.308 159.192 195.345 159.193 195.382 159.202C195.418 159.211 195.452 159.227 195.482 159.248C196.489 160.067 197.315 161.084 197.908 162.238C198.502 163.391 198.85 164.655 198.932 165.949C198.935 165.987 198.93 166.025 198.918 166.06C198.907 166.096 198.888 166.13 198.863 166.158C198.838 166.187 198.808 166.21 198.774 166.226C198.74 166.243 198.703 166.253 198.665 166.255H198.643Z" fill="white"/>
<path d="M197.844 168.951C197.773 168.953 197.704 168.926 197.652 168.877C197.625 168.851 197.604 168.82 197.59 168.785C197.575 168.751 197.568 168.714 197.568 168.676C197.568 168.639 197.575 168.602 197.59 168.567C197.604 168.533 197.625 168.502 197.652 168.475C197.765 168.345 200.518 165.371 206.884 166.244C206.959 166.255 207.027 166.295 207.074 166.355C207.12 166.415 207.141 166.491 207.133 166.567C207.122 166.641 207.082 166.709 207.021 166.754C206.961 166.8 206.885 166.82 206.81 166.81C200.739 165.977 198.105 168.826 198.076 168.855C198.047 168.887 198.012 168.913 197.971 168.93C197.931 168.946 197.888 168.954 197.844 168.951Z" fill="white"/>
<path d="M71.1684 84.2911C70.6643 84.2911 70.1546 84.2911 69.6561 84.2288C69.5873 84.2239 69.5202 84.2051 69.4588 84.1738C69.3974 84.1424 69.3428 84.099 69.2985 84.0462C69.2541 83.9934 69.2208 83.9322 69.2005 83.8663C69.1802 83.8004 69.1734 83.731 69.1804 83.6624C69.1933 83.5246 69.26 83.3974 69.366 83.3084C69.472 83.2193 69.6088 83.1756 69.7468 83.1866C70.4189 83.2488 71.0944 83.2658 71.7688 83.2376C71.9062 83.2359 72.039 83.2875 72.1392 83.3814C72.2395 83.4754 72.2996 83.6045 72.3069 83.7417C72.3115 83.879 72.2617 84.0125 72.1684 84.1133C72.075 84.2141 71.9457 84.2739 71.8085 84.2798C71.5876 84.2911 71.378 84.2911 71.1684 84.2911ZM73.8532 84.0759C73.7208 84.0781 73.5926 84.0299 73.4945 83.9411C73.3964 83.8522 73.3358 83.7294 73.325 83.5974C73.3142 83.4655 73.354 83.3344 73.4363 83.2308C73.5186 83.1271 73.6373 83.0587 73.7682 83.0394C74.4329 82.9307 75.0895 82.7774 75.7336 82.5806C75.8636 82.5478 76.0013 82.5665 76.1179 82.6326C76.2345 82.6987 76.3212 82.8073 76.3598 82.9356C76.3985 83.064 76.3862 83.2023 76.3255 83.3219C76.2648 83.4414 76.1603 83.5329 76.0338 83.5774C75.3472 83.7889 74.647 83.9535 73.9381 84.0702L73.8532 84.0759ZM67.6228 83.9286H67.5208C66.82 83.7779 66.1279 83.5888 65.4478 83.3622C65.3168 83.317 65.2086 83.2224 65.1462 83.0987C65.0838 82.9749 65.0721 82.8317 65.1136 82.6995C65.1587 82.5687 65.2536 82.4609 65.3776 82.3994C65.5016 82.3379 65.6448 82.3277 65.7763 82.371C66.417 82.5825 67.0695 82.7564 67.7304 82.8921C67.7977 82.9055 67.8616 82.9323 67.9184 82.9708C67.9753 83.0093 68.0238 83.0587 68.0613 83.1162C68.0987 83.1737 68.1243 83.2381 68.1366 83.3057C68.1488 83.3732 68.1474 83.4425 68.1325 83.5095C68.1094 83.6256 68.0474 83.7303 67.9568 83.8065C67.8662 83.8827 67.7524 83.9257 67.6341 83.9286H67.6228ZM77.818 82.8468C77.6997 82.8472 77.5847 82.8073 77.4921 82.7337C77.3994 82.6601 77.3346 82.5572 77.3082 82.4418C77.2819 82.3265 77.2955 82.2056 77.347 82.099C77.3985 81.9925 77.4847 81.9066 77.5914 81.8556L77.9539 81.68C78.0153 81.6453 78.083 81.6235 78.153 81.6157C78.223 81.608 78.2938 81.6145 78.3613 81.6349C78.4287 81.6553 78.4913 81.6892 78.5452 81.7345C78.5992 81.7798 78.6434 81.8355 78.6752 81.8984C78.707 81.9612 78.7257 82.0299 78.7303 82.1002C78.7348 82.1704 78.725 82.2409 78.7016 82.3073C78.6781 82.3738 78.6414 82.4347 78.5937 82.4865C78.546 82.5384 78.4883 82.58 78.424 82.6089L78.0389 82.8015C77.9738 82.835 77.9024 82.8543 77.8293 82.8581L77.818 82.8468ZM63.6579 82.6259C63.5815 82.6253 63.506 82.6079 63.437 82.5749C62.7904 82.2736 62.1607 81.937 61.5509 81.5667C61.4925 81.5295 61.442 81.4812 61.4023 81.4245C61.3626 81.3678 61.3345 81.3038 61.3195 81.2362C61.3045 81.1686 61.303 81.0988 61.315 81.0306C61.327 80.9624 61.3523 80.8973 61.3895 80.8389C61.4267 80.7805 61.475 80.73 61.5317 80.6903C61.5884 80.6506 61.6524 80.6224 61.72 80.6074C61.7876 80.5924 61.8575 80.5909 61.9256 80.6029C61.9938 80.615 62.0589 80.6403 62.1173 80.6775C62.6963 81.0268 63.2938 81.3444 63.9072 81.629C64.0117 81.6817 64.0958 81.7678 64.146 81.8736C64.1962 81.9795 64.2097 82.099 64.1843 82.2133C64.159 82.3277 64.0963 82.4303 64.0061 82.505C63.9159 82.5798 63.8033 82.6223 63.6863 82.6259H63.6579ZM60.0896 80.4736C59.978 80.471 59.8696 80.4356 59.7781 80.3716C59.2117 79.9525 58.6453 79.4937 58.1355 79.0066C58.0849 78.9605 58.0439 78.9048 58.0149 78.8429C57.9858 78.7809 57.9692 78.7138 57.966 78.6455C57.9629 78.5771 57.9732 78.5088 57.9965 78.4444C58.0197 78.38 58.0554 78.3208 58.1015 78.2703C58.1477 78.2197 58.2033 78.1787 58.2653 78.1496C58.3272 78.1205 58.3943 78.1039 58.4627 78.1008C58.531 78.0976 58.5994 78.108 58.6637 78.1312C58.7281 78.1545 58.7873 78.1902 58.8379 78.2363C59.3476 78.7007 59.8744 79.1369 60.4068 79.539C60.4932 79.6053 60.5567 79.6969 60.5883 79.8011C60.6199 79.9053 60.6181 80.0168 60.5831 80.1199C60.5481 80.2231 60.4817 80.3126 60.3932 80.376C60.3047 80.4395 60.1985 80.4736 60.0896 80.4736ZM57.0141 77.6699C56.9415 77.6702 56.8697 77.6553 56.8033 77.626C56.737 77.5967 56.6775 77.5538 56.6289 77.4999C56.1588 76.9845 55.6943 76.4351 55.2639 75.8687C55.2222 75.8144 55.1917 75.7524 55.174 75.6863C55.1563 75.6202 55.1517 75.5513 55.1607 75.4834C55.1787 75.3464 55.2505 75.2222 55.3602 75.1381C55.4698 75.0539 55.6084 75.0168 55.7454 75.0349C55.8825 75.0529 56.0067 75.1247 56.0908 75.2343C56.5043 75.8007 56.9461 76.2992 57.3992 76.7976C57.4453 76.8482 57.4811 76.9073 57.5043 76.9717C57.5276 77.0361 57.5379 77.1044 57.5348 77.1728C57.5316 77.2412 57.515 77.3083 57.4859 77.3702C57.4568 77.4322 57.4158 77.4878 57.3652 77.5339C57.2763 77.6148 57.1623 77.6627 57.0424 77.6699H57.0141ZM54.5049 74.3621C54.4174 74.3623 54.3313 74.34 54.255 74.2974C54.1786 74.2547 54.1145 74.1931 54.0688 74.1185C53.8422 73.7674 53.6213 73.4049 53.4117 73.0424C53.2701 72.7932 53.1285 72.5383 52.9926 72.2834C52.9406 72.1632 52.9358 72.0277 52.9792 71.9041C53.0225 71.7805 53.1109 71.6778 53.2266 71.6163C53.3423 71.5549 53.4769 71.5393 53.6035 71.5727C53.7302 71.606 53.8397 71.6859 53.9102 71.7963C54.0404 72.0398 54.1764 72.2834 54.3123 72.5213C54.5162 72.8724 54.7258 73.218 54.9467 73.5578C54.9959 73.6371 55.0231 73.7282 55.0256 73.8215C55.028 73.9148 55.0056 74.0071 54.9607 74.089C54.9157 74.1708 54.8498 74.2392 54.7697 74.2872C54.6897 74.3352 54.5983 74.361 54.5049 74.3621ZM52.5565 70.6805C52.4539 70.6808 52.3535 70.651 52.2679 70.5945C52.1822 70.5381 52.1152 70.4577 52.075 70.3633C51.7975 69.7063 51.5483 69.0322 51.333 68.3639C51.3118 68.2988 51.3036 68.2302 51.309 68.1619C51.3143 68.0937 51.333 68.0272 51.364 67.9661C51.395 67.9051 51.4378 67.8508 51.4898 67.8063C51.5418 67.7618 51.6021 67.7281 51.6672 67.7069C51.7994 67.6658 51.9425 67.6785 52.0654 67.7421C52.1884 67.8057 52.2814 67.9151 52.3242 68.0467C52.5282 68.6867 52.766 69.3268 53.0322 69.9555C53.0673 70.0343 53.0821 70.1207 53.0751 70.2068C53.0681 70.2928 53.0396 70.3757 52.9923 70.4479C52.9449 70.52 52.8802 70.5791 52.8041 70.6198C52.7279 70.6604 52.6428 70.6813 52.5565 70.6805ZM51.2877 66.7157C51.1685 66.7146 51.0532 66.6731 50.9606 66.598C50.868 66.5229 50.8036 66.4186 50.778 66.3022C50.6266 65.6046 50.5131 64.8994 50.4381 64.1895C50.4255 64.053 50.4671 63.917 50.554 63.8109C50.641 63.7049 50.7662 63.6374 50.9026 63.6231C50.9752 63.6062 51.0508 63.6062 51.1235 63.6231C51.1615 63.5527 51.2157 63.4923 51.2817 63.447C51.3477 63.4017 51.4236 63.3727 51.503 63.3626C52.1629 63.2714 52.8145 63.1274 53.4514 62.9321C53.5836 62.8908 53.7268 62.9037 53.8495 62.9679C53.9721 63.0322 54.0643 63.1426 54.1056 63.2748C54.1469 63.407 54.134 63.5502 54.0697 63.6728C54.0055 63.7955 53.8951 63.8877 53.7629 63.929C53.07 64.1403 52.3618 64.2975 51.6446 64.3991C51.6013 64.4048 51.5575 64.4048 51.5143 64.3991C51.5823 64.9655 51.6785 65.5319 51.7975 66.0643C51.8124 66.1313 51.8138 66.2006 51.8015 66.2681C51.7893 66.3356 51.7637 66.4001 51.7263 66.4576C51.6888 66.5151 51.6402 66.5645 51.5834 66.603C51.5266 66.6415 51.4626 66.6682 51.3953 66.6817C51.3618 66.7006 51.3255 66.714 51.2877 66.7213V66.7157ZM49.4922 64.552C48.7736 64.5409 48.0565 64.4823 47.3456 64.3764C47.2099 64.355 47.0882 64.2809 47.0069 64.1702C46.9256 64.0594 46.8913 63.9211 46.9114 63.7853C46.9316 63.6494 47.0046 63.527 47.1145 63.4446C47.2245 63.3623 47.3625 63.3267 47.4985 63.3456C48.1622 63.4474 48.8322 63.5023 49.5036 63.5098C49.6418 63.5098 49.7743 63.5647 49.872 63.6625C49.9698 63.7602 50.0247 63.8927 50.0247 64.0309C50.0247 64.1691 49.9698 64.3017 49.872 64.3994C49.7743 64.4971 49.6418 64.552 49.5036 64.552H49.4922ZM45.3802 63.9403C45.3333 63.9484 45.2854 63.9484 45.2386 63.9403C44.5493 63.7388 43.8739 63.4929 43.2165 63.204C43.0896 63.1491 42.9896 63.0461 42.9386 62.9176C42.8876 62.7891 42.8898 62.6456 42.9446 62.5186C42.9995 62.3917 43.1025 62.2917 43.231 62.2407C43.3595 62.1898 43.503 62.1919 43.63 62.2468C44.2487 62.5134 44.8845 62.7386 45.5331 62.9208C45.6653 62.9602 45.7767 63.05 45.8434 63.1707C45.9101 63.2915 45.9268 63.4336 45.8899 63.5665C45.857 63.6761 45.7897 63.7723 45.6979 63.8406C45.606 63.909 45.4946 63.9459 45.3802 63.946V63.9403ZM55.5357 63.187C55.4205 63.185 55.3092 63.1448 55.2192 63.0728C55.1292 63.0008 55.0656 62.9009 55.0384 62.7889C55.0112 62.6769 55.0219 62.559 55.0689 62.4537C55.1158 62.3485 55.1964 62.2617 55.2979 62.2071C55.8812 61.9079 56.4285 61.543 56.9291 61.1196C57.034 61.0299 57.17 60.985 57.3077 60.9946C57.4454 61.0041 57.5738 61.0673 57.6654 61.1706C57.7102 61.2226 57.7442 61.2829 57.7656 61.3481C57.787 61.4133 57.7953 61.4821 57.79 61.5505C57.7848 61.6189 57.7661 61.6856 57.735 61.7468C57.7038 61.808 57.661 61.8624 57.6088 61.9069C57.0506 62.3871 56.4363 62.7979 55.7793 63.1303C55.7042 63.1703 55.6207 63.1916 55.5357 63.1926V63.187ZM50.8629 62.5753C50.7242 62.5723 50.5923 62.5147 50.4958 62.415C50.3993 62.3153 50.346 62.1816 50.3475 62.0429C50.3589 61.3265 50.4137 60.6115 50.5118 59.9019C50.5189 59.832 50.54 59.7643 50.5739 59.7028C50.6078 59.6413 50.6538 59.5873 50.7091 59.5441C50.7644 59.5008 50.8279 59.4692 50.8957 59.4511C50.9636 59.4329 51.0344 59.4287 51.1039 59.4387C51.1734 59.4486 51.2402 59.4725 51.3002 59.5088C51.3603 59.5452 51.4123 59.5934 51.4533 59.6504C51.4943 59.7074 51.5233 59.7721 51.5387 59.8406C51.554 59.9092 51.5554 59.9801 51.5426 60.0491C51.4512 60.7157 51.4001 61.3871 51.3897 62.0598C51.3882 62.1986 51.332 62.3311 51.2334 62.4287C51.1348 62.5262 51.0017 62.5809 50.8629 62.5809V62.5753ZM41.5513 62.3091C41.4602 62.3077 41.3709 62.2844 41.2907 62.2411C40.6712 61.8803 40.0735 61.4831 39.5009 61.0516C39.4457 61.0114 39.3992 60.9605 39.3641 60.9019C39.3289 60.8434 39.306 60.7784 39.2964 60.7107C39.2869 60.6431 39.2911 60.5743 39.3087 60.5083C39.3263 60.4423 39.357 60.3805 39.399 60.3267C39.4398 60.2715 39.4911 60.2249 39.5499 60.1896C39.6088 60.1544 39.674 60.1311 39.7419 60.1211C39.8098 60.1111 39.879 60.1146 39.9455 60.1314C40.0121 60.1482 40.0746 60.178 40.1296 60.219C40.6714 60.6324 41.2389 61.0107 41.8288 61.3518C41.9291 61.4088 42.0076 61.4974 42.0522 61.6037C42.0967 61.7101 42.1047 61.8282 42.0749 61.9396C42.0451 62.051 41.9792 62.1494 41.8875 62.2193C41.7959 62.2892 41.6836 62.3268 41.5683 62.3261L41.5513 62.3091ZM58.6113 60.4513C58.52 60.4516 58.4303 60.4281 58.3508 60.3833C58.2916 60.3488 58.2398 60.3029 58.1983 60.2483C58.1569 60.1937 58.1266 60.1315 58.1093 60.0652C58.0919 59.9989 58.0878 59.9299 58.0972 59.862C58.1065 59.7941 58.1292 59.7287 58.1638 59.6696C58.3126 59.4115 58.4378 59.1404 58.5377 58.8597C58.645 58.5606 58.7098 58.2479 58.7302 57.9308C58.7345 57.8615 58.7527 57.7937 58.7837 57.7317C58.8147 57.6696 58.858 57.6144 58.9109 57.5694C58.9638 57.5245 59.0252 57.4906 59.0915 57.47C59.1578 57.4494 59.2276 57.4423 59.2966 57.4493C59.3657 57.4543 59.433 57.473 59.4947 57.5043C59.5565 57.5356 59.6113 57.5789 59.6561 57.6316C59.7009 57.6843 59.7348 57.7454 59.7558 57.8114C59.7767 57.8773 59.7843 57.9468 59.7781 58.0157C59.7482 58.4252 59.6644 58.829 59.5289 59.2165C59.4079 59.558 59.2563 59.8879 59.0758 60.202C59.0278 60.2818 58.9595 60.3474 58.8779 60.3921C58.7963 60.4369 58.7043 60.4593 58.6113 60.4569V60.4513ZM38.2208 59.8056C38.0856 59.8048 37.9558 59.7521 37.8583 59.6583L37.5128 59.3071C37.1334 58.9163 36.7652 58.5028 36.414 58.0724C36.3269 57.965 36.286 57.8274 36.3003 57.6898C36.3147 57.5522 36.3831 57.426 36.4905 57.3389C36.5979 57.2518 36.7355 57.2109 36.8731 57.2252C37.0106 57.2395 37.1368 57.3079 37.224 57.4154C37.5525 57.8232 37.9037 58.214 38.2605 58.5821L38.5833 58.9107C38.6323 58.9586 38.6712 59.0159 38.6978 59.0791C38.7244 59.1424 38.738 59.2102 38.738 59.2788C38.738 59.3474 38.7244 59.4153 38.6978 59.4785C38.6712 59.5417 38.6323 59.599 38.5833 59.647C38.4911 59.7439 38.3657 59.8026 38.2322 59.8112L38.2208 59.8056ZM51.452 58.4575C51.4013 58.4658 51.3497 58.4658 51.2991 58.4575C51.2336 58.4375 51.1727 58.4047 51.1199 58.3611C51.0671 58.3175 51.0234 58.264 50.9913 58.2035C50.9592 58.143 50.9394 58.0767 50.9329 58.0086C50.9264 57.9404 50.9334 57.8716 50.9536 57.8062C51.1632 57.0954 51.466 56.4154 51.8541 55.7841C51.9292 55.6669 52.0478 55.5844 52.1838 55.5547C52.3197 55.5249 52.462 55.5504 52.5791 55.6255C52.6963 55.7006 52.7788 55.8192 52.8086 55.9552C52.8383 56.0911 52.8128 56.2333 52.7377 56.3505C52.3977 56.9039 52.133 57.5001 51.9504 58.1234C51.9142 58.2233 51.8479 58.3096 51.7607 58.3705C51.6735 58.4313 51.5696 58.4637 51.4633 58.4632L51.452 58.4575ZM35.5927 56.5771C35.5059 56.5774 35.4204 56.5557 35.3441 56.5141C35.2679 56.4726 35.2034 56.4124 35.1566 56.3392C34.7686 55.7423 34.4113 55.126 34.0861 54.4927C34.023 54.3695 34.0114 54.2263 34.0539 54.0946C34.0964 53.9629 34.1895 53.8535 34.3127 53.7904C34.4358 53.7273 34.579 53.7157 34.7108 53.7582C34.8425 53.8007 34.9519 53.8938 35.015 54.0169C35.3226 54.6192 35.661 55.2053 36.0289 55.7728C36.0797 55.8514 36.1085 55.9422 36.1122 56.0358C36.1158 56.1293 36.0942 56.2221 36.0495 56.3044C36.0049 56.3867 35.9389 56.4554 35.8586 56.5034C35.7782 56.5514 35.6864 56.5768 35.5927 56.5771ZM58.9115 56.4468C58.8083 56.4467 58.7075 56.416 58.6217 56.3585C58.536 56.301 58.4693 56.2194 58.4301 56.124C58.2133 55.5684 57.8369 55.0895 57.3482 54.7476C57.25 54.6658 57.1852 54.5508 57.1662 54.4244C57.1473 54.298 57.1754 54.169 57.2454 54.062C57.3153 53.955 57.4221 53.8774 57.5455 53.844C57.6689 53.8107 57.8003 53.8238 57.9146 53.881C58.5736 54.3384 59.0822 54.981 59.3759 55.7275C59.4029 55.7903 59.417 55.8578 59.4176 55.9261C59.4182 55.9944 59.4052 56.0621 59.3794 56.1254C59.3536 56.1886 59.3154 56.2461 59.2672 56.2945C59.219 56.3428 59.1616 56.3812 59.0984 56.4072C59.043 56.4324 58.9835 56.4477 58.9228 56.4525L58.9115 56.4468ZM53.7176 55.0535C53.6329 55.0531 53.5496 55.0323 53.4746 54.9928C53.3997 54.9534 53.3354 54.8965 53.2871 54.8269C53.2484 54.7704 53.2212 54.7068 53.207 54.6398C53.1929 54.5727 53.1921 54.5035 53.2047 54.4362C53.2174 54.3689 53.2432 54.3047 53.2806 54.2473C53.3181 54.1899 53.3665 54.1405 53.4231 54.1019C54.0717 53.6533 54.8244 53.3784 55.6094 53.3033C55.6796 53.2931 55.7511 53.2973 55.8196 53.3157C55.8882 53.3341 55.9522 53.3663 56.0078 53.4103C56.0634 53.4544 56.1095 53.5093 56.1431 53.5718C56.1768 53.6342 56.1973 53.7029 56.2035 53.7735C56.2097 53.8442 56.2014 53.9154 56.1791 53.9828C56.1568 54.0501 56.121 54.1122 56.0738 54.1652C56.0267 54.2182 55.9692 54.261 55.9049 54.2911C55.8406 54.3211 55.7709 54.3377 55.7 54.3398C55.0887 54.3987 54.5032 54.6153 54.0008 54.9685C53.9194 55.0215 53.8258 55.0527 53.7289 55.0591L53.7176 55.0535ZM33.684 52.8785C33.5801 52.8779 33.4788 52.8464 33.393 52.7878C33.3072 52.7293 33.2409 52.6465 33.2025 52.55C32.942 51.8986 32.7041 51.2246 32.5002 50.5392C32.4768 50.4728 32.4671 50.4023 32.4718 50.332C32.4764 50.2617 32.4953 50.1931 32.5272 50.1303C32.5591 50.0675 32.6034 50.0118 32.6574 49.9666C32.7114 49.9214 32.774 49.8876 32.8415 49.8673C32.9089 49.847 32.9798 49.8406 33.0498 49.8484C33.1198 49.8563 33.1875 49.8783 33.2488 49.913C33.31 49.9477 33.3636 49.9945 33.4063 50.0506C33.449 50.1066 33.4798 50.1707 33.4971 50.239C33.6953 50.8904 33.9219 51.5418 34.1711 52.1648C34.2196 52.2934 34.216 52.4358 34.1609 52.5617C34.1059 52.6877 34.0039 52.7871 33.8765 52.8388C33.8199 52.8664 33.7582 52.8818 33.6953 52.8841L33.684 52.8785ZM32.4775 48.9137C32.358 48.9136 32.2422 48.8725 32.1494 48.7973C32.0566 48.722 31.9924 48.6171 31.9678 48.5002C31.8205 47.8148 31.7016 47.1125 31.6053 46.4045C31.5969 46.2727 31.639 46.1426 31.7229 46.0406C31.8067 45.9386 31.9263 45.8723 32.0572 45.855C32.1881 45.8377 32.3208 45.8708 32.4282 45.9476C32.5357 46.0244 32.61 46.1391 32.6361 46.2686C32.7267 46.9482 32.8457 47.6223 32.9873 48.285C33.0158 48.4202 32.9895 48.5611 32.9141 48.6769C32.8386 48.7927 32.7203 48.8738 32.5851 48.9023L32.4775 48.9137ZM31.9111 44.7846C31.7781 44.7834 31.6504 44.732 31.5538 44.6406C31.4571 44.5492 31.3986 44.4246 31.39 44.2918C31.39 43.7254 31.3447 43.159 31.3447 42.5926V42.1565C31.3506 42.0192 31.4092 41.8896 31.5085 41.7946C31.6077 41.6996 31.7398 41.6466 31.8771 41.6467C31.9455 41.6467 32.0132 41.6604 32.0762 41.6871C32.1392 41.7138 32.1962 41.7528 32.2437 41.802C32.2913 41.8511 32.3285 41.9094 32.3531 41.9732C32.3777 42.037 32.3892 42.1051 32.3869 42.1735V42.5926C32.3869 43.159 32.3869 43.6801 32.4322 44.2182C32.4376 44.2874 32.4293 44.357 32.4077 44.423C32.3861 44.489 32.3517 44.55 32.3064 44.6027C32.2612 44.6553 32.2059 44.6985 32.1439 44.7297C32.0819 44.7609 32.0144 44.7796 31.9451 44.7846H31.9111Z" fill="#263238"/>
<path d="M37.1333 25.8213L34.0181 39.3583L0 32.0574L37.1333 25.8213Z" fill="#BA68C8"/>
<path opacity="0.3" d="M37.1333 25.8213L34.0181 39.3583L0 32.0574L37.1333 25.8213Z" fill="black"/>
<path d="M0 32.0576L42.3555 30.9248L52.3072 46.263L0 32.0576Z" fill="#BA68C8"/>
<path d="M0 32.0574L37.1333 25.8213L28.3824 15.6714L0 32.0574Z" fill="#BA68C8"/>
<path d="M147.531 173.115L138.567 172.886L138.105 191.034L147.068 191.262L147.531 173.115Z" fill="#945959"/>
<path d="M135.755 100.246C135.755 100.246 135.127 131.126 135.342 143.361C135.506 152.576 136.945 180.177 136.945 180.177C136.945 180.177 142.756 183.972 148.879 180.8C148.879 180.8 152.413 152.922 151.552 144.522C151.442 143.503 151.442 142.476 151.552 141.458L156.956 94.7068L135.755 100.246Z" fill="#37474F"/>
<path d="M141.204 188.52C141.204 188.52 146.171 187.953 147.174 186.334V185.28C147.174 185.28 148.035 185.739 147.87 187.483C147.723 189.103 148.369 191.862 148.465 195.226C148.471 195.501 148.413 195.773 148.295 196.021C148.177 196.268 148.002 196.485 147.785 196.653C146.822 197.395 144.789 198.534 141.204 198.687C139.946 198.743 134.917 201.966 130.731 201.966C126.545 201.966 123.81 199.893 123.81 196.993C123.81 194.093 132.345 191.471 132.345 191.471L136.446 187.506C136.446 187.506 135.647 183.184 138.258 184.221C140.87 185.257 141.204 186.334 141.204 188.52Z" fill="#37474F"/>
<path d="M140.298 191.04C140.242 191.041 140.188 191.023 140.143 190.991C140.098 190.958 140.065 190.912 140.048 190.859C139.176 188.248 136.452 187.767 136.423 187.761C136.39 187.755 136.357 187.743 136.328 187.725C136.299 187.707 136.273 187.683 136.253 187.656C136.233 187.628 136.219 187.596 136.211 187.563C136.204 187.529 136.202 187.495 136.208 187.461C136.221 187.393 136.259 187.333 136.315 187.293C136.371 187.252 136.44 187.236 136.508 187.245C137.421 187.423 138.272 187.835 138.979 188.439C139.686 189.044 140.224 189.821 140.541 190.695C140.563 190.76 140.558 190.831 140.527 190.893C140.496 190.955 140.442 191.001 140.377 191.023L140.298 191.04Z" fill="#FAFAFA"/>
<path d="M138.661 192.66C138.606 192.659 138.552 192.641 138.508 192.608C138.463 192.576 138.43 192.531 138.411 192.479C137.545 189.879 134.815 189.386 134.787 189.381C134.753 189.375 134.721 189.363 134.692 189.345C134.663 189.327 134.638 189.303 134.618 189.275C134.599 189.247 134.585 189.215 134.578 189.182C134.571 189.149 134.57 189.114 134.577 189.081C134.582 189.047 134.595 189.014 134.613 188.985C134.631 188.956 134.654 188.931 134.682 188.911C134.71 188.891 134.742 188.876 134.775 188.869C134.809 188.861 134.843 188.86 134.877 188.865C135.79 189.043 136.641 189.455 137.348 190.059C138.054 190.663 138.593 191.441 138.91 192.315C138.92 192.348 138.924 192.382 138.922 192.416C138.919 192.451 138.909 192.484 138.893 192.514C138.878 192.545 138.856 192.572 138.83 192.594C138.803 192.616 138.773 192.633 138.74 192.643C138.715 192.655 138.688 192.661 138.661 192.66Z" fill="#FAFAFA"/>
<path d="M137.239 194.065C137.185 194.065 137.133 194.048 137.089 194.017C137.045 193.985 137.012 193.941 136.996 193.889C136.129 191.284 133.399 190.791 133.371 190.786C133.334 190.784 133.297 190.775 133.264 190.758C133.231 190.742 133.202 190.719 133.178 190.69C133.155 190.661 133.138 190.628 133.128 190.592C133.119 190.556 133.117 190.519 133.123 190.482C133.129 190.446 133.143 190.411 133.164 190.38C133.184 190.349 133.211 190.323 133.243 190.304C133.274 190.284 133.309 190.272 133.346 190.267C133.383 190.262 133.42 190.265 133.456 190.276C134.369 190.452 135.221 190.863 135.928 191.467C136.635 192.072 137.173 192.85 137.488 193.725C137.51 193.791 137.505 193.862 137.474 193.923C137.443 193.985 137.389 194.032 137.324 194.054L137.239 194.065Z" fill="#FAFAFA"/>
<path d="M123.833 196.994C123.833 199.86 126.512 201.916 130.629 201.961L136.492 199.61C136.492 193.533 132.38 191.471 132.38 191.471C132.38 191.471 123.833 194.099 123.833 196.994Z" fill="#EBEBEB"/>
<path d="M148.341 195.475C147.338 196.251 145.208 197.447 141.459 197.611C140.139 197.667 134.883 201.009 130.505 201.009C127.503 201.009 125.214 199.99 124.07 198.364C124.812 200.511 127.282 201.938 130.754 201.938C134.94 201.938 139.969 198.715 141.227 198.659C144.812 198.506 146.845 197.367 147.808 196.625C148.008 196.47 148.171 196.273 148.286 196.048C148.402 195.823 148.467 195.575 148.477 195.323C148.435 195.377 148.39 195.428 148.341 195.475Z" fill="#263238"/>
<path d="M140.949 104.568C140.949 104.568 141.77 111.558 147.128 115.25L151.858 138.966L154.894 109.315L140.949 104.568Z" fill="#263238"/>
<path d="M171.731 178.089L162.792 178.788L164.207 196.886L173.146 196.187L171.731 178.089Z" fill="#945959"/>
<path d="M168.295 100.983C168.295 100.983 169.377 105.078 169.898 121.973C170.317 135.363 170.628 143.066 170.742 145.683C170.769 146.334 170.839 146.983 170.951 147.626C172.052 154.378 172.79 161.185 173.16 168.016C173.925 181.043 173.987 187.212 173.987 187.212C173.987 187.212 168.459 191.533 161.787 188.14L155.33 149.319L148.533 113.29C148.533 113.29 139.216 109.739 138.395 100.263L168.295 100.983Z" fill="#37474F"/>
<path d="M172.826 192.037L172.968 193.804C172.968 193.804 171.903 195.3 170.646 195.736C170.646 195.736 169.683 192.218 167.978 192.037C166.273 191.856 162.733 191.697 163.209 193.657C163.474 194.679 163.639 195.724 163.701 196.778L160.416 202.901C160.416 202.901 153.75 208.644 156.536 212.303C159.323 215.962 168.674 214.002 169.598 208.259C169.745 207.394 170.07 206.568 170.552 205.835C171.033 205.101 171.661 204.474 172.396 203.994C172.999 203.614 173.473 203.061 173.757 202.407C174.041 201.753 174.121 201.029 173.987 200.329C173.817 199.015 173.421 196.489 173.54 195.351C173.659 194.212 173.976 192.054 172.826 192.037Z" fill="#37474F"/>
<path d="M156.536 212.303C158.853 215.345 165.684 214.512 168.471 210.853C168.593 210.259 168.654 209.653 168.652 209.046C168.652 202.504 160.416 202.901 160.416 202.901C160.416 202.901 153.75 208.644 156.536 212.303Z" fill="#EBEBEB"/>
<path d="M173.987 200.329C173.987 200.233 173.959 200.12 173.942 200.006C173.878 200.53 173.696 201.032 173.411 201.475C173.125 201.918 172.743 202.291 172.294 202.566C171.534 203.064 170.886 203.712 170.389 204.471C169.892 205.23 169.557 206.084 169.405 206.979C168.465 212.858 159.006 214.908 156.004 211.278C156.119 211.648 156.3 211.995 156.536 212.303C159.323 215.968 168.674 214.002 169.598 208.259C169.745 207.394 170.07 206.568 170.552 205.834C171.033 205.101 171.661 204.474 172.396 203.994C172.998 203.614 173.473 203.061 173.757 202.407C174.041 201.753 174.121 201.029 173.987 200.329Z" fill="#263238"/>
<path d="M168.544 198.143C168.477 198.144 168.413 198.12 168.363 198.075C166.369 196.189 163.73 197.044 163.701 197.056C163.668 197.07 163.633 197.077 163.597 197.076C163.561 197.076 163.525 197.068 163.492 197.053C163.46 197.039 163.43 197.017 163.406 196.991C163.382 196.964 163.364 196.932 163.352 196.898C163.341 196.864 163.337 196.828 163.34 196.792C163.343 196.756 163.354 196.722 163.371 196.69C163.389 196.659 163.412 196.631 163.441 196.609C163.469 196.587 163.502 196.572 163.537 196.563C164.425 196.286 165.37 196.245 166.278 196.444C167.187 196.642 168.028 197.074 168.72 197.696C168.744 197.72 168.764 197.748 168.778 197.78C168.791 197.811 168.798 197.845 168.798 197.88C168.798 197.914 168.791 197.948 168.778 197.98C168.764 198.012 168.744 198.04 168.72 198.064C168.673 198.111 168.61 198.14 168.544 198.143Z" fill="#FAFAFA"/>
<path d="M167.4 200.414C167.335 200.414 167.273 200.39 167.224 200.346C165.231 198.46 162.591 199.316 162.563 199.327C162.497 199.349 162.425 199.343 162.363 199.312C162.3 199.281 162.253 199.226 162.231 199.16C162.21 199.094 162.215 199.022 162.246 198.96C162.278 198.897 162.332 198.85 162.399 198.828C163.287 198.555 164.231 198.515 165.139 198.713C166.047 198.912 166.888 199.342 167.581 199.961C167.629 200.011 167.655 200.077 167.655 200.145C167.655 200.214 167.629 200.28 167.581 200.329C167.534 200.38 167.469 200.41 167.4 200.414Z" fill="#FAFAFA"/>
<path d="M166.262 202.686C166.197 202.685 166.134 202.661 166.086 202.618C164.092 200.732 161.453 201.587 161.425 201.598C161.359 201.62 161.286 201.615 161.224 201.583C161.162 201.552 161.115 201.497 161.093 201.431C161.071 201.365 161.077 201.293 161.108 201.231C161.14 201.169 161.194 201.122 161.26 201.1C162.148 200.824 163.093 200.784 164.001 200.982C164.91 201.181 165.751 201.612 166.443 202.233C166.49 202.282 166.517 202.348 166.517 202.417C166.517 202.485 166.49 202.551 166.443 202.601C166.395 202.651 166.331 202.681 166.262 202.686Z" fill="#FAFAFA"/>
<path d="M108.953 27.6902C108.414 25.4047 108.035 23.0843 107.82 20.7461C107.684 18.0103 106.891 17.0531 105.22 18.4238C103.549 19.7945 99.7431 23.7707 99.9696 26.8689C100.155 30.302 101.247 33.6246 103.136 36.4977L108.007 37.9703L109.955 33.9715L108.953 27.6902Z" fill="#945959"/>
<path d="M130.068 52.4535L120.309 50.2955C120.309 50.2955 116.152 43.561 113.745 40.0097C111.338 36.4583 109.973 34.0001 109.973 34.0001L105.441 32.6238L103.13 36.5263C103.13 36.5263 110.726 55.4045 114.249 58.6159C116.022 60.2132 127.474 63.7589 127.474 63.7589C127.474 63.7589 132.283 58.6839 130.068 52.4535Z" fill="#945959"/>
<path d="M142.371 55.1041L130.069 52.4534C129.901 56.3389 129.03 60.1618 127.497 63.7361L139.856 67.565L142.371 55.1041Z" fill="#BA68C8"/>
<path opacity="0.3" d="M142.371 55.1041L130.069 52.4534C129.901 56.3389 129.03 60.1618 127.497 63.7361L139.856 67.565L142.371 55.1041Z" fill="white"/>
<path d="M159.436 56.5826L165.157 58.3837L168.295 75.3078L166.437 83.515C166.182 84.6296 166.134 85.7814 166.295 86.9134L168.295 100.983C168.295 100.983 162.631 104.596 152.215 104.596C141.798 104.596 135.755 100.275 135.755 100.275L136.542 68.3411C136.836 63.3729 138.904 58.6755 142.37 55.1042L149.467 55.9255L159.436 56.5826Z" fill="#BA68C8"/>
<path d="M141.402 29.718C141.402 29.718 135.936 34.5154 140.688 45.2091L146.245 30.7489L141.402 29.718Z" fill="#263238"/>
<path d="M159.436 56.5824L152.549 58.797L149.468 55.9254V43.0171H159.436V56.5824Z" fill="#945959"/>
<path d="M149.468 55.104C152.832 55.104 157.964 52.1077 157.964 50.0064L159.097 43H149.468V55.104Z" fill="#703838"/>
<path d="M152.118 26.7839C148.765 26.7839 141.634 28.6531 140.79 37.4266C139.946 46.2002 141.255 53.671 145.293 53.671C153.223 53.671 160.847 52.6628 160.909 39.6809C160.977 28.1999 155.392 26.7839 152.118 26.7839Z" fill="#945959"/>
<path d="M159.437 47.3443L158.145 43.3795C158.048 43.4611 157.93 43.5135 157.805 43.5305C157.679 43.5476 157.551 43.5286 157.436 43.4757C157.321 43.4229 157.223 43.3384 157.154 43.2321C157.085 43.1258 157.048 43.0021 157.046 42.8754V35.7954C157.046 35.7954 153.75 34.8608 154.101 32.0854C154.101 32.0854 152.402 33.5977 145.939 33.5977C139.477 33.5977 137.896 28.1093 138.542 25.0847C138.542 25.0847 139.743 26.3251 143.164 26.3251C146.585 26.3251 160.83 22.0261 161.198 30.6298C161.198 30.6298 162.399 28.8683 164.342 30.6298L161.844 32.1138C161.844 32.1138 164.806 32.0231 164.342 36.3674C164.041 39.1994 162.994 44.2348 162.314 47.3216C161.934 49.0464 160.903 50.558 159.437 51.5413V47.3443Z" fill="#263238"/>
<path d="M147.213 40.0378V45.6735L143.911 44.6597L147.213 40.0378Z" fill="#703838"/>
<path d="M152.458 40.9442C152.457 41.1523 152.394 41.3554 152.278 41.5279C152.161 41.7004 151.996 41.8346 151.804 41.9135C151.611 41.9923 151.4 42.0124 151.196 41.9711C150.992 41.9298 150.804 41.829 150.658 41.6815C150.511 41.5339 150.411 41.3462 150.371 41.142C150.331 40.9378 150.352 40.7262 150.432 40.5341C150.512 40.3419 150.647 40.1777 150.82 40.0622C150.993 39.9467 151.196 39.885 151.405 39.885C151.543 39.885 151.681 39.9124 151.809 39.9657C151.937 40.019 152.054 40.0971 152.152 40.1956C152.249 40.294 152.327 40.4108 152.38 40.5393C152.432 40.6678 152.459 40.8054 152.458 40.9442Z" fill="#263238"/>
<path d="M144.568 40.1963C144.568 40.4047 144.507 40.6084 144.391 40.7816C144.275 40.9549 144.111 41.0899 143.918 41.1696C143.726 41.2494 143.514 41.2702 143.309 41.2296C143.105 41.1889 142.917 41.0886 142.77 40.9413C142.623 40.7939 142.522 40.6062 142.482 40.4019C142.441 40.1975 142.462 39.9857 142.542 39.7932C142.621 39.6007 142.756 39.4361 142.93 39.3204C143.103 39.2046 143.307 39.1428 143.515 39.1428C143.794 39.1428 144.062 39.2538 144.26 39.4514C144.457 39.649 144.568 39.9169 144.568 40.1963Z" fill="#263238"/>
<path d="M142.229 37.9989L144.291 36.7755C144.291 36.7755 143.498 35.9542 142.71 36.447C141.923 36.9398 142.229 37.9989 142.229 37.9989Z" fill="#263238"/>
<path d="M153.551 38.7635L151.484 37.5458C151.484 37.5458 152.277 36.7245 153.064 37.2173C153.851 37.71 153.551 38.7635 153.551 38.7635Z" fill="#263238"/>
<path d="M147.479 48.381C147.479 48.381 149.009 47.4011 150.481 46.2966C150.481 46.2966 151.337 47.9619 149.989 48.8228C148.641 49.6837 147.479 48.381 147.479 48.381Z" fill="#703838"/>
<path d="M158.054 43.4363L161.702 39.4828L159.079 37.9082L158.054 43.4363Z" fill="#253239"/>
<path d="M158.654 41.8954C157.459 43.9684 157.771 46.4833 159.436 47.3442C160.507 47.9106 163.667 46.7042 164.862 44.6311C166.057 42.5581 165.389 40.7853 163.763 39.8507C162.138 38.9161 159.85 39.8111 158.654 41.8954Z" fill="#945959"/>
<path d="M149.468 55.9252L148.108 58.0832C147.846 58.4984 147.674 58.9642 147.604 59.4503C147.534 59.9364 147.567 60.4318 147.701 60.9042C147.835 61.3766 148.068 61.8155 148.383 62.1921C148.698 62.5688 149.089 62.8748 149.53 63.0902C150.332 63.4804 151.207 63.6987 152.099 63.731C152.99 63.7632 153.878 63.6088 154.706 63.2776C155.535 62.9464 156.285 62.4458 156.908 61.8078C157.531 61.1698 158.014 60.4085 158.326 59.5729L159.459 56.5823L154.475 54.7981L149.468 55.9252Z" fill="#945959"/>
<path d="M109.972 34C109.972 34 111.637 31.4625 111.609 29.0553C111.581 26.6481 111.881 25.5323 112.295 24.9545C112.708 24.3768 112.244 23.5329 111.133 23.8217C110.193 24.0766 109.032 25.5209 108.777 26.852C108.74 27.0637 108.656 27.2646 108.532 27.4399C108.407 27.6153 108.245 27.7608 108.058 27.8658C106.885 28.4946 104.699 30.2957 105.736 34.6627L109.972 34Z" fill="#945959"/>
<path d="M105.521 31.689C105.469 31.6807 105.423 31.6521 105.392 31.6097C105.361 31.5672 105.348 31.5143 105.356 31.4625C105.465 30.6744 105.758 29.9231 106.212 29.2696C106.666 28.6162 107.267 28.0789 107.968 27.7016C108.131 27.6137 108.273 27.4893 108.381 27.338C108.489 27.1868 108.561 27.0127 108.591 26.8293C108.601 26.7784 108.632 26.7339 108.675 26.7053C108.719 26.6767 108.772 26.6663 108.823 26.6764C108.848 26.6811 108.872 26.6908 108.893 26.7047C108.914 26.7187 108.932 26.7367 108.946 26.7578C108.961 26.7789 108.971 26.8025 108.976 26.8274C108.981 26.8523 108.981 26.878 108.976 26.9029C108.933 27.1413 108.836 27.3668 108.694 27.5629C108.552 27.759 108.368 27.9206 108.154 28.0357C107.507 28.3842 106.95 28.8809 106.531 29.4853C106.112 30.0897 105.841 30.7846 105.742 31.5134C105.74 31.5398 105.732 31.5655 105.72 31.5889C105.707 31.6123 105.69 31.6329 105.669 31.6494C105.649 31.6658 105.625 31.6779 105.599 31.6847C105.574 31.6915 105.547 31.693 105.521 31.689Z" fill="#703838"/>
<path d="M165.995 79.2498L168.51 84.5513L181.418 89.6603L176.213 73.886L165.995 79.2498Z" fill="#945959"/>
<path d="M164.392 58.1455C164.392 58.1455 160.088 62.5691 161.951 68.8052C163 72.3953 164.353 75.8895 165.995 79.2496C165.995 79.2496 173.251 79.4649 176.191 73.8858L172.492 64.5515C171.909 63.084 170.99 61.7732 169.81 60.7238C168.63 59.6745 167.221 58.9157 165.695 58.508L164.392 58.1455Z" fill="#BA68C8"/>
<path opacity="0.3" d="M164.392 58.1455C164.392 58.1455 160.088 62.5691 161.951 68.8052C163 72.3953 164.353 75.8895 165.995 79.2496C165.995 79.2496 173.251 79.4649 176.191 73.8858L172.492 64.5515C171.909 63.084 170.99 61.7732 169.81 60.7238C168.63 59.6745 167.221 58.9157 165.695 58.508L164.392 58.1455Z" fill="white"/>
<path d="M167.785 83.5657C171.048 84.5229 180.665 87.3719 180.665 87.3719C180.665 87.3719 180.739 87.5815 181.419 89.6375C182.461 92.8377 179.153 100.58 167.44 94.9617C155.727 89.343 151.45 86.3354 151.45 86.3354L152.725 79.2271C152.725 79.2271 164.064 82.4725 167.785 83.5657Z" fill="#945959"/>
<path d="M168.131 83.73L174.197 85.4802L167.406 82.2007L168.131 83.73Z" fill="#703838"/>
<path d="M150.912 89.547L143.299 88.737C143.027 88.7093 142.769 88.5989 142.56 88.4208C142.352 88.2427 142.203 88.0053 142.133 87.7402L137.975 72.0961C137.946 71.9892 137.943 71.8769 137.966 71.7686C137.989 71.6602 138.038 71.5589 138.107 71.4727C138.177 71.3865 138.266 71.3181 138.367 71.2729C138.468 71.2276 138.578 71.207 138.689 71.2126L146.052 71.5581C146.326 71.5692 146.589 71.6676 146.803 71.8387C147.017 72.0099 147.171 72.245 147.242 72.5096L151.671 88.6691C151.699 88.7795 151.7 88.895 151.673 89.0059C151.647 89.1167 151.595 89.2196 151.52 89.3057C151.446 89.3919 151.351 89.4588 151.245 89.5008C151.14 89.5428 151.025 89.5587 150.912 89.547Z" fill="#37474F"/>
<path d="M140.949 73.5064C140.949 73.6366 140.91 73.7639 140.838 73.872C140.765 73.9802 140.662 74.0644 140.542 74.1139C140.422 74.1635 140.289 74.1762 140.162 74.1504C140.034 74.1246 139.917 74.0614 139.825 73.969C139.734 73.8765 139.671 73.7589 139.647 73.6311C139.622 73.5033 139.636 73.371 139.686 73.251C139.737 73.1311 139.822 73.0289 139.931 72.9574C140.04 72.8858 140.167 72.8483 140.297 72.8494C140.471 72.8509 140.636 72.9208 140.758 73.0438C140.88 73.1669 140.949 73.3331 140.949 73.5064Z" fill="#263238"/>
<path d="M152.725 79.2497C152.725 79.2497 150.521 75.4208 147.786 74.4919L148.879 78.7003C148.879 78.7003 146.8 78.8646 144.45 78.8646C142.099 78.8646 139.528 77.2786 138.786 76.8708C138.044 76.463 137.353 79.3064 140.309 84.6645C143.266 90.0227 151.473 86.3637 151.473 86.3637L152.725 79.2497Z" fill="#945959"/>
<path d="M185.984 2.21942L190.084 4.553V3.10301C190.084 3.00106 190.084 2.89344 190.084 2.79715C190.084 2.70087 190.084 2.59891 190.084 2.50263V2.46864C190.232 0.542875 191.687 -0.193447 193.483 0.83174C194.287 1.32796 194.977 1.99032 195.505 2.7745C195.907 0.163386 198.037 -0.782505 200.602 0.707131C203.457 2.35536 205.774 6.3938 205.774 9.67893V12.7885C205.776 13.0348 205.841 13.2764 205.965 13.4898C206.088 13.7032 206.264 13.8811 206.476 14.0062L208.883 15.4166C209.403 15.7264 209.833 16.1661 210.13 16.6924C210.428 17.2188 210.584 17.8137 210.582 18.4185C210.581 18.6698 210.514 18.9162 210.387 19.1334C210.261 19.3505 210.08 19.5308 209.862 19.6563C209.644 19.7817 209.398 19.848 209.146 19.8484C208.895 19.8489 208.648 19.7836 208.43 19.6589L186.046 6.71099C185.45 6.36636 184.956 5.87073 184.613 5.27407C184.27 4.67741 184.09 4.00084 184.092 3.31258C184.094 3.092 184.153 2.87578 184.265 2.68524C184.376 2.49471 184.535 2.33646 184.726 2.22609C184.917 2.11572 185.133 2.05706 185.354 2.05589C185.574 2.05472 185.791 2.11109 185.984 2.21942Z" fill="#E6E6E6"/>
<path d="M203.758 28.3021L206.788 30.0014V28.9535C206.788 28.8742 206.788 28.8006 206.788 28.727C206.788 28.6533 206.788 28.5797 206.788 28.5061C206.895 27.0844 207.972 26.5406 209.286 27.2996C209.882 27.6639 210.392 28.1527 210.781 28.7326C211.075 26.8012 212.65 26.1045 214.559 27.2033C215.672 27.9325 216.599 28.9132 217.264 30.0662C217.929 31.2193 218.314 32.5125 218.388 33.8416V36.1411C218.388 36.3231 218.436 36.5018 218.526 36.6597C218.616 36.8176 218.746 36.9493 218.903 37.0417L220.687 38.0839C221.074 38.3116 221.394 38.6362 221.616 39.0256C221.839 39.415 221.956 39.8557 221.956 40.3042C221.956 40.4897 221.907 40.672 221.814 40.8326C221.721 40.9933 221.588 41.1267 221.427 41.2197C221.267 41.3126 221.084 41.3617 220.899 41.362C220.713 41.3624 220.531 41.314 220.37 41.2218L203.803 31.6213C203.367 31.3654 203.005 30.9996 202.755 30.5602C202.504 30.1209 202.373 29.6235 202.376 29.1178C202.376 28.9561 202.419 28.7973 202.5 28.6571C202.58 28.5169 202.696 28.4 202.835 28.3178C202.974 28.2356 203.133 28.1909 203.294 28.1882C203.456 28.1855 203.616 28.2247 203.758 28.3021Z" fill="#E6E6E6"/>
</svg>
