<svg width="240" height="226" viewBox="0 0 240 226" fill="none" xmlns="http://www.w3.org/2000/svg">
<path d="M35.1499 207.911C82.0165 230.907 158.023 230.907 204.862 207.911C251.702 184.915 251.723 147.621 204.862 124.625C158.001 101.628 82.0165 101.623 35.1499 124.625C-11.7166 147.627 -11.7166 184.926 35.1499 207.911Z" fill="#F5F5F5"/>
<path d="M61.3629 204.903C75.4478 204.903 86.8659 199.461 86.8659 192.747C86.8659 186.033 75.4478 180.591 61.3629 180.591C47.2779 180.591 35.8599 186.033 35.8599 192.747C35.8599 199.461 47.2779 204.903 61.3629 204.903Z" fill="#E0E0E0"/>
<path d="M189.642 169.145C203.727 169.145 215.145 163.702 215.145 156.988C215.145 150.275 203.727 144.832 189.642 144.832C175.557 144.832 164.139 150.275 164.139 156.988C164.139 163.702 175.557 169.145 189.642 169.145Z" fill="#E0E0E0"/>
<path d="M92.8456 104.649L71.2145 117.139C70.3339 117.712 69.7097 118.605 69.4724 119.629L64.0988 150.664C64.0388 151.148 64.1166 151.639 64.3234 152.08C64.5302 152.522 64.8574 152.896 65.2674 153.16L79.2149 161.209C79.665 161.438 80.1627 161.557 80.6675 161.557C81.1724 161.557 81.6701 161.438 82.1202 161.209L111.926 144.001C112.365 143.769 112.733 143.422 112.989 142.997C113.245 142.571 113.381 142.084 113.381 141.588C113.381 141.091 113.245 140.604 112.989 140.179C112.733 139.753 112.365 139.406 111.926 139.174L101.201 132.981C100.767 132.702 100.397 132.334 100.115 131.902C99.8327 131.47 99.6446 130.984 99.5627 130.474L97.1762 107.058C97.107 106.563 96.9346 106.089 96.6702 105.666C96.4059 105.242 96.0554 104.879 95.6417 104.6C95.2041 104.39 94.7233 104.284 94.2378 104.293C93.7523 104.301 93.2756 104.423 92.8456 104.649Z" fill="#263238"/>
<path d="M80.6675 155.759V161.564C81.1734 161.572 81.673 161.452 82.1201 161.215L111.926 144.007C112.341 143.747 112.688 143.393 112.941 142.974C113.193 142.554 113.343 142.081 113.379 141.593C113.35 141.023 113.15 140.475 112.806 140.021H107.929L80.6675 155.759Z" fill="#455A64"/>
<path d="M95.5707 106.233L73.9395 118.717C73.0591 119.292 72.4365 120.187 72.2029 121.212L67.3099 149.38C67.2492 149.864 67.3268 150.355 67.5336 150.797C67.7404 151.239 68.068 151.613 68.4785 151.876L79.204 158.069C79.6548 158.295 80.1522 158.413 80.6566 158.413C81.161 158.413 81.6584 158.295 82.1093 158.069L111.926 140.856C112.729 140.391 112.729 139.643 111.926 139.179L101.201 132.986C100.767 132.707 100.397 132.339 100.115 131.907C99.8327 131.476 99.6445 130.989 99.5627 130.48L97.1762 107.063C97.1809 106.874 97.1324 106.688 97.0364 106.526C96.9404 106.364 96.8006 106.232 96.6332 106.145C96.4657 106.059 96.2773 106.021 96.0894 106.037C95.9015 106.052 95.7218 106.12 95.5707 106.233Z" fill="#263238"/>
<path d="M111.926 139.179L101.201 132.986C100.771 132.715 100.407 132.351 100.136 131.921L67.5283 150.751C67.7243 151.217 68.0602 151.61 68.4895 151.876L79.2149 158.069C79.6657 158.295 80.1632 158.413 80.6676 158.413C81.172 158.413 81.6694 158.295 82.1202 158.069L111.926 140.856C112.729 140.391 112.729 139.643 111.926 139.179Z" fill="#37474F"/>
<path d="M24.1076 166.359L22.7259 165.561C22.1329 165.175 21.6393 164.654 21.2854 164.041C20.9314 163.428 20.7271 162.74 20.689 162.034V69.1524C20.7275 68.4472 20.9321 67.761 21.2861 67.1499C21.64 66.5387 22.1334 66.0198 22.7259 65.6355L136.206 0.48539C136.837 0.166275 137.534 0 138.24 0C138.947 0 139.644 0.166275 140.275 0.48539L141.334 1.09703C141.927 1.48219 142.42 2.00213 142.773 2.61433C143.126 3.22653 143.329 3.91362 143.366 4.61939V97.5497C143.328 98.2552 143.124 98.9418 142.771 99.5538C142.418 100.166 141.926 100.686 141.334 101.072L28.176 166.359C27.5458 166.679 26.8488 166.846 26.1418 166.846C25.4348 166.846 24.7378 166.679 24.1076 166.359Z" fill="#455A64"/>
<path d="M28.8696 71.5446L21.2897 67.1758C20.9213 67.7815 20.7145 68.4715 20.689 69.18V162.056C20.7271 162.762 20.9314 163.45 21.2854 164.063C21.6393 164.676 22.1329 165.197 22.7259 165.584L24.1076 166.359C24.7378 166.679 25.4348 166.846 26.1418 166.846C26.8488 166.846 27.5458 166.679 28.176 166.359L28.8696 165.96V71.5446Z" fill="#263238"/>
<path d="M26.1445 165.206V72.3195C26.1829 71.6142 26.3868 70.9277 26.7397 70.3158C27.0927 69.7039 27.5847 69.1836 28.176 68.7972L141.334 3.46687C142.459 2.817 143.366 3.34126 143.366 4.64099V97.5495C143.328 98.255 143.124 98.9416 142.771 99.5536C142.418 100.166 141.926 100.686 141.334 101.072L28.176 166.358C27.0565 167.03 26.1445 166.5 26.1445 165.206Z" fill="#37474F"/>
<path d="M79.2805 130.584L90.0005 124.391C90.8033 123.927 91.4586 124.26 91.4586 125.128C91.4219 125.617 91.2707 126.09 91.0174 126.509C90.7642 126.928 90.4158 127.282 90.0005 127.542L79.2805 133.729C78.4777 134.193 77.8279 133.866 77.8279 132.997C77.8636 132.509 78.0137 132.036 78.2661 131.617C78.5184 131.198 78.866 130.844 79.2805 130.584Z" fill="#E0E0E0"/>
<path d="M31.3545 71.637L137.927 9.92741C138.565 9.55606 139.084 9.85095 139.084 10.5937V91.5425C139.063 91.9457 138.947 92.3382 138.746 92.6883C138.545 93.0383 138.264 93.3362 137.927 93.5576L31.36 155.098C30.7156 155.469 30.1968 155.169 30.1968 154.432V73.6522C30.2181 73.249 30.3339 72.8565 30.5351 72.5064C30.7362 72.1563 31.0169 71.8585 31.3545 71.637Z" fill="white"/>
<path d="M35.3301 73.1883L133.104 16.7267C134.879 15.7055 136.332 16.5411 136.332 18.5889V88.8997C136.303 89.4191 136.153 89.9244 135.893 90.375C135.633 90.8255 135.271 91.2087 134.836 91.4937L34.7512 149.266C33.9266 149.747 33.2549 149.353 33.2549 148.403V76.7981C33.2933 76.0757 33.5011 75.3726 33.8616 74.7455C34.2221 74.1184 34.7252 73.585 35.3301 73.1883Z" fill="#E6E6E6"/>
<path d="M75.4197 60.9118L129.304 29.8003V40.6241L75.4197 71.7301V60.9118Z" fill="#F5F5F5"/>
<path d="M75.4197 76.0177L129.304 44.9062V72.0148L75.4197 103.126V76.0177Z" fill="#F0F0F0"/>
<path d="M136.332 20.293V18.6055C136.332 16.5577 134.879 15.7221 133.104 16.7433L35.352 73.1885C34.7486 73.5841 34.2464 74.1158 33.886 74.7409C33.5256 75.366 33.3169 76.0669 33.2769 76.7873V79.7964L136.332 20.293Z" fill="#BA68C8"/>
<path d="M122.8 24.1264C122.48 24.34 122.214 24.6257 122.025 24.9605C121.835 25.2952 121.726 25.6698 121.708 26.0541C121.708 26.764 122.204 27.048 122.8 26.693C123.12 26.4809 123.386 26.1963 123.575 25.8623C123.765 25.5284 123.874 25.1544 123.892 24.7708C123.914 24.0608 123.417 23.7768 122.8 24.1264Z" fill="white"/>
<path d="M127.212 21.5819C126.891 21.7949 126.625 22.0804 126.436 22.4153C126.246 22.7502 126.138 23.1251 126.12 23.5096C126.12 24.2141 126.617 24.5035 127.212 24.1486C127.531 23.9354 127.796 23.6506 127.986 23.3169C128.175 22.9831 128.284 22.6096 128.304 22.2263C128.32 21.5163 127.823 21.2269 127.212 21.5819Z" fill="white"/>
<path d="M131.619 19.0366C131.3 19.2497 131.035 19.5345 130.845 19.8683C130.656 20.2021 130.547 20.5755 130.527 20.9589C130.527 21.6688 131.024 21.9582 131.619 21.6033C131.94 21.3902 132.206 21.1047 132.395 20.7698C132.585 20.4349 132.693 20.06 132.711 19.6755C132.733 18.9711 132.236 18.6816 131.619 19.0366Z" fill="white"/>
<path d="M37.935 118.302C37.8354 118.301 37.7376 118.275 37.651 118.225C37.5633 118.175 37.4903 118.103 37.4395 118.016C37.3887 117.928 37.3618 117.829 37.3616 117.728V82.5593C37.3583 82.4583 37.3831 82.3584 37.4333 82.2706C37.4834 82.1829 37.5569 82.1108 37.6456 82.0623L68.0526 64.445C68.141 64.3953 68.2406 64.3691 68.342 64.3691C68.4434 64.3691 68.5431 64.3953 68.6315 64.445C68.7196 64.4959 68.7928 64.5692 68.8436 64.6574C68.8944 64.7456 68.9211 64.8457 68.9209 64.9475V100.144C68.9207 100.245 68.8938 100.344 68.843 100.431C68.7922 100.518 68.7192 100.591 68.6315 100.641L38.2245 118.225C38.1362 118.275 38.0365 118.302 37.935 118.302ZM38.5139 82.8924V116.751L67.7686 99.8216V65.9632L38.5139 82.8924Z" fill="#FAFAFA"/>
<path d="M48.4149 105.605C47.351 105.616 46.3032 105.345 45.3786 104.818C43.1942 103.557 41.9873 100.947 41.9873 97.4569C41.9873 90.5323 46.8585 82.0677 52.8493 78.6C55.8583 76.8579 58.7199 76.5903 60.9043 77.8518C63.0887 79.1133 64.2956 81.7237 64.2956 85.2133C64.2956 92.1488 59.4189 100.608 53.4282 104.076C51.9193 105.014 50.1909 105.542 48.4149 105.605ZM57.868 78.2232C56.2931 78.2855 54.7622 78.76 53.4282 79.5993C47.7542 82.876 43.1396 90.8982 43.1396 97.4569C43.1396 100.515 44.139 102.776 45.952 103.819C47.7651 104.862 50.2171 104.6 52.8493 103.076C58.5233 99.7997 63.1433 91.7829 63.1433 85.2133C63.1433 82.1551 62.144 79.8942 60.3254 78.8512C59.5766 78.4273 58.7284 78.2105 57.868 78.2232Z" fill="#FAFAFA"/>
<path d="M168.077 123.015L165.964 121.791C165.913 121.765 165.857 121.751 165.8 121.751C165.743 121.751 165.686 121.765 165.636 121.791L161.813 123.512C161.753 123.54 161.687 123.555 161.62 123.556C161.554 123.556 161.488 123.541 161.427 123.513C161.367 123.485 161.313 123.444 161.27 123.393C161.227 123.341 161.197 123.281 161.18 123.217C160.973 122.553 160.687 121.917 160.328 121.322C160.247 121.183 160.2 121.027 160.189 120.867C160.179 120.707 160.206 120.547 160.268 120.399L162.813 115.265C162.875 115.135 162.887 114.986 162.846 114.848C162.804 114.709 162.713 114.591 162.589 114.517L159.825 112.923C159.764 112.884 159.696 112.857 159.625 112.845C159.553 112.833 159.48 112.835 159.409 112.851C159.339 112.867 159.272 112.897 159.213 112.94C159.154 112.982 159.104 113.036 159.066 113.097L155.893 117.87C155.794 117.996 155.668 118.099 155.525 118.17C155.381 118.242 155.224 118.281 155.063 118.285C154.699 118.276 154.334 118.292 153.971 118.334V114.845L151.847 113.622C151.792 113.597 151.731 113.587 151.67 113.592C151.61 113.598 151.552 113.62 151.503 113.654L147.21 116.134C147.074 116.223 146.957 116.34 146.869 116.478C146.78 116.615 146.722 116.769 146.697 116.931L146.271 121.709C146.222 122.047 146.065 122.359 145.823 122.6C144.973 123.387 144.176 124.23 143.437 125.123C143.334 125.238 143.2 125.323 143.051 125.365C142.902 125.408 142.744 125.407 142.596 125.363L139.838 124.402C139.696 124.357 139.544 124.361 139.405 124.412C139.265 124.464 139.147 124.56 139.068 124.686L135.912 130.147C135.841 130.278 135.815 130.43 135.84 130.577C135.865 130.724 135.938 130.859 136.048 130.96L138.26 132.866C138.373 132.973 138.452 133.11 138.49 133.261C138.528 133.412 138.522 133.571 138.473 133.718C138.068 134.803 137.737 135.914 137.484 137.044C137.395 137.372 137.204 137.662 136.938 137.874L133.017 140.632C132.889 140.735 132.784 140.863 132.709 141.009C132.634 141.155 132.59 141.315 132.58 141.478V146.431C132.575 146.494 132.587 146.557 132.613 146.613C132.64 146.67 132.682 146.718 132.733 146.754L134.847 147.971L137.987 146.486C138.103 146.737 138.232 146.981 138.374 147.218C138.455 147.357 138.503 147.512 138.513 147.672C138.523 147.832 138.497 147.993 138.435 148.141L135.89 153.274C135.827 153.404 135.815 153.553 135.856 153.692C135.898 153.83 135.99 153.948 136.114 154.022L138.877 155.617C139.002 155.687 139.15 155.709 139.29 155.676C139.431 155.644 139.554 155.561 139.636 155.442L142.809 150.669C142.908 150.543 143.034 150.441 143.178 150.369C143.321 150.297 143.479 150.258 143.639 150.254C144.335 150.269 145.03 150.199 145.709 150.047C145.773 150.029 145.841 150.025 145.907 150.037C145.973 150.048 146.036 150.074 146.091 150.113C146.146 150.152 146.192 150.202 146.225 150.26C146.258 150.319 146.277 150.384 146.282 150.451L146.697 154.618C146.699 154.677 146.715 154.735 146.745 154.786C146.774 154.838 146.816 154.881 146.866 154.912L148.98 156.13L151.514 152.406C151.651 152.316 151.768 152.198 151.856 152.059C151.945 151.921 152.003 151.766 152.027 151.603L152.453 146.83C152.478 146.674 152.541 146.527 152.636 146.401C152.731 146.276 152.856 146.175 152.999 146.109C154.257 145.562 155.39 144.765 156.33 143.766C156.441 143.657 156.578 143.578 156.729 143.539C156.879 143.499 157.038 143.501 157.188 143.543L158.881 144.138C159.023 144.183 159.176 144.179 159.316 144.126C159.455 144.074 159.573 143.976 159.651 143.848L162.807 138.387C162.878 138.256 162.903 138.104 162.879 137.957C162.854 137.81 162.781 137.675 162.671 137.574L161.218 136.318C161.106 136.209 161.024 136.072 160.982 135.921C160.94 135.771 160.938 135.612 160.978 135.46C161.295 134.166 161.429 132.833 161.376 131.501C161.378 131.339 161.416 131.18 161.487 131.034C161.557 130.889 161.66 130.761 161.786 130.66L165.707 127.897C165.835 127.795 165.94 127.668 166.015 127.523C166.091 127.378 166.134 127.219 166.144 127.056L168.017 124.811L168.077 123.015ZM149.335 142.674C145.332 144.99 142.842 143.346 142.842 138.726C142.842 134.106 146.151 128.437 150.154 126.127C154.157 123.817 156.587 125.494 156.587 130.119C156.587 134.745 153.338 140.342 149.335 142.652V142.674Z" fill="#BA68C8"/>
<path opacity="0.1" d="M168.077 123.015L165.964 121.791C165.913 121.765 165.857 121.751 165.8 121.751C165.743 121.751 165.686 121.765 165.636 121.791L161.813 123.512C161.753 123.54 161.687 123.555 161.62 123.556C161.554 123.556 161.488 123.541 161.427 123.513C161.367 123.485 161.313 123.444 161.27 123.393C161.227 123.341 161.197 123.281 161.18 123.217C160.973 122.553 160.687 121.917 160.328 121.322C160.247 121.183 160.2 121.027 160.189 120.867C160.179 120.707 160.206 120.547 160.268 120.399L162.813 115.265C162.875 115.135 162.887 114.986 162.846 114.848C162.804 114.709 162.713 114.591 162.589 114.517L159.825 112.923C159.764 112.884 159.696 112.857 159.625 112.845C159.553 112.833 159.48 112.835 159.409 112.851C159.339 112.867 159.272 112.897 159.213 112.94C159.154 112.982 159.104 113.036 159.066 113.097L155.893 117.87C155.794 117.996 155.668 118.099 155.525 118.17C155.381 118.242 155.224 118.281 155.063 118.285C154.699 118.276 154.334 118.292 153.971 118.334V114.845L151.847 113.622C151.792 113.597 151.731 113.587 151.67 113.592C151.61 113.598 151.552 113.62 151.503 113.654L147.21 116.134C147.074 116.223 146.957 116.34 146.869 116.478C146.78 116.615 146.722 116.769 146.697 116.931L146.271 121.709C146.222 122.047 146.065 122.359 145.823 122.6C144.973 123.387 144.176 124.23 143.437 125.123C143.334 125.238 143.2 125.323 143.051 125.365C142.902 125.408 142.744 125.407 142.596 125.363L139.838 124.402C139.696 124.357 139.544 124.361 139.405 124.412C139.265 124.464 139.147 124.56 139.068 124.686L135.912 130.147C135.841 130.278 135.815 130.43 135.84 130.577C135.865 130.724 135.938 130.859 136.048 130.96L138.26 132.866C138.373 132.973 138.452 133.11 138.49 133.261C138.528 133.412 138.522 133.571 138.473 133.718C138.068 134.803 137.737 135.914 137.484 137.044C137.395 137.372 137.204 137.662 136.938 137.874L133.017 140.632C132.889 140.735 132.784 140.863 132.709 141.009C132.634 141.155 132.59 141.315 132.58 141.478V146.431C132.575 146.494 132.587 146.557 132.613 146.613C132.64 146.67 132.682 146.718 132.733 146.754L134.847 147.971L137.987 146.486C138.103 146.737 138.232 146.981 138.374 147.218C138.455 147.357 138.503 147.512 138.513 147.672C138.523 147.832 138.497 147.993 138.435 148.141L135.89 153.274C135.827 153.404 135.815 153.553 135.856 153.692C135.898 153.83 135.99 153.948 136.114 154.022L138.877 155.617C139.002 155.687 139.15 155.709 139.29 155.676C139.431 155.644 139.554 155.561 139.636 155.442L142.809 150.669C142.908 150.543 143.034 150.441 143.178 150.369C143.321 150.297 143.479 150.258 143.639 150.254C144.335 150.269 145.03 150.199 145.709 150.047C145.773 150.029 145.841 150.025 145.907 150.037C145.973 150.048 146.036 150.074 146.091 150.113C146.146 150.152 146.192 150.202 146.225 150.26C146.258 150.319 146.277 150.384 146.282 150.451L146.697 154.618C146.699 154.677 146.715 154.735 146.745 154.786C146.774 154.838 146.816 154.881 146.866 154.912L148.98 156.13L151.514 152.406C151.651 152.316 151.768 152.198 151.856 152.059C151.945 151.921 152.003 151.766 152.027 151.603L152.453 146.83C152.478 146.674 152.541 146.527 152.636 146.401C152.731 146.276 152.856 146.175 152.999 146.109C154.257 145.562 155.39 144.765 156.33 143.766C156.441 143.657 156.578 143.578 156.729 143.539C156.879 143.499 157.038 143.501 157.188 143.543L158.881 144.138C159.023 144.183 159.176 144.179 159.316 144.126C159.455 144.074 159.573 143.976 159.651 143.848L162.807 138.387C162.878 138.256 162.903 138.104 162.879 137.957C162.854 137.81 162.781 137.675 162.671 137.574L161.218 136.318C161.106 136.209 161.024 136.072 160.982 135.921C160.94 135.771 160.938 135.612 160.978 135.46C161.295 134.166 161.429 132.833 161.376 131.501C161.378 131.339 161.416 131.18 161.487 131.034C161.557 130.889 161.66 130.761 161.786 130.66L165.707 127.897C165.835 127.795 165.94 127.668 166.015 127.523C166.091 127.378 166.134 127.219 166.144 127.056L168.017 124.811L168.077 123.015ZM149.335 142.674C145.332 144.99 142.842 143.346 142.842 138.726C142.842 134.106 146.151 128.437 150.154 126.127C154.157 123.817 156.587 125.494 156.587 130.119C156.587 134.745 153.338 140.342 149.335 142.652V142.674Z" fill="black"/>
<path d="M161.966 116.975L162.807 115.277C162.87 115.146 162.882 114.998 162.84 114.859C162.799 114.721 162.707 114.603 162.583 114.528L159.82 112.934C159.759 112.895 159.691 112.868 159.619 112.856C159.548 112.844 159.474 112.846 159.404 112.862C159.333 112.878 159.266 112.909 159.208 112.951C159.149 112.993 159.099 113.047 159.061 113.109L155.888 117.882C155.828 117.96 155.756 118.028 155.675 118.084L159.225 120.137L161.966 116.975Z" fill="#BA68C8"/>
<path d="M137.211 137.568C137.131 137.693 137.03 137.802 136.911 137.89L132.99 140.648C132.885 140.73 132.798 140.832 132.733 140.948L135.125 142.33L140.329 139.365L137.211 137.568Z" fill="#BA68C8"/>
<path d="M139.598 124.38C139.488 124.384 139.38 124.415 139.285 124.47C139.19 124.525 139.11 124.603 139.051 124.697L135.895 130.158C135.831 130.28 135.806 130.419 135.824 130.556L138.555 132.129L142.874 126.286L139.598 124.38Z" fill="#BA68C8"/>
<path d="M146.762 116.664L150.126 118.608L153.949 116.423V114.883L151.825 113.66C151.77 113.635 151.709 113.625 151.648 113.631C151.588 113.637 151.53 113.658 151.481 113.693L147.188 116.172C147.002 116.291 146.854 116.462 146.762 116.664Z" fill="#BA68C8"/>
<path d="M168.077 123.014C168.025 122.985 167.967 122.97 167.908 122.97C167.848 122.97 167.79 122.985 167.738 123.014L163.916 124.74C163.855 124.768 163.79 124.784 163.723 124.784C163.656 124.784 163.59 124.77 163.53 124.741C163.469 124.713 163.415 124.672 163.373 124.621C163.33 124.57 163.299 124.509 163.282 124.445C163.14 123.982 162.957 123.532 162.736 123.101L165.609 121.796C165.66 121.77 165.717 121.757 165.775 121.757C165.833 121.757 165.89 121.77 165.942 121.796L168.077 123.014Z" fill="#BA68C8"/>
<g opacity="0.4">
<path d="M161.966 116.975L162.807 115.277C162.87 115.146 162.882 114.998 162.84 114.859C162.799 114.721 162.707 114.603 162.583 114.528L159.82 112.934C159.759 112.895 159.691 112.868 159.619 112.856C159.548 112.844 159.474 112.846 159.404 112.862C159.333 112.878 159.266 112.909 159.208 112.951C159.149 112.993 159.099 113.047 159.061 113.109L155.888 117.882C155.828 117.96 155.756 118.028 155.675 118.084L159.225 120.137L161.966 116.975Z" fill="white"/>
<path d="M137.211 137.568C137.131 137.693 137.03 137.802 136.911 137.891L132.99 140.648C132.885 140.73 132.798 140.832 132.733 140.949L135.125 142.33L140.329 139.365L137.211 137.568Z" fill="white"/>
<path d="M139.598 124.38C139.488 124.384 139.38 124.415 139.285 124.471C139.19 124.526 139.11 124.604 139.051 124.697L135.895 130.158C135.831 130.281 135.806 130.42 135.824 130.557L138.555 132.13L142.874 126.286L139.598 124.38Z" fill="white"/>
<path d="M146.762 116.664L150.126 118.608L153.949 116.423V114.883L151.825 113.66C151.77 113.635 151.709 113.625 151.648 113.631C151.588 113.637 151.53 113.658 151.481 113.693L147.188 116.172C147.002 116.291 146.854 116.462 146.762 116.664Z" fill="white"/>
<path d="M168.077 123.015C168.025 122.986 167.967 122.971 167.908 122.971C167.848 122.971 167.79 122.986 167.738 123.015L163.916 124.741C163.855 124.769 163.79 124.784 163.723 124.785C163.656 124.785 163.59 124.771 163.53 124.742C163.469 124.714 163.415 124.673 163.373 124.622C163.33 124.571 163.299 124.51 163.282 124.446C163.14 123.983 162.957 123.533 162.736 123.102L165.609 121.797C165.66 121.771 165.717 121.758 165.775 121.758C165.833 121.758 165.89 121.771 165.942 121.797L168.077 123.015Z" fill="white"/>
</g>
<path d="M168.23 128.29V123.331C168.238 123.27 168.229 123.208 168.204 123.153C168.178 123.097 168.137 123.049 168.085 123.016C168.034 122.983 167.974 122.965 167.912 122.965C167.851 122.964 167.79 122.982 167.738 123.015L163.916 124.74C163.855 124.769 163.789 124.784 163.722 124.784C163.655 124.785 163.588 124.77 163.527 124.742C163.466 124.714 163.412 124.673 163.369 124.622C163.326 124.57 163.294 124.51 163.277 124.445C163.07 123.782 162.784 123.145 162.425 122.55C162.346 122.411 162.3 122.255 162.291 122.095C162.281 121.935 162.309 121.775 162.37 121.627L164.915 116.489C164.977 116.359 164.988 116.21 164.945 116.073C164.903 115.935 164.81 115.818 164.686 115.746L161.922 114.146C161.796 114.076 161.648 114.056 161.508 114.089C161.368 114.122 161.245 114.207 161.163 114.326L157.99 119.099C157.893 119.227 157.767 119.33 157.623 119.401C157.479 119.472 157.321 119.509 157.16 119.509C156.466 119.496 155.773 119.567 155.096 119.722C155.031 119.74 154.964 119.743 154.897 119.731C154.831 119.72 154.769 119.694 154.714 119.655C154.659 119.617 154.613 119.566 154.58 119.508C154.547 119.449 154.528 119.384 154.523 119.317L154.102 115.145C154.104 115.084 154.088 115.025 154.056 114.972C154.025 114.92 153.98 114.878 153.925 114.851C153.871 114.823 153.81 114.812 153.75 114.818C153.689 114.823 153.632 114.846 153.583 114.883L149.297 117.362C149.159 117.451 149.043 117.568 148.954 117.706C148.865 117.843 148.807 117.998 148.783 118.16L148.352 122.938C148.301 123.275 148.144 123.587 147.904 123.828C147.054 124.614 146.258 125.457 145.523 126.351C145.419 126.468 145.285 126.552 145.135 126.595C144.985 126.637 144.826 126.636 144.676 126.592L141.946 125.63C141.804 125.585 141.65 125.588 141.509 125.639C141.369 125.691 141.25 125.787 141.17 125.914L138.019 131.375C137.948 131.507 137.922 131.658 137.947 131.806C137.971 131.954 138.045 132.089 138.156 132.189L140.368 134.095C140.48 134.201 140.56 134.337 140.597 134.487C140.635 134.637 140.629 134.795 140.581 134.941C140.177 136.029 139.845 137.142 139.587 138.273C139.498 138.601 139.307 138.892 139.041 139.103L135.125 141.833C134.995 141.935 134.888 142.063 134.812 142.209C134.736 142.355 134.692 142.515 134.683 142.68V147.633C134.674 147.694 134.683 147.756 134.709 147.812C134.735 147.868 134.776 147.915 134.827 147.948C134.879 147.982 134.939 147.999 135.001 148C135.062 148 135.122 147.983 135.174 147.95L138.997 146.229C139.058 146.2 139.124 146.184 139.191 146.183C139.259 146.182 139.325 146.197 139.387 146.225C139.448 146.253 139.502 146.295 139.545 146.346C139.588 146.398 139.619 146.459 139.636 146.524C139.837 147.199 140.124 147.845 140.488 148.447C140.565 148.588 140.609 148.744 140.619 148.905C140.628 149.065 140.602 149.226 140.542 149.375L137.998 154.508C137.936 154.639 137.925 154.787 137.966 154.925C138.008 155.063 138.098 155.181 138.222 155.257L140.985 156.851C141.112 156.923 141.261 156.944 141.402 156.911C141.544 156.877 141.668 156.792 141.749 156.671L144.922 151.903C145.022 151.778 145.148 151.675 145.291 151.603C145.434 151.532 145.592 151.492 145.752 151.488C146.446 151.503 147.139 151.433 147.817 151.281C147.881 151.263 147.949 151.26 148.015 151.271C148.081 151.282 148.144 151.308 148.199 151.347C148.254 151.386 148.299 151.436 148.332 151.495C148.366 151.553 148.385 151.618 148.39 151.685L148.81 155.852C148.808 155.913 148.823 155.974 148.854 156.027C148.885 156.08 148.93 156.123 148.985 156.151C149.039 156.179 149.101 156.191 149.162 156.185C149.223 156.18 149.281 156.157 149.329 156.119L153.616 153.64C153.754 153.55 153.87 153.432 153.959 153.294C154.047 153.155 154.105 153 154.13 152.837L154.561 148.064C154.613 147.726 154.77 147.413 155.009 147.169C155.859 146.383 156.654 145.54 157.39 144.646C157.494 144.532 157.628 144.449 157.777 144.408C157.925 144.366 158.083 144.367 158.231 144.411L160.989 145.372C161.132 145.416 161.285 145.412 161.426 145.36C161.566 145.307 161.685 145.21 161.764 145.083L164.915 139.622C164.986 139.491 165.011 139.34 164.986 139.194C164.961 139.048 164.888 138.914 164.779 138.813L162.567 136.907C162.455 136.8 162.375 136.663 162.337 136.512C162.3 136.361 162.305 136.203 162.354 136.056C162.758 134.97 163.09 133.859 163.348 132.73C163.436 132.402 163.628 132.111 163.894 131.9L167.815 129.136C167.94 129.033 168.042 128.904 168.114 128.758C168.185 128.612 168.225 128.452 168.23 128.29ZM151.443 143.87C147.44 146.186 144.196 144.307 144.196 139.687C144.196 135.067 147.44 129.442 151.443 127.127C155.446 124.811 158.695 126.69 158.695 131.315C158.695 135.941 155.451 141.56 151.443 143.87Z" fill="#BA68C8"/>
<path d="M146.943 161.854C146.884 161.824 146.818 161.811 146.752 161.816C146.687 161.822 146.624 161.847 146.571 161.886L144.764 163.082C144.644 163.152 144.503 163.174 144.368 163.143C144.234 163.113 144.115 163.033 144.037 162.919C143.931 162.767 143.815 162.622 143.688 162.487C143.581 162.375 143.506 162.237 143.468 162.087C143.431 161.936 143.433 161.779 143.475 161.63L146.348 159.811L144.201 158.572C144.158 158.543 144.11 158.523 144.059 158.512L142.7 158.206C142.55 158.18 142.396 158.2 142.258 158.265C142.12 158.329 142.006 158.434 141.93 158.566L140.646 161.002C140.471 161.286 140.197 161.494 139.876 161.586H139.794C139.85 161.408 139.888 161.225 139.909 161.04L137.757 159.806C137.694 159.771 137.621 159.758 137.549 159.767C137.477 159.777 137.411 159.81 137.359 159.86L135.316 161.444C135.194 161.554 135.097 161.687 135.03 161.837C134.963 161.987 134.929 162.149 134.929 162.312L135.049 164.251C135.052 164.591 134.941 164.922 134.732 165.19C134.396 165.593 134.08 166.012 133.787 166.446C133.69 166.576 133.565 166.681 133.421 166.754C133.277 166.827 133.118 166.865 132.957 166.867L131.646 166.801C131.49 166.8 131.336 166.843 131.203 166.925C131.07 167.008 130.962 167.125 130.893 167.266L129.659 170.029C129.612 170.147 129.608 170.277 129.647 170.397C129.685 170.518 129.765 170.621 129.872 170.69L131.324 171.525C131.37 171.645 131.382 171.776 131.357 171.902C131.255 172.338 131.178 172.779 131.128 173.224C131.077 173.561 130.922 173.874 130.685 174.119L128.878 175.757C128.765 175.874 128.679 176.015 128.627 176.169C128.575 176.323 128.558 176.486 128.577 176.648L128.916 178.619C128.922 178.673 128.939 178.725 128.968 178.771C128.996 178.818 129.034 178.857 129.08 178.887L131.237 180.132L131.264 177.663C131.383 177.594 131.525 177.572 131.66 177.602C131.794 177.633 131.913 177.713 131.99 177.827C132.097 177.98 132.216 178.125 132.345 178.259C132.452 178.372 132.527 178.511 132.564 178.663C132.6 178.814 132.596 178.972 132.553 179.121L131.63 181.65C131.592 181.748 131.59 181.856 131.622 181.955C131.655 182.055 131.722 182.14 131.81 182.196L133.967 183.441L134.552 181.836L135.382 179.771C135.559 179.487 135.835 179.279 136.157 179.187C136.442 179.117 136.721 179.025 136.993 178.914C137.053 178.884 137.12 178.868 137.187 178.867C137.255 178.866 137.321 178.88 137.383 178.907C137.445 178.935 137.499 178.976 137.543 179.027C137.587 179.078 137.619 179.138 137.637 179.203L138.101 180.732C138.113 180.782 138.134 180.829 138.164 180.871C138.194 180.912 138.232 180.947 138.276 180.973L140.461 182.218L140.078 179.831L140.739 179.313C140.863 179.205 140.962 179.071 141.029 178.921C141.096 178.771 141.129 178.609 141.127 178.444L141.007 176.506C141.006 176.166 141.118 175.836 141.323 175.566C141.656 175.168 142.164 174.955 142.459 174.518C142.629 174.272 142.809 173.879 143.104 173.89L144.414 173.955C144.57 173.956 144.723 173.914 144.856 173.833C144.989 173.752 145.097 173.635 145.168 173.497L146.397 170.728C146.449 170.599 146.45 170.454 146.399 170.324C146.348 170.194 146.25 170.088 146.124 170.029L145.064 169.581C144.93 169.518 144.822 169.411 144.756 169.278C144.691 169.145 144.672 168.994 144.704 168.849C144.802 168.413 144.877 167.972 144.928 167.528C144.978 167.19 145.133 166.877 145.37 166.632L147.178 164.994C147.341 164.826 147.447 164.609 147.478 164.377L149.116 163.099L146.943 161.854ZM138.751 174.605C136.567 176.342 134.426 175.867 134.027 173.546C133.629 171.225 135.436 168.27 137.648 166.534C139.86 164.797 141.635 164.928 142.017 167.249C142.399 169.57 140.947 172.863 138.735 174.605H138.751Z" fill="#BA68C8"/>
<path opacity="0.1" d="M146.943 161.854C146.884 161.824 146.818 161.811 146.752 161.816C146.687 161.822 146.624 161.847 146.571 161.886L144.764 163.082C144.644 163.152 144.503 163.174 144.368 163.143C144.234 163.113 144.115 163.033 144.037 162.919C143.931 162.767 143.815 162.622 143.688 162.487C143.581 162.375 143.506 162.237 143.468 162.087C143.431 161.936 143.433 161.779 143.475 161.63L146.348 159.811L144.201 158.572C144.158 158.543 144.11 158.523 144.059 158.512L142.7 158.206C142.55 158.18 142.396 158.2 142.258 158.265C142.12 158.329 142.006 158.434 141.93 158.566L140.646 161.002C140.471 161.286 140.197 161.494 139.876 161.586H139.794C139.85 161.408 139.888 161.225 139.909 161.04L137.757 159.806C137.694 159.771 137.621 159.758 137.549 159.767C137.477 159.777 137.411 159.81 137.359 159.86L135.316 161.444C135.194 161.554 135.097 161.687 135.03 161.837C134.963 161.987 134.929 162.149 134.929 162.312L135.049 164.251C135.052 164.591 134.941 164.922 134.732 165.19C134.396 165.593 134.08 166.012 133.787 166.446C133.69 166.576 133.565 166.681 133.421 166.754C133.277 166.827 133.118 166.865 132.957 166.867L131.646 166.801C131.49 166.8 131.336 166.843 131.203 166.925C131.07 167.008 130.962 167.125 130.893 167.266L129.659 170.029C129.612 170.147 129.608 170.277 129.647 170.397C129.685 170.518 129.765 170.621 129.872 170.69L131.324 171.525C131.37 171.645 131.382 171.776 131.357 171.902C131.255 172.338 131.178 172.779 131.128 173.224C131.077 173.561 130.922 173.874 130.685 174.119L128.878 175.757C128.765 175.874 128.679 176.015 128.627 176.169C128.575 176.323 128.558 176.486 128.577 176.648L128.916 178.619C128.922 178.673 128.939 178.725 128.968 178.771C128.996 178.818 129.034 178.857 129.08 178.887L131.237 180.132L131.264 177.663C131.383 177.594 131.525 177.572 131.66 177.602C131.794 177.633 131.913 177.713 131.99 177.827C132.097 177.98 132.216 178.125 132.345 178.259C132.452 178.372 132.527 178.511 132.564 178.663C132.6 178.814 132.596 178.972 132.553 179.121L131.63 181.65C131.592 181.748 131.59 181.856 131.622 181.955C131.655 182.055 131.722 182.14 131.81 182.196L133.967 183.441L134.552 181.836L135.382 179.771C135.559 179.487 135.835 179.279 136.157 179.187C136.442 179.117 136.721 179.025 136.993 178.914C137.053 178.884 137.12 178.868 137.187 178.867C137.255 178.866 137.321 178.88 137.383 178.907C137.445 178.935 137.499 178.976 137.543 179.027C137.587 179.078 137.619 179.138 137.637 179.203L138.101 180.732C138.113 180.782 138.134 180.829 138.164 180.871C138.194 180.912 138.232 180.947 138.276 180.973L140.461 182.218L140.078 179.831L140.739 179.313C140.863 179.205 140.962 179.071 141.029 178.921C141.096 178.771 141.129 178.609 141.127 178.444L141.007 176.506C141.006 176.166 141.118 175.836 141.323 175.566C141.656 175.168 142.164 174.955 142.459 174.518C142.629 174.272 142.809 173.879 143.104 173.89L144.414 173.955C144.57 173.956 144.723 173.914 144.856 173.833C144.989 173.752 145.097 173.635 145.168 173.497L146.397 170.728C146.449 170.599 146.45 170.454 146.399 170.324C146.348 170.194 146.25 170.088 146.124 170.029L145.064 169.581C144.93 169.518 144.822 169.411 144.756 169.278C144.691 169.145 144.672 168.994 144.704 168.849C144.802 168.413 144.877 167.972 144.928 167.528C144.978 167.19 145.133 166.877 145.37 166.632L147.178 164.994C147.341 164.826 147.447 164.609 147.478 164.377L149.116 163.099L146.943 161.854ZM138.751 174.605C136.567 176.342 134.426 175.867 134.027 173.546C133.629 171.225 135.436 168.27 137.648 166.534C139.86 164.797 141.635 164.928 142.017 167.249C142.399 169.57 140.947 172.863 138.735 174.605H138.751Z" fill="black"/>
<path d="M130.658 174.163L128.867 175.801C128.73 175.943 128.635 176.121 128.594 176.314L131.248 177.849V177.707C131.367 177.637 131.508 177.615 131.643 177.646C131.778 177.676 131.896 177.757 131.974 177.871L134.53 176.391L130.658 174.163Z" fill="#BA68C8"/>
<path d="M135.223 169.187C135.424 168.872 135.643 168.57 135.879 168.281L133.328 166.806C133.213 166.862 133.086 166.89 132.957 166.888L131.646 166.823C131.447 166.821 131.253 166.891 131.1 167.019L135.021 169.285L135.223 169.187Z" fill="#BA68C8"/>
<path d="M149.089 163.082C149.029 163.055 148.963 163.045 148.897 163.052C148.832 163.06 148.77 163.085 148.718 163.126L146.91 164.316C146.791 164.385 146.651 164.405 146.518 164.375C146.384 164.345 146.267 164.265 146.189 164.153C146.081 164.001 145.962 163.857 145.834 163.721C145.727 163.608 145.651 163.469 145.614 163.318C145.577 163.167 145.579 163.008 145.621 162.858L145.796 162.4L146.571 161.886C146.624 161.846 146.687 161.822 146.752 161.816C146.818 161.81 146.884 161.823 146.943 161.854L149.089 163.082Z" fill="#BA68C8"/>
<path d="M143.764 162.564C143.746 162.537 143.726 162.512 143.704 162.487C143.598 162.375 143.522 162.237 143.485 162.087C143.447 161.936 143.45 161.779 143.491 161.63L146.364 159.811L144.218 158.572C144.174 158.543 144.126 158.523 144.076 158.512L142.716 158.206C142.566 158.18 142.412 158.2 142.274 158.265C142.136 158.329 142.022 158.434 141.946 158.566L140.662 161.002C140.591 161.131 140.492 161.242 140.373 161.329L143.262 163.001L143.764 162.564Z" fill="#BA68C8"/>
<path d="M134.983 161.99L137.637 163.525L139.822 161.526C139.862 161.364 139.891 161.2 139.909 161.034L137.757 159.806C137.694 159.771 137.621 159.757 137.549 159.767C137.477 159.777 137.411 159.81 137.359 159.86L135.316 161.444C135.154 161.59 135.039 161.779 134.983 161.99Z" fill="#BA68C8"/>
<g opacity="0.4">
<path d="M130.658 174.162L128.867 175.8C128.73 175.943 128.635 176.121 128.594 176.314L131.248 177.848V177.706C131.367 177.637 131.508 177.615 131.643 177.645C131.778 177.676 131.896 177.756 131.974 177.87L134.53 176.39L130.658 174.162Z" fill="white"/>
<path d="M135.223 169.187C135.424 168.872 135.643 168.569 135.879 168.28L133.328 166.806C133.213 166.861 133.086 166.889 132.957 166.888L131.646 166.822C131.447 166.821 131.253 166.89 131.1 167.019L135.021 169.285L135.223 169.187Z" fill="white"/>
<path d="M149.089 163.082C149.029 163.054 148.963 163.044 148.897 163.052C148.832 163.059 148.77 163.085 148.718 163.125L146.91 164.316C146.791 164.384 146.651 164.405 146.518 164.375C146.384 164.344 146.267 164.265 146.189 164.152C146.081 164 145.962 163.856 145.834 163.721C145.727 163.608 145.651 163.469 145.614 163.317C145.577 163.166 145.579 163.008 145.621 162.858L145.796 162.399L146.571 161.886C146.624 161.846 146.687 161.822 146.752 161.816C146.818 161.81 146.884 161.823 146.943 161.853L149.089 163.082Z" fill="white"/>
<path d="M143.765 162.563C143.746 162.536 143.726 162.511 143.705 162.486C143.598 162.374 143.522 162.236 143.485 162.086C143.448 161.935 143.45 161.778 143.492 161.629L146.364 159.81L144.218 158.571C144.175 158.542 144.127 158.522 144.076 158.511L142.716 158.205C142.566 158.179 142.412 158.199 142.274 158.264C142.137 158.328 142.022 158.434 141.946 158.565L140.663 161.001C140.591 161.13 140.492 161.241 140.373 161.328L143.262 163L143.765 162.563Z" fill="white"/>
<path d="M134.983 161.99L137.637 163.524L139.821 161.525C139.862 161.364 139.891 161.199 139.909 161.034L137.757 159.805C137.694 159.77 137.621 159.757 137.549 159.767C137.477 159.777 137.41 159.809 137.358 159.86L135.316 161.443C135.154 161.589 135.038 161.779 134.983 161.99Z" fill="white"/>
</g>
<path d="M149.597 165.338L149.258 163.366C149.256 163.304 149.237 163.243 149.202 163.191C149.167 163.14 149.118 163.099 149.06 163.074C149.003 163.05 148.939 163.042 148.878 163.052C148.816 163.062 148.759 163.09 148.712 163.131L146.904 164.322C146.786 164.39 146.646 164.411 146.512 164.38C146.379 164.35 146.261 164.271 146.184 164.158C146.076 164.006 145.957 163.862 145.829 163.727C145.723 163.614 145.648 163.476 145.611 163.326C145.573 163.175 145.575 163.018 145.616 162.869L146.539 160.373C146.564 160.311 146.575 160.244 146.571 160.176C146.568 160.109 146.549 160.043 146.516 159.984C146.484 159.925 146.439 159.874 146.384 159.835C146.329 159.795 146.266 159.768 146.2 159.756L144.84 159.451C144.69 159.423 144.536 159.443 144.398 159.507C144.259 159.572 144.145 159.678 144.07 159.811L142.792 162.247C142.613 162.528 142.337 162.736 142.017 162.831C141.73 162.903 141.449 162.996 141.176 163.109C141.115 163.138 141.049 163.153 140.982 163.153C140.915 163.154 140.848 163.139 140.788 163.111C140.727 163.083 140.673 163.042 140.629 162.991C140.586 162.939 140.554 162.879 140.537 162.815L140.073 161.285C140.062 161.224 140.035 161.167 139.994 161.121C139.953 161.074 139.9 161.04 139.841 161.021C139.782 161.003 139.719 161.001 139.658 161.015C139.598 161.03 139.543 161.061 139.499 161.105L137.457 162.705C137.335 162.815 137.238 162.949 137.171 163.098C137.104 163.248 137.069 163.41 137.069 163.574L137.195 165.512C137.194 165.851 137.082 166.181 136.878 166.452C136.538 166.853 136.221 167.272 135.928 167.708C135.829 167.835 135.703 167.938 135.56 168.011C135.416 168.083 135.259 168.123 135.098 168.128L133.787 168.063C133.631 168.062 133.477 168.105 133.344 168.187C133.211 168.269 133.103 168.387 133.033 168.527L131.805 171.274C131.753 171.404 131.753 171.549 131.804 171.679C131.856 171.809 131.956 171.914 132.083 171.973L133.143 172.426C133.276 172.489 133.383 172.595 133.449 172.727C133.514 172.858 133.533 173.008 133.503 173.152C133.406 173.589 133.331 174.03 133.279 174.474C133.226 174.81 133.072 175.123 132.837 175.369L131.029 177.008C130.915 177.124 130.828 177.264 130.776 177.418C130.723 177.572 130.705 177.736 130.723 177.898L131.062 179.869C131.064 179.932 131.083 179.992 131.119 180.044C131.154 180.096 131.203 180.136 131.26 180.161C131.318 180.186 131.381 180.194 131.442 180.183C131.504 180.173 131.562 180.146 131.608 180.104L133.416 178.914C133.535 178.846 133.675 178.825 133.808 178.855C133.942 178.885 134.059 178.965 134.137 179.078C134.243 179.231 134.362 179.375 134.492 179.509C134.598 179.623 134.673 179.762 134.71 179.913C134.748 180.064 134.746 180.222 134.705 180.372L133.782 182.862C133.756 182.924 133.745 182.992 133.749 183.059C133.753 183.126 133.772 183.192 133.804 183.251C133.836 183.31 133.882 183.361 133.936 183.401C133.991 183.44 134.054 183.467 134.12 183.479L135.48 183.785C135.63 183.813 135.785 183.793 135.923 183.728C136.061 183.663 136.175 183.557 136.25 183.424L137.528 180.989C137.708 180.707 137.983 180.5 138.303 180.405C138.589 180.332 138.87 180.241 139.144 180.131C139.205 180.103 139.271 180.087 139.337 180.087C139.404 180.086 139.47 180.1 139.531 180.128C139.592 180.155 139.646 180.196 139.69 180.246C139.733 180.297 139.765 180.357 139.783 180.421L140.248 181.95C140.258 182.011 140.286 182.068 140.326 182.115C140.367 182.161 140.42 182.196 140.479 182.214C140.539 182.233 140.602 182.235 140.662 182.22C140.722 182.205 140.777 182.174 140.821 182.13L142.863 180.53C142.985 180.421 143.083 180.287 143.15 180.137C143.216 179.988 143.251 179.826 143.251 179.662L143.125 177.723C143.127 177.384 143.238 177.054 143.442 176.784C143.782 176.383 144.099 175.964 144.392 175.528C144.491 175.401 144.617 175.297 144.76 175.225C144.904 175.152 145.062 175.112 145.223 175.107L146.533 175.173C146.69 175.174 146.843 175.131 146.976 175.049C147.11 174.967 147.217 174.849 147.287 174.709L148.521 171.945C148.573 171.815 148.573 171.67 148.521 171.54C148.469 171.41 148.37 171.305 148.242 171.246L147.183 170.793C147.05 170.73 146.942 170.624 146.877 170.492C146.812 170.361 146.792 170.211 146.823 170.067C146.92 169.63 146.995 169.189 147.046 168.745C147.101 168.409 147.255 168.097 147.489 167.85L149.296 166.211C149.407 166.096 149.492 165.959 149.544 165.808C149.595 165.657 149.614 165.496 149.597 165.338ZM140.886 175.839C138.675 177.581 136.556 177.106 136.157 174.785C135.759 172.464 137.249 169.171 139.434 167.435C141.618 165.698 143.764 166.168 144.163 168.489C144.562 170.81 143.093 174.103 140.886 175.839Z" fill="#BA68C8"/>
<path d="M129.386 158.238L127.272 157.02C127.22 156.995 127.163 156.982 127.106 156.982C127.048 156.982 126.991 156.995 126.939 157.02L123.116 158.741C123.057 158.77 122.991 158.787 122.924 158.788C122.857 158.789 122.791 158.775 122.73 158.747C122.67 158.719 122.616 158.679 122.573 158.627C122.53 158.576 122.499 158.516 122.483 158.451C122.278 157.787 121.991 157.151 121.631 156.556C121.553 156.416 121.507 156.259 121.497 156.099C121.487 155.938 121.512 155.778 121.571 155.628L124.105 150.522C124.167 150.391 124.178 150.242 124.136 150.103C124.093 149.965 124 149.847 123.875 149.774L121.112 148.179C120.986 148.109 120.838 148.089 120.698 148.122C120.557 148.155 120.434 148.24 120.353 148.359L117.18 153.132C117.083 153.26 116.957 153.363 116.813 153.434C116.669 153.505 116.511 153.542 116.35 153.542C115.985 153.534 115.62 153.552 115.258 153.596V150.085L113.139 148.884C113.083 148.858 113.021 148.848 112.96 148.854C112.899 148.859 112.84 148.881 112.789 148.916L108.497 151.39C108.36 151.479 108.243 151.597 108.155 151.736C108.068 151.874 108.011 152.03 107.989 152.193L107.558 156.966C107.506 157.304 107.349 157.617 107.11 157.861C106.26 158.648 105.465 159.49 104.729 160.384C104.624 160.499 104.49 160.583 104.34 160.625C104.19 160.668 104.032 160.667 103.883 160.625L101.152 159.658C101.009 159.615 100.856 159.62 100.715 159.672C100.575 159.724 100.456 159.821 100.377 159.948L97.2201 165.409C97.1507 165.541 97.127 165.692 97.1527 165.84C97.1783 165.987 97.252 166.121 97.3621 166.222L99.5465 168.123C99.6585 168.23 99.7383 168.367 99.7769 168.518C99.8155 168.668 99.8113 168.826 99.7649 168.975C99.3581 170.059 99.026 171.17 98.771 172.3C98.6824 172.63 98.4911 172.923 98.2249 173.136L94.3039 175.894C94.1759 175.995 94.0708 176.123 93.9955 176.268C93.9202 176.412 93.8764 176.572 93.867 176.735V181.693C93.8622 181.755 93.8739 181.817 93.9007 181.872C93.9276 181.928 93.9687 181.976 94.0199 182.01L96.1333 183.233L99.2734 181.743C99.3936 181.999 99.5246 182.245 99.6612 182.474C99.7419 182.614 99.7894 182.77 99.7998 182.932C99.8102 183.093 99.7833 183.254 99.7212 183.403L97.1764 188.536C97.1136 188.666 97.1018 188.815 97.1432 188.954C97.1846 189.092 97.2763 189.21 97.4003 189.284L100.164 190.879C100.29 190.949 100.438 190.969 100.578 190.936C100.718 190.903 100.841 190.818 100.923 190.699L104.096 185.926C104.194 185.798 104.32 185.694 104.465 185.623C104.61 185.552 104.77 185.515 104.931 185.516C105.625 185.529 106.318 185.457 106.995 185.303C107.06 185.286 107.128 185.284 107.193 185.295C107.259 185.307 107.321 185.333 107.376 185.372C107.431 185.41 107.476 185.46 107.509 185.518C107.543 185.576 107.563 185.641 107.569 185.707L107.989 189.88C107.99 189.938 108.005 189.995 108.034 190.045C108.063 190.096 108.104 190.138 108.153 190.169L110.261 191.387L112.795 187.668C112.932 187.577 113.048 187.459 113.137 187.321C113.225 187.183 113.284 187.027 113.308 186.865L113.74 182.087C113.763 181.93 113.825 181.782 113.92 181.656C114.016 181.53 114.141 181.43 114.286 181.366C115.546 180.822 116.681 180.027 117.622 179.028C117.73 178.916 117.866 178.835 118.016 178.795C118.167 178.754 118.325 178.756 118.474 178.799L120.167 179.394C120.309 179.44 120.462 179.436 120.601 179.385C120.741 179.334 120.859 179.237 120.937 179.11L124.094 173.649C124.165 173.518 124.19 173.366 124.165 173.219C124.14 173.072 124.067 172.937 123.957 172.836L122.505 171.585C122.393 171.476 122.313 171.339 122.272 171.188C122.23 171.037 122.23 170.879 122.27 170.728C122.583 169.432 122.715 168.1 122.663 166.768C122.664 166.606 122.701 166.445 122.772 166.299C122.843 166.152 122.946 166.024 123.073 165.922L126.994 163.164C127.122 163.062 127.228 162.934 127.303 162.788C127.378 162.642 127.422 162.482 127.431 162.318L129.304 160.073L129.386 158.238ZM110.643 177.898C106.64 180.208 104.15 178.57 104.15 173.944C104.15 169.319 107.46 163.656 111.462 161.346C115.465 159.036 117.896 160.718 117.896 165.338C117.896 169.958 114.646 175.572 110.643 177.882V177.898Z" fill="#BA68C8"/>
<path opacity="0.1" d="M129.386 158.238L127.272 157.02C127.22 156.995 127.163 156.982 127.106 156.982C127.048 156.982 126.991 156.995 126.939 157.02L123.116 158.741C123.057 158.77 122.991 158.787 122.924 158.788C122.857 158.789 122.791 158.775 122.73 158.747C122.67 158.719 122.616 158.679 122.573 158.627C122.53 158.576 122.499 158.516 122.483 158.451C122.278 157.787 121.991 157.151 121.631 156.556C121.553 156.416 121.507 156.259 121.497 156.099C121.487 155.938 121.512 155.778 121.571 155.628L124.105 150.522C124.167 150.391 124.178 150.242 124.136 150.103C124.093 149.965 124 149.847 123.875 149.774L121.112 148.179C120.986 148.109 120.838 148.089 120.698 148.122C120.557 148.155 120.434 148.24 120.353 148.359L117.18 153.132C117.083 153.26 116.957 153.363 116.813 153.434C116.669 153.505 116.511 153.542 116.35 153.542C115.985 153.534 115.62 153.552 115.258 153.596V150.085L113.139 148.884C113.083 148.858 113.021 148.848 112.96 148.854C112.899 148.859 112.84 148.881 112.789 148.916L108.497 151.39C108.36 151.479 108.243 151.597 108.155 151.736C108.068 151.874 108.011 152.03 107.989 152.193L107.558 156.966C107.506 157.304 107.349 157.617 107.11 157.861C106.26 158.648 105.465 159.49 104.729 160.384C104.624 160.499 104.49 160.583 104.34 160.625C104.19 160.668 104.032 160.667 103.883 160.625L101.152 159.658C101.009 159.615 100.856 159.62 100.715 159.672C100.575 159.724 100.456 159.821 100.377 159.948L97.2201 165.409C97.1507 165.541 97.127 165.692 97.1527 165.84C97.1783 165.987 97.252 166.121 97.3621 166.222L99.5465 168.123C99.6585 168.23 99.7383 168.367 99.7769 168.518C99.8155 168.668 99.8113 168.826 99.7649 168.975C99.3581 170.059 99.026 171.17 98.771 172.3C98.6824 172.63 98.4911 172.923 98.2249 173.136L94.3039 175.894C94.1759 175.995 94.0708 176.123 93.9955 176.268C93.9202 176.412 93.8764 176.572 93.867 176.735V181.693C93.8622 181.755 93.8739 181.817 93.9007 181.872C93.9276 181.928 93.9687 181.976 94.0199 182.01L96.1333 183.233L99.2734 181.743C99.3936 181.999 99.5246 182.245 99.6612 182.474C99.7419 182.614 99.7894 182.77 99.7998 182.932C99.8102 183.093 99.7833 183.254 99.7212 183.403L97.1764 188.536C97.1136 188.666 97.1018 188.815 97.1432 188.954C97.1846 189.092 97.2763 189.21 97.4003 189.284L100.164 190.879C100.29 190.949 100.438 190.969 100.578 190.936C100.718 190.903 100.841 190.818 100.923 190.699L104.096 185.926C104.194 185.798 104.32 185.694 104.465 185.623C104.61 185.552 104.77 185.515 104.931 185.516C105.625 185.529 106.318 185.457 106.995 185.303C107.06 185.286 107.128 185.284 107.193 185.295C107.259 185.307 107.321 185.333 107.376 185.372C107.431 185.41 107.476 185.46 107.509 185.518C107.543 185.576 107.563 185.641 107.569 185.707L107.989 189.88C107.99 189.938 108.005 189.995 108.034 190.045C108.063 190.096 108.104 190.138 108.153 190.169L110.261 191.387L112.795 187.668C112.932 187.577 113.048 187.459 113.137 187.321C113.225 187.183 113.284 187.027 113.308 186.865L113.74 182.087C113.763 181.93 113.825 181.782 113.92 181.656C114.016 181.53 114.141 181.43 114.286 181.366C115.546 180.822 116.681 180.027 117.622 179.028C117.73 178.916 117.866 178.835 118.016 178.795C118.167 178.754 118.325 178.756 118.474 178.799L120.167 179.394C120.309 179.44 120.462 179.436 120.601 179.385C120.741 179.334 120.859 179.237 120.937 179.11L124.094 173.649C124.165 173.518 124.19 173.366 124.165 173.219C124.14 173.072 124.067 172.937 123.957 172.836L122.505 171.585C122.393 171.476 122.313 171.339 122.272 171.188C122.23 171.037 122.23 170.879 122.27 170.728C122.583 169.432 122.715 168.1 122.663 166.768C122.664 166.606 122.701 166.445 122.772 166.299C122.843 166.152 122.946 166.024 123.073 165.922L126.994 163.164C127.122 163.062 127.228 162.934 127.303 162.788C127.378 162.642 127.422 162.482 127.431 162.318L129.304 160.073L129.386 158.238ZM110.643 177.898C106.64 180.208 104.15 178.57 104.15 173.944C104.15 169.319 107.46 163.656 111.462 161.346C115.465 159.036 117.896 160.718 117.896 165.338C117.896 169.958 114.646 175.572 110.643 177.882V177.898Z" fill="black"/>
<path d="M123.275 152.198L124.105 150.522C124.167 150.391 124.178 150.242 124.136 150.103C124.093 149.965 124 149.847 123.875 149.774L121.112 148.179C120.986 148.109 120.838 148.089 120.698 148.122C120.557 148.155 120.434 148.24 120.353 148.359L117.18 153.132C117.123 153.213 117.051 153.281 116.967 153.334L120.522 155.382L123.275 152.198Z" fill="#BA68C8"/>
<path d="M98.5253 172.797C98.4405 172.92 98.3374 173.029 98.2194 173.12L94.2984 175.877C94.1938 175.957 94.1065 176.058 94.0417 176.172L96.4337 177.554L101.638 174.594L98.5253 172.797Z" fill="#BA68C8"/>
<path d="M100.906 159.609C100.796 159.612 100.689 159.643 100.593 159.698C100.498 159.754 100.418 159.832 100.36 159.926L97.2037 165.387C97.1389 165.509 97.1141 165.648 97.1327 165.785L99.8633 167.353L104.183 161.509L100.906 159.609Z" fill="#BA68C8"/>
<path d="M108.071 151.887L111.435 153.831L115.258 151.647V150.085L113.139 148.883C113.083 148.858 113.021 148.848 112.96 148.854C112.899 148.859 112.84 148.881 112.789 148.916L108.497 151.39C108.31 151.511 108.162 151.684 108.071 151.887Z" fill="#BA68C8"/>
<path d="M129.385 158.238C129.334 158.208 129.276 158.193 129.216 158.193C129.157 158.193 129.098 158.208 129.047 158.238L125.224 159.958C125.163 159.987 125.097 160.002 125.03 160.002C124.963 160.003 124.897 159.988 124.836 159.96C124.775 159.932 124.721 159.891 124.677 159.84C124.634 159.788 124.603 159.728 124.585 159.663C124.444 159.202 124.261 158.754 124.039 158.325L126.933 157.02C126.985 156.995 127.042 156.981 127.1 156.981C127.158 156.981 127.215 156.995 127.267 157.02L129.385 158.238Z" fill="#BA68C8"/>
<g opacity="0.4">
<path d="M123.275 152.199L124.105 150.522C124.167 150.392 124.178 150.242 124.135 150.104C124.093 149.965 124 149.848 123.875 149.774L121.112 148.18C120.986 148.11 120.838 148.089 120.698 148.123C120.557 148.156 120.434 148.241 120.353 148.36L117.18 153.133C117.123 153.213 117.051 153.282 116.967 153.335L120.522 155.383L123.275 152.199Z" fill="white"/>
<path d="M98.5253 172.798C98.4405 172.92 98.3374 173.029 98.2194 173.12L94.2984 175.878C94.1938 175.958 94.1065 176.058 94.0417 176.173L96.4337 177.554L101.638 174.595L98.5253 172.798Z" fill="white"/>
<path d="M100.906 159.609C100.796 159.613 100.689 159.644 100.593 159.699C100.498 159.754 100.418 159.832 100.36 159.926L97.2037 165.387C97.1389 165.509 97.1141 165.649 97.1327 165.786L99.8633 167.353L104.183 161.51L100.906 159.609Z" fill="white"/>
<path d="M108.071 151.888L111.435 153.832L115.258 151.647V150.085L113.139 148.884C113.083 148.859 113.021 148.848 112.96 148.854C112.899 148.86 112.84 148.881 112.789 148.917L108.497 151.391C108.31 151.512 108.162 151.684 108.071 151.888Z" fill="white"/>
<path d="M129.386 158.239C129.334 158.209 129.276 158.193 129.216 158.193C129.157 158.193 129.099 158.209 129.047 158.239L125.224 159.959C125.164 159.987 125.097 160.003 125.03 160.003C124.963 160.003 124.897 159.989 124.836 159.961C124.775 159.932 124.721 159.891 124.678 159.84C124.634 159.789 124.603 159.729 124.585 159.664C124.444 159.202 124.261 158.754 124.039 158.326L126.934 157.021C126.985 156.995 127.042 156.982 127.1 156.982C127.158 156.982 127.215 156.995 127.267 157.021L129.386 158.239Z" fill="white"/>
</g>
<path d="M129.566 163.514V158.561C129.574 158.5 129.565 158.438 129.54 158.382C129.514 158.326 129.473 158.279 129.421 158.245C129.37 158.212 129.309 158.194 129.248 158.194C129.187 158.194 129.126 158.211 129.074 158.244L125.252 159.964C125.191 159.994 125.125 160.01 125.057 160.01C124.99 160.011 124.923 159.997 124.862 159.969C124.801 159.94 124.747 159.899 124.703 159.847C124.66 159.795 124.629 159.735 124.613 159.669C124.409 159.006 124.122 158.372 123.761 157.78C123.684 157.638 123.639 157.482 123.63 157.322C123.62 157.161 123.646 157.001 123.706 156.851L126.251 151.718C126.314 151.588 126.326 151.439 126.284 151.3C126.243 151.162 126.151 151.044 126.027 150.97L123.264 149.375C123.137 149.304 122.988 149.282 122.846 149.316C122.705 149.349 122.581 149.435 122.499 149.555L119.305 154.345C119.205 154.471 119.079 154.573 118.936 154.645C118.792 154.716 118.635 154.756 118.475 154.76C117.781 154.745 117.087 154.815 116.41 154.967C116.347 154.981 116.282 154.981 116.22 154.967C116.157 154.953 116.098 154.927 116.046 154.888C115.994 154.85 115.952 154.801 115.92 154.745C115.889 154.689 115.87 154.627 115.864 154.563L115.444 150.396C115.447 150.335 115.433 150.274 115.403 150.221C115.373 150.168 115.328 150.124 115.274 150.096C115.22 150.067 115.158 150.055 115.097 150.061C115.036 150.067 114.978 150.091 114.93 150.129L110.638 152.608C110.501 152.698 110.384 152.816 110.295 152.954C110.207 153.093 110.149 153.248 110.125 153.411L109.693 158.184C109.643 158.521 109.488 158.834 109.251 159.079C108.399 159.865 107.602 160.708 106.864 161.602C106.76 161.716 106.626 161.799 106.477 161.84C106.329 161.882 106.171 161.881 106.023 161.837L103.266 160.876C103.122 160.832 102.969 160.836 102.828 160.889C102.688 160.941 102.569 161.038 102.49 161.166L99.339 166.627C99.2685 166.757 99.2436 166.908 99.2683 167.054C99.293 167.201 99.366 167.335 99.4756 167.435L101.687 169.341C101.799 169.448 101.879 169.585 101.917 169.736C101.954 169.887 101.949 170.045 101.9 170.193C101.496 171.278 101.164 172.389 100.906 173.518C100.818 173.846 100.626 174.137 100.36 174.348L96.4392 177.112C96.3102 177.212 96.2043 177.339 96.1289 177.484C96.0535 177.63 96.0103 177.789 96.0024 177.953V182.911C95.9947 182.971 96.0041 183.032 96.0295 183.087C96.0549 183.142 96.0953 183.189 96.146 183.222C96.1968 183.255 96.2558 183.273 96.3164 183.274C96.3769 183.275 96.4365 183.259 96.4884 183.228L100.311 181.502C100.372 181.474 100.438 181.459 100.505 181.458C100.572 181.458 100.639 181.472 100.699 181.501C100.76 181.529 100.814 181.57 100.858 181.621C100.901 181.672 100.933 181.733 100.95 181.797C101.156 182.461 101.442 183.097 101.802 183.692C101.882 183.832 101.928 183.989 101.938 184.15C101.947 184.311 101.919 184.472 101.857 184.621L99.3117 189.754C99.2497 189.884 99.2389 190.033 99.2814 190.17C99.3239 190.308 99.4166 190.424 99.5411 190.497L102.261 192.08C102.387 192.15 102.535 192.171 102.675 192.137C102.816 192.104 102.938 192.019 103.02 191.9L106.193 187.127C106.29 187 106.416 186.896 106.56 186.825C106.704 186.754 106.862 186.717 107.023 186.718C107.717 186.73 108.41 186.659 109.087 186.505C109.15 186.491 109.215 186.491 109.278 186.505C109.34 186.519 109.4 186.545 109.451 186.584C109.503 186.622 109.546 186.671 109.577 186.727C109.608 186.783 109.628 186.845 109.633 186.909L110.054 191.081C110.052 191.142 110.068 191.202 110.099 191.254C110.131 191.306 110.176 191.348 110.23 191.376C110.285 191.403 110.346 191.414 110.406 191.409C110.467 191.403 110.524 191.38 110.572 191.343L114.865 188.864C115.001 188.775 115.118 188.658 115.205 188.52C115.293 188.383 115.35 188.228 115.373 188.067L115.804 183.288C115.855 182.951 116.012 182.639 116.252 182.398C117.102 181.612 117.897 180.769 118.633 179.875C118.737 179.759 118.872 179.675 119.021 179.633C119.171 179.59 119.33 179.591 119.479 179.635L122.21 180.596C122.352 180.642 122.506 180.639 122.646 180.587C122.787 180.536 122.906 180.439 122.985 180.312L126.142 174.851C126.212 174.719 126.236 174.567 126.211 174.42C126.185 174.272 126.111 174.138 126 174.037L123.788 172.131C123.676 172.025 123.596 171.889 123.558 171.739C123.521 171.589 123.527 171.432 123.575 171.285C123.981 170.198 124.313 169.085 124.569 167.954C124.658 167.626 124.849 167.335 125.115 167.123L129.036 164.366C129.182 164.272 129.305 164.147 129.397 163.999C129.489 163.852 129.546 163.686 129.566 163.514ZM112.784 179.1C108.776 181.41 105.532 179.536 105.532 174.911C105.532 170.285 108.776 164.666 112.784 162.351C116.793 160.035 120.031 161.914 120.031 166.534C120.031 171.154 116.76 176.784 112.757 179.1H112.784Z" fill="#BA68C8"/>
<path d="M178.955 70.6556H196.785V54.6767C196.785 52.3115 195.846 50.0432 194.173 48.3708C192.501 46.6983 190.232 45.7588 187.867 45.7588C185.503 45.7602 183.236 46.7004 181.565 48.3727C179.894 50.045 178.955 52.3124 178.955 54.6767V70.6556Z" fill="#263238"/>
<path d="M184.563 66.3193L171.801 66.8108C171.359 66.4286 168.83 63.4141 168.83 63.4141C168.83 63.4141 161.895 62.5239 161.856 62.7751C161.818 63.0264 168.677 70.3714 169.354 71.1087C169.548 71.358 169.797 71.5592 170.081 71.6965C170.365 71.8339 170.677 71.9037 170.993 71.9005L182.674 72.6323L184.563 66.3193Z" fill="#FFA8A7"/>
<path d="M118.829 123.846L118.447 123.628C118.128 123.417 117.863 123.134 117.673 122.802C117.484 122.47 117.375 122.098 117.354 121.716V82.5115C117.375 82.1297 117.484 81.758 117.673 81.426C117.863 81.0941 118.128 80.8113 118.447 80.6002L168.808 51.5311C169.147 51.3598 169.521 51.2705 169.901 51.2705C170.28 51.2705 170.654 51.3598 170.993 51.5311L171.37 51.7495C171.689 51.9588 171.954 52.2405 172.144 52.5717C172.334 52.9029 172.443 53.2742 172.462 53.6554V92.8656C172.443 93.247 172.334 93.6184 172.144 93.9497C171.955 94.2809 171.689 94.5626 171.37 94.7715L121.008 123.846C120.67 124.015 120.297 124.103 119.918 124.103C119.54 124.103 119.167 124.015 118.829 123.846Z" fill="#BA68C8"/>
<path opacity="0.4" d="M172.483 53.4807C172.407 52.9073 171.937 52.6997 171.391 53.0165L121.03 82.0965C120.703 82.2974 120.434 82.5796 120.249 82.9156L117.671 81.4248C117.857 81.0882 118.126 80.8045 118.452 80.6002L168.808 51.5311C169.147 51.3598 169.521 51.2705 169.9 51.2705C170.28 51.2705 170.654 51.3598 170.993 51.5311L171.369 51.7495C171.669 51.9404 171.924 52.194 172.116 52.4928C172.309 52.7917 172.434 53.1287 172.483 53.4807Z" fill="white"/>
<path opacity="0.1" d="M120.828 123.934C120.506 124.062 120.16 124.12 119.814 124.105C119.467 124.09 119.128 124.002 118.818 123.846L118.43 123.628C118.112 123.417 117.847 123.134 117.657 122.802C117.467 122.47 117.358 122.098 117.338 121.716V82.5116C117.347 82.1255 117.458 81.7486 117.66 81.4194L120.238 82.9103C120.04 83.2413 119.929 83.6171 119.916 84.0025V123.218C119.927 123.841 120.325 124.136 120.828 123.934Z" fill="black"/>
<path d="M125.016 84.2537L128.806 82.0692C129.079 81.9109 129.303 82.0365 129.303 82.3587V86.6292C129.294 86.8026 129.244 86.9713 129.156 87.1214C129.069 87.2715 128.947 87.3985 128.801 87.4921L125.022 89.6273C124.743 89.7857 124.519 89.6273 124.519 89.3324V85.1384C124.524 84.9617 124.572 84.7889 124.659 84.6348C124.745 84.4807 124.868 84.3499 125.016 84.2537Z" fill="#FAFAFA"/>
<path d="M128.315 86.8692C128.266 86.9009 128.209 86.9178 128.151 86.9178C128.093 86.9178 128.036 86.9009 127.987 86.8692L126.835 85.9954C126.676 85.8807 126.698 85.5531 126.879 85.2691C127.059 84.9851 127.332 84.8486 127.485 84.9688L128.304 85.5859L130.57 80.7146C130.712 80.4088 130.98 80.2067 131.176 80.2559C131.373 80.305 131.406 80.5999 131.269 80.9003L128.681 86.4596C128.61 86.6213 128.494 86.7596 128.348 86.8583L128.315 86.8692Z" fill="#37474F"/>
<path d="M125.016 93.5371L128.806 91.3527C129.079 91.1943 129.303 91.3527 129.303 91.6421V95.9127C129.294 96.0861 129.244 96.2548 129.156 96.4049C129.069 96.5549 128.947 96.682 128.801 96.7755L125.022 98.9162C124.743 99.0691 124.519 98.9162 124.519 98.6213V94.4218C124.524 94.2451 124.572 94.0723 124.659 93.9182C124.745 93.7642 124.868 93.6334 125.016 93.5371Z" fill="#FAFAFA"/>
<path d="M128.315 96.148C128.266 96.1797 128.209 96.1966 128.151 96.1966C128.093 96.1966 128.036 96.1797 127.987 96.148L126.835 95.2797C126.676 95.1596 126.698 94.8319 126.879 94.5479C127.059 94.2639 127.332 94.1274 127.485 94.2476L128.304 94.8647L130.57 89.9934C130.712 89.6876 130.98 89.4855 131.176 89.5402C131.373 89.5948 131.406 89.8787 131.269 90.1846L128.681 95.7439C128.609 95.9041 128.494 96.0405 128.348 96.1371L128.315 96.148Z" fill="#37474F"/>
<path d="M125.016 102.815L128.806 100.631C129.079 100.467 129.303 100.598 129.303 100.915V105.196C129.293 105.369 129.242 105.536 129.155 105.685C129.068 105.834 128.946 105.961 128.801 106.054L125.022 108.194C124.743 108.353 124.519 108.222 124.519 107.899V103.7C124.524 103.523 124.572 103.35 124.659 103.196C124.745 103.042 124.868 102.912 125.016 102.815Z" fill="#FAFAFA"/>
<path d="M128.315 105.426C128.267 105.46 128.21 105.479 128.151 105.479C128.092 105.479 128.035 105.46 127.987 105.426L126.835 104.557C126.676 104.443 126.698 104.115 126.879 103.831C127.059 103.547 127.332 103.411 127.485 103.525L128.304 104.142L130.57 99.2711C130.712 98.9707 130.98 98.7632 131.176 98.8178C131.373 98.8724 131.406 99.1564 131.269 99.4622L128.681 105.022C128.61 105.183 128.494 105.321 128.348 105.42L128.315 105.426Z" fill="#37474F"/>
<path d="M125.016 112.121L128.806 109.937C129.079 109.778 129.303 109.937 129.303 110.226V114.48C129.293 114.653 129.242 114.82 129.155 114.969C129.068 115.118 128.946 115.245 128.801 115.338L125.022 117.478C124.743 117.637 124.519 117.506 124.519 117.183V112.984C124.528 112.811 124.577 112.643 124.664 112.493C124.75 112.343 124.871 112.215 125.016 112.121Z" fill="#FAFAFA"/>
<path d="M128.315 114.731C128.267 114.766 128.21 114.785 128.151 114.785C128.092 114.785 128.035 114.766 127.987 114.731L126.835 113.863C126.676 113.743 126.698 113.421 126.879 113.131C127.059 112.842 127.332 112.716 127.485 112.831L128.304 113.448L130.57 108.577C130.712 108.276 130.98 108.069 131.176 108.123C131.373 108.178 131.406 108.462 131.269 108.768L128.681 114.327C128.609 114.487 128.494 114.624 128.348 114.72L128.315 114.731Z" fill="#37474F"/>
<path d="M133.989 80.2614C133.989 80.7748 134.437 80.9331 134.988 80.6164L149.389 72.2992C149.661 72.1429 149.893 71.9253 150.067 71.6637C150.24 71.402 150.35 71.1036 150.388 70.792C150.388 70.2787 149.94 70.1148 149.389 70.437L134.988 78.7487C134.716 78.9059 134.483 79.1245 134.31 79.387C134.136 79.6496 134.026 79.949 133.989 80.2614Z" fill="#455A64"/>
<path d="M133.989 83.3852C133.989 83.904 134.437 84.0624 134.988 83.7456L165.788 65.9864C166.061 65.8295 166.294 65.611 166.467 65.3484C166.641 65.0858 166.75 64.7862 166.788 64.4737C166.788 63.9603 166.34 63.802 165.788 64.1187L134.988 81.878C134.716 82.0343 134.484 82.2519 134.31 82.5135C134.137 82.7752 134.027 83.0736 133.989 83.3852Z" fill="#F0F0F0"/>
<path d="M133.989 89.3601C133.989 89.8734 134.437 90.0372 134.988 89.715L149.389 81.4034C149.661 81.2461 149.894 81.0276 150.067 80.765C150.241 80.5025 150.351 80.2031 150.388 79.8907C150.388 79.3773 149.94 79.2189 149.389 79.5357L134.988 87.831C134.713 87.9895 134.479 88.2105 134.306 88.4762C134.132 88.7418 134.024 89.0446 133.989 89.3601Z" fill="#455A64"/>
<path d="M133.989 92.4667C133.989 92.9801 134.437 93.1384 134.988 92.8217L165.788 75.0624C166.061 74.9061 166.293 74.6885 166.466 74.4269C166.64 74.1652 166.75 73.8668 166.788 73.5552C166.788 73.0418 166.34 72.878 165.788 73.2002L134.988 90.954C134.716 91.1112 134.483 91.3298 134.31 91.5924C134.136 91.8549 134.026 92.1543 133.989 92.4667Z" fill="#F0F0F0"/>
<path d="M133.989 98.9929C133.989 99.539 134.437 99.6701 134.988 99.3479L149.389 91.0362C149.662 90.8793 149.894 90.6608 150.068 90.3982C150.241 90.1356 150.351 89.836 150.388 89.5235C150.388 89.0101 149.94 88.8518 149.389 89.1685L134.988 97.4857C134.716 97.642 134.484 97.8596 134.31 98.1212C134.137 98.3829 134.027 98.6813 133.989 98.9929Z" fill="#455A64"/>
<path d="M133.989 102.122C133.989 102.635 134.437 102.794 134.988 102.477L165.788 84.7177C166.061 84.5614 166.293 84.3438 166.466 84.0821C166.64 83.8205 166.75 83.5221 166.788 83.2105C166.788 82.6971 166.34 82.5333 165.788 82.8555L134.988 100.615C134.716 100.771 134.484 100.989 134.31 101.25C134.137 101.512 134.027 101.81 133.989 102.122Z" fill="#F0F0F0"/>
<path d="M133.989 108.648C133.989 109.194 134.437 109.325 134.988 109.008L149.389 100.691C149.661 100.535 149.893 100.317 150.067 100.055C150.24 99.7938 150.35 99.4953 150.388 99.1837C150.388 98.6376 149.94 98.5066 149.389 98.8233L134.988 107.14C134.716 107.297 134.484 107.514 134.31 107.776C134.137 108.038 134.027 108.336 133.989 108.648Z" fill="#455A64"/>
<path d="M133.989 111.777C133.989 112.29 134.437 112.454 134.988 112.132L165.788 94.378C166.06 94.2201 166.292 94.0014 166.466 93.7389C166.639 93.4765 166.749 93.1774 166.788 92.8653C166.788 92.3519 166.34 92.1936 165.788 92.5103L134.988 110.27C134.716 110.426 134.484 110.644 134.31 110.905C134.137 111.167 134.027 111.465 133.989 111.777Z" fill="#F0F0F0"/>
<path d="M178.791 153.024C177.772 154.117 176.649 155.108 175.438 155.984C175.246 156.108 175.085 156.274 174.968 156.47C174.81 156.803 174.559 157.622 176.061 158.152C176.826 158.416 177.638 158.513 178.444 158.436C179.25 158.359 180.029 158.109 180.73 157.704C181.969 156.923 182.03 155.307 183.198 154.384C184.067 153.701 185.153 153.527 185.852 152.636C186.344 152.014 186.213 151.184 185.961 150.163C185.683 149.043 185.552 148.197 185.186 148.284L185.246 148.797C184.782 149.535 182.39 149.753 181.325 149.245C180.547 150.548 179.701 151.81 178.791 153.024Z" fill="#263238"/>
<path d="M177.743 154.073C178.109 153.745 178.459 153.398 178.791 153.035C179.502 152.117 180.155 151.156 180.746 150.157C181.157 149.553 181.35 148.827 181.292 148.098C181.21 147.323 180.997 145.34 180.997 145.34L184.787 145.073L185.23 148.792C185.322 149.633 184.623 150.381 183.389 151.446C182.155 152.511 180.588 154.99 179.474 155.613C178.36 156.235 177.557 156.213 177.082 155.891C176.607 155.569 176.53 155.301 177.743 154.073Z" fill="#FFA8A7"/>
<path d="M195.824 153.363V152.817C195.6 153.489 194.557 156.367 192.979 157.808C191.723 158.955 190.008 160.277 189.571 161.555C189.134 162.832 191.958 163.329 193.132 163.122C194.698 162.862 196.135 162.094 197.222 160.937C197.899 160.107 198.314 159.124 198.811 158.469C199.308 157.814 200.406 157.087 200.668 156.334C200.746 155.628 200.668 154.914 200.439 154.242C200.253 153.538 200.051 152.762 199.811 152.828V153.265C199.242 153.71 198.539 153.947 197.817 153.936C197.238 153.925 195.824 153.8 195.824 153.363Z" fill="#263238"/>
<path d="M191.821 158.791C192.214 158.447 192.608 158.103 192.963 157.781C194.055 156.771 194.907 155.05 195.393 153.898C195.666 153.233 195.807 152.52 195.808 151.801V149.529H199.794V153.254V153.352C199.598 154.182 197.774 156.383 196.731 157.819C196.037 158.78 194.71 160.004 193.132 160.217C191.554 160.43 190.865 159.927 191.821 158.791Z" fill="#FFA8A7"/>
<path d="M199.019 91.4351C202.11 98.1794 198.91 121.951 198.91 121.951C199.003 123.043 200.253 125.201 200.717 130.017C201.263 135.713 199.854 150.01 199.854 150.01C199.247 150.363 198.562 150.562 197.86 150.591C197.157 150.619 196.459 150.476 195.824 150.174C195.824 150.174 192.029 128.636 191.313 122.978C190.691 118.036 189.495 106.42 189.495 106.42L185.907 122.983C186.333 124.588 186.568 126.238 186.606 127.898C186.551 131.246 184.995 145.92 184.995 145.92C184.995 145.92 183.608 146.728 180.997 146.346C180.997 146.346 178.48 127.085 178.556 122.596C178.595 120.193 179.649 94.6134 179.649 94.6134L199.019 91.4351Z" fill="#BA68C8"/>
<g opacity="0.15">
<path d="M189.495 106.419L188.49 100.904C188.49 100.904 184.247 100.024 182.324 98.2114C183.654 99.7692 185.392 100.925 187.343 101.548L188.468 106.376L186.431 120.574L189.495 106.419Z" fill="#263238"/>
</g>
<path d="M189.866 46.3046L190.074 43.9673C189.921 43.9452 189.765 43.9544 189.616 43.9943C189.467 44.0343 189.328 44.1042 189.207 44.1997C189.086 44.2953 188.985 44.4145 188.912 44.5501C188.838 44.6857 188.793 44.8349 188.779 44.9885C188.757 45.3054 188.858 45.6185 189.06 45.8634C189.262 46.1083 189.551 46.2662 189.866 46.3046Z" fill="#263238"/>
<path d="M189.992 46.5396L191.881 45.1525C191.796 45.0216 191.685 44.9096 191.556 44.8232C191.426 44.7368 191.279 44.678 191.126 44.6504C190.972 44.6227 190.815 44.6269 190.663 44.6625C190.511 44.6982 190.368 44.7645 190.243 44.8576C189.994 45.0531 189.83 45.3361 189.783 45.6487C189.737 45.9614 189.811 46.2801 189.992 46.5396Z" fill="#263238"/>
<path d="M191.958 66.4886C191.958 66.4886 196.507 66.8873 197.146 67.1713C193.869 70.7482 198.849 72.2336 198.849 72.2336L195.447 84.4008C197.49 87.5191 198.789 89.9274 199.559 92.9965C197.266 97.0376 184.372 97.6001 179.643 94.5856C180.058 88.9444 180.975 84.9032 180.67 83.2048C179.059 76.2857 179.119 74.8222 179.326 73.2385C179.741 70.1475 182.81 67.4498 184.563 66.3193H186.202L191.958 66.4886Z" fill="#37474F"/>
<path d="M182.707 50.1162C181.746 50.6623 180.561 53.0979 180.675 58.1658C180.774 62.4581 182.166 63.5176 182.86 63.8234C183.553 64.1292 184.908 63.9435 186.218 63.7251V66.3027C186.218 66.3027 184.405 68.4052 184.52 69.5793C184.634 70.7534 187.136 71.0374 188.829 69.8851C190.054 68.933 191.11 67.7809 191.952 66.4775L191.919 60.5522C191.919 60.5522 192.689 61.3059 194 60.159C195.092 59.2143 195.442 57.6251 194.601 56.7732C194.383 56.5697 194.12 56.4209 193.833 56.3392C193.546 56.2575 193.244 56.2453 192.952 56.3034C192.659 56.3616 192.385 56.4885 192.151 56.6737C191.918 56.8589 191.732 57.0971 191.608 57.3685C191.248 58.1494 190.429 58.1603 190.423 57.2702C190.385 52.7047 189.844 52.4645 189.386 50.5913C186.661 49.7121 184.722 50.0398 182.707 50.1162Z" fill="#FFA8A7"/>
<path d="M185.47 57.0849C185.466 57.1566 185.477 57.2283 185.501 57.296C185.525 57.3636 185.562 57.4258 185.611 57.4791C185.659 57.5323 185.717 57.5755 185.782 57.6063C185.847 57.6371 185.917 57.6547 185.989 57.6583C186.06 57.6619 186.132 57.6513 186.2 57.6272C186.267 57.6031 186.33 57.5659 186.383 57.5177C186.436 57.4695 186.479 57.4113 186.51 57.3464C186.541 57.2815 186.559 57.2112 186.562 57.1395C186.566 57.0678 186.555 56.9961 186.531 56.9285C186.507 56.8608 186.47 56.7986 186.421 56.7454C186.373 56.6921 186.315 56.6489 186.25 56.6181C186.185 56.5874 186.115 56.5697 186.043 56.5661C185.972 56.5625 185.9 56.5731 185.832 56.5972C185.765 56.6214 185.702 56.6586 185.649 56.7068C185.596 56.7549 185.553 56.8131 185.522 56.878C185.491 56.9429 185.474 57.0132 185.47 57.0849Z" fill="#263238"/>
<path d="M185.323 60.7275L184.072 61.1262C184.094 61.2103 184.133 61.2892 184.186 61.3578C184.239 61.4264 184.306 61.4835 184.382 61.5254C184.459 61.5673 184.542 61.5932 184.629 61.6016C184.716 61.61 184.803 61.6006 184.886 61.574C185.055 61.5189 185.196 61.3991 185.278 61.2406C185.36 61.0821 185.376 60.8977 185.323 60.7275Z" fill="#F28F8F"/>
<path d="M181.128 55.6541L182.221 54.9004C182.175 54.8265 182.114 54.7626 182.043 54.7127C181.971 54.6627 181.891 54.6278 181.806 54.6099C181.72 54.592 181.632 54.5916 181.547 54.6087C181.462 54.6258 181.38 54.66 181.309 54.7093C181.165 54.8146 181.066 54.9708 181.032 55.1461C180.999 55.3215 181.033 55.5031 181.128 55.6541Z" fill="#263238"/>
<path d="M187.043 55.8287L185.95 55.0696C185.996 54.9963 186.057 54.933 186.128 54.8836C186.199 54.8343 186.279 54.7999 186.364 54.7825C186.449 54.7652 186.536 54.7652 186.621 54.7826C186.706 54.8001 186.786 54.8345 186.857 54.8839C187.002 54.9885 187.102 55.1442 187.136 55.3196C187.171 55.4951 187.137 55.6771 187.043 55.8287Z" fill="#263238"/>
<path d="M181.292 56.697C181.292 56.805 181.324 56.9106 181.384 57.0004C181.444 57.0902 181.53 57.1602 181.629 57.2015C181.729 57.2428 181.839 57.2537 181.945 57.2326C182.051 57.2115 182.148 57.1595 182.224 57.0831C182.301 57.0068 182.353 56.9095 182.374 56.8035C182.395 56.6976 182.384 56.5878 182.343 56.488C182.302 56.3882 182.232 56.3029 182.142 56.2429C182.052 56.1829 181.946 56.1509 181.838 56.1509C181.694 56.1509 181.555 56.2084 181.452 56.3108C181.35 56.4132 181.292 56.5521 181.292 56.697Z" fill="#263238"/>
<path d="M183.843 56.3857L183.755 59.6351L182.046 59.1053L183.843 56.3857Z" fill="#F28F8F"/>
<path d="M186.224 63.7253C187.605 63.5451 190.445 62.7314 190.887 61.6064C190.709 62.1748 190.36 62.6745 189.888 63.0372C189.042 63.769 186.224 64.5882 186.224 64.5882V63.7253Z" fill="#F28F8F"/>
<path d="M185.552 46.354C184.567 46.354 183.591 46.5484 182.682 46.926C181.772 47.3036 180.945 47.8571 180.25 48.5546C179.554 49.2522 179.003 50.0801 178.628 50.991C178.253 51.9019 178.062 52.8779 178.065 53.8629V54.8295H181.729C182.553 54.8303 183.35 54.5317 183.971 53.9893C184.591 53.4469 184.994 52.6975 185.104 51.8806L185.241 54.8295C185.917 54.8244 186.567 54.5686 187.065 54.1116C187.564 53.6545 187.875 53.0289 187.938 52.3557L187.982 51.8751C188.046 52.6796 188.412 53.4303 189.005 53.9778C189.598 54.5253 190.375 54.8294 191.182 54.8295H191.51L191.881 49.5432L185.552 46.354Z" fill="#263238"/>
<path d="M194.164 69.1539C193.148 70.6611 187.354 83.3525 187.354 83.3525C187.354 83.3525 178.616 82.7627 174.925 82.3696C173.762 82.2439 174.018 80.9988 173.554 79.7646C173.09 78.5304 172.495 78.7707 172.495 78.7707V80.409C172.533 81.5013 170.703 82.1129 169.917 82.4187C168.628 82.9211 167.214 83.2379 165.881 83.6529C165.413 83.7415 164.994 83.9978 164.702 84.3737C164.603 84.5638 164.554 84.7762 164.561 84.9904C164.568 85.2046 164.629 85.4135 164.74 85.597C165.06 86.116 165.497 86.5522 166.017 86.8701C166.537 87.188 167.125 87.3786 167.733 87.4265C169.218 87.6067 170.66 87.1807 172.101 86.9186C173.811 86.6182 175.116 86.3725 176.809 86.5964C178.502 86.8203 180.555 87.2626 182.166 87.5575C184.231 87.9161 186.315 88.1568 188.408 88.2784C189.571 88.333 190.418 88.1036 191.422 86.6838C192.427 85.2639 197.976 73.834 197.976 73.834C200.286 70.5574 198.959 67.7831 197.244 67.1988C196.19 66.8493 195.185 67.6685 194.164 69.1539Z" fill="#FFA8A7"/>
<path d="M158.902 56.9429C159.343 57.0019 159.777 57.1063 160.196 57.2542C161.273 57.6211 162.194 58.3432 162.807 59.302C163.073 59.775 163.185 60.3188 163.129 60.8584C163.113 60.9999 163.07 61.137 163.003 61.2625C162.85 61.4786 162.64 61.6486 162.397 61.754C162.012 62.0182 161.557 62.1632 161.09 62.1709C160.623 62.1787 160.164 62.0489 159.77 61.7977C158.703 61.1793 157.576 60.6706 156.406 60.2796C155.816 60.0966 155.205 59.9883 154.588 59.9574C154.232 59.9664 153.889 60.091 153.61 60.3123C153.513 60.0693 153.484 59.8042 153.528 59.546C153.571 59.2879 153.685 59.0466 153.856 58.8488C154.46 58.0313 155.313 57.4316 156.286 57.1395C157.133 56.8808 158.026 56.8136 158.902 56.9429Z" fill="#FFA8A7"/>
<path d="M62.2911 94.5569C65.4549 94.5569 68.0197 91.9921 68.0197 88.8282C68.0197 85.6644 65.4549 83.0996 62.2911 83.0996C59.1273 83.0996 56.5625 85.6644 56.5625 88.8282C56.5625 91.9921 59.1273 94.5569 62.2911 94.5569Z" fill="#263238"/>
<path d="M48.5786 192.621H52.6143V185.718H48.5786V192.621Z" fill="#FFA8A7"/>
<path d="M62.5642 185.346L66.5945 185.483L66.7965 178.176L62.5642 178.04V185.346Z" fill="#FFA8A7"/>
<path d="M48.846 126.537C48.846 130.387 48.3491 158.173 48.3491 158.173C48.2562 159.265 47.2132 161.324 47.4425 165.583C47.7429 171.367 48.4091 189.17 48.4091 189.17C49.1055 189.511 49.8684 189.696 50.6439 189.711C51.4195 189.726 52.1889 189.571 52.8981 189.257C52.8981 189.257 56.4587 165.605 57.1795 159.871C57.813 154.874 58.8834 141.304 58.8834 141.304L61.0678 157.627C60.6015 159.73 60.4342 161.888 60.5709 164.038C60.7565 166.687 62.3129 183.102 62.3129 183.102C63.0147 183.5 63.7955 183.738 64.5997 183.799C65.4039 183.86 66.2117 183.744 66.9657 183.457C66.9657 183.457 69.0081 160.062 69.0518 157.627C69.1064 154.858 67.7084 126.553 67.7084 126.553L48.846 126.537Z" fill="#37474F"/>
<path d="M67.1572 103.093C69.5218 105.037 73.7923 108.985 73.7923 108.985L67.1298 112.65L62.8921 101.285C62.8921 101.285 64.5795 100.957 67.1572 103.093Z" fill="#BA68C8"/>
<path opacity="0.1" d="M67.1572 103.093C69.5218 105.037 73.7923 108.985 73.7923 108.985L67.1298 112.65L62.8921 101.285C62.8921 101.285 64.5795 100.957 67.1572 103.093Z" fill="black"/>
<path d="M50.2169 104.054C50.2169 104.054 48.7097 105.566 48.7097 109.225V117.127L48.595 132.052C54.3837 135.105 61.7014 135.28 67.8669 130.769C67.8669 130.769 67.572 111.59 67.572 108.444C67.572 105.299 65.8245 101.219 61.0188 100.941L54.7987 102.388L50.2169 104.054Z" fill="#BA68C8"/>
<path d="M52.396 92.897C52.396 92.897 53.3244 97.2658 53.6957 97.9757C53.9438 98.4171 54.3527 98.7458 54.8371 98.8932L54.7715 95.8296L52.396 92.897Z" fill="#263238"/>
<path d="M53.5592 86.6545C53.2354 86.6154 52.907 86.6513 52.5993 86.7592C52.2916 86.8672 52.0128 87.0443 51.7843 87.277C51.0198 88.058 51.4458 90.5045 52.396 92.8964L54.1435 93.0985L53.5592 86.6545Z" fill="#263238"/>
<path d="M54.6676 93.0986C54.3181 93.3116 53.8157 92.6344 53.3843 92.1866C52.9528 91.7388 51.5439 91.0944 50.8394 92.5962C50.1349 94.098 51.4729 96.1076 52.5651 96.4571C54.4765 97.0578 54.7495 95.8346 54.7495 95.8346L54.897 102.737C54.897 102.737 56.5353 105.468 60.7894 106.123C62.9738 106.462 63.4872 104.354 61.1225 102.557V100.455C61.9764 100.59 62.8424 100.634 63.7056 100.586C65.1145 100.367 65.9992 99.2586 66.4361 97.735C67.1242 95.2885 67.3809 93.3116 66.802 88.4949C66.1631 83.2196 60.0249 83.165 56.71 85.2511C53.3952 87.3372 54.6676 93.0986 54.6676 93.0986Z" fill="#FFA8A7"/>
<path d="M54.6677 93.6887C54.4929 93.6887 53.8212 92.5964 53.3843 92.1869C52.7782 91.6408 53.5591 86.6549 53.5591 86.6549C53.4012 86.223 53.3724 85.7545 53.4762 85.3065C53.5799 84.8585 53.8118 84.4504 54.1434 84.1318C54.9735 83.2253 56.3551 83.1216 58.7198 82.7502C59.9594 82.5536 61.838 82.2041 63.0886 81.9802C64.5631 81.7017 65.7863 81.4341 66.8349 82.3188C67.2426 82.6749 67.5305 83.1481 67.6595 83.6739C67.7885 84.1997 67.7523 84.7524 67.5557 85.2568C67.4478 85.4861 67.3061 85.6978 67.1352 85.8848C66.856 86.2214 66.4894 86.4746 66.0758 86.6166C66.0758 86.6166 65.4314 87.19 63.1869 87.4631C61.1162 87.6181 59.0354 87.5779 56.9722 87.3429C56.3224 87.2556 56.1859 87.889 55.8363 89.6038C55.5141 91.1165 55.2575 93.6777 54.6677 93.6887Z" fill="#263238"/>
<path d="M53.5645 87.0429L51.4729 85.9015C51.5392 85.7574 51.6342 85.6282 51.752 85.522C51.8698 85.4157 52.0081 85.3345 52.1583 85.2834C52.3085 85.2323 52.4676 85.2124 52.6258 85.2248C52.784 85.2371 52.938 85.2816 53.0784 85.3554C53.3618 85.5194 53.5706 85.7867 53.6612 86.1013C53.7518 86.4159 53.7172 86.7533 53.5645 87.0429Z" fill="#263238"/>
<path d="M61.139 100.45C61.139 100.45 57.9989 99.8161 56.9012 99.2318C56.2555 98.8955 55.7263 98.372 55.3831 97.73C55.5475 98.3722 55.8411 98.9743 56.2459 99.4994C57.0487 100.526 61.1608 101.285 61.1608 101.285L61.139 100.45Z" fill="#F28F8F"/>
<path d="M60.3855 92.3126C60.3812 92.4371 60.3403 92.5575 60.2679 92.6589C60.1954 92.7603 60.0948 92.8381 59.9784 92.8825C59.862 92.9269 59.7351 92.9361 59.6135 92.9088C59.492 92.8815 59.3812 92.819 59.295 92.729C59.2088 92.6391 59.1511 92.5257 59.1289 92.4031C59.1068 92.2805 59.1214 92.1541 59.1707 92.0397C59.2201 91.9254 59.3021 91.8281 59.4064 91.76C59.5108 91.692 59.6329 91.6562 59.7575 91.6572C59.8418 91.6587 59.9251 91.6768 60.0024 91.7105C60.0798 91.7443 60.1497 91.7931 60.2081 91.854C60.2664 91.9149 60.3122 91.9868 60.3426 92.0655C60.3731 92.1442 60.3877 92.2282 60.3855 92.3126Z" fill="#263238"/>
<path d="M59.7191 89.9366L58.3702 90.6793C58.3189 90.5871 58.2863 90.4858 58.2741 90.381C58.262 90.2762 58.2706 90.1701 58.2995 90.0687C58.3284 89.9672 58.3771 89.8725 58.4426 89.7899C58.5081 89.7072 58.5893 89.6383 58.6815 89.5871C58.772 89.539 58.8714 89.5099 58.9735 89.5015C59.0756 89.4932 59.1784 89.5057 59.2755 89.5384C59.3726 89.5712 59.4621 89.6233 59.5383 89.6918C59.6146 89.7602 59.6761 89.8435 59.7191 89.9366Z" fill="#263238"/>
<path d="M60.855 96.665L62.2912 97.2111C62.2599 97.3071 62.2096 97.3957 62.1434 97.4719C62.0772 97.548 61.9964 97.6101 61.9057 97.6544C61.8151 97.6987 61.7164 97.7243 61.6157 97.7298C61.5149 97.7353 61.4141 97.7205 61.3191 97.6862C61.1238 97.6103 60.9658 97.461 60.8791 97.2702C60.7923 97.0793 60.7837 96.8622 60.855 96.665Z" fill="#F28F8F"/>
<path d="M65.9992 90.4506L64.7705 89.5058C64.8279 89.4189 64.9029 89.345 64.9907 89.289C65.0785 89.233 65.1771 89.196 65.2801 89.1806C65.3831 89.1651 65.4882 89.1715 65.5886 89.1993C65.6889 89.2271 65.7823 89.2757 65.8627 89.342C66.0226 89.4745 66.1258 89.6631 66.1512 89.8692C66.1766 90.0753 66.1222 90.2833 65.9992 90.4506Z" fill="#263238"/>
<path d="M65.6226 92.1374C65.6172 92.2616 65.5754 92.3815 65.5024 92.4821C65.4294 92.5827 65.3283 92.6596 65.2119 92.7033C65.0955 92.7469 64.9688 92.7553 64.8476 92.7274C64.7264 92.6995 64.6162 92.6366 64.5305 92.5464C64.4448 92.4563 64.3876 92.343 64.3659 92.2206C64.3442 92.0981 64.359 91.972 64.4085 91.858C64.458 91.7439 64.5399 91.6469 64.6442 91.5791C64.7484 91.5113 64.8702 91.4756 64.9945 91.4766C65.165 91.4823 65.3264 91.5548 65.4439 91.6784C65.5613 91.802 65.6255 91.9668 65.6226 92.1374Z" fill="#263238"/>
<path d="M62.417 91.5371L62.6191 95.3271L64.5959 94.6499L62.417 91.5371Z" fill="#F28F8F"/>
<path d="M52.6143 190.627V190.054C53.002 190.223 53.8976 193.642 55.4977 195.1C56.7701 196.263 58.5067 197.601 58.9491 198.895C59.3914 200.19 56.5299 200.982 55.3393 200.774C53.9632 200.528 51.5658 199.556 50.9705 198.655C50.3753 197.754 50.0913 196.422 49.5998 195.761C49.1083 195.1 47.9615 194.363 47.7212 193.576C47.6425 192.863 47.7227 192.141 47.956 191.463C48.1417 190.748 48.3438 189.967 48.5895 190.032V190.469C49.1618 190.923 49.8741 191.165 50.6046 191.152C51.189 191.195 52.6198 191.081 52.6143 190.627Z" fill="#263238"/>
<path d="M66.6383 184.244C66.8512 184.244 67.0205 184.544 67.4792 185.046C68.1718 185.741 68.9745 186.317 69.8548 186.75C71.362 187.509 74.3001 188.672 75.6271 189.268C76.4626 189.645 76.419 190.649 75.5616 191.217C74.7042 191.785 72.6345 192.2 70.1442 191.643C68.7899 191.337 67.026 190.087 65.9065 190.158C64.787 190.229 62.7008 190.207 61.8762 189.639C61.0516 189.071 61.3847 187.859 61.6196 186.816C61.8708 185.674 62.1657 183.905 62.5643 183.981V184.38C63.0504 185.112 65.5515 185.412 66.6164 184.872L66.6383 184.244Z" fill="#263238"/>
<path d="M58.8835 141.286C60.9672 140.634 62.8832 139.535 64.4975 138.064C64.4975 138.064 63.4053 140.096 60.1942 141.98L60.8823 156.211L58.8835 141.286Z" fill="#263238"/>
<path d="M63.9132 156.567L63.5309 156.348C63.2125 156.137 62.9479 155.854 62.7583 155.522C62.5686 155.19 62.4592 154.819 62.4387 154.437V115.232C62.4592 114.851 62.5686 114.479 62.7583 114.147C62.9479 113.815 63.2125 113.532 63.5309 113.321L97.4876 93.7267C97.8267 93.5571 98.2007 93.4688 98.5798 93.4688C98.959 93.4688 99.3329 93.5571 99.672 93.7267L100.054 93.9506C100.373 94.1602 100.638 94.442 100.828 94.7731C101.018 95.1042 101.127 95.4754 101.147 95.8565V135.067C101.126 135.448 101.017 135.818 100.827 136.149C100.637 136.48 100.373 136.762 100.054 136.973L66.0976 156.578C65.7577 156.746 65.3833 156.832 65.0041 156.83C64.6249 156.828 64.2514 156.738 63.9132 156.567Z" fill="#F5F5F5"/>
<path d="M82.4534 109.706C88.3349 106.309 93.1079 109.067 93.1079 115.861C93.1079 122.654 88.3349 130.917 82.4534 134.313C76.5719 137.71 71.7935 134.958 71.7935 128.164C71.7935 121.371 76.5937 113.108 82.4534 109.706Z" fill="#455A64"/>
<path d="M82.377 115.057C84.2829 113.965 85.8338 114.844 85.8338 117.051C85.7715 118.253 85.4259 119.425 84.8252 120.468C84.2245 121.512 83.3856 122.4 82.377 123.058C80.4656 124.15 78.9202 123.271 78.9202 121.065C78.9825 119.862 79.3281 118.691 79.9288 117.647C80.5295 116.603 81.3684 115.716 82.377 115.057Z" fill="#BA68C8"/>
<path d="M89.1869 126.81C89.1869 123.189 86.6475 121.72 83.5074 123.533L81.5469 124.664C78.4123 126.477 75.8674 130.878 75.8674 134.494V135.471C77.6805 136.072 79.9632 135.744 82.4534 134.308C85.1764 132.629 87.4796 130.35 89.1869 127.645V126.81Z" fill="#BA68C8"/>
<path d="M101.168 95.6709C101.092 95.0975 100.622 94.89 100.076 95.2067L66.1195 114.817C65.794 115.02 65.5252 115.302 65.3386 115.636L62.761 114.146C62.9473 113.809 63.216 113.525 63.5419 113.321L97.4877 93.7268C97.826 93.5546 98.2003 93.4648 98.5799 93.4648C98.9595 93.4648 99.3338 93.5546 99.6721 93.7268L100.054 93.9452C100.353 94.1365 100.606 94.3896 100.799 94.6872C100.991 94.9849 101.117 95.3203 101.168 95.6709Z" fill="#FAFAFA"/>
<path d="M65.9284 156.655C65.6054 156.783 65.2588 156.842 64.9115 156.827C64.5642 156.812 64.224 156.723 63.9133 156.567L63.5256 156.349C63.2071 156.138 62.9425 155.855 62.7529 155.523C62.5633 155.191 62.4538 154.819 62.4333 154.438V115.233C62.4423 114.847 62.5535 114.47 62.7555 114.141L65.3332 115.631C65.1352 115.962 65.0244 116.338 65.0109 116.724V155.939C65.0109 156.562 65.4096 156.857 65.9284 156.655Z" fill="#E0E0E0"/>
<path d="M70.7395 146.792C70.7395 147.884 71.5204 148.359 72.487 147.802L92.4307 136.323C92.9396 135.992 93.3632 135.546 93.6668 135.02C93.9705 134.494 94.1457 133.904 94.1782 133.298C94.1782 132.206 93.3973 131.731 92.4307 132.288L72.5034 143.794C71.9962 144.122 71.5726 144.564 71.2664 145.084C70.9601 145.605 70.7797 146.19 70.7395 146.792Z" fill="#BA68C8"/>
<path d="M43.7457 127.672C41.676 126.231 41.7033 124.09 42.3641 121.665C46.8694 105.009 48.251 104.916 50.217 104.075L51.7953 110.628L47.5848 124.281C50.4052 126.352 53.6064 127.846 57.0051 128.677C57.7132 128.796 58.4403 128.718 59.1076 128.453C60.3909 127.732 61.1118 127.732 62.4279 127.361V129.513C63.6045 129.661 64.7973 129.621 65.9612 129.393C68.6917 128.885 69.8767 129.453 68.2111 132.565C67.1681 134.515 65.142 135.159 60.0633 134.286C58.2126 133.935 56.388 133.459 54.6022 132.86C50.775 131.606 47.1259 129.862 43.7457 127.672Z" fill="#FFA8A7"/>
<path d="M50.2168 104.054C50.2168 104.054 52.1555 105.272 52.5705 108.324C52.9856 111.377 50.0475 119.683 50.0475 119.683C50.0475 119.683 45.3019 119.23 43.3359 116.893C43.3359 116.893 46.0665 109.296 46.6126 107.582C46.8485 106.728 47.3063 105.952 47.9394 105.332C48.5724 104.712 49.3582 104.271 50.2168 104.054Z" fill="#BA68C8"/>
<path opacity="0.1" d="M50.2168 104.054C50.2168 104.054 52.1555 105.272 52.5705 108.324C52.9856 111.377 50.0475 119.683 50.0475 119.683C50.0475 119.683 45.3019 119.23 43.3359 116.893C43.3359 116.893 46.0665 109.296 46.6126 107.582C46.8485 106.728 47.3063 105.952 47.9394 105.332C48.5724 104.712 49.3582 104.271 50.2168 104.054Z" fill="black"/>
<path d="M101.168 105.124V107.554C101.168 107.554 99.8578 109.548 98.4379 110.285C97.0181 111.022 97.0399 113.966 98.7929 114.381C100.546 114.796 102.96 112.628 103.162 111.437C103.364 110.247 102.932 104.999 101.168 105.124Z" fill="#FFA8A7"/>
</svg>
