<svg width="263" height="288" viewBox="0 0 263 288" fill="none" xmlns="http://www.w3.org/2000/svg">
<g clip-path="url(#clip0_2230_186945)">
<path d="M224.17 75.3C244.825 75.3 261.57 58.5555 261.57 37.9C261.57 17.2446 244.825 0.5 224.17 0.5C203.514 0.5 186.77 17.2446 186.77 37.9C186.77 58.5555 203.514 75.3 224.17 75.3Z" fill="#CECFCF"/>
<path d="M224.17 287.39C244.825 287.39 261.57 270.645 261.57 249.99C261.57 229.334 244.825 212.59 224.17 212.59C203.514 212.59 186.77 229.334 186.77 249.99C186.77 270.645 203.514 287.39 224.17 287.39Z" fill="#CECFCF"/>
<path d="M206.8 47.9198C206.8 47.9198 210.01 66.6798 224.17 66.6798C238.33 66.6798 241.54 47.9198 241.54 47.9198C241.54 47.9198 243.06 42.6098 244.04 39.2998C245.02 35.9898 244.04 32.5298 244.04 32.5298C244.04 32.5298 234.43 29.2598 224.17 29.2598C213.91 29.2598 204.51 33.3598 204.51 33.3598C204.51 33.3598 204.74 38.2598 204.74 40.4598C204.74 42.6498 206.8 47.9198 206.8 47.9198Z" fill="#D9DAD8" stroke="#252526" stroke-miterlimit="10"/>
<path d="M246.25 24.9094C245.49 22.3394 243.02 20.9594 243.02 20.9594C243.02 20.9594 243.01 19.2094 241.58 17.2494C239.84 14.8594 237.27 14.2594 237.27 14.2594C237.27 14.2594 236.55 12.2294 233.92 11.1494C231.29 10.0694 229.25 10.5494 229.25 10.5494C229.25 10.5494 227.22 9.10938 224.16 9.10938C221.1 9.10938 219.07 10.5494 219.07 10.5494C219.07 10.5494 217.04 10.0694 214.4 11.1494C211.77 12.2294 211.05 14.2594 211.05 14.2594C211.05 14.2594 208.48 14.8594 206.74 17.2494C205.32 19.2094 205.3 20.9594 205.3 20.9594C205.3 20.9594 202.83 22.3394 202.07 24.9094C201.58 26.5794 201.47 29.0194 201.76 31.2594C203.16 30.6094 205.72 29.5594 208.97 28.8394C212.15 28.1394 218.02 27.7494 224.14 27.7194C230.26 27.7394 236.13 28.1294 239.31 28.8394C242.57 29.5594 245.12 30.6094 246.52 31.2594C246.81 29.0294 246.71 26.5794 246.21 24.9094H246.25Z" fill="#ABA3CB" stroke="#ABA3CB" stroke-miterlimit="10"/>
<path d="M227.689 23.5305C227.689 23.5305 229.309 20.1205 229.719 16.1105C229.949 13.9505 230.019 13.0605 231.629 13.0605C232.889 13.0605 233.699 14.4305 233.249 16.1105C231.929 20.9605 227.689 23.5305 227.689 23.5305Z" fill="#473680" stroke="#473680" stroke-linejoin="round"/>
<path d="M231.629 23.8299C231.629 23.8299 233.999 21.5699 235.149 18.8699C236.019 16.8099 236.909 16.4899 237.879 16.6099C238.919 16.7399 239.949 17.9299 240.579 19.4099C240.979 20.3499 241.159 21.8799 240.579 22.5999C240.139 23.1499 238.699 24.1199 235.649 24.1199C233.889 24.1199 231.639 23.8399 231.639 23.8399L231.629 23.8299Z" fill="#473680" stroke="#473680" stroke-linejoin="round"/>
<path d="M240.209 26.4997C240.209 26.4997 242.699 26.1797 244.159 25.2997C244.879 24.8697 245.759 26.5797 244.679 26.6997C243.599 26.8197 240.209 26.4997 240.209 26.4997Z" fill="#473680" stroke="#473680" stroke-linejoin="round"/>
<path d="M220.66 23.5305C220.66 23.5305 219.04 20.1205 218.63 16.1105C218.4 13.9505 218.33 13.0605 216.72 13.0605C215.46 13.0605 214.65 14.4305 215.1 16.1105C216.42 20.9605 220.66 23.5305 220.66 23.5305Z" fill="#473680" stroke="#473680" stroke-linejoin="round"/>
<path d="M216.719 23.8299C216.719 23.8299 214.349 21.5699 213.199 18.8699C212.329 16.8099 211.439 16.4899 210.469 16.6099C209.429 16.7399 208.399 17.9299 207.769 19.4099C207.369 20.3499 207.189 21.8799 207.769 22.5999C208.209 23.1499 209.649 24.1199 212.699 24.1199C214.459 24.1199 216.709 23.8399 216.709 23.8399L216.719 23.8299Z" fill="#473680" stroke="#473680" stroke-linejoin="round"/>
<path d="M208.139 26.4997C208.139 26.4997 205.649 26.1797 204.189 25.2997C203.469 24.8697 202.589 26.5797 203.669 26.6997C204.749 26.8197 208.139 26.4997 208.139 26.4997Z" fill="#473680" stroke="#473680" stroke-linejoin="round"/>
<path d="M225.509 13.7402C225.469 12.7002 225.069 11.9102 224.169 11.9102C223.269 11.9102 222.869 12.7102 222.829 13.7402C222.789 14.7702 222.829 18.3002 224.169 20.3502C225.509 18.3002 225.549 14.7802 225.509 13.7402Z" fill="#473680" stroke="#473680" stroke-linejoin="round"/>
<path d="M243.8 41.179C243.68 39.729 242.7 39.809 240.21 39.859C238.43 39.889 235.2 40.019 232.25 40.659C229.3 41.299 227.22 41.759 224.17 41.759C221.12 41.759 219.04 41.299 216.09 40.659C213.14 40.019 209.91 39.899 208.13 39.859C205.64 39.809 204.66 39.729 204.54 41.179C204.43 42.449 204.53 45.189 205.64 46.799C206.36 47.829 211.36 51.429 214.96 51.829C218.56 52.229 220.79 51.669 221.59 49.759C222.39 47.849 222.59 46.249 224.16 46.249C225.73 46.249 225.94 47.849 226.73 49.759C227.53 51.669 229.76 52.229 233.36 51.829C236.96 51.429 241.96 47.839 242.68 46.799C243.8 45.179 243.89 42.449 243.78 41.179H243.8Z" fill="#9386C2"/>
<path d="M205.099 37.2502C205.099 37.2502 205.049 38.8602 205.279 40.0102C204.509 40.2802 204.419 41.0202 204.599 43.5902C203.979 42.1902 203.799 41.1402 203.559 39.7502C203.249 37.9102 203.309 35.9902 203.309 35.9902C203.309 35.9902 204.119 37.7902 205.099 37.2402V37.2502Z" fill="#252526"/>
<path d="M243.239 37.2502C243.239 37.2502 243.289 38.8602 243.059 40.0102C243.829 40.2802 243.919 41.0202 243.739 43.5902C244.359 42.1902 244.539 41.1402 244.779 39.7502C245.089 37.9102 245.029 35.9902 245.029 35.9902C245.029 35.9902 244.219 37.7902 243.239 37.2402V37.2502Z" fill="#252526"/>
<path d="M230.921 53.0687L240.211 38.7188L235.971 39.0487L227.381 52.3187L230.921 53.0687Z" fill="#D9DAD8"/>
<path d="M235.35 51.9087L243.52 39.3088L242.54 38.7188L233.4 52.8288L235.35 51.9087Z" fill="#D9DAD8"/>
<path d="M207.71 49.9286L214.59 39.3086H213.04L206.73 49.0486L207.71 49.9286Z" fill="#D9DAD8"/>
<path d="M215.86 53.2696L224.17 40.4296L220.03 39.8496L211.74 52.6396L215.86 53.2696Z" fill="#D9DAD8"/>
<path d="M243.8 41.179C243.68 39.729 242.7 39.809 240.21 39.859C238.43 39.889 235.2 40.019 232.25 40.659C229.3 41.299 227.22 41.759 224.17 41.759C221.12 41.759 219.04 41.299 216.09 40.659C213.14 40.019 209.91 39.899 208.13 39.859C205.64 39.809 204.66 39.729 204.54 41.179C204.43 42.449 204.53 45.189 205.64 46.799C206.36 47.829 211.36 51.429 214.96 51.829C218.56 52.229 220.79 51.669 221.59 49.759C222.39 47.849 222.59 46.249 224.16 46.249C225.73 46.249 225.94 47.849 226.73 49.759C227.53 51.669 229.76 52.229 233.36 51.829C236.96 51.429 241.96 47.839 242.68 46.799C243.8 45.179 243.89 42.449 243.78 41.179H243.8Z" stroke="#252526" stroke-miterlimit="10"/>
<path d="M239.351 28.8388C236.171 28.1388 230.301 27.7487 224.181 27.7188C218.061 27.7387 212.191 28.1288 209.011 28.8388C205.751 29.5588 203.201 30.6088 201.801 31.2588C201.971 32.5488 202.271 33.7587 202.711 34.7288C203.911 37.3588 204.481 37.8088 205.461 36.9988C206.121 36.4588 206.781 34.0688 210.561 32.6788C212.721 31.8888 218.751 31.1788 224.191 31.2488C229.631 31.1788 235.651 31.8888 237.821 32.6788C241.611 34.0588 242.261 36.4588 242.921 36.9988C243.901 37.8088 244.481 37.3588 245.671 34.7288C246.111 33.7688 246.411 32.5488 246.581 31.2588C245.181 30.6088 242.621 29.5588 239.371 28.8388H239.351Z" fill="#252526" stroke="#252526" stroke-miterlimit="10"/>
<path d="M63.69 207.14C98.5889 207.14 126.88 178.849 126.88 143.95C126.88 109.051 98.5889 80.7598 63.69 80.7598C28.7911 80.7598 0.5 109.051 0.5 143.95C0.5 178.849 28.7911 207.14 63.69 207.14Z" fill="#B5A8E4"/>
<path d="M206.8 260.019C206.8 260.019 210.01 278.779 224.17 278.779C238.33 278.779 241.54 260.019 241.54 260.019C241.54 260.019 243.06 254.709 244.04 251.399C245.02 248.089 244.04 244.629 244.04 244.629C244.04 244.629 234.43 241.359 224.17 241.359C213.91 241.359 204.51 245.459 204.51 245.459C204.51 245.459 204.74 250.359 204.74 252.559C204.74 254.749 206.8 260.019 206.8 260.019Z" fill="#D9DAD8" stroke="#252526" stroke-miterlimit="10"/>
<path d="M246.25 236.999C245.49 234.429 243.02 233.049 243.02 233.049C243.02 233.049 243.01 231.299 241.58 229.339C239.84 226.949 237.27 226.349 237.27 226.349C237.27 226.349 236.55 224.319 233.92 223.239C231.29 222.159 229.25 222.639 229.25 222.639C229.25 222.639 227.22 221.199 224.16 221.199C221.1 221.199 219.07 222.639 219.07 222.639C219.07 222.639 217.04 222.159 214.4 223.239C211.77 224.319 211.05 226.349 211.05 226.349C211.05 226.349 208.48 226.949 206.74 229.339C205.32 231.299 205.3 233.049 205.3 233.049C205.3 233.049 202.83 234.429 202.07 236.999C201.58 238.669 201.47 241.109 201.76 243.349C203.16 242.699 205.72 241.649 208.97 240.929C212.15 240.229 218.02 239.839 224.14 239.809C230.26 239.829 236.13 240.219 239.31 240.929C242.57 241.649 245.12 242.699 246.52 243.349C246.81 241.119 246.71 238.669 246.21 236.999H246.25Z" fill="#ABA3CB" stroke="#ABA3CB" stroke-miterlimit="10"/>
<path d="M227.689 235.63C227.689 235.63 229.309 232.22 229.719 228.21C229.949 226.05 230.019 225.16 231.629 225.16C232.889 225.16 233.699 226.53 233.249 228.21C231.929 233.06 227.689 235.63 227.689 235.63Z" fill="#473680" stroke="#473680" stroke-linejoin="round"/>
<path d="M231.629 235.929C231.629 235.929 233.999 233.669 235.149 230.969C236.019 228.909 236.909 228.589 237.879 228.709C238.919 228.839 239.949 230.029 240.579 231.509C240.979 232.449 241.159 233.979 240.579 234.699C240.139 235.249 238.699 236.219 235.649 236.219C233.889 236.219 231.639 235.939 231.639 235.939L231.629 235.929Z" fill="#473680" stroke="#473680" stroke-linejoin="round"/>
<path d="M240.209 238.599C240.209 238.599 242.699 238.279 244.159 237.399C244.879 236.969 245.759 238.679 244.679 238.799C243.599 238.919 240.209 238.599 240.209 238.599Z" fill="#473680" stroke="#473680" stroke-linejoin="round"/>
<path d="M220.66 235.63C220.66 235.63 219.04 232.22 218.63 228.21C218.4 226.05 218.33 225.16 216.72 225.16C215.46 225.16 214.65 226.53 215.1 228.21C216.42 233.06 220.66 235.63 220.66 235.63Z" fill="#473680" stroke="#473680" stroke-linejoin="round"/>
<path d="M216.719 235.929C216.719 235.929 214.349 233.669 213.199 230.969C212.329 228.909 211.439 228.589 210.469 228.709C209.429 228.839 208.399 230.029 207.769 231.509C207.369 232.449 207.189 233.979 207.769 234.699C208.209 235.249 209.649 236.219 212.699 236.219C214.459 236.219 216.709 235.939 216.709 235.939L216.719 235.929Z" fill="#473680" stroke="#473680" stroke-linejoin="round"/>
<path d="M208.139 238.599C208.139 238.599 205.649 238.279 204.189 237.399C203.469 236.969 202.589 238.679 203.669 238.799C204.749 238.919 208.139 238.599 208.139 238.599Z" fill="#473680" stroke="#473680" stroke-linejoin="round"/>
<path d="M225.509 225.83C225.469 224.79 225.069 224 224.169 224C223.269 224 222.869 224.8 222.829 225.83C222.789 226.86 222.829 230.39 224.169 232.44C225.509 230.39 225.549 226.87 225.509 225.83Z" fill="#473680" stroke="#473680" stroke-linejoin="round"/>
<path d="M243.8 253.279C243.68 251.829 242.7 251.909 240.21 251.959C238.43 251.989 235.2 252.119 232.25 252.759C229.3 253.399 227.22 253.859 224.17 253.859C221.12 253.859 219.04 253.399 216.09 252.759C213.14 252.119 209.91 251.999 208.13 251.959C205.64 251.909 204.66 251.829 204.54 253.279C204.43 254.549 204.53 257.289 205.64 258.899C206.36 259.929 211.36 263.529 214.96 263.929C218.56 264.329 220.79 263.769 221.59 261.859C222.39 259.949 222.59 258.349 224.16 258.349C225.73 258.349 225.94 259.949 226.73 261.859C227.53 263.769 229.76 264.329 233.36 263.929C236.96 263.529 241.96 259.939 242.68 258.899C243.8 257.279 243.89 254.549 243.78 253.279H243.8Z" fill="#9386C2"/>
<path d="M205.099 249.35C205.099 249.35 205.049 250.96 205.279 252.11C204.509 252.38 204.419 253.12 204.599 255.69C203.979 254.29 203.799 253.24 203.559 251.85C203.249 250.01 203.309 248.09 203.309 248.09C203.309 248.09 204.119 249.89 205.099 249.34V249.35Z" fill="#252526"/>
<path d="M243.239 249.35C243.239 249.35 243.289 250.96 243.059 252.11C243.829 252.38 243.919 253.12 243.739 255.69C244.359 254.29 244.539 253.24 244.779 251.85C245.089 250.01 245.029 248.09 245.029 248.09C245.029 248.09 244.219 249.89 243.239 249.34V249.35Z" fill="#252526"/>
<path d="M230.921 265.158L240.211 250.818L235.971 251.148L227.381 264.408L230.921 265.158Z" fill="#D9DAD8"/>
<path d="M235.35 264.008L243.52 251.398L242.54 250.818L233.4 264.928L235.35 264.008Z" fill="#D9DAD8"/>
<path d="M207.71 262.028L214.59 251.398H213.04L206.73 261.148L207.71 262.028Z" fill="#D9DAD8"/>
<path d="M215.86 265.357L224.17 252.527L220.03 251.938L211.74 264.737L215.86 265.357Z" fill="#D9DAD8"/>
<path d="M243.8 253.279C243.68 251.829 242.7 251.909 240.21 251.959C238.43 251.989 235.2 252.119 232.25 252.759C229.3 253.399 227.22 253.859 224.17 253.859C221.12 253.859 219.04 253.399 216.09 252.759C213.14 252.119 209.91 251.999 208.13 251.959C205.64 251.909 204.66 251.829 204.54 253.279C204.43 254.549 204.53 257.289 205.64 258.899C206.36 259.929 211.36 263.529 214.96 263.929C218.56 264.329 220.79 263.769 221.59 261.859C222.39 259.949 222.59 258.349 224.16 258.349C225.73 258.349 225.94 259.949 226.73 261.859C227.53 263.769 229.76 264.329 233.36 263.929C236.96 263.529 241.96 259.939 242.68 258.899C243.8 257.279 243.89 254.549 243.78 253.279H243.8Z" stroke="#252526" stroke-miterlimit="10"/>
<path d="M239.351 240.929C236.171 240.229 230.301 239.839 224.181 239.809C218.061 239.829 212.191 240.219 209.011 240.929C205.751 241.649 203.201 242.699 201.801 243.349C201.971 244.639 202.271 245.849 202.711 246.819C203.911 249.449 204.481 249.899 205.461 249.089C206.121 248.549 206.781 246.159 210.561 244.769C212.721 243.979 218.751 243.269 224.191 243.339C229.631 243.269 235.651 243.979 237.821 244.769C241.611 246.149 242.261 248.549 242.921 249.089C243.901 249.899 244.481 249.449 245.671 246.819C246.111 245.859 246.411 244.639 246.581 243.349C245.181 242.699 242.621 241.649 239.371 240.929H239.351Z" fill="#252526" stroke="#252526" stroke-miterlimit="10"/>
<path d="M192.97 58.5098L116.4 109.11" stroke="#252526" stroke-width="2" stroke-linejoin="round"/>
<path d="M192.97 229.379L116.41 178.779" stroke="#252526" stroke-width="2" stroke-linejoin="round"/>
<path d="M75.7774 156.502L68.8876 156.45C68.5776 156.448 68.3395 156.196 68.3418 155.896C68.3441 155.586 68.5959 155.348 68.8959 155.35L75.7857 155.402L75.7773 156.512L75.7774 156.502Z" fill="#ECEDEB" stroke="#252526" stroke-width="0.5" stroke-linejoin="round"/>
<path d="M75.3904 156.641H79.9404C80.0564 156.641 80.1504 156.547 80.1504 156.431V155.381C80.1504 155.265 80.0564 155.171 79.9404 155.171H75.3904C75.2744 155.171 75.1804 155.265 75.1804 155.381V156.431C75.1804 156.547 75.2744 156.641 75.3904 156.641Z" fill="#A0A0A0" stroke="#252526" stroke-width="0.5" stroke-linejoin="round"/>
<path d="M34.73 134.021C24.66 134.021 16.5 142.181 16.5 152.251C16.5 162.321 24.66 170.481 34.73 170.481C44.8 170.481 52.96 162.321 52.96 152.251C52.96 142.181 44.8 134.021 34.73 134.021ZM34.73 167.381C26.38 167.381 19.6 160.611 19.6 152.251C19.6 143.891 26.37 137.121 34.73 137.121C43.09 137.121 49.86 143.891 49.86 152.251C49.86 160.611 43.09 167.381 34.73 167.381Z" fill="#383838" stroke="#252526" stroke-width="0.5" stroke-linejoin="round"/>
<path d="M92.6499 134.021C82.5799 134.021 74.4199 142.181 74.4199 152.251C74.4199 162.321 82.5799 170.481 92.6499 170.481C102.72 170.481 110.88 162.321 110.88 152.251C110.88 142.181 102.72 134.021 92.6499 134.021ZM92.6499 167.381C84.2999 167.381 77.5199 160.611 77.5199 152.251C77.5199 143.891 84.2899 137.121 92.6499 137.121C101.01 137.121 107.78 143.891 107.78 152.251C107.78 160.611 101.01 167.381 92.6499 167.381Z" fill="#383838" stroke="#252526" stroke-width="0.5" stroke-linejoin="round"/>
<path d="M78.1609 118.94C79.4809 118.94 81.9209 118.94 83.1409 118.75C84.3609 118.56 86.0009 118.4 86.1609 118.75C86.3209 119.1 86.3809 119.36 85.4209 120.16C84.4609 120.96 83.4909 121.35 83.0809 121.67C82.6709 121.99 80.1009 122.29 78.4409 121.63C76.7809 120.97 75.3109 120 74.7909 119.97C74.2709 119.94 72.8609 120.31 72.3809 120.28C71.9009 120.25 71.7709 119.68 72.3809 119.32C72.9909 118.96 77.0409 118.94 78.1609 118.93V118.94Z" fill="#9C8BDC" stroke="#252526" stroke-width="0.5" stroke-linejoin="round"/>
<path d="M71.2793 154.55C71.2793 154.55 90.0193 152.35 90.6393 152.25C91.2593 152.15 91.6293 152.54 91.6793 152.81C91.7293 153.08 91.5793 153.45 90.9493 153.66C90.3193 153.87 71.5893 156.68 71.5893 156.68L71.2793 154.55Z" fill="#ECEDEB" stroke="#252526" stroke-width="0.5" stroke-linejoin="round"/>
<path d="M48.9396 122.731C48.9396 122.731 49.8596 120.231 49.9696 119.891C50.0796 119.551 49.9496 119.471 49.4596 119.271C48.9696 119.071 46.6796 118.301 46.1896 118.091C45.6996 117.881 44.5196 117.471 44.1796 117.431C43.8396 117.391 43.4496 117.401 42.8996 117.431C42.3496 117.461 41.5196 117.531 41.7796 118.231C42.0296 118.921 42.1096 119.251 42.4196 119.141C42.9896 118.931 43.9296 118.911 44.4496 119.081C44.8696 119.221 46.6096 119.901 46.9896 120.071C47.3696 120.241 47.4396 120.281 47.2996 120.591C47.1596 120.901 46.7396 122.101 46.7396 122.101L48.9396 122.741V122.731Z" fill="#7A7A79" stroke="#252526" stroke-width="0.5" stroke-linejoin="round"/>
<path d="M68.9406 161.202C71.8677 161.202 74.2406 158.829 74.2406 155.902C74.2406 152.974 71.8677 150.602 68.9406 150.602C66.0135 150.602 63.6406 152.974 63.6406 155.902C63.6406 158.829 66.0135 161.202 68.9406 161.202Z" fill="#ECEDEB" stroke="#252526" stroke-width="0.5" stroke-linejoin="round"/>
<path d="M92.9708 151.79C92.7408 151.52 78.8608 136.57 76.5008 134.03C78.3008 127.97 79.9208 122.51 79.9208 122.51C80.0808 121.99 80.1408 121.99 79.6308 121.93C79.2508 121.89 78.7208 121.73 78.3308 121.58C78.1708 122.1 75.9008 129.62 75.8008 129.93C75.7008 130.24 75.7508 130.55 75.1808 130.35C74.6108 130.14 49.2408 123.74 48.8308 123.53C48.8308 123.53 48.8908 123.17 48.9508 122.73C48.9508 122.69 46.4808 122.02 46.3008 121.97C46.1008 121.92 45.5308 123.85 45.1908 124.78C44.2908 127.24 43.3008 129.91 42.3208 132.34C41.1808 135.16 40.0408 137.99 38.9008 140.81C37.9408 143.18 36.9908 145.55 36.0308 147.91C35.6008 148.97 35.2008 150.06 34.7308 151.11C34.3008 152.05 34.0408 152.62 34.3808 152.8C34.6508 152.94 34.9508 153.12 35.4208 152.24C35.8908 151.36 45.4108 133.04 45.6208 132.68C45.8308 132.32 46.2408 132.26 46.6108 132.68C46.9808 133.1 61.3908 154.12 61.8108 154.85C62.2308 155.58 64.1108 158.08 64.1108 158.08C64.1108 158.08 63.3008 156.4 63.7808 154.64C64.2708 152.87 65.2008 152.12 65.2008 152.12C65.2008 152.12 50.7108 130.81 50.0908 129.87C49.4708 128.93 48.2708 127.58 48.2208 126.85C48.1708 126.12 48.8808 125.7 49.8508 125.91C50.8208 126.12 73.9808 131.37 74.5008 131.58C75.0208 131.79 75.1808 131.84 75.0208 132.41C74.8608 132.98 71.7408 142.66 71.6408 142.98C71.5908 143.13 71.5908 143.2 71.5408 143.27L69.1708 150.59C69.4308 150.6 69.6708 150.64 69.9008 150.67C70.6108 150.78 71.4108 151.2 71.4108 151.2C71.4108 151.2 73.2908 144.86 75.9308 135.93C78.3608 138.42 91.2208 151.57 91.8708 152.24C92.5808 152.98 92.8008 152.82 92.9708 152.71C93.1308 152.6 93.4708 152.35 92.9708 151.78V151.79Z" fill="#ECEDEB" stroke="#252526" stroke-width="0.5" stroke-linejoin="round"/>
<path d="M34.7306 156.35C36.9895 156.35 38.8206 154.519 38.8206 152.26C38.8206 150.001 36.9895 148.17 34.7306 148.17C32.4718 148.17 30.6406 150.001 30.6406 152.26C30.6406 154.519 32.4718 156.35 34.7306 156.35Z" fill="#ECEDEB" stroke="#252526" stroke-width="0.5" stroke-linejoin="round"/>
<path d="M92.6506 156.35C94.9094 156.35 96.7405 154.519 96.7405 152.26C96.7405 150.001 94.9094 148.17 92.6506 148.17C90.3917 148.17 88.5605 150.001 88.5605 152.26C88.5605 154.519 90.3917 156.35 92.6506 156.35Z" fill="#ECEDEB" stroke="#252526" stroke-width="0.5" stroke-linejoin="round"/>
<path d="M62.1055 155.41L68.9953 155.359C69.3053 155.356 69.5472 155.605 69.5495 155.905C69.5518 156.215 69.3036 156.456 69.0036 156.459L62.1138 156.51L62.1055 155.4L62.1055 155.41Z" fill="#ECEDEB" stroke="#252526" stroke-width="0.5" stroke-linejoin="round"/>
<path d="M62.4905 155.17H57.9405C57.8245 155.17 57.7305 155.264 57.7305 155.38V156.43C57.7305 156.546 57.8245 156.64 57.9405 156.64H62.4905C62.6065 156.64 62.7005 156.546 62.7005 156.43V155.38C62.7005 155.264 62.6065 155.17 62.4905 155.17Z" fill="#A0A0A0" stroke="#252526" stroke-width="0.5" stroke-linejoin="round"/>
</g>
<defs>
<clipPath id="clip0_2230_186945">
<rect width="262.07" height="287.89" fill="white"/>
</clipPath>
</defs>
</svg>
