<svg width="241" height="152" viewBox="0 0 241 152" fill="none" xmlns="http://www.w3.org/2000/svg">
<path d="M179.379 88.252L167.251 88.1609C166.858 88.158 166.547 87.8415 166.55 87.4489L166.553 86.9515C166.556 86.5589 166.873 86.2471 167.265 86.2501L179.394 86.3411L179.379 88.252Z" fill="#ECEDEB" stroke="#252526" stroke-linejoin="round"/>
<path d="M178.61 88.4727H186.664C186.808 88.4727 186.926 88.3555 186.926 88.2109V86.1953C186.926 86.0507 186.808 85.9335 186.664 85.9335H178.61C178.466 85.9335 178.348 86.0507 178.348 86.1953V88.2109C178.348 88.3555 178.466 88.4727 178.61 88.4727Z" fill="#A0A0A0" stroke="#252526" stroke-linejoin="round"/>
<path d="M208.484 49.457C191.112 49.457 177.029 63.5402 177.029 80.9129C177.029 98.2856 191.112 112.369 208.484 112.369C225.857 112.369 239.94 98.2856 239.94 80.9129C239.94 63.5402 225.857 49.457 208.484 49.457ZM208.484 107.002C194.07 107.002 182.386 95.3189 182.386 80.9041C182.386 66.4894 194.07 54.8058 208.484 54.8058C222.899 54.8058 234.583 66.4894 234.583 80.9041C234.583 95.3189 222.899 107.002 208.484 107.002Z" fill="#383838" stroke="#252526" stroke-linejoin="round"/>
<path d="M183.495 23.4307C185.764 23.4307 189.978 23.4307 192.081 23.0991C194.184 22.7675 197.011 22.4883 197.29 23.0991C197.569 23.7099 197.674 24.1549 196.016 25.5336C194.35 26.9209 192.692 27.5841 191.968 28.1338C191.243 28.6835 186.82 29.207 183.966 28.0553C181.113 26.9122 178.565 25.2456 177.675 25.1933C176.785 25.1409 174.351 25.7779 173.522 25.7342C172.693 25.6906 172.466 24.6959 173.522 24.0851C174.577 23.4743 181.558 23.422 183.495 23.422V23.4307Z" fill="#9C8BDC" stroke="#252526" stroke-linejoin="round"/>
<path d="M171.619 84.8741C171.619 84.8741 203.939 81.0698 205.021 80.9127C206.094 80.7469 206.723 81.4101 206.819 81.8813C206.906 82.3612 206.635 82.9894 205.562 83.3472C204.489 83.7049 172.16 88.5564 172.16 88.5564L171.619 84.8741Z" fill="#ECEDEB" stroke="#252526" stroke-linejoin="round"/>
<path d="M133.096 29.9832C133.096 29.9832 134.692 25.6815 134.867 25.0794C135.041 24.4774 134.832 24.3639 133.977 24.0062C133.131 23.6484 129.178 22.3309 128.34 21.9731C127.502 21.6154 125.469 20.8999 124.867 20.8388C124.265 20.7777 123.611 20.7777 122.651 20.8388C121.691 20.8999 120.278 21.022 120.714 22.2174C121.15 23.4128 121.281 23.9887 121.822 23.788C122.808 23.4303 124.422 23.3867 125.321 23.6921C126.037 23.9364 129.047 25.0969 129.701 25.3935C130.356 25.6902 130.478 25.7513 130.242 26.2836C130.007 26.8158 129.274 28.8838 129.274 28.8838L133.078 29.9832H133.096Z" fill="#7A7A79" stroke="#252526" stroke-linejoin="round"/>
<path d="M167.589 96.3494C172.639 96.3494 176.733 92.2553 176.733 87.205C176.733 82.1547 172.639 78.0605 167.589 78.0605C162.538 78.0605 158.444 82.1547 158.444 87.205C158.444 92.2553 162.538 96.3494 167.589 96.3494Z" fill="#ECEDEB" stroke="#252526" stroke-linejoin="round"/>
<path d="M209.053 80.1113C208.651 79.6489 184.708 53.8472 180.642 49.4757C183.74 39.0224 186.541 29.5987 186.541 29.5987C186.811 28.7 186.916 28.7087 186.052 28.604C185.406 28.5255 184.481 28.255 183.809 28.002C183.539 28.9007 179.621 41.8757 179.438 42.4167C179.255 42.9577 179.351 43.4899 178.365 43.1322C177.379 42.7744 133.628 31.7278 132.904 31.37C132.904 31.37 133 30.7505 133.105 29.9914C133.114 29.9216 128.838 28.7611 128.533 28.6826C128.192 28.5953 127.206 31.9285 126.613 33.534C125.051 37.7834 123.358 42.3905 121.666 46.5788C119.702 51.4477 117.739 56.3166 115.776 61.1942C114.127 65.2778 112.478 69.3614 110.82 73.445C110.078 75.2773 109.389 77.1621 108.569 78.9595C107.827 80.5738 107.382 81.5598 107.966 81.8739C108.429 82.1182 108.952 82.4236 109.764 80.9141C110.575 79.4045 127.006 47.8004 127.363 47.1721C127.721 46.5439 128.437 46.4566 129.065 47.1721C129.693 47.8876 154.561 84.16 155.277 85.4165C155.992 86.673 159.256 90.9922 159.256 90.9922C159.256 90.9922 157.851 88.104 158.688 85.05C159.526 82.0048 161.14 80.7047 161.14 80.7047C161.14 80.7047 136.15 43.9349 135.077 42.3207C134.004 40.7064 131.936 38.368 131.848 37.1115C131.761 35.855 132.991 35.1395 134.667 35.4973C136.342 35.855 176.288 44.9209 177.187 45.2874C178.085 45.6451 178.356 45.7324 178.085 46.7271C177.815 47.7131 172.431 64.4139 172.248 64.9549C172.161 65.2167 172.161 65.3301 172.082 65.4523L167.99 78.0783C168.444 78.1044 168.854 78.1568 169.255 78.2179C170.485 78.4011 171.864 79.1253 171.864 79.1253C171.864 79.1253 175.11 68.1834 179.665 52.7827C183.862 57.0757 206.042 79.771 207.159 80.9228C208.39 82.1967 208.765 81.9175 209.053 81.7343C209.341 81.5423 209.917 81.1235 209.053 80.1288V80.1113Z" fill="#ECEDEB" stroke="#252526" stroke-linejoin="round"/>
<path d="M108.568 87.9561C112.462 87.9561 115.619 84.7995 115.619 80.9058C115.619 77.012 112.462 73.8555 108.568 73.8555C104.675 73.8555 101.518 77.012 101.518 80.9058C101.518 84.7995 104.675 87.9561 108.568 87.9561Z" fill="#ECEDEB" stroke="#252526" stroke-linejoin="round"/>
<path d="M208.485 87.9561C212.379 87.9561 215.535 84.7995 215.535 80.9058C215.535 77.012 212.379 73.8555 208.485 73.8555C204.591 73.8555 201.435 77.012 201.435 80.9058C201.435 84.7995 204.591 87.9561 208.485 87.9561Z" fill="#ECEDEB" stroke="#252526" stroke-linejoin="round"/>
<path d="M155.785 86.3281L167.913 86.2371C168.306 86.2342 168.622 86.5459 168.625 86.9386L168.629 87.4359C168.632 87.8285 168.32 88.145 167.928 88.148L155.799 88.239L155.785 86.3281Z" fill="#ECEDEB" stroke="#252526" stroke-linejoin="round"/>
<path d="M156.559 85.9336H148.506C148.361 85.9336 148.244 86.0508 148.244 86.1954V88.211C148.244 88.3556 148.361 88.4728 148.506 88.4728H156.559C156.704 88.4728 156.821 88.3556 156.821 88.211V86.1954C156.821 86.0508 156.704 85.9336 156.559 85.9336Z" fill="#A0A0A0" stroke="#252526" stroke-linejoin="round"/>
<path d="M192.404 94.2558L177.78 94.8143L173.164 94.9975L171.794 95.0412L160.992 95.4687L157.1 95.6171L156.271 95.6519L36.5033 100.303L31.9747 100.468L30.5437 100.53L25.4479 100.722L21.565 100.87L20.7273 100.905L19.9246 100.94C19.8722 98.1562 20.2823 93.1215 18.2929 89.2473C16.3733 85.5302 15.4396 85.2772 15.0382 85.3994C13.0663 85.9403 11.8272 88.6976 10.911 88.0781C8.83433 86.7256 6.10321 70.9759 5.83272 63.2886C5.57967 55.5927 3.93926 41.7887 2.28139 38.4992L167.396 35.2969C169.063 38.5952 172.195 48.5511 173.129 56.3518C174.028 63.978 174.7 77.5812 176.942 78.5236C178.722 79.274 186.819 76.2724 189.943 80.8097C192.386 84.3872 192.36 91.4811 192.421 94.2558H192.404Z" fill="#ECEDEB" stroke="#252526" stroke-linecap="round" stroke-linejoin="round"/>
<path d="M19.9155 100.948L18.0919 101.027C18.0919 101.027 18.4322 96.1316 17.3066 91.7863C16.1548 87.4584 14.6278 87.4758 13.9646 88.1564C13.127 89.0203 11.0677 90.7828 10.1428 90.1808C8.06613 88.8109 4.87256 73.6283 4.61079 65.9236C4.34902 58.2363 2.71733 44.4237 1.05946 41.1341L2.27232 38.4902C3.93892 41.7798 5.57061 55.5924 5.82365 63.2797C6.08542 70.9757 8.82526 86.7167 10.902 88.0692C11.8181 88.6887 13.0659 85.9314 15.0292 85.3904C15.4393 85.2683 16.3642 85.53 18.2838 89.2384C20.2733 93.1126 19.8632 98.1473 19.9155 100.931V100.948Z" fill="#DFE0E0" stroke="#252526" stroke-linecap="round" stroke-linejoin="round"/>
<path d="M15.2386 85.3897L188.311 79.3516" stroke="#252526" stroke-width="0.5" stroke-linecap="round" stroke-linejoin="round"/>
<path d="M21.5553 100.879V119.325L20.7177 118.112V100.914L21.5553 100.879Z" fill="#A0A0A0" stroke="#252526" stroke-linecap="round" stroke-linejoin="round"/>
<path d="M25.439 100.729V119.052L21.5561 119.323V100.877L25.439 100.729Z" fill="#A0A0A0" stroke="#252526" stroke-linecap="round" stroke-linejoin="round"/>
<path d="M31.4329 124.524H29.967C29.8274 122.421 27.803 117.675 29.5307 113.827C32.0437 108.242 31.0664 102.387 30.5254 100.538L31.9564 100.477C32.2967 102.518 33.1169 109.979 31.2148 113.609C29.0159 117.797 31.4242 124.533 31.4242 124.533L31.4329 124.524Z" fill="#A0A0A0" stroke="#252526" stroke-linecap="round" stroke-linejoin="round"/>
<path d="M35.8734 124.201L31.4408 124.533C31.4408 124.533 29.0325 117.805 31.2314 113.608C33.1336 109.979 32.3134 102.518 31.9731 100.476L36.5017 100.311C36.5104 102.187 36.8594 110.947 35.3848 113.713C33.6397 116.968 35.8734 124.201 35.8734 124.201Z" fill="#A0A0A0" stroke="#252526" stroke-linecap="round" stroke-linejoin="round"/>
<path d="M160.983 95.4766V115.415L157.1 115.72V95.6249L160.983 95.4766Z" fill="#A0A0A0" stroke="#252526" stroke-linecap="round" stroke-linejoin="round"/>
<path d="M172.465 118.504H170.973C170.833 116.357 168.757 111.532 170.528 107.597C172.736 102.702 172.299 97.5974 171.793 95.0582L173.163 95.0059C173.521 97.9115 173.949 104.133 172.247 107.37C170.005 111.637 172.474 118.504 172.474 118.504H172.465Z" fill="#A0A0A0" stroke="#252526" stroke-linecap="round" stroke-linejoin="round"/>
<path d="M176.723 107.44C174.612 110.511 176.723 117.186 176.723 117.186L172.465 118.504C172.465 118.504 170.004 111.637 172.238 107.37C173.94 104.132 173.512 97.9111 173.154 95.0055L177.77 94.8223C178.006 97.8675 178.355 105.057 176.723 107.44Z" fill="#A0A0A0" stroke="#252526" stroke-linecap="round" stroke-linejoin="round"/>
<path d="M157.099 95.627V115.722L156.261 114.352V95.6619L157.099 95.627Z" fill="#A0A0A0" stroke="#252526" stroke-linecap="round" stroke-linejoin="round"/>
<path d="M191.34 133.564L191.331 133.547" stroke="#252526" stroke-linecap="round" stroke-linejoin="round"/>
<path d="M197.657 144.803C197.299 144.995 196.907 145.179 196.523 145.336C195.336 145.824 194.106 146.156 193.242 146.269C192.893 146.313 192.596 146.322 192.395 146.304C191.985 146.252 191.366 146.095 190.633 145.824C189.586 145.44 188.312 144.847 187.108 144.088C185.825 143.285 184.638 142.273 183.905 141.112C182.003 138.12 182.056 135.615 182.256 133.32C182.457 131.017 182.256 128.67 182.003 128.373C181.803 128.129 181.366 127.527 181.009 127.308C180.921 127.256 180.843 127.221 180.764 127.221C180.572 127.221 179.848 126.733 179.525 126.061C179.185 125.371 179.272 124.499 180.764 123.766C180.764 123.766 183.556 122.623 185.511 126.366C187.073 129.359 190.083 132.439 191.34 133.539C190.746 133.338 190.127 133.163 189.481 133.041C180.197 131.235 184.865 139.376 184.865 139.376C187.23 143.268 193.207 144.515 197.666 144.786L197.657 144.803Z" fill="#DFE0E0" stroke="#252526" stroke-linecap="round" stroke-linejoin="round"/>
<path d="M201.156 142.316C203.058 143.189 205.894 144.419 207.002 145.004C208.59 145.842 199.559 146.609 196.514 145.335" fill="#DFE0E0"/>
<path d="M201.156 142.316C203.058 143.189 205.894 144.419 207.002 145.004C208.59 145.842 199.559 146.609 196.514 145.335" stroke="#252526" stroke-linecap="round" stroke-linejoin="round"/>
<path d="M187.108 144.08C187.3 145.118 187.483 146.096 187.893 146.488C188.042 146.628 188.181 146.733 188.304 146.802C188.757 147.108 189.141 147.108 189.63 146.837C189.918 146.68 190.302 146.261 190.625 145.816" fill="#DFE0E0"/>
<path d="M187.108 144.08C187.3 145.118 187.483 146.096 187.893 146.488C188.042 146.628 188.181 146.733 188.304 146.802C188.757 147.108 189.141 147.108 189.63 146.837C189.918 146.68 190.302 146.261 190.625 145.816" stroke="#252526" stroke-linecap="round" stroke-linejoin="round"/>
<path d="M181 127.306C179.621 127.655 177.605 126.879 177.605 126.879C177.832 127.018 178.871 126.443 179.516 126.059C179.848 126.73 180.563 127.219 180.755 127.219C180.834 127.219 180.912 127.254 181 127.306Z" stroke="#252526" stroke-linecap="round" stroke-linejoin="round"/>
<path d="M183.4 150.03L186.585 149.542L188.304 146.811" stroke="#252526" stroke-linecap="round" stroke-linejoin="round"/>
<path d="M188.232 150.019L186.583 149.539" stroke="#252526" stroke-linecap="round" stroke-linejoin="round"/>
<path d="M193.241 146.268C193.486 147.402 193.782 148.903 193.782 148.903L191.95 150.028" stroke="#252526" stroke-linecap="round" stroke-linejoin="round"/>
<path d="M197.657 144.803C193.198 144.524 187.221 143.285 184.856 139.393C184.856 139.393 180.188 131.252 189.472 133.058C190.118 133.189 190.737 133.355 191.331 133.556H191.339C198.73 136.095 201.531 144.018 202.918 144.489C203.485 144.672 200.999 145.012 197.657 144.803Z" fill="#B4B4B4" stroke="#252526" stroke-linecap="round" stroke-linejoin="round"/>
<path d="M44.0492 64.9252C44.0143 65.0561 43.962 65.1869 43.9096 65.3265C42.3216 69.2356 42.8451 68.3805 43.2727 69.0698C43.7002 69.7679 44.1714 73.389 43.7002 74.279C43.3948 74.8549 41.3618 77.3766 38.8575 79.4882C37.5225 80.6225 36.0304 81.6434 34.6081 82.1757H34.5994C34.5383 82.2106 34.4598 82.2281 34.3987 82.2542C30.2453 83.6678 30.0359 90.1684 29.556 90.9711C29.0761 91.7652 26.057 92.4021 25.4724 91.3987C25.1408 90.8402 26.0134 87.3674 26.8511 84.4269C31.2662 82.2717 37.6359 78.5459 37.6359 78.5459C37.6359 78.5459 38.2205 78.1445 38.875 77.4726C40.018 76.2772 41.3705 74.2179 39.9831 72.0104C37.793 68.5463 33.9188 71.0593 33.9188 71.0593C33.0375 71.4607 30.4809 74.4884 28.7183 76.7135C29.5647 74.279 31.624 71.0069 36.5714 68.2845C36.5714 68.2845 38.4823 67.6999 38.6917 65.4749C38.9011 63.2498 39.5556 62.927 40.2972 62.3947C40.8819 61.9672 43.7875 61.6182 44.2063 63.4156C44.2936 63.8083 44.2587 64.3056 44.0492 64.9339V64.9252Z" fill="#DFE0E0" stroke="#252526" stroke-linecap="round" stroke-linejoin="round"/>
<path d="M38.8753 77.4738C38.2209 78.1457 37.6363 78.5471 37.6363 78.5471C37.6363 78.5471 31.2666 82.2729 26.8514 84.4282C24.609 85.5363 22.8638 86.2256 22.6981 85.833C22.2181 84.655 26.4152 80.0392 27.0085 79.027C27.1917 78.7216 27.8462 77.8403 28.6925 76.7583C28.7013 76.7496 28.71 76.7409 28.71 76.7147C30.4726 74.4897 33.0292 71.4619 33.9105 71.0605C33.9105 71.0605 37.7846 68.5563 39.9748 72.0116C41.3621 74.2192 40.0184 76.2784 38.8666 77.4738H38.8753Z" fill="#B4B4B4" stroke="#252526" stroke-linecap="round" stroke-linejoin="round"/>
<path d="M38.8574 79.5068C38.7701 81.0599 38.4996 82.8923 37.7318 83.0057H37.7143C36.8679 83.0843 35.5067 82.7091 34.6167 82.1768C36.039 81.6445 37.5224 80.6237 38.8661 79.498L38.8574 79.5068Z" fill="#DFE0E0" stroke="#252526" stroke-linecap="round" stroke-linejoin="round"/>
<path d="M38.8756 77.4727V77.3418" stroke="#252526" stroke-linecap="round" stroke-linejoin="round"/>
<path d="M37.7321 83.0137L38.6221 84.8897H40.9082" stroke="#252526" stroke-linecap="round" stroke-linejoin="round"/>
<path d="M44.0498 64.9234C44.2592 64.2952 44.2941 63.7978 44.2069 63.4052C44.7566 63.3005 45.4634 63.1958 45.6989 63.2917C46.0829 63.4401 44.966 64.2777 44.0411 64.9234H44.0498Z" stroke="#252526" stroke-linecap="round" stroke-linejoin="round"/>
<path d="M121.132 116.036C121.141 116.377 120.896 116.656 120.565 116.708C120.024 116.796 119.151 116.918 118.104 117.057C114.858 117.467 109.911 117.921 108.131 117.066C107.773 116.9 107.546 116.673 107.485 116.386C107.058 114.492 105.339 94.1701 104.545 84.5981C100.138 84.7115 88.5069 84.6504 85.4268 83.9786C82.6607 85.3136 77.5912 85.8982 75.2876 86.0989C75.1393 98.847 73.717 116.211 73.3331 118.776C73.2894 119.082 73.0887 119.317 72.7746 119.501C70.7328 120.617 63.8396 119.3 61.8763 118.898C61.5709 118.837 61.3528 118.567 61.3441 118.253C61.283 113.497 60.7595 78.1324 60.7595 76.5269C60.7595 75.1133 61.4488 69.4591 66.562 67.6442C66.7103 67.6791 66.8674 67.7053 67.0332 67.7402C71.8584 68.7611 78.01 69.6337 81.7446 69.8867C82.4862 69.9391 83.1319 69.9652 83.6555 69.9652C84.4582 70.227 85.261 70.4713 85.9154 70.5499C88.5331 70.864 91.4038 71.0385 94.388 70.9338C94.7196 71.0996 95.0598 71.1432 95.2169 70.8901H95.2256C96.2378 70.8378 111.97 67.2079 111.996 67.1992C118.017 67.5133 120.94 73.5951 120.774 77.4344C120.713 78.909 121.08 111.325 121.132 116.045V116.036Z" fill="#9C8BDC" stroke="#252526" stroke-linecap="round" stroke-linejoin="round"/>
<path d="M104.545 84.599C104.545 84.599 104.065 80.8033 104.51 80.3496L104.545 84.599Z" fill="#9C8BDC"/>
<path d="M104.545 84.599C104.545 84.599 104.065 80.8033 104.51 80.3496" stroke="#252526" stroke-linecap="round" stroke-linejoin="round"/>
<path d="M75.2963 86.107C75.2963 86.107 76.6226 71.9715 73.1236 70.6016L75.2963 86.107Z" fill="#9C8BDC"/>
<path d="M75.2963 86.107C75.2963 86.107 76.6226 71.9715 73.1236 70.6016" stroke="#252526" stroke-linecap="round" stroke-linejoin="round"/>
<path d="M122.643 134.816C119.424 135.715 117.452 135.593 115.576 135.296C113.708 134.999 108.482 129.72 106.99 127.783C105.855 126.3 107.347 120 108.133 117.077C109.913 117.923 114.86 117.478 118.106 117.068C118.534 121.614 124.188 129.851 126.064 130.392C127.643 130.846 125.863 133.935 122.635 134.825L122.643 134.816Z" fill="#D4D4D4" stroke="#252526" stroke-linecap="round" stroke-linejoin="round"/>
<path d="M74.3293 134.067C73.893 136.615 72.523 136.467 72.174 136.615C71.8337 136.764 64.4344 138.264 61.5811 136.676C58.7366 135.097 61.8778 118.902 61.8778 118.902C63.8411 119.304 70.743 120.621 72.7761 119.504C73.9191 123.265 74.7045 131.877 74.3293 134.067Z" fill="#D4D4D4" stroke="#252526" stroke-linecap="round" stroke-linejoin="round"/>
<path d="M62.4805 130.618C62.4805 130.618 70.3336 127.556 72.1747 131.369" stroke="#252526" stroke-linecap="round" stroke-linejoin="round"/>
<path d="M144.397 149.352C145.143 149.352 145.749 148.942 145.749 148.436C145.749 147.93 145.143 147.52 144.397 147.52C143.65 147.52 143.044 147.93 143.044 148.436C143.044 148.942 143.65 149.352 144.397 149.352Z" fill="#B5A8E4" stroke="#252526" stroke-width="0.5" stroke-linecap="round" stroke-linejoin="round"/>
<path d="M159.029 142.784C159.776 142.784 160.381 142.373 160.381 141.867C160.381 141.361 159.776 140.951 159.029 140.951C158.282 140.951 157.676 141.361 157.676 141.867C157.676 142.373 158.282 142.784 159.029 142.784Z" fill="#B5A8E4" stroke="#252526" stroke-width="0.5" stroke-linecap="round" stroke-linejoin="round"/>
<path d="M155.634 140.95C156.381 140.95 156.987 140.539 156.987 140.033C156.987 139.527 156.381 139.117 155.634 139.117C154.887 139.117 154.282 139.527 154.282 140.033C154.282 140.539 154.887 140.95 155.634 140.95Z" fill="#B5A8E4" stroke="#252526" stroke-width="0.5" stroke-linecap="round" stroke-linejoin="round"/>
<path d="M152.938 144.623C153.685 144.623 154.291 144.213 154.291 143.707C154.291 143.201 153.685 142.791 152.938 142.791C152.191 142.791 151.586 143.201 151.586 143.707C151.586 144.213 152.191 144.623 152.938 144.623Z" fill="#B5A8E4" stroke="#252526" stroke-width="0.5" stroke-linecap="round" stroke-linejoin="round"/>
<path d="M163.261 145.871C164.007 145.871 164.613 145.461 164.613 144.955C164.613 144.449 164.007 144.039 163.261 144.039C162.514 144.039 161.908 144.449 161.908 144.955C161.908 145.461 162.514 145.871 163.261 145.871Z" fill="#B5A8E4" stroke="#252526" stroke-width="0.5" stroke-linecap="round" stroke-linejoin="round"/>
<path d="M157.676 151C158.423 151 159.028 150.59 159.028 150.084C159.028 149.578 158.423 149.168 157.676 149.168C156.929 149.168 156.323 149.578 156.323 150.084C156.323 150.59 156.929 151 157.676 151Z" fill="#B5A8E4" stroke="#252526" stroke-width="0.5" stroke-linecap="round" stroke-linejoin="round"/>
<path d="M162.284 149.746C163.031 149.746 163.636 149.336 163.636 148.83C163.636 148.324 163.031 147.914 162.284 147.914C161.537 147.914 160.932 148.324 160.932 148.83C160.932 149.336 161.537 149.746 162.284 149.746Z" fill="#B5A8E4" stroke="#252526" stroke-width="0.5" stroke-linecap="round" stroke-linejoin="round"/>
<path d="M159.029 140.575C159.776 140.575 160.381 140.164 160.381 139.658C160.381 139.152 159.776 138.742 159.029 138.742C158.282 138.742 157.676 139.152 157.676 139.658C157.676 140.164 158.282 140.575 159.029 140.575Z" fill="#B5A8E4" stroke="#252526" stroke-width="0.5" stroke-linecap="round" stroke-linejoin="round"/>
<path d="M121.212 147.108C121.959 147.108 122.565 146.698 122.565 146.192C122.565 145.686 121.959 145.275 121.212 145.275C120.465 145.275 119.86 145.686 119.86 146.192C119.86 146.698 120.465 147.108 121.212 147.108Z" fill="#B5A8E4" stroke="#252526" stroke-width="0.5" stroke-linecap="round" stroke-linejoin="round"/>
<path d="M84.6505 70.6792C84.6418 70.592 84.633 70.4873 84.633 70.3477L84.6505 70.6792Z" fill="#F4F4F4"/>
<path d="M84.6505 70.6792C84.6418 70.592 84.633 70.4873 84.633 70.3477" stroke="#252526" stroke-linecap="round" stroke-linejoin="round"/>
<path d="M119.728 59.2847C119.509 60.4888 113.759 65.7853 111.979 67.2599C111.857 67.0069 111.665 66.5793 111.517 66.2477C111.517 66.2216 111.491 66.1867 111.482 66.1518C110.679 64.5113 108.855 61.6232 106.063 62.0856C105.863 62.1205 105.653 62.1729 105.435 62.2514C105.025 62.7226 104.693 63.2025 104.624 63.5777C104.414 64.7033 104.117 65.157 103.664 65.5671C103.219 65.9947 102.686 66.3961 102.547 67.1988C102.451 67.8009 102.931 68.1936 103.742 68.0539C103.707 68.307 102.172 68.1935 101.465 68.0801C100.767 67.958 99.5277 68.8916 99.6761 69.293C99.6935 69.3366 99.7372 69.4064 99.807 69.4849L99.8419 69.5198C100.016 69.6856 100.287 69.93 100.627 70.1917C98.8733 70.6804 97.0235 70.8985 95.1388 70.9159C95.1562 70.9072 95.1649 70.8985 95.1649 70.8898C95.2609 70.7502 95.3482 70.5844 95.3482 70.436V70.3924C95.7234 70.4535 96.1858 70.5407 96.3516 70.5844C96.6483 70.6454 96.7966 70.5058 96.9275 70.2092C96.9799 70.1219 97.0235 70.0172 97.0671 69.895C97.6168 69.7118 98.3498 69.3628 98.5941 69.0312C98.7512 68.8218 98.8297 68.6473 98.8559 68.4466C99.3271 68.5251 100.06 68.4117 100.496 67.4431C101.29 65.6457 98.0967 60.7419 96.1946 60.5412C94.3011 60.3405 93.9957 60.7855 91.7009 61.6319C90.2524 62.1642 86.9192 63.2548 85.1043 63.9005C84.6767 65.2879 84.5808 67.7136 84.6069 69.3104C84.6069 69.5547 84.6069 69.7816 84.6069 69.9736C84.6157 70.1132 84.6157 70.2441 84.6244 70.3488C80.8288 69.9736 62.2955 66.7887 60.5242 65.8027C58.7093 64.7993 57.9851 62.9844 57.7495 60.8553C57.6622 60.0089 57.6448 59.1276 57.6884 58.2289C57.6884 57.8537 57.7146 57.461 57.732 57.0771C57.7931 55.9166 57.8978 54.7387 57.9764 53.5956C58.02 52.8975 58.1683 52.0163 58.3865 51.0303C59.643 45.4808 63.4124 36.2142 66.9638 31.5634C70.1573 27.4013 80.6891 23.4835 85.2788 21.9303C85.3224 21.9129 85.3661 21.9042 85.4097 21.8867C85.4097 21.9303 85.4097 22.0089 85.4097 22.131C85.3748 23.3526 85.305 24.8971 85.4359 26.1797V26.2146C85.6104 32.6454 86.9716 35.9873 92.556 36.3363C96.561 36.5807 97.39 28.9632 98.5069 26.808C98.5592 26.7992 98.6116 26.7992 98.6639 26.7992C103.088 26.6596 111.831 34.2247 112.154 35.7692C112.677 38.2385 119.946 58.0108 119.728 59.2847Z" fill="#F4F4F4" stroke="#252526" stroke-linecap="round" stroke-linejoin="round"/>
<path d="M98.664 26.7989C98.6117 26.7989 98.5593 26.7989 98.507 26.8077C97.3901 28.9629 96.5612 36.5803 92.5561 36.336C86.9717 35.987 85.6105 32.6451 85.436 26.2143V26.1794C85.3051 24.8967 85.3749 23.3523 85.4098 22.1307C85.4098 22.0086 85.4098 21.93 85.4098 21.8864C85.3662 21.9039 85.3226 21.9126 85.2789 21.93L86.7536 20.6037C86.7536 20.6037 92.5561 17.5672 95.7497 21.3018C97.7217 23.5966 98.411 25.6035 98.6553 26.7989H98.664Z" fill="#F4F4F4" stroke="#252526" stroke-linecap="round" stroke-linejoin="round"/>
<path d="M85.0606 70.3826C84.9559 70.3826 84.8075 70.3738 84.633 70.3477L85.0606 70.3826Z" fill="#F4F4F4"/>
<path d="M85.0606 70.3826C84.9559 70.3826 84.8075 70.3738 84.633 70.3477" stroke="#252526" stroke-linecap="round" stroke-linejoin="round"/>
<path d="M94.9389 71.1699C94.9389 71.1699 94.9214 71.1874 94.9214 71.2048L94.9389 71.1699Z" fill="#F4F4F4"/>
<path d="M94.9389 71.1699C94.9389 71.1699 94.9214 71.1874 94.9214 71.2048" stroke="#252526" stroke-linecap="round" stroke-linejoin="round"/>
<path d="M100.487 67.444C100.05 68.4212 99.3175 68.5259 98.8551 68.4561C98.8202 68.6568 98.7503 68.8313 98.5933 69.0408C98.349 69.3723 97.616 69.7214 97.0663 69.9046C97.0227 70.0355 96.979 70.1402 96.9267 70.2187C96.7958 70.5154 96.6475 70.655 96.3508 70.5939C96.185 70.5503 95.7226 70.463 95.3386 70.402V70.4456C95.3386 70.5939 95.2514 70.7597 95.1554 70.8906H95.1467C95.1467 70.8906 95.1379 70.9255 95.1292 70.9342C95.0594 71.0389 94.9809 71.1262 94.9373 71.1785C94.8064 71.1785 94.6057 71.0825 94.4312 70.9517C94.4224 70.9429 94.4137 70.9429 94.3963 70.9342H94.3875C94.1519 70.7684 93.9425 70.5765 93.8553 70.463C93.3492 69.861 91.7524 68.587 90.8537 68.491C89.9549 68.3951 88.2011 69.7475 86.6828 69.9744C86.2378 70.0355 85.3129 69.6777 84.6061 69.32C84.5887 67.7319 84.6759 65.2975 85.1035 63.9188C86.9184 63.2731 90.2516 62.1737 91.7088 61.6502C94.0036 60.8038 94.309 60.3588 96.2025 60.5595C98.1047 60.7602 101.298 65.6639 100.504 67.4614L100.487 67.444Z" fill="#F4F4F4" stroke="#252526" stroke-linecap="round" stroke-linejoin="round"/>
<path d="M94.9472 71.1699H94.9385H94.9472Z" fill="#F4F4F4"/>
<path d="M94.9472 71.1699H94.9385" stroke="#252526" stroke-linecap="round" stroke-linejoin="round"/>
<path d="M94.6505 64.2949C94.6505 64.2949 96.4479 65.438 96.7446 66.7904C97.0413 68.1429 97.3903 69.0417 97.146 69.6874C97.1111 69.7659 97.0936 69.8357 97.0587 69.8968" fill="#F4F4F4"/>
<path d="M94.6505 64.2949C94.6505 64.2949 96.4479 65.438 96.7446 66.7904C97.0413 68.1429 97.3903 69.0417 97.146 69.6874C97.1111 69.7659 97.0936 69.8357 97.0587 69.8968" stroke="#252526" stroke-linecap="round" stroke-linejoin="round"/>
<path d="M96.6921 62.791C96.6921 62.791 98.35 64.4402 98.5943 66.2813C98.7601 67.5028 98.8997 68.0438 98.8561 68.4452" fill="#F4F4F4"/>
<path d="M96.6921 62.791C96.6921 62.791 98.35 64.4402 98.5943 66.2813C98.7601 67.5028 98.8997 68.0438 98.8561 68.4452" stroke="#252526" stroke-linecap="round" stroke-linejoin="round"/>
<path d="M111.43 66.2578C111.299 66.537 111.133 66.8599 110.95 67.1915L111.43 66.2578Z" fill="#F4F4F4"/>
<path d="M111.43 66.2578C111.299 66.537 111.133 66.8599 110.95 67.1915" stroke="#252526" stroke-linecap="round" stroke-linejoin="round"/>
<path d="M95.2175 70.8809H95.1651" stroke="#252526" stroke-linecap="round" stroke-linejoin="round"/>
<path d="M111.474 66.1603C111.474 66.1603 111.439 66.2213 111.43 66.2562H111.421C111.421 66.2562 111.386 66.3086 111.378 66.326C110.706 67.5825 109.798 69.0397 108.961 69.6592C107.346 70.8459 106.849 71.5876 104.903 71.8843C103.586 72.0937 101.727 71.0204 100.619 70.1828C100.279 69.9297 100.008 69.6854 99.8336 69.5109L99.7987 69.476C99.7289 69.3887 99.6852 69.3277 99.6591 69.284C99.5107 68.8827 100.75 67.949 101.457 68.0624C102.155 68.1759 103.699 68.298 103.725 68.045C102.922 68.1846 102.443 67.7919 102.539 67.1812C102.678 66.3871 103.21 65.9857 103.655 65.5582C104.109 65.1481 104.406 64.6856 104.615 63.56C104.685 63.1848 105.017 62.7136 105.435 62.2337C105.645 62.1552 105.863 62.1028 106.064 62.0767H106.072C108.865 61.6055 110.688 64.4937 111.482 66.1428L111.474 66.1603Z" fill="#F4F4F4" stroke="#252526" stroke-linecap="round" stroke-linejoin="round"/>
<path d="M111.517 66.2559H111.43H111.517Z" fill="#F4F4F4"/>
<path d="M111.517 66.2559H111.43" stroke="#252526" stroke-linecap="round" stroke-linejoin="round"/>
<path d="M107.198 64.5195C107.198 64.5195 105.243 67.94 103.725 68.0534L107.198 64.5195Z" fill="#F4F4F4"/>
<path d="M107.198 64.5195C107.198 64.5195 105.243 67.94 103.725 68.0534" stroke="#252526" stroke-linecap="round" stroke-linejoin="round"/>
<path d="M85.5226 69.7832H85.5401H85.5226Z" fill="#F4F4F4"/>
<path d="M85.5226 69.7832H85.5401" stroke="#252526" stroke-linecap="round" stroke-linejoin="round"/>
<path d="M94.4325 70.941C91.588 71.133 86.9372 70.8363 84.6162 69.9725C84.6075 69.7805 84.6075 69.5449 84.6075 69.3006C85.3143 69.6584 86.2392 70.0249 86.6842 69.955C88.2024 69.7195 89.9563 68.3757 90.855 68.4717C91.7538 68.5677 93.3505 69.8416 93.8566 70.4437C93.9439 70.5484 94.1533 70.7404 94.3889 70.9149H94.3976C94.3976 70.9149 94.4151 70.9236 94.4325 70.9323V70.941Z" fill="#F4F4F4" stroke="#252526" stroke-linecap="round" stroke-linejoin="round"/>
<path d="M95.2175 70.8809H95.1651" stroke="#252526" stroke-linecap="round" stroke-linejoin="round"/>
<path d="M95.1481 70.8983C95.1481 70.8983 95.1917 70.8983 95.2092 70.8896C95.2528 70.8896 95.2964 70.8809 95.34 70.8809" fill="#F4F4F4"/>
<path d="M95.1481 70.8983C95.1481 70.8983 95.1917 70.8983 95.2092 70.8896C95.2528 70.8896 95.2964 70.8809 95.34 70.8809" stroke="#252526" stroke-linecap="round" stroke-linejoin="round"/>
<path d="M70.2528 55.9419C73.0974 52.251 78.6818 37.5483 78.7428 37.3477L70.2528 55.9419Z" fill="#F4F4F4"/>
<path d="M70.2528 55.9419C73.0974 52.251 78.6818 37.5483 78.7428 37.3477" stroke="#252526" stroke-linecap="round" stroke-linejoin="round"/>
<path d="M113.575 53.8301C112.258 53.865 110.094 55.9591 108.192 58.0969C106.185 60.3568 104.509 62.6691 104.509 62.6691C104.823 62.4859 105.129 62.355 105.426 62.259" fill="#F4F4F4"/>
<path d="M113.575 53.8301C112.258 53.865 110.094 55.9591 108.192 58.0969C106.185 60.3568 104.509 62.6691 104.509 62.6691C104.823 62.4859 105.129 62.355 105.426 62.259" stroke="#252526" stroke-linecap="round" stroke-linejoin="round"/>
<path d="M85.1045 63.9084C85.2528 63.4197 85.4448 63.062 85.6891 62.9137C85.6891 62.713 74.4418 57.4252 70.2535 55.9419C69.5031 55.6627 68.9185 55.5056 68.552 55.4707" fill="#F4F4F4"/>
<path d="M85.1045 63.9084C85.2528 63.4197 85.4448 63.062 85.6891 62.9137C85.6891 62.713 74.4418 57.4252 70.2535 55.9419C69.5031 55.6627 68.9185 55.5056 68.552 55.4707" stroke="#252526" stroke-linecap="round" stroke-linejoin="round"/>
<path d="M108.192 58.1006C107.215 55.4567 104.134 48.293 104.134 48.293L108.192 58.1006Z" fill="#F4F4F4"/>
<path d="M108.192 58.1006C107.215 55.4567 104.134 48.293 104.134 48.293" stroke="#252526" stroke-linecap="round" stroke-linejoin="round"/>
<path d="M92.5474 66.293C93.8214 66.546 95.3484 69.3208 95.3396 70.4027L92.5474 66.293Z" fill="#F4F4F4"/>
<path d="M92.5474 66.293C93.8214 66.546 95.3484 69.3208 95.3396 70.4027" stroke="#252526" stroke-linecap="round" stroke-linejoin="round"/>
<path d="M104.152 14.4263C104.152 14.8975 104.169 15.3949 104.187 15.8922C104.23 17.9515 104.23 20.0456 103.637 20.3249C103.55 20.3598 103.445 20.4732 103.332 20.6302C103.314 20.6564 103.288 20.6826 103.279 20.7088C102.381 21.9653 100.854 25.8482 100.871 26.1623C100.888 26.5026 98.3667 31.005 94.0214 31.5634C93.9254 31.5809 93.8207 31.5983 93.7247 31.5983C93.4106 31.6245 93.0877 31.6332 92.7562 31.6158C87.6429 31.3715 85.2434 20.1678 85.2434 20.1678C83.9258 20.6215 83.3674 19.4523 83.1144 17.8468V17.8119C82.9573 15.8661 82.9049 14.3565 82.8788 13.7632C82.8788 13.6498 82.8788 13.5625 82.8788 13.5189V13.484C82.9049 11.7912 83.6117 11.5731 84.4843 11.7388C84.8857 11.8174 85.3045 11.9744 85.7146 12.1053C87.0845 12.5503 86.8402 13.3967 86.8925 14.374C86.9449 15.3513 87.8175 17.6199 88.4893 17.585C88.8035 17.5676 89.1612 16.4332 89.4928 15.1069C89.8767 13.5887 90.2345 11.861 90.4788 11.2502C90.9412 10.0984 93.3233 9.81921 94.3442 10.526C95.3564 11.224 100.304 12.4631 101.7 12.0006C103.096 11.5556 104.099 12.0355 104.161 14.4176L104.152 14.4263Z" fill="#F4F4F4" stroke="#252526" stroke-linecap="round" stroke-linejoin="round"/>
<path d="M83.1144 17.8124C82.9224 16.5384 82.9137 14.9853 82.8788 13.7637C82.9137 14.357 82.9573 15.8665 83.1144 17.8124Z" fill="#F4F4F4" stroke="#252526" stroke-linecap="round" stroke-linejoin="round"/>
<path d="M107.031 13.6763C106.499 15.0637 105.129 15.6483 104.187 15.8926C104.169 15.3952 104.152 14.8979 104.152 14.4267C104.099 12.0359 103.096 11.556 101.691 12.0097C100.295 12.4634 95.3476 11.2331 94.3355 10.5351C93.3233 9.83701 90.9325 10.1075 90.47 11.2593C90.2257 11.8701 89.868 13.5978 89.484 15.1073C89.1525 16.4423 88.7947 17.5766 88.4806 17.5941C87.8087 17.629 86.9361 15.3516 86.8838 14.3831C86.8314 13.4145 87.0845 12.5681 85.7058 12.1144C85.2957 11.9748 84.8682 11.8177 84.4755 11.7479C83.9171 11.4949 84.6937 4.82851 90.7143 1.72219C96.0108 -1.01765 106.647 4.85469 106.141 5.78833C105.653 6.70452 103.716 6.35549 104.265 6.84413C104.815 7.35021 107.895 11.4513 107.031 13.6763Z" fill="#C4C4C5" stroke="#252526" stroke-linecap="round" stroke-linejoin="round"/>
<path d="M84.4929 11.7548C84.4929 11.7548 84.4841 11.7548 84.4841 11.7461L84.4929 11.7548Z" fill="#F4F4F4"/>
<path d="M84.4929 11.7548C84.4929 11.7548 84.4841 11.7548 84.4841 11.7461" stroke="#252526" stroke-linecap="round" stroke-linejoin="round"/>
</svg>
