<svg width="255" height="150" viewBox="0 0 255 150" fill="none" xmlns="http://www.w3.org/2000/svg">
<g clip-path="url(#clip0_2097_50106)">
<path d="M184.127 116.119L170.201 116.015C169.733 116.011 169.362 115.634 169.365 115.167L169.369 114.647C169.373 114.179 169.75 113.808 170.217 113.811L184.143 113.916L184.127 116.119Z" fill="#ECEDEB" stroke="#252526" stroke-linejoin="round"/>
<path d="M183.247 116.379H192.497C192.669 116.379 192.809 116.239 192.809 116.067V113.76C192.809 113.588 192.669 113.448 192.497 113.448H183.247C183.075 113.448 182.935 113.588 182.935 113.76V116.067C182.935 116.239 183.075 116.379 183.247 116.379Z" fill="#A0A0A0" stroke="#252526" stroke-linejoin="round"/>
<path d="M102.64 71.4819C82.6543 71.4819 66.4414 87.6844 66.4414 107.68C66.4414 127.676 82.6439 143.879 102.64 143.879C122.636 143.879 138.838 127.676 138.838 107.68C138.838 87.6844 122.636 71.4819 102.64 71.4819ZM102.64 137.705C86.0527 137.705 72.6148 124.257 72.6148 107.68C72.6148 91.1036 86.0631 77.6553 102.64 77.6553C119.216 77.6553 132.665 91.1036 132.665 107.68C132.665 124.257 119.216 137.705 102.64 137.705Z" fill="#383838" stroke="#252526" stroke-linejoin="round"/>
<path d="M217.616 71.4819C197.631 71.4819 181.418 87.6844 181.418 107.68C181.418 127.676 197.62 143.879 217.616 143.879C237.612 143.879 253.815 127.676 253.815 107.68C253.815 87.6844 237.612 71.4819 217.616 71.4819ZM217.616 137.705C201.029 137.705 187.591 124.257 187.591 107.68C187.591 91.1036 201.04 77.6553 217.616 77.6553C234.193 77.6553 247.641 91.1036 247.641 107.68C247.641 124.257 234.193 137.705 217.616 137.705Z" fill="#383838" stroke="#252526" stroke-linejoin="round"/>
<path d="M188.869 41.5294C191.488 41.5294 196.331 41.5294 198.753 41.1449C201.174 40.7603 204.427 40.4486 204.75 41.1449C205.072 41.8412 205.196 42.3608 203.284 43.9509C201.372 45.5411 199.46 46.3101 198.628 46.9441C197.797 47.578 192.704 48.1704 189.42 46.8609C186.136 45.5411 183.205 43.6288 182.176 43.5664C181.147 43.5041 178.352 44.2316 177.396 44.19C176.439 44.1484 176.18 42.9948 177.396 42.2881C178.612 41.5814 186.645 41.5294 188.869 41.519V41.5294Z" fill="#9C8BDC" stroke="#252526" stroke-linejoin="round"/>
<path d="M175.202 112.232C175.202 112.232 212.398 107.857 213.635 107.67C214.872 107.483 215.599 108.241 215.703 108.792C215.807 109.343 215.495 110.07 214.258 110.476C213.022 110.891 175.826 116.472 175.826 116.472L175.202 112.232Z" fill="#ECEDEB" stroke="#252526" stroke-linejoin="round"/>
<path d="M130.867 49.0644C130.867 49.0644 132.696 44.1071 132.904 43.4211C133.112 42.7352 132.862 42.5897 131.885 42.1844C130.908 41.7791 126.367 40.2513 125.4 39.846C124.434 39.4303 122.095 38.6092 121.409 38.5365C120.723 38.4637 119.965 38.4637 118.863 38.5365C117.761 38.6092 116.13 38.7443 116.639 40.1162C117.138 41.4985 117.294 42.1532 117.917 41.9246C119.05 41.5192 120.91 41.4569 121.95 41.8102C122.771 42.0908 126.232 43.4315 126.99 43.7641C127.749 44.1071 127.884 44.1694 127.614 44.793C127.344 45.4166 126.502 47.7861 126.502 47.7861L130.877 49.0541L130.867 49.0644Z" fill="#7A7A79" stroke="#252526" stroke-linejoin="round"/>
<path d="M170.557 125.442C176.372 125.442 181.085 120.728 181.085 114.914C181.085 109.099 176.372 104.386 170.557 104.386C164.743 104.386 160.029 109.099 160.029 114.914C160.029 120.728 164.743 125.442 170.557 125.442Z" fill="#ECEDEB" stroke="#252526" stroke-linejoin="round"/>
<path d="M218.271 106.755C217.814 106.225 190.252 76.5328 185.585 71.5026C189.15 59.4677 192.372 48.628 192.372 48.628C192.684 47.5991 192.798 47.5991 191.8 47.4848C191.052 47.4016 189.992 47.0794 189.213 46.7988C188.901 47.8277 184.39 62.7622 184.182 63.3858C183.975 64.0094 184.078 64.6226 182.946 64.2172C181.813 63.8015 131.459 51.0911 130.638 50.6858C130.638 50.6858 130.753 49.979 130.867 49.0957C130.867 49.0229 125.951 47.6822 125.608 47.5887C125.213 47.4848 124.081 51.3301 123.405 53.1696C121.607 58.0543 119.664 63.3546 117.71 68.1873C115.454 73.7891 113.189 79.4012 110.934 85.0029C109.032 89.7005 107.14 94.4085 105.238 99.106C104.386 101.216 103.596 103.378 102.65 105.456C101.798 107.316 101.279 108.449 101.954 108.813C102.484 109.094 103.087 109.447 104.022 107.711C104.947 105.976 123.862 69.6007 124.268 68.8836C124.683 68.1561 125.504 68.0522 126.232 68.8836C126.959 69.7151 155.571 111.453 156.402 112.897C157.234 114.342 160.975 119.32 160.975 119.32C160.975 119.32 159.364 115.994 160.32 112.482C161.287 108.969 163.147 107.483 163.147 107.483C163.147 107.483 134.39 65.1734 133.153 63.3131C131.917 61.4527 129.537 58.7714 129.433 57.3164C129.329 55.8718 130.753 55.0404 132.675 55.4561C134.598 55.8718 180.576 66.3062 181.605 66.7219C182.634 67.1376 182.946 67.2416 182.634 68.3744C182.322 69.5072 176.128 88.7236 175.92 89.3472C175.816 89.6485 175.816 89.7836 175.733 89.9188L171.025 104.448C171.545 104.479 172.023 104.542 172.48 104.604C173.893 104.812 175.484 105.654 175.484 105.654C175.484 105.654 179.215 93.0574 184.463 75.3376C189.296 80.2742 214.82 106.391 216.099 107.711C217.512 109.177 217.949 108.865 218.281 108.647C218.604 108.428 219.269 107.94 218.281 106.797L218.271 106.755Z" fill="#ECEDEB" stroke="#252526" stroke-linejoin="round"/>
<path d="M102.64 115.776C107.117 115.776 110.746 112.147 110.746 107.67C110.746 103.193 107.117 99.5635 102.64 99.5635C98.1626 99.5635 94.5332 103.193 94.5332 107.67C94.5332 112.147 98.1626 115.776 102.64 115.776Z" fill="#ECEDEB" stroke="#252526" stroke-linejoin="round"/>
<path d="M217.616 115.776C222.093 115.776 225.723 112.147 225.723 107.67C225.723 103.193 222.093 99.5635 217.616 99.5635C213.139 99.5635 209.51 103.193 209.51 107.67C209.51 112.147 213.139 115.776 217.616 115.776Z" fill="#ECEDEB" stroke="#252526" stroke-linejoin="round"/>
<path d="M156.981 113.909L170.907 113.805C171.375 113.801 171.752 114.172 171.756 114.64L171.759 115.16C171.763 115.627 171.392 116.004 170.924 116.008L156.998 116.112L156.981 113.909Z" fill="#ECEDEB" stroke="#252526" stroke-linejoin="round"/>
<path d="M157.867 113.448H148.617C148.445 113.448 148.306 113.588 148.306 113.76V116.067C148.306 116.239 148.445 116.379 148.617 116.379H157.867C158.039 116.379 158.179 116.239 158.179 116.067V113.76C158.179 113.588 158.039 113.448 157.867 113.448Z" fill="#A0A0A0" stroke="#252526" stroke-linejoin="round"/>
<path d="M105.061 113.251H102.411C101.735 103.793 93.8577 96.3314 84.2339 96.3314C81.1576 96.3314 78.258 97.1004 75.7118 98.4515C70.8583 89.8878 61.6606 84.1094 51.1119 84.1094C35.5018 84.1094 22.8434 96.7679 22.8434 112.378V113.251H21.1597C11.0163 113.251 2.78516 121.482 2.78516 131.625C2.78516 141.769 11.0163 150 21.1597 150H105.061C115.205 150 123.436 141.769 123.436 131.625C123.436 121.482 115.205 113.251 105.061 113.251Z" fill="#6A51CA"/>
<path d="M237.663 37.4245C237.882 32.3528 241.051 28.3204 244.949 28.3204V28.2892C241.062 28.2892 237.882 24.2568 237.663 19.1851C237.445 24.2464 234.286 28.2684 230.409 28.2892V28.3204C234.286 28.3412 237.456 32.3528 237.663 37.4245Z" fill="#FAFAFA" stroke="#252526" stroke-linecap="round" stroke-linejoin="round"/>
<path d="M5.59124 79.5675C5.73674 76.0236 7.96081 73.2175 10.6733 73.2175V73.1967C7.96081 73.1967 5.73674 70.3802 5.59124 66.8467C5.44574 70.3802 3.23206 73.1863 0.519531 73.1967V73.2175C3.23206 73.2279 5.43535 76.034 5.59124 79.5675Z" fill="#FAFAFA" stroke="#252526" stroke-linecap="round" stroke-linejoin="round"/>
<path d="M221.836 47.5992C221.96 44.6477 223.81 42.3093 226.066 42.3093V42.2885C223.81 42.2885 221.96 39.9501 221.836 36.9985C221.711 39.9397 219.871 42.2781 217.616 42.2885V42.3093C219.871 42.3093 221.711 44.6581 221.836 47.5992Z" fill="#FAFAFA" stroke="#252526" stroke-linecap="round" stroke-linejoin="round"/>
<path d="M22.5106 91.9248C22.7288 86.8011 25.9298 82.7375 29.8583 82.7375V82.7063C25.9298 82.7063 22.7288 78.6427 22.5106 73.519C22.2923 78.6323 19.1017 82.6855 15.1836 82.7063V82.7375C19.1017 82.7583 22.2923 86.8115 22.5106 91.9248Z" fill="#FAFAFA" stroke="#252526" stroke-linecap="round" stroke-linejoin="round"/>
<path d="M50.4048 50.5611C49.802 48.4929 49.4902 46.3624 49.4902 44.211C49.4902 31.802 59.696 21.5962 72.1051 21.5962C78.0186 21.5962 83.7035 23.9138 87.923 28.0501" stroke="#B5A8E4" stroke-width="4" stroke-linecap="round" stroke-linejoin="round"/>
<path d="M92.2986 29.9415L91.2904 23.8617C90.9891 22.0637 88.7442 21.4089 87.5282 22.7704L82.3838 28.5384C81.1678 29.8999 82.072 32.0616 83.8907 32.1552L90.0537 32.4773C91.436 32.5501 92.5376 31.3237 92.309 29.9519L92.2986 29.9415Z" fill="#B5A8E4"/>
<path d="M93.3891 37.3623C94.075 39.3993 94.4595 41.5298 94.5427 43.6708C95.0207 56.0694 85.2203 66.6701 72.8216 67.1482C66.9081 67.3769 61.14 65.2775 56.7646 61.3074" stroke="#B5A8E4" stroke-width="4" stroke-linecap="round" stroke-linejoin="round"/>
<path d="M52.3272 59.582L53.5744 65.6202C53.9485 67.4078 56.2142 67.969 57.3782 66.566L62.294 60.6005C63.458 59.1975 62.4706 57.0669 60.6415 57.0461L54.4785 56.9734C53.0859 56.9526 52.0466 58.2309 52.3272 59.582Z" fill="#B5A8E4"/>
</g>
<defs>
<clipPath id="clip0_2097_50106">
<rect width="254.334" height="150" fill="white"/>
</clipPath>
</defs>
</svg>
