<svg width="288" height="227" viewBox="0 0 288 227" fill="none" xmlns="http://www.w3.org/2000/svg">
<g clip-path="url(#clip0_4330_4842)">
<path d="M2.55999 55.3696C3.03999 55.3696 27.93 57.1096 27.93 57.1096C27.93 57.1096 24.62 62.5296 24.62 69.0296C24.62 75.5296 27.29 78.9996 27.29 78.9996L0.48999 81.0596" fill="#9C8BDC"/>
<path d="M2.55999 55.3696C3.03999 55.3696 27.93 57.1096 27.93 57.1096C27.93 57.1096 24.62 62.5296 24.62 69.0296C24.62 75.5296 27.29 78.9996 27.29 78.9996L0.48999 81.0596" stroke="#252526" stroke-linecap="round" stroke-linejoin="round"/>
<path d="M60.1899 77.8896C60.1899 77.8896 64.0999 82.4896 65.3599 85.4996C66.6199 88.5096 68.8499 94.0996 70.7499 94.5596C72.6499 95.0196 73.9199 91.8496 73.2899 88.3596C72.6599 84.8696 69.1499 78.9797 69.1499 78.9797" fill="#ECEDEB"/>
<path d="M60.1899 77.8896C60.1899 77.8896 64.0999 82.4896 65.3599 85.4996C66.6199 88.5096 68.8499 94.0996 70.7499 94.5596C72.6499 95.0196 73.9199 91.8496 73.2899 88.3596C72.6599 84.8696 69.1499 78.9797 69.1499 78.9797" stroke="#252526" stroke-linejoin="round"/>
<path d="M81.83 82.0697C81.83 82.0697 77.11 78.9797 69.16 78.9697C69.16 78.9697 72.1 84.1297 72.7 86.2397C73.3 88.3497 74.78 93.2697 74.78 93.2697L81.84 82.0597" fill="#ECEDEB"/>
<path d="M81.83 82.0697C81.83 82.0697 77.11 78.9797 69.16 78.9697C69.16 78.9697 72.1 84.1297 72.7 86.2397C73.3 88.3497 74.78 93.2697 74.78 93.2697L81.84 82.0597" stroke="#252526" stroke-linejoin="round"/>
<path d="M95.97 51.4098C107.66 42.8798 121.98 38.0898 161.31 38.0898C200.64 38.0898 216.5 47.9198 225.38 61.2398C234.26 74.5598 239.97 85.9798 239.34 114.53C238.71 143.08 227.29 158.94 212.38 166.55C212.38 166.55 210.16 180.82 218.41 189.07C218.41 189.07 200.33 183.04 194.94 170.99C194.94 170.99 158.78 173.53 133.41 170.04C108.04 166.55 83.61 158.3 75.68 118.02C67.75 77.7398 93.29 53.3798 95.98 51.4098H95.97Z" fill="#E6E2F6" stroke="#252526" stroke-linecap="round" stroke-linejoin="round"/>
<path d="M26.8799 59.4801C26.8799 59.4801 37.2999 60.2901 43.6399 59.3401C49.9799 58.3901 68.6999 54.2701 72.4999 54.5801C76.2999 54.8901 83.5399 67.1901 83.5399 67.1901L80.3899 73.5001C80.3899 73.5001 74.0899 67.2701 72.1799 67.2701H68.6899C68.6899 67.2701 83.0699 74.7801 85.1799 76.2601C87.2899 77.7401 90.5799 80.5201 89.6199 83.2401C89.0599 84.8301 81.0199 82.0801 77.5999 80.6501C74.1799 79.2201 59.7999 77.9501 55.3599 77.3201C50.9199 76.6901 44.1499 74.9901 40.9799 75.4201C37.8099 75.8501 26.1799 77.3201 26.1799 77.3201" fill="#ECEDEB"/>
<path d="M26.8799 59.4801C26.8799 59.4801 37.2999 60.2901 43.6399 59.3401C49.9799 58.3901 68.6999 54.2701 72.4999 54.5801C76.2999 54.8901 83.5399 67.1901 83.5399 67.1901L80.3899 73.5001C80.3899 73.5001 74.0899 67.2701 72.1799 67.2701H68.6899C68.6899 67.2701 83.0699 74.7801 85.1799 76.2601C87.2899 77.7401 90.5799 80.5201 89.6199 83.2401C89.0599 84.8301 81.0199 82.0801 77.5999 80.6501C74.1799 79.2201 59.7999 77.9501 55.3599 77.3201C50.9199 76.6901 44.1499 74.9901 40.9799 75.4201C37.8099 75.8501 26.1799 77.3201 26.1799 77.3201" stroke="#252526" stroke-linecap="round" stroke-linejoin="round"/>
<path d="M178.76 212.32C178.76 212.32 178.87 204.39 179.18 200.8C179.49 197.21 184.04 179.87 184.15 176.8C184.26 173.73 176.33 163.69 173.05 159.14C169.77 154.59 164.17 154.38 162.05 155.65C159.93 156.92 154.01 160.72 153.49 162.73C152.97 164.74 155.71 168.54 155.71 168.54L161.6 189.36C161.6 189.36 161.28 196.06 161.29 201.09C161.29 204.67 161.6 211.84 161.6 211.84" fill="#ECEDEB"/>
<path d="M178.76 212.32C178.76 212.32 178.87 204.39 179.18 200.8C179.49 197.21 184.04 179.87 184.15 176.8C184.26 173.73 176.33 163.69 173.05 159.14C169.77 154.59 164.17 154.38 162.05 155.65C159.93 156.92 154.01 160.72 153.49 162.73C152.97 164.74 155.71 168.54 155.71 168.54L161.6 189.36C161.6 189.36 161.28 196.06 161.29 201.09C161.29 204.67 161.6 211.84 161.6 211.84" stroke="#252526" stroke-linecap="round" stroke-linejoin="round"/>
<path d="M176.01 167.71C176.01 167.71 165.86 163.16 164.27 163.16C162.68 163.16 155.49 168.34 154.75 169.5C154.01 170.66 153.69 173.62 156.34 175.1" fill="#ECEDEB"/>
<path d="M176.01 167.71C176.01 167.71 165.86 163.16 164.27 163.16C162.68 163.16 155.49 168.34 154.75 169.5C154.01 170.66 153.69 173.62 156.34 175.1" stroke="#252526" stroke-linecap="round" stroke-linejoin="round"/>
<path d="M176.85 175.11C176.85 175.11 167.97 171.2 164.27 170.88C160.57 170.56 156.76 175.11 155.49 176.91C154.22 178.71 155.49 181.03 157.71 181.98" fill="#ECEDEB"/>
<path d="M176.85 175.11C176.85 175.11 167.97 171.2 164.27 170.88C160.57 170.56 156.76 175.11 155.49 176.91C154.22 178.71 155.49 181.03 157.71 181.98" stroke="#252526" stroke-linecap="round" stroke-linejoin="round"/>
<path d="M176.01 183.65C176.01 183.65 167.13 178.91 164.27 179.12C161.41 179.33 156.97 181.3 156.34 183.65C155.71 186 157.41 188.16 159.98 189.06C161.79 189.69 164.28 189.22 164.28 189.22" fill="#ECEDEB"/>
<path d="M176.01 183.65C176.01 183.65 167.13 178.91 164.27 179.12C161.41 179.33 156.97 181.3 156.34 183.65C155.71 186 157.41 188.16 159.98 189.06C161.79 189.69 164.28 189.22 164.28 189.22" stroke="#252526" stroke-linecap="round" stroke-linejoin="round"/>
<path d="M160.91 187.56C160.91 187.56 163.37 187.56 164.56 188.51C165.75 189.46 166.11 190.89 166.11 190.89" stroke="#252526" stroke-linecap="round" stroke-linejoin="round"/>
<path d="M158.63 225.99V213.41C158.63 213.41 161.36 211.03 168 211.1C174.64 211.17 179.91 212.35 180.86 212.99C181.28 213.27 182.33 225.99 182.33 225.99" fill="#9C8BDC"/>
<path d="M158.63 225.99V213.41C158.63 213.41 161.36 211.03 168 211.1C174.64 211.17 179.91 212.35 180.86 212.99C181.28 213.27 182.33 225.99 182.33 225.99" stroke="#252526" stroke-linecap="round" stroke-linejoin="round"/>
<path d="M249.88 18.5298C249.88 18.5298 220.1 39.2498 218.2 40.3098C216.3 41.3698 212.54 44.6298 211.75 45.5398C210.77 46.6798 209.74 49.4898 209.21 50.9298C208.62 52.5198 210.64 61.3998 212.38 65.8398C214.12 70.2798 220.31 74.7198 223.48 76.7798C226.65 78.8398 230.3 82.0098 231.57 80.4298C232.84 78.8498 227.8 71.2598 225.11 69.5198L237.91 51.8498C239.4 51.2598 243.55 41.0198 244.5 39.6698C245.45 38.3198 260.61 31.4498 260.61 31.4498" fill="#ECEDEB"/>
<path d="M249.88 18.5298C249.88 18.5298 220.1 39.2498 218.2 40.3098C216.3 41.3698 212.54 44.6298 211.75 45.5398C210.77 46.6798 209.74 49.4898 209.21 50.9298C208.62 52.5198 210.64 61.3998 212.38 65.8398C214.12 70.2798 220.31 74.7198 223.48 76.7798C226.65 78.8398 230.3 82.0098 231.57 80.4298C232.84 78.8498 227.8 71.2598 225.11 69.5198L237.91 51.8498C239.4 51.2598 243.55 41.0198 244.5 39.6698C245.45 38.3198 260.61 31.4498 260.61 31.4498" stroke="#252526" stroke-linecap="round" stroke-linejoin="round"/>
<path d="M237.75 68.3799C237.75 68.3799 239.18 69.6499 238.7 71.5499C238.22 73.4499 236 73.7699 232.83 73.0599C230.88 72.6199 224.74 69.3299 224.74 69.3299C224.74 69.3299 221.15 67.8699 219.35 63.4799C218.2 60.6699 215.91 54.6899 215.91 54.6899" fill="#ECEDEB"/>
<path d="M237.75 68.3799C237.75 68.3799 239.18 69.6499 238.7 71.5499C238.22 73.4499 236 73.7699 232.83 73.0599C230.88 72.6199 224.74 69.3299 224.74 69.3299C224.74 69.3299 221.15 67.8699 219.35 63.4799C218.2 60.6699 215.91 54.6899 215.91 54.6899" stroke="#252526" stroke-linecap="round" stroke-linejoin="round"/>
<path d="M222.76 52.4399C222.76 52.4399 225.54 59.4999 227.04 61.6399C228.54 63.7799 233.62 66.9499 235.29 67.5899C236.96 68.2299 239.49 68.9399 240.29 67.9099C241.09 66.8799 241.16 64.0399 240.29 63.4799" fill="#ECEDEB"/>
<path d="M222.76 52.4399C222.76 52.4399 225.54 59.4999 227.04 61.6399C228.54 63.7799 233.62 66.9499 235.29 67.5899C236.96 68.2299 239.49 68.9399 240.29 67.9099C241.09 66.8799 241.16 64.0399 240.29 63.4799" stroke="#252526" stroke-linecap="round" stroke-linejoin="round"/>
<path d="M229.63 49.4301C229.63 49.4301 231.46 56.7801 233.36 59.2401C235.26 61.7001 239.57 64.3401 241.32 63.2301C243.07 62.1201 240.25 57.4601 238.8 55.5401C237.01 53.1601 237.04 47.7701 237.28 46.5801" fill="#ECEDEB"/>
<path d="M229.63 49.4301C229.63 49.4301 231.46 56.7801 233.36 59.2401C235.26 61.7001 239.57 64.3401 241.32 63.2301C243.07 62.1201 240.25 57.4601 238.8 55.5401C237.01 53.1601 237.04 47.7701 237.28 46.5801" stroke="#252526" stroke-linecap="round" stroke-linejoin="round"/>
<path d="M271.85 0.5L248.93 17.07C248.93 17.07 252.21 22.25 255.3 26.14C258.39 30.03 264 34.2 264 34.2L287.15 21.99" fill="#9C8BDC"/>
<path d="M271.85 0.5L248.93 17.07C248.93 17.07 252.21 22.25 255.3 26.14C258.39 30.03 264 34.2 264 34.2L287.15 21.99" stroke="#252526" stroke-linecap="round" stroke-linejoin="round"/>
<path d="M206.79 29.5402L211.41 18.2202" stroke="#252526" stroke-linecap="round" stroke-linejoin="round"/>
<path d="M165.43 21.7499L166.78 8.37988" stroke="#252526" stroke-linecap="round" stroke-linejoin="round"/>
<path d="M127.95 24.31L126.07 12.75" stroke="#252526" stroke-linecap="round" stroke-linejoin="round"/>
<path d="M89.8001 37.4L83.7701 26.79" stroke="#252526" stroke-linecap="round" stroke-linejoin="round"/>
<path d="M66.8201 120.84L54.0601 122.96" stroke="#252526" stroke-linecap="round" stroke-linejoin="round"/>
<path d="M81.8301 161.17L73.4601 169.13" stroke="#252526" stroke-linecap="round" stroke-linejoin="round"/>
<path d="M119.85 181.98L117.02 194.07" stroke="#252526" stroke-linecap="round" stroke-linejoin="round"/>
<path d="M236.16 167.18L246.29 175.11" stroke="#252526" stroke-linecap="round" stroke-linejoin="round"/>
<path d="M249.53 80.1L262.1 78.04" stroke="#252526" stroke-linecap="round" stroke-linejoin="round"/>
<path d="M249.98 123.73L261.65 124.44" stroke="#252526" stroke-linecap="round" stroke-linejoin="round"/>
<path d="M109.9 83.4098V101.3H104.45V83.4098H98.0801V78.7598H116.26V83.4098H109.89H109.9Z" fill="#252526"/>
<path d="M132.98 101.3V91.8798H124.19V101.3H118.74V78.7598H124.19V87.2898H132.98V78.7598H138.42V101.3H132.98Z" fill="#252526"/>
<path d="M158.36 101.3L156.61 96.8698H147.89L146.23 101.3H140.31L149.77 78.7598H155.06L164.42 101.3H158.37H158.36ZM152.31 84.7798L149.44 92.5198H155.11L152.31 84.7798Z" fill="#252526"/>
<path d="M180.62 101.3L171.55 86.5598H171.45L171.58 101.3H166.29V78.7598H172.5L181.54 93.4698H181.64L181.51 78.7598H186.8V101.3H180.62Z" fill="#252526"/>
<path d="M205.2 101.3L196.82 90.9198H196.76V101.3H191.44V78.7598H196.76V87.9298H196.86L204.92 78.7598H211.73L202.02 89.1398L212.3 101.3H205.2Z" fill="#252526"/>
<path d="M130.79 129.96V139.51H125.35V129.96L116.88 116.97H123.47L128.28 125.31L133.09 116.97H139.46L130.8 129.96H130.79Z" fill="#252526"/>
<path d="M163.62 128.14C163.62 129.92 163.31 131.55 162.7 133.03C162.08 134.51 161.23 135.77 160.14 136.82C159.05 137.87 157.75 138.68 156.24 139.26C154.73 139.84 153.1 140.12 151.34 140.12C149.58 140.12 147.95 139.83 146.45 139.26C144.95 138.69 143.66 137.88 142.57 136.82C141.48 135.77 140.62 134.51 140.01 133.03C139.39 131.55 139.09 129.93 139.09 128.14C139.09 126.35 139.4 124.71 140.01 123.25C140.63 121.8 141.48 120.56 142.57 119.54C143.66 118.52 144.96 117.74 146.45 117.18C147.95 116.63 149.58 116.35 151.34 116.35C153.1 116.35 154.74 116.63 156.24 117.18C157.74 117.73 159.05 118.52 160.14 119.54C161.23 120.56 162.09 121.79 162.7 123.25C163.32 124.7 163.62 126.33 163.62 128.14ZM157.79 128.14C157.79 127.16 157.63 126.25 157.31 125.4C156.99 124.55 156.55 123.82 155.99 123.22C155.43 122.62 154.75 122.14 153.95 121.79C153.15 121.44 152.28 121.26 151.32 121.26C150.36 121.26 149.49 121.44 148.71 121.79C147.92 122.14 147.25 122.62 146.67 123.22C146.1 123.83 145.66 124.55 145.35 125.4C145.04 126.25 144.89 127.16 144.89 128.14C144.89 129.12 145.05 130.1 145.37 130.96C145.69 131.82 146.13 132.56 146.69 133.17C147.25 133.79 147.93 134.27 148.71 134.62C149.49 134.97 150.37 135.15 151.32 135.15C152.27 135.15 153.15 134.98 153.93 134.62C154.72 134.27 155.39 133.79 155.97 133.17C156.54 132.55 156.99 131.82 157.31 130.96C157.63 130.1 157.79 129.16 157.79 128.14Z" fill="#252526"/>
<path d="M185.63 134.72C185.17 135.83 184.52 136.79 183.67 137.59C182.82 138.39 181.8 139.01 180.6 139.45C179.4 139.9 178.07 140.12 176.6 140.12C175.13 140.12 173.78 139.9 172.59 139.45C171.4 139 170.39 138.38 169.57 137.59C168.74 136.79 168.11 135.84 167.66 134.72C167.21 133.61 166.99 132.37 166.99 131.01V116.97H172.4V130.57C172.4 131.19 172.48 131.77 172.64 132.32C172.8 132.87 173.04 133.37 173.37 133.8C173.7 134.24 174.13 134.58 174.68 134.84C175.23 135.1 175.87 135.22 176.64 135.22C177.41 135.22 178.06 135.09 178.6 134.84C179.14 134.59 179.58 134.24 179.92 133.8C180.26 133.37 180.5 132.87 180.65 132.32C180.8 131.77 180.87 131.19 180.87 130.57V116.97H186.31V131.01C186.31 132.37 186.08 133.61 185.63 134.72Z" fill="#252526"/>
<path d="M197.17 136.8C197.17 137.22 197.09 137.62 196.93 137.99C196.77 138.36 196.55 138.68 196.26 138.95C195.97 139.22 195.64 139.43 195.26 139.59C194.88 139.75 194.47 139.83 194.05 139.83C193.63 139.83 193.23 139.76 192.86 139.61C192.49 139.46 192.16 139.25 191.89 138.97C191.62 138.69 191.39 138.38 191.22 138.01C191.05 137.65 190.97 137.26 190.97 136.83C190.97 136.43 191.05 136.04 191.21 135.67C191.37 135.3 191.59 134.97 191.86 134.7C192.14 134.42 192.46 134.21 192.85 134.05C193.23 133.89 193.64 133.81 194.06 133.81C194.48 133.81 194.89 133.89 195.27 134.05C195.65 134.21 195.99 134.42 196.27 134.69C196.56 134.96 196.78 135.27 196.94 135.65C197.1 136.02 197.18 136.41 197.18 136.81L197.17 136.8ZM191.38 131.96V116.96H196.7V131.96H191.38Z" fill="#252526"/>
</g>
<defs>
<clipPath id="clip0_4330_4842">
<rect width="287.65" height="226.49" fill="white"/>
</clipPath>
</defs>
</svg>
