<svg width="231" height="180" viewBox="0 0 231 180" fill="none" xmlns="http://www.w3.org/2000/svg">
<mask id="mask0_2102_58837" style="mask-type:luminance" maskUnits="userSpaceOnUse" x="0" y="0" width="231" height="180">
<path d="M230.789 0H0.211914V180H230.789V0Z" fill="white"/>
</mask>
<g mask="url(#mask0_2102_58837)">
<path d="M194.039 166.256H22.6186C15.1082 166.256 10.5823 163.592 11.5623 159.601L21.398 123.769C22.0217 121.907 27.8839 119.857 34.4143 119.857H181.281C187.821 119.857 193.674 121.898 194.378 124.463L204.089 158.817C204.971 162.033 201.541 166.256 194.03 166.256H194.039Z" fill="#3F3F3F"/>
<path d="M192.632 162.611H23.0823C16.2401 162.611 11.3401 160.259 12.133 157.409L21.443 123.973C22.0845 121.683 27.4656 119.848 33.4703 119.848H182.244C188.249 119.848 193.63 121.683 194.271 123.973L203.581 157.409C204.374 160.268 199.483 162.611 192.632 162.611Z" fill="#252526"/>
<path d="M189.21 160.196H26.5023C21.2726 160.196 17.4951 158.414 18.0742 156.231L26.2706 124.943C26.7339 123.17 30.8767 121.744 35.5272 121.744H180.176C184.826 121.744 188.969 123.17 189.432 124.943L197.629 156.231C198.199 158.405 194.43 160.196 189.201 160.196H189.21Z" fill="#ECEDEB"/>
<mask id="mask1_2102_58837" style="mask-type:luminance" maskUnits="userSpaceOnUse" x="6" y="47" width="192" height="114">
<path d="M197.829 47.4727H6.54102V160.2H197.829V47.4727Z" fill="white"/>
</mask>
<g mask="url(#mask1_2102_58837)">
<path d="M106.075 140.029L113.889 134.027C114.214 133.777 114.677 133.838 114.926 134.163L114.991 134.248C115.241 134.573 115.18 135.035 114.855 135.284L107.041 141.287L106.081 140.036L106.075 140.029Z" fill="#ECEDEB" stroke="#252526" stroke-linejoin="round"/>
<path d="M106.227 139.496L101.239 143.268C101.058 143.405 101.023 143.662 101.159 143.842L101.928 144.859C102.064 145.039 102.321 145.075 102.502 144.938L107.49 141.166C107.671 141.029 107.706 140.772 107.57 140.592L106.801 139.575C106.665 139.395 106.408 139.359 106.227 139.496Z" fill="#A0A0A0" stroke="#252526" stroke-linejoin="round"/>
<path d="M129.265 116.867C137.907 128.297 154.175 130.551 165.605 121.91C177.036 113.268 179.29 96.9996 170.648 85.5692C162.006 74.1388 145.738 71.8848 134.307 80.5266C122.877 89.1685 120.623 105.437 129.265 116.867ZM132.793 114.203C125.621 104.724 127.492 91.2265 136.971 84.0547C146.451 76.8828 159.948 78.7537 167.12 88.233C174.292 97.7123 172.421 111.21 162.941 118.382C153.462 125.553 139.965 123.682 132.793 114.203Z" fill="#383838" stroke="#252526" stroke-linejoin="round"/>
<path d="M63.5423 166.576C72.1841 178.006 88.4522 180.26 99.8826 171.619C111.313 162.977 113.567 146.709 104.925 135.278C96.2833 123.848 80.0152 121.594 68.5848 130.236C57.1544 138.877 54.9004 155.146 63.5423 166.576ZM67.0703 163.912C59.8984 154.433 61.7694 140.935 71.2487 133.764C80.728 126.592 94.2253 128.463 101.397 137.942C108.569 147.421 106.698 160.919 97.2188 168.09C87.7395 175.262 74.2421 173.391 67.0703 163.912Z" fill="#383838" stroke="#252526" stroke-linejoin="round"/>
<path d="M72.0679 100.687C70.5712 101.81 67.8005 103.912 66.2503 104.741C64.7001 105.569 62.7044 106.79 62.8202 107.333C62.945 107.868 63.0875 108.215 64.8694 108.304C66.6512 108.385 68.0766 108.002 68.825 108.002C69.5734 108.002 72.745 106.14 74.0547 103.966C75.3643 101.792 76.2107 99.431 76.7719 98.9499C77.3332 98.4688 79.2487 97.6759 79.7743 97.2393C80.3 96.8028 79.9525 96.0366 78.9547 96.1524C77.9569 96.2771 73.3419 99.7161 72.059 100.678L72.0679 100.687Z" fill="#9C8BDC" stroke="#252526" stroke-linejoin="round"/>
<path d="M110.459 135.198C110.459 135.198 87.3041 148.776 86.5112 149.204C85.7182 149.631 85.6381 150.38 85.8162 150.736C85.9944 151.092 86.4844 151.377 87.3753 151.074C88.2663 150.772 111.938 137.88 111.938 137.88L110.459 135.189V135.198Z" fill="#ECEDEB" stroke="#252526" stroke-linejoin="round"/>
<path d="M108.479 79.9193C108.479 79.9193 105.29 77.8791 104.871 77.5762C104.452 77.2733 104.541 77.0862 104.915 76.4269C105.299 75.7677 107.241 72.9346 107.615 72.2842C107.989 71.6338 108.969 70.146 109.334 69.8075C109.7 69.4689 110.127 69.1393 110.795 68.7027C111.464 68.2662 112.444 67.6425 112.755 68.6493C113.067 69.656 113.263 70.0926 112.809 70.2351C111.989 70.4935 110.893 71.2686 110.457 71.9189C110.109 72.4357 108.711 74.6986 108.417 75.2153C108.132 75.7409 108.078 75.8389 108.506 76.0706C108.933 76.3022 110.439 77.3 110.439 77.3L108.488 79.9193H108.479Z" fill="#7A7A79" stroke="#252526" stroke-linejoin="round"/>
<path d="M114.272 142.264C118.439 142.264 121.818 138.885 121.818 134.718C121.818 130.55 118.439 127.172 114.272 127.172C110.104 127.172 106.726 130.55 106.726 134.718C106.726 138.885 110.104 142.264 114.272 142.264Z" fill="#ECEDEB" stroke="#252526" stroke-linejoin="round"/>
<path d="M83.4626 150.683C83.4982 150.176 86.4115 121.292 86.9015 116.392C79.6584 111.056 73.128 106.245 73.128 106.245C72.5044 105.79 72.442 105.844 72.9587 105.345C73.3507 104.971 73.814 104.338 74.1347 103.83C74.7584 104.285 83.7922 110.869 84.1753 111.136C84.5584 111.403 84.7722 111.804 85.2444 111.073C85.7166 110.343 109.005 81.3081 109.299 80.7201C109.299 80.7201 108.925 80.3637 108.479 79.9093C108.444 79.8737 110.671 76.9782 110.831 76.7733C111.01 76.5417 113.326 78.2522 114.502 79.0095C117.638 81.023 121.05 83.2146 124.249 85.1301C127.964 87.3574 131.679 89.5847 135.394 91.8119C138.512 93.6829 141.63 95.5449 144.748 97.4069C146.147 98.2443 147.537 99.1352 148.971 99.9103C150.263 100.605 151.047 101.033 150.825 101.532C150.646 101.924 150.45 102.387 149.167 101.799C147.884 101.211 121.353 88.5957 120.801 88.3552C120.248 88.1147 119.732 88.4176 119.678 89.2016C119.625 89.9856 121.309 126.219 121.46 127.404C121.611 128.589 121.62 133.052 121.62 133.052C121.62 133.052 121.104 130.451 119.037 128.865C116.97 127.279 115.259 127.226 115.259 127.226C115.259 127.226 113.406 90.6092 113.308 89.0056C113.21 87.4108 113.406 84.845 112.845 83.9719C112.284 83.0988 111.108 83.2414 110.19 84.3105C109.272 85.3796 87.4984 111.225 87.0886 111.902C86.6788 112.588 86.5452 112.775 87.2133 113.292C87.8815 113.809 99.7307 122.112 100.123 122.379C100.31 122.513 100.372 122.584 100.479 122.629L109.451 128.901C109.165 129.141 108.925 129.382 108.684 129.622C107.972 130.353 107.419 131.52 107.419 131.52C107.419 131.52 99.8376 125.934 89.1823 118.076C88.5586 122.985 85.2533 148.955 85.093 150.265C84.9148 151.717 84.5317 151.726 84.2466 151.735C83.9615 151.753 83.3735 151.761 83.4448 150.675L83.4626 150.683Z" fill="#ECEDEB" stroke="#252526" stroke-linejoin="round"/>
<path d="M149.961 107.03C153.169 107.03 155.77 104.429 155.77 101.221C155.77 98.0128 153.169 95.4121 149.961 95.4121C146.753 95.4121 144.152 98.0128 144.152 101.221C144.152 104.429 146.753 107.03 149.961 107.03Z" fill="#ECEDEB" stroke="#252526" stroke-linejoin="round"/>
<path d="M84.2287 156.744C87.4368 156.744 90.0374 154.144 90.0374 150.936C90.0374 147.728 87.4368 145.127 84.2287 145.127C81.0206 145.127 78.4199 147.728 78.4199 150.936C78.4199 154.144 81.0206 156.744 84.2287 156.744Z" fill="#ECEDEB" stroke="#252526" stroke-linejoin="round"/>
<path d="M122.541 129.562L114.639 135.448C114.31 135.693 113.849 135.626 113.604 135.297L113.54 135.211C113.295 134.883 113.363 134.421 113.691 134.177L121.594 128.291L122.536 129.555L122.541 129.562Z" fill="#ECEDEB" stroke="#252526" stroke-linejoin="round"/>
<path d="M122.307 129.949L127.295 126.177C127.476 126.04 127.511 125.783 127.375 125.603L126.606 124.587C126.47 124.406 126.213 124.371 126.032 124.507L121.044 128.28C120.864 128.416 120.828 128.673 120.964 128.854L121.733 129.87C121.869 130.05 122.126 130.086 122.307 129.949Z" fill="#A0A0A0" stroke="#252526" stroke-linejoin="round"/>
</g>
<path d="M233.107 13.9028C226.844 14.7225 155.304 24.1483 152.355 26.8033C149.281 29.574 138.483 42.0022 134.929 45.7708C131.374 49.5304 127.124 59.1523 126.634 59.9898C126.144 60.8272 118.545 72.4714 117.422 72.5427C116.318 72.614 110.66 70.9391 114.5 61.2459C115.4 58.9652 116.309 57.2012 117.164 55.749C117.422 55.3125 117.663 54.9116 117.912 54.5196C120.318 50.7243 122.153 49.0761 121.957 44.2384C118.402 37.6813 117.387 37.0666 117.102 36.8438C117.066 36.8171 117.048 36.7904 117.039 36.7815C115.934 35.2491 111.498 40.6124 111.222 40.6124C111.222 40.6124 109.6 43.6861 108.326 46.1895C107.578 47.6684 106.936 48.9424 106.829 49.2543C106.794 49.3612 106.785 49.575 106.803 49.8779C106.883 51.9805 107.988 58.1277 108.201 58.6801C108.317 58.9919 108.424 59.3305 108.504 59.7047C109.066 62.0121 109.128 65.3174 108.994 67.0458C108.825 69.2107 107.025 73.8078 104.86 71.4202C103.123 69.5047 99.2833 55.9717 98.2855 51.3212C91.862 48.0159 95.9067 43.0802 96.6373 41.7617C97.3768 40.4164 104.638 24.9858 105.885 22.9367C107.141 20.8876 136.372 12.3794 142.145 10.063C147.909 7.73773 225.321 -7.72852 225.321 -7.72852C225.321 -7.72852 237.455 -3.24722 233.107 13.8939V13.9028Z" fill="#ECEDEB" stroke="#252526" stroke-linecap="round" stroke-linejoin="round"/>
<path d="M117.922 54.5214C117.673 54.9134 117.423 55.3143 117.174 55.7509C116.728 55.9469 116.221 56.0092 116.007 56.0894C115.499 56.3032 111.49 57.604 108.505 59.7154C108.425 59.3413 108.318 59.0027 108.202 58.6909C107.998 58.1385 106.893 51.9912 106.804 49.8887C107.793 50.7261 108.862 51.7329 108.808 52.1694C108.808 52.1694 110.875 51.0379 113.049 50.8687C114.51 50.7529 116.016 51.0647 116.978 52.4545C117.61 53.3721 117.869 54.0403 117.913 54.5303L117.922 54.5214Z" fill="#ECEDEB" stroke="#252526" stroke-linecap="round" stroke-linejoin="round"/>
<path d="M121.146 46.9477C120.584 47.6872 118.054 48.4177 116.54 48.7919H116.504H116.531L117.324 48.3197C117.324 48.3197 119.586 45.4866 117.119 44.3284C117.065 44.3017 117.003 44.275 116.932 44.2572C117.439 44.1681 118.01 44.0879 118.277 44.0879C119.631 44.1235 121.956 45.8875 121.137 46.9477H121.146Z" fill="#ECEDEB" stroke="#252526" stroke-linecap="round" stroke-linejoin="round"/>
<path d="M117.333 48.3198L116.541 48.792L116.514 48.8098L113.066 50.8589C110.883 51.0281 108.825 52.1596 108.825 52.1596C108.879 51.7231 107.81 50.7163 106.821 49.8789C106.803 49.576 106.821 49.3621 106.847 49.2552C106.954 48.9523 107.587 47.6694 108.344 46.1905C109.689 45.6114 112.344 44.5512 114.527 44.2038C115.471 44.0523 116.318 44.0345 116.924 44.2572C116.924 44.2572 116.941 44.2572 116.95 44.2572C117.022 44.2839 117.084 44.3107 117.137 44.3285C119.605 45.4956 117.342 48.3198 117.342 48.3198H117.333Z" fill="#ECEDEB" stroke="#252526" stroke-linecap="round" stroke-linejoin="round"/>
<path d="M114.509 44.1927C112.326 44.5402 109.671 45.6004 108.326 46.1795C109.6 43.676 111.222 40.6024 111.222 40.6024C111.498 40.6024 115.935 35.2391 117.039 36.7714C117.057 36.7893 117.075 36.816 117.102 36.8338C115.899 38.2414 112.959 41.6091 112.255 41.6715C112.255 41.6715 114.509 42.3396 114.5 44.1838L114.509 44.1927Z" fill="#ECEDEB" stroke="#252526" stroke-linecap="round" stroke-linejoin="round"/>
<path d="M98.2775 51.3221C98.1261 50.6005 98.0459 50.1015 98.0459 49.8788C98.0459 48.2039 99.6495 42.903 99.6495 42.903C99.6495 42.903 105.432 25.6193 106.064 24.4967C106.688 23.3742 108.505 22.2605 110.18 21.8418" fill="#ECEDEB"/>
<path d="M98.2775 51.3221C98.1261 50.6005 98.0459 50.1015 98.0459 49.8788C98.0459 48.2039 99.6495 42.903 99.6495 42.903C99.6495 42.903 105.432 25.6193 106.064 24.4967C106.688 23.3742 108.505 22.2605 110.18 21.8418" stroke="#252526" stroke-linecap="round" stroke-linejoin="round"/>
<path d="M55.5293 145.13V160.195H126.9V145.13H55.5293Z" fill="#ECEDEB"/>
<path d="M51.7344 145.129H128.923" stroke="#252526" stroke-linecap="round" stroke-linejoin="round"/>
</g>
</svg>
