<svg width="177" height="150" viewBox="0 0 177 150" fill="none" xmlns="http://www.w3.org/2000/svg">
<g clip-path="url(#clip0_2014_49373)">
<path d="M46.3297 88.7919C46.3297 88.7919 53.6432 131.49 85.868 131.49C118.093 131.49 125.406 88.7919 125.406 88.7919C125.406 88.7919 128.864 76.702 131.095 69.1808C133.334 61.6505 131.095 53.7772 131.095 53.7772C131.095 53.7772 109.226 46.3282 85.868 46.3282C62.5098 46.3282 41.1289 55.6642 41.1289 55.6642C41.1289 55.6642 41.6616 66.8242 41.6526 71.8173C41.6436 76.8103 46.3387 88.7919 46.3387 88.7919H46.3297Z" fill="#ECEDEB" stroke="#252526" stroke-width="1.5" stroke-miterlimit="10"/>
<path d="M136.115 36.4053C134.39 30.5634 128.765 27.4213 128.765 27.4213C128.765 27.4213 128.738 23.4395 125.497 18.9791C121.551 13.5346 115.691 12.1712 115.691 12.1712C115.691 12.1712 114.057 7.5393 108.062 5.09242C102.066 2.64555 97.4434 3.72903 97.4434 3.72903C97.4434 3.72903 92.8115 0.46051 85.8681 0.46051C78.9248 0.46051 74.2928 3.72903 74.2928 3.72903C74.2928 3.72903 69.6609 2.63652 63.6746 5.09242C57.6793 7.5393 56.0451 12.1712 56.0451 12.1712C56.0451 12.1712 50.1852 13.5346 46.2395 18.9791C42.9981 23.4485 42.971 27.4213 42.971 27.4213C42.971 27.4213 37.3459 30.5725 35.6213 36.4053C34.5017 40.2065 34.2579 45.7684 34.9261 50.8518C38.1133 49.371 43.9281 46.9783 51.3409 45.3531C58.5913 43.7549 71.9453 42.8701 85.8771 42.8159C99.809 42.8701 113.163 43.7639 120.413 45.3531C127.826 46.9873 133.641 49.371 136.828 50.8518C137.496 45.7684 137.253 40.2065 136.133 36.4053H136.115Z" fill="#C1B7E8" stroke="#C1B7E8" stroke-miterlimit="10"/>
<path d="M93.8584 33.2722C93.8584 33.2722 97.5332 25.5072 98.4903 16.3878C99.005 11.467 99.1675 9.45349 102.851 9.44446C105.714 9.44446 107.565 12.5595 106.526 16.3878C103.529 27.4213 93.8584 33.2722 93.8584 33.2722Z" fill="#473680" stroke="#473680" stroke-linejoin="round"/>
<path d="M102.833 33.9494C102.833 33.9494 108.224 28.8118 110.833 22.654C112.82 17.9679 114.833 17.2366 117.045 17.4984C119.411 17.7873 121.758 20.5051 123.185 23.8639C124.088 25.9948 124.494 29.489 123.185 31.1233C122.183 32.3783 118.905 34.5724 111.971 34.5724C107.98 34.5724 102.843 33.9404 102.843 33.9404L102.833 33.9494Z" fill="#473680" stroke="#473680" stroke-linejoin="round"/>
<path d="M122.363 40.035C122.363 40.035 128.034 39.3126 131.347 37.3082C132.981 36.324 134.977 40.2155 132.53 40.4864C130.083 40.7573 122.363 40.035 122.363 40.035Z" fill="#473680" stroke="#473680" stroke-linejoin="round"/>
<path d="M77.8683 33.2722C77.8683 33.2722 74.1935 25.5072 73.2364 16.3878C72.7217 11.467 72.5592 9.45349 68.8754 9.44446C66.0132 9.44446 64.1622 12.5595 65.2005 16.3878C68.1982 27.4213 77.8683 33.2722 77.8683 33.2722Z" fill="#473680" stroke="#473680" stroke-linejoin="round"/>
<path d="M68.893 33.9494C68.893 33.9494 63.5027 28.8118 60.8933 22.654C58.9069 17.9679 56.8934 17.2366 54.6813 17.4984C52.3157 17.7873 49.9681 20.5051 48.5415 23.8639C47.6386 25.9948 47.2323 29.489 48.5415 31.1233C49.5437 32.3783 52.8213 34.5724 59.7556 34.5724C63.7465 34.5724 68.884 33.9404 68.884 33.9404L68.893 33.9494Z" fill="#473680" stroke="#473680" stroke-linejoin="round"/>
<path d="M49.3724 40.035C49.3724 40.035 43.7021 39.3126 40.3884 37.3082C38.7542 36.324 36.7588 40.2155 39.2056 40.4864C41.6525 40.7573 49.3724 40.035 49.3724 40.035Z" fill="#473680" stroke="#473680" stroke-linejoin="round"/>
<path d="M88.9108 10.9794C88.8205 8.62282 87.9085 6.79895 85.868 6.79895C83.8274 6.79895 82.9155 8.61379 82.8252 10.9794C82.7349 13.336 82.8252 21.3538 85.868 26.0218C88.9198 21.3538 89.001 13.345 88.9108 10.9794Z" fill="#473680" stroke="#473680" stroke-linejoin="round"/>
<path d="M130.535 73.4425C130.264 70.1469 128.025 70.3365 122.364 70.4449C118.318 70.5261 110.969 70.806 104.251 72.2597C97.5336 73.7134 92.8113 74.7608 85.868 74.7608C78.9246 74.7608 74.2024 73.7134 67.4848 72.2597C60.7672 70.806 53.4175 70.5261 49.3725 70.4449C43.7112 70.3365 41.472 70.1379 41.2012 73.4425C40.9574 76.3408 41.165 82.5709 43.7112 86.2457C45.3365 88.6023 56.7221 96.7736 64.9115 97.6856C73.1099 98.5975 78.1933 97.3244 80.0081 92.9634C81.823 88.6023 82.2744 84.9726 85.868 84.9726C89.4616 84.9726 89.904 88.6023 91.7279 92.9634C93.5427 97.3244 98.6261 98.5885 106.824 97.6856C115.023 96.7736 126.399 88.6023 128.025 86.2457C130.571 82.5709 130.779 76.3499 130.535 73.4425Z" fill="#9C8BDC"/>
<path d="M42.4652 64.4947C42.4652 64.4947 42.3569 68.1514 42.8896 70.7879C41.1289 71.4019 40.9303 73.0813 41.3366 78.9502C39.9281 75.763 39.5127 73.3703 38.971 70.201C38.2577 66.0116 38.4021 61.6505 38.4021 61.6505C38.4021 61.6505 40.2441 65.7497 42.4652 64.5037V64.4947Z" fill="#252526"/>
<path d="M129.271 64.4947C129.271 64.4947 129.379 68.1514 128.846 70.7879C130.607 71.4019 130.806 73.0813 130.399 78.9502C131.808 75.763 132.223 73.3703 132.765 70.201C133.478 66.0116 133.334 61.6505 133.334 61.6505C133.334 61.6505 131.492 65.7497 129.271 64.5037V64.4947Z" fill="#252526"/>
<mask id="mask0_2014_49373" style="mask-type:luminance" maskUnits="userSpaceOnUse" x="41" y="70" width="90" height="28">
<path d="M130.535 73.4425C130.264 70.1469 128.025 70.3365 122.364 70.4449C118.318 70.5261 110.969 70.806 104.251 72.2597C97.5336 73.7134 92.8113 74.7608 85.868 74.7608C78.9246 74.7608 74.2024 73.7134 67.4848 72.2597C60.7672 70.806 53.4175 70.5261 49.3725 70.4449C43.7112 70.3365 41.472 70.1379 41.2012 73.4425C40.9574 76.3408 41.165 82.5709 43.7112 86.2457C45.3365 88.6023 56.7221 96.7736 64.9115 97.6856C73.1099 98.5975 78.1933 97.3244 80.0081 92.9634C81.823 88.6023 82.2744 84.9726 85.868 84.9726C89.4616 84.9726 89.904 88.6023 91.7279 92.9634C93.5427 97.3244 98.6261 98.5885 106.824 97.6856C115.023 96.7736 126.399 88.6023 128.025 86.2457C130.571 82.5709 130.779 76.3499 130.535 73.4425Z" fill="white"/>
</mask>
<g mask="url(#mask0_2014_49373)">
<path d="M101.226 100.494L122.363 67.8535L112.711 68.6029L93.1631 98.7871L101.226 100.494Z" fill="#E6E2F6"/>
<path d="M111.312 97.8662L129.894 69.1718L127.663 67.8535L106.878 99.9519L111.312 97.8662Z" fill="#E6E2F6"/>
<path d="M48.3972 93.3516L64.0536 69.1718H60.5322L46.167 91.3562L48.3972 93.3516Z" fill="#E6E2F6"/>
<path d="M66.9518 100.945L85.8677 71.736L76.4413 70.3997L57.5796 99.5275L66.9518 100.945Z" fill="#E6E2F6"/>
</g>
<path d="M130.535 73.4425C130.264 70.1469 128.025 70.3365 122.364 70.4449C118.318 70.5261 110.969 70.806 104.251 72.2597C97.5336 73.7134 92.8113 74.7608 85.868 74.7608C78.9246 74.7608 74.2024 73.7134 67.4848 72.2597C60.7672 70.806 53.4175 70.5261 49.3725 70.4449C43.7112 70.3365 41.472 70.1379 41.2012 73.4425C40.9574 76.3408 41.165 82.5709 43.7112 86.2457C45.3365 88.6023 56.7221 96.7736 64.9115 97.6856C73.1099 98.5975 78.1933 97.3244 80.0081 92.9634C81.823 88.6023 82.2744 84.9726 85.868 84.9726C89.4616 84.9726 89.904 88.6023 91.7279 92.9634C93.5427 97.3244 98.6261 98.5885 106.824 97.6856C115.023 96.7736 126.399 88.6023 128.025 86.2457C130.571 82.5709 130.779 76.3499 130.535 73.4425Z" stroke="#252526" stroke-width="1.5" stroke-miterlimit="10"/>
<path d="M120.404 45.3531C113.154 43.7549 99.7999 42.8701 85.8681 42.8159C71.9362 42.8701 58.5822 43.764 51.3318 45.3531C43.919 46.9874 38.1043 49.371 34.917 50.8518C35.3052 53.7772 35.9824 56.5491 36.9756 58.7432C39.7024 64.7385 41.0026 65.7498 43.2418 63.9169C44.7406 62.6889 46.2395 57.2444 54.8532 54.0932C59.774 52.2964 73.4892 50.6802 85.8681 50.8337C98.2469 50.6802 111.962 52.2964 116.883 54.0932C125.497 57.2444 126.995 62.6889 128.494 63.9169C130.734 65.7498 132.034 64.7295 134.76 58.7432C135.754 56.5582 136.44 53.7862 136.819 50.8518C133.632 49.371 127.817 46.9783 120.404 45.3531Z" fill="#252526" stroke="#252526" stroke-miterlimit="10"/>
<path d="M168.945 107.681C160.466 117.911 145.307 119.337 135.068 110.859C124.847 102.39 123.42 87.2208 131.898 76.9909C140.377 66.761 155.537 65.3434 165.757 73.8127C175.987 82.291 177.414 97.4508 168.936 107.681H168.945Z" fill="#ECEDEB" stroke="#252526" stroke-width="5" stroke-miterlimit="10"/>
<path d="M135.761 112.061L133.759 110.402L119.652 127.43L121.655 129.089L135.761 112.061Z" fill="#252526" stroke="#252526" stroke-miterlimit="10"/>
<path d="M130.045 119.329L127.681 117.37C126.503 116.394 124.755 116.558 123.778 117.737L102.811 143.046C101.835 144.224 101.999 145.972 103.178 146.949L105.542 148.907C106.72 149.884 108.468 149.72 109.445 148.541L130.412 123.232C131.388 122.053 131.224 120.306 130.045 119.329Z" fill="#C1B7E8" stroke="#252526" stroke-miterlimit="10"/>
<path d="M166.019 92.2591C166.019 92.2591 165.188 107.076 151.636 108.954L166.019 92.2591Z" fill="#ECEDEB"/>
<path d="M166.019 92.2591C166.019 92.2591 165.188 107.076 151.636 108.954" stroke="#FAFAFA" stroke-width="5" stroke-linecap="round" stroke-linejoin="round"/>
<path d="M28.8495 17.381C30.0865 23.3041 27.441 29.1368 22.6465 32.2338C22.6375 32.2338 22.6194 32.2519 22.6104 32.2519C22.3937 32.3783 22.186 32.4957 22.0055 32.6221C20.94 33.3173 20.5608 34.0667 21.0664 36.5136L22.4298 43.0506C22.7278 44.4953 21.7978 45.9219 20.3531 46.2198C18.9085 46.5178 17.4819 45.5878 17.1839 44.1432L15.1343 34.3466C14.6377 31.972 14.7641 30.3106 19.2516 27.8457C22.5472 25.9947 24.4162 22.1664 23.5946 18.2749C22.5924 13.4624 17.8792 10.3834 13.0667 11.3947C8.42574 12.3608 5.39197 16.776 6.08721 21.4079C6.10527 21.5795 6.14138 21.742 6.1775 21.9136C6.20459 22.04 6.23167 22.1574 6.25876 22.2838C6.48449 23.6833 5.56352 25.0286 4.16402 25.3175C2.84577 25.5974 1.55461 24.848 1.10316 23.6201C1.06704 23.4846 1.03093 23.3402 1.00384 23.1957C0.0828758 18.7985 1.31083 14.4556 3.95635 11.2412C5.94274 8.83948 8.7237 7.06978 12.0103 6.37454C19.694 4.76737 27.2243 9.69724 28.8314 17.372L28.8495 17.381Z" fill="#6A51CA" stroke="#252526" stroke-linecap="round" stroke-linejoin="round"/>
<path d="M22.15 58.2556C24.0699 58.2556 25.6262 56.6993 25.6262 54.7794C25.6262 52.8596 24.0699 51.3032 22.15 51.3032C20.2302 51.3032 18.6738 52.8596 18.6738 54.7794C18.6738 56.6993 20.2302 58.2556 22.15 58.2556Z" fill="#6A51CA" stroke="#252526" stroke-linecap="round" stroke-linejoin="round"/>
</g>
<defs>
<clipPath id="clip0_2014_49373">
<rect width="176.455" height="150" fill="white" transform="translate(0.272461)"/>
</clipPath>
</defs>
</svg>
