<svg width="253" height="127" viewBox="0 0 253 127" fill="none" xmlns="http://www.w3.org/2000/svg">
<g clip-path="url(#clip0_2014_49594)">
<path d="M120.84 3.6233L2.67356 36.3714C0.927861 36.8552 -0.0951109 38.6626 0.388685 40.4083L22.7879 121.232C23.2717 122.978 25.079 124.001 26.8247 123.517L144.991 90.7686C146.736 90.2848 147.759 88.4775 147.276 86.7318L124.876 5.90817C124.393 4.16248 122.585 3.13951 120.84 3.6233Z" fill="#252526"/>
<path d="M51.9752 81.3199C51.8952 81.0199 51.8652 80.7399 51.8952 80.4599C51.9252 80.1899 52.0052 79.9399 52.1352 79.7199C52.2652 79.4999 52.4352 79.3099 52.6452 79.1499C52.8552 78.9899 53.1152 78.8699 53.3952 78.7899C53.6852 78.7099 53.9652 78.6699 54.2352 78.6999C54.5052 78.7199 54.7452 78.7999 54.9752 78.9199C55.1952 79.0399 55.3952 79.2099 55.5552 79.4299C55.7252 79.6499 55.8452 79.8999 55.9252 80.1999C56.0052 80.4999 56.0352 80.7699 55.9952 81.0399C55.9552 81.3099 55.8852 81.5499 55.7552 81.7699C55.6252 81.9899 55.4552 82.1799 55.2352 82.3499C55.0152 82.5099 54.7652 82.6399 54.4752 82.7199C54.1852 82.7999 53.9052 82.8299 53.6452 82.7999C53.3852 82.7699 53.1352 82.6999 52.9152 82.5799C52.6952 82.4599 52.5052 82.2899 52.3352 82.0799C52.1752 81.8699 52.0452 81.6199 51.9652 81.3299L51.9752 81.3199ZM52.6552 81.0899C52.7152 81.2899 52.7952 81.4699 52.9052 81.6199C53.0152 81.7699 53.1452 81.8899 53.2852 81.9899C53.4252 82.0899 53.5952 82.1399 53.7652 82.1699C53.9352 82.1999 54.1252 82.1799 54.3152 82.1299C54.5052 82.0799 54.6752 81.9899 54.8152 81.8799C54.9552 81.7699 55.0652 81.6299 55.1452 81.4799C55.2252 81.3299 55.2652 81.1599 55.2852 80.9699C55.3052 80.7799 55.2852 80.5899 55.2252 80.3899C55.1752 80.1999 55.0952 80.0399 54.9852 79.8899C54.8752 79.7399 54.7552 79.6299 54.6052 79.5399C54.4552 79.4499 54.2952 79.3899 54.1252 79.3699C53.9452 79.3499 53.7652 79.3699 53.5652 79.4099C53.3652 79.4499 53.2052 79.5499 53.0652 79.6599C52.9252 79.7699 52.8152 79.8999 52.7452 80.0599C52.6752 80.2199 52.6152 80.3799 52.6052 80.5599C52.5852 80.7399 52.6052 80.9199 52.6552 81.1099V81.0899Z" fill="#ECEDEB"/>
<path d="M55.7554 78.2499L56.4854 78.0499L57.9354 80.5399H57.9454L58.0354 77.6199L58.6854 77.4399L60.2554 79.8999H60.2654L60.2554 77.0099L60.9254 76.8199L60.8754 80.8499L60.2454 81.0299L58.5954 78.4299H58.5854L58.5054 81.5099L57.8954 81.6799L55.7554 78.2499Z" fill="#ECEDEB"/>
<path d="M61.4751 76.6599L62.3551 76.4199L64.9351 78.6899H64.9451L64.1751 75.9099L64.8351 75.7299L65.8651 79.4599L65.0251 79.6899L62.3851 77.3399H62.3751L63.1651 80.1999L62.5051 80.3799L61.4751 76.6499V76.6599Z" fill="#ECEDEB"/>
<path d="M65.8052 75.4599L68.2752 74.7799L68.4452 75.3799L66.6352 75.8799L66.8852 76.7999L68.5952 76.3299L68.7652 76.9299L67.0552 77.3999L67.3352 78.4099L69.2352 77.8799L69.4052 78.4799L66.8352 79.1899L65.8052 75.4599Z" fill="#ECEDEB"/>
<path d="M69.1553 74.5299L70.4553 74.1699C70.6353 74.1199 70.8153 74.0899 70.9853 74.0799C71.1553 74.0699 71.3253 74.0799 71.4753 74.1299C71.6253 74.1799 71.7653 74.2599 71.8753 74.3699C71.9953 74.4899 72.0753 74.6499 72.1353 74.8599C72.2053 75.1299 72.1953 75.3799 72.0953 75.5999C71.9953 75.8199 71.8153 75.9899 71.5453 76.1099L72.9953 77.4799L72.1953 77.6999L70.8953 76.3599L70.4153 76.4899L70.8553 78.0699L70.1953 78.2499L69.1653 74.5199L69.1553 74.5299ZM70.7753 75.7799C70.8653 75.7499 70.9653 75.7199 71.0553 75.6899C71.1453 75.6499 71.2253 75.6099 71.2953 75.5499C71.3653 75.4999 71.4153 75.4299 71.4453 75.3399C71.4753 75.2499 71.4753 75.1599 71.4453 75.0299C71.4153 74.9199 71.3653 74.8399 71.3053 74.7899C71.2453 74.7399 71.1653 74.6999 71.0853 74.6899C71.0053 74.6799 70.9153 74.6799 70.8253 74.6899C70.7353 74.6999 70.6453 74.7199 70.5553 74.7499L69.9853 74.9099L70.2653 75.9199L70.7853 75.7799H70.7753Z" fill="#ECEDEB"/>
<path d="M74.6554 73.8699C74.5554 73.7899 74.4454 73.7399 74.3154 73.7199C74.1854 73.7099 74.0554 73.7199 73.9254 73.7499C73.8454 73.7699 73.7754 73.7999 73.7054 73.8399C73.6354 73.8799 73.5854 73.9199 73.5354 73.9799C73.4854 74.0399 73.4554 74.0999 73.4354 74.1699C73.4154 74.2399 73.4154 74.3199 73.4354 74.3999C73.4754 74.5299 73.5454 74.6099 73.6454 74.6499C73.7554 74.6899 73.8754 74.7199 74.0154 74.7299C74.1554 74.7399 74.3154 74.7499 74.4854 74.7499C74.6554 74.7499 74.8154 74.7799 74.9654 74.8199C75.1154 74.8699 75.2554 74.9399 75.3854 75.0499C75.5054 75.1599 75.6054 75.3199 75.6654 75.5499C75.7254 75.7499 75.7354 75.9399 75.6954 76.1099C75.6554 76.2799 75.5954 76.4299 75.5054 76.5599C75.4054 76.6899 75.2854 76.8099 75.1354 76.8999C74.9854 76.9999 74.8154 77.0699 74.6354 77.1199C74.4054 77.1799 74.1654 77.2099 73.9354 77.1899C73.6954 77.1699 73.4754 77.0899 73.2754 76.9499L73.6454 76.3299C73.7554 76.4299 73.8954 76.4999 74.0454 76.5299C74.1954 76.5599 74.3454 76.5599 74.4954 76.5199C74.5754 76.4999 74.6454 76.4699 74.7154 76.4199C74.7854 76.3799 74.8454 76.3299 74.8954 76.2699C74.9454 76.2099 74.9854 76.1399 75.0054 76.0699C75.0254 75.9899 75.0254 75.9099 75.0054 75.8299C74.9654 75.6899 74.8954 75.5999 74.7854 75.5499C74.6754 75.4999 74.5554 75.4699 74.4054 75.4499C74.2654 75.4399 74.1054 75.4299 73.9354 75.4199C73.7654 75.4199 73.6054 75.3899 73.4554 75.3499C73.3054 75.3099 73.1654 75.2299 73.0454 75.1199C72.9254 75.0099 72.8254 74.8499 72.7654 74.6299C72.7154 74.4399 72.7054 74.2599 72.7454 74.0999C72.7854 73.9399 72.8554 73.7899 72.9554 73.6599C73.0554 73.5299 73.1854 73.4199 73.3354 73.3299C73.4854 73.2399 73.6454 73.1699 73.8254 73.1199C74.0254 73.0699 74.2254 73.0399 74.4254 73.0499C74.6254 73.0599 74.8154 73.1099 75.0054 73.2099L74.6654 73.8599L74.6554 73.8699Z" fill="#ECEDEB"/>
<path d="M75.7651 72.6999L76.4251 72.5199L76.8351 74.0099L78.5751 73.5299L78.1651 72.0399L78.8251 71.8599L79.8551 75.5899L79.1951 75.7699L78.7351 74.1299L76.9951 74.6099L77.4551 76.2499L76.7951 76.4299L75.7651 72.6999Z" fill="#ECEDEB"/>
<path d="M79.7852 71.5899L80.4452 71.4099L81.4752 75.1399L80.8152 75.3199L79.7852 71.5899Z" fill="#ECEDEB"/>
<path d="M81.395 71.1399L82.645 70.7899C82.825 70.7399 83.005 70.7099 83.175 70.6999C83.345 70.6899 83.515 70.6999 83.665 70.7499C83.815 70.7999 83.945 70.8799 84.065 70.9999C84.175 71.1199 84.265 71.2799 84.325 71.4899C84.395 71.7299 84.405 71.9299 84.365 72.0899C84.325 72.2599 84.245 72.3999 84.135 72.5199C84.015 72.6399 83.875 72.7299 83.705 72.8099C83.535 72.8899 83.345 72.9599 83.155 73.0099L82.685 73.1399L83.115 74.6799L82.455 74.8599L81.425 71.1299L81.395 71.1399ZM82.905 72.4599C82.995 72.4299 83.095 72.3999 83.195 72.3699C83.295 72.3299 83.385 72.2899 83.455 72.2299C83.535 72.1699 83.585 72.0999 83.625 72.0099C83.665 71.9199 83.655 71.8199 83.625 71.6899C83.595 71.5699 83.545 71.4899 83.475 71.4299C83.405 71.3799 83.325 71.3399 83.245 71.3199C83.165 71.2999 83.065 71.2999 82.965 71.3199C82.865 71.3399 82.775 71.3599 82.685 71.3799L82.215 71.5099L82.505 72.5599L82.905 72.4499V72.4599Z" fill="#ECEDEB"/>
<path d="M89.245 69.9099C89.065 69.7999 88.905 69.7399 88.765 69.7299C88.625 69.7199 88.485 69.7299 88.355 69.7599C88.165 69.8099 87.995 69.8999 87.855 70.0099C87.715 70.1199 87.605 70.2499 87.535 70.4099C87.465 70.5699 87.405 70.7299 87.395 70.9099C87.385 71.0899 87.395 71.2699 87.445 71.4599C87.505 71.6599 87.585 71.8399 87.695 71.9899C87.805 72.1399 87.935 72.2599 88.075 72.3599C88.215 72.4599 88.385 72.5099 88.555 72.5399C88.735 72.5699 88.915 72.5499 89.105 72.4999C89.255 72.4599 89.395 72.3799 89.515 72.2699C89.635 72.1599 89.735 72.0099 89.815 71.8099L90.475 72.0499C90.375 72.3299 90.215 72.5499 89.995 72.7299C89.785 72.8999 89.535 73.0299 89.265 73.0999C88.975 73.1799 88.695 73.2099 88.435 73.1799C88.175 73.1499 87.925 73.0799 87.705 72.9599C87.485 72.8399 87.295 72.6699 87.125 72.4599C86.965 72.2499 86.835 71.9999 86.755 71.7099C86.675 71.4199 86.645 71.1299 86.675 70.8499C86.705 70.5799 86.785 70.3299 86.915 70.1099C87.045 69.8899 87.215 69.6999 87.425 69.5399C87.635 69.3799 87.895 69.2599 88.175 69.1799C88.425 69.1099 88.675 69.0899 88.915 69.1199C89.155 69.1499 89.395 69.2499 89.645 69.4099L89.235 69.9299L89.245 69.9099Z" fill="#ECEDEB"/>
<path d="M91.3854 68.37L91.9554 68.21L94.5954 71.5L93.8354 71.71L93.2554 70.95L91.6354 71.4L91.5354 72.35L90.7954 72.56L91.3854 68.38V68.37ZM92.8654 70.44L91.8654 69.08L91.7054 70.76L92.8654 70.44Z" fill="#ECEDEB"/>
<path d="M94.1152 67.6199L95.4152 67.2599C95.5952 67.2099 95.7752 67.1799 95.9452 67.1699C96.1152 67.1599 96.2852 67.1699 96.4352 67.2199C96.5852 67.2699 96.7252 67.3499 96.8352 67.4599C96.9552 67.5799 97.0352 67.7399 97.0952 67.9499C97.1652 68.2199 97.1552 68.4699 97.0552 68.6899C96.9552 68.9099 96.7752 69.0799 96.5052 69.1999L97.9552 70.5699L97.1552 70.7899L95.8552 69.4499L95.3752 69.5799L95.8152 71.1599L95.1552 71.3399L94.1252 67.6099L94.1152 67.6199ZM95.7352 68.8699C95.8252 68.8399 95.9252 68.8099 96.0152 68.7799C96.1052 68.7399 96.1852 68.6999 96.2552 68.6399C96.3252 68.5899 96.3752 68.5199 96.4052 68.4299C96.4352 68.3499 96.4352 68.2499 96.4052 68.1199C96.3752 68.0099 96.3252 67.9299 96.2652 67.8799C96.2052 67.8299 96.1252 67.7899 96.0452 67.7799C95.9652 67.7699 95.8752 67.7699 95.7852 67.7799C95.6952 67.7899 95.6052 67.8099 95.5152 67.8399L94.9452 67.9999L95.2252 69.0099L95.7452 68.8699H95.7352Z" fill="#ECEDEB"/>
<path d="M97.5654 66.6599L99.0354 66.2499C99.2854 66.1799 99.5254 66.1499 99.7754 66.1699C100.025 66.1799 100.255 66.2399 100.475 66.3499C100.695 66.4599 100.885 66.6099 101.055 66.8199C101.225 67.0199 101.355 67.2799 101.445 67.5999C101.535 67.9199 101.545 68.2099 101.495 68.4799C101.435 68.7499 101.335 68.9799 101.185 69.1899C101.035 69.3999 100.855 69.5699 100.645 69.7099C100.435 69.8499 100.215 69.9499 99.9854 70.0099L98.5954 70.3999L97.5654 66.6699V66.6599ZM99.5954 69.4699C99.8054 69.4099 99.9954 69.3299 100.165 69.2399C100.335 69.1399 100.475 69.0199 100.585 68.8799C100.695 68.7399 100.765 68.5799 100.805 68.3999C100.835 68.2199 100.825 68.0099 100.765 67.7799C100.705 67.5499 100.615 67.3699 100.495 67.2299C100.375 67.0899 100.245 66.9799 100.095 66.9199C99.9454 66.8499 99.7754 66.8199 99.5954 66.8199C99.4154 66.8199 99.2154 66.8499 99.0154 66.8999L98.4054 67.0699L99.1054 69.5999L99.6054 69.4599L99.5954 69.4699Z" fill="#ECEDEB"/>
<path d="M78.2906 46.2279L76.0645 46.8448L79.6165 59.6618L81.8426 59.0448L78.2906 46.2279Z" fill="#ECEDEB"/>
<path d="M47.715 64.0799C48.565 64.9399 49.525 65.4099 50.605 65.4899C51.685 65.5599 52.745 65.2499 53.805 64.5599C55.265 63.5899 55.975 62.3499 55.925 60.8299L57.875 59.6799C58.255 60.5399 58.195 61.4699 58.045 62.1899C57.665 64.0199 56.435 65.4499 54.965 66.4199C53.205 67.5799 51.405 67.9799 49.575 67.6099C47.745 67.2399 46.265 66.2099 45.155 64.5199C44.045 62.8299 43.665 61.0999 44.015 59.2799C44.365 57.4599 45.395 55.9799 47.105 54.8399C48.735 53.7599 50.435 53.4599 52.225 53.9199C54.015 54.3899 55.435 55.4299 56.505 57.0399C56.695 57.3199 56.855 57.6199 57.015 57.9499L47.715 64.0999V64.0799ZM48.305 56.6399C47.265 57.3299 46.605 58.1899 46.315 59.2199C46.025 60.2599 46.115 61.3099 46.595 62.3999L54.005 57.4999C53.145 56.5599 52.205 56.0299 51.175 55.9299C50.145 55.8199 49.185 56.0599 48.305 56.6499V56.6399Z" fill="#ECEDEB"/>
<path d="M88.7648 52.7099C89.6148 53.5699 90.5748 54.0399 91.6548 54.1199C92.7348 54.1899 93.7948 53.8799 94.8548 53.1899C96.3148 52.2199 97.0248 50.9799 96.9748 49.4599L98.9248 48.3099C99.3048 49.1699 99.2448 50.0999 99.0948 50.8199C98.7148 52.6499 97.4848 54.0799 96.0148 55.0499C94.2548 56.2099 92.4548 56.6099 90.6248 56.2399C88.7948 55.8699 87.3148 54.8399 86.2048 53.1499C85.0948 51.4799 84.7148 49.7299 85.0648 47.9099C85.4148 46.0899 86.4448 44.6099 88.1548 43.4699C89.7848 42.3899 91.4848 42.0899 93.2748 42.5499C95.0648 43.0199 96.4848 44.0599 97.5548 45.6699C97.7448 45.9499 97.9048 46.2499 98.0648 46.5799L88.7648 52.7299V52.7099ZM89.3548 45.2699C88.3148 45.9599 87.6548 46.8199 87.3648 47.8499C87.0748 48.8899 87.1648 49.9399 87.6448 51.0299L95.0548 46.1299C94.1948 45.1899 93.2548 44.6599 92.2248 44.5599C91.1948 44.4499 90.2348 44.6899 89.3548 45.2799V45.2699Z" fill="#ECEDEB"/>
<path d="M69.1851 48.76L71.5951 48.09L70.0151 62.33L67.4051 63.05L58.7251 51.65L61.1351 50.98L68.0451 60.27L69.1851 48.74V48.76Z" fill="#ECEDEB"/>
<path d="M91.3352 59.7399C91.6352 59.6599 91.9252 59.6999 92.2052 59.8699C92.4852 60.0399 92.6652 60.2899 92.7552 60.6199C92.8452 60.9499 92.8152 61.2599 92.6652 61.5499C92.5152 61.8399 92.2852 62.0199 91.9852 62.1099C91.6852 62.1999 91.3952 62.1599 91.1652 61.9799L91.2352 62.2399L90.6552 62.3999L89.7852 59.2599L90.3652 59.0999L90.6852 60.2599C90.7952 59.9899 91.0052 59.8199 91.3252 59.7299L91.3352 59.7399ZM91.2352 61.5299C91.3852 61.6199 91.5452 61.6299 91.7252 61.5799C91.9052 61.5299 92.0352 61.4299 92.1252 61.2799C92.2152 61.1299 92.2252 60.9599 92.1752 60.7699C92.1252 60.5799 92.0252 60.4499 91.8752 60.3599C91.7252 60.2699 91.5552 60.2599 91.3752 60.3099C91.1952 60.3599 91.0652 60.4599 90.9752 60.6099C90.8952 60.7599 90.8752 60.9299 90.9252 61.1099C90.9752 61.2899 91.0752 61.4299 91.2252 61.5199L91.2352 61.5299Z" fill="#ECEDEB"/>
<path d="M93.2951 58.9799C93.1951 59.0099 93.1051 58.9899 93.0151 58.9399C92.9251 58.8899 92.8651 58.8199 92.8451 58.7199C92.8251 58.6199 92.8351 58.5299 92.8851 58.4399C92.9351 58.3499 93.0051 58.2899 93.1051 58.2599C93.2051 58.2299 93.2951 58.2499 93.3851 58.2999C93.4751 58.3499 93.5351 58.4299 93.5651 58.5199C93.5951 58.6099 93.5751 58.7099 93.5251 58.7999C93.4751 58.8899 93.3951 58.9499 93.3051 58.9799H93.2951ZM93.7051 61.5699L93.0851 59.3199L93.6651 59.1599L94.2851 61.4099L93.7051 61.5699Z" fill="#ECEDEB"/>
<path d="M97.1153 60.6299L96.4453 60.8199L95.3453 60.0299L95.6253 61.0499L95.0453 61.2099L94.1753 58.0699L94.7553 57.9099L95.2753 59.7999L95.7753 58.5899L96.4653 58.3999L95.8653 59.7599L97.1053 60.6399L97.1153 60.6299Z" fill="#ECEDEB"/>
<path d="M97.7052 59.5099C97.8652 59.7699 98.1152 59.8499 98.4552 59.7599C98.6752 59.6999 98.8252 59.5799 98.8952 59.3999L99.4352 59.5399C99.3052 59.9199 99.0252 60.1699 98.5852 60.2899C98.2152 60.3899 97.8852 60.3599 97.5952 60.1999C97.3052 60.0399 97.1152 59.7899 97.0252 59.4399C96.9352 59.0899 96.9652 58.7899 97.1252 58.4999C97.2852 58.2099 97.5352 58.0199 97.8852 57.9199C98.2152 57.8299 98.5152 57.8699 98.7952 58.0399C99.0752 58.2099 99.2552 58.4599 99.3552 58.7999C99.3752 58.8699 99.3952 58.9599 99.3952 59.0399L97.7052 59.5099ZM97.5752 59.0599L98.7252 58.7399C98.6452 58.5999 98.5552 58.4999 98.4252 58.4599C98.3052 58.4099 98.1752 58.4099 98.0452 58.4499C97.8852 58.4899 97.7752 58.5699 97.6952 58.6799C97.6152 58.7899 97.5752 58.9199 97.5852 59.0699L97.5752 59.0599Z" fill="#ECEDEB"/>
<path d="M100.295 58.0199C100.315 58.0799 100.365 58.1199 100.455 58.1299C100.545 58.1499 100.655 58.1499 100.775 58.1499C100.895 58.1499 101.025 58.1499 101.145 58.1599C101.275 58.1699 101.385 58.2199 101.495 58.2999C101.605 58.3799 101.675 58.4999 101.715 58.6499C101.775 58.8799 101.745 59.0799 101.605 59.2499C101.465 59.4199 101.265 59.5399 101.015 59.6099C100.555 59.7399 100.195 59.6499 99.9249 59.3399L100.345 58.9199C100.465 59.0999 100.635 59.1499 100.865 59.0899C101.075 59.0299 101.155 58.9399 101.125 58.8099C101.105 58.7499 101.055 58.7099 100.965 58.6999C100.875 58.6799 100.765 58.6799 100.645 58.6799C100.525 58.6799 100.395 58.6799 100.275 58.6599C100.145 58.6499 100.035 58.5999 99.9249 58.5299C99.8149 58.4499 99.7449 58.3399 99.7049 58.1999C99.6449 57.9799 99.6749 57.7799 99.8049 57.6099C99.9349 57.4399 100.115 57.3199 100.365 57.2499C100.545 57.1999 100.725 57.1899 100.895 57.2399C101.065 57.2799 101.215 57.3699 101.345 57.4899L100.925 57.8999C100.815 57.7699 100.665 57.7199 100.505 57.7699C100.435 57.7899 100.375 57.8199 100.335 57.8699C100.295 57.9199 100.285 57.9699 100.295 58.0299V58.0199Z" fill="#ECEDEB"/>
<path d="M249.517 8.64397L87.6318 0.499872C86.0653 0.421064 84.7315 1.62708 84.6527 3.19359L79.0374 114.812C78.9586 116.379 80.1646 117.713 81.7311 117.792L243.616 125.936C245.183 126.014 246.517 124.808 246.596 123.242L252.211 11.6231C252.29 10.0566 251.084 8.72278 249.517 8.64397Z" fill="white" stroke="black" stroke-miterlimit="10"/>
<path d="M91.1847 103.12L89.8947 101.05L90.8347 101.1L91.7447 102.7L92.7947 101.2L93.6947 101.25L92.2247 103.18L93.6347 105.44L92.6847 105.39L91.6647 103.57L90.4747 105.28L89.5747 105.23L91.1747 103.12H91.1847Z" fill="#201D1D"/>
<path d="M95.2345 103.33L93.9445 101.26L94.8845 101.31L95.7945 102.91L96.8445 101.41L97.7445 101.46L96.2745 103.39L97.6845 105.65L96.7345 105.6L95.7145 103.78L94.5245 105.49L93.6245 105.44L95.2245 103.33H95.2345Z" fill="#201D1D"/>
<path d="M99.2848 103.53L97.9948 101.46L98.9348 101.51L99.8448 103.11L100.895 101.61L101.795 101.66L100.325 103.59L101.735 105.85L100.785 105.8L99.7648 103.98L98.5748 105.69L97.6748 105.65L99.2748 103.54L99.2848 103.53Z" fill="#201D1D"/>
<path d="M103.335 103.74L102.045 101.67L102.985 101.72L103.895 103.32L104.945 101.82L105.845 101.87L104.375 103.8L105.785 106.06L104.835 106.01L103.815 104.19L102.625 105.9L101.725 105.85L103.325 103.74H103.335Z" fill="#201D1D"/>
<path d="M107.385 103.94L106.095 101.87L107.035 101.92L107.945 103.52L108.995 102.02L109.895 102.07L108.425 104L109.835 106.26L108.885 106.21L107.865 104.39L106.675 106.1L105.775 106.06L107.375 103.95L107.385 103.94Z" fill="#201D1D"/>
<path d="M111.435 104.14L110.145 102.07L111.085 102.12L111.995 103.72L113.045 102.22L113.945 102.27L112.475 104.2L113.885 106.46L112.935 106.41L111.915 104.59L110.725 106.3L109.825 106.25L111.425 104.14H111.435Z" fill="#201D1D"/>
<path d="M117.235 104.44L115.945 102.37L116.885 102.42L117.795 104.02L118.845 102.52L119.745 102.57L118.275 104.5L119.685 106.76L118.735 106.71L117.715 104.89L116.525 106.6L115.625 106.55L117.225 104.44H117.235Z" fill="#201D1D"/>
<path d="M121.285 104.64L119.995 102.57L120.935 102.62L121.845 104.22L122.895 102.72L123.795 102.77L122.325 104.7L123.735 106.96L122.785 106.91L121.765 105.09L120.575 106.8L119.675 106.76L121.275 104.65L121.285 104.64Z" fill="#201D1D"/>
<path d="M125.325 104.84L124.035 102.77L124.975 102.82L125.885 104.42L126.935 102.92L127.835 102.97L126.365 104.9L127.775 107.16L126.825 107.11L125.805 105.29L124.615 107L123.715 106.96L125.315 104.85L125.325 104.84Z" fill="#201D1D"/>
<path d="M129.375 105.05L128.085 102.98L129.025 103.03L129.935 104.63L130.985 103.13L131.885 103.18L130.415 105.11L131.825 107.37L130.875 107.32L129.855 105.5L128.665 107.21L127.765 107.16L129.365 105.05H129.375Z" fill="#201D1D"/>
<path d="M135.174 105.34L133.884 103.27L134.824 103.32L135.734 104.92L136.784 103.42L137.684 103.47L136.214 105.4L137.624 107.66L136.674 107.61L135.654 105.79L134.464 107.5L133.564 107.45L135.164 105.34H135.174Z" fill="#201D1D"/>
<path d="M139.225 105.54L137.935 103.47L138.875 103.52L139.785 105.12L140.835 103.62L141.735 103.67L140.265 105.6L141.675 107.86L140.725 107.81L139.705 105.99L138.515 107.7L137.615 107.66L139.215 105.55L139.225 105.54Z" fill="#201D1D"/>
<path d="M143.275 105.75L141.985 103.68L142.925 103.73L143.835 105.33L144.885 103.83L145.785 103.88L144.315 105.81L145.725 108.07L144.775 108.02L143.755 106.2L142.565 107.91L141.665 107.86L143.265 105.75H143.275Z" fill="#201D1D"/>
<path d="M147.325 105.95L146.035 103.88L146.975 103.93L147.885 105.53L148.935 104.03L149.835 104.08L148.365 106.01L149.775 108.27L148.825 108.22L147.805 106.4L146.615 108.11L145.715 108.07L147.315 105.96L147.325 105.95Z" fill="#201D1D"/>
<path d="M151.375 106.16L150.085 104.09L151.025 104.14L151.935 105.74L152.985 104.24L153.885 104.29L152.415 106.22L153.825 108.48L152.875 108.43L151.855 106.61L150.665 108.32L149.765 108.27L151.365 106.16H151.375Z" fill="#201D1D"/>
<path d="M155.424 106.36L154.134 104.29L155.074 104.34L155.984 105.94L157.034 104.44L157.934 104.49L156.464 106.42L157.874 108.68L156.924 108.63L155.904 106.81L154.714 108.52L153.814 108.47L155.414 106.36H155.424Z" fill="#201D1D"/>
<path d="M159.474 106.56L158.184 104.49L159.124 104.54L160.034 106.14L161.084 104.64L161.984 104.69L160.514 106.62L161.924 108.88L160.974 108.83L159.954 107.01L158.764 108.72L157.864 108.68L159.464 106.57L159.474 106.56Z" fill="#201D1D"/>
<path d="M163.525 106.77L162.235 104.7L163.175 104.75L164.085 106.35L165.135 104.85L166.035 104.9L164.565 106.83L165.975 109.09L165.025 109.04L164.005 107.22L162.815 108.93L161.915 108.88L163.515 106.77H163.525Z" fill="#201D1D"/>
<path d="M175.935 107.39L174.645 105.32L175.585 105.37L176.495 106.97L177.545 105.47L178.445 105.52L176.975 107.45L178.385 109.71L177.435 109.66L176.415 107.84L175.225 109.55L174.325 109.5L175.925 107.39H175.935Z" fill="#201D1D"/>
<path d="M179.985 107.6L178.695 105.53L179.635 105.58L180.545 107.18L181.595 105.68L182.495 105.73L181.025 107.66L182.435 109.92L181.485 109.87L180.465 108.05L179.275 109.76L178.375 109.72L179.975 107.61L179.985 107.6Z" fill="#201D1D"/>
<path d="M184.035 107.8L182.745 105.73L183.685 105.78L184.595 107.38L185.645 105.88L186.545 105.93L185.075 107.86L186.485 110.12L185.535 110.07L184.515 108.25L183.325 109.96L182.425 109.91L184.025 107.8H184.035Z" fill="#201D1D"/>
<path d="M188.086 108L186.796 105.93L187.736 105.98L188.646 107.58L189.696 106.08L190.596 106.13L189.126 108.06L190.536 110.32L189.586 110.27L188.566 108.45L187.376 110.16L186.476 110.11L188.076 108H188.086Z" fill="#201D1D"/>
<path d="M192.135 108.21L190.845 106.14L191.785 106.19L192.695 107.79L193.745 106.29L194.645 106.34L193.175 108.27L194.585 110.53L193.635 110.48L192.615 108.66L191.425 110.37L190.525 110.32L192.125 108.21H192.135Z" fill="#201D1D"/>
<path d="M196.175 108.41L194.885 106.34L195.825 106.39L196.735 107.99L197.785 106.49L198.685 106.54L197.215 108.47L198.625 110.73L197.675 110.68L196.655 108.86L195.465 110.57L194.565 110.52L196.165 108.41H196.175Z" fill="#201D1D"/>
<path d="M200.225 108.62L198.935 106.55L199.875 106.6L200.785 108.2L201.835 106.7L202.735 106.75L201.265 108.68L202.675 110.94L201.725 110.89L200.705 109.07L199.515 110.78L198.615 110.74L200.215 108.63L200.225 108.62Z" fill="#201D1D"/>
<path d="M204.275 108.82L202.985 106.75L203.925 106.8L204.835 108.4L205.885 106.9L206.785 106.95L205.315 108.88L206.725 111.14L205.775 111.09L204.755 109.27L203.565 110.98L202.665 110.93L204.265 108.82H204.275Z" fill="#201D1D"/>
<path d="M168.744 45.34L168.064 58.93L181.654 59.61L182.334 46.02L168.744 45.34ZM177.354 54.86L172.824 54.63L173.054 50.1L177.584 50.33L177.354 54.86Z" fill="black"/>
<path d="M150.615 44.4299L149.935 58.0199L163.525 58.6999L164.205 45.1099L150.615 44.4299ZM159.225 53.9499L154.695 53.7199L154.925 49.1899L159.455 49.4199L159.225 53.9499Z" fill="black"/>
<path d="M172.373 63.6906L167.839 63.4625L167.611 67.9968L172.145 68.2249L172.373 63.6906Z" fill="black"/>
<path d="M176.669 68.4506L172.135 68.2225L171.907 72.7568L176.441 72.9849L176.669 68.4506Z" fill="black"/>
<path d="M171.909 72.7461L167.375 72.5179L167.147 77.0522L171.681 77.2803L171.909 72.7461Z" fill="black"/>
<path d="M181.201 68.6779L176.667 68.4498L176.439 72.9841L180.973 73.2122L181.201 68.6779Z" fill="black"/>
<path d="M180.984 73.2113L176.45 72.9832L176.222 77.5174L180.756 77.7455L180.984 73.2113Z" fill="black"/>
<path d="M149.705 62.5599L149.025 76.1499L162.615 76.8299L163.295 63.2399L149.705 62.5599ZM158.315 72.0799L153.785 71.8499L154.015 67.3199L158.545 67.5499L158.315 72.0799Z" fill="black"/>
<path d="M235.724 19.7683L100.945 12.9878L100.737 17.1226L235.516 23.903L235.724 19.7683Z" fill="#8E8E8E"/>
<path d="M238.98 25.525L97.1094 18.3878L96.9014 22.5226L238.772 29.6598L238.98 25.525Z" fill="#8E8E8E"/>
<path d="M90.4548 97.78C90.5248 97.89 90.6048 97.97 90.7148 98.03C90.8248 98.09 90.9347 98.12 91.0547 98.12C91.1247 98.12 91.1848 98.12 91.2548 98.1C91.3248 98.08 91.3847 98.05 91.4447 98.02C91.5047 97.98 91.5547 97.93 91.5947 97.87C91.6347 97.81 91.6547 97.74 91.6547 97.66C91.6547 97.55 91.6248 97.46 91.5648 97.4C91.4948 97.34 91.4147 97.28 91.3047 97.24C91.1947 97.2 91.0848 97.15 90.9648 97.11C90.8448 97.07 90.7247 97.01 90.6247 96.94C90.5247 96.87 90.4347 96.77 90.3747 96.66C90.3047 96.54 90.2847 96.39 90.2947 96.2C90.2947 96.11 90.3247 96.02 90.3647 95.93C90.4047 95.84 90.4747 95.75 90.5547 95.67C90.6347 95.59 90.7447 95.53 90.8747 95.48C91.0047 95.43 91.1547 95.41 91.3347 95.42C91.4947 95.42 91.6447 95.46 91.7947 95.51C91.9347 95.56 92.0647 95.66 92.1647 95.8L91.8248 96.08C91.7748 96 91.7147 95.93 91.6247 95.88C91.5347 95.83 91.4348 95.8 91.3148 95.79C91.2048 95.79 91.1148 95.79 91.0348 95.82C90.9548 95.84 90.9048 95.88 90.8548 95.92C90.8048 95.96 90.7748 96.01 90.7548 96.06C90.7348 96.11 90.7247 96.16 90.7247 96.2C90.7247 96.32 90.7548 96.42 90.8148 96.49C90.8848 96.56 90.9648 96.62 91.0748 96.66C91.1848 96.7 91.2947 96.75 91.4147 96.79C91.5347 96.83 91.6548 96.88 91.7548 96.95C91.8548 97.01 91.9448 97.1 92.0048 97.2C92.0748 97.3 92.0947 97.44 92.0947 97.62C92.0947 97.76 92.0548 97.89 91.9948 98C91.9348 98.11 91.8547 98.2 91.7647 98.28C91.6747 98.35 91.5548 98.41 91.4348 98.44C91.3048 98.48 91.1748 98.49 91.0348 98.48C90.8448 98.48 90.6748 98.43 90.5048 98.35C90.3348 98.28 90.2147 98.17 90.1147 98.02L90.4548 97.76V97.78Z" fill="#201D1D"/>
<path d="M92.8846 95.5799L94.7746 95.6799L94.7546 96.0499L93.2646 95.9699L93.2246 96.8399L94.6146 96.91L94.5946 97.2799L93.2046 97.2099L93.1546 98.1499L94.7246 98.2299L94.7046 98.5999L92.7446 98.4999L92.8946 95.5699L92.8846 95.5799Z" fill="#201D1D"/>
<path d="M95.5147 95.71L96.5447 95.76C96.7347 95.76 96.8847 95.8 97.0047 95.86C97.1247 95.92 97.2147 95.99 97.2847 96.07C97.3547 96.15 97.3947 96.24 97.4147 96.34C97.4347 96.44 97.4447 96.53 97.4447 96.63C97.4447 96.72 97.4147 96.81 97.3847 96.9C97.3447 96.99 97.2947 97.06 97.2247 97.13C97.1547 97.2 97.0847 97.25 96.9847 97.3C96.8947 97.34 96.7947 97.37 96.6747 97.37L97.4347 98.75L96.9347 98.73L96.2547 97.4L95.8147 97.38L95.7447 98.67L95.3447 98.65L95.4947 95.72L95.5147 95.71ZM95.8447 97.02L96.3647 97.05C96.4447 97.05 96.5147 97.05 96.5947 97.05C96.6747 97.05 96.7347 97.02 96.8047 96.99C96.8747 96.96 96.9147 96.91 96.9547 96.85C96.9947 96.79 97.0147 96.71 97.0247 96.61C97.0247 96.51 97.0247 96.43 96.9847 96.36C96.9547 96.3 96.9047 96.25 96.8447 96.21C96.7847 96.17 96.7247 96.15 96.6447 96.13C96.5747 96.11 96.4947 96.1 96.4147 96.1L95.8947 96.07L95.8447 97.01V97.02Z" fill="#201D1D"/>
<path d="M98.1446 95.85L98.5446 95.87L98.3946 98.8L97.9946 98.78L98.1446 95.85Z" fill="#201D1D"/>
<path d="M100.325 95.96L100.685 95.98L101.795 98.97L101.335 98.95L101.075 98.21L99.6845 98.14L99.3545 98.85L98.8945 98.83L100.335 95.97L100.325 95.96ZM100.945 97.85L100.465 96.48L99.8445 97.8L100.955 97.86L100.945 97.85Z" fill="#201D1D"/>
<path d="M102.425 96.0599L102.825 96.0799L102.695 98.6399L104.035 98.7099L104.015 99.0799L102.275 98.9899L102.425 96.0599Z" fill="#201D1D"/>
<path d="M105.925 96.24L106.445 96.27L107.935 98.76L108.055 96.35L108.455 96.37L108.305 99.3L107.795 99.27L106.285 96.78L106.165 99.19L105.765 99.17L105.915 96.24H105.925Z" fill="#201D1D"/>
<path d="M109.665 96.4299L109.575 98.2299C109.575 98.3199 109.575 98.4199 109.595 98.5199C109.615 98.6199 109.655 98.7099 109.705 98.7999C109.755 98.8899 109.835 98.9599 109.925 99.0099C110.015 99.0699 110.135 99.0999 110.265 99.1099C110.405 99.1099 110.525 99.0999 110.615 99.0499C110.715 98.9999 110.795 98.9399 110.855 98.8599C110.915 98.7799 110.965 98.6899 110.995 98.5899C111.025 98.4899 111.045 98.3999 111.045 98.3099L111.135 96.5099L111.535 96.5299L111.445 98.3899C111.445 98.5599 111.405 98.7099 111.335 98.8499C111.265 98.9899 111.185 99.0999 111.075 99.1999C110.965 99.2999 110.845 99.3699 110.705 99.4199C110.565 99.4699 110.415 99.4899 110.255 99.4799C110.095 99.4699 109.945 99.4399 109.815 99.3699C109.685 99.2999 109.565 99.2199 109.465 99.1199C109.365 99.0099 109.295 98.8899 109.245 98.7499C109.195 98.6099 109.175 98.4499 109.185 98.2799L109.275 96.4199L109.675 96.4399L109.665 96.4299Z" fill="#201D1D"/>
<path d="M112.305 96.5599L112.895 96.5899L113.715 98.8499H113.735L114.765 96.6799L115.355 96.7099L115.205 99.6399L114.805 99.6199L114.925 97.2099L113.815 99.5699H113.545L112.675 97.0999L112.555 99.5099L112.155 99.4899L112.305 96.5599Z" fill="#201D1D"/>
<path d="M116.195 96.76L117.215 96.81C117.345 96.81 117.455 96.84 117.565 96.87C117.675 96.91 117.765 96.95 117.845 97.02C117.925 97.08 117.975 97.16 118.015 97.26C118.055 97.36 118.075 97.46 118.065 97.59C118.065 97.76 118.005 97.89 117.905 97.99C117.805 98.09 117.685 98.16 117.525 98.21C117.615 98.23 117.695 98.25 117.775 98.3C117.845 98.34 117.915 98.4 117.965 98.47C118.015 98.54 118.055 98.62 118.085 98.7C118.115 98.78 118.125 98.88 118.125 98.98C118.125 99.11 118.085 99.23 118.025 99.33C117.965 99.43 117.885 99.51 117.795 99.57C117.695 99.63 117.585 99.68 117.465 99.71C117.335 99.74 117.205 99.75 117.055 99.74L116.055 99.69L116.205 96.76H116.195ZM116.465 99.36L117.045 99.39C117.105 99.39 117.175 99.39 117.245 99.39C117.315 99.39 117.385 99.36 117.455 99.33C117.525 99.3 117.575 99.25 117.625 99.19C117.675 99.13 117.695 99.04 117.705 98.94C117.705 98.77 117.665 98.63 117.555 98.54C117.445 98.45 117.295 98.4 117.105 98.39L116.515 98.36L116.465 99.38V99.36ZM116.535 97.99L117.075 98.02C117.145 98.02 117.225 98.02 117.285 98.01C117.355 98 117.415 97.98 117.465 97.94C117.515 97.91 117.555 97.86 117.585 97.81C117.615 97.76 117.635 97.69 117.635 97.61C117.635 97.49 117.605 97.39 117.535 97.3C117.465 97.21 117.345 97.16 117.185 97.15L116.565 97.12L116.525 97.99H116.535Z" fill="#201D1D"/>
<path d="M118.905 96.89L120.795 96.99L120.775 97.36L119.285 97.28L119.245 98.15L120.635 98.22L120.615 98.59L119.225 98.52L119.175 99.46L120.745 99.54L120.725 99.91L118.755 99.81L118.905 96.88V96.89Z" fill="#201D1D"/>
<path d="M121.535 97.02L122.565 97.07C122.755 97.07 122.905 97.11 123.025 97.17C123.145 97.23 123.235 97.3 123.305 97.38C123.375 97.46 123.415 97.55 123.435 97.65C123.455 97.75 123.465 97.84 123.465 97.94C123.465 98.03 123.435 98.12 123.405 98.21C123.365 98.3 123.315 98.37 123.245 98.44C123.185 98.51 123.105 98.56 123.005 98.61C122.915 98.65 122.815 98.68 122.695 98.68L123.455 100.06L122.955 100.03L122.275 98.7L121.835 98.68L121.765 99.97L121.365 99.95L121.515 97.02H121.535ZM121.865 98.33L122.385 98.36C122.465 98.36 122.535 98.36 122.615 98.36C122.695 98.36 122.755 98.33 122.825 98.3C122.895 98.27 122.935 98.22 122.975 98.16C123.015 98.1 123.035 98.02 123.045 97.92C123.045 97.82 123.045 97.74 123.005 97.67C122.975 97.61 122.925 97.56 122.865 97.52C122.805 97.48 122.745 97.46 122.665 97.44C122.595 97.42 122.515 97.41 122.435 97.41L121.915 97.38L121.865 98.32V98.33Z" fill="#201D1D"/>
<path d="M174.805 99.71L175.265 99.73L176.005 102.16L177.015 99.82L177.445 99.84L176.145 102.71L175.775 102.69L174.795 99.7L174.805 99.71Z" fill="#201D1D"/>
<path d="M178.645 99.8999L179.005 99.9199L180.115 102.91L179.655 102.89L179.395 102.15L177.995 102.08L177.665 102.79L177.205 102.77L178.645 99.9099V99.8999ZM179.265 101.79L178.785 100.42L178.165 101.74L179.275 101.8L179.265 101.79Z" fill="#201D1D"/>
<path d="M180.744 100L181.144 100.02L181.014 102.58L182.364 102.65L182.344 103.02L180.604 102.93L180.754 100H180.744Z" fill="#201D1D"/>
<path d="M182.995 100.12L183.395 100.14L183.245 103.07L182.845 103.05L182.995 100.12Z" fill="#201D1D"/>
<path d="M184.185 100.18L185.205 100.23C185.415 100.24 185.595 100.27 185.745 100.33C185.895 100.39 186.035 100.45 186.145 100.54C186.255 100.62 186.345 100.72 186.415 100.83C186.485 100.93 186.535 101.04 186.575 101.15C186.615 101.26 186.645 101.37 186.655 101.48C186.665 101.59 186.675 101.69 186.665 101.78C186.665 101.97 186.615 102.15 186.535 102.32C186.455 102.49 186.345 102.64 186.205 102.77C186.065 102.9 185.885 103 185.685 103.07C185.485 103.14 185.245 103.17 184.985 103.16L184.025 103.11L184.175 100.18H184.185ZM184.455 102.76L184.955 102.78C185.125 102.78 185.285 102.78 185.435 102.74C185.585 102.7 185.725 102.64 185.845 102.56C185.965 102.47 186.055 102.36 186.135 102.23C186.205 102.1 186.245 101.94 186.255 101.76C186.255 101.67 186.255 101.56 186.225 101.43C186.205 101.3 186.145 101.18 186.075 101.06C186.005 100.94 185.885 100.84 185.735 100.75C185.595 100.66 185.405 100.61 185.165 100.6L184.565 100.57L184.455 102.75V102.76Z" fill="#201D1D"/>
<path d="M188.335 100.39L188.695 100.41L189.805 103.4L189.345 103.38L189.085 102.64L187.695 102.57L187.365 103.28L186.905 103.26L188.345 100.4L188.335 100.39ZM188.955 102.28L188.475 100.91L187.855 102.23L188.965 102.29L188.955 102.28Z" fill="#201D1D"/>
<path d="M190.645 100.88L189.705 100.83L189.725 100.46L192.005 100.58L191.985 100.95L191.045 100.9L190.915 103.46L190.515 103.44L190.645 100.88Z" fill="#201D1D"/>
<path d="M192.535 100.6L192.935 100.62L192.785 103.55L192.385 103.53L192.535 100.6Z" fill="#201D1D"/>
<path d="M194.975 103.73C194.755 103.72 194.545 103.67 194.365 103.58C194.185 103.49 194.025 103.38 193.905 103.23C193.775 103.09 193.685 102.92 193.615 102.73C193.545 102.54 193.525 102.33 193.535 102.12C193.545 101.9 193.595 101.7 193.675 101.52C193.765 101.34 193.875 101.18 194.015 101.05C194.155 100.92 194.325 100.82 194.515 100.75C194.705 100.68 194.915 100.65 195.135 100.66C195.355 100.67 195.565 100.72 195.745 100.81C195.925 100.9 196.085 101.01 196.215 101.16C196.345 101.31 196.435 101.47 196.505 101.66C196.575 101.85 196.595 102.06 196.585 102.27C196.575 102.49 196.525 102.69 196.445 102.87C196.365 103.05 196.245 103.21 196.105 103.34C195.965 103.47 195.795 103.57 195.605 103.64C195.415 103.71 195.205 103.74 194.985 103.73H194.975ZM194.995 103.36C195.165 103.36 195.315 103.34 195.455 103.29C195.595 103.24 195.715 103.16 195.815 103.06C195.915 102.96 195.995 102.84 196.055 102.7C196.115 102.56 196.145 102.41 196.155 102.25C196.165 102.09 196.145 101.94 196.095 101.79C196.045 101.65 195.985 101.52 195.885 101.41C195.795 101.3 195.685 101.21 195.555 101.14C195.425 101.07 195.275 101.03 195.105 101.02C194.935 101.01 194.785 101.04 194.645 101.09C194.505 101.15 194.385 101.22 194.285 101.32C194.185 101.42 194.105 101.54 194.045 101.68C193.985 101.82 193.955 101.97 193.945 102.13C193.935 102.29 193.955 102.44 194.005 102.59C194.045 102.74 194.115 102.86 194.205 102.97C194.295 103.08 194.405 103.17 194.535 103.24C194.665 103.31 194.815 103.35 194.985 103.36H194.995Z" fill="#201D1D"/>
<path d="M197.335 100.84L197.855 100.87L199.345 103.36L199.465 100.95L199.865 100.97L199.715 103.9L199.215 103.87L197.705 101.38L197.585 103.79L197.185 103.77L197.335 100.84Z" fill="#201D1D"/>
<path d="M201.985 101.07L202.385 101.09L202.325 102.36H202.355L203.715 101.16L204.265 101.19L202.785 102.47L204.215 104.12L203.635 104.09L202.345 102.56H202.315L202.245 104.02L201.845 104L201.995 101.07H201.985Z" fill="#201D1D"/>
<path d="M204.765 101.21L206.655 101.31L206.635 101.68L205.145 101.6L205.105 102.47L206.495 102.54L206.475 102.91L205.085 102.84L205.035 103.78L206.605 103.86L206.585 104.23L204.625 104.13L204.775 101.2L204.765 101.21Z" fill="#201D1D"/>
<path d="M208.005 103.06L206.985 101.32L207.495 101.35L208.225 102.68L209.115 101.43L209.605 101.45L208.415 103.07L208.355 104.32L207.955 104.3L208.015 103.05L208.005 103.06Z" fill="#201D1D"/>
<path d="M211.695 102.48C211.565 102.65 211.465 102.83 211.395 103.02C211.315 103.21 211.275 103.41 211.265 103.62C211.265 103.83 211.275 104.03 211.335 104.23C211.395 104.43 211.475 104.62 211.585 104.79L211.325 104.94C211.195 104.75 211.105 104.54 211.035 104.31C210.975 104.08 210.945 103.85 210.955 103.61C210.965 103.37 211.015 103.14 211.105 102.92C211.195 102.7 211.305 102.5 211.455 102.32L211.695 102.49V102.48Z" fill="#201D1D"/>
<path d="M213.465 102.98C213.395 102.89 213.325 102.83 213.255 102.8C213.185 102.77 213.115 102.75 213.045 102.75C212.935 102.75 212.835 102.75 212.745 102.79C212.655 102.83 212.575 102.87 212.515 102.94C212.445 103.01 212.395 103.08 212.355 103.17C212.315 103.26 212.295 103.36 212.285 103.46C212.285 103.57 212.285 103.68 212.325 103.77C212.355 103.87 212.405 103.95 212.455 104.02C212.515 104.09 212.585 104.15 212.675 104.19C212.765 104.23 212.855 104.26 212.965 104.26C213.045 104.26 213.135 104.25 213.215 104.21C213.295 104.17 213.375 104.11 213.445 104.03L213.745 104.26C213.645 104.39 213.525 104.47 213.385 104.53C213.245 104.58 213.105 104.6 212.945 104.6C212.785 104.6 212.635 104.56 212.505 104.5C212.375 104.44 212.255 104.36 212.165 104.26C212.075 104.16 212.005 104.04 211.955 103.9C211.905 103.76 211.885 103.61 211.895 103.45C211.895 103.28 211.935 103.13 212.005 103C212.065 102.87 212.145 102.75 212.255 102.66C212.365 102.57 212.475 102.5 212.615 102.45C212.755 102.4 212.905 102.39 213.065 102.39C213.205 102.39 213.335 102.43 213.455 102.48C213.575 102.54 213.685 102.63 213.785 102.75L213.485 102.95L213.465 102.98Z" fill="#201D1D"/>
<path d="M214.824 102.56L215.144 102.58L215.944 104.72L215.524 104.7L215.354 104.21L214.444 104.16L214.234 104.63L213.814 104.61L214.834 102.56H214.824ZM215.234 103.88L214.954 103.01L214.584 103.84L215.234 103.87V103.88Z" fill="#201D1D"/>
<path d="M217.365 103.14C217.325 103.08 217.275 103.04 217.215 103.01C217.155 102.98 217.085 102.96 217.005 102.96C216.965 102.96 216.915 102.96 216.875 102.96C216.835 102.96 216.795 102.98 216.765 103C216.735 103.02 216.705 103.05 216.685 103.08C216.665 103.11 216.655 103.15 216.645 103.2C216.645 103.27 216.665 103.33 216.705 103.37C216.755 103.41 216.815 103.45 216.885 103.48C216.955 103.51 217.035 103.54 217.125 103.57C217.215 103.6 217.285 103.64 217.355 103.69C217.425 103.74 217.485 103.8 217.525 103.88C217.575 103.96 217.595 104.06 217.585 104.18C217.585 104.29 217.555 104.39 217.505 104.47C217.455 104.55 217.405 104.62 217.325 104.67C217.255 104.72 217.165 104.76 217.075 104.78C216.985 104.8 216.885 104.81 216.785 104.81C216.655 104.81 216.535 104.78 216.415 104.73C216.295 104.68 216.195 104.6 216.115 104.5L216.405 104.24C216.445 104.31 216.505 104.37 216.575 104.41C216.645 104.45 216.725 104.48 216.805 104.48C216.845 104.48 216.895 104.48 216.935 104.47C216.975 104.47 217.015 104.44 217.055 104.42C217.095 104.4 217.125 104.37 217.145 104.33C217.165 104.29 217.185 104.25 217.185 104.21C217.185 104.13 217.165 104.07 217.115 104.03C217.065 103.99 217.005 103.95 216.935 103.92C216.865 103.89 216.785 103.86 216.695 103.83C216.615 103.8 216.535 103.76 216.465 103.71C216.395 103.66 216.335 103.6 216.295 103.52C216.255 103.44 216.235 103.34 216.235 103.22C216.235 103.11 216.265 103.02 216.315 102.94C216.365 102.86 216.425 102.8 216.495 102.75C216.565 102.7 216.655 102.67 216.745 102.65C216.835 102.63 216.935 102.62 217.035 102.63C217.145 102.63 217.255 102.66 217.355 102.7C217.455 102.74 217.545 102.8 217.625 102.88L217.335 103.15L217.365 103.14Z" fill="#201D1D"/>
<path d="M218.125 102.73L219.515 102.8L219.495 103.14L218.485 103.09L218.455 103.6L219.415 103.65L219.395 103.99L218.435 103.94L218.405 104.51L219.475 104.56L219.455 104.9L218.015 104.83L218.125 102.74V102.73Z" fill="#201D1D"/>
<path d="M221.965 103.37C221.925 103.31 221.875 103.27 221.815 103.24C221.755 103.21 221.685 103.19 221.605 103.19C221.565 103.19 221.515 103.19 221.475 103.19C221.435 103.19 221.395 103.21 221.365 103.23C221.335 103.25 221.305 103.28 221.285 103.31C221.265 103.34 221.255 103.38 221.245 103.43C221.245 103.5 221.265 103.56 221.305 103.6C221.355 103.64 221.415 103.68 221.485 103.71C221.555 103.74 221.635 103.77 221.725 103.8C221.815 103.83 221.885 103.87 221.955 103.92C222.025 103.97 222.085 104.03 222.125 104.11C222.175 104.19 222.195 104.29 222.185 104.41C222.185 104.52 222.155 104.62 222.105 104.7C222.055 104.78 222.005 104.85 221.925 104.9C221.855 104.95 221.765 104.99 221.675 105.01C221.585 105.03 221.485 105.04 221.385 105.04C221.255 105.04 221.135 105.01 221.015 104.96C220.895 104.91 220.795 104.83 220.715 104.73L221.005 104.47C221.045 104.54 221.105 104.6 221.175 104.64C221.245 104.68 221.325 104.7 221.405 104.71C221.445 104.71 221.495 104.71 221.535 104.7C221.575 104.7 221.615 104.67 221.655 104.65C221.695 104.63 221.725 104.6 221.745 104.56C221.765 104.52 221.785 104.48 221.785 104.44C221.785 104.36 221.765 104.3 221.715 104.26C221.665 104.22 221.605 104.18 221.535 104.15C221.465 104.12 221.385 104.09 221.295 104.06C221.215 104.03 221.135 103.99 221.065 103.94C220.995 103.89 220.935 103.83 220.895 103.75C220.855 103.67 220.835 103.57 220.835 103.45C220.835 103.34 220.865 103.25 220.915 103.17C220.965 103.09 221.025 103.03 221.095 102.98C221.165 102.93 221.255 102.9 221.345 102.88C221.435 102.86 221.535 102.85 221.635 102.86C221.745 102.86 221.855 102.89 221.955 102.93C222.055 102.97 222.145 103.03 222.225 103.11L221.935 103.38L221.965 103.37Z" fill="#201D1D"/>
<path d="M222.725 102.96L224.115 103.03L224.095 103.37L223.085 103.32L223.055 103.83L224.015 103.88L223.995 104.22L223.035 104.17L223.005 104.74L224.075 104.79L224.055 105.13L222.615 105.06L222.725 102.97V102.96Z" fill="#201D1D"/>
<path d="M224.605 103.05L225.095 103.07L226.035 104.68L226.115 103.13L226.485 103.15L226.375 105.24L225.905 105.22L224.955 103.56L224.875 105.16L224.505 105.14L224.615 103.05H224.605Z" fill="#201D1D"/>
<path d="M228.035 103.68C227.995 103.62 227.945 103.58 227.885 103.55C227.825 103.52 227.755 103.5 227.675 103.5C227.635 103.5 227.585 103.5 227.545 103.5C227.505 103.5 227.465 103.52 227.435 103.54C227.405 103.56 227.375 103.59 227.355 103.62C227.335 103.65 227.325 103.69 227.315 103.74C227.315 103.81 227.335 103.87 227.375 103.91C227.425 103.95 227.485 103.99 227.555 104.02C227.625 104.05 227.705 104.08 227.795 104.11C227.885 104.14 227.955 104.18 228.025 104.23C228.095 104.28 228.155 104.34 228.195 104.42C228.245 104.5 228.265 104.6 228.255 104.72C228.255 104.83 228.225 104.93 228.175 105.01C228.125 105.09 228.075 105.16 227.995 105.21C227.925 105.26 227.835 105.3 227.745 105.32C227.655 105.34 227.555 105.35 227.455 105.35C227.325 105.35 227.205 105.32 227.085 105.27C226.965 105.22 226.865 105.14 226.785 105.04L227.075 104.78C227.115 104.85 227.175 104.91 227.245 104.95C227.315 104.99 227.395 105.02 227.475 105.02C227.515 105.02 227.565 105.02 227.605 105.01C227.645 105.01 227.685 104.98 227.725 104.96C227.765 104.94 227.795 104.91 227.815 104.87C227.835 104.83 227.855 104.79 227.855 104.75C227.855 104.67 227.835 104.61 227.785 104.57C227.735 104.53 227.675 104.49 227.605 104.46C227.535 104.43 227.455 104.4 227.365 104.37C227.285 104.34 227.205 104.3 227.135 104.25C227.065 104.2 227.005 104.14 226.965 104.06C226.925 103.98 226.905 103.88 226.905 103.76C226.905 103.65 226.935 103.56 226.985 103.48C227.035 103.4 227.095 103.34 227.165 103.29C227.235 103.24 227.325 103.21 227.415 103.19C227.505 103.17 227.605 103.16 227.705 103.17C227.815 103.17 227.925 103.2 228.025 103.24C228.125 103.28 228.215 103.34 228.295 103.42L228.005 103.69L228.035 103.68Z" fill="#201D1D"/>
<path d="M228.795 103.26L229.165 103.28L229.055 105.37L228.685 105.35L228.795 103.26Z" fill="#201D1D"/>
<path d="M230.115 103.67L229.475 103.64L229.495 103.3L231.155 103.38L231.135 103.72L230.495 103.69L230.405 105.45L230.035 105.43L230.125 103.67H230.115Z" fill="#201D1D"/>
<path d="M231.464 103.4L231.834 103.42L231.724 105.51L231.354 105.49L231.464 103.4Z" fill="#201D1D"/>
<path d="M232.125 103.43L232.555 103.45L233.045 105.06L233.715 103.51L234.115 103.53L233.165 105.58L232.845 105.56L232.125 103.43Z" fill="#201D1D"/>
<path d="M234.415 103.55L235.805 103.62L235.785 103.96L234.775 103.91L234.745 104.42L235.705 104.47L235.685 104.81L234.725 104.76L234.695 105.33L235.765 105.38L235.745 105.72L234.305 105.65L234.415 103.56V103.55Z" fill="#201D1D"/>
<path d="M235.985 106.03C236.115 105.86 236.215 105.68 236.285 105.49C236.365 105.3 236.405 105.1 236.415 104.89C236.425 104.68 236.405 104.48 236.345 104.28C236.285 104.08 236.205 103.89 236.095 103.72L236.355 103.57C236.485 103.76 236.575 103.97 236.645 104.2C236.715 104.43 236.735 104.66 236.725 104.9C236.715 105.14 236.665 105.37 236.575 105.59C236.485 105.81 236.375 106.01 236.225 106.19L235.985 106.02V106.03Z" fill="#201D1D"/>
</g>
<defs>
<clipPath id="clip0_2014_49594">
<rect width="252.45" height="126.45" fill="white" transform="translate(0.274902)"/>
</clipPath>
</defs>
</svg>
