<svg width="231" height="150" viewBox="0 0 231 150" fill="none" xmlns="http://www.w3.org/2000/svg">
<g clip-path="url(#clip0_2100_52983)">
<path d="M182.265 25.3173C173.954 31.5288 176.593 32.7456 180.371 47.2589C181.519 51.6747 170.343 51.0565 173.218 63.2049C176.407 76.6878 194.384 74.4799 203.549 72.4094C208.044 71.3987 211.861 68.288 213.48 63.9801C214.942 60.1138 215.462 55.4134 209.133 51.8906C201.822 47.8084 202.637 45.8949 204.315 43.53C205.63 41.6852 209.712 37.5834 209.27 33.4325C208.77 28.7223 205.738 27.6625 202.441 26.3869C194.708 23.4136 198.878 17.5258 198.878 13.8558C198.878 -3.02239 180.273 3.36581 183.933 17.0842C184.424 18.9389 183.914 23.6196 182.265 25.3075" fill="#D4D4D4"/>
<path d="M182.265 25.3173C173.954 31.5288 176.593 32.7456 180.371 47.2589C181.519 51.6747 170.343 51.0565 173.218 63.2049C176.407 76.6878 194.384 74.4799 203.549 72.4094C208.044 71.3987 211.861 68.288 213.48 63.9801C214.942 60.1138 215.462 55.4134 209.133 51.8906C201.822 47.8084 202.637 45.8949 204.315 43.53C205.63 41.6852 209.712 37.5834 209.27 33.4325C208.77 28.7223 205.738 27.6625 202.441 26.3869C194.708 23.4136 198.878 17.5258 198.878 13.8558C198.878 -3.02239 180.273 3.36581 183.933 17.0842C184.424 18.9389 183.914 23.6196 182.265 25.3075" stroke="#171617" stroke-linecap="round" stroke-linejoin="round"/>
<path d="M192.107 34.3647V118.137" stroke="#171617" stroke-linecap="round" stroke-linejoin="round"/>
<path d="M200.782 49.7119C200.782 49.7119 199.899 51.0367 198.653 52.9011C196.651 55.9039 193.746 60.3295 192.098 62.9986" stroke="#171617" stroke-linecap="round" stroke-linejoin="round"/>
<path d="M183.6 53.7451L186.337 56.6595L191.715 62.4099" stroke="#171617" stroke-linecap="round" stroke-linejoin="round"/>
<path d="M198.672 39.6147L196.278 41.1652L192.107 43.8735" stroke="#171617" stroke-linecap="round" stroke-linejoin="round"/>
<path d="M192.098 43.7067L189.271 38.8493L187.662 36.082" stroke="#171617" stroke-linecap="round" stroke-linejoin="round"/>
<path d="M208.956 59.0539C203.383 63.2146 205.149 64.0388 207.69 73.7634C208.466 76.7171 200.969 76.305 202.892 84.4595C205.031 93.4972 217.081 92.0154 223.234 90.6318C226.247 89.9547 228.808 87.8744 229.897 84.9796C230.878 82.389 231.222 79.239 226.983 76.8741C222.076 74.1363 222.626 72.8508 223.754 71.271C224.637 70.0345 227.375 67.2869 227.081 64.5001C226.747 61.3403 224.716 60.624 222.498 59.78C217.307 57.788 220.104 53.8334 220.104 51.3802C220.104 40.0659 207.632 44.3444 210.085 53.5489C210.418 54.7951 210.075 57.9254 208.966 59.0637" fill="#D4D4D4"/>
<path d="M208.956 59.0539C203.383 63.2146 205.149 64.0388 207.69 73.7634C208.466 76.7171 200.969 76.305 202.892 84.4595C205.031 93.4972 217.081 92.0154 223.234 90.6318C226.247 89.9547 228.808 87.8744 229.897 84.9796C230.878 82.389 231.222 79.239 226.983 76.8741C222.076 74.1363 222.626 72.8508 223.754 71.271C224.637 70.0345 227.375 67.2869 227.081 64.5001C226.747 61.3403 224.716 60.624 222.498 59.78C217.307 57.788 220.104 53.8334 220.104 51.3802C220.104 40.0659 207.632 44.3444 210.085 53.5489C210.418 54.7951 210.075 57.9254 208.966 59.0637" stroke="#171617" stroke-linecap="round" stroke-linejoin="round"/>
<path d="M215.551 65.1182V121.287" stroke="#171617" stroke-linecap="round" stroke-linejoin="round"/>
<path d="M221.37 75.4121C221.37 75.4121 220.771 76.2953 219.947 77.5513C218.603 79.563 216.66 82.5265 215.551 84.3222" stroke="#171617" stroke-linecap="round" stroke-linejoin="round"/>
<path d="M209.85 78.1201L211.685 80.0729L215.296 83.9294" stroke="#171617" stroke-linecap="round" stroke-linejoin="round"/>
<path d="M219.957 68.6411L218.347 69.6813L215.551 71.4967" stroke="#171617" stroke-linecap="round" stroke-linejoin="round"/>
<path d="M215.551 71.3884L213.657 68.1305L212.567 66.2759" stroke="#171617" stroke-linecap="round" stroke-linejoin="round"/>
<path d="M69.7399 131.65L71.1824 107.628L71.5848 100.926C67.4339 97.766 64.598 92.4572 64.598 86.9031C64.598 78.8663 70.0245 73.2632 77.4823 74.5192C84.9598 75.7851 91.4068 83.655 91.4068 92.0156C91.4068 97.7856 88.463 102.309 84.1355 104.135L84.5771 111.73L85.2247 122.642L86.0588 136.704L126.616 149.107C129.088 149.863 131.345 149.5 133.043 148.293L133.092 148.263C134.927 146.919 136.085 144.564 136.085 141.581V79.2392C136.085 73.4889 131.816 67.4932 126.616 65.9035L59.1322 45.2473L40.9587 39.6932C38.7508 39.0161 36.7097 39.232 35.1004 40.1544L35.0121 40.2035C32.8631 41.4694 31.4893 43.9717 31.4893 47.2393V109.581C31.4893 115.321 35.7481 121.317 40.9587 122.907L69.7399 131.719V131.65Z" fill="#DAD4F2" stroke="#252526" stroke-linecap="round" stroke-linejoin="round"/>
<path d="M163.748 63.1658V125.507C163.748 128.588 162.521 130.983 160.588 132.308L159.773 132.788L133.122 148.263C134.957 146.919 136.114 144.564 136.114 141.581V79.2394C136.114 73.489 131.846 67.4933 126.645 65.9036L59.1617 45.2475L40.9882 39.6934C38.7803 39.0163 36.7392 39.2322 35.1299 40.1546L62.4196 24.3067C64.0878 23.2077 66.2564 22.8937 68.6311 23.6198L154.288 49.8301C159.499 51.4296 163.757 57.4253 163.757 63.1658H163.748Z" fill="#C1B7E8" stroke="#252526" stroke-linecap="round" stroke-linejoin="round"/>
<path d="M160.578 132.317C160.323 132.494 160.048 132.651 159.764 132.788L160.578 132.317Z" fill="#C1B7E8"/>
<path d="M160.578 132.317C160.323 132.494 160.048 132.651 159.764 132.788" stroke="#252526" stroke-linecap="round" stroke-linejoin="round"/>
<path d="M133.102 148.263L133.053 148.302L132.975 148.351" stroke="#252526" stroke-linecap="round" stroke-linejoin="round"/>
<path d="M69.7407 131.65L69.7207 131.66" stroke="#252526" stroke-linecap="round" stroke-linejoin="round"/>
<path d="M35.11 40.1548L35.0217 40.2039L34.5703 40.459" stroke="#252526" stroke-linecap="round" stroke-linejoin="round"/>
<path d="M84.1547 104.125L85.244 122.642L69.7494 131.65L71.5942 100.926C67.4434 97.7661 64.6074 92.4573 64.6074 86.9032C64.6074 78.8664 70.034 73.2633 77.4918 74.5193C84.9692 75.7852 91.4163 83.6551 91.4163 92.0157C91.4163 97.7857 88.4724 102.309 84.1449 104.135L84.1547 104.125Z" fill="#5F6060" stroke="#252526" stroke-linecap="round" stroke-linejoin="round"/>
<path d="M86.0689 136.703V136.733L80.1713 134.908L69.7402 131.66V131.65L85.2348 122.642L86.0689 136.703Z" fill="#3F3F3F" stroke="#252526" stroke-linecap="round" stroke-linejoin="round"/>
<path d="M121.316 53.6377V53.6177V53.6377Z" fill="#DFE0E0"/>
<path d="M121.316 53.6377V53.6177" stroke="#252526" stroke-linecap="round" stroke-linejoin="round"/>
<path d="M71.0352 40.8025V40.7725V40.8025Z" fill="#DFE0E0"/>
<path d="M71.0352 40.8025V40.7725" stroke="#252526" stroke-linecap="round" stroke-linejoin="round"/>
<path d="M131.355 55.227V55.5803C131.287 55.698 131.159 55.8452 130.982 56.012C130.403 56.5616 129.618 56.8756 128.794 56.9933C126.586 57.3171 123.947 57.2288 122.357 56.0905C121.503 55.5116 121.287 54.2457 121.317 53.6471C121.317 53.6471 121.317 53.6373 121.317 53.6275C121.317 30.4887 117.421 10.6274 92.0448 9.45963C72.7723 8.57647 71.1531 33.6582 71.0354 39.5656C71.0354 40.2427 71.0354 40.6647 71.0354 40.7824C70.9372 40.91 70.7606 41.0375 70.5447 41.1553C69.8676 41.5086 69.112 41.6852 68.3368 41.7441C66.1976 41.8913 63.5187 41.4006 61.9584 40.2721C60.9477 39.5362 60.9477 38.8689 60.9477 38.2311C60.9477 38.2311 59.8781 0.529889 91.2892 0.510263C127.636 0.490637 131.218 32.2157 131.355 55.2466V55.227Z" fill="#DFE0E0" stroke="#252526" stroke-linecap="round" stroke-linejoin="round"/>
<path d="M121.326 53.5981C121.326 53.5981 121.326 53.6081 121.326 53.6281V53.5981Z" fill="#DFE0E0"/>
<path d="M121.326 53.5981C121.326 53.5981 121.326 53.6081 121.326 53.6281" stroke="#252526" stroke-linecap="round" stroke-linejoin="round"/>
<mask id="mask0_2100_52983" style="mask-type:luminance" maskUnits="userSpaceOnUse" x="7" y="71" width="86" height="79">
<path d="M85.6565 136.527L83.743 103.712C88.3256 101.868 90.8279 97.6186 90.8966 91.7995C91.0045 83.38 85.2836 75.1568 77.3646 73.8811C76.7169 73.7732 75.2842 73.734 74.666 73.7143V73.6947C74.666 73.6947 6.96682 70.5153 7.4084 72.7134C7.84998 74.9115 13.3943 149.637 14.3363 149.499C108.501 135.261 95.6166 134.908 85.6467 136.517" fill="white"/>
</mask>
<g mask="url(#mask0_2100_52983)">
<path d="M58.8575 124.414L66.9922 124.353C67.316 124.351 67.5829 124.614 67.5853 124.937L67.5862 125.055C67.5887 125.379 67.3257 125.646 67.0019 125.648L58.8672 125.709L58.8574 124.404L58.8575 124.414Z" fill="#ECEDEB" stroke="#252526" stroke-linejoin="round"/>
<path d="M59.2698 124.143H54.0297C53.8672 124.143 53.7354 124.275 53.7354 124.437V125.576C53.7354 125.738 53.8672 125.87 54.0297 125.87H59.2698C59.4324 125.87 59.5642 125.738 59.5642 125.576V124.437C59.5642 124.275 59.4324 124.143 59.2698 124.143Z" fill="#A0A0A0" stroke="#252526" stroke-linejoin="round"/>
<path d="M85.6074 120.728C85.6074 132.533 95.175 142.1 106.98 142.1C118.785 142.1 128.352 132.533 128.352 120.728C128.352 108.923 118.785 99.3555 106.98 99.3555C95.175 99.3555 85.6074 108.923 85.6074 120.728ZM89.248 120.728C89.248 110.935 97.1866 102.996 106.98 102.996C116.773 102.996 124.712 110.935 124.712 120.728C124.712 130.521 116.773 138.46 106.98 138.46C97.1866 138.46 89.248 130.521 89.248 120.728Z" fill="#383838" stroke="#252526" stroke-linejoin="round"/>
<path d="M17.7021 120.728C17.7021 132.533 27.2697 142.1 39.0746 142.1C50.8796 142.1 60.4471 132.533 60.4471 120.728C60.4471 108.923 50.8796 99.3555 39.0746 99.3555C27.2697 99.3555 17.7021 108.923 17.7021 120.728ZM21.3427 120.728C21.3427 110.935 29.2814 102.996 39.0746 102.996C48.8679 102.996 56.8066 110.935 56.8066 120.728C56.8066 130.521 48.8679 138.46 39.0746 138.46C29.2814 138.46 21.3427 130.521 21.3427 120.728Z" fill="#383838" stroke="#252526" stroke-linejoin="round"/>
<path d="M56.0603 81.6729C54.5197 81.6729 51.6543 81.6729 50.2216 81.4472C48.789 81.2215 46.8656 81.0351 46.6792 81.4472C46.4927 81.8594 46.4142 82.1636 47.5427 83.1056C48.6712 84.0476 49.7997 84.499 50.2903 84.8719C50.781 85.2448 53.7935 85.5981 55.7267 84.8229C57.6598 84.0476 59.3967 82.9192 60.0051 82.8799C60.6135 82.8407 62.2621 83.2724 62.8312 83.243C63.4004 83.2135 63.5476 82.5365 62.8312 82.1243C62.1149 81.7122 57.3654 81.6729 56.0505 81.6729H56.0603Z" fill="#9C8BDC" stroke="#252526" stroke-linejoin="round"/>
<path d="M64.1364 123.427C64.1364 123.427 42.1752 120.846 41.4392 120.728C40.7032 120.62 40.2813 121.062 40.2224 121.385C40.1635 121.709 40.3401 122.141 41.0761 122.386C41.8121 122.632 63.7733 125.929 63.7733 125.929L64.1364 123.427Z" fill="#ECEDEB" stroke="#252526" stroke-linejoin="round"/>
<path d="M90.3179 86.1181C90.3179 86.1181 89.2385 83.1938 89.1109 82.7817C88.9833 82.3695 89.1403 82.291 89.7095 82.0457C90.2786 81.8004 92.9674 80.9074 93.5365 80.6621C94.1057 80.4168 95.4893 79.9261 95.8916 79.8869C96.2939 79.8476 96.7453 79.8476 97.393 79.8869C98.0406 79.9261 99.0023 80.0046 98.7079 80.8191C98.4135 81.6336 98.3252 82.0163 97.9523 81.8887C97.285 81.6434 96.186 81.6139 95.5678 81.82C95.0771 81.9868 93.036 82.7718 92.5847 82.9779C92.1333 83.184 92.0548 83.2232 92.2216 83.5863C92.3884 83.9494 92.879 85.3526 92.879 85.3526L90.2982 86.0984L90.3179 86.1181Z" fill="#7A7A79" stroke="#252526" stroke-linejoin="round"/>
<path d="M66.8747 131.228C70.3107 131.228 73.0961 128.443 73.0961 125.007C73.0961 121.571 70.3107 118.785 66.8747 118.785C63.4387 118.785 60.6533 121.571 60.6533 125.007C60.6533 128.443 63.4387 131.228 66.8747 131.228Z" fill="#ECEDEB" stroke="#252526" stroke-linejoin="round"/>
<path d="M38.6917 120.188C38.9665 119.874 55.2363 102.339 57.9937 99.3653C55.8839 92.2607 53.99 85.8529 53.99 85.8529C53.8036 85.2445 53.7349 85.2445 54.3237 85.1758C54.7653 85.1268 55.3933 84.9403 55.8545 84.7637C56.0409 85.3721 58.7002 94.1939 58.8278 94.5569C58.9456 94.92 58.8867 95.2929 59.5638 95.0476C60.231 94.8023 89.9739 87.2954 90.4548 87.0501C90.4548 87.0501 90.3861 86.6281 90.3174 86.108C90.3174 86.059 93.222 85.2739 93.4281 85.2151C93.6636 85.1562 94.3309 87.423 94.7332 88.5122C95.793 91.3972 96.9411 94.5275 98.0892 97.3831C99.4238 100.69 100.758 104.007 102.093 107.314C103.212 110.091 104.33 112.868 105.459 115.645C105.969 116.891 106.43 118.167 106.99 119.393C107.49 120.492 107.794 121.16 107.402 121.376C107.088 121.542 106.734 121.748 106.185 120.728C105.635 119.698 94.4682 98.227 94.2229 97.7952C93.9776 97.3634 93.487 97.3046 93.065 97.7952C92.643 98.2859 75.7354 122.936 75.2448 123.79C74.7541 124.643 72.5462 127.577 72.5462 127.577C72.5462 127.577 73.4981 125.615 72.9289 123.534C72.3598 121.464 71.2607 120.581 71.2607 120.581C71.2607 120.581 88.2469 95.5971 88.973 94.4981C89.709 93.399 91.1122 91.8093 91.1711 90.9556C91.23 90.1019 90.3959 89.6112 89.2576 89.8566C88.1193 90.1019 60.967 96.2644 60.3586 96.5097C59.7502 96.755 59.5638 96.8139 59.7502 97.4812C59.9367 98.1485 63.5969 109.502 63.7146 109.865C63.7735 110.042 63.7735 110.12 63.8226 110.199L66.5996 118.775C66.2954 118.795 66.0108 118.824 65.7459 118.873C64.9118 119.001 63.9796 119.492 63.9796 119.492C63.9796 119.492 61.7717 112.053 58.6806 101.593C55.8251 104.507 40.7524 119.933 39.9968 120.718C39.1627 121.582 38.9076 121.395 38.7114 121.268C38.5151 121.14 38.1226 120.846 38.7114 120.178L38.6917 120.188Z" fill="#ECEDEB" stroke="#252526" stroke-linejoin="round"/>
<path d="M39.0846 125.517C41.7293 125.517 43.8733 123.373 43.8733 120.728C43.8733 118.083 41.7293 115.939 39.0846 115.939C36.4399 115.939 34.2959 118.083 34.2959 120.728C34.2959 123.373 36.4399 125.517 39.0846 125.517Z" fill="#ECEDEB" stroke="#252526" stroke-linejoin="round"/>
<path d="M74.8956 125.721L66.7609 125.66C66.4371 125.657 66.1741 125.39 66.1766 125.066L66.1775 124.949C66.1799 124.625 66.4468 124.362 66.7706 124.364L74.9053 124.425L74.8955 125.73L74.8956 125.721Z" fill="#ECEDEB" stroke="#252526" stroke-linejoin="round"/>
<path d="M74.4899 125.87H79.73C79.8926 125.87 80.0244 125.738 80.0244 125.576V124.437C80.0244 124.275 79.8926 124.143 79.73 124.143H74.4899C74.3274 124.143 74.1955 124.275 74.1955 124.437V125.576C74.1955 125.738 74.3274 125.87 74.4899 125.87Z" fill="#A0A0A0" stroke="#252526" stroke-linejoin="round"/>
</g>
<path d="M7.40833 62.2825C7.6144 57.4447 10.6368 53.6079 14.346 53.6079V53.5784C10.6368 53.5784 7.6144 49.7416 7.40833 44.9038C7.20226 49.7318 4.1897 53.5588 0.490234 53.5784V53.6079C4.1897 53.6275 7.20226 57.4545 7.40833 62.2825Z" fill="#FAFAFA" stroke="#252526" stroke-linecap="round" stroke-linejoin="round"/>
<path d="M19.5083 50.1929C19.6653 46.5817 21.9222 43.7164 24.6895 43.7164V43.6967C21.9222 43.6967 19.6653 40.8314 19.5083 37.2202C19.3611 40.8215 17.1041 43.6869 14.3467 43.6967V43.7164C17.1041 43.7262 19.3611 46.5915 19.5083 50.1929Z" fill="#FAFAFA" stroke="#252526" stroke-linecap="round" stroke-linejoin="round"/>
<path d="M150.638 87.6684C150.795 84.0573 153.052 81.1919 155.819 81.1919V81.1723C153.052 81.1723 150.795 78.3069 150.638 74.6958C150.491 78.2971 148.234 81.1625 145.477 81.1723V81.1919C148.234 81.2017 150.491 84.0671 150.638 87.6684Z" fill="#FAFAFA" stroke="#252526" stroke-linecap="round" stroke-linejoin="round"/>
</g>
<defs>
<clipPath id="clip0_2100_52983">
<rect width="231.005" height="150" fill="white"/>
</clipPath>
</defs>
</svg>
