<svg width="195" height="118" viewBox="0 0 195 118" fill="none" xmlns="http://www.w3.org/2000/svg">
<g clip-path="url(#clip0_3552_10820)">
<path d="M138.77 25.6699C108.45 25.6699 83.8796 46.0499 83.8796 71.1799C83.8796 78.7499 86.1096 85.8799 90.0496 92.1599C90.3896 92.6999 90.4596 93.3599 90.2296 93.9499L82.0096 114.99C81.7196 115.73 82.3596 116.49 83.1396 116.33L110.93 110.82C111.34 110.74 111.76 110.79 112.14 110.97C120.03 114.61 129.1 116.69 138.77 116.69C169.09 116.69 193.66 96.3099 193.66 71.1799C193.66 46.0499 169.08 25.6699 138.77 25.6699Z" fill="#DAD4F2" stroke="#B5A8E4" stroke-width="2" stroke-linecap="round" stroke-linejoin="round"/>
<path d="M100.3 67.4C100.08 66.85 100.12 66.23 100.41 65.7C104.29 58.54 106.15 50.45 105.39 42.07C103.08 16.9 77.9598 -1.36999 49.2698 1.25001C20.5898 3.88001 -0.790196 26.41 1.5098 51.58C3.8098 76.75 28.9398 95.03 57.6198 92.4C66.7998 91.56 75.2298 88.68 82.3698 84.33C82.8398 84.04 83.4098 83.96 83.9398 84.11L107.94 90.85C108.74 91.07 109.45 90.29 109.14 89.52L100.29 67.4H100.3Z" fill="#B4B4B4" stroke="#A0A0A0" stroke-width="2" stroke-linecap="round" stroke-linejoin="round"/>
<path d="M57.1 63.4497C59.44 63.4497 61.53 65.1797 61.97 67.4697C62.47 70.0597 60.75 72.6797 58.06 73.1997C57.75 73.2597 57.43 73.2897 57.13 73.2897C54.8 73.2897 52.74 71.6197 52.3 69.3397C51.8 66.7497 53.51 64.0497 56.19 63.5297C56.49 63.4697 56.8 63.4397 57.1 63.4397M57.1 61.4397C56.67 61.4397 56.24 61.4797 55.81 61.5597C53.99 61.9097 52.42 62.9697 51.38 64.5497C50.38 66.0697 50 67.9497 50.34 69.7097C50.96 72.9397 53.82 75.2797 57.13 75.2797C57.57 75.2797 58.01 75.2397 58.44 75.1497C62.19 74.4197 64.65 70.7997 63.93 67.0697C63.31 63.8497 60.37 61.4297 57.1 61.4297V61.4397Z" fill="#7A7A79"/>
<path d="M52.3099 69.3503C51.8099 66.7603 53.5199 64.0603 56.1999 63.5403C58.8799 63.0203 61.4799 64.8903 61.9799 67.4803C62.4799 70.0703 60.7599 72.6903 58.0699 73.2103C55.3799 73.7303 52.8099 71.9403 52.3099 69.3503Z" fill="#3F3F3F"/>
<path d="M50.0399 23.5505C52.1899 23.5505 53.6799 24.6405 54.1699 27.1505C54.6799 29.8005 55.0299 36.8005 55.8299 47.0605L56.6199 57.2505L53.4599 57.8605L50.3899 48.1205C47.2999 38.3005 45.0199 31.6805 44.5099 29.0305C43.9099 25.9505 45.5099 24.3005 48.4999 23.7205C49.0499 23.6105 49.5699 23.5605 50.0599 23.5605M50.0599 21.5605C49.4499 21.5605 48.7999 21.6305 48.1199 21.7605C46.0999 22.1505 44.5799 22.9705 43.5999 24.1905C42.8399 25.1405 42.0399 26.8105 42.5499 29.4205C42.9299 31.3605 44.0999 35.0005 45.8699 40.5105C46.6499 42.9205 47.5299 45.6705 48.4899 48.7305L51.5599 58.4805L52.0999 60.1805L53.8499 59.8405L57.0099 59.2305L58.7599 58.8905L58.6199 57.1105L57.8299 46.9205C57.5799 43.7105 57.3699 40.8105 57.1899 38.2805C56.7799 32.5305 56.5099 28.7305 56.1299 26.7905C55.4899 23.4705 53.2699 21.5705 50.0399 21.5705L50.0599 21.5605Z" fill="#7A7A79"/>
<path d="M54.1701 27.1505C54.6801 29.8005 55.0301 36.8005 55.8301 47.0605L56.6201 57.2505L53.4601 57.8605L50.3901 48.1205C47.3001 38.3005 45.0201 31.6805 44.5101 29.0305C43.9101 25.9505 45.5101 24.3005 48.5001 23.7205C51.4901 23.1405 53.5901 24.0805 54.1801 27.1605L54.1701 27.1505Z" fill="#3F3F3F"/>
<path d="M142.27 62.6907C145.95 61.7307 150.07 61.9407 153.52 63.6207C157.56 65.5907 160.46 69.7007 160.2 73.8207C159.74 81.2607 151.94 83.1807 147.44 87.8007C144.45 90.8707 143.1 98.4907 136.77 95.2007C133.16 93.3207 128.36 91.3007 127.23 87.2907C124.7 78.3007 131.53 66.7207 140.45 63.2807C141.04 63.0507 141.65 62.8607 142.27 62.6907Z" fill="#B5A8E4"/>
<path d="M139.35 95.4816L127.28 89.1416C127.28 89.1416 127.64 80.7416 125.67 77.2816C123.96 74.2716 120.58 68.3316 125.25 60.7816C129.42 54.0416 136.37 53.3116 140.92 54.2516C145.47 55.1916 151.12 57.8016 152.84 65.2216C154.7 73.2116 149.27 79.4216 145.14 82.1316C141.57 84.4716 140.42 89.7916 140.05 91.5716L134.51 88.6416" stroke="#6A51CA" stroke-width="2" stroke-linecap="round" stroke-linejoin="round"/>
<path d="M138.44 99.6017L126.37 93.2617" stroke="#6A51CA" stroke-width="2" stroke-linecap="round" stroke-linejoin="round"/>
<path d="M135.68 102.39L127.31 97.9902" stroke="#6A51CA" stroke-width="2" stroke-linecap="round" stroke-linejoin="round"/>
<path d="M140.19 58.7203C135.73 57.4403 129.92 58.9303 127.29 67.1603" stroke="#6A51CA" stroke-width="2" stroke-linecap="round" stroke-linejoin="round"/>
<path d="M143.93 40.7109L142.43 47.9109" stroke="#6A51CA" stroke-width="2" stroke-linecap="round" stroke-linejoin="round"/>
<path d="M109.4 63.4512L116.6 64.9512" stroke="#6A51CA" stroke-width="2" stroke-linecap="round" stroke-linejoin="round"/>
<path d="M159.06 73.7617L166.27 75.2517" stroke="#6A51CA" stroke-width="2" stroke-linecap="round" stroke-linejoin="round"/>
<path d="M149.72 87.4004L153.79 93.5304" stroke="#6A51CA" stroke-width="2" stroke-linecap="round" stroke-linejoin="round"/>
<path d="M121.85 45.0117L125.91 51.1417" stroke="#6A51CA" stroke-width="2" stroke-linecap="round" stroke-linejoin="round"/>
<path d="M162.12 53.3613L155.95 57.3713" stroke="#6A51CA" stroke-width="2" stroke-linecap="round" stroke-linejoin="round"/>
<path d="M119.68 81.1602L113.51 85.1802" stroke="#6A51CA" stroke-width="2" stroke-linecap="round" stroke-linejoin="round"/>
</g>
<defs>
<clipPath id="clip0_3552_10820">
<rect width="194.32" height="117.7" fill="white" transform="translate(0.339844)"/>
</clipPath>
</defs>
</svg>
