<svg width="36" height="37" viewBox="0 0 36 37" fill="none" xmlns="http://www.w3.org/2000/svg">
<path d="M18.7262 6.91625L31.4012 29.2362C31.7162 29.7913 31.3262 30.4963 30.6812 30.4963H5.3312C4.6862 30.4963 4.2962 29.7913 4.6112 29.2362L17.2862 6.91625C17.6012 6.36125 18.3962 6.36125 18.7262 6.91625Z" fill="#FAE0E0"/>
<path d="M16.5059 26.7061C16.5059 25.915 17.1626 25.2266 17.9984 25.2266C18.8342 25.2266 19.4909 25.915 19.4909 26.7061C19.4909 27.4971 18.8342 28.1562 17.9984 28.1562C17.1626 28.1562 16.5059 27.4824 16.5059 26.7061Z" fill="#CA0D0D"/>
<path d="M19.4912 14.4893C19.4912 15.2949 19.1927 17.3604 18.8345 20.3926L18.4763 23.4102H17.5061L17.1479 20.3926C16.7897 17.3457 16.4912 15.2803 16.4912 14.4893C16.4912 13.5518 17.0584 13.1562 17.9837 13.1562C18.9091 13.1562 19.4763 13.5518 19.4763 14.4893H19.4912Z" fill="#CA0D0D"/>
</svg>
