<svg width="36" height="36" viewBox="0 0 36 36" fill="none" xmlns="http://www.w3.org/2000/svg">
<path d="M9 21L18 21L18 15L9 15L9 21Z" fill="#6A51CA"/>
<path d="M28.5107 22.9001L28.5107 21.0357L29.4464 21.0357C29.7509 21.0357 30 20.7883 30 20.4858L30 15.6627C30 15.3602 29.7509 15.1127 29.4464 15.1127L28.5107 15.1127L28.5107 13.0999C28.5107 12.495 28.0125 12 27.4035 12L7.10727 12C6.49827 12 6 12.495 6 13.0999L6 22.9001C6 23.505 6.49827 24 7.10727 24L27.4035 24C28.0125 24 28.5107 23.505 28.5107 22.9001V22.9001Z" stroke="#6A51CA" stroke-linecap="round" stroke-linejoin="round"/>
</svg>
