<?xml version="1.0" standalone="no"?>
<!DOCTYPE svg PUBLIC "-//W3C//DTD SVG 20010904//EN"
 "http://www.w3.org/TR/2001/REC-SVG-20010904/DTD/svg10.dtd">
<svg version="1.0" xmlns="http://www.w3.org/2000/svg"
 width="805.000000pt" height="805.000000pt" viewBox="0 0 805.000000 805.000000"
 preserveAspectRatio="xMidYMid meet">

<g transform="translate(0.000000,805.000000) scale(0.100000,-0.100000)"
fill="#000000" stroke="none">
<path d="M5120 7384 c-18 -6 -99 -42 -122 -54 -10 -6 -28 -4 -48 3 -27 10 -36
9 -70 -9 l-38 -21 -21 20 c-19 20 -21 20 -40 3 -11 -10 -28 -17 -38 -16 -37 4
-88 -1 -102 -9 -8 -5 -17 -31 -20 -58 l-6 -48 -48 -3 c-37 -2 -52 1 -61 14
-11 14 -23 16 -69 11 -70 -7 -77 -11 -77 -48 0 -17 -5 -29 -13 -29 -7 0 -20
-9 -30 -20 -9 -11 -28 -21 -42 -21 -14 -1 -39 -2 -56 -3 -30 -1 -59 -27 -59
-52 0 -28 34 -39 121 -39 75 0 92 -3 118 -23 39 -29 91 -30 98 -1 4 14 11 18
22 14 9 -4 49 -18 90 -31 94 -31 102 -37 91 -74 -4 -16 -6 -31 -3 -34 3 -3 0
-20 -7 -37 -13 -30 -12 -33 14 -55 15 -13 37 -24 50 -24 12 0 28 -6 35 -12 17
-17 47 19 61 73 6 21 15 39 20 39 14 0 102 -113 134 -173 l30 -54 -42 -119
c-22 -66 -109 -315 -192 -554 -185 -534 -180 -520 -191 -520 -5 0 -9 5 -9 11
0 8 -5 8 -15 -1 -8 -7 -12 -16 -10 -21 12 -18 -18 -101 -39 -109 -12 -5 -16
-9 -10 -9 18 -1 25 -46 14 -77 -10 -25 -9 -26 6 -13 15 12 16 11 9 -11 -12
-40 -34 -77 -35 -59 0 9 -15 21 -32 27 -18 6 -80 27 -138 47 -239 81 -466 126
-712 141 l-118 7 0 -38 c0 -53 56 -107 134 -130 31 -9 56 -18 54 -20 -2 -1
-66 -5 -143 -9 -174 -8 -203 -12 -340 -37 -123 -23 -355 -85 -369 -100 -6 -5
-17 -9 -25 -9 -8 0 -35 -9 -60 -21 -102 -46 -197 -91 -211 -100 -8 -5 -26 -14
-40 -20 -14 -6 -38 -20 -55 -32 -16 -12 -47 -30 -67 -41 -20 -10 -39 -25 -42
-32 -3 -8 -12 -14 -20 -14 -7 0 -29 -14 -47 -31 -18 -17 -45 -37 -61 -45 -15
-8 -35 -26 -44 -39 -9 -14 -21 -25 -27 -25 -13 0 -137 -122 -137 -135 -1 -5
-15 -19 -33 -30 -17 -11 -36 -29 -42 -41 -6 -12 -23 -32 -38 -45 -16 -13 -29
-31 -30 -40 -2 -8 -19 -32 -40 -53 -21 -20 -35 -41 -32 -47 4 -5 -10 -25 -30
-44 -20 -19 -34 -39 -30 -45 3 -5 -8 -24 -25 -42 -21 -20 -30 -38 -27 -50 3
-11 -1 -22 -9 -25 -20 -7 -47 -61 -40 -79 3 -8 -1 -17 -10 -21 -21 -8 -46 -61
-39 -83 4 -14 2 -20 -9 -20 -17 0 -39 -60 -30 -83 3 -10 1 -17 -5 -17 -7 0
-19 -16 -27 -36 -13 -30 -13 -38 -2 -46 10 -7 10 -11 -4 -22 -25 -19 -41 -65
-28 -82 9 -9 6 -18 -9 -33 -22 -22 -28 -65 -10 -76 7 -5 3 -14 -10 -26 -22
-21 -29 -73 -10 -84 7 -5 5 -11 -4 -18 -20 -17 -31 -84 -15 -89 10 -4 10 -8 2
-19 -6 -8 -14 -28 -17 -46 -5 -24 -2 -35 11 -43 16 -9 16 -11 -1 -20 -24 -15
-24 -90 0 -90 15 0 15 -1 0 -18 -23 -25 -22 -78 1 -91 14 -8 15 -12 5 -22 -19
-19 -16 -76 5 -89 12 -8 13 -13 5 -16 -14 -6 -17 -51 -7 -78 3 -9 13 -16 22
-16 15 0 15 -2 1 -15 -22 -22 -13 -82 14 -89 17 -4 18 -7 8 -20 -17 -21 -6
-86 14 -86 17 0 19 -12 5 -26 -14 -14 10 -84 28 -84 11 0 12 -3 4 -13 -18 -21
6 -87 31 -87 16 0 17 -3 7 -15 -17 -20 7 -85 32 -85 20 0 25 -16 7 -22 -7 -2
-5 -17 6 -45 12 -30 21 -40 32 -36 12 5 14 1 9 -15 -9 -26 19 -82 40 -82 10 0
14 -6 10 -15 -7 -20 24 -85 41 -85 8 0 13 -6 11 -12 -4 -21 31 -78 48 -78 8 0
14 -6 12 -12 -4 -21 35 -78 54 -78 11 0 15 -5 12 -15 -7 -16 34 -74 54 -74 6
-1 12 -6 12 -12 0 -17 52 -79 61 -73 5 3 9 -1 9 -8 0 -14 131 -148 144 -148 4
0 18 -13 32 -29 21 -26 188 -156 239 -188 11 -7 57 -35 102 -63 126 -78 317
-167 474 -220 148 -50 151 -53 44 -65 -33 -3 -85 -11 -115 -17 l-55 -11 35
-13 c19 -7 49 -13 65 -13 48 -2 74 -12 69 -26 -9 -23 54 -28 321 -25 347 4
716 4 790 0 83 -4 325 11 325 21 0 4 -6 9 -12 12 -20 7 39 27 80 27 103 1 49
40 -63 47 -156 9 -156 9 15 72 428 159 748 389 1018 732 28 37 52 72 52 77 0
6 6 15 14 19 14 8 63 82 93 143 10 19 21 37 24 40 10 9 79 151 82 170 2 10 8
24 14 32 13 17 34 78 26 78 -3 0 1 8 10 18 9 10 19 37 23 60 4 23 10 42 15 42
4 0 11 21 15 48 3 26 10 52 15 57 4 6 13 42 20 80 7 39 14 64 17 56 6 -18 -14
-144 -40 -258 -21 -89 -21 -92 -3 -140 33 -88 57 -143 65 -143 11 0 86 256
109 370 11 58 27 168 35 244 12 104 19 142 31 148 21 13 19 62 -5 83 -16 15
-20 31 -20 91 0 277 -91 659 -227 955 -198 428 -528 813 -918 1068 -38 25 -73
48 -77 51 -17 13 55 170 77 170 8 0 12 6 9 14 -3 8 4 32 15 55 27 51 27 65 0
26 l-20 -30 7 40 c4 22 14 60 23 85 15 41 20 45 55 48 21 2 47 -3 59 -11 12
-8 83 -101 157 -206 74 -106 159 -227 189 -269 60 -84 366 -519 555 -787 66
-93 161 -228 211 -300 162 -231 668 -949 696 -988 26 -36 27 -39 11 -58 -13
-15 -29 -19 -74 -19 -31 0 -59 4 -62 8 -3 5 -28 6 -55 2 -87 -11 -127 -73
-114 -180 9 -79 27 -112 61 -108 23 3 28 9 32 43 6 51 31 54 41 5 4 -19 20
-45 35 -59 26 -22 33 -23 104 -17 41 4 120 9 176 13 l100 6 86 -121 c47 -66
94 -140 104 -166 10 -25 22 -46 26 -46 10 0 159 300 218 440 48 115 150 406
150 430 0 6 -60 10 -164 10 l-164 0 -55 78 c-30 42 -57 87 -61 100 -4 12 -11
22 -16 22 -10 0 -210 284 -210 299 0 6 -13 23 -28 39 -16 16 -85 110 -154 208
-770 1103 -1254 1794 -1514 2165 -57 80 -105 158 -108 173 -11 59 34 117 92
118 23 0 130 -23 357 -77 148 -36 439 -102 770 -175 127 -28 268 -59 315 -70
149 -33 396 -87 574 -124 66 -14 122 -24 124 -21 4 4 -103 212 -118 228 -4 5
-108 35 -231 66 -498 130 -1179 304 -1426 365 -239 59 -303 80 -303 97 0 3
-11 22 -24 42 l-25 36 34 103 c19 57 35 112 35 124 0 11 9 29 20 39 11 10 20
30 20 45 0 15 9 39 20 53 11 14 20 36 20 50 0 21 -10 30 -52 50 -57 27 -266
98 -362 123 -32 8 -56 17 -53 20 2 2 17 0 32 -6 20 -8 30 -8 35 0 5 8 123 39
152 40 4 0 12 8 17 18 8 15 2 30 -29 73 -80 110 -79 109 -118 108 -20 0 -44
-3 -52 -5z m-230 -139 c7 -8 22 -15 34 -15 12 0 27 -5 33 -11 7 -7 29 -20 50
-31 21 -10 29 -16 18 -14 -11 3 -38 10 -60 15 -22 5 -73 15 -114 21 -91 13
-104 20 -66 36 41 18 90 17 105 -1z m-250 -245 c13 -9 13 -10 0 -10 -8 0 -22
5 -30 10 -13 9 -13 10 0 10 8 0 22 -5 30 -10z m860 -44 c0 -3 -4 -8 -10 -11
-5 -3 -10 -1 -10 4 0 6 5 11 10 11 6 0 10 -2 10 -4z m-387 -56 c70 -23 75 -29
56 -77 l-11 -28 -18 36 c-20 39 -52 64 -94 75 -14 3 -26 10 -26 15 0 5 6 7 13
4 6 -2 42 -13 80 -25z m-188 -20 c3 -6 -4 -10 -17 -10 -18 0 -20 2 -8 10 19
12 18 12 25 0z m543 -27 c-4 -22 -22 -20 -26 1 -2 10 3 16 13 16 10 0 15 -7
13 -17z m-446 -21 c29 -19 68 -65 68 -80 0 -5 -6 -12 -14 -15 -7 -3 -16 -19
-19 -36 -6 -28 -27 -45 -27 -22 0 5 -25 43 -55 86 -30 42 -55 78 -55 81 0 12
79 2 102 -14z m-1263 -2112 c80 -6 177 -15 214 -22 l68 -11 -7 -56 c-6 -56
-44 -251 -84 -431 -19 -88 -102 -473 -136 -635 -9 -38 -24 -104 -34 -145 -11
-41 -21 -87 -24 -102 -8 -46 -44 -118 -60 -118 -15 0 -17 6 -35 125 -5 33 -19
112 -30 176 -25 137 -83 483 -144 849 -25 146 -45 286 -46 312 -1 47 -1 47 36
53 21 4 45 8 53 10 30 6 85 5 229 -5z m-366 -37 c18 -69 28 -118 37 -188 10
-73 35 -256 119 -857 29 -202 41 -296 46 -358 1 -14 5 -36 8 -50 12 -53 16
-90 9 -90 -4 0 -25 35 -47 77 -22 43 -56 102 -76 133 -20 30 -99 165 -176 300
-78 135 -208 362 -290 505 -143 247 -209 373 -202 379 13 11 60 30 136 57 48
17 123 44 166 60 66 25 154 42 244 48 13 0 23 -6 26 -16z m797 -40 c52 -14 98
-29 103 -33 4 -3 -48 -139 -116 -301 -68 -162 -165 -394 -217 -517 -51 -122
-97 -225 -102 -229 -6 -3 -8 2 -4 13 3 11 17 80 31 154 15 74 40 200 56 280
17 80 34 170 39 200 5 30 14 75 19 100 5 25 19 95 31 155 12 61 25 117 30 125
4 9 11 30 15 48 3 18 9 32 13 32 3 0 49 -12 102 -27z m-1175 -568 c92 -176
189 -360 215 -410 181 -343 260 -500 258 -513 -3 -14 -30 6 -109 81 -11 9 -22
17 -25 17 -6 0 -122 97 -261 218 -35 30 -63 52 -63 49 0 -3 75 -71 168 -151
92 -79 184 -159 204 -178 20 -18 60 -51 88 -73 57 -45 65 -78 18 -83 -22 -3
-47 16 -145 106 -65 61 -308 286 -541 502 -232 215 -420 396 -417 400 3 5 -17
28 -45 51 -27 23 -50 48 -50 55 0 27 235 224 349 293 l114 68 37 -56 c21 -31
113 -200 205 -376z m1635 363 c0 -7 -9 -24 -20 -38 -11 -14 -20 -30 -20 -36 0
-11 -145 -242 -162 -259 -6 -5 17 42 51 105 34 63 76 143 94 178 28 56 57 81
57 50z m164 -115 c83 -60 149 -119 211 -186 119 -131 114 -121 85 -152 -14
-15 -149 -119 -300 -232 -151 -113 -280 -209 -285 -214 -10 -7 -152 49 -216
86 -14 8 -29 11 -33 8 -3 -4 1 13 10 38 9 24 20 78 24 119 l7 75 152 239 c84
132 159 246 167 253 8 8 19 23 24 34 6 10 16 19 22 19 6 0 65 -39 132 -87z
m-1752 -263 c75 -129 199 -345 276 -480 77 -135 165 -289 196 -342 60 -103 67
-131 38 -147 -17 -9 -26 4 -82 112 -34 67 -66 127 -70 132 -4 6 -35 64 -70
130 -34 66 -82 156 -105 200 -23 44 -67 127 -98 185 -30 58 -98 187 -151 287
-89 170 -115 226 -83 178 8 -11 75 -126 149 -255z m415 228 c-3 -8 -6 -5 -6 6
-1 11 2 17 5 13 3 -3 4 -12 1 -19z m123 -697 c33 -195 60 -365 60 -377 0 -12
-5 -35 -12 -51 -11 -27 -12 -27 -19 27 -4 30 -19 132 -33 225 -15 94 -31 204
-36 245 -5 41 -16 120 -25 175 -34 234 -55 394 -54 416 1 27 31 -140 119 -660z
m-1288 497 c62 -47 792 -720 1025 -945 24 -23 55 -50 70 -61 46 -34 19 -35
-48 -2 -34 16 -68 30 -76 30 -20 0 -1157 439 -1255 484 l-57 27 62 127 c34 70
73 143 87 162 47 66 151 200 157 200 3 0 18 -10 35 -22z m84 -45 c-7 -7 -26 7
-26 19 0 6 6 6 15 -2 9 -7 13 -15 11 -17z m2835 -159 c105 -162 130 -207 166
-299 52 -134 52 -131 7 -150 -49 -20 -371 -115 -393 -115 -18 0 -461 192 -460
200 0 6 427 333 531 407 40 28 77 50 82 49 5 -1 35 -42 67 -92z m-951 -129 c0
-34 -45 -115 -63 -115 -11 0 3 52 24 89 25 42 39 52 39 26z m-413 -47 c-3 -8
-6 -5 -6 6 -1 11 2 17 5 13 3 -3 4 -12 1 -19z m-10 -40 c-3 -8 -6 -5 -6 6 -1
11 2 17 5 13 3 -3 4 -12 1 -19z m-10 -50 c-3 -7 -5 -2 -5 12 0 14 2 19 5 13 2
-7 2 -19 0 -25z m353 -7 c0 -5 -7 -11 -14 -14 -10 -4 -13 -1 -9 9 6 15 23 19
23 5z m283 -91 c4 -4 -26 -32 -66 -63 l-75 -56 -58 24 c-95 38 -131 108 -78
154 48 42 60 41 168 -7 56 -24 105 -48 109 -52z m-653 -2 c-7 -35 -17 -67 -23
-73 -6 -7 -7 -3 -4 10 3 11 11 46 18 78 7 31 14 55 17 52 3 -2 -1 -33 -8 -67z
m-1800 33 c53 -18 1176 -506 1310 -569 l65 -31 -149 0 c-82 -1 -147 -3 -145
-5 4 -3 233 -15 307 -16 24 0 32 -4 32 -17 0 -39 -12 -44 -96 -35 -43 5 -88 6
-98 2 -21 -7 72 -20 145 -20 60 0 46 -13 -38 -37 -43 -12 -217 -66 -388 -121
-681 -219 -982 -312 -1014 -312 -19 0 -38 71 -90 327 -6 29 -14 96 -17 149
l-7 97 194 -6 c207 -6 226 -3 64 10 l-100 8 90 6 90 5 -115 3 c-116 2 -205 12
-217 24 -3 4 -1 62 6 129 16 170 80 428 104 428 7 0 37 -9 67 -19z m185 -46
c61 -24 151 -59 200 -78 50 -19 221 -85 380 -147 160 -61 351 -136 426 -166
74 -30 139 -54 143 -54 20 0 126 -54 126 -64 0 -6 -7 -20 -15 -30 -14 -19 -17
-18 -104 22 -49 23 -92 42 -96 42 -10 0 -1207 519 -1215 528 -9 8 40 -9 155
-53z m2488 -81 c95 -42 192 -85 217 -96 54 -23 51 -25 -75 -62 l-90 -26 -50
18 c-130 48 -315 126 -315 133 0 8 121 107 133 108 4 1 85 -33 180 -75z m-448
-14 c3 -5 2 -10 -4 -10 -5 0 -13 5 -16 10 -3 6 -2 10 4 10 5 0 13 -4 16 -10z
m1220 -34 c13 -32 59 -286 53 -291 -5 -4 -458 199 -458 205 0 8 331 110 383
119 4 0 14 -14 22 -33z m-1172 17 c8 -7 -11 -33 -24 -33 -5 0 -9 9 -9 20 0 19
20 27 33 13z m-237 -63 c1 -38 0 -39 -17 -24 -14 13 -16 20 -7 40 16 34 23 30
24 -16z m465 -27 c93 -37 169 -70 169 -73 0 -8 -349 -111 -373 -110 -29 0 -57
19 -57 38 0 10 11 33 25 52 29 39 33 85 8 98 -15 9 -13 13 13 36 16 14 33 26
38 26 5 0 84 -30 177 -67z m-323 11 c-2 -9 -11 -22 -21 -28 -25 -16 -43 12
-19 31 24 18 44 16 40 -3z m-163 -41 c7 -25 -8 -30 -35 -13 -13 9 -13 11 0 20
8 5 11 10 7 10 -5 0 -5 5 -1 11 8 13 19 2 29 -28z m851 -19 c-55 -18 -102 -32
-104 -29 -9 8 0 12 88 38 123 36 132 31 16 -9z m331 -63 c109 -49 222 -99 251
-111 35 -15 57 -32 63 -47 11 -31 12 -103 0 -103 -4 0 -111 41 -237 91 -126
50 -281 111 -344 136 -63 24 -119 48 -124 53 -7 7 152 66 186 69 5 1 97 -39
205 -88z m-1210 48 c16 -16 -9 -65 -38 -74 -31 -10 -33 -1 -9 44 22 43 29 48
47 30z m83 -9 c0 -5 -5 -10 -11 -10 -5 0 -7 5 -4 10 3 6 8 10 11 10 2 0 4 -4
4 -10z m645 -19 c-12 -12 -415 -143 -426 -139 -23 8 17 30 96 54 50 14 140 41
200 59 119 35 144 40 130 26z m363 -137 c174 -69 344 -136 377 -149 56 -22 60
-26 60 -57 l0 -33 -146 2 c-80 1 -290 11 -466 23 -176 12 -340 20 -364 18 -45
-3 188 -21 496 -38 94 -5 206 -13 250 -17 l80 -8 -65 -6 -65 -6 76 -1 c42 -1
104 -5 139 -9 l63 -6 -6 -91 c-5 -91 -87 -436 -109 -463 -8 -10 -16 -9 -39 2
-15 8 -33 15 -39 15 -10 0 -179 71 -875 367 -148 63 -280 121 -292 129 -12 8
-29 14 -38 14 -9 0 -18 7 -22 16 -3 8 -12 13 -20 10 -13 -5 -130 41 -122 48 2
1 198 -3 434 -10 237 -7 522 -12 635 -12 261 2 213 5 -310 18 -648 16 -805 21
-810 27 -3 2 3 10 12 17 13 10 15 15 6 24 -9 9 -8 12 5 12 9 0 17 -3 17 -8 0
-4 17 -6 38 -4 20 2 56 -3 80 -11 27 -9 44 -11 48 -5 4 6 77 8 198 5 132 -4
162 -3 96 2 -244 21 -259 23 -264 37 -4 11 -2 12 13 4 14 -7 20 -6 25 5 7 20
23 19 53 -5 32 -25 69 -26 82 -2 12 23 3 62 -13 56 -7 -3 -21 4 -31 16 -10 11
-13 20 -7 20 7 0 12 -4 12 -10 0 -5 5 -10 11 -10 7 0 9 10 5 24 -5 22 -1 26
47 42 133 46 403 132 415 133 7 1 155 -56 330 -125z m-968 112 c0 -3 -4 -8
-10 -11 -5 -3 -10 -1 -10 4 0 6 5 11 10 11 6 0 10 -2 10 -4z m-40 -45 c0 -12
-20 -25 -27 -18 -7 7 6 27 18 27 5 0 9 -4 9 -9z m-20 -67 c0 -21 -4 -33 -10
-29 -17 10 -11 65 7 65 2 0 3 -16 3 -36z m-150 -14 c-8 -5 -17 -7 -19 -4 -3 3
1 9 9 14 8 5 17 7 19 4 3 -3 -1 -9 -9 -14z m36 -21 c10 -17 -23 -46 -37 -32
-7 7 -9 19 -6 27 7 18 33 21 43 5z m129 -29 c3 -5 1 -10 -4 -10 -6 0 -11 5
-11 10 0 6 2 10 4 10 3 0 8 -4 11 -10z m-91 -25 c4 -11 -3 -19 -20 -25 -47
-18 -56 -10 -27 22 20 22 39 23 47 3z m134 -32 c-10 -2 -18 -11 -18 -19 0 -8
-10 -14 -25 -14 -14 0 -25 4 -25 8 0 9 48 30 70 30 10 0 9 -2 -2 -5z m-128
-18 c0 -10 -10 -15 -30 -15 -49 0 -34 24 18 29 6 0 12 -6 12 -14z m35 -156
c10 -10 -28 -5 -97 12 -34 9 -48 26 -32 41 6 7 113 -38 129 -53z m-605 31 c17
-10 15 -11 -65 -34 -27 -8 -252 -73 -500 -145 -446 -129 -607 -168 -320 -77
168 53 277 87 540 172 99 31 194 57 212 58 17 0 29 4 27 8 -6 9 8 11 45 8 14
-1 21 2 17 9 -9 13 23 14 44 1z m21 -46 c12 -15 11 -18 -5 -28 -10 -6 -44 -31
-75 -57 -51 -41 -640 -493 -921 -706 -64 -49 -126 -94 -138 -100 -12 -7 -31
-19 -43 -25 -18 -12 -23 -10 -44 17 -72 92 -184 281 -222 375 l-42 105 34 16
c18 9 323 98 677 199 353 100 668 190 698 200 30 9 58 18 61 19 4 0 13 -6 20
-15z m534 2 c33 -8 63 -12 67 -10 11 7 59 -7 53 -15 -2 -4 8 -8 23 -8 26 0
1117 -456 1137 -475 6 -5 -1 -5 -15 1 -14 6 -250 94 -525 197 -275 102 -536
201 -580 219 -44 18 -116 45 -160 60 -125 41 -125 60 0 31z m-18 -80 c43 -40
177 -163 298 -272 121 -109 222 -201 225 -204 3 -3 104 -95 225 -204 218 -197
289 -263 250 -235 -53 38 -928 766 -992 825 -23 22 -65 56 -93 77 -50 37 -50
38 -34 62 9 14 22 25 29 25 8 0 49 -33 92 -74z m-522 19 c-39 -32 -55 -32 -18
0 15 13 33 24 38 24 6 0 -3 -11 -20 -24z m550 9 c24 -10 35 -20 31 -29 -3 -8
-1 -17 5 -20 5 -4 9 -3 8 2 -5 29 2 32 34 19 17 -8 295 -112 617 -232 558
-208 705 -267 696 -282 -2 -4 -27 -56 -56 -117 -47 -99 -79 -146 -223 -328
l-22 -28 -65 53 c-64 52 -879 790 -995 901 -33 31 -63 57 -67 57 -5 0 -8 5 -8
10 0 13 1 13 45 -6z m-489 -25 l22 -21 -31 -51 c-17 -29 -107 -173 -201 -322
-93 -148 -223 -355 -289 -460 -119 -189 -233 -362 -262 -399 -15 -19 -16 -19
-63 14 -26 18 -73 51 -105 73 -32 22 -61 45 -64 50 -3 6 8 23 25 38 36 33 39
41 16 60 -14 12 -21 8 -51 -26 l-34 -40 -94 100 -95 99 28 29 c15 16 146 117
292 225 483 357 530 394 525 402 -3 5 45 48 107 96 62 48 119 91 126 97 7 5
15 7 18 5 3 -3 -52 -47 -121 -98 -69 -51 -124 -95 -121 -98 3 -2 47 27 98 65
123 92 196 143 205 143 5 0 14 9 21 20 15 25 20 25 48 -1z m3388 12 c3 -4 -8
-8 -23 -7 -16 1 -27 4 -24 9 6 10 41 9 47 -2z m-3029 -76 c18 -33 139 -260
270 -505 337 -631 329 -616 318 -605 -9 8 -180 298 -534 903 -27 45 -49 89
-49 97 0 8 -4 15 -9 15 -5 0 -13 9 -16 20 -4 11 -17 32 -30 46 -32 34 -40 61
-24 80 21 25 41 11 74 -51z m-264 -13 c-5 -9 -12 -42 -16 -72 -6 -50 -54 -309
-90 -485 -15 -75 -116 -599 -141 -730 -8 -44 -19 -88 -24 -97 -6 -10 -10 -25
-10 -33 0 -19 10 -20 -123 14 -106 27 -395 146 -425 175 -11 10 -7 24 21 77
59 111 694 1103 723 1129 15 14 24 19 20 13 -8 -15 3 -17 23 -4 11 7 9 10 -8
16 -17 5 -19 10 -11 26 10 18 13 18 41 4 23 -12 27 -19 20 -33z m196 -22 c4
-14 13 -30 21 -36 9 -6 13 -18 9 -27 -4 -10 -2 -16 5 -14 11 2 37 -39 388
-638 122 -209 239 -407 259 -440 36 -60 67 -133 59 -141 -3 -2 -54 -23 -114
-45 -143 -54 -272 -86 -363 -91 l-73 -3 -13 50 c-7 28 -32 176 -54 330 -22
154 -57 388 -76 520 -20 132 -42 285 -50 340 -8 55 -17 118 -20 140 -17 121
-17 122 0 100 9 -11 19 -31 22 -45z m-47 16 c0 -18 4 -56 10 -84 11 -58 45
-291 95 -642 19 -135 38 -261 41 -280 4 -19 4 -33 1 -30 -5 5 -25 109 -101
540 -8 47 -27 150 -41 229 -15 79 -25 159 -23 177 1 17 -2 38 -8 45 -6 8 -11
29 -12 47 -2 26 1 32 18 32 16 0 20 -7 20 -34z m-110 17 c0 -5 -5 -15 -10 -23
-8 -12 -10 -11 -10 8 0 12 5 22 10 22 6 0 10 -3 10 -7z m50 -22 c0 -16 -6 -32
-12 -34 -8 -3 -6 -6 5 -6 20 -1 22 -21 5 -40 -9 -10 -9 -12 -1 -7 21 12 11 59
123 -574 63 -354 86 -487 111 -618 10 -57 19 -121 19 -142 0 -36 -2 -39 -32
-45 -85 -14 -394 -3 -489 18 l-54 13 0 44 c-1 56 0 58 146 735 66 308 125 588
131 623 9 49 15 62 30 62 13 0 18 -8 18 -29z m237 12 c7 -19 33 -49 33 -38 0
4 17 -6 38 -22 73 -54 936 -778 995 -834 l59 -56 -107 -94 c-102 -90 -320
-239 -350 -239 -8 0 -22 15 -31 33 -9 17 -20 34 -23 37 -7 5 -162 292 -468
863 -78 148 -143 274 -143 281 0 8 -6 19 -14 25 -15 13 -19 61 -4 61 5 0 12
-8 15 -17z m-327 -160 c-25 -130 -48 -224 -49 -203 -1 9 12 83 29 165 16 83
30 155 31 160 0 6 3 4 6 -2 2 -7 -5 -61 -17 -120z m2349 75 c-1 -31 -1 -31 -8
-8 -5 14 -6 28 -4 33 9 15 13 6 12 -25z m-3562 -34 c-3 -3 -12 -4 -19 -1 -8 3
-5 6 6 6 11 1 17 -2 13 -5z m1160 -296 c-3 -7 -5 -2 -5 12 0 14 2 19 5 13 2
-7 2 -19 0 -25z m-10 -40 c-3 -8 -6 -5 -6 6 -1 11 2 17 5 13 3 -3 4 -12 1 -19z"/>
<path d="M2445 4010 c10 -11 20 -20 23 -20 3 0 -3 9 -13 20 -10 11 -20 20 -23
20 -3 0 3 -9 13 -20z"/>
<path d="M2510 3955 c13 -14 26 -25 28 -25 3 0 -5 11 -18 25 -13 14 -26 25
-28 25 -3 0 5 -11 18 -25z"/>
<path d="M2560 3917 c0 -2 15 -16 33 -33 l32 -29 -29 33 c-28 30 -36 37 -36
29z"/>
<path d="M2650 3835 c13 -14 26 -25 28 -25 3 0 -5 11 -18 25 -13 14 -26 25
-28 25 -3 0 5 -11 18 -25z"/>
<path d="M2720 3775 c13 -14 26 -25 28 -25 3 0 -5 11 -18 25 -13 14 -26 25
-28 25 -3 0 5 -11 18 -25z"/>
<path d="M2770 3737 c0 -2 15 -16 33 -33 l32 -29 -29 33 c-28 30 -36 37 -36
29z"/>
<path d="M2860 3655 c13 -14 26 -25 28 -25 3 0 -5 11 -18 25 -13 14 -26 25
-28 25 -3 0 5 -11 18 -25z"/>
<path d="M2920 3605 c13 -14 26 -25 28 -25 3 0 -5 11 -18 25 -13 14 -26 25
-28 25 -3 0 5 -11 18 -25z"/>
<path d="M2990 3545 c13 -14 26 -25 28 -25 3 0 -5 11 -18 25 -13 14 -26 25
-28 25 -3 0 5 -11 18 -25z"/>
<path d="M2340 2970 c85 -4 292 -10 460 -13 203 -3 253 -3 150 3 -85 4 -292
10 -460 13 -204 3 -254 3 -150 -3z"/>
<path d="M2385 2935 c77 -7 203 -15 280 -18 l140 -6 -155 14 c-85 7 -211 16
-280 18 l-125 6 140 -14z"/>
<path d="M2945 2894 c77 -7 174 -12 215 -12 58 1 40 4 -75 14 -82 7 -179 12
-215 12 -44 -1 -21 -5 75 -14z"/>
<path d="M4286 5937 c-18 -13 -60 -162 -51 -178 3 -4 19 -10 35 -14 16 -4 32
-10 35 -14 2 -5 -9 -47 -25 -95 -22 -67 -26 -86 -15 -86 8 0 22 16 30 36 14
34 17 36 47 30 18 -4 41 -7 51 -7 23 0 49 27 45 49 -1 9 7 31 19 48 22 31 76
145 70 150 -9 9 -172 74 -186 74 -9 0 -22 5 -27 10 -7 7 -16 6 -28 -3z m99
-297 c3 -5 1 -10 -4 -10 -6 0 -11 5 -11 10 0 6 2 10 4 10 3 0 8 -4 11 -10z"/>
</g>
</svg>
