<svg width="36" height="36" viewBox="0 0 36 36" fill="none" xmlns="http://www.w3.org/2000/svg">
<path d="M18 30C24.6274 30 30 24.6274 30 18C30 11.3726 24.6274 6 18 6C11.3726 6 6 11.3726 6 18C6 24.6274 11.3726 30 18 30Z" fill="#F4B13B"/>
<path d="M16.5 23.6895C16.5 22.8984 17.1567 22.21 17.9925 22.21C18.8284 22.21 19.4851 22.8984 19.4851 23.6895C19.4851 24.4805 18.8284 25.1396 17.9925 25.1396C17.1567 25.1396 16.5 24.4658 16.5 23.6895Z" fill="#ECEDEB"/>
<path d="M19.4854 11.4727C19.4854 12.2783 19.1868 14.3437 18.8286 17.376L18.4704 20.3936H17.5003L17.1421 17.376C16.7839 14.3291 16.4854 12.2637 16.4854 11.4727C16.4854 10.5352 17.0525 10.1396 17.9779 10.1396C18.9033 10.1396 19.4704 10.5352 19.4704 11.4727H19.4854Z" fill="#ECEDEB"/>
</svg>
