<svg width="74" height="53" viewBox="0 0 74 53" fill="none" xmlns="http://www.w3.org/2000/svg">
<rect x="18.3333" y="0.333984" width="37.3333" height="2.33333" rx="1.16667" fill="#6A51CA"/>
<path d="M28.7986 23.334L32.2986 14.0007L29.9653 12.834" stroke="#383838" stroke-linecap="round" stroke-linejoin="round"/>
<path d="M32.2986 15.5283L38.1319 24.5L40.4653 14" stroke="#383838" stroke-linecap="round" stroke-linejoin="round"/>
<path d="M32.2986 15.168L39.2986 16.918" stroke="#383838" stroke-linecap="round" stroke-linejoin="round"/>
<path d="M39.8818 17.5L45.1318 23.3333L38.1318 23.9167" stroke="#383838" stroke-linecap="round" stroke-linejoin="round"/>
<path d="M39.8818 17.5L45.1318 23.3333L38.1318 23.9167" stroke="#383838" stroke-linecap="round" stroke-linejoin="round"/>
<path d="M39.2986 14H41.8886" stroke="#383838" stroke-linecap="round" stroke-linejoin="round"/>
<path d="M41.4685 21.888L40.9435 21.3047C40.8385 21.5147 40.7685 21.7247 40.6985 21.9464L41.4685 21.8764V21.888Z" fill="#383838" stroke="#383838" stroke-linecap="round" stroke-linejoin="round"/>
<path d="M45.1319 18.668C44.5719 18.668 44.0469 18.7846 43.5569 18.9596L46.4386 22.1563C46.8819 22.6463 47.0102 23.358 46.7652 23.9763C46.5202 24.5946 45.9486 25.0146 45.2836 25.073L40.9902 25.4346C41.7602 26.9513 43.3236 28.0013 45.1319 28.0013C47.7102 28.0013 49.7986 25.913 49.7986 23.3346C49.7986 20.7563 47.7102 18.668 45.1319 18.668Z" fill="#383838" stroke="#383838" stroke-linecap="round" stroke-linejoin="round"/>
<path d="M33.3134 22.2147C33.2434 21.9464 33.1617 21.6897 33.0567 21.4331C33.0567 21.4097 33.0334 21.3981 33.0217 21.3747C32.7651 20.8264 32.4034 20.3247 31.9601 19.9164C31.9601 19.9164 31.9601 19.9164 31.9484 19.9047C31.5051 19.4964 31.0034 19.1814 30.4317 18.9714L29.4167 21.6897C30.0817 21.9347 30.5484 22.5764 30.5484 23.3231C30.5484 23.5797 30.4901 23.8131 30.3967 24.0347C30.1984 24.4781 29.8017 24.8281 29.3351 24.9797C29.3117 24.9797 29.2884 24.9914 29.2534 25.0031C29.1134 25.0381 28.9617 25.0731 28.7984 25.0731C28.6001 25.0731 28.4017 25.0264 28.2267 24.9681C28.2151 24.9681 28.2034 24.9681 28.1917 24.9681C28.1917 24.9681 28.1684 24.9681 28.1684 24.9564C28.0984 24.9331 28.0401 24.8981 27.9817 24.8631C27.9351 24.8397 27.9001 24.8164 27.8534 24.7931C27.8067 24.7581 27.7601 24.7231 27.7017 24.6764C27.6667 24.6414 27.6201 24.6181 27.5851 24.5831C27.5384 24.5364 27.5034 24.4897 27.4684 24.4431C27.4334 24.4081 27.3984 24.3731 27.3751 24.3264C27.3401 24.2681 27.3051 24.2097 27.2817 24.1514C27.2584 24.1164 27.2351 24.0697 27.2117 24.0347C27.1884 23.9764 27.1651 23.9181 27.1534 23.8481C27.1417 23.8014 27.1184 23.7547 27.1067 23.7081C27.0951 23.6497 27.0951 23.5914 27.0834 23.5331C27.0834 23.4747 27.0717 23.4164 27.0717 23.3581C27.0717 23.3464 27.0717 23.3347 27.0717 23.3231C27.0717 23.2764 27.0717 23.2297 27.0834 23.1831C27.0834 23.1247 27.0834 23.0781 27.0951 23.0197C27.1067 22.9381 27.1301 22.8681 27.1534 22.7981C27.1534 22.7747 27.1651 22.7397 27.1767 22.7164L27.2001 22.6581L28.6934 18.6914C27.4334 18.7264 26.3017 19.2514 25.4851 20.0914C25.4617 20.1147 25.4501 20.1264 25.4384 20.1497C25.2517 20.3481 25.0884 20.5464 24.9367 20.7681C24.8901 20.8381 24.8551 20.9197 24.8201 20.9897C24.7151 21.1764 24.6101 21.3514 24.5284 21.5497C24.4701 21.6897 24.4351 21.8531 24.3884 22.0047C24.3417 22.1447 24.2951 22.2731 24.2601 22.4247C24.2017 22.7281 24.1667 23.0314 24.1667 23.3581C24.1667 25.9364 26.2551 28.0247 28.8334 28.0247C31.4117 28.0247 33.5001 25.9364 33.5001 23.3581C33.5001 23.0197 33.4651 22.6931 33.3951 22.3897C33.3951 22.3431 33.3601 22.2964 33.3484 22.2497L33.3134 22.2147Z" fill="#383838" stroke="#383838" stroke-linecap="round" stroke-linejoin="round"/>
<path d="M6.04523 44.416L8.91323 37.504H10.2332V46H9.36924V38.656H9.34523L6.27323 46H5.81723L2.74523 38.656H2.72123V46H1.85723V37.504H3.17723L6.04523 44.416ZM14.453 45.028L16.169 40.384H17.129L14.321 47.464C14.153 47.896 13.937 48.24 13.673 48.496C13.417 48.752 13.045 48.88 12.557 48.88C12.437 48.88 12.313 48.876 12.185 48.868C12.065 48.86 11.945 48.836 11.825 48.796L11.909 48.028C12.077 48.116 12.277 48.16 12.509 48.16C12.789 48.16 13.009 48.072 13.169 47.896C13.329 47.72 13.469 47.472 13.589 47.152L13.997 46.072L11.693 40.384H12.689L14.453 45.028ZM22.8859 45.208H27.4339V46H22.0219V37.504H27.2899V38.296H22.8859V41.188H27.0019V41.98H22.8859V45.208ZM31.7272 44.704H31.7512L34.5352 37.504H35.4712L32.1592 46H31.2952L28.0672 37.504H29.0272L31.7272 44.704ZM37.5751 46H36.7111V37.504H37.5751V46ZM40.8592 45.208H45.4072V46H39.9952V37.504H45.2632V38.296H40.8592V41.188H44.9752V41.98H40.8592V45.208ZM51.5523 45.208H53.2083C53.5203 45.208 53.8123 45.176 54.0843 45.112C54.3563 45.048 54.5923 44.952 54.7923 44.824C54.9923 44.688 55.1483 44.52 55.2603 44.32C55.3803 44.12 55.4403 43.88 55.4403 43.6C55.4403 43.04 55.2603 42.624 54.9003 42.352C54.5403 42.08 54.0123 41.944 53.3163 41.944H51.5523V45.208ZM51.5523 41.224H53.2923C53.5003 41.224 53.7043 41.2 53.9043 41.152C54.1123 41.096 54.2963 41.008 54.4563 40.888C54.6243 40.768 54.7603 40.616 54.8643 40.432C54.9683 40.24 55.0203 40.008 55.0203 39.736C55.0203 39.648 55.0003 39.524 54.9603 39.364C54.9283 39.204 54.8483 39.044 54.7203 38.884C54.6003 38.724 54.4203 38.588 54.1803 38.476C53.9403 38.356 53.6163 38.296 53.2083 38.296H51.5523V41.224ZM50.6883 37.504H53.2203C53.5723 37.504 53.9123 37.54 54.2403 37.612C54.5683 37.684 54.8603 37.804 55.1163 37.972C55.3723 38.14 55.5763 38.36 55.7283 38.632C55.8803 38.904 55.9563 39.24 55.9563 39.64C55.9563 40.104 55.8243 40.504 55.5603 40.84C55.3043 41.168 54.9363 41.388 54.4563 41.5V41.524C55.0563 41.572 55.5243 41.784 55.8603 42.16C56.2043 42.528 56.3763 43.024 56.3763 43.648C56.3763 43.784 56.3403 43.984 56.2683 44.248C56.2043 44.512 56.0643 44.776 55.8483 45.04C55.6323 45.296 55.3203 45.52 54.9123 45.712C54.5043 45.904 53.9603 46 53.2803 46H50.6883V37.504ZM59.2309 38.224C59.2309 38.392 59.1709 38.532 59.0509 38.644C58.9309 38.748 58.7989 38.8 58.6549 38.8C58.5109 38.8 58.3789 38.748 58.2589 38.644C58.1389 38.532 58.0789 38.392 58.0789 38.224C58.0789 38.056 58.1389 37.92 58.2589 37.816C58.3789 37.704 58.5109 37.648 58.6549 37.648C58.7989 37.648 58.9309 37.704 59.0509 37.816C59.1709 37.92 59.2309 38.056 59.2309 38.224ZM59.0509 46H58.2589V40.384H59.0509V46ZM61.8737 42.916L64.5257 40.384H65.7137L62.9177 42.952L66.0137 46H64.7897L61.8737 43.048V46H61.0817V36.928H61.8737V42.916ZM71.3588 42.76C71.3588 42.224 71.1988 41.792 70.8788 41.464C70.5588 41.128 70.1108 40.96 69.5348 40.96C69.2788 40.96 69.0308 41.012 68.7908 41.116C68.5508 41.212 68.3388 41.344 68.1548 41.512C67.9788 41.68 67.8348 41.872 67.7228 42.088C67.6188 42.304 67.5668 42.528 67.5668 42.76H71.3588ZM67.5428 43.408C67.5668 43.688 67.6348 43.952 67.7468 44.2C67.8588 44.448 68.0068 44.664 68.1908 44.848C68.3748 45.024 68.5868 45.164 68.8268 45.268C69.0668 45.372 69.3268 45.424 69.6068 45.424C70.0308 45.424 70.3948 45.328 70.6988 45.136C71.0108 44.936 71.2468 44.708 71.4068 44.452L72.0188 44.956C71.6828 45.38 71.3108 45.684 70.9028 45.868C70.5028 46.052 70.0708 46.144 69.6068 46.144C69.1908 46.144 68.8028 46.072 68.4428 45.928C68.0908 45.776 67.7868 45.568 67.5308 45.304C67.2748 45.04 67.0708 44.728 66.9188 44.368C66.7748 44.008 66.7028 43.616 66.7028 43.192C66.7028 42.768 66.7748 42.376 66.9188 42.016C67.0628 41.656 67.2628 41.344 67.5188 41.08C67.7748 40.816 68.0748 40.612 68.4188 40.468C68.7628 40.316 69.1348 40.24 69.5348 40.24C69.9588 40.24 70.3388 40.316 70.6748 40.468C71.0108 40.62 71.2908 40.824 71.5148 41.08C71.7468 41.328 71.9228 41.624 72.0428 41.968C72.1628 42.304 72.2228 42.664 72.2228 43.048V43.408H67.5428Z" fill="#6A51CA"/>
</svg>
