<svg width="28" height="28" viewBox="0 0 28 28" fill="none" xmlns="http://www.w3.org/2000/svg">
<path d="M5.83341 20.9994C8.41074 20.9994 10.5001 18.91 10.5001 16.3327C10.5001 13.7554 8.41074 11.666 5.83341 11.666C3.25609 11.666 1.16675 13.7554 1.16675 16.3327C1.16675 18.91 3.25609 20.9994 5.83341 20.9994Z" stroke="#C4C4C5" stroke-linecap="round" stroke-linejoin="round"/>
<path d="M22.1667 20.9993C24.744 20.9993 26.8333 18.91 26.8333 16.3327C26.8333 13.7554 24.744 11.666 22.1667 11.666C19.5893 11.666 17.5 13.7554 17.5 16.3327C17.5 18.91 19.5893 20.9993 22.1667 20.9993Z" stroke="#C4C4C5" stroke-linecap="round" stroke-linejoin="round"/>
<path d="M5.8335 16.333L9.3335 6.99967L7.00016 5.83301" stroke="#C4C4C5" stroke-linecap="round" stroke-linejoin="round"/>
<path d="M9.3335 8.52335L15.1668 17.5L17.5002 7" stroke="#C4C4C5" stroke-linecap="round" stroke-linejoin="round"/>
<path d="M9.3335 8.16602L16.3335 9.91602" stroke="#C4C4C5" stroke-linecap="round" stroke-linejoin="round"/>
<path d="M16.9167 10.5L22.1667 16.3333L15.1667 16.9167" stroke="#C4C4C5" stroke-linecap="round" stroke-linejoin="round"/>
<path d="M16.3335 7H18.9235" stroke="#C4C4C5" stroke-linecap="round" stroke-linejoin="round"/>
</svg>
