<svg width="36" height="36" viewBox="0 0 36 36" fill="none" xmlns="http://www.w3.org/2000/svg">
<path d="M18.7262 6.41625L31.4012 28.7362C31.7162 29.2913 31.3262 29.9963 30.6812 29.9963H5.3312C4.6862 29.9963 4.2962 29.2913 4.6112 28.7362L17.2862 6.41625C17.6012 5.86125 18.3962 5.86125 18.7262 6.41625Z" fill="#F42525"/>
<path d="M16.5059 26.2061C16.5059 25.415 17.1626 24.7266 17.9984 24.7266C18.8342 24.7266 19.4909 25.415 19.4909 26.2061C19.4909 26.9971 18.8342 27.6562 17.9984 27.6562C17.1626 27.6562 16.5059 26.9824 16.5059 26.2061Z" fill="#ECEDEB"/>
<path d="M19.4912 13.9893C19.4912 14.7949 19.1927 16.8604 18.8345 19.8926L18.4763 22.9102H17.5061L17.1479 19.8926C16.7897 16.8457 16.4912 14.7803 16.4912 13.9893C16.4912 13.0518 17.0584 12.6562 17.9837 12.6562C18.9091 12.6562 19.4763 13.0518 19.4763 13.9893H19.4912Z" fill="#ECEDEB"/>
</svg>
