<svg width="36" height="36" viewBox="0 0 36 36" fill="none" xmlns="http://www.w3.org/2000/svg">
<path d="M10.8531 27.5235C12.1713 27.5235 13.2354 26.4594 13.2354 25.1411C13.2354 23.8229 12.1713 22.7588 10.8531 22.7588C9.53482 22.7588 8.4707 23.8229 8.4707 25.1411C8.4707 26.4594 9.53482 27.5235 10.8531 27.5235Z" fill="#E69200"/>
<path d="M30.7059 31.4941C30.4994 31.4941 30.2929 31.4147 30.15 31.2558L4.73824 5.84408C4.42059 5.54232 4.42059 5.03408 4.73824 4.73232C5.05588 4.43055 5.54824 4.41467 5.85 4.73232L31.2618 30.1441C31.5794 30.4617 31.5794 30.9541 31.2618 31.2717C31.1029 31.4306 30.8965 31.51 30.7059 31.51V31.4941Z" fill="#E69200"/>
<path d="M14.2042 9.70301C17.3648 10.4177 20.2554 12.006 22.479 14.3883C24.4484 16.5007 25.7507 19.0895 26.3542 21.853L28.2601 23.7589C27.9266 19.8677 26.3225 16.1989 23.6384 13.3083C20.6842 10.1318 16.6184 8.17831 12.2666 7.78125L14.2042 9.7189V9.70301Z" fill="#E69200"/>
<path d="M8.89941 13.3877C8.96294 13.7053 9.23294 13.9595 9.53471 14.023L8.89941 13.3877Z" fill="#E69200"/>
<path d="M21.9388 26.4268C21.9388 26.7603 21.9071 27.0938 21.8753 27.4273C21.8277 27.8562 22.1294 28.2532 22.5582 28.3168C22.59 28.3168 22.6218 28.3168 22.6535 28.3168C22.9712 28.3168 23.2412 28.1262 23.3682 27.8562L21.9388 26.4268Z" fill="#E69200"/>
<path d="M13.4098 17.8981C12.2345 17.3899 10.9481 17.1516 9.62984 17.2151C9.18513 17.231 8.85161 17.6122 8.86749 18.041C8.88337 18.4857 9.26455 18.851 9.69337 18.8034C11.8375 18.6922 13.9022 19.5975 15.2998 21.2175C16.7293 22.8851 17.3963 25.1563 17.1422 27.4434C17.0945 27.8722 17.4122 28.2693 17.841 28.3169C17.8728 28.3169 17.9045 28.3169 17.9363 28.3169C18.3334 28.3169 18.6828 28.0151 18.7304 27.6181C18.9369 25.7916 18.6351 23.9969 17.9045 22.3928L13.4098 17.8981Z" fill="#E69200"/>
</svg>
