<svg width="32" height="32" viewBox="0 0 32 32" fill="none" xmlns="http://www.w3.org/2000/svg">
<circle cx="16" cy="16" r="15.5" fill="#ECEDEB" stroke="#ECEDEB"/>
<circle cx="16" cy="16" r="14.75" fill="#ECEDEB" stroke="#CECFCF" stroke-width="0.5"/>
<path d="M22.6667 11.4165H9.33333C8.8731 11.4165 8.5 11.7896 8.5 12.2498V20.5832C8.5 21.0434 8.8731 21.4165 9.33333 21.4165H22.6667C23.1269 21.4165 23.5 21.0434 23.5 20.5832V12.2498C23.5 11.7896 23.1269 11.4165 22.6667 11.4165Z" stroke="#383838" stroke-linecap="round" stroke-linejoin="round"/>
<path d="M13.4998 9.75H18.5081C18.9665 9.75 19.3415 10.125 19.3415 10.5833V11.4167H12.6748V10.5833C12.6748 10.125 13.0498 9.75 13.5081 9.75H13.4998Z" fill="#383838" stroke="#383838" stroke-linecap="round" stroke-linejoin="round"/>
<path d="M16.0002 19.3333C17.611 19.3333 18.9168 18.0275 18.9168 16.4167C18.9168 14.8058 17.611 13.5 16.0002 13.5C14.3893 13.5 13.0835 14.8058 13.0835 16.4167C13.0835 18.0275 14.3893 19.3333 16.0002 19.3333Z" fill="#383838" stroke="#383838" stroke-linecap="round" stroke-linejoin="round"/>
</svg>
