<svg width="24" height="24" viewBox="0 0 24 24" fill="none" xmlns="http://www.w3.org/2000/svg">
<path d="M16 6C16 5.45 15.55 5 15 5H9C8.45 5 8 5.45 8 6C8 6.55 7.55 7 7 7H4C3.45 7 3 7.45 3 8V18C3 18.55 3.45 19 4 19H20C20.55 19 21 18.55 21 18V8C21 7.45 20.55 7 20 7H17C16.45 7 16 6.55 16 6Z" stroke="#6A51CA" stroke-linecap="round" stroke-linejoin="round"/>
<path d="M12 17.0508C14.2091 17.0508 16 15.2599 16 13.0508C16 10.8416 14.2091 9.05078 12 9.05078C9.79086 9.05078 8 10.8416 8 13.0508C8 15.2599 9.79086 17.0508 12 17.0508Z" stroke="#6A51CA" stroke-linecap="round" stroke-linejoin="round"/>
<path d="M17.1001 8.80078H19.1001" stroke="#6A51CA" stroke-linecap="round" stroke-linejoin="round"/>
</svg>
