<svg width="123" height="30" viewBox="0 0 123 30" fill="none" xmlns="http://www.w3.org/2000/svg">
<path d="M1.52705 9.588H5.43305C6.08639 9.588 6.71639 9.69067 7.32306 9.896C7.92972 10.092 8.46639 10.3953 8.93306 10.806C9.39972 11.2167 9.77306 11.7347 10.0531 12.36C10.3331 12.976 10.4731 13.704 10.4731 14.544C10.4731 15.3933 10.3097 16.1307 9.98306 16.756C9.66572 17.372 9.25039 17.8853 8.73706 18.296C8.23306 18.6973 7.66839 19.0007 7.04306 19.206C6.42705 19.402 5.82039 19.5 5.22306 19.5H1.52705V9.588ZM4.60706 17.904C5.15772 17.904 5.67572 17.8433 6.16106 17.722C6.65572 17.5913 7.08506 17.3953 7.44906 17.134C7.81306 16.8633 8.09772 16.518 8.30306 16.098C8.51772 15.6687 8.62506 15.1507 8.62506 14.544C8.62506 13.9467 8.53172 13.4333 8.34506 13.004C8.15839 12.5747 7.89706 12.2293 7.56106 11.968C7.23439 11.6973 6.84239 11.5013 6.38506 11.38C5.93706 11.2493 5.44239 11.184 4.90106 11.184H3.29106V17.904H4.60706ZM12.1641 12.78H13.8441V19.5H12.1641V12.78ZM11.9261 10.498C11.9261 10.2273 12.0241 9.994 12.2201 9.798C12.4254 9.59267 12.6821 9.49 12.9901 9.49C13.2981 9.49 13.5548 9.588 13.7601 9.784C13.9748 9.97067 14.0821 10.2087 14.0821 10.498C14.0821 10.7873 13.9748 11.03 13.7601 11.226C13.5548 11.4127 13.2981 11.506 12.9901 11.506C12.6821 11.506 12.4254 11.408 12.2201 11.212C12.0241 11.0067 11.9261 10.7687 11.9261 10.498ZM19.4968 14.642C19.1702 14.1847 18.7315 13.956 18.1808 13.956C17.9568 13.956 17.7375 14.012 17.5228 14.124C17.3082 14.236 17.2008 14.418 17.2008 14.67C17.2008 14.8753 17.2895 15.0247 17.4668 15.118C17.6442 15.2113 17.8682 15.2907 18.1388 15.356C18.4095 15.4213 18.6988 15.4913 19.0068 15.566C19.3242 15.6313 19.6182 15.7387 19.8888 15.888C20.1595 16.028 20.3835 16.224 20.5608 16.476C20.7382 16.728 20.8268 17.0733 20.8268 17.512C20.8268 17.9133 20.7382 18.254 20.5608 18.534C20.3928 18.8047 20.1688 19.024 19.8888 19.192C19.6182 19.36 19.3102 19.4813 18.9648 19.556C18.6195 19.6307 18.2742 19.668 17.9288 19.668C17.4062 19.668 16.9255 19.5933 16.4868 19.444C16.0482 19.2947 15.6562 19.024 15.3108 18.632L16.4308 17.582C16.6455 17.8247 16.8742 18.0253 17.1168 18.184C17.3688 18.3333 17.6722 18.408 18.0268 18.408C18.1482 18.408 18.2742 18.394 18.4048 18.366C18.5355 18.338 18.6568 18.2913 18.7688 18.226C18.8808 18.1607 18.9695 18.0813 19.0348 17.988C19.1095 17.8853 19.1468 17.7687 19.1468 17.638C19.1468 17.4047 19.0582 17.232 18.8808 17.12C18.7035 17.008 18.4795 16.9193 18.2088 16.854C17.9382 16.7793 17.6442 16.714 17.3268 16.658C17.0188 16.5927 16.7295 16.4947 16.4588 16.364C16.1882 16.224 15.9642 16.0327 15.7868 15.79C15.6095 15.5473 15.5208 15.2113 15.5208 14.782C15.5208 14.4087 15.5955 14.0867 15.7448 13.816C15.9035 13.536 16.1088 13.3073 16.3608 13.13C16.6128 12.9527 16.9022 12.822 17.2288 12.738C17.5555 12.654 17.8868 12.612 18.2228 12.612C18.6708 12.612 19.1142 12.6913 19.5528 12.85C19.9915 12.9993 20.3462 13.2607 20.6168 13.634L19.4968 14.642ZM26.8655 14.796C26.6695 14.5907 26.4642 14.4273 26.2495 14.306C26.0349 14.1847 25.8155 14.124 25.5915 14.124C25.2835 14.124 25.0082 14.18 24.7655 14.292C24.5229 14.404 24.3129 14.5533 24.1355 14.74C23.9675 14.9267 23.8369 15.1413 23.7435 15.384C23.6595 15.6267 23.6175 15.8787 23.6175 16.14C23.6175 16.4013 23.6595 16.6533 23.7435 16.896C23.8369 17.1387 23.9675 17.3533 24.1355 17.54C24.3129 17.7267 24.5229 17.876 24.7655 17.988C25.0082 18.1 25.2835 18.156 25.5915 18.156C25.8529 18.156 26.0955 18.1047 26.3195 18.002C26.5435 17.89 26.7349 17.7313 26.8935 17.526L28.0135 18.73C27.8455 18.898 27.6495 19.0427 27.4255 19.164C27.2109 19.2853 26.9915 19.3833 26.7675 19.458C26.5435 19.5327 26.3289 19.584 26.1235 19.612C25.9182 19.6493 25.7409 19.668 25.5915 19.668C25.0875 19.668 24.6115 19.584 24.1635 19.416C23.7155 19.248 23.3282 19.01 23.0015 18.702C22.6749 18.394 22.4135 18.0253 22.2175 17.596C22.0309 17.1573 21.9375 16.672 21.9375 16.14C21.9375 15.608 22.0309 15.1273 22.2175 14.698C22.4135 14.2593 22.6749 13.886 23.0015 13.578C23.3282 13.27 23.7155 13.032 24.1635 12.864C24.6115 12.696 25.0875 12.612 25.5915 12.612C26.0209 12.612 26.4502 12.696 26.8795 12.864C27.3182 13.0227 27.7009 13.2793 28.0275 13.634L26.8655 14.796ZM28.8314 16.14C28.8314 15.608 28.9248 15.1273 29.1114 14.698C29.3074 14.2593 29.5688 13.886 29.8954 13.578C30.2221 13.27 30.6094 13.032 31.0574 12.864C31.5054 12.696 31.9814 12.612 32.4854 12.612C32.9894 12.612 33.4654 12.696 33.9134 12.864C34.3614 13.032 34.7488 13.27 35.0754 13.578C35.4021 13.886 35.6588 14.2593 35.8454 14.698C36.0414 15.1273 36.1394 15.608 36.1394 16.14C36.1394 16.672 36.0414 17.1573 35.8454 17.596C35.6588 18.0253 35.4021 18.394 35.0754 18.702C34.7488 19.01 34.3614 19.248 33.9134 19.416C33.4654 19.584 32.9894 19.668 32.4854 19.668C31.9814 19.668 31.5054 19.584 31.0574 19.416C30.6094 19.248 30.2221 19.01 29.8954 18.702C29.5688 18.394 29.3074 18.0253 29.1114 17.596C28.9248 17.1573 28.8314 16.672 28.8314 16.14ZM30.5114 16.14C30.5114 16.4013 30.5534 16.6533 30.6374 16.896C30.7308 17.1387 30.8614 17.3533 31.0294 17.54C31.2068 17.7267 31.4168 17.876 31.6594 17.988C31.9021 18.1 32.1774 18.156 32.4854 18.156C32.7934 18.156 33.0688 18.1 33.3114 17.988C33.5541 17.876 33.7594 17.7267 33.9274 17.54C34.1048 17.3533 34.2354 17.1387 34.3194 16.896C34.4128 16.6533 34.4594 16.4013 34.4594 16.14C34.4594 15.8787 34.4128 15.6267 34.3194 15.384C34.2354 15.1413 34.1048 14.9267 33.9274 14.74C33.7594 14.5533 33.5541 14.404 33.3114 14.292C33.0688 14.18 32.7934 14.124 32.4854 14.124C32.1774 14.124 31.9021 14.18 31.6594 14.292C31.4168 14.404 31.2068 14.5533 31.0294 14.74C30.8614 14.9267 30.7308 15.1413 30.6374 15.384C30.5534 15.6267 30.5114 15.8787 30.5114 16.14ZM36.9424 12.78H38.7764L40.5684 17.484H40.5964L42.4024 12.78H44.1244L41.4784 19.5H39.6864L36.9424 12.78ZM46.5961 16.728C46.6521 17.232 46.8481 17.624 47.1841 17.904C47.5201 18.184 47.9261 18.324 48.4021 18.324C48.8221 18.324 49.1721 18.24 49.4521 18.072C49.7415 17.8947 49.9935 17.6753 50.2081 17.414L51.4121 18.324C51.0201 18.8093 50.5815 19.1547 50.0961 19.36C49.6108 19.5653 49.1021 19.668 48.5701 19.668C48.0661 19.668 47.5901 19.584 47.1421 19.416C46.6941 19.248 46.3068 19.01 45.9801 18.702C45.6535 18.394 45.3921 18.0253 45.1961 17.596C45.0095 17.1573 44.9161 16.672 44.9161 16.14C44.9161 15.608 45.0095 15.1273 45.1961 14.698C45.3921 14.2593 45.6535 13.886 45.9801 13.578C46.3068 13.27 46.6941 13.032 47.1421 12.864C47.5901 12.696 48.0661 12.612 48.5701 12.612C49.0368 12.612 49.4615 12.696 49.8441 12.864C50.2361 13.0227 50.5675 13.256 50.8381 13.564C51.1181 13.872 51.3328 14.2547 51.4821 14.712C51.6408 15.16 51.7201 15.678 51.7201 16.266V16.728H46.5961ZM50.0401 15.468C50.0308 14.9733 49.8768 14.586 49.5781 14.306C49.2795 14.0167 48.8641 13.872 48.3321 13.872C47.8281 13.872 47.4268 14.0167 47.1281 14.306C46.8388 14.5953 46.6615 14.9827 46.5961 15.468H50.0401ZM53.4312 12.78H55.1112V13.844H55.1392C55.3258 13.452 55.5918 13.1487 55.9372 12.934C56.2825 12.7193 56.6792 12.612 57.1272 12.612C57.2298 12.612 57.3278 12.6213 57.4212 12.64C57.5238 12.6587 57.6265 12.682 57.7292 12.71V14.334C57.5892 14.2967 57.4492 14.2687 57.3092 14.25C57.1785 14.222 57.0478 14.208 56.9172 14.208C56.5252 14.208 56.2078 14.2827 55.9652 14.432C55.7318 14.572 55.5498 14.7353 55.4192 14.922C55.2978 15.1087 55.2138 15.2953 55.1672 15.482C55.1298 15.6687 55.1112 15.8087 55.1112 15.902V19.5H53.4312V12.78ZM63.4492 9.588H70.0152V11.184H65.2132V13.62H69.7632V15.216H65.2132V17.904H70.2672V19.5H63.4492V9.588ZM70.9998 9.588H73.0298L75.7318 17.078L78.5178 9.588H80.4218L76.4178 19.5H74.8918L70.9998 9.588ZM81.5837 9.588H83.3477V19.5H81.5837V9.588ZM85.6621 9.588H92.2281V11.184H87.4261V13.62H91.9761V15.216H87.4261V17.904H92.4801V19.5H85.6621V9.588ZM97.2027 14.544V11.464H98.6307V14.544H101.711V15.972H98.6307V19.052H97.2027V15.972H94.1227V14.544H97.2027Z" fill="#6A51CA"/>
<circle cx="115" cy="15" r="8" fill="#6A51CA"/>
<path d="M113.667 19L117.667 15.1264L113.667 11" stroke="#ECEDEB" stroke-miterlimit="10" stroke-linecap="round" stroke-linejoin="round"/>
</svg>
