<svg width="110" height="30" viewBox="0 0 110 30" fill="none" xmlns="http://www.w3.org/2000/svg">
<path d="M1.39459 9.588H5.30059C5.95393 9.588 6.58393 9.69067 7.19059 9.896C7.79726 10.092 8.33393 10.3953 8.80059 10.806C9.26726 11.2167 9.64059 11.7347 9.92059 12.36C10.2006 12.976 10.3406 13.704 10.3406 14.544C10.3406 15.3933 10.1773 16.1307 9.85059 16.756C9.53326 17.372 9.11793 17.8853 8.60459 18.296C8.10059 18.6973 7.53593 19.0007 6.91059 19.206C6.29459 19.402 5.68793 19.5 5.09059 19.5H1.39459V9.588ZM4.47459 17.904C5.02526 17.904 5.54326 17.8433 6.02859 17.722C6.52326 17.5913 6.95259 17.3953 7.31659 17.134C7.68059 16.8633 7.96526 16.518 8.17059 16.098C8.38526 15.6687 8.49259 15.1507 8.49259 14.544C8.49259 13.9467 8.39926 13.4333 8.21259 13.004C8.02593 12.5747 7.76459 12.2293 7.42859 11.968C7.10193 11.6973 6.70993 11.5013 6.25259 11.38C5.80459 11.2493 5.30993 11.184 4.76859 11.184H3.15859V17.904H4.47459ZM12.0316 12.78H13.7116V19.5H12.0316V12.78ZM11.7936 10.498C11.7936 10.2273 11.8916 9.994 12.0876 9.798C12.293 9.59267 12.5496 9.49 12.8576 9.49C13.1656 9.49 13.4223 9.588 13.6276 9.784C13.8423 9.97067 13.9496 10.2087 13.9496 10.498C13.9496 10.7873 13.8423 11.03 13.6276 11.226C13.4223 11.4127 13.1656 11.506 12.8576 11.506C12.5496 11.506 12.293 11.408 12.0876 11.212C11.8916 11.0067 11.7936 10.7687 11.7936 10.498ZM19.3644 14.642C19.0377 14.1847 18.599 13.956 18.0484 13.956C17.8244 13.956 17.605 14.012 17.3904 14.124C17.1757 14.236 17.0684 14.418 17.0684 14.67C17.0684 14.8753 17.157 15.0247 17.3344 15.118C17.5117 15.2113 17.7357 15.2907 18.0064 15.356C18.277 15.4213 18.5664 15.4913 18.8744 15.566C19.1917 15.6313 19.4857 15.7387 19.7564 15.888C20.027 16.028 20.251 16.224 20.4284 16.476C20.6057 16.728 20.6944 17.0733 20.6944 17.512C20.6944 17.9133 20.6057 18.254 20.4284 18.534C20.2604 18.8047 20.0364 19.024 19.7564 19.192C19.4857 19.36 19.1777 19.4813 18.8324 19.556C18.487 19.6307 18.1417 19.668 17.7964 19.668C17.2737 19.668 16.793 19.5933 16.3544 19.444C15.9157 19.2947 15.5237 19.024 15.1784 18.632L16.2984 17.582C16.513 17.8247 16.7417 18.0253 16.9844 18.184C17.2364 18.3333 17.5397 18.408 17.8944 18.408C18.0157 18.408 18.1417 18.394 18.2724 18.366C18.403 18.338 18.5244 18.2913 18.6364 18.226C18.7484 18.1607 18.837 18.0813 18.9024 17.988C18.977 17.8853 19.0144 17.7687 19.0144 17.638C19.0144 17.4047 18.9257 17.232 18.7484 17.12C18.571 17.008 18.347 16.9193 18.0764 16.854C17.8057 16.7793 17.5117 16.714 17.1944 16.658C16.8864 16.5927 16.597 16.4947 16.3264 16.364C16.0557 16.224 15.8317 16.0327 15.6544 15.79C15.477 15.5473 15.3884 15.2113 15.3884 14.782C15.3884 14.4087 15.463 14.0867 15.6124 13.816C15.771 13.536 15.9764 13.3073 16.2284 13.13C16.4804 12.9527 16.7697 12.822 17.0964 12.738C17.423 12.654 17.7544 12.612 18.0904 12.612C18.5384 12.612 18.9817 12.6913 19.4204 12.85C19.859 12.9993 20.2137 13.2607 20.4844 13.634L19.3644 14.642ZM26.7331 14.796C26.5371 14.5907 26.3317 14.4273 26.1171 14.306C25.9024 14.1847 25.6831 14.124 25.4591 14.124C25.1511 14.124 24.8757 14.18 24.6331 14.292C24.3904 14.404 24.1804 14.5533 24.0031 14.74C23.8351 14.9267 23.7044 15.1413 23.6111 15.384C23.5271 15.6267 23.4851 15.8787 23.4851 16.14C23.4851 16.4013 23.5271 16.6533 23.6111 16.896C23.7044 17.1387 23.8351 17.3533 24.0031 17.54C24.1804 17.7267 24.3904 17.876 24.6331 17.988C24.8757 18.1 25.1511 18.156 25.4591 18.156C25.7204 18.156 25.9631 18.1047 26.1871 18.002C26.4111 17.89 26.6024 17.7313 26.7611 17.526L27.8811 18.73C27.7131 18.898 27.5171 19.0427 27.2931 19.164C27.0784 19.2853 26.8591 19.3833 26.6351 19.458C26.4111 19.5327 26.1964 19.584 25.9911 19.612C25.7857 19.6493 25.6084 19.668 25.4591 19.668C24.9551 19.668 24.4791 19.584 24.0311 19.416C23.5831 19.248 23.1957 19.01 22.8691 18.702C22.5424 18.394 22.2811 18.0253 22.0851 17.596C21.8984 17.1573 21.8051 16.672 21.8051 16.14C21.8051 15.608 21.8984 15.1273 22.0851 14.698C22.2811 14.2593 22.5424 13.886 22.8691 13.578C23.1957 13.27 23.5831 13.032 24.0311 12.864C24.4791 12.696 24.9551 12.612 25.4591 12.612C25.8884 12.612 26.3177 12.696 26.7471 12.864C27.1857 13.0227 27.5684 13.2793 27.8951 13.634L26.7331 14.796ZM28.699 16.14C28.699 15.608 28.7923 15.1273 28.979 14.698C29.175 14.2593 29.4363 13.886 29.763 13.578C30.0896 13.27 30.477 13.032 30.925 12.864C31.373 12.696 31.849 12.612 32.353 12.612C32.857 12.612 33.333 12.696 33.781 12.864C34.229 13.032 34.6163 13.27 34.943 13.578C35.2696 13.886 35.5263 14.2593 35.713 14.698C35.909 15.1273 36.007 15.608 36.007 16.14C36.007 16.672 35.909 17.1573 35.713 17.596C35.5263 18.0253 35.2696 18.394 34.943 18.702C34.6163 19.01 34.229 19.248 33.781 19.416C33.333 19.584 32.857 19.668 32.353 19.668C31.849 19.668 31.373 19.584 30.925 19.416C30.477 19.248 30.0896 19.01 29.763 18.702C29.4363 18.394 29.175 18.0253 28.979 17.596C28.7923 17.1573 28.699 16.672 28.699 16.14ZM30.379 16.14C30.379 16.4013 30.421 16.6533 30.505 16.896C30.5983 17.1387 30.729 17.3533 30.897 17.54C31.0743 17.7267 31.2843 17.876 31.527 17.988C31.7696 18.1 32.045 18.156 32.353 18.156C32.661 18.156 32.9363 18.1 33.179 17.988C33.4216 17.876 33.627 17.7267 33.795 17.54C33.9723 17.3533 34.103 17.1387 34.187 16.896C34.2803 16.6533 34.327 16.4013 34.327 16.14C34.327 15.8787 34.2803 15.6267 34.187 15.384C34.103 15.1413 33.9723 14.9267 33.795 14.74C33.627 14.5533 33.4216 14.404 33.179 14.292C32.9363 14.18 32.661 14.124 32.353 14.124C32.045 14.124 31.7696 14.18 31.527 14.292C31.2843 14.404 31.0743 14.5533 30.897 14.74C30.729 14.9267 30.5983 15.1413 30.505 15.384C30.421 15.6267 30.379 15.8787 30.379 16.14ZM36.8099 12.78H38.6439L40.4359 17.484H40.4639L42.2699 12.78H43.9919L41.3459 19.5H39.5539L36.8099 12.78ZM46.4637 16.728C46.5197 17.232 46.7157 17.624 47.0517 17.904C47.3877 18.184 47.7937 18.324 48.2697 18.324C48.6897 18.324 49.0397 18.24 49.3197 18.072C49.609 17.8947 49.861 17.6753 50.0757 17.414L51.2797 18.324C50.8877 18.8093 50.449 19.1547 49.9637 19.36C49.4783 19.5653 48.9697 19.668 48.4377 19.668C47.9337 19.668 47.4577 19.584 47.0097 19.416C46.5617 19.248 46.1743 19.01 45.8477 18.702C45.521 18.394 45.2597 18.0253 45.0637 17.596C44.877 17.1573 44.7837 16.672 44.7837 16.14C44.7837 15.608 44.877 15.1273 45.0637 14.698C45.2597 14.2593 45.521 13.886 45.8477 13.578C46.1743 13.27 46.5617 13.032 47.0097 12.864C47.4577 12.696 47.9337 12.612 48.4377 12.612C48.9043 12.612 49.329 12.696 49.7117 12.864C50.1037 13.0227 50.435 13.256 50.7057 13.564C50.9857 13.872 51.2003 14.2547 51.3497 14.712C51.5083 15.16 51.5877 15.678 51.5877 16.266V16.728H46.4637ZM49.9077 15.468C49.8983 14.9733 49.7443 14.586 49.4457 14.306C49.147 14.0167 48.7317 13.872 48.1997 13.872C47.6957 13.872 47.2943 14.0167 46.9957 14.306C46.7063 14.5953 46.529 14.9827 46.4637 15.468H49.9077ZM53.2987 12.78H54.9787V13.844H55.0067C55.1934 13.452 55.4594 13.1487 55.8047 12.934C56.1501 12.7193 56.5467 12.612 56.9947 12.612C57.0974 12.612 57.1954 12.6213 57.2887 12.64C57.3914 12.6587 57.4941 12.682 57.5967 12.71V14.334C57.4567 14.2967 57.3167 14.2687 57.1767 14.25C57.0461 14.222 56.9154 14.208 56.7847 14.208C56.3927 14.208 56.0754 14.2827 55.8327 14.432C55.5994 14.572 55.4174 14.7353 55.2867 14.922C55.1654 15.1087 55.0814 15.2953 55.0347 15.482C54.9974 15.6687 54.9787 15.8087 54.9787 15.902V19.5H53.2987V12.78ZM63.3167 9.588H69.8827V11.184H65.0807V13.62H69.6307V15.216H65.0807V17.904H70.1347V19.5H63.3167V9.588ZM70.8673 9.588H72.8973L75.5993 17.078L78.3853 9.588H80.2893L76.2853 19.5H74.7593L70.8673 9.588ZM84.3352 14.544V11.464H85.7632V14.544H88.8432V15.972H85.7632V19.052H84.3352V15.972H81.2552V14.544H84.3352Z" fill="#6A51CA"/>
<circle cx="102" cy="15" r="8" fill="#6A51CA"/>
<path d="M100.667 19L104.667 15.1264L100.667 11" stroke="#ECEDEB" stroke-miterlimit="10" stroke-linecap="round" stroke-linejoin="round"/>
</svg>
