<svg width="24" height="24" viewBox="0 0 24 24" fill="none" xmlns="http://www.w3.org/2000/svg">
<path d="M3.5 8.5H12.09" stroke="#6A51CA" stroke-linecap="round" stroke-linejoin="round"/>
<path d="M14.5898 11C15.9706 11 17.0898 9.88071 17.0898 8.5C17.0898 7.11929 15.9706 6 14.5898 6C13.2091 6 12.0898 7.11929 12.0898 8.5C12.0898 9.88071 13.2091 11 14.5898 11Z" stroke="#6A51CA" stroke-miterlimit="10"/>
<path d="M17.0898 8.5H19.4998" stroke="#6A51CA" stroke-linecap="round" stroke-linejoin="round"/>
<path d="M19.5002 15.5H10.9102" stroke="#6A51CA" stroke-linecap="round" stroke-linejoin="round"/>
<path d="M8.41016 18C9.79087 18 10.9102 16.8807 10.9102 15.5C10.9102 14.1193 9.79087 13 8.41016 13C7.02944 13 5.91016 14.1193 5.91016 15.5C5.91016 16.8807 7.02944 18 8.41016 18Z" stroke="#6A51CA" stroke-miterlimit="10"/>
<path d="M5.91 15.5H3.5" stroke="#6A51CA" stroke-linecap="round" stroke-linejoin="round"/>
</svg>
