<svg width="40" height="53" viewBox="0 0 40 53" fill="none" xmlns="http://www.w3.org/2000/svg">
<rect x="1.33594" y="0.333984" width="37.3333" height="2.33333" rx="1.16667" fill="#6A51CA"/>
<path d="M11.7969 23.334L15.2969 14.0007L12.9635 12.834" stroke="#6A51CA" stroke-linecap="round" stroke-linejoin="round"/>
<path d="M15.2969 15.5283L21.1302 24.5L23.4635 14" stroke="#6A51CA" stroke-linecap="round" stroke-linejoin="round"/>
<path d="M15.2969 15.168L22.2969 16.918" stroke="#6A51CA" stroke-linecap="round" stroke-linejoin="round"/>
<path d="M22.8828 17.5L28.1328 23.3333L21.1328 23.9167" stroke="#6A51CA" stroke-linecap="round" stroke-linejoin="round"/>
<path d="M22.8828 17.5L28.1328 23.3333L21.1328 23.9167" stroke="#6A51CA" stroke-linecap="round" stroke-linejoin="round"/>
<path d="M22.2969 14H24.8869" stroke="#6A51CA" stroke-linecap="round" stroke-linejoin="round"/>
<path d="M24.4653 21.888L23.9403 21.3047C23.8353 21.5147 23.7653 21.7247 23.6953 21.9464L24.4653 21.8764V21.888Z" fill="#6A51CA" stroke="#6A51CA" stroke-linecap="round" stroke-linejoin="round"/>
<path d="M28.126 18.668C27.566 18.668 27.041 18.7846 26.551 18.9596L29.4327 22.1563C29.876 22.6463 30.0044 23.358 29.7594 23.9763C29.5144 24.5946 28.9427 25.0146 28.2777 25.073L23.9844 25.4346C24.7544 26.9513 26.3177 28.0013 28.126 28.0013C30.7044 28.0013 32.7927 25.913 32.7927 23.3346C32.7927 20.7563 30.7044 18.668 28.126 18.668Z" fill="#6A51CA" stroke="#6A51CA" stroke-linecap="round" stroke-linejoin="round"/>
<path d="M16.3107 22.2147C16.2407 21.9464 16.1591 21.6897 16.0541 21.4331C16.0541 21.4097 16.0307 21.3981 16.0191 21.3747C15.7624 20.8264 15.4007 20.3247 14.9574 19.9164C14.9574 19.9164 14.9574 19.9164 14.9457 19.9047C14.5024 19.4964 14.0007 19.1814 13.4291 18.9714L12.4141 21.6897C13.0791 21.9347 13.5457 22.5764 13.5457 23.3231C13.5457 23.5797 13.4874 23.8131 13.3941 24.0347C13.1957 24.4781 12.7991 24.8281 12.3324 24.9797C12.3091 24.9797 12.2857 24.9914 12.2507 25.0031C12.1107 25.0381 11.9591 25.0731 11.7957 25.0731C11.5974 25.0731 11.3991 25.0264 11.2241 24.9681C11.2124 24.9681 11.2007 24.9681 11.1891 24.9681C11.1891 24.9681 11.1657 24.9681 11.1657 24.9564C11.0957 24.9331 11.0374 24.8981 10.9791 24.8631C10.9324 24.8397 10.8974 24.8164 10.8507 24.7931C10.8041 24.7581 10.7574 24.7231 10.6991 24.6764C10.6641 24.6414 10.6174 24.6181 10.5824 24.5831C10.5357 24.5364 10.5007 24.4897 10.4657 24.4431C10.4307 24.4081 10.3957 24.3731 10.3724 24.3264C10.3374 24.2681 10.3024 24.2097 10.2791 24.1514C10.2557 24.1164 10.2324 24.0697 10.2091 24.0347C10.1857 23.9764 10.1624 23.9181 10.1507 23.8481C10.1391 23.8014 10.1157 23.7547 10.1041 23.7081C10.0924 23.6497 10.0924 23.5914 10.0807 23.5331C10.0807 23.4747 10.0691 23.4164 10.0691 23.3581C10.0691 23.3464 10.0691 23.3347 10.0691 23.3231C10.0691 23.2764 10.0691 23.2297 10.0807 23.1831C10.0807 23.1247 10.0807 23.0781 10.0924 23.0197C10.1041 22.9381 10.1274 22.8681 10.1507 22.7981C10.1507 22.7747 10.1624 22.7397 10.1741 22.7164L10.1974 22.6581L11.6907 18.6914C10.4307 18.7264 9.29906 19.2514 8.4824 20.0914C8.45906 20.1147 8.4474 20.1264 8.43573 20.1497C8.24906 20.3481 8.08573 20.5464 7.93406 20.7681C7.8874 20.8381 7.8524 20.9197 7.8174 20.9897C7.7124 21.1764 7.6074 21.3514 7.52573 21.5497C7.4674 21.6897 7.4324 21.8531 7.38573 22.0047C7.33906 22.1447 7.2924 22.2731 7.2574 22.4247C7.19906 22.7281 7.16406 23.0314 7.16406 23.3581C7.16406 25.9364 9.2524 28.0247 11.8307 28.0247C14.4091 28.0247 16.4974 25.9364 16.4974 23.3581C16.4974 23.0197 16.4624 22.6931 16.3924 22.3897C16.3924 22.3431 16.3574 22.2964 16.3457 22.2497L16.3107 22.2147Z" fill="#6A51CA" stroke="#6A51CA" stroke-linecap="round" stroke-linejoin="round"/>
<path d="M4.37339 37.504H5.38139V41.104H9.91739V37.504H10.9254V46H9.91739V42.04H5.38139V46H4.37339V37.504ZM12.6616 43.192C12.6616 42.752 12.7376 42.352 12.8896 41.992C13.0416 41.632 13.2496 41.324 13.5136 41.068C13.7776 40.804 14.0936 40.6 14.4616 40.456C14.8296 40.312 15.2296 40.24 15.6616 40.24C16.0936 40.24 16.4936 40.312 16.8616 40.456C17.2296 40.6 17.5456 40.804 17.8096 41.068C18.0736 41.324 18.2816 41.632 18.4336 41.992C18.5856 42.352 18.6616 42.752 18.6616 43.192C18.6616 43.632 18.5856 44.032 18.4336 44.392C18.2816 44.752 18.0736 45.064 17.8096 45.328C17.5456 45.584 17.2296 45.784 16.8616 45.928C16.4936 46.072 16.0936 46.144 15.6616 46.144C15.2296 46.144 14.8296 46.072 14.4616 45.928C14.0936 45.784 13.7776 45.584 13.5136 45.328C13.2496 45.064 13.0416 44.752 12.8896 44.392C12.7376 44.032 12.6616 43.632 12.6616 43.192ZM13.6696 43.192C13.6696 43.488 13.7136 43.764 13.8016 44.02C13.8976 44.268 14.0336 44.488 14.2096 44.68C14.3856 44.864 14.5936 45.012 14.8336 45.124C15.0816 45.228 15.3576 45.28 15.6616 45.28C15.9656 45.28 16.2376 45.228 16.4776 45.124C16.7256 45.012 16.9376 44.864 17.1136 44.68C17.2896 44.488 17.4216 44.268 17.5096 44.02C17.6056 43.764 17.6536 43.488 17.6536 43.192C17.6536 42.896 17.6056 42.624 17.5096 42.376C17.4216 42.12 17.2896 41.9 17.1136 41.716C16.9376 41.524 16.7256 41.376 16.4776 41.272C16.2376 41.16 15.9656 41.104 15.6616 41.104C15.3576 41.104 15.0816 41.16 14.8336 41.272C14.5936 41.376 14.3856 41.524 14.2096 41.716C14.0336 41.9 13.8976 42.12 13.8016 42.376C13.7136 42.624 13.6696 42.896 13.6696 43.192ZM20.2306 41.716C20.2306 41.46 20.2226 41.22 20.2066 40.996C20.1906 40.772 20.1826 40.568 20.1826 40.384H21.0706C21.0706 40.536 21.0746 40.688 21.0826 40.84C21.0906 40.992 21.0946 41.148 21.0946 41.308H21.1186C21.1826 41.172 21.2706 41.04 21.3826 40.912C21.5026 40.784 21.6426 40.672 21.8026 40.576C21.9626 40.472 22.1426 40.392 22.3426 40.336C22.5426 40.272 22.7586 40.24 22.9906 40.24C23.2946 40.24 23.5466 40.28 23.7466 40.36C23.9546 40.432 24.1266 40.524 24.2626 40.636C24.3986 40.74 24.5026 40.856 24.5746 40.984C24.6546 41.104 24.7186 41.212 24.7666 41.308C24.9746 40.972 25.2146 40.712 25.4866 40.528C25.7586 40.336 26.1106 40.24 26.5426 40.24C26.9426 40.24 27.2786 40.296 27.5506 40.408C27.8226 40.512 28.0426 40.668 28.2106 40.876C28.3786 41.076 28.4986 41.324 28.5706 41.62C28.6426 41.908 28.6786 42.232 28.6786 42.592V46H27.7426V42.64C27.7426 42.448 27.7226 42.26 27.6826 42.076C27.6426 41.892 27.5706 41.728 27.4666 41.584C27.3626 41.44 27.2226 41.324 27.0466 41.236C26.8706 41.148 26.6466 41.104 26.3746 41.104C26.1746 41.104 25.9866 41.144 25.8106 41.224C25.6346 41.304 25.4786 41.416 25.3426 41.56C25.2146 41.704 25.1106 41.88 25.0306 42.088C24.9586 42.288 24.9226 42.512 24.9226 42.76V46H23.9866V42.82C23.9866 42.196 23.9026 41.756 23.7346 41.5C23.5666 41.236 23.2906 41.104 22.9066 41.104C22.6026 41.104 22.3386 41.156 22.1146 41.26C21.8986 41.364 21.7186 41.512 21.5746 41.704C21.4386 41.896 21.3346 42.124 21.2626 42.388C21.1986 42.652 21.1666 42.944 21.1666 43.264V46H20.2306V41.716ZM35.5853 44.98C35.2493 45.412 34.8813 45.716 34.4813 45.892C34.0813 46.06 33.6173 46.144 33.0893 46.144C32.6493 46.144 32.2533 46.068 31.9013 45.916C31.5493 45.756 31.2493 45.544 31.0013 45.28C30.7613 45.016 30.5733 44.704 30.4373 44.344C30.3093 43.984 30.2453 43.6 30.2453 43.192C30.2453 42.76 30.3173 42.364 30.4613 42.004C30.6053 41.636 30.8053 41.324 31.0613 41.068C31.3173 40.804 31.6213 40.6 31.9733 40.456C32.3253 40.312 32.7093 40.24 33.1253 40.24C33.5173 40.24 33.8773 40.308 34.2053 40.444C34.5333 40.572 34.8133 40.764 35.0453 41.02C35.2853 41.268 35.4693 41.576 35.5973 41.944C35.7253 42.304 35.7893 42.716 35.7893 43.18V43.48H31.2533C31.2693 43.72 31.3253 43.952 31.4213 44.176C31.5253 44.392 31.6573 44.584 31.8173 44.752C31.9773 44.912 32.1653 45.04 32.3813 45.136C32.5973 45.232 32.8333 45.28 33.0893 45.28C33.4973 45.28 33.8413 45.208 34.1213 45.064C34.4013 44.92 34.6533 44.708 34.8773 44.428L35.5853 44.98ZM34.7813 42.688C34.7653 42.208 34.6093 41.824 34.3133 41.536C34.0173 41.248 33.6093 41.104 33.0893 41.104C32.5693 41.104 32.1493 41.248 31.8293 41.536C31.5093 41.824 31.3173 42.208 31.2533 42.688H34.7813Z" fill="#6A51CA"/>
</svg>
