<svg width="56" height="46" viewBox="0 0 56 46" fill="none" xmlns="http://www.w3.org/2000/svg">
<path d="M19.8334 21.0003C22.4107 21.0003 24.5 18.911 24.5 16.3337C24.5 13.7563 22.4107 11.667 19.8334 11.667C17.256 11.667 15.1667 13.7563 15.1667 16.3337C15.1667 18.911 17.256 21.0003 19.8334 21.0003Z" stroke="#C4C4C5" stroke-linecap="round" stroke-linejoin="round"/>
<path d="M36.1667 21.0003C38.744 21.0003 40.8333 18.911 40.8333 16.3337C40.8333 13.7563 38.744 11.667 36.1667 11.667C33.5893 11.667 31.5 13.7563 31.5 16.3337C31.5 18.911 33.5893 21.0003 36.1667 21.0003Z" stroke="#C4C4C5" stroke-linecap="round" stroke-linejoin="round"/>
<path d="M19.8334 16.3335L23.3334 7.00016L21 5.8335" stroke="#C4C4C5" stroke-linecap="round" stroke-linejoin="round"/>
<path d="M23.3334 8.52335L29.1667 17.5L31.5 7" stroke="#C4C4C5" stroke-linecap="round" stroke-linejoin="round"/>
<path d="M23.3334 8.16699L30.3334 9.91699" stroke="#C4C4C5" stroke-linecap="round" stroke-linejoin="round"/>
<path d="M30.9167 10.5L36.1667 16.3333L29.1667 16.9167" stroke="#C4C4C5" stroke-linecap="round" stroke-linejoin="round"/>
<path d="M30.3334 7H32.9234" stroke="#C4C4C5" stroke-linecap="round" stroke-linejoin="round"/>
<path d="M7.1335 30.504H8.6335L11.5135 37.164H11.5375L14.4415 30.504H15.9055V39H14.8975V31.872H14.8735L11.8255 39H11.2135L8.1655 31.872H8.1415V39H7.1335V30.504ZM20.0362 40.284C19.9402 40.524 19.8402 40.74 19.7362 40.932C19.6402 41.132 19.5202 41.3 19.3762 41.436C19.2402 41.58 19.0722 41.688 18.8722 41.76C18.6802 41.84 18.4442 41.88 18.1642 41.88C18.0282 41.88 17.8842 41.872 17.7322 41.856C17.5882 41.84 17.4522 41.8 17.3242 41.736L17.4442 40.92C17.5402 40.96 17.6402 40.984 17.7442 40.992C17.8482 41.008 17.9682 41.016 18.1042 41.016C18.4082 41.016 18.6322 40.932 18.7762 40.764C18.9202 40.596 19.0442 40.372 19.1482 40.092L19.5322 39.036L17.2042 33.384H18.2962L20.0362 37.788H20.0602L21.7282 33.384H22.7482L20.0362 40.284ZM27.5091 30.504H30.1011C30.4531 30.504 30.7971 30.54 31.1331 30.612C31.4691 30.684 31.7691 30.804 32.0331 30.972C32.2971 31.132 32.5091 31.344 32.6691 31.608C32.8371 31.872 32.9211 32.2 32.9211 32.592C32.9211 33.088 32.7851 33.5 32.5131 33.828C32.2491 34.148 31.8891 34.376 31.4331 34.512V34.536C31.7051 34.56 31.9571 34.632 32.1891 34.752C32.4291 34.864 32.6331 35.012 32.8011 35.196C32.9771 35.38 33.1131 35.596 33.2091 35.844C33.3051 36.084 33.3531 36.344 33.3531 36.624C33.3531 37.096 33.2531 37.484 33.0531 37.788C32.8611 38.092 32.6051 38.336 32.2851 38.52C31.9731 38.696 31.6171 38.82 31.2171 38.892C30.8251 38.964 30.4331 39 30.0411 39H27.5091V30.504ZM28.5171 34.104H29.9091C30.1491 34.104 30.3811 34.088 30.6051 34.056C30.8371 34.024 31.0451 33.96 31.2291 33.864C31.4131 33.76 31.5611 33.62 31.6731 33.444C31.7851 33.26 31.8411 33.02 31.8411 32.724C31.8411 32.46 31.7891 32.248 31.6851 32.088C31.5811 31.92 31.4411 31.788 31.2651 31.692C31.0971 31.596 30.9011 31.532 30.6771 31.5C30.4611 31.46 30.2411 31.44 30.0171 31.44H28.5171V34.104ZM28.5171 38.064H30.2211C30.4691 38.064 30.7131 38.04 30.9531 37.992C31.2011 37.936 31.4211 37.852 31.6131 37.74C31.8131 37.62 31.9731 37.468 32.0931 37.284C32.2131 37.092 32.2731 36.86 32.2731 36.588C32.2731 36.292 32.2131 36.044 32.0931 35.844C31.9811 35.644 31.8291 35.484 31.6371 35.364C31.4531 35.244 31.2371 35.16 30.9891 35.112C30.7491 35.064 30.5011 35.04 30.2451 35.04H28.5171V38.064ZM35.1037 33.384H36.0397V39H35.1037V33.384ZM34.8877 31.188C34.8877 31.004 34.9517 30.844 35.0797 30.708C35.2157 30.572 35.3797 30.504 35.5717 30.504C35.7637 30.504 35.9237 30.572 36.0517 30.708C36.1877 30.844 36.2557 31.004 36.2557 31.188C36.2557 31.388 36.1917 31.552 36.0637 31.68C35.9357 31.808 35.7717 31.872 35.5717 31.872C35.3717 31.872 35.2077 31.808 35.0797 31.68C34.9517 31.552 34.8877 31.388 34.8877 31.188ZM38.0225 29.928H38.9585V35.856L41.5145 33.384H42.8465L40.1345 35.94L43.1225 39H41.7425L38.9585 36.048V39H38.0225V29.928ZM49.1585 37.98C48.8225 38.412 48.4545 38.716 48.0545 38.892C47.6545 39.06 47.1905 39.144 46.6625 39.144C46.2225 39.144 45.8265 39.068 45.4745 38.916C45.1225 38.756 44.8225 38.544 44.5745 38.28C44.3345 38.016 44.1465 37.704 44.0105 37.344C43.8825 36.984 43.8185 36.6 43.8185 36.192C43.8185 35.76 43.8905 35.364 44.0345 35.004C44.1785 34.636 44.3785 34.324 44.6345 34.068C44.8905 33.804 45.1945 33.6 45.5465 33.456C45.8985 33.312 46.2825 33.24 46.6985 33.24C47.0905 33.24 47.4505 33.308 47.7785 33.444C48.1065 33.572 48.3865 33.764 48.6185 34.02C48.8585 34.268 49.0425 34.576 49.1705 34.944C49.2985 35.304 49.3625 35.716 49.3625 36.18V36.48H44.8265C44.8425 36.72 44.8985 36.952 44.9945 37.176C45.0985 37.392 45.2305 37.584 45.3905 37.752C45.5505 37.912 45.7385 38.04 45.9545 38.136C46.1705 38.232 46.4065 38.28 46.6625 38.28C47.0705 38.28 47.4145 38.208 47.6945 38.064C47.9745 37.92 48.2265 37.708 48.4505 37.428L49.1585 37.98ZM48.3545 35.688C48.3385 35.208 48.1825 34.824 47.8865 34.536C47.5905 34.248 47.1825 34.104 46.6625 34.104C46.1425 34.104 45.7225 34.248 45.4025 34.536C45.0825 34.824 44.8905 35.208 44.8265 35.688H48.3545Z" fill="#C4C4C5"/>
</svg>
