<svg width="40" height="53" viewBox="0 0 40 53" fill="none" xmlns="http://www.w3.org/2000/svg">
<rect x="1.33325" y="0.333008" width="37.3333" height="2.33333" rx="1.16667" fill="#6A51CA"/>
<path d="M30.5 10.5L9.5 20.1333H20.441C20.5565 20.1333 20.672 20.1753 20.7455 20.2594C20.8295 20.3434 20.8715 20.4485 20.8715 20.564V31.5L30.5 10.5Z" fill="#6A51CA" stroke="#6A51CA" stroke-linecap="round" stroke-linejoin="round"/>
<path d="M4.47525 37.504H5.33925V41.188H9.97125V37.504H10.8353V46H9.97125V41.98H5.33925V46H4.47525V37.504ZM17.7794 43.192C17.7794 42.88 17.7274 42.588 17.6234 42.316C17.5274 42.044 17.3874 41.808 17.2034 41.608C17.0194 41.408 16.7954 41.252 16.5314 41.14C16.2754 41.02 15.9834 40.96 15.6554 40.96C15.3274 40.96 15.0314 41.02 14.7674 41.14C14.5114 41.252 14.2914 41.408 14.1074 41.608C13.9314 41.808 13.7914 42.044 13.6874 42.316C13.5914 42.588 13.5434 42.88 13.5434 43.192C13.5434 43.504 13.5914 43.796 13.6874 44.068C13.7914 44.34 13.9314 44.576 14.1074 44.776C14.2914 44.976 14.5114 45.136 14.7674 45.256C15.0314 45.368 15.3274 45.424 15.6554 45.424C15.9834 45.424 16.2754 45.368 16.5314 45.256C16.7954 45.136 17.0194 44.976 17.2034 44.776C17.3874 44.576 17.5274 44.34 17.6234 44.068C17.7274 43.796 17.7794 43.504 17.7794 43.192ZM18.6434 43.192C18.6434 43.616 18.5674 44.008 18.4154 44.368C18.2714 44.728 18.0674 45.04 17.8034 45.304C17.5394 45.568 17.2234 45.776 16.8554 45.928C16.4954 46.072 16.0954 46.144 15.6554 46.144C15.2234 46.144 14.8234 46.072 14.4554 45.928C14.0954 45.776 13.7834 45.568 13.5194 45.304C13.2554 45.04 13.0474 44.728 12.8954 44.368C12.7514 44.008 12.6794 43.616 12.6794 43.192C12.6794 42.768 12.7514 42.376 12.8954 42.016C13.0474 41.656 13.2554 41.344 13.5194 41.08C13.7834 40.816 14.0954 40.612 14.4554 40.468C14.8234 40.316 15.2234 40.24 15.6554 40.24C16.0954 40.24 16.4954 40.316 16.8554 40.468C17.2234 40.612 17.5394 40.816 17.8034 41.08C18.0674 41.344 18.2714 41.656 18.4154 42.016C18.5674 42.376 18.6434 42.768 18.6434 43.192ZM20.2007 41.632C20.2007 41.424 20.1927 41.216 20.1767 41.008C20.1687 40.8 20.1567 40.592 20.1407 40.384H20.9927V41.236H21.0167C21.2087 40.908 21.4727 40.66 21.8087 40.492C22.1527 40.324 22.4927 40.24 22.8287 40.24C22.9807 40.24 23.1407 40.256 23.3087 40.288C23.4847 40.32 23.6527 40.38 23.8127 40.468C23.9727 40.548 24.1207 40.664 24.2567 40.816C24.4007 40.968 24.5207 41.164 24.6167 41.404C24.7767 41.044 25.0287 40.76 25.3727 40.552C25.7247 40.344 26.0887 40.24 26.4647 40.24C27.1847 40.24 27.7167 40.432 28.0607 40.816C28.4047 41.192 28.5767 41.732 28.5767 42.436V46H27.7847V42.724C27.7847 42.156 27.6847 41.72 27.4847 41.416C27.2847 41.112 26.9127 40.96 26.3687 40.96C26.0727 40.96 25.8247 41.02 25.6247 41.14C25.4247 41.252 25.2607 41.404 25.1327 41.596C25.0127 41.788 24.9247 42.008 24.8687 42.256C24.8127 42.496 24.7847 42.748 24.7847 43.012V46H23.9927V42.724C23.9927 42.156 23.8927 41.72 23.6927 41.416C23.4927 41.112 23.1207 40.96 22.5767 40.96C22.5287 40.96 22.4167 40.976 22.2407 41.008C22.0727 41.04 21.8967 41.128 21.7127 41.272C21.5287 41.416 21.3607 41.632 21.2087 41.92C21.0647 42.208 20.9927 42.608 20.9927 43.12V46H20.2007V41.632ZM34.9074 42.76C34.9074 42.224 34.7474 41.792 34.4274 41.464C34.1074 41.128 33.6594 40.96 33.0834 40.96C32.8274 40.96 32.5794 41.012 32.3394 41.116C32.0994 41.212 31.8874 41.344 31.7034 41.512C31.5274 41.68 31.3834 41.872 31.2714 42.088C31.1674 42.304 31.1154 42.528 31.1154 42.76H34.9074ZM31.0914 43.408C31.1154 43.688 31.1834 43.952 31.2954 44.2C31.4074 44.448 31.5554 44.664 31.7394 44.848C31.9234 45.024 32.1354 45.164 32.3754 45.268C32.6154 45.372 32.8754 45.424 33.1554 45.424C33.5794 45.424 33.9434 45.328 34.2474 45.136C34.5594 44.936 34.7954 44.708 34.9554 44.452L35.5674 44.956C35.2314 45.38 34.8594 45.684 34.4514 45.868C34.0514 46.052 33.6194 46.144 33.1554 46.144C32.7394 46.144 32.3514 46.072 31.9914 45.928C31.6394 45.776 31.3354 45.568 31.0794 45.304C30.8234 45.04 30.6194 44.728 30.4674 44.368C30.3234 44.008 30.2514 43.616 30.2514 43.192C30.2514 42.768 30.3234 42.376 30.4674 42.016C30.6114 41.656 30.8114 41.344 31.0674 41.08C31.3234 40.816 31.6234 40.612 31.9674 40.468C32.3114 40.316 32.6834 40.24 33.0834 40.24C33.5074 40.24 33.8874 40.316 34.2234 40.468C34.5594 40.62 34.8394 40.824 35.0634 41.08C35.2954 41.328 35.4714 41.624 35.5914 41.968C35.7114 42.304 35.7714 42.664 35.7714 43.048V43.408H31.0914Z" fill="#6A51CA"/>
</svg>
