<svg width="24" height="24" viewBox="0 0 24 24" fill="none" xmlns="http://www.w3.org/2000/svg">
<path d="M5 18C7.20914 18 9 16.2091 9 14C9 11.7909 7.20914 10 5 10C2.79086 10 1 11.7909 1 14C1 16.2091 2.79086 18 5 18Z" stroke="#383838" stroke-linecap="round" stroke-linejoin="round"/>
<path d="M19 18C21.2091 18 23 16.2091 23 14C23 11.7909 21.2091 10 19 10C16.7909 10 15 11.7909 15 14C15 16.2091 16.7909 18 19 18Z" stroke="#383838" stroke-linecap="round" stroke-linejoin="round"/>
<path d="M5 14L8 6L6 5" stroke="#383838" stroke-linecap="round" stroke-linejoin="round"/>
<path d="M8 7.30572L13 15L15 6" stroke="#383838" stroke-linecap="round" stroke-linejoin="round"/>
<path d="M8 7L14 8.5" stroke="#383838" stroke-linecap="round" stroke-linejoin="round"/>
<path d="M14.5 9L19 14L13 14.5" stroke="#383838" stroke-linecap="round" stroke-linejoin="round"/>
<path d="M14 6H16.22" stroke="#383838" stroke-linecap="round" stroke-linejoin="round"/>
</svg>
