<svg width="28" height="17" viewBox="0 0 28 17" fill="none" xmlns="http://www.w3.org/2000/svg">
<path d="M5.79858 11.332L9.29858 1.9987L6.96525 0.832031" stroke="#6A51CA" stroke-linecap="round" stroke-linejoin="round"/>
<path d="M9.29858 3.52833L15.1319 12.5L17.4653 2" stroke="#6A51CA" stroke-linecap="round" stroke-linejoin="round"/>
<path d="M9.29858 3.16406L16.2986 4.91406" stroke="#6A51CA" stroke-linecap="round" stroke-linejoin="round"/>
<path d="M16.8818 5.5L22.1318 11.3333L15.1318 11.9167" stroke="#6A51CA" stroke-linecap="round" stroke-linejoin="round"/>
<path d="M16.8818 5.5L22.1318 11.3333L15.1318 11.9167" stroke="#6A51CA" stroke-linecap="round" stroke-linejoin="round"/>
<path d="M16.2986 2H18.8886" stroke="#6A51CA" stroke-linecap="round" stroke-linejoin="round"/>
<path d="M18.4685 9.88412L17.9435 9.30078C17.8385 9.51078 17.7685 9.72078 17.6985 9.94245L18.4685 9.87245V9.88412Z" fill="#6A51CA" stroke="#6A51CA" stroke-linecap="round" stroke-linejoin="round"/>
<path d="M22.1319 6.66406C21.5719 6.66406 21.0469 6.78073 20.5569 6.95573L23.4386 10.1524C23.8819 10.6424 24.0102 11.3541 23.7652 11.9724C23.5202 12.5907 22.9486 13.0107 22.2836 13.0691L17.9902 13.4307C18.7602 14.9474 20.3236 15.9974 22.1319 15.9974C24.7102 15.9974 26.7986 13.9091 26.7986 11.3307C26.7986 8.7524 24.7102 6.66406 22.1319 6.66406Z" fill="#6A51CA" stroke="#6A51CA" stroke-linecap="round" stroke-linejoin="round"/>
<path d="M10.3134 10.2108C10.2434 9.9425 10.1617 9.68583 10.0567 9.42917C10.0567 9.40583 10.0334 9.39417 10.0217 9.37083C9.76508 8.8225 9.40341 8.32083 8.96008 7.9125C8.96008 7.9125 8.96008 7.9125 8.94841 7.90083C8.50508 7.4925 8.00341 7.1775 7.43175 6.9675L6.41675 9.68583C7.08175 9.93083 7.54841 10.5725 7.54841 11.3192C7.54841 11.5758 7.49008 11.8092 7.39675 12.0308C7.19841 12.4742 6.80175 12.8242 6.33508 12.9758C6.31175 12.9758 6.28841 12.9875 6.25341 12.9992C6.11341 13.0342 5.96175 13.0692 5.79841 13.0692C5.60008 13.0692 5.40175 13.0225 5.22675 12.9642C5.21508 12.9642 5.20341 12.9642 5.19175 12.9642C5.19175 12.9642 5.16841 12.9642 5.16841 12.9525C5.09841 12.9292 5.04008 12.8942 4.98175 12.8592C4.93508 12.8358 4.90008 12.8125 4.85341 12.7892C4.80675 12.7542 4.76008 12.7192 4.70175 12.6725C4.66675 12.6375 4.62008 12.6142 4.58508 12.5792C4.53841 12.5325 4.50341 12.4858 4.46841 12.4392C4.43341 12.4042 4.39841 12.3692 4.37508 12.3225C4.34008 12.2642 4.30508 12.2058 4.28175 12.1475C4.25841 12.1125 4.23508 12.0658 4.21175 12.0308C4.18841 11.9725 4.16508 11.9142 4.15341 11.8442C4.14175 11.7975 4.11841 11.7508 4.10675 11.7042C4.09508 11.6458 4.09508 11.5875 4.08341 11.5292C4.08341 11.4708 4.07175 11.4125 4.07175 11.3542C4.07175 11.3425 4.07175 11.3308 4.07175 11.3192C4.07175 11.2725 4.07175 11.2258 4.08341 11.1792C4.08341 11.1208 4.08341 11.0742 4.09508 11.0158C4.10675 10.9342 4.13008 10.8642 4.15341 10.7942C4.15341 10.7708 4.16508 10.7358 4.17675 10.7125L4.20008 10.6542L5.69341 6.6875C4.43341 6.7225 3.30175 7.2475 2.48508 8.0875C2.46175 8.11083 2.45008 8.1225 2.43841 8.14583C2.25175 8.34417 2.08841 8.5425 1.93675 8.76417C1.89008 8.83417 1.85508 8.91583 1.82008 8.98583C1.71508 9.1725 1.61008 9.3475 1.52841 9.54583C1.47008 9.68583 1.43508 9.84917 1.38841 10.0008C1.34175 10.1408 1.29508 10.2692 1.26008 10.4208C1.20175 10.7242 1.16675 11.0275 1.16675 11.3542C1.16675 13.9325 3.25508 16.0208 5.83341 16.0208C8.41175 16.0208 10.5001 13.9325 10.5001 11.3542C10.5001 11.0158 10.4651 10.6892 10.3951 10.3858C10.3951 10.3392 10.3601 10.2925 10.3484 10.2458L10.3134 10.2108Z" fill="#6A51CA" stroke="#6A51CA" stroke-linecap="round" stroke-linejoin="round"/>
</svg>
