<svg width="28" height="17" viewBox="0 0 28 17" fill="none" xmlns="http://www.w3.org/2000/svg">
<path d="M5.83341 16.0052C8.41074 16.0052 10.5001 13.9159 10.5001 11.3385C10.5001 8.76121 8.41074 6.67188 5.83341 6.67188C3.25609 6.67188 1.16675 8.76121 1.16675 11.3385C1.16675 13.9159 3.25609 16.0052 5.83341 16.0052Z" stroke="#C4C4C5" stroke-linecap="round" stroke-linejoin="round"/>
<path d="M22.1667 16.0052C24.744 16.0052 26.8333 13.9159 26.8333 11.3385C26.8333 8.76121 24.744 6.67188 22.1667 6.67188C19.5893 6.67188 17.5 8.76121 17.5 11.3385C17.5 13.9159 19.5893 16.0052 22.1667 16.0052Z" stroke="#C4C4C5" stroke-linecap="round" stroke-linejoin="round"/>
<path d="M5.8335 11.3359L9.3335 2.0026L7.00016 0.835938" stroke="#C4C4C5" stroke-linecap="round" stroke-linejoin="round"/>
<path d="M9.3335 3.52335L15.1668 12.5L17.5002 2" stroke="#C4C4C5" stroke-linecap="round" stroke-linejoin="round"/>
<path d="M9.3335 3.17188L16.3335 4.92187" stroke="#C4C4C5" stroke-linecap="round" stroke-linejoin="round"/>
<path d="M16.9167 5.5L22.1667 11.3333L15.1667 11.9167" stroke="#C4C4C5" stroke-linecap="round" stroke-linejoin="round"/>
<path d="M16.3335 2H18.9235" stroke="#C4C4C5" stroke-linecap="round" stroke-linejoin="round"/>
</svg>
