<svg width="56" height="53" viewBox="0 0 56 53" fill="none" xmlns="http://www.w3.org/2000/svg">
<rect x="9.33331" y="0.333496" width="37.3333" height="2.33333" rx="1.16667" fill="#6A51CA"/>
<path d="M19.7986 23.3335L23.2986 14.0002L20.9653 12.8335" stroke="#6A51CA" stroke-linecap="round" stroke-linejoin="round"/>
<path d="M23.2986 15.5283L29.1319 24.5L31.4653 14" stroke="#6A51CA" stroke-linecap="round" stroke-linejoin="round"/>
<path d="M23.2986 15.167L30.2986 16.917" stroke="#6A51CA" stroke-linecap="round" stroke-linejoin="round"/>
<path d="M30.8819 17.5L36.1319 23.3333L29.1319 23.9167" stroke="#6A51CA" stroke-linecap="round" stroke-linejoin="round"/>
<path d="M30.8819 17.5L36.1319 23.3333L29.1319 23.9167" stroke="#6A51CA" stroke-linecap="round" stroke-linejoin="round"/>
<path d="M30.2986 14H32.8886" stroke="#6A51CA" stroke-linecap="round" stroke-linejoin="round"/>
<path d="M32.4686 21.887L31.9436 21.3037C31.8386 21.5137 31.7686 21.7237 31.6986 21.9454L32.4686 21.8754V21.887Z" fill="#6A51CA" stroke="#6A51CA" stroke-linecap="round" stroke-linejoin="round"/>
<path d="M36.132 18.667C35.572 18.667 35.047 18.7837 34.557 18.9587L37.4386 22.1553C37.882 22.6453 38.0103 23.357 37.7653 23.9753C37.5203 24.5937 36.9486 25.0137 36.2836 25.072L31.9903 25.4337C32.7603 26.9503 34.3236 28.0003 36.132 28.0003C38.7103 28.0003 40.7986 25.912 40.7986 23.3337C40.7986 20.7553 38.7103 18.667 36.132 18.667Z" fill="#6A51CA" stroke="#6A51CA" stroke-linecap="round" stroke-linejoin="round"/>
<path d="M24.3134 22.2133C24.2434 21.9449 24.1617 21.6883 24.0567 21.4316C24.0567 21.4083 24.0334 21.3966 24.0217 21.3733C23.765 20.8249 23.4034 20.3233 22.96 19.9149C22.96 19.9149 22.96 19.9149 22.9484 19.9033C22.505 19.4949 22.0034 19.1799 21.4317 18.9699L20.4167 21.6883C21.0817 21.9333 21.5484 22.5749 21.5484 23.3216C21.5484 23.5783 21.49 23.8116 21.3967 24.0333C21.1984 24.4766 20.8017 24.8266 20.335 24.9783C20.3117 24.9783 20.2884 24.9899 20.2534 25.0016C20.1134 25.0366 19.9617 25.0716 19.7984 25.0716C19.6 25.0716 19.4017 25.0249 19.2267 24.9666C19.215 24.9666 19.2034 24.9666 19.1917 24.9666C19.1917 24.9666 19.1684 24.9666 19.1684 24.9549C19.0984 24.9316 19.04 24.8966 18.9817 24.8616C18.935 24.8383 18.9 24.8149 18.8534 24.7916C18.8067 24.7566 18.76 24.7216 18.7017 24.6749C18.6667 24.6399 18.62 24.6166 18.585 24.5816C18.5384 24.5349 18.5034 24.4883 18.4684 24.4416C18.4334 24.4066 18.3984 24.3716 18.375 24.3249C18.34 24.2666 18.305 24.2083 18.2817 24.1499C18.2584 24.1149 18.235 24.0683 18.2117 24.0333C18.1884 23.9749 18.165 23.9166 18.1534 23.8466C18.1417 23.7999 18.1184 23.7533 18.1067 23.7066C18.095 23.6483 18.095 23.5899 18.0834 23.5316C18.0834 23.4733 18.0717 23.4149 18.0717 23.3566C18.0717 23.3449 18.0717 23.3333 18.0717 23.3216C18.0717 23.2749 18.0717 23.2283 18.0834 23.1816C18.0834 23.1233 18.0834 23.0766 18.095 23.0183C18.1067 22.9366 18.13 22.8666 18.1534 22.7966C18.1534 22.7733 18.165 22.7383 18.1767 22.7149L18.2 22.6566L19.6934 18.6899C18.4334 18.7249 17.3017 19.2499 16.485 20.0899C16.4617 20.1133 16.45 20.1249 16.4384 20.1483C16.2517 20.3466 16.0884 20.5449 15.9367 20.7666C15.89 20.8366 15.855 20.9183 15.82 20.9883C15.715 21.1749 15.61 21.3499 15.5284 21.5483C15.47 21.6883 15.435 21.8516 15.3884 22.0033C15.3417 22.1433 15.295 22.2716 15.26 22.4233C15.2017 22.7266 15.1667 23.0299 15.1667 23.3566C15.1667 25.9349 17.255 28.0233 19.8334 28.0233C22.4117 28.0233 24.5 25.9349 24.5 23.3566C24.5 23.0183 24.465 22.6916 24.395 22.3883C24.395 22.3416 24.36 22.2949 24.3484 22.2483L24.3134 22.2133Z" fill="#6A51CA" stroke="#6A51CA" stroke-linecap="round" stroke-linejoin="round"/>
<path d="M7.1335 37.504H8.6335L11.5135 44.164H11.5375L14.4415 37.504H15.9055V46H14.8975V38.872H14.8735L11.8255 46H11.2135L8.1655 38.872H8.1415V46H7.1335V37.504ZM20.0362 47.284C19.9402 47.524 19.8402 47.74 19.7362 47.932C19.6402 48.132 19.5202 48.3 19.3762 48.436C19.2402 48.58 19.0722 48.688 18.8722 48.76C18.6802 48.84 18.4442 48.88 18.1642 48.88C18.0282 48.88 17.8842 48.872 17.7322 48.856C17.5882 48.84 17.4522 48.8 17.3242 48.736L17.4442 47.92C17.5402 47.96 17.6402 47.984 17.7442 47.992C17.8482 48.008 17.9682 48.016 18.1042 48.016C18.4082 48.016 18.6322 47.932 18.7762 47.764C18.9202 47.596 19.0442 47.372 19.1482 47.092L19.5322 46.036L17.2042 40.384H18.2962L20.0362 44.788H20.0602L21.7282 40.384H22.7482L20.0362 47.284ZM27.5091 37.504H30.1011C30.4531 37.504 30.7971 37.54 31.1331 37.612C31.4691 37.684 31.7691 37.804 32.0331 37.972C32.2971 38.132 32.5091 38.344 32.6691 38.608C32.8371 38.872 32.9211 39.2 32.9211 39.592C32.9211 40.088 32.7851 40.5 32.5131 40.828C32.2491 41.148 31.8891 41.376 31.4331 41.512V41.536C31.7051 41.56 31.9571 41.632 32.1891 41.752C32.4291 41.864 32.6331 42.012 32.8011 42.196C32.9771 42.38 33.1131 42.596 33.2091 42.844C33.3051 43.084 33.3531 43.344 33.3531 43.624C33.3531 44.096 33.2531 44.484 33.0531 44.788C32.8611 45.092 32.6051 45.336 32.2851 45.52C31.9731 45.696 31.6171 45.82 31.2171 45.892C30.8251 45.964 30.4331 46 30.0411 46H27.5091V37.504ZM28.5171 41.104H29.9091C30.1491 41.104 30.3811 41.088 30.6051 41.056C30.8371 41.024 31.0451 40.96 31.2291 40.864C31.4131 40.76 31.5611 40.62 31.6731 40.444C31.7851 40.26 31.8411 40.02 31.8411 39.724C31.8411 39.46 31.7891 39.248 31.6851 39.088C31.5811 38.92 31.4411 38.788 31.2651 38.692C31.0971 38.596 30.9011 38.532 30.6771 38.5C30.4611 38.46 30.2411 38.44 30.0171 38.44H28.5171V41.104ZM28.5171 45.064H30.2211C30.4691 45.064 30.7131 45.04 30.9531 44.992C31.2011 44.936 31.4211 44.852 31.6131 44.74C31.8131 44.62 31.9731 44.468 32.0931 44.284C32.2131 44.092 32.2731 43.86 32.2731 43.588C32.2731 43.292 32.2131 43.044 32.0931 42.844C31.9811 42.644 31.8291 42.484 31.6371 42.364C31.4531 42.244 31.2371 42.16 30.9891 42.112C30.7491 42.064 30.5011 42.04 30.2451 42.04H28.5171V45.064ZM35.1037 40.384H36.0397V46H35.1037V40.384ZM34.8877 38.188C34.8877 38.004 34.9517 37.844 35.0797 37.708C35.2157 37.572 35.3797 37.504 35.5717 37.504C35.7637 37.504 35.9237 37.572 36.0517 37.708C36.1877 37.844 36.2557 38.004 36.2557 38.188C36.2557 38.388 36.1917 38.552 36.0637 38.68C35.9357 38.808 35.7717 38.872 35.5717 38.872C35.3717 38.872 35.2077 38.808 35.0797 38.68C34.9517 38.552 34.8877 38.388 34.8877 38.188ZM38.0225 36.928H38.9585V42.856L41.5145 40.384H42.8465L40.1345 42.94L43.1225 46H41.7425L38.9585 43.048V46H38.0225V36.928ZM49.1585 44.98C48.8225 45.412 48.4545 45.716 48.0545 45.892C47.6545 46.06 47.1905 46.144 46.6625 46.144C46.2225 46.144 45.8265 46.068 45.4745 45.916C45.1225 45.756 44.8225 45.544 44.5745 45.28C44.3345 45.016 44.1465 44.704 44.0105 44.344C43.8825 43.984 43.8185 43.6 43.8185 43.192C43.8185 42.76 43.8905 42.364 44.0345 42.004C44.1785 41.636 44.3785 41.324 44.6345 41.068C44.8905 40.804 45.1945 40.6 45.5465 40.456C45.8985 40.312 46.2825 40.24 46.6985 40.24C47.0905 40.24 47.4505 40.308 47.7785 40.444C48.1065 40.572 48.3865 40.764 48.6185 41.02C48.8585 41.268 49.0425 41.576 49.1705 41.944C49.2985 42.304 49.3625 42.716 49.3625 43.18V43.48H44.8265C44.8425 43.72 44.8985 43.952 44.9945 44.176C45.0985 44.392 45.2305 44.584 45.3905 44.752C45.5505 44.912 45.7385 45.04 45.9545 45.136C46.1705 45.232 46.4065 45.28 46.6625 45.28C47.0705 45.28 47.4145 45.208 47.6945 45.064C47.9745 44.92 48.2265 44.708 48.4505 44.428L49.1585 44.98ZM48.3545 42.688C48.3385 42.208 48.1825 41.824 47.8865 41.536C47.5905 41.248 47.1825 41.104 46.6625 41.104C46.1425 41.104 45.7225 41.248 45.4025 41.536C45.0825 41.824 44.8905 42.208 44.8265 42.688H48.3545Z" fill="#6A51CA"/>
</svg>
