<svg width="64" height="64" viewBox="0 0 64 64" fill="none" xmlns="http://www.w3.org/2000/svg">
<g filter="url(#filter0_d_3886_220293)">
<circle cx="32" cy="32" r="24" fill="#FAFAFA"/>
<circle cx="32" cy="32" r="23.75" stroke="#CECFCF" stroke-width="0.5"/>
</g>
<path d="M31.9954 41.3332C37.1501 41.3332 41.3288 37.1545 41.3288 31.9998C41.3288 26.8452 37.1501 22.6665 31.9954 22.6665C26.8408 22.6665 22.6621 26.8452 22.6621 31.9998C22.6621 37.1545 26.8408 41.3332 31.9954 41.3332Z" stroke="#383838" stroke-miterlimit="10"/>
<path d="M31.9955 22.6665V18.6665" stroke="#383838" stroke-miterlimit="10" stroke-linecap="round"/>
<path d="M31.9955 45.333V41.333" stroke="#383838" stroke-miterlimit="10" stroke-linecap="round"/>
<path d="M41.3287 32H45.3287" stroke="#383838" stroke-miterlimit="10" stroke-linecap="round"/>
<path d="M18.6621 32H22.6621" stroke="#383838" stroke-miterlimit="10" stroke-linecap="round"/>
<path d="M30.7207 34.0048C30.7207 33.6815 30.7668 33.394 30.8592 33.1695C30.9516 32.9449 31.0994 32.7294 31.3119 32.5318C31.626 32.2354 31.9123 31.9839 32.1802 31.7593C32.4481 31.5437 32.6698 31.3372 32.8638 31.1485C33.0578 30.9599 33.2056 30.7803 33.3073 30.6096C33.4181 30.439 33.4643 30.2593 33.4643 30.0797C33.4643 29.7204 33.3535 29.442 33.1225 29.2354C32.8916 29.0288 32.6052 28.93 32.2541 28.93C31.7276 28.93 31.3211 29.0737 31.0532 29.3521C30.7853 29.6306 30.6283 29.9809 30.5913 30.3851L27.9955 30.2234C28.1156 29.0647 28.559 28.1845 29.3073 27.5737C30.0555 26.9629 31.0255 26.6665 32.208 26.6665C32.7253 26.6665 33.2149 26.7384 33.6675 26.8731C34.1202 27.0078 34.5267 27.2144 34.8685 27.4839C35.2195 27.7533 35.4966 28.0946 35.6906 28.4988C35.8846 28.903 35.9955 29.3701 35.9955 29.8911C35.9955 30.2054 35.9585 30.4929 35.8939 30.7533C35.8292 31.0138 35.7091 31.2653 35.5521 31.5168C35.3858 31.7683 35.1733 32.0198 34.9147 32.2803C34.6468 32.5408 34.3142 32.8192 33.9077 33.1246C33.6491 33.3222 33.4735 33.5108 33.3812 33.6994C33.2888 33.8881 33.2426 34.0677 33.2426 34.2563V34.7324H30.7114V34.0138L30.7207 34.0048ZM30.4343 37.1485C30.4343 36.942 30.4712 36.7443 30.5544 36.5557C30.6283 36.3671 30.7391 36.2054 30.8869 36.0707C31.0255 35.936 31.1918 35.8282 31.3858 35.7473C31.5798 35.6665 31.783 35.6306 31.9955 35.6306C32.208 35.6306 32.4112 35.6665 32.6052 35.7473C32.7992 35.8192 32.9655 35.927 33.104 36.0707C33.2426 36.2054 33.3535 36.3671 33.4366 36.5557C33.5105 36.7443 33.5567 36.942 33.5567 37.1485C33.5567 37.3551 33.5197 37.5527 33.4366 37.7414C33.3627 37.93 33.2518 38.0917 33.104 38.2264C32.9655 38.3611 32.7992 38.4689 32.6052 38.5497C32.4112 38.6306 32.208 38.6665 31.9955 38.6665C31.783 38.6665 31.5798 38.6306 31.3858 38.5497C31.1918 38.4779 31.0255 38.3701 30.8869 38.2264C30.7484 38.0827 30.6375 37.93 30.5544 37.7414C30.4805 37.5527 30.4343 37.3551 30.4343 37.1485Z" fill="#7A7A79"/>
<defs>
<filter id="filter0_d_3886_220293" x="0" y="0" width="64" height="64" filterUnits="userSpaceOnUse" color-interpolation-filters="sRGB">
<feFlood flood-opacity="0" result="BackgroundImageFix"/>
<feColorMatrix in="SourceAlpha" type="matrix" values="0 0 0 0 0 0 0 0 0 0 0 0 0 0 0 0 0 0 127 0" result="hardAlpha"/>
<feOffset/>
<feGaussianBlur stdDeviation="4"/>
<feComposite in2="hardAlpha" operator="out"/>
<feColorMatrix type="matrix" values="0 0 0 0 0.145098 0 0 0 0 0.145098 0 0 0 0 0.14902 0 0 0 0.25 0"/>
<feBlend mode="normal" in2="BackgroundImageFix" result="effect1_dropShadow_3886_220293"/>
<feBlend mode="normal" in="SourceGraphic" in2="effect1_dropShadow_3886_220293" result="shape"/>
</filter>
</defs>
</svg>
