<svg width="36" height="37" viewBox="0 0 36 37" fill="none" xmlns="http://www.w3.org/2000/svg">
<path d="M27.52 12.4249C26.4479 7.37139 21.4397 4.11739 16.4021 5.21205C12.0842 6.14177 9 9.9806 9 14.4192C9 15.7688 9.26436 17.0734 9.83715 18.2881C10.2043 19.0678 10.5862 19.8326 11.0121 20.5824C12.9507 24.0463 15.3006 27.1954 17.8561 30.2244C18.1645 30.5993 18.5611 30.5843 18.8842 30.2244C20.1766 28.7249 21.3809 27.1504 22.5412 25.5459C24.098 23.3865 25.5226 21.1372 26.6975 18.7379C27.6962 16.7285 28.0047 14.6142 27.5347 12.4249H27.52ZM18.3702 19.1578C15.7706 19.1578 13.641 17.0285 13.641 14.4192C13.641 11.81 15.7412 9.68069 18.3408 9.66569C20.9697 9.66569 23.0846 11.7801 23.0846 14.4192C23.0846 17.0285 20.9697 19.1578 18.3702 19.1578Z" fill="#6A51CA"/>
</svg>
