<svg width="43" height="44" viewBox="0 0 43 44" fill="none" xmlns="http://www.w3.org/2000/svg">
<path d="M3.99336 18H30.0066C31.103 18 32 18.9015 32 20.0033V33.9866C32 38.414 28.4319 42 24.0266 42H9.97342C5.56811 42 2 38.414 2 33.9866V20.0033C2 18.9015 2.89701 18 3.99336 18Z" fill="#C1B7E8" stroke="#ECEDEB" stroke-width="3.5" stroke-linecap="round" stroke-linejoin="round"/>
<path d="M41 12V10.6632C41 5.87814 37.4188 2.00003 33 2.00003C28.5812 2.00003 25 5.87814 25 10.6632V18" fill="#C1B7E8"/>
<path d="M41 12V10.6632C41 5.87814 37.4188 2.00003 33 2.00003C28.5812 2.00003 25 5.87814 25 10.6632V18" stroke="#ECEDEB" stroke-width="3.5" stroke-linecap="round" stroke-linejoin="round"/>
<path d="M17 30V36" stroke="#ECEDEB" stroke-width="3.5" stroke-linecap="round" stroke-linejoin="round"/>
</svg>
