<svg width="36" height="36" viewBox="0 0 36 36" fill="none" xmlns="http://www.w3.org/2000/svg">
<path d="M18 19.5C18.8284 19.5 19.5 18.8284 19.5 18C19.5 17.1716 18.8284 16.5 18 16.5C17.1716 16.5 16.5 17.1716 16.5 18C16.5 18.8284 17.1716 19.5 18 19.5Z" fill="#383838"/>
<path d="M18 12C18.8284 12 19.5 11.3284 19.5 10.5C19.5 9.67157 18.8284 9 18 9C17.1716 9 16.5 9.67157 16.5 10.5C16.5 11.3284 17.1716 12 18 12Z" fill="#383838"/>
<path d="M18 27C18.8284 27 19.5 26.3284 19.5 25.5C19.5 24.6716 18.8284 24 18 24C17.1716 24 16.5 24.6716 16.5 25.5C16.5 26.3284 17.1716 27 18 27Z" fill="#383838"/>
</svg>
