<svg width="86" height="53" viewBox="0 0 86 53" fill="none" xmlns="http://www.w3.org/2000/svg">
<rect x="24.3335" width="37.3333" height="2.33333" rx="1.16667" fill="#6A51CA"/>
<path d="M50.6282 23.8167C50.6282 23.9718 50.6989 24.1104 50.8097 24.2021L52.8357 26.579C53.2219 27.0329 52.8992 27.7383 52.2949 27.7383H33.7099C33.1058 27.7383 32.7831 27.0335 33.1686 26.5795C33.1688 26.5793 33.1689 26.5792 33.1691 26.579L35.2679 24.1304C35.3455 24.0398 35.3882 23.9244 35.3882 23.805H34.8882L35.3882 23.8049V23.8048V23.8045V23.8041V23.8035V23.8029V23.8021V23.8012V23.8002V23.7991V23.7979V23.7965V23.7951V23.7935V23.7918V23.79V23.7881V23.7861V23.784V23.7817V23.7794V23.7769V23.7743V23.7716V23.7688V23.7659V23.7629V23.7598V23.7566V23.7532V23.7498V23.7463V23.7426V23.7388V23.735V23.731V23.7269V23.7228V23.7185V23.7141V23.7096V23.705V23.7003V23.6955V23.6906V23.6856V23.6805V23.6753V23.67V23.6646V23.6592V23.6536V23.6479V23.6421V23.6362V23.6302V23.6242V23.618V23.6117V23.6053V23.5989V23.5923V23.5857V23.579V23.5721V23.5652V23.5582V23.5511V23.5439V23.5366V23.5292V23.5217V23.5142V23.5065V23.4988V23.491V23.4831V23.4751V23.467V23.4588V23.4505V23.4422V23.4337V23.4252V23.4166V23.4079V23.3992V23.3903V23.3814V23.3723V23.3632V23.3541V23.3448V23.3354V23.326V23.3165V23.3069V23.2972V23.2875V23.2777V23.2678V23.2578V23.2477V23.2376V23.2274V23.2171V23.2067V23.1963V23.1858V23.1752V23.1645V23.1538V23.143V23.1321V23.1211V23.1101V23.099V23.0878V23.0766V23.0653V23.0539V23.0424V23.0309V23.0193V23.0077V22.9959V22.9842V22.9723V22.9604V22.9484V22.9363V22.9242V22.912V22.8997V22.8874V22.875V22.8626V22.8501V22.8375V22.8249V22.8122V22.7994V22.7866V22.7737V22.7608V22.7478V22.7347V22.7216V22.7084V22.6952V22.6819V22.6685V22.6551V22.6417V22.6281V22.6146V22.6009V22.5873V22.5735V22.5597V22.5459V22.532V22.518V22.504V22.49V22.4758V22.4617V22.4475V22.4332V22.4189V22.4045V22.3901V22.3757V22.3611V22.3466V22.332V22.3173V22.3026V22.2879V22.2731V22.2583V22.2434V22.2285V22.2135V22.1985V22.1834V22.1683V22.1532V22.138V22.1228V22.1075V22.0922V22.0768V22.0614V22.046V22.0305V22.015V21.9995V21.9839V21.9683V21.9526V21.9369V21.9212V21.9054V21.8896V21.8738V21.8579V21.842V21.8261V21.8101V21.7941V21.778V21.7619V21.7458V21.7297V21.7135V21.6973V21.6811V21.6648V21.6485V21.6322V21.6159V21.5995V21.5831V21.5667V21.5502V21.5337V21.5172V21.5007V21.4841V21.4675V21.4509V21.4343V21.4176V21.4009V21.3842V21.3675V21.3507V21.3339V21.3171V21.3003V21.2835V21.2666V21.2498V21.2329V21.2159V21.199V21.1821V21.1651V21.1481V21.1311V21.1141V21.097V21.08V21.0629V21.0458V21.0287V21.0116V20.9945V20.9774V20.9602V20.943V20.9259V20.9087V20.8915V20.8743V20.8571V20.8398V20.8226V20.8053V20.7881V20.7708V20.7536V20.7363V20.719V20.7017V20.6844V20.6671V20.6498V20.6325V20.6151V20.5978V20.5805V20.5632V20.5458V20.5285V20.5111V20.4938V20.4765V20.4591V20.4418V20.4244V20.4071V20.3897V20.3724V20.3551V20.3377V20.3204V20.3031V20.2857V20.2684V20.2511V20.2338V20.2164V20.1991V20.1818V20.1645V20.1472V20.13V20.1127V20.0954V20.0782V20.0609V20.0437V20.0264V20.0092V19.992V19.9748V19.9576V19.9404V19.9232V19.9061V19.8889V19.8718V19.8547V19.8376V19.8205V19.8034V19.7864V19.7693V19.7523V19.7353V19.7183V19.7013V19.6843V19.6674V19.6505V19.6336V19.6167V19.5998V19.583V19.5661V19.5493V19.5325V19.5158V19.499V19.4823V19.4656V19.4489V19.4323V19.4157V19.3991V19.3825V19.3659V19.3494V19.3329V19.3164V19.3V19.2836V19.2672V19.2508V19.2345V19.2182V19.2019V19.1856V19.1694V19.1532V19.1371V19.1209V19.1049V19.0888V19.0728V19.0568V19.0408V19.0249V19.009V18.9931V18.9773V18.9615V18.9458V18.9301V18.9144V18.8987V18.8831V18.8676V18.852V18.8365V18.8211V18.8057V18.7903V18.775V18.7597V18.7444V18.7292V18.7141V18.6989V18.6839V18.6688V18.6538V18.6389V18.624V18.6091V18.5943V18.5795V18.5648V18.5501V18.5355V18.5209V18.5064V18.4919V18.4775V18.4631V18.4487V18.4344V18.4202V18.406V18.3919V18.3778V18.3638V18.3498V18.3359V18.322V18.3082V18.2944V18.2807V18.267V18.2534V18.2399V18.2264V18.2129V18.1995V18.1862V18.173V18.1597V18.1466V18.1335V18.1205V18.1075V18.0946V18.0817V18.0689V18.0562V18.0435V18.0309V18.0184V18.0059V17.9935V17.9811V17.9689V17.9566V17.9445V17.9324V17.9203V17.9084V17.8965V17.8847V17.8729V17.8612V17.8496V17.838V17.8265V17.8151V17.8038V17.7925V17.7813V17.7701V17.7591V17.7481V17.7372V17.7263V17.7155V17.7048V17.6942V17.6836V17.6732V17.6628V17.6524V17.6422V17.632V17.6219V17.6119V17.6019V17.5921V17.5823V17.5726V17.5629V17.5534V17.5439V17.5345V17.5252V17.516V17.5068V17.4978V17.4888V17.4799V17.4711V17.4623V17.4537V17.4451V17.4366V17.4282V17.4199V17.4117V17.4036V17.3955V17.3876V17.3797V17.3719V17.3642V17.3566V17.3491V17.3417C35.3882 16.7863 35.6454 14.7928 36.7437 12.9548C37.8234 11.148 39.7048 9.5 43.0082 9.5C46.3112 9.5 48.1927 11.1505 49.2726 12.9604C50.3711 14.8013 50.6282 16.7979 50.6282 17.3533V17.3608V17.3683V17.3759V17.3836V17.3914V17.3992V17.4072V17.4152V17.4234V17.4316V17.4399V17.4483V17.4568V17.4654V17.474V17.4827V17.4915V17.5004V17.5094V17.5185V17.5276V17.5369V17.5462V17.5556V17.565V17.5746V17.5842V17.5939V17.6037V17.6136V17.6235V17.6336V17.6437V17.6538V17.6641V17.6744V17.6848V17.6953V17.7059V17.7165V17.7272V17.738V17.7488V17.7597V17.7707V17.7818V17.7929V17.8041V17.8154V17.8268V17.8382V17.8497V17.8612V17.8729V17.8846V17.8963V17.9082V17.92V17.932V17.944V17.9561V17.9683V17.9805V17.9928V18.0052V18.0176V18.0301V18.0426V18.0552V18.0679V18.0806V18.0934V18.1063V18.1192V18.1321V18.1452V18.1583V18.1714V18.1846V18.1979V18.2112V18.2246V18.238V18.2515V18.2651V18.2787V18.2923V18.306V18.3198V18.3336V18.3475V18.3614V18.3754V18.3895V18.4036V18.4177V18.4319V18.4461V18.4604V18.4747V18.4891V18.5036V18.5181V18.5326V18.5472V18.5618V18.5765V18.5912V18.606V18.6208V18.6356V18.6505V18.6655V18.6805V18.6955V18.7106V18.7257V18.7409V18.7561V18.7714V18.7866V18.802V18.8173V18.8328V18.8482V18.8637V18.8792V18.8948V18.9104V18.926V18.9417V18.9574V18.9732V18.989V19.0048V19.0207V19.0366V19.0525V19.0684V19.0844V19.1005V19.1165V19.1326V19.1487V19.1649V19.1811V19.1973V19.2135V19.2298V19.2461V19.2625V19.2788V19.2952V19.3116V19.3281V19.3446V19.3611V19.3776V19.3941V19.4107V19.4273V19.444V19.4606V19.4773V19.494V19.5107V19.5274V19.5442V19.561V19.5778V19.5946V19.6115V19.6283V19.6452V19.6621V19.6791V19.696V19.713V19.7299V19.7469V19.764V19.781V19.798V19.8151V19.8322V19.8493V19.8664V19.8835V19.9006V19.9178V19.9349V19.9521V19.9693V19.9865V20.0037V20.0209V20.0381V20.0553V20.0726V20.0898V20.1071V20.1244V20.1416V20.1589V20.1762V20.1935V20.2108V20.2281V20.2454V20.2627V20.2801V20.2974V20.3147V20.3321V20.3494V20.3667V20.3841V20.4014V20.4188V20.4361V20.4534V20.4708V20.4881V20.5055V20.5228V20.5402V20.5575V20.5748V20.5922V20.6095V20.6268V20.6441V20.6614V20.6788V20.6961V20.7134V20.7307V20.7479V20.7652V20.7825V20.7998V20.817V20.8343V20.8515V20.8687V20.8859V20.9032V20.9204V20.9375V20.9547V20.9719V20.989V21.0062V21.0233V21.0404V21.0575V21.0746V21.0916V21.1087V21.1257V21.1428V21.1598V21.1768V21.1937V21.2107V21.2276V21.2445V21.2614V21.2783V21.2952V21.312V21.3288V21.3456V21.3624V21.3791V21.3959V21.4126V21.4293V21.4459V21.4626V21.4792V21.4958V21.5123V21.5289V21.5454V21.5619V21.5783V21.5948V21.6112V21.6275V21.6439V21.6602V21.6765V21.6928V21.709V21.7252V21.7414V21.7575V21.7736V21.7897V21.8057V21.8217V21.8377V21.8537V21.8696V21.8854V21.9013V21.9171V21.9329V21.9486V21.9643V21.98V21.9956V22.0112V22.0267V22.0422V22.0577V22.0731V22.0885V22.1039V22.1192V22.1344V22.1497V22.1648V22.18V22.1951V22.2101V22.2252V22.2401V22.2551V22.2699V22.2848V22.2996V22.3143V22.329V22.3437V22.3583V22.3728V22.3873V22.4018V22.4162V22.4306V22.4449V22.4591V22.4733V22.4875V22.5016V22.5157V22.5297V22.5436V22.5575V22.5714V22.5852V22.5989V22.6126V22.6262V22.6398V22.6533V22.6668V22.6802V22.6936V22.7068V22.7201V22.7333V22.7464V22.7594V22.7724V22.7854V22.7983V22.8111V22.8238V22.8365V22.8492V22.8617V22.8743V22.8867V22.8991V22.9114V22.9237V22.9358V22.948V22.96V22.972V22.984V22.9958V23.0076V23.0193V23.031V23.0426V23.0541V23.0656V23.0769V23.0883V23.0995V23.1107V23.1218V23.1328V23.1438V23.1546V23.1654V23.1762V23.1868V23.1974V23.208V23.2184V23.2288V23.239V23.2493V23.2594V23.2695V23.2794V23.2893V23.2992V23.3089V23.3186V23.3282V23.3377V23.3471V23.3565V23.3657V23.3749V23.384V23.393V23.402V23.4108V23.4196V23.4283V23.4369V23.4454V23.4538V23.4622V23.4705V23.4786V23.4867V23.4947V23.5026V23.5105V23.5182V23.5258V23.5334V23.5409V23.5483V23.5555V23.5627V23.5699V23.5769V23.5838V23.5906V23.5974V23.604V23.6106V23.617V23.6234V23.6296V23.6358V23.6419V23.6479V23.6538V23.6595V23.6652V23.6708V23.6763V23.6817V23.687V23.6922V23.6973V23.7023V23.7072V23.712V23.7167V23.7213V23.7258V23.7301V23.7344V23.7386V23.7427V23.7466V23.7505V23.7543V23.7579V23.7615V23.7649V23.7682V23.7715V23.7746V23.7776V23.7805V23.7833V23.786V23.7886V23.791V23.7934V23.7956V23.7978V23.7998V23.8017V23.8035V23.805V23.8052V23.8068V23.8082V23.8096V23.8108V23.8119V23.8129V23.8138V23.8145V23.8152V23.8157V23.8161V23.8164V23.8166V23.8167Z" fill="#6A51CA" stroke="#6A51CA" stroke-linejoin="round"/>
<mask id="path-3-inside-1_1689_40178" fill="white">
<path d="M47.0915 28.25C47.0915 30.5017 45.2598 32.3333 43.0081 32.3333C40.7565 32.3333 38.9248 30.5017 38.9248 28.25"/>
</mask>
<path d="M46.0915 28.25C46.0915 29.9494 44.7075 31.3333 43.0081 31.3333V33.3333C45.8121 33.3333 48.0915 31.054 48.0915 28.25H46.0915ZM43.0081 31.3333C41.3088 31.3333 39.9248 29.9494 39.9248 28.25H37.9248C37.9248 31.054 40.2042 33.3333 43.0081 33.3333V31.3333Z" fill="#6A51CA" mask="url(#path-3-inside-1_1689_40178)"/>
<path d="M28.1347 45.668H27.2707V37.172H32.3947V37.964H28.1347V40.856H32.0947V41.648H28.1347V45.668ZM38.1387 42.428C38.1387 41.892 37.9787 41.46 37.6587 41.132C37.3387 40.796 36.8907 40.628 36.3147 40.628C36.0587 40.628 35.8107 40.68 35.5707 40.784C35.3307 40.88 35.1187 41.012 34.9347 41.18C34.7587 41.348 34.6147 41.54 34.5027 41.756C34.3987 41.972 34.3467 42.196 34.3467 42.428H38.1387ZM34.3227 43.076C34.3467 43.356 34.4147 43.62 34.5267 43.868C34.6387 44.116 34.7867 44.332 34.9707 44.516C35.1547 44.692 35.3667 44.832 35.6067 44.936C35.8467 45.04 36.1067 45.092 36.3867 45.092C36.8107 45.092 37.1747 44.996 37.4787 44.804C37.7907 44.604 38.0267 44.376 38.1867 44.12L38.7987 44.624C38.4627 45.048 38.0907 45.352 37.6827 45.536C37.2827 45.72 36.8507 45.812 36.3867 45.812C35.9707 45.812 35.5827 45.74 35.2227 45.596C34.8707 45.444 34.5667 45.236 34.3107 44.972C34.0547 44.708 33.8507 44.396 33.6987 44.036C33.5547 43.676 33.4827 43.284 33.4827 42.86C33.4827 42.436 33.5547 42.044 33.6987 41.684C33.8427 41.324 34.0427 41.012 34.2987 40.748C34.5547 40.484 34.8547 40.28 35.1987 40.136C35.5427 39.984 35.9147 39.908 36.3147 39.908C36.7387 39.908 37.1187 39.984 37.4547 40.136C37.7907 40.288 38.0707 40.492 38.2947 40.748C38.5267 40.996 38.7027 41.292 38.8227 41.636C38.9427 41.972 39.0027 42.332 39.0027 42.716V43.076H34.3227ZM44.9267 42.428C44.9267 41.892 44.7667 41.46 44.4467 41.132C44.1267 40.796 43.6787 40.628 43.1027 40.628C42.8467 40.628 42.5987 40.68 42.3587 40.784C42.1187 40.88 41.9067 41.012 41.7227 41.18C41.5467 41.348 41.4027 41.54 41.2907 41.756C41.1867 41.972 41.1347 42.196 41.1347 42.428H44.9267ZM41.1107 43.076C41.1347 43.356 41.2027 43.62 41.3147 43.868C41.4267 44.116 41.5747 44.332 41.7587 44.516C41.9427 44.692 42.1547 44.832 42.3947 44.936C42.6347 45.04 42.8947 45.092 43.1747 45.092C43.5987 45.092 43.9627 44.996 44.2667 44.804C44.5787 44.604 44.8147 44.376 44.9747 44.12L45.5867 44.624C45.2507 45.048 44.8787 45.352 44.4707 45.536C44.0707 45.72 43.6387 45.812 43.1747 45.812C42.7587 45.812 42.3707 45.74 42.0107 45.596C41.6587 45.444 41.3547 45.236 41.0987 44.972C40.8427 44.708 40.6387 44.396 40.4867 44.036C40.3427 43.676 40.2707 43.284 40.2707 42.86C40.2707 42.436 40.3427 42.044 40.4867 41.684C40.6307 41.324 40.8307 41.012 41.0867 40.748C41.3427 40.484 41.6427 40.28 41.9867 40.136C42.3307 39.984 42.7027 39.908 43.1027 39.908C43.5267 39.908 43.9067 39.984 44.2427 40.136C44.5787 40.288 44.8587 40.492 45.0827 40.748C45.3147 40.996 45.4907 41.292 45.6107 41.636C45.7307 41.972 45.7907 42.332 45.7907 42.716V43.076H41.1107ZM47.8266 42.86C47.8266 43.172 47.8746 43.464 47.9706 43.736C48.0746 44.008 48.2186 44.244 48.4026 44.444C48.5866 44.644 48.8066 44.804 49.0626 44.924C49.3266 45.036 49.6226 45.092 49.9506 45.092C50.2706 45.092 50.5666 45.036 50.8386 44.924C51.1186 44.804 51.3586 44.644 51.5586 44.444C51.7586 44.244 51.9146 44.008 52.0266 43.736C52.1386 43.464 52.1946 43.172 52.1946 42.86C52.1946 42.548 52.1386 42.256 52.0266 41.984C51.9146 41.712 51.7586 41.476 51.5586 41.276C51.3586 41.076 51.1186 40.92 50.8386 40.808C50.5666 40.688 50.2706 40.628 49.9506 40.628C49.6226 40.628 49.3266 40.688 49.0626 40.808C48.8066 40.92 48.5866 41.076 48.4026 41.276C48.2186 41.476 48.0746 41.712 47.9706 41.984C47.8746 42.256 47.8266 42.548 47.8266 42.86ZM52.9506 45.668H52.1586V44.732H52.1346C52.0066 44.924 51.8546 45.088 51.6786 45.224C51.5026 45.36 51.3186 45.472 51.1266 45.56C50.9346 45.648 50.7346 45.712 50.5266 45.752C50.3266 45.792 50.1346 45.812 49.9506 45.812C49.5106 45.812 49.1066 45.74 48.7386 45.596C48.3786 45.444 48.0666 45.236 47.8026 44.972C47.5386 44.708 47.3306 44.396 47.1786 44.036C47.0346 43.676 46.9626 43.284 46.9626 42.86C46.9626 42.436 47.0346 42.044 47.1786 41.684C47.3306 41.324 47.5386 41.012 47.8026 40.748C48.0666 40.484 48.3786 40.28 48.7386 40.136C49.1066 39.984 49.5106 39.908 49.9506 39.908C50.1346 39.908 50.3266 39.928 50.5266 39.968C50.7346 40.008 50.9346 40.072 51.1266 40.16C51.3186 40.248 51.5026 40.36 51.6786 40.496C51.8546 40.632 52.0066 40.796 52.1346 40.988H52.1586V36.596H52.9506V45.668ZM57.7786 41.384C57.6586 41.152 57.4986 40.968 57.2986 40.832C57.0986 40.696 56.8546 40.628 56.5666 40.628C56.4306 40.628 56.2906 40.644 56.1466 40.676C56.0106 40.708 55.8866 40.76 55.7746 40.832C55.6626 40.896 55.5706 40.98 55.4986 41.084C55.4346 41.188 55.4026 41.316 55.4026 41.468C55.4026 41.732 55.4946 41.924 55.6786 42.044C55.8626 42.164 56.1386 42.268 56.5066 42.356L57.3106 42.548C57.7026 42.636 58.0266 42.816 58.2826 43.088C58.5466 43.352 58.6786 43.684 58.6786 44.084C58.6786 44.388 58.6146 44.652 58.4866 44.876C58.3666 45.092 58.2026 45.272 57.9946 45.416C57.7946 45.552 57.5626 45.652 57.2986 45.716C57.0346 45.78 56.7666 45.812 56.4946 45.812C56.0626 45.812 55.6586 45.732 55.2826 45.572C54.9146 45.404 54.5986 45.12 54.3346 44.72L55.0186 44.252C55.1786 44.508 55.3786 44.712 55.6186 44.864C55.8666 45.016 56.1586 45.092 56.4946 45.092C56.6546 45.092 56.8146 45.076 56.9746 45.044C57.1346 45.004 57.2746 44.948 57.3946 44.876C57.5226 44.796 57.6226 44.696 57.6946 44.576C57.7746 44.456 57.8146 44.316 57.8146 44.156C57.8146 43.876 57.7106 43.676 57.5026 43.556C57.2946 43.428 57.0426 43.328 56.7466 43.256L55.9786 43.076C55.8826 43.052 55.7506 43.012 55.5826 42.956C55.4226 42.9 55.2626 42.816 55.1026 42.704C54.9506 42.592 54.8186 42.448 54.7066 42.272C54.5946 42.088 54.5386 41.864 54.5386 41.6C54.5386 41.312 54.5946 41.06 54.7066 40.844C54.8266 40.628 54.9826 40.452 55.1746 40.316C55.3746 40.18 55.5986 40.08 55.8466 40.016C56.0946 39.944 56.3506 39.908 56.6146 39.908C57.0066 39.908 57.3706 39.984 57.7066 40.136C58.0426 40.288 58.3026 40.548 58.4866 40.916L57.7786 41.384Z" fill="#6A51CA"/>
</svg>
