<svg width="86" height="47" viewBox="0 0 86 47" fill="none" xmlns="http://www.w3.org/2000/svg">
<path d="M50.6282 17.8167C50.6282 17.9718 50.6989 18.1104 50.8097 18.2021L52.8357 20.579C53.2219 21.0329 52.8992 21.7383 52.2949 21.7383H33.7099C33.1058 21.7383 32.7831 21.0335 33.1686 20.5795C33.1688 20.5793 33.1689 20.5792 33.1691 20.579L35.2679 18.1304C35.3455 18.0398 35.3882 17.9244 35.3882 17.805H34.8882L35.3882 17.8049V17.8048V17.8045V17.8041V17.8035V17.8029V17.8021V17.8012V17.8002V17.7991V17.7979V17.7965V17.7951V17.7935V17.7918V17.79V17.7881V17.7861V17.784V17.7817V17.7794V17.7769V17.7743V17.7716V17.7688V17.7659V17.7629V17.7598V17.7566V17.7532V17.7498V17.7463V17.7426V17.7388V17.735V17.731V17.7269V17.7228V17.7185V17.7141V17.7096V17.705V17.7003V17.6955V17.6906V17.6856V17.6805V17.6753V17.67V17.6646V17.6592V17.6536V17.6479V17.6421V17.6362V17.6302V17.6242V17.618V17.6117V17.6053V17.5989V17.5923V17.5857V17.579V17.5721V17.5652V17.5582V17.5511V17.5439V17.5366V17.5292V17.5217V17.5142V17.5065V17.4988V17.491V17.4831V17.4751V17.467V17.4588V17.4505V17.4422V17.4337V17.4252V17.4166V17.4079V17.3992V17.3903V17.3814V17.3723V17.3632V17.3541V17.3448V17.3354V17.326V17.3165V17.3069V17.2972V17.2875V17.2777V17.2678V17.2578V17.2477V17.2376V17.2274V17.2171V17.2067V17.1963V17.1858V17.1752V17.1645V17.1538V17.143V17.1321V17.1211V17.1101V17.099V17.0878V17.0766V17.0653V17.0539V17.0424V17.0309V17.0193V17.0077V16.9959V16.9842V16.9723V16.9604V16.9484V16.9363V16.9242V16.912V16.8997V16.8874V16.875V16.8626V16.8501V16.8375V16.8249V16.8122V16.7994V16.7866V16.7737V16.7608V16.7478V16.7347V16.7216V16.7084V16.6952V16.6819V16.6685V16.6551V16.6417V16.6281V16.6146V16.6009V16.5873V16.5735V16.5597V16.5459V16.532V16.518V16.504V16.49V16.4758V16.4617V16.4475V16.4332V16.4189V16.4045V16.3901V16.3757V16.3611V16.3466V16.332V16.3173V16.3026V16.2879V16.2731V16.2583V16.2434V16.2285V16.2135V16.1985V16.1834V16.1683V16.1532V16.138V16.1228V16.1075V16.0922V16.0768V16.0614V16.046V16.0305V16.015V15.9995V15.9839V15.9683V15.9526V15.9369V15.9212V15.9054V15.8896V15.8738V15.8579V15.842V15.8261V15.8101V15.7941V15.778V15.7619V15.7458V15.7297V15.7135V15.6973V15.6811V15.6648V15.6485V15.6322V15.6159V15.5995V15.5831V15.5667V15.5502V15.5337V15.5172V15.5007V15.4841V15.4675V15.4509V15.4343V15.4176V15.4009V15.3842V15.3675V15.3507V15.3339V15.3171V15.3003V15.2835V15.2666V15.2498V15.2329V15.2159V15.199V15.1821V15.1651V15.1481V15.1311V15.1141V15.097V15.08V15.0629V15.0458V15.0287V15.0116V14.9945V14.9774V14.9602V14.943V14.9259V14.9087V14.8915V14.8743V14.8571V14.8398V14.8226V14.8053V14.7881V14.7708V14.7536V14.7363V14.719V14.7017V14.6844V14.6671V14.6498V14.6325V14.6151V14.5978V14.5805V14.5632V14.5458V14.5285V14.5111V14.4938V14.4765V14.4591V14.4418V14.4244V14.4071V14.3897V14.3724V14.3551V14.3377V14.3204V14.3031V14.2857V14.2684V14.2511V14.2338V14.2164V14.1991V14.1818V14.1645V14.1472V14.13V14.1127V14.0954V14.0782V14.0609V14.0437V14.0264V14.0092V13.992V13.9748V13.9576V13.9404V13.9232V13.9061V13.8889V13.8718V13.8547V13.8376V13.8205V13.8034V13.7864V13.7693V13.7523V13.7353V13.7183V13.7013V13.6843V13.6674V13.6505V13.6336V13.6167V13.5998V13.583V13.5661V13.5493V13.5325V13.5158V13.499V13.4823V13.4656V13.4489V13.4323V13.4157V13.3991V13.3825V13.3659V13.3494V13.3329V13.3164V13.3V13.2836V13.2672V13.2508V13.2345V13.2182V13.2019V13.1856V13.1694V13.1532V13.1371V13.1209V13.1049V13.0888V13.0728V13.0568V13.0408V13.0249V13.009V12.9931V12.9773V12.9615V12.9458V12.9301V12.9144V12.8987V12.8831V12.8676V12.852V12.8365V12.8211V12.8057V12.7903V12.775V12.7597V12.7444V12.7292V12.7141V12.6989V12.6839V12.6688V12.6538V12.6389V12.624V12.6091V12.5943V12.5795V12.5648V12.5501V12.5355V12.5209V12.5064V12.4919V12.4775V12.4631V12.4487V12.4344V12.4202V12.406V12.3919V12.3778V12.3638V12.3498V12.3359V12.322V12.3082V12.2944V12.2807V12.267V12.2534V12.2399V12.2264V12.2129V12.1995V12.1862V12.173V12.1597V12.1466V12.1335V12.1205V12.1075V12.0946V12.0817V12.0689V12.0562V12.0435V12.0309V12.0184V12.0059V11.9935V11.9811V11.9689V11.9566V11.9445V11.9324V11.9203V11.9084V11.8965V11.8847V11.8729V11.8612V11.8496V11.838V11.8265V11.8151V11.8038V11.7925V11.7813V11.7701V11.7591V11.7481V11.7372V11.7263V11.7155V11.7048V11.6942V11.6836V11.6732V11.6628V11.6524V11.6422V11.632V11.6219V11.6119V11.6019V11.5921V11.5823V11.5726V11.5629V11.5534V11.5439V11.5345V11.5252V11.516V11.5068V11.4978V11.4888V11.4799V11.4711V11.4623V11.4537V11.4451V11.4366V11.4282V11.4199V11.4117V11.4036V11.3955V11.3876V11.3797V11.3719V11.3642V11.3566V11.3491V11.3417C35.3882 10.7863 35.6454 8.79278 36.7437 6.95482C37.8234 5.14796 39.7048 3.5 43.0082 3.5C46.3112 3.5 48.1927 5.15047 49.2726 6.96036C50.3711 8.80132 50.6282 10.7979 50.6282 11.3533V11.3608V11.3683V11.3759V11.3836V11.3914V11.3992V11.4072V11.4152V11.4234V11.4316V11.4399V11.4483V11.4568V11.4654V11.474V11.4827V11.4915V11.5004V11.5094V11.5185V11.5276V11.5369V11.5462V11.5556V11.565V11.5746V11.5842V11.5939V11.6037V11.6136V11.6235V11.6336V11.6437V11.6538V11.6641V11.6744V11.6848V11.6953V11.7059V11.7165V11.7272V11.738V11.7488V11.7597V11.7707V11.7818V11.7929V11.8041V11.8154V11.8268V11.8382V11.8497V11.8612V11.8729V11.8846V11.8963V11.9082V11.92V11.932V11.944V11.9561V11.9683V11.9805V11.9928V12.0052V12.0176V12.0301V12.0426V12.0552V12.0679V12.0806V12.0934V12.1063V12.1192V12.1321V12.1452V12.1583V12.1714V12.1846V12.1979V12.2112V12.2246V12.238V12.2515V12.2651V12.2787V12.2923V12.306V12.3198V12.3336V12.3475V12.3614V12.3754V12.3895V12.4036V12.4177V12.4319V12.4461V12.4604V12.4747V12.4891V12.5036V12.5181V12.5326V12.5472V12.5618V12.5765V12.5912V12.606V12.6208V12.6356V12.6505V12.6655V12.6805V12.6955V12.7106V12.7257V12.7409V12.7561V12.7714V12.7866V12.802V12.8173V12.8328V12.8482V12.8637V12.8792V12.8948V12.9104V12.926V12.9417V12.9574V12.9732V12.989V13.0048V13.0207V13.0366V13.0525V13.0684V13.0844V13.1005V13.1165V13.1326V13.1487V13.1649V13.1811V13.1973V13.2135V13.2298V13.2461V13.2625V13.2788V13.2952V13.3116V13.3281V13.3446V13.3611V13.3776V13.3941V13.4107V13.4273V13.444V13.4606V13.4773V13.494V13.5107V13.5274V13.5442V13.561V13.5778V13.5946V13.6115V13.6283V13.6452V13.6621V13.6791V13.696V13.713V13.7299V13.7469V13.764V13.781V13.798V13.8151V13.8322V13.8493V13.8664V13.8835V13.9006V13.9178V13.9349V13.9521V13.9693V13.9865V14.0037V14.0209V14.0381V14.0553V14.0726V14.0898V14.1071V14.1244V14.1416V14.1589V14.1762V14.1935V14.2108V14.2281V14.2454V14.2627V14.2801V14.2974V14.3147V14.3321V14.3494V14.3667V14.3841V14.4014V14.4188V14.4361V14.4534V14.4708V14.4881V14.5055V14.5228V14.5402V14.5575V14.5748V14.5922V14.6095V14.6268V14.6441V14.6614V14.6788V14.6961V14.7134V14.7307V14.7479V14.7652V14.7825V14.7998V14.817V14.8343V14.8515V14.8687V14.8859V14.9032V14.9204V14.9375V14.9547V14.9719V14.989V15.0062V15.0233V15.0404V15.0575V15.0746V15.0916V15.1087V15.1257V15.1428V15.1598V15.1768V15.1937V15.2107V15.2276V15.2445V15.2614V15.2783V15.2952V15.312V15.3288V15.3456V15.3624V15.3791V15.3959V15.4126V15.4293V15.4459V15.4626V15.4792V15.4958V15.5123V15.5289V15.5454V15.5619V15.5783V15.5948V15.6112V15.6275V15.6439V15.6602V15.6765V15.6928V15.709V15.7252V15.7414V15.7575V15.7736V15.7897V15.8057V15.8217V15.8377V15.8537V15.8696V15.8854V15.9013V15.9171V15.9329V15.9486V15.9643V15.98V15.9956V16.0112V16.0267V16.0422V16.0577V16.0731V16.0885V16.1039V16.1192V16.1344V16.1497V16.1648V16.18V16.1951V16.2101V16.2252V16.2401V16.2551V16.2699V16.2848V16.2996V16.3143V16.329V16.3437V16.3583V16.3728V16.3873V16.4018V16.4162V16.4306V16.4449V16.4591V16.4733V16.4875V16.5016V16.5157V16.5297V16.5436V16.5575V16.5714V16.5852V16.5989V16.6126V16.6262V16.6398V16.6533V16.6668V16.6802V16.6936V16.7068V16.7201V16.7333V16.7464V16.7594V16.7724V16.7854V16.7983V16.8111V16.8238V16.8365V16.8492V16.8617V16.8743V16.8867V16.8991V16.9114V16.9237V16.9358V16.948V16.96V16.972V16.984V16.9958V17.0076V17.0193V17.031V17.0426V17.0541V17.0656V17.0769V17.0883V17.0995V17.1107V17.1218V17.1328V17.1438V17.1546V17.1654V17.1762V17.1868V17.1974V17.208V17.2184V17.2288V17.239V17.2493V17.2594V17.2695V17.2794V17.2893V17.2992V17.3089V17.3186V17.3282V17.3377V17.3471V17.3565V17.3657V17.3749V17.384V17.393V17.402V17.4108V17.4196V17.4283V17.4369V17.4454V17.4538V17.4622V17.4705V17.4786V17.4867V17.4947V17.5026V17.5105V17.5182V17.5258V17.5334V17.5409V17.5483V17.5555V17.5627V17.5699V17.5769V17.5838V17.5906V17.5974V17.604V17.6106V17.617V17.6234V17.6296V17.6358V17.6419V17.6479V17.6538V17.6595V17.6652V17.6708V17.6763V17.6817V17.687V17.6922V17.6973V17.7023V17.7072V17.712V17.7167V17.7213V17.7258V17.7301V17.7344V17.7386V17.7427V17.7466V17.7505V17.7543V17.7579V17.7615V17.7649V17.7682V17.7715V17.7746V17.7776V17.7805V17.7833V17.786V17.7886V17.791V17.7934V17.7956V17.7978V17.7998V17.8017V17.8035V17.805V17.8052V17.8068V17.8082V17.8096V17.8108V17.8119V17.8129V17.8138V17.8145V17.8152V17.8157V17.8161V17.8164V17.8166V17.8167Z" stroke="#C4C4C5" stroke-linejoin="round"/>
<mask id="path-2-inside-1_2896_55202" fill="white">
<path d="M47.0913 22.25C47.0913 24.5017 45.2596 26.3333 43.008 26.3333C40.7563 26.3333 38.9246 24.5017 38.9246 22.25"/>
</mask>
<path d="M46.0913 22.25C46.0913 23.9494 44.7073 25.3333 43.008 25.3333V27.3333C45.8119 27.3333 48.0913 25.054 48.0913 22.25H46.0913ZM43.008 25.3333C41.3086 25.3333 39.9246 23.9494 39.9246 22.25H37.9246C37.9246 25.054 40.204 27.3333 43.008 27.3333V25.3333Z" fill="#C4C4C5" mask="url(#path-2-inside-1_2896_55202)"/>
<ellipse cx="4.66667" cy="4.66667" rx="4.66667" ry="4.66667" transform="matrix(-1 0 0 1 53.3337 0.666504)" fill="#6A51CA"/>
<path d="M27.1747 31.1705H32.4427V32.1065H28.1827V34.9145H32.1427V35.8505H28.1827V39.6665H27.1747V31.1705ZM38.8107 38.6465C38.4747 39.0785 38.1067 39.3825 37.7067 39.5585C37.3067 39.7265 36.8427 39.8105 36.3147 39.8105C35.8747 39.8105 35.4787 39.7345 35.1267 39.5825C34.7747 39.4225 34.4747 39.2105 34.2267 38.9465C33.9867 38.6825 33.7987 38.3705 33.6627 38.0105C33.5347 37.6505 33.4707 37.2665 33.4707 36.8585C33.4707 36.4265 33.5427 36.0305 33.6867 35.6705C33.8307 35.3025 34.0307 34.9905 34.2867 34.7345C34.5427 34.4705 34.8467 34.2665 35.1987 34.1225C35.5507 33.9785 35.9347 33.9065 36.3507 33.9065C36.7427 33.9065 37.1027 33.9745 37.4307 34.1105C37.7587 34.2385 38.0387 34.4305 38.2707 34.6865C38.5107 34.9345 38.6947 35.2425 38.8227 35.6105C38.9507 35.9705 39.0147 36.3825 39.0147 36.8465V37.1465H34.4787C34.4947 37.3865 34.5507 37.6185 34.6467 37.8425C34.7507 38.0585 34.8827 38.2505 35.0427 38.4185C35.2027 38.5785 35.3907 38.7065 35.6067 38.8025C35.8227 38.8985 36.0587 38.9465 36.3147 38.9465C36.7227 38.9465 37.0667 38.8745 37.3467 38.7305C37.6267 38.5865 37.8787 38.3745 38.1027 38.0945L38.8107 38.6465ZM38.0067 36.3545C37.9907 35.8745 37.8347 35.4905 37.5387 35.2025C37.2427 34.9145 36.8347 34.7705 36.3147 34.7705C35.7947 34.7705 35.3747 34.9145 35.0547 35.2025C34.7347 35.4905 34.5427 35.8745 34.4787 36.3545H38.0067ZM45.5987 38.6465C45.2627 39.0785 44.8947 39.3825 44.4947 39.5585C44.0947 39.7265 43.6307 39.8105 43.1027 39.8105C42.6627 39.8105 42.2667 39.7345 41.9147 39.5825C41.5627 39.4225 41.2627 39.2105 41.0147 38.9465C40.7747 38.6825 40.5867 38.3705 40.4507 38.0105C40.3227 37.6505 40.2587 37.2665 40.2587 36.8585C40.2587 36.4265 40.3307 36.0305 40.4747 35.6705C40.6187 35.3025 40.8187 34.9905 41.0747 34.7345C41.3307 34.4705 41.6347 34.2665 41.9867 34.1225C42.3387 33.9785 42.7227 33.9065 43.1387 33.9065C43.5307 33.9065 43.8907 33.9745 44.2187 34.1105C44.5467 34.2385 44.8267 34.4305 45.0587 34.6865C45.2987 34.9345 45.4827 35.2425 45.6107 35.6105C45.7387 35.9705 45.8027 36.3825 45.8027 36.8465V37.1465H41.2667C41.2827 37.3865 41.3387 37.6185 41.4347 37.8425C41.5387 38.0585 41.6707 38.2505 41.8307 38.4185C41.9907 38.5785 42.1787 38.7065 42.3947 38.8025C42.6107 38.8985 42.8467 38.9465 43.1027 38.9465C43.5107 38.9465 43.8547 38.8745 44.1347 38.7305C44.4147 38.5865 44.6667 38.3745 44.8907 38.0945L45.5987 38.6465ZM44.7947 36.3545C44.7787 35.8745 44.6227 35.4905 44.3267 35.2025C44.0307 34.9145 43.6227 34.7705 43.1027 34.7705C42.5827 34.7705 42.1627 34.9145 41.8427 35.2025C41.5227 35.4905 41.3307 35.8745 41.2667 36.3545H44.7947ZM52.0386 38.6705H52.0146C51.8386 38.9905 51.5586 39.2625 51.1746 39.4865C50.7986 39.7025 50.3586 39.8105 49.8546 39.8105C49.4626 39.8105 49.0946 39.7385 48.7506 39.5945C48.4066 39.4425 48.1066 39.2345 47.8506 38.9705C47.6026 38.7065 47.4066 38.3945 47.2626 38.0345C47.1186 37.6745 47.0466 37.2825 47.0466 36.8585C47.0466 36.4345 47.1186 36.0425 47.2626 35.6825C47.4066 35.3225 47.6066 35.0105 47.8626 34.7465C48.1186 34.4825 48.4266 34.2785 48.7866 34.1345C49.1546 33.9825 49.5586 33.9065 49.9986 33.9065C50.4066 33.9065 50.7786 33.9905 51.1146 34.1585C51.4586 34.3265 51.7586 34.5625 52.0146 34.8665H52.0386V30.5945H52.9746V39.6665H52.0386V38.6705ZM52.0386 36.8585C52.0386 36.5625 51.9906 36.2905 51.8946 36.0425C51.8066 35.7865 51.6746 35.5665 51.4986 35.3825C51.3226 35.1905 51.1106 35.0425 50.8626 34.9385C50.6226 34.8265 50.3506 34.7705 50.0466 34.7705C49.7426 34.7705 49.4666 34.8265 49.2186 34.9385C48.9786 35.0425 48.7706 35.1905 48.5946 35.3825C48.4186 35.5665 48.2826 35.7865 48.1866 36.0425C48.0986 36.2905 48.0546 36.5625 48.0546 36.8585C48.0546 37.1545 48.0986 37.4305 48.1866 37.6865C48.2826 37.9345 48.4186 38.1545 48.5946 38.3465C48.7706 38.5305 48.9786 38.6785 49.2186 38.7905C49.4666 38.8945 49.7426 38.9465 50.0466 38.9465C50.3506 38.9465 50.6226 38.8945 50.8626 38.7905C51.1106 38.6785 51.3226 38.5305 51.4986 38.3465C51.6746 38.1545 51.8066 37.9345 51.8946 37.6865C51.9906 37.4305 52.0386 37.1545 52.0386 36.8585ZM54.9466 38.1905C55.1306 38.4225 55.3306 38.6065 55.5466 38.7425C55.7706 38.8785 56.0506 38.9465 56.3866 38.9465C56.5306 38.9465 56.6746 38.9305 56.8186 38.8985C56.9706 38.8665 57.1066 38.8145 57.2266 38.7425C57.3466 38.6705 57.4426 38.5825 57.5146 38.4785C57.5866 38.3665 57.6226 38.2345 57.6226 38.0825C57.6226 37.9305 57.5866 37.8065 57.5146 37.7105C57.4506 37.6145 57.3626 37.5345 57.2506 37.4705C57.1386 37.3985 57.0106 37.3425 56.8666 37.3025C56.7226 37.2625 56.5746 37.2265 56.4226 37.1945C56.1586 37.1385 55.9066 37.0745 55.6666 37.0025C55.4266 36.9305 55.2146 36.8385 55.0306 36.7265C54.8546 36.6065 54.7106 36.4545 54.5986 36.2705C54.4946 36.0865 54.4426 35.8505 54.4426 35.5625C54.4426 35.2905 54.5026 35.0505 54.6226 34.8425C54.7426 34.6345 54.9026 34.4625 55.1026 34.3265C55.3026 34.1905 55.5266 34.0865 55.7746 34.0145C56.0226 33.9425 56.2786 33.9065 56.5426 33.9065C56.9426 33.9065 57.3106 33.9865 57.6466 34.1465C57.9906 34.3065 58.2586 34.5665 58.4506 34.9265L57.6706 35.4425C57.5506 35.2425 57.3906 35.0825 57.1906 34.9625C56.9986 34.8345 56.7626 34.7705 56.4826 34.7705C56.3546 34.7705 56.2226 34.7865 56.0866 34.8185C55.9586 34.8505 55.8426 34.8985 55.7386 34.9625C55.6346 35.0265 55.5466 35.1105 55.4746 35.2145C55.4106 35.3105 55.3786 35.4225 55.3786 35.5505C55.3786 35.6705 55.4146 35.7745 55.4866 35.8625C55.5666 35.9425 55.6706 36.0145 55.7986 36.0785C55.9346 36.1425 56.0866 36.1985 56.2546 36.2465C56.4306 36.2945 56.6106 36.3345 56.7946 36.3665C57.0426 36.4145 57.2786 36.4785 57.5026 36.5585C57.7266 36.6305 57.9226 36.7305 58.0906 36.8585C58.2586 36.9865 58.3906 37.1465 58.4866 37.3385C58.5826 37.5305 58.6306 37.7665 58.6306 38.0465C58.6306 38.3665 58.5666 38.6385 58.4386 38.8625C58.3106 39.0865 58.1386 39.2705 57.9226 39.4145C57.7146 39.5505 57.4746 39.6505 57.2026 39.7145C56.9386 39.7785 56.6666 39.8105 56.3866 39.8105C55.9066 39.8105 55.4906 39.7385 55.1386 39.5945C54.7946 39.4425 54.4826 39.1665 54.2026 38.7665L54.9466 38.1905Z" fill="#C4C4C5"/>
</svg>
