<svg width="28" height="28" viewBox="0 0 28 28" fill="none" xmlns="http://www.w3.org/2000/svg">
<path d="M21.6282 17.1497C21.6282 17.3048 21.6989 17.4434 21.8097 17.5351L23.8357 19.912C24.2219 20.366 23.8992 21.0713 23.2949 21.0713H4.70989C4.1058 21.0713 3.7831 20.3665 4.16863 19.9125C4.16877 19.9123 4.16891 19.9122 4.16906 19.912L6.26786 17.4634C6.34553 17.3728 6.38823 17.2574 6.38823 17.138H5.88823L6.38823 17.1379V17.1378V17.1375V17.1371V17.1365V17.1359V17.1351V17.1342V17.1332V17.1321V17.1309V17.1295V17.1281V17.1265V17.1248V17.123V17.1211V17.1191V17.117V17.1147V17.1124V17.1099V17.1073V17.1046V17.1019V17.099V17.0959V17.0928V17.0896V17.0863V17.0828V17.0793V17.0756V17.0718V17.068V17.064V17.0599V17.0558V17.0515V17.0471V17.0426V17.038V17.0333V17.0285V17.0236V17.0186V17.0135V17.0083V17.0031V16.9977V16.9922V16.9866V16.9809V16.9751V16.9692V16.9632V16.9572V16.951V16.9447V16.9384V16.9319V16.9253V16.9187V16.912V16.9051V16.8982V16.8912V16.8841V16.8769V16.8696V16.8622V16.8547V16.8472V16.8395V16.8318V16.824V16.8161V16.8081V16.8V16.7918V16.7835V16.7752V16.7668V16.7582V16.7496V16.7409V16.7322V16.7233V16.7144V16.7054V16.6962V16.6871V16.6778V16.6684V16.659V16.6495V16.6399V16.6303V16.6205V16.6107V16.6008V16.5908V16.5807V16.5706V16.5604V16.5501V16.5397V16.5293V16.5188V16.5082V16.4975V16.4868V16.476V16.4651V16.4541V16.4431V16.432V16.4208V16.4096V16.3983V16.3869V16.3755V16.3639V16.3523V16.3407V16.329V16.3172V16.3053V16.2934V16.2814V16.2693V16.2572V16.245V16.2327V16.2204V16.208V16.1956V16.1831V16.1705V16.1579V16.1452V16.1324V16.1196V16.1067V16.0938V16.0808V16.0677V16.0546V16.0414V16.0282V16.0149V16.0015V15.9881V15.9747V15.9612V15.9476V15.9339V15.9203V15.9065V15.8927V15.8789V15.865V15.851V15.837V15.823V15.8088V15.7947V15.7805V15.7662V15.7519V15.7375V15.7231V15.7087V15.6942V15.6796V15.665V15.6503V15.6356V15.6209V15.6061V15.5913V15.5764V15.5615V15.5465V15.5315V15.5164V15.5013V15.4862V15.471V15.4558V15.4405V15.4252V15.4098V15.3945V15.379V15.3636V15.348V15.3325V15.3169V15.3013V15.2856V15.2699V15.2542V15.2384V15.2226V15.2068V15.1909V15.175V15.1591V15.1431V15.1271V15.111V15.095V15.0788V15.0627V15.0465V15.0303V15.0141V14.9978V14.9816V14.9652V14.9489V14.9325V14.9161V14.8997V14.8832V14.8667V14.8502V14.8337V14.8171V14.8005V14.7839V14.7673V14.7506V14.7339V14.7172V14.7005V14.6837V14.6669V14.6502V14.6333V14.6165V14.5996V14.5828V14.5659V14.549V14.532V14.5151V14.4981V14.4811V14.4641V14.4471V14.43V14.413V14.3959V14.3788V14.3617V14.3446V14.3275V14.3104V14.2932V14.2761V14.2589V14.2417V14.2245V14.2073V14.1901V14.1728V14.1556V14.1384V14.1211V14.1038V14.0866V14.0693V14.052V14.0347V14.0174V14.0001V13.9828V13.9655V13.9482V13.9308V13.9135V13.8962V13.8788V13.8615V13.8442V13.8268V13.8095V13.7921V13.7748V13.7574V13.7401V13.7228V13.7054V13.6881V13.6707V13.6534V13.6361V13.6187V13.6014V13.5841V13.5668V13.5495V13.5321V13.5148V13.4975V13.4803V13.463V13.4457V13.4284V13.4112V13.3939V13.3767V13.3594V13.3422V13.325V13.3078V13.2906V13.2734V13.2563V13.2391V13.222V13.2048V13.1877V13.1706V13.1535V13.1364V13.1194V13.1023V13.0853V13.0683V13.0513V13.0343V13.0173V13.0004V12.9835V12.9666V12.9497V12.9328V12.916V12.8991V12.8823V12.8655V12.8488V12.832V12.8153V12.7986V12.7819V12.7653V12.7487V12.7321V12.7155V12.6989V12.6824V12.6659V12.6494V12.633V12.6166V12.6002V12.5838V12.5675V12.5512V12.5349V12.5186V12.5024V12.4862V12.4701V12.454V12.4379V12.4218V12.4058V12.3898V12.3738V12.3579V12.342V12.3261V12.3103V12.2945V12.2788V12.2631V12.2474V12.2317V12.2161V12.2006V12.185V12.1695V12.1541V12.1387V12.1233V12.108V12.0927V12.0774V12.0622V12.0471V12.0319V12.0169V12.0018V11.9868V11.9719V11.957V11.9421V11.9273V11.9125V11.8978V11.8831V11.8685V11.8539V11.8394V11.8249V11.8105V11.7961V11.7817V11.7675V11.7532V11.739V11.7249V11.7108V11.6968V11.6828V11.6689V11.655V11.6412V11.6274V11.6137V11.6V11.5864V11.5729V11.5594V11.5459V11.5325V11.5192V11.506V11.4928V11.4796V11.4665V11.4535V11.4405V11.4276V11.4147V11.402V11.3892V11.3766V11.3639V11.3514V11.3389V11.3265V11.3142V11.3019V11.2896V11.2775V11.2654V11.2534V11.2414V11.2295V11.2177V11.2059V11.1942V11.1826V11.171V11.1595V11.1481V11.1368V11.1255V11.1143V11.1031V11.0921V11.0811V11.0702V11.0593V11.0485V11.0378V11.0272V11.0166V11.0062V10.9958V10.9854V10.9752V10.965V10.9549V10.9449V10.9349V10.9251V10.9153V10.9056V10.8959V10.8864V10.8769V10.8675V10.8582V10.849V10.8398V10.8308V10.8218V10.8129V10.8041V10.7953V10.7867V10.7781V10.7696V10.7613V10.7529V10.7447V10.7366V10.7285V10.7206V10.7127V10.7049V10.6972V10.6896V10.6821V10.6747C6.38823 10.1193 6.64535 8.12578 7.74368 6.28782C8.82342 4.48097 10.7048 2.83301 14.0082 2.83301C17.3112 2.83301 19.1927 4.48347 20.2726 6.29337C21.3711 8.13432 21.6282 10.1309 21.6282 10.6863V10.6938V10.7013V10.7089V10.7166V10.7244V10.7322V10.7402V10.7483V10.7564V10.7646V10.7729V10.7813V10.7898V10.7984V10.807V10.8157V10.8246V10.8335V10.8424V10.8515V10.8607V10.8699V10.8792V10.8886V10.8981V10.9076V10.9172V10.9269V10.9367V10.9466V10.9565V10.9666V10.9767V10.9868V10.9971V11.0074V11.0178V11.0283V11.0389V11.0495V11.0602V11.071V11.0818V11.0927V11.1037V11.1148V11.1259V11.1372V11.1484V11.1598V11.1712V11.1827V11.1942V11.2059V11.2176V11.2293V11.2412V11.2531V11.265V11.277V11.2891V11.3013V11.3135V11.3258V11.3382V11.3506V11.3631V11.3756V11.3882V11.4009V11.4136V11.4264V11.4393V11.4522V11.4651V11.4782V11.4913V11.5044V11.5176V11.5309V11.5442V11.5576V11.571V11.5845V11.5981V11.6117V11.6253V11.6391V11.6528V11.6666V11.6805V11.6945V11.7084V11.7225V11.7366V11.7507V11.7649V11.7791V11.7934V11.8078V11.8221V11.8366V11.8511V11.8656V11.8802V11.8948V11.9095V11.9242V11.939V11.9538V11.9687V11.9836V11.9985V12.0135V12.0285V12.0436V12.0587V12.0739V12.0891V12.1044V12.1196V12.135V12.1504V12.1658V12.1812V12.1967V12.2122V12.2278V12.2434V12.259V12.2747V12.2904V12.3062V12.322V12.3378V12.3537V12.3696V12.3855V12.4014V12.4174V12.4335V12.4495V12.4656V12.4817V12.4979V12.5141V12.5303V12.5466V12.5628V12.5791V12.5955V12.6118V12.6282V12.6447V12.6611V12.6776V12.6941V12.7106V12.7272V12.7437V12.7603V12.777V12.7936V12.8103V12.827V12.8437V12.8604V12.8772V12.894V12.9108V12.9276V12.9445V12.9613V12.9782V12.9951V13.0121V13.029V13.046V13.063V13.08V13.097V13.114V13.131V13.1481V13.1652V13.1823V13.1994V13.2165V13.2336V13.2508V13.2679V13.2851V13.3023V13.3195V13.3367V13.3539V13.3711V13.3883V13.4056V13.4228V13.4401V13.4574V13.4746V13.4919V13.5092V13.5265V13.5438V13.5611V13.5784V13.5958V13.6131V13.6304V13.6477V13.6651V13.6824V13.6997V13.7171V13.7344V13.7518V13.7691V13.7865V13.8038V13.8211V13.8385V13.8558V13.8732V13.8905V13.9078V13.9252V13.9425V13.9598V13.9771V13.9945V14.0118V14.0291V14.0464V14.0637V14.081V14.0982V14.1155V14.1328V14.15V14.1673V14.1845V14.2017V14.219V14.2362V14.2534V14.2705V14.2877V14.3049V14.322V14.3392V14.3563V14.3734V14.3905V14.4076V14.4247V14.4417V14.4587V14.4758V14.4928V14.5098V14.5267V14.5437V14.5606V14.5775V14.5944V14.6113V14.6282V14.645V14.6618V14.6786V14.6954V14.7121V14.7289V14.7456V14.7623V14.7789V14.7956V14.8122V14.8288V14.8453V14.8619V14.8784V14.8949V14.9113V14.9278V14.9442V14.9605V14.9769V14.9932V15.0095V15.0258V15.042V15.0582V15.0744V15.0905V15.1066V15.1227V15.1387V15.1548V15.1707V15.1867V15.2026V15.2185V15.2343V15.2501V15.2659V15.2816V15.2973V15.313V15.3286V15.3442V15.3597V15.3752V15.3907V15.4061V15.4215V15.4369V15.4522V15.4674V15.4827V15.4979V15.513V15.5281V15.5431V15.5582V15.5731V15.5881V15.6029V15.6178V15.6326V15.6473V15.662V15.6767V15.6913V15.7058V15.7203V15.7348V15.7492V15.7636V15.7779V15.7921V15.8064V15.8205V15.8346V15.8487V15.8627V15.8766V15.8905V15.9044V15.9182V15.9319V15.9456V15.9592V15.9728V15.9863V15.9998V16.0132V16.0266V16.0399V16.0531V16.0663V16.0794V16.0924V16.1054V16.1184V16.1313V16.1441V16.1568V16.1695V16.1822V16.1947V16.2073V16.2197V16.2321V16.2444V16.2567V16.2689V16.281V16.293V16.305V16.317V16.3288V16.3406V16.3523V16.364V16.3756V16.3871V16.3986V16.41V16.4213V16.4325V16.4437V16.4548V16.4658V16.4768V16.4876V16.4985V16.5092V16.5199V16.5304V16.541V16.5514V16.5618V16.5721V16.5823V16.5924V16.6025V16.6124V16.6223V16.6322V16.6419V16.6516V16.6612V16.6707V16.6801V16.6895V16.6987V16.7079V16.717V16.726V16.735V16.7438V16.7526V16.7613V16.7699V16.7784V16.7869V16.7952V16.8035V16.8116V16.8197V16.8277V16.8356V16.8435V16.8512V16.8589V16.8664V16.8739V16.8813V16.8886V16.8958V16.9029V16.9099V16.9168V16.9236V16.9304V16.937V16.9436V16.95V16.9564V16.9627V16.9688V16.9749V16.9809V16.9868V16.9926V16.9982V17.0038V17.0093V17.0147V17.02V17.0252V17.0303V17.0353V17.0402V17.045V17.0497V17.0543V17.0588V17.0631V17.0674V17.0716V17.0757V17.0796V17.0835V17.0873V17.0909V17.0945V17.0979V17.1013V17.1045V17.1076V17.1106V17.1135V17.1163V17.119V17.1216V17.124V17.1264V17.1286V17.1308V17.1328V17.1347V17.1365V17.138V17.1382V17.1398V17.1412V17.1426V17.1438V17.1449V17.1459V17.1468V17.1475V17.1482V17.1487V17.1491V17.1494V17.1496V17.1497Z" stroke="#C4C4C5" stroke-linejoin="round"/>
<mask id="path-2-inside-1_1147_18284" fill="white">
<path d="M18.0912 21.583C18.0912 23.8347 16.2596 25.6663 14.0079 25.6663C11.7562 25.6663 9.92456 23.8347 9.92456 21.583"/>
</mask>
<path d="M17.0912 21.583C17.0912 23.2824 15.7073 24.6663 14.0079 24.6663V26.6663C16.8118 26.6663 19.0912 24.387 19.0912 21.583H17.0912ZM14.0079 24.6663C12.3085 24.6663 10.9246 23.2824 10.9246 21.583H8.92456C8.92456 24.387 11.2039 26.6663 14.0079 26.6663V24.6663Z" fill="#C4C4C5" mask="url(#path-2-inside-1_1147_18284)"/>
</svg>
