<svg width="86" height="53" viewBox="0 0 86 53" fill="none" xmlns="http://www.w3.org/2000/svg">
<rect x="24.3334" width="37.3333" height="2.33333" rx="1.16667" fill="#6A51CA"/>
<mask id="path-2-inside-1_2896_57215" fill="white">
<path d="M47.0913 28.25C47.0913 30.5017 45.2596 32.3333 43.008 32.3333C40.7563 32.3333 38.9246 30.5017 38.9246 28.25"/>
</mask>
<path d="M46.0913 28.25C46.0913 29.9494 44.7073 31.3333 43.008 31.3333V33.3333C45.8119 33.3333 48.0913 31.054 48.0913 28.25H46.0913ZM43.008 31.3333C41.3086 31.3333 39.9246 29.9494 39.9246 28.25H37.9246C37.9246 31.054 40.204 33.3333 43.008 33.3333V31.3333Z" fill="#6A51CA" mask="url(#path-2-inside-1_2896_57215)"/>
<path d="M51.12 23.8162H50.62V24.3162H50.9008L52.8392 26.5902C52.8392 26.5903 52.8392 26.5903 52.8392 26.5903C53.2253 27.0443 52.9026 27.7496 52.2983 27.7496H33.7133C33.109 27.7496 32.7863 27.0442 33.1725 26.5902L33.1729 26.5897L35.2613 24.128L35.38 23.9881V23.8046H34.88L35.38 23.8045V23.8043V23.804V23.8036V23.8031V23.8024V23.8017V23.8008V23.7998V23.7987V23.7975V23.7961V23.7947V23.7931V23.7914V23.7896V23.7877V23.7857V23.7835V23.7813V23.7789V23.7765V23.7739V23.7712V23.7684V23.7655V23.7625V23.7594V23.7562V23.7528V23.7494V23.7458V23.7422V23.7384V23.7346V23.7306V23.7265V23.7223V23.718V23.7137V23.7092V23.7046V23.6999V23.6951V23.6902V23.6852V23.6801V23.6749V23.6696V23.6642V23.6587V23.6531V23.6475V23.6417V23.6358V23.6298V23.6237V23.6176V23.6113V23.6049V23.5985V23.5919V23.5853V23.5785V23.5717V23.5648V23.5578V23.5507V23.5435V23.5362V23.5288V23.5213V23.5138V23.5061V23.4984V23.4905V23.4826V23.4746V23.4665V23.4584V23.4501V23.4418V23.4333V23.4248V23.4162V23.4075V23.3987V23.3899V23.3809V23.3719V23.3628V23.3536V23.3444V23.335V23.3256V23.3161V23.3065V23.2968V23.2871V23.2773V23.2673V23.2574V23.2473V23.2372V23.227V23.2167V23.2063V23.1959V23.1853V23.1748V23.1641V23.1534V23.1425V23.1317V23.1207V23.1097V23.0986V23.0874V23.0762V23.0649V23.0535V23.042V23.0305V23.0189V23.0072V22.9955V22.9837V22.9719V22.9599V22.9479V22.9359V22.9238V22.9116V22.8993V22.887V22.8746V22.8622V22.8497V22.8371V22.8244V22.8117V22.799V22.7862V22.7733V22.7604V22.7473V22.7343V22.7212V22.708V22.6948V22.6815V22.6681V22.6547V22.6412V22.6277V22.6141V22.6005V22.5868V22.5731V22.5593V22.5454V22.5315V22.5176V22.5036V22.4895V22.4754V22.4613V22.447V22.4328V22.4185V22.4041V22.3897V22.3752V22.3607V22.3462V22.3316V22.3169V22.3022V22.2875V22.2727V22.2578V22.243V22.228V22.2131V22.1981V22.183V22.1679V22.1528V22.1376V22.1223V22.1071V22.0918V22.0764V22.061V22.0456V22.0301V22.0146V21.9991V21.9835V21.9679V21.9522V21.9365V21.9208V21.905V21.8892V21.8734V21.8575V21.8416V21.8256V21.8097V21.7936V21.7776V21.7615V21.7454V21.7293V21.7131V21.6969V21.6807V21.6644V21.6481V21.6318V21.6155V21.5991V21.5827V21.5662V21.5498V21.5333V21.5168V21.5002V21.4837V21.4671V21.4505V21.4338V21.4172V21.4005V21.3838V21.367V21.3503V21.3335V21.3167V21.2999V21.2831V21.2662V21.2493V21.2324V21.2155V21.1986V21.1816V21.1647V21.1477V21.1307V21.1137V21.0966V21.0796V21.0625V21.0454V21.0283V21.0112V20.9941V20.9769V20.9598V20.9426V20.9255V20.9083V20.8911V20.8739V20.8566V20.8394V20.8222V20.8049V20.7877V20.7704V20.7531V20.7359V20.7186V20.7013V20.684V20.6667V20.6494V20.632V20.6147V20.5974V20.5801V20.5627V20.5454V20.5281V20.5107V20.4934V20.476V20.4587V20.4414V20.424V20.4067V20.3893V20.372V20.3546V20.3373V20.32V20.3026V20.2853V20.268V20.2507V20.2333V20.216V20.1987V20.1814V20.1641V20.1468V20.1295V20.1123V20.095V20.0777V20.0605V20.0432V20.026V20.0088V19.9916V19.9744V19.9572V19.94V19.9228V19.9057V19.8885V19.8714V19.8543V19.8372V19.8201V19.803V19.7859V19.7689V19.7519V19.7349V19.7179V19.7009V19.6839V19.667V19.65V19.6331V19.6163V19.5994V19.5825V19.5657V19.5489V19.5321V19.5153V19.4986V19.4819V19.4652V19.4485V19.4319V19.4152V19.3986V19.3821V19.3655V19.349V19.3325V19.316V19.2996V19.2831V19.2667V19.2504V19.234V19.2177V19.2015V19.1852V19.169V19.1528V19.1367V19.1205V19.1044V19.0884V19.0723V19.0564V19.0404V19.0245V19.0086V18.9927V18.9769V18.9611V18.9453V18.9296V18.9139V18.8983V18.8827V18.8671V18.8516V18.8361V18.8207V18.8053V18.7899V18.7746V18.7593V18.744V18.7288V18.7136V18.6985V18.6834V18.6684V18.6534V18.6385V18.6236V18.6087V18.5939V18.5791V18.5644V18.5497V18.5351V18.5205V18.506V18.4915V18.477V18.4627V18.4483V18.434V18.4198V18.4056V18.3915V18.3774V18.3633V18.3494V18.3354V18.3216V18.3077V18.294V18.2802V18.2666V18.253V18.2394V18.2259V18.2125V18.1991V18.1858V18.1725V18.1593V18.1462V18.1331V18.1201V18.1071V18.0942V18.0813V18.0685V18.0558V18.0431V18.0305V18.018V18.0055V17.9931V17.9807V17.9684V17.9562V17.944V17.932V17.9199V17.908V17.8961V17.8842V17.8725V17.8608V17.8492V17.8376V17.8261V17.8147V17.8033V17.7921V17.7808V17.7697V17.7586V17.7477V17.7367V17.7259V17.7151V17.7044V17.6938V17.6832V17.6727V17.6623V17.652V17.6417V17.6316V17.6215V17.6114V17.6015V17.5916V17.5818V17.5721V17.5625V17.553V17.5435V17.5341V17.5248V17.5156V17.5064V17.4973V17.4884V17.4795V17.4706V17.4619V17.4533V17.4447V17.4362V17.4278V17.4195V17.4113V17.4032V17.3951V17.3872V17.3793V17.3715V17.3638V17.3562V17.3487V17.3412C35.38 16.7859 35.6371 14.7924 36.7353 12.956C37.8149 11.1508 39.6959 9.50576 42.9991 9.51124H43C44.0873 9.51124 45.0028 9.69436 45.7912 9.99466C45.309 10.7133 45.02 11.5741 45.02 12.5112C45.02 15.0391 47.0755 17.0946 49.6033 17.0946C49.9475 17.0946 50.2781 17.0494 50.5939 16.9734C50.6122 17.1377 50.62 17.2665 50.62 17.3529V17.3603V17.3679V17.3755V17.3832V17.3909V17.3988V17.4068V17.4148V17.423V17.4312V17.4395V17.4479V17.4564V17.4649V17.4736V17.4823V17.4911V17.5V17.509V17.5181V17.5272V17.5364V17.5458V17.5552V17.5646V17.5742V17.5838V17.5935V17.6033V17.6132V17.6231V17.6331V17.6432V17.6534V17.6637V17.674V17.6844V17.6949V17.7054V17.7161V17.7268V17.7375V17.7484V17.7593V17.7703V17.7814V17.7925V17.8037V17.815V17.8264V17.8378V17.8493V17.8608V17.8724V17.8841V17.8959V17.9077V17.9196V17.9316V17.9436V17.9557V17.9679V17.9801V17.9924V18.0047V18.0172V18.0296V18.0422V18.0548V18.0675V18.0802V18.093V18.1058V18.1187V18.1317V18.1447V18.1578V18.171V18.1842V18.1975V18.2108V18.2242V18.2376V18.2511V18.2646V18.2783V18.2919V18.3056V18.3194V18.3332V18.3471V18.361V18.375V18.389V18.4031V18.4173V18.4315V18.4457V18.46V18.4743V18.4887V18.5031V18.5176V18.5322V18.5468V18.5614V18.5761V18.5908V18.6055V18.6204V18.6352V18.6501V18.6651V18.6801V18.6951V18.7102V18.7253V18.7405V18.7557V18.7709V18.7862V18.8016V18.8169V18.8323V18.8478V18.8633V18.8788V18.8944V18.91V18.9256V18.9413V18.957V18.9728V18.9886V19.0044V19.0202V19.0361V19.0521V19.068V19.084V19.1V19.1161V19.1322V19.1483V19.1645V19.1807V19.1969V19.2131V19.2294V19.2457V19.262V19.2784V19.2948V19.3112V19.3277V19.3441V19.3606V19.3772V19.3937V19.4103V19.4269V19.4435V19.4602V19.4769V19.4936V19.5103V19.527V19.5438V19.5606V19.5774V19.5942V19.6111V19.6279V19.6448V19.6617V19.6786V19.6956V19.7125V19.7295V19.7465V19.7635V19.7806V19.7976V19.8147V19.8317V19.8488V19.8659V19.8831V19.9002V19.9173V19.9345V19.9517V19.9688V19.986V20.0032V20.0205V20.0377V20.0549V20.0722V20.0894V20.1067V20.1239V20.1412V20.1585V20.1758V20.1931V20.2104V20.2277V20.245V20.2623V20.2796V20.297V20.3143V20.3316V20.349V20.3663V20.3836V20.401V20.4183V20.4357V20.453V20.4704V20.4877V20.5051V20.5224V20.5397V20.5571V20.5744V20.5917V20.6091V20.6264V20.6437V20.661V20.6783V20.6956V20.7129V20.7302V20.7475V20.7648V20.7821V20.7993V20.8166V20.8338V20.8511V20.8683V20.8855V20.9027V20.9199V20.9371V20.9543V20.9715V20.9886V21.0057V21.0229V21.04V21.0571V21.0742V21.0912V21.1083V21.1253V21.1423V21.1593V21.1763V21.1933V21.2103V21.2272V21.2441V21.261V21.2779V21.2947V21.3116V21.3284V21.3452V21.362V21.3787V21.3954V21.4122V21.4288V21.4455V21.4621V21.4788V21.4953V21.5119V21.5284V21.545V21.5614V21.5779V21.5943V21.6107V21.6271V21.6435V21.6598V21.6761V21.6923V21.7086V21.7248V21.7409V21.7571V21.7732V21.7893V21.8053V21.8213V21.8373V21.8532V21.8692V21.885V21.9009V21.9167V21.9324V21.9482V21.9639V21.9795V21.9952V22.0107V22.0263V22.0418V22.0573V22.0727V22.0881V22.1034V22.1187V22.134V22.1492V22.1644V22.1796V22.1947V22.2097V22.2247V22.2397V22.2546V22.2695V22.2843V22.2991V22.3139V22.3286V22.3432V22.3578V22.3724V22.3869V22.4014V22.4158V22.4301V22.4444V22.4587V22.4729V22.4871V22.5012V22.5153V22.5293V22.5432V22.5571V22.571V22.5848V22.5985V22.6122V22.6258V22.6394V22.6529V22.6664V22.6798V22.6931V22.7064V22.7197V22.7328V22.746V22.759V22.772V22.785V22.7978V22.8107V22.8234V22.8361V22.8487V22.8613V22.8738V22.8863V22.8987V22.911V22.9232V22.9354V22.9476V22.9596V22.9716V22.9835V22.9954V23.0072V23.0189V23.0306V23.0422V23.0537V23.0651V23.0765V23.0878V23.0991V23.1102V23.1213V23.1324V23.1433V23.1542V23.165V23.1758V23.1864V23.197V23.2075V23.218V23.2283V23.2386V23.2488V23.259V23.269V23.279V23.2889V23.2987V23.3085V23.3182V23.3277V23.3373V23.3467V23.356V23.3653V23.3745V23.3836V23.3926V23.4016V23.4104V23.4192V23.4279V23.4365V23.445V23.4534V23.4618V23.47V23.4782V23.4863V23.4943V23.5022V23.51V23.5178V23.5254V23.533V23.5405V23.5478V23.5551V23.5623V23.5694V23.5764V23.5834V23.5902V23.5969V23.6036V23.6101V23.6166V23.623V23.6292V23.6354V23.6415V23.6475V23.6533V23.6591V23.6648V23.6704V23.6759V23.6813V23.6866V23.6918V23.6969V23.7019V23.7068V23.7116V23.7163V23.7208V23.7253V23.7297V23.734V23.7382V23.7423V23.7462V23.7501V23.7538V23.7575V23.761V23.7645V23.7678V23.7711V23.7742V23.7772V23.7801V23.7829V23.7856V23.7881V23.7906V23.793V23.7952V23.7973V23.7994V23.8013V23.8031V23.8048V23.8063V23.8078V23.8091V23.8104V23.8115V23.8125V23.8133V23.8141V23.8148V23.8153V23.8157V23.816V23.8162L51.12 23.8162ZM46.5816 9.79291C46.4271 9.71748 46.2679 9.6464 46.1037 9.58017L46.261 10.1938C46.3598 10.0538 46.4669 9.91992 46.5816 9.79291Z" fill="#6A51CA" stroke="#6A51CA"/>
<path d="M49.6035 15.4163C51.2143 15.4163 52.5202 14.1105 52.5202 12.4997C52.5202 10.8888 51.2143 9.58301 49.6035 9.58301C47.9927 9.58301 46.6868 10.8888 46.6868 12.4997C46.6868 14.1105 47.9927 15.4163 49.6035 15.4163Z" fill="#6A51CA"/>
<path d="M27.1747 37.1705H32.4427V38.1065H28.1827V40.9145H32.1427V41.8505H28.1827V45.6665H27.1747V37.1705ZM38.8107 44.6465C38.4747 45.0785 38.1067 45.3825 37.7067 45.5585C37.3067 45.7265 36.8427 45.8105 36.3147 45.8105C35.8747 45.8105 35.4787 45.7345 35.1267 45.5825C34.7747 45.4225 34.4747 45.2105 34.2267 44.9465C33.9867 44.6825 33.7987 44.3705 33.6627 44.0105C33.5347 43.6505 33.4707 43.2665 33.4707 42.8585C33.4707 42.4265 33.5427 42.0305 33.6867 41.6705C33.8307 41.3025 34.0307 40.9905 34.2867 40.7345C34.5427 40.4705 34.8467 40.2665 35.1987 40.1225C35.5507 39.9785 35.9347 39.9065 36.3507 39.9065C36.7427 39.9065 37.1027 39.9745 37.4307 40.1105C37.7587 40.2385 38.0387 40.4305 38.2707 40.6865C38.5107 40.9345 38.6947 41.2425 38.8227 41.6105C38.9507 41.9705 39.0147 42.3825 39.0147 42.8465V43.1465H34.4787C34.4947 43.3865 34.5507 43.6185 34.6467 43.8425C34.7507 44.0585 34.8827 44.2505 35.0427 44.4185C35.2027 44.5785 35.3907 44.7065 35.6067 44.8025C35.8227 44.8985 36.0587 44.9465 36.3147 44.9465C36.7227 44.9465 37.0667 44.8745 37.3467 44.7305C37.6267 44.5865 37.8787 44.3745 38.1027 44.0945L38.8107 44.6465ZM38.0067 42.3545C37.9907 41.8745 37.8347 41.4905 37.5387 41.2025C37.2427 40.9145 36.8347 40.7705 36.3147 40.7705C35.7947 40.7705 35.3747 40.9145 35.0547 41.2025C34.7347 41.4905 34.5427 41.8745 34.4787 42.3545H38.0067ZM45.5987 44.6465C45.2627 45.0785 44.8947 45.3825 44.4947 45.5585C44.0947 45.7265 43.6307 45.8105 43.1027 45.8105C42.6627 45.8105 42.2667 45.7345 41.9147 45.5825C41.5627 45.4225 41.2627 45.2105 41.0147 44.9465C40.7747 44.6825 40.5867 44.3705 40.4507 44.0105C40.3227 43.6505 40.2587 43.2665 40.2587 42.8585C40.2587 42.4265 40.3307 42.0305 40.4747 41.6705C40.6187 41.3025 40.8187 40.9905 41.0747 40.7345C41.3307 40.4705 41.6347 40.2665 41.9867 40.1225C42.3387 39.9785 42.7227 39.9065 43.1387 39.9065C43.5307 39.9065 43.8907 39.9745 44.2187 40.1105C44.5467 40.2385 44.8267 40.4305 45.0587 40.6865C45.2987 40.9345 45.4827 41.2425 45.6107 41.6105C45.7387 41.9705 45.8027 42.3825 45.8027 42.8465V43.1465H41.2667C41.2827 43.3865 41.3387 43.6185 41.4347 43.8425C41.5387 44.0585 41.6707 44.2505 41.8307 44.4185C41.9907 44.5785 42.1787 44.7065 42.3947 44.8025C42.6107 44.8985 42.8467 44.9465 43.1027 44.9465C43.5107 44.9465 43.8547 44.8745 44.1347 44.7305C44.4147 44.5865 44.6667 44.3745 44.8907 44.0945L45.5987 44.6465ZM44.7947 42.3545C44.7787 41.8745 44.6227 41.4905 44.3267 41.2025C44.0307 40.9145 43.6227 40.7705 43.1027 40.7705C42.5827 40.7705 42.1627 40.9145 41.8427 41.2025C41.5227 41.4905 41.3307 41.8745 41.2667 42.3545H44.7947ZM52.0386 44.6705H52.0146C51.8386 44.9905 51.5586 45.2625 51.1746 45.4865C50.7986 45.7025 50.3586 45.8105 49.8546 45.8105C49.4626 45.8105 49.0946 45.7385 48.7506 45.5945C48.4066 45.4425 48.1066 45.2345 47.8506 44.9705C47.6026 44.7065 47.4066 44.3945 47.2626 44.0345C47.1186 43.6745 47.0466 43.2825 47.0466 42.8585C47.0466 42.4345 47.1186 42.0425 47.2626 41.6825C47.4066 41.3225 47.6066 41.0105 47.8626 40.7465C48.1186 40.4825 48.4266 40.2785 48.7866 40.1345C49.1546 39.9825 49.5586 39.9065 49.9986 39.9065C50.4066 39.9065 50.7786 39.9905 51.1146 40.1585C51.4586 40.3265 51.7586 40.5625 52.0146 40.8665H52.0386V36.5945H52.9746V45.6665H52.0386V44.6705ZM52.0386 42.8585C52.0386 42.5625 51.9906 42.2905 51.8946 42.0425C51.8066 41.7865 51.6746 41.5665 51.4986 41.3825C51.3226 41.1905 51.1106 41.0425 50.8626 40.9385C50.6226 40.8265 50.3506 40.7705 50.0466 40.7705C49.7426 40.7705 49.4666 40.8265 49.2186 40.9385C48.9786 41.0425 48.7706 41.1905 48.5946 41.3825C48.4186 41.5665 48.2826 41.7865 48.1866 42.0425C48.0986 42.2905 48.0546 42.5625 48.0546 42.8585C48.0546 43.1545 48.0986 43.4305 48.1866 43.6865C48.2826 43.9345 48.4186 44.1545 48.5946 44.3465C48.7706 44.5305 48.9786 44.6785 49.2186 44.7905C49.4666 44.8945 49.7426 44.9465 50.0466 44.9465C50.3506 44.9465 50.6226 44.8945 50.8626 44.7905C51.1106 44.6785 51.3226 44.5305 51.4986 44.3465C51.6746 44.1545 51.8066 43.9345 51.8946 43.6865C51.9906 43.4305 52.0386 43.1545 52.0386 42.8585ZM54.9466 44.1905C55.1306 44.4225 55.3306 44.6065 55.5466 44.7425C55.7706 44.8785 56.0506 44.9465 56.3866 44.9465C56.5306 44.9465 56.6746 44.9305 56.8186 44.8985C56.9706 44.8665 57.1066 44.8145 57.2266 44.7425C57.3466 44.6705 57.4426 44.5825 57.5146 44.4785C57.5866 44.3665 57.6226 44.2345 57.6226 44.0825C57.6226 43.9305 57.5866 43.8065 57.5146 43.7105C57.4506 43.6145 57.3626 43.5345 57.2506 43.4705C57.1386 43.3985 57.0106 43.3425 56.8666 43.3025C56.7226 43.2625 56.5746 43.2265 56.4226 43.1945C56.1586 43.1385 55.9066 43.0745 55.6666 43.0025C55.4266 42.9305 55.2146 42.8385 55.0306 42.7265C54.8546 42.6065 54.7106 42.4545 54.5986 42.2705C54.4946 42.0865 54.4426 41.8505 54.4426 41.5625C54.4426 41.2905 54.5026 41.0505 54.6226 40.8425C54.7426 40.6345 54.9026 40.4625 55.1026 40.3265C55.3026 40.1905 55.5266 40.0865 55.7746 40.0145C56.0226 39.9425 56.2786 39.9065 56.5426 39.9065C56.9426 39.9065 57.3106 39.9865 57.6466 40.1465C57.9906 40.3065 58.2586 40.5665 58.4506 40.9265L57.6706 41.4425C57.5506 41.2425 57.3906 41.0825 57.1906 40.9625C56.9986 40.8345 56.7626 40.7705 56.4826 40.7705C56.3546 40.7705 56.2226 40.7865 56.0866 40.8185C55.9586 40.8505 55.8426 40.8985 55.7386 40.9625C55.6346 41.0265 55.5466 41.1105 55.4746 41.2145C55.4106 41.3105 55.3786 41.4225 55.3786 41.5505C55.3786 41.6705 55.4146 41.7745 55.4866 41.8625C55.5666 41.9425 55.6706 42.0145 55.7986 42.0785C55.9346 42.1425 56.0866 42.1985 56.2546 42.2465C56.4306 42.2945 56.6106 42.3345 56.7946 42.3665C57.0426 42.4145 57.2786 42.4785 57.5026 42.5585C57.7266 42.6305 57.9226 42.7305 58.0906 42.8585C58.2586 42.9865 58.3906 43.1465 58.4866 43.3385C58.5826 43.5305 58.6306 43.7665 58.6306 44.0465C58.6306 44.3665 58.5666 44.6385 58.4386 44.8625C58.3106 45.0865 58.1386 45.2705 57.9226 45.4145C57.7146 45.5505 57.4746 45.6505 57.2026 45.7145C56.9386 45.7785 56.6666 45.8105 56.3866 45.8105C55.9066 45.8105 55.4906 45.7385 55.1386 45.5945C54.7946 45.4425 54.4826 45.1665 54.2026 44.7665L54.9466 44.1905Z" fill="#6A51CA"/>
</svg>
