<svg width="22" height="24" viewBox="0 0 22 24" fill="none" xmlns="http://www.w3.org/2000/svg">
<path d="M18.6282 14.8167C18.6282 14.9718 18.6989 15.1104 18.8097 15.2021L20.8357 17.579C21.2219 18.0329 20.8992 18.7383 20.2949 18.7383H1.70989C1.1058 18.7383 0.783096 18.0335 1.16863 17.5795C1.16877 17.5793 1.16891 17.5792 1.16906 17.579L3.26786 15.1304C3.34553 15.0398 3.38823 14.9244 3.38823 14.805H2.88823L3.38823 14.8049V14.8048V14.8045V14.8041V14.8035V14.8029V14.8021V14.8012V14.8002V14.7991V14.7979V14.7965V14.7951V14.7935V14.7918V14.79V14.7881V14.7861V14.784V14.7817V14.7794V14.7769V14.7743V14.7716V14.7688V14.7659V14.7629V14.7598V14.7566V14.7532V14.7498V14.7463V14.7426V14.7388V14.735V14.731V14.7269V14.7228V14.7185V14.7141V14.7096V14.705V14.7003V14.6955V14.6906V14.6856V14.6805V14.6753V14.67V14.6646V14.6592V14.6536V14.6479V14.6421V14.6362V14.6302V14.6242V14.618V14.6117V14.6053V14.5989V14.5923V14.5857V14.579V14.5721V14.5652V14.5582V14.5511V14.5439V14.5366V14.5292V14.5217V14.5142V14.5065V14.4988V14.491V14.4831V14.4751V14.467V14.4588V14.4505V14.4422V14.4337V14.4252V14.4166V14.4079V14.3992V14.3903V14.3814V14.3723V14.3632V14.3541V14.3448V14.3354V14.326V14.3165V14.3069V14.2972V14.2875V14.2777V14.2678V14.2578V14.2477V14.2376V14.2274V14.2171V14.2067V14.1963V14.1858V14.1752V14.1645V14.1538V14.143V14.1321V14.1211V14.1101V14.099V14.0878V14.0766V14.0653V14.0539V14.0424V14.0309V14.0193V14.0077V13.9959V13.9842V13.9723V13.9604V13.9484V13.9363V13.9242V13.912V13.8997V13.8874V13.875V13.8626V13.8501V13.8375V13.8249V13.8122V13.7994V13.7866V13.7737V13.7608V13.7478V13.7347V13.7216V13.7084V13.6952V13.6819V13.6685V13.6551V13.6417V13.6281V13.6146V13.6009V13.5873V13.5735V13.5597V13.5459V13.532V13.518V13.504V13.49V13.4758V13.4617V13.4475V13.4332V13.4189V13.4045V13.3901V13.3757V13.3611V13.3466V13.332V13.3173V13.3026V13.2879V13.2731V13.2583V13.2434V13.2285V13.2135V13.1985V13.1834V13.1683V13.1532V13.138V13.1228V13.1075V13.0922V13.0768V13.0614V13.046V13.0305V13.015V12.9995V12.9839V12.9683V12.9526V12.9369V12.9212V12.9054V12.8896V12.8738V12.8579V12.842V12.8261V12.8101V12.7941V12.778V12.7619V12.7458V12.7297V12.7135V12.6973V12.6811V12.6648V12.6485V12.6322V12.6159V12.5995V12.5831V12.5667V12.5502V12.5337V12.5172V12.5007V12.4841V12.4675V12.4509V12.4343V12.4176V12.4009V12.3842V12.3675V12.3507V12.3339V12.3171V12.3003V12.2835V12.2666V12.2498V12.2329V12.2159V12.199V12.1821V12.1651V12.1481V12.1311V12.1141V12.097V12.08V12.0629V12.0458V12.0287V12.0116V11.9945V11.9774V11.9602V11.943V11.9259V11.9087V11.8915V11.8743V11.8571V11.8398V11.8226V11.8053V11.7881V11.7708V11.7536V11.7363V11.719V11.7017V11.6844V11.6671V11.6498V11.6325V11.6151V11.5978V11.5805V11.5632V11.5458V11.5285V11.5111V11.4938V11.4765V11.4591V11.4418V11.4244V11.4071V11.3897V11.3724V11.3551V11.3377V11.3204V11.3031V11.2857V11.2684V11.2511V11.2338V11.2164V11.1991V11.1818V11.1645V11.1472V11.13V11.1127V11.0954V11.0782V11.0609V11.0437V11.0264V11.0092V10.992V10.9748V10.9576V10.9404V10.9232V10.9061V10.8889V10.8718V10.8547V10.8376V10.8205V10.8034V10.7864V10.7693V10.7523V10.7353V10.7183V10.7013V10.6843V10.6674V10.6505V10.6336V10.6167V10.5998V10.583V10.5661V10.5493V10.5325V10.5158V10.499V10.4823V10.4656V10.4489V10.4323V10.4157V10.3991V10.3825V10.3659V10.3494V10.3329V10.3164V10.3V10.2836V10.2672V10.2508V10.2345V10.2182V10.2019V10.1856V10.1694V10.1532V10.1371V10.1209V10.1049V10.0888V10.0728V10.0568V10.0408V10.0249V10.009V9.99313V9.97731V9.96152V9.94577V9.93005V9.91437V9.89873V9.88312V9.86756V9.85203V9.83654V9.82109V9.80568V9.79031V9.77498V9.75969V9.74444V9.72923V9.71406V9.69894V9.68386V9.66882V9.65383V9.63888V9.62398V9.60912V9.5943V9.57953V9.56481V9.55014V9.53551V9.52092V9.50639V9.4919V9.47747V9.46308V9.44874V9.43445V9.42021V9.40602V9.39188V9.3778V9.36376V9.34978V9.33585V9.32198V9.30815V9.29438V9.28067V9.26701V9.2534V9.23985V9.22636V9.21292V9.19954V9.18622V9.17295V9.15974V9.14659V9.1335V9.12047V9.1075V9.09459V9.08174V9.06894V9.05622V9.04355V9.03094V9.0184V9.00592V8.9935V8.98115V8.96886V8.95663V8.94447V8.93237V8.92035V8.90838V8.89649V8.88466V8.87289V8.8612V8.84957V8.83802V8.82653V8.81511V8.80376V8.79248V8.78127V8.77013V8.75907V8.74807V8.73715V8.7263V8.71552V8.70482V8.69419V8.68364V8.67316V8.66275V8.65242V8.64217V8.63199V8.62189V8.61187V8.60193V8.59206V8.58227V8.57256V8.56293V8.55338V8.54391V8.53451V8.5252V8.51598V8.50683V8.49776V8.48878V8.47988V8.47106V8.46233V8.45368V8.44512V8.43664V8.42825V8.41994V8.41172V8.40358V8.39553V8.38757V8.3797V8.37191V8.36422V8.35661V8.34909V8.34167C3.38823 7.78632 3.64535 5.79278 4.74368 3.95482C5.82342 2.14796 7.70483 0.5 11.0082 0.5C14.3112 0.5 16.1927 2.15047 17.2726 3.96036C18.3711 5.80132 18.6282 7.79789 18.6282 8.35333V8.36076V8.36828V8.37589V8.38358V8.39137V8.39924V8.4072V8.41525V8.42338V8.43161V8.43991V8.44831V8.45679V8.46535V8.474V8.48273V8.49155V8.50045V8.50943V8.51849V8.52764V8.53687V8.54618V8.55557V8.56504V8.57459V8.58423V8.59394V8.60372V8.61359V8.62354V8.63356V8.64366V8.65384V8.66409V8.67442V8.68482V8.6953V8.70586V8.71649V8.72719V8.73797V8.74882V8.75974V8.77073V8.7818V8.79294V8.80415V8.81542V8.82677V8.83819V8.84968V8.86124V8.87287V8.88456V8.89632V8.90815V8.92005V8.93201V8.94404V8.95614V8.9683V8.98052V8.99281V9.00517V9.01758V9.03006V9.04261V9.05521V9.06788V9.08061V9.0934V9.10625V9.11917V9.13214V9.14517V9.15826V9.17141V9.18462V9.19788V9.21121V9.22459V9.23803V9.25152V9.26507V9.27867V9.29233V9.30605V9.31982V9.33364V9.34752V9.36145V9.37543V9.38946V9.40355V9.41769V9.43188V9.44612V9.46041V9.47474V9.48913V9.50357V9.51806V9.53259V9.54717V9.5618V9.57648V9.5912V9.60597V9.62078V9.63564V9.65055V9.6655V9.68049V9.69553V9.71061V9.72573V9.7409V9.7561V9.77135V9.78664V9.80197V9.81734V9.83276V9.84821V9.8637V9.87922V9.89479V9.9104V9.92604V9.94172V9.95743V9.97319V9.98897V10.0048V10.0207V10.0366V10.0525V10.0684V10.0844V10.1005V10.1165V10.1326V10.1487V10.1649V10.1811V10.1973V10.2135V10.2298V10.2461V10.2625V10.2788V10.2952V10.3116V10.3281V10.3446V10.3611V10.3776V10.3941V10.4107V10.4273V10.444V10.4606V10.4773V10.494V10.5107V10.5274V10.5442V10.561V10.5778V10.5946V10.6115V10.6283V10.6452V10.6621V10.6791V10.696V10.713V10.7299V10.7469V10.764V10.781V10.798V10.8151V10.8322V10.8493V10.8664V10.8835V10.9006V10.9178V10.9349V10.9521V10.9693V10.9865V11.0037V11.0209V11.0381V11.0553V11.0726V11.0898V11.1071V11.1244V11.1416V11.1589V11.1762V11.1935V11.2108V11.2281V11.2454V11.2627V11.2801V11.2974V11.3147V11.3321V11.3494V11.3667V11.3841V11.4014V11.4188V11.4361V11.4534V11.4708V11.4881V11.5055V11.5228V11.5402V11.5575V11.5748V11.5922V11.6095V11.6268V11.6441V11.6614V11.6788V11.6961V11.7134V11.7307V11.7479V11.7652V11.7825V11.7998V11.817V11.8343V11.8515V11.8687V11.8859V11.9032V11.9204V11.9375V11.9547V11.9719V11.989V12.0062V12.0233V12.0404V12.0575V12.0746V12.0916V12.1087V12.1257V12.1428V12.1598V12.1768V12.1937V12.2107V12.2276V12.2445V12.2614V12.2783V12.2952V12.312V12.3288V12.3456V12.3624V12.3791V12.3959V12.4126V12.4293V12.4459V12.4626V12.4792V12.4958V12.5123V12.5289V12.5454V12.5619V12.5783V12.5948V12.6112V12.6275V12.6439V12.6602V12.6765V12.6928V12.709V12.7252V12.7414V12.7575V12.7736V12.7897V12.8057V12.8217V12.8377V12.8537V12.8696V12.8854V12.9013V12.9171V12.9329V12.9486V12.9643V12.98V12.9956V13.0112V13.0267V13.0422V13.0577V13.0731V13.0885V13.1039V13.1192V13.1344V13.1497V13.1648V13.18V13.1951V13.2101V13.2252V13.2401V13.2551V13.2699V13.2848V13.2996V13.3143V13.329V13.3437V13.3583V13.3728V13.3873V13.4018V13.4162V13.4306V13.4449V13.4591V13.4733V13.4875V13.5016V13.5157V13.5297V13.5436V13.5575V13.5714V13.5852V13.5989V13.6126V13.6262V13.6398V13.6533V13.6668V13.6802V13.6936V13.7068V13.7201V13.7333V13.7464V13.7594V13.7724V13.7854V13.7983V13.8111V13.8238V13.8365V13.8492V13.8617V13.8743V13.8867V13.8991V13.9114V13.9237V13.9358V13.948V13.96V13.972V13.984V13.9958V14.0076V14.0193V14.031V14.0426V14.0541V14.0656V14.0769V14.0883V14.0995V14.1107V14.1218V14.1328V14.1438V14.1546V14.1654V14.1762V14.1868V14.1974V14.208V14.2184V14.2288V14.239V14.2493V14.2594V14.2695V14.2794V14.2893V14.2992V14.3089V14.3186V14.3282V14.3377V14.3471V14.3565V14.3657V14.3749V14.384V14.393V14.402V14.4108V14.4196V14.4283V14.4369V14.4454V14.4538V14.4622V14.4705V14.4786V14.4867V14.4947V14.5026V14.5105V14.5182V14.5258V14.5334V14.5409V14.5483V14.5555V14.5627V14.5699V14.5769V14.5838V14.5906V14.5974V14.604V14.6106V14.617V14.6234V14.6296V14.6358V14.6419V14.6479V14.6538V14.6595V14.6652V14.6708V14.6763V14.6817V14.687V14.6922V14.6973V14.7023V14.7072V14.712V14.7167V14.7213V14.7258V14.7301V14.7344V14.7386V14.7427V14.7466V14.7505V14.7543V14.7579V14.7615V14.7649V14.7682V14.7715V14.7746V14.7776V14.7805V14.7833V14.786V14.7886V14.791V14.7934V14.7956V14.7978V14.7998V14.8017V14.8035V14.805V14.8052V14.8068V14.8082V14.8096V14.8108V14.8119V14.8129V14.8138V14.8145V14.8152V14.8157V14.8161V14.8164V14.8166V14.8167Z" stroke="#C4C4C5" stroke-linejoin="round"/>
<mask id="path-2-inside-1_4429_20787" fill="white">
<path d="M15.0912 19.25C15.0912 21.5017 13.2596 23.3333 11.0079 23.3333C8.75623 23.3333 6.92456 21.5017 6.92456 19.25"/>
</mask>
<path d="M14.0912 19.25C14.0912 20.9494 12.7073 22.3333 11.0079 22.3333V24.3333C13.8118 24.3333 16.0912 22.054 16.0912 19.25H14.0912ZM11.0079 22.3333C9.30851 22.3333 7.92456 20.9494 7.92456 19.25H5.92456C5.92456 22.054 8.20394 24.3333 11.0079 24.3333V22.3333Z" fill="#C4C4C5" mask="url(#path-2-inside-1_4429_20787)"/>
</svg>
