<svg width="22" height="24" viewBox="0 0 22 24" fill="none" xmlns="http://www.w3.org/2000/svg">
<mask id="path-1-inside-1_4429_50151" fill="white">
<path d="M15.0913 19.25C15.0913 21.5017 13.2597 23.3333 11.008 23.3333C8.75632 23.3333 6.92465 21.5017 6.92465 19.25"/>
</mask>
<path d="M14.0913 19.25C14.0913 20.9494 12.7074 22.3333 11.008 22.3333V24.3333C13.8119 24.3333 16.0913 22.054 16.0913 19.25H14.0913ZM11.008 22.3333C9.3086 22.3333 7.92465 20.9494 7.92465 19.25H5.92465C5.92465 22.054 8.20403 24.3333 11.008 24.3333V22.3333Z" fill="#6A51CA" mask="url(#path-1-inside-1_4429_50151)"/>
<path d="M19.12 14.8128H18.62V15.3128H18.9008L20.8391 17.5868C20.8392 17.5869 20.8392 17.5869 20.8392 17.5869C21.2253 18.0409 20.9026 18.7462 20.2983 18.7462H1.71331C1.109 18.7462 0.786274 18.0408 1.17248 17.5868L1.17293 17.5863L3.26126 15.1246L3.37998 14.9847V14.8012H2.87998L3.37998 14.8011V14.8009V14.8006V14.8002V14.7997V14.799V14.7983V14.7974V14.7964V14.7953V14.794V14.7927V14.7912V14.7897V14.788V14.7862V14.7843V14.7823V14.7801V14.7779V14.7755V14.7731V14.7705V14.7678V14.765V14.7621V14.7591V14.756V14.7527V14.7494V14.746V14.7424V14.7388V14.735V14.7311V14.7272V14.7231V14.7189V14.7146V14.7102V14.7058V14.7012V14.6965V14.6917V14.6868V14.6818V14.6767V14.6715V14.6662V14.6608V14.6553V14.6497V14.644V14.6382V14.6324V14.6264V14.6203V14.6141V14.6079V14.6015V14.5951V14.5885V14.5819V14.5751V14.5683V14.5614V14.5543V14.5472V14.54V14.5328V14.5254V14.5179V14.5103V14.5027V14.495V14.4871V14.4792V14.4712V14.4631V14.4549V14.4467V14.4383V14.4299V14.4214V14.4128V14.4041V14.3953V14.3865V14.3775V14.3685V14.3594V14.3502V14.3409V14.3316V14.3222V14.3127V14.3031V14.2934V14.2837V14.2738V14.2639V14.2539V14.2439V14.2338V14.2235V14.2132V14.2029V14.1924V14.1819V14.1713V14.1607V14.1499V14.1391V14.1282V14.1173V14.1063V14.0952V14.084V14.0727V14.0614V14.0501V14.0386V14.0271V14.0155V14.0038V13.9921V13.9803V13.9685V13.9565V13.9445V13.9325V13.9203V13.9082V13.8959V13.8836V13.8712V13.8587V13.8462V13.8337V13.821V13.8083V13.7956V13.7828V13.7699V13.7569V13.7439V13.7309V13.7178V13.7046V13.6913V13.678V13.6647V13.6513V13.6378V13.6243V13.6107V13.5971V13.5834V13.5697V13.5559V13.542V13.5281V13.5142V13.5002V13.4861V13.472V13.4578V13.4436V13.4294V13.415V13.4007V13.3863V13.3718V13.3573V13.3427V13.3281V13.3135V13.2988V13.2841V13.2693V13.2544V13.2395V13.2246V13.2097V13.1946V13.1796V13.1645V13.1493V13.1342V13.1189V13.1037V13.0883V13.073V13.0576V13.0422V13.0267V13.0112V12.9957V12.9801V12.9644V12.9488V12.9331V12.9174V12.9016V12.8858V12.8699V12.8541V12.8382V12.8222V12.8062V12.7902V12.7742V12.7581V12.742V12.7259V12.7097V12.6935V12.6773V12.661V12.6447V12.6284V12.612V12.5957V12.5793V12.5628V12.5464V12.5299V12.5134V12.4968V12.4803V12.4637V12.4471V12.4304V12.4138V12.3971V12.3804V12.3636V12.3469V12.3301V12.3133V12.2965V12.2797V12.2628V12.2459V12.229V12.2121V12.1952V12.1782V12.1612V12.1443V12.1273V12.1102V12.0932V12.0761V12.0591V12.042V12.0249V12.0078V11.9907V11.9735V11.9564V11.9392V11.922V11.9048V11.8876V11.8704V11.8532V11.836V11.8188V11.8015V11.7843V11.767V11.7497V11.7324V11.7152V11.6979V11.6806V11.6633V11.6459V11.6286V11.6113V11.594V11.5767V11.5593V11.542V11.5246V11.5073V11.49V11.4726V11.4553V11.4379V11.4206V11.4033V11.3859V11.3686V11.3512V11.3339V11.3166V11.2992V11.2819V11.2646V11.2472V11.2299V11.2126V11.1953V11.178V11.1607V11.1434V11.1261V11.1088V11.0916V11.0743V11.0571V11.0398V11.0226V11.0054V10.9882V10.971V10.9538V10.9366V10.9194V10.9022V10.8851V10.868V10.8509V10.8338V10.8167V10.7996V10.7825V10.7655V10.7484V10.7314V10.7144V10.6975V10.6805V10.6636V10.6466V10.6297V10.6128V10.596V10.5791V10.5623V10.5455V10.5287V10.5119V10.4952V10.4785V10.4618V10.4451V10.4284V10.4118V10.3952V10.3786V10.3621V10.3456V10.3291V10.3126V10.2961V10.2797V10.2633V10.247V10.2306V10.2143V10.198V10.1818V10.1656V10.1494V10.1332V10.1171V10.101V10.085V10.0689V10.0529V10.037V10.021V10.0052V9.98929V9.97347V9.95768V9.94193V9.92621V9.91053V9.89489V9.87928V9.86372V9.84819V9.8327V9.81725V9.80184V9.78647V9.77114V9.75585V9.7406V9.72539V9.71022V9.6951V9.68002V9.66498V9.64999V9.63504V9.62014V9.60528V9.59046V9.5757V9.56097V9.5463V9.53167V9.51709V9.50255V9.48806V9.47363V9.45924V9.4449V9.43061V9.41637V9.40218V9.38804V9.37396V9.35992V9.34594V9.33201V9.31814V9.30431V9.29054V9.27683V9.26317V9.24956V9.23601V9.22252V9.20908V9.1957V9.18238V9.16911V9.1559V9.14275V9.12966V9.11663V9.10366V9.09075V9.0779V9.0651V9.05237V9.03971V9.0271V9.01456V9.00208V8.98966V8.97731V8.96502V8.95279V8.94063V8.92854V8.91651V8.90454V8.89265V8.88082V8.86905V8.85736V8.84573V8.83418V8.82269V8.81127V8.79992V8.78864V8.77743V8.76629V8.75523V8.74423V8.73331V8.72246V8.71169V8.70098V8.69035V8.6798V8.66932V8.65891V8.64858V8.63833V8.62815V8.61805V8.60803V8.59809V8.58822V8.57843V8.56872V8.55909V8.54954V8.54007V8.53067V8.52136V8.51214V8.50299V8.49392V8.48494V8.47604V8.46723V8.45849V8.44984V8.44128V8.4328V8.42441V8.4161V8.40788V8.39974V8.39169V8.38373V8.37586V8.36808V8.36038V8.35277V8.34525V8.33783C3.37998 7.78245 3.63712 5.78899 4.73535 3.95258C5.81489 2.14741 7.69594 0.502339 10.9991 0.507827H11C12.0873 0.507827 13.0028 0.690941 13.7912 0.991247C13.309 1.70989 13.02 2.57072 13.02 3.50783C13.02 6.03564 15.0755 8.09116 17.6033 8.09116C17.9475 8.09116 18.2781 8.04596 18.5939 7.96996C18.6122 8.13432 18.62 8.26307 18.62 8.34949V8.35692V8.36444V8.37205V8.37974V8.38753V8.3954V8.40336V8.41141V8.41954V8.42777V8.43607V8.44447V8.45295V8.46151V8.47016V8.47889V8.48771V8.49661V8.50559V8.51466V8.5238V8.53303V8.54234V8.55173V8.5612V8.57076V8.58039V8.5901V8.59988V8.60975V8.6197V8.62972V8.63982V8.65V8.66025V8.67058V8.68099V8.69147V8.70202V8.71265V8.72335V8.73413V8.74498V8.7559V8.76689V8.77796V8.7891V8.80031V8.81159V8.82294V8.83435V8.84584V8.8574V8.86903V8.88072V8.89248V8.90431V8.91621V8.92817V8.9402V8.9523V8.96446V8.97668V8.98897V9.00133V9.01374V9.02622V9.03877V9.05137V9.06404V9.07677V9.08956V9.10241V9.11533V9.1283V9.14133V9.15442V9.16757V9.18078V9.19404V9.20737V9.22075V9.23419V9.24768V9.26123V9.27483V9.2885V9.30221V9.31598V9.3298V9.34368V9.35761V9.37159V9.38562V9.39971V9.41385V9.42804V9.44228V9.45657V9.47091V9.48529V9.49973V9.51422V9.52875V9.54333V9.55796V9.57264V9.58736V9.60213V9.61694V9.6318V9.64671V9.66166V9.67665V9.69169V9.70677V9.72189V9.73706V9.75226V9.76751V9.7828V9.79813V9.8135V9.82892V9.84437V9.85986V9.87538V9.89095V9.90656V9.9222V9.93788V9.95359V9.96935V9.98514V10.001V10.0168V10.0327V10.0486V10.0646V10.0806V10.0966V10.1127V10.1288V10.1449V10.1611V10.1772V10.1935V10.2097V10.226V10.2423V10.2586V10.275V10.2914V10.3078V10.3243V10.3407V10.3572V10.3738V10.3903V10.4069V10.4235V10.4401V10.4568V10.4734V10.4901V10.5069V10.5236V10.5404V10.5571V10.574V10.5908V10.6076V10.6245V10.6414V10.6583V10.6752V10.6922V10.7091V10.7261V10.7431V10.7601V10.7771V10.7942V10.8113V10.8283V10.8454V10.8625V10.8796V10.8968V10.9139V10.9311V10.9482V10.9654V10.9826V10.9998V11.017V11.0343V11.0515V11.0687V11.086V11.1032V11.1205V11.1378V11.1551V11.1724V11.1897V11.207V11.2243V11.2416V11.2589V11.2762V11.2936V11.3109V11.3282V11.3456V11.3629V11.3802V11.3976V11.4149V11.4323V11.4496V11.4669V11.4843V11.5016V11.519V11.5363V11.5537V11.571V11.5883V11.6056V11.623V11.6403V11.6576V11.6749V11.6922V11.7095V11.7268V11.7441V11.7614V11.7787V11.7959V11.8132V11.8304V11.8477V11.8649V11.8821V11.8993V11.9165V11.9337V11.9509V11.968V11.9852V12.0023V12.0195V12.0366V12.0537V12.0707V12.0878V12.1049V12.1219V12.1389V12.1559V12.1729V12.1899V12.2068V12.2238V12.2407V12.2576V12.2745V12.2913V12.3082V12.325V12.3418V12.3585V12.3753V12.392V12.4087V12.4254V12.4421V12.4587V12.4753V12.4919V12.5085V12.525V12.5415V12.558V12.5745V12.5909V12.6073V12.6237V12.64V12.6564V12.6727V12.6889V12.7052V12.7214V12.7375V12.7537V12.7698V12.7858V12.8019V12.8179V12.8339V12.8498V12.8657V12.8816V12.8974V12.9133V12.929V12.9448V12.9605V12.9761V12.9917V13.0073V13.0229V13.0384V13.0538V13.0693V13.0847V13.1V13.1153V13.1306V13.1458V13.161V13.1761V13.1912V13.2063V13.2213V13.2363V13.2512V13.2661V13.2809V13.2957V13.3105V13.3252V13.3398V13.3544V13.369V13.3835V13.3979V13.4124V13.4267V13.441V13.4553V13.4695V13.4837V13.4978V13.5118V13.5258V13.5398V13.5537V13.5675V13.5813V13.5951V13.6088V13.6224V13.636V13.6495V13.663V13.6764V13.6897V13.703V13.7162V13.7294V13.7425V13.7556V13.7686V13.7815V13.7944V13.8072V13.82V13.8327V13.8453V13.8579V13.8704V13.8829V13.8952V13.9076V13.9198V13.932V13.9441V13.9562V13.9682V13.9801V13.992V14.0038V14.0155V14.0272V14.0387V14.0503V14.0617V14.0731V14.0844V14.0957V14.1068V14.1179V14.129V14.1399V14.1508V14.1616V14.1723V14.183V14.1936V14.2041V14.2146V14.2249V14.2352V14.2454V14.2556V14.2656V14.2756V14.2855V14.2953V14.3051V14.3147V14.3243V14.3338V14.3433V14.3526V14.3619V14.3711V14.3802V14.3892V14.3981V14.407V14.4158V14.4244V14.4331V14.4416V14.45V14.4584V14.4666V14.4748V14.4829V14.4909V14.4988V14.5066V14.5144V14.522V14.5296V14.537V14.5444V14.5517V14.5589V14.566V14.573V14.58V14.5868V14.5935V14.6002V14.6067V14.6132V14.6195V14.6258V14.632V14.6381V14.644V14.6499V14.6557V14.6614V14.667V14.6725V14.6779V14.6832V14.6884V14.6935V14.6985V14.7033V14.7081V14.7128V14.7174V14.7219V14.7263V14.7306V14.7348V14.7388V14.7428V14.7467V14.7504V14.7541V14.7576V14.7611V14.7644V14.7676V14.7708V14.7738V14.7767V14.7795V14.7822V14.7847V14.7872V14.7896V14.7918V14.7939V14.796V14.7979V14.7997V14.8013V14.8029V14.8044V14.8057V14.8069V14.8081V14.809V14.8099V14.8107V14.8113V14.8119V14.8123V14.8126V14.8128L19.12 14.8128Z" fill="#6A51CA" stroke="#6A51CA"/>
<path d="M17.6035 6.41146C19.2144 6.41146 20.5202 5.10562 20.5202 3.49479C20.5202 1.88396 19.2144 0.578125 17.6035 0.578125C15.9927 0.578125 14.6869 1.88396 14.6869 3.49479C14.6869 5.10562 15.9927 6.41146 17.6035 6.41146Z" fill="#6A51CA"/>
</svg>
