<svg width="28" height="28" viewBox="0 0 28 28" fill="none" xmlns="http://www.w3.org/2000/svg">
<path d="M14.0135 0.5C15.6605 0.5 17.24 1.148 18.401 2.3225C19.562 3.4835 20.2235 5.063 20.2235 6.71C20.2235 8.357 19.5755 9.9365 18.401 11.0975C17.24 12.2585 15.6605 12.92 14.0135 12.92C12.3665 12.92 10.787 12.272 9.626 11.0975C8.465 9.9365 7.8035 8.357 7.8035 6.71C7.8035 5.063 8.4515 3.4835 9.626 2.3225C10.787 1.1615 12.3665 0.5 14.0135 0.5ZM14.0135 27.5H13.865C13.757 27.5 13.6085 27.5 13.406 27.5C13.0145 27.5 12.4475 27.473 11.7725 27.446C10.4225 27.392 8.627 27.284 6.845 27.0545C5.0495 26.825 3.3215 26.501 2.0795 26.0285C1.4585 25.799 1.0265 25.556 0.7565 25.3265C0.5135 25.1105 0.5 24.989 0.5 24.9485C0.5 23.3285 1.877 21.3305 4.4825 19.67C7.034 18.05 10.4765 16.9295 14 16.9295C17.5235 16.9295 20.966 18.05 23.5175 19.67C26.123 21.344 27.5 23.3285 27.5 24.9485C27.5 24.989 27.5 25.1105 27.2435 25.3265C26.987 25.556 26.555 25.799 25.9205 26.0285C24.6785 26.501 22.9505 26.825 21.155 27.0545C19.373 27.284 17.5775 27.392 16.2275 27.446C15.5525 27.473 14.9855 27.4865 14.594 27.5C14.3915 27.5 14.243 27.5 14.135 27.5H14.0135H13.9865H14.0135Z" fill="#6A51CA"/>
<path d="M14.0135 0.5C15.6605 0.5 17.24 1.148 18.401 2.3225C19.562 3.4835 20.2235 5.063 20.2235 6.71C20.2235 8.357 19.5755 9.9365 18.401 11.0975C17.24 12.2585 15.6605 12.92 14.0135 12.92C12.3665 12.92 10.787 12.272 9.626 11.0975C8.465 9.9365 7.8035 8.357 7.8035 6.71C7.8035 5.063 8.4515 3.4835 9.626 2.3225C10.787 1.1615 12.3665 0.5 14.0135 0.5V0.5ZM14.0135 27.5H13.865C13.757 27.5 13.6085 27.5 13.406 27.5C13.0145 27.5 12.4475 27.473 11.7725 27.446C10.4225 27.392 8.627 27.284 6.845 27.0545C5.0495 26.825 3.3215 26.501 2.0795 26.0285C1.4585 25.799 1.0265 25.556 0.7565 25.3265C0.5135 25.1105 0.5 24.989 0.5 24.9485C0.5 23.3285 1.877 21.3305 4.4825 19.67C7.034 18.05 10.4765 16.9295 14 16.9295C17.5235 16.9295 20.966 18.05 23.5175 19.67C26.123 21.344 27.5 23.3285 27.5 24.9485C27.5 24.989 27.5 25.1105 27.2435 25.3265C26.987 25.556 26.555 25.799 25.9205 26.0285C24.6785 26.501 22.9505 26.825 21.155 27.0545C19.373 27.284 17.5775 27.392 16.2275 27.446C15.5525 27.473 14.9855 27.4865 14.594 27.5C14.3915 27.5 14.243 27.5 14.135 27.5H14.0135H13.9865H14.0135Z" stroke="#6A51CA"/>
</svg>
