<svg width="96" height="96" viewBox="0 0 96 96" fill="none" xmlns="http://www.w3.org/2000/svg">
<circle cx="48" cy="48" r="48" fill="url(#paint0_radial_1071_28337)"/>
<circle cx="48" cy="48" r="36" fill="#6A51CA" fill-opacity="0.25"/>
<g filter="url(#filter0_d_1071_28337)">
<circle cx="48" cy="48" r="25" fill="url(#paint1_radial_1071_28337)" fill-opacity="0.25" shape-rendering="crispEdges"/>
</g>
<circle cx="48" cy="48" r="27.75" stroke="#FAFAFA" stroke-width="0.5"/>
<circle cx="48" cy="48" r="16" fill="#6A51CA"/>
<path d="M41 54C43.2091 54 45 52.2091 45 50C45 47.7909 43.2091 46 41 46C38.7909 46 37 47.7909 37 50C37 52.2091 38.7909 54 41 54Z" stroke="#ECEDEB" stroke-linecap="round" stroke-linejoin="round"/>
<path d="M55 54C57.2091 54 59 52.2091 59 50C59 47.7909 57.2091 46 55 46C52.7909 46 51 47.7909 51 50C51 52.2091 52.7909 54 55 54Z" stroke="#ECEDEB" stroke-linecap="round" stroke-linejoin="round"/>
<path d="M41 50L44 42L42 41" stroke="#ECEDEB" stroke-linecap="round" stroke-linejoin="round"/>
<path d="M44 43.3057L49 51L51 42" stroke="#ECEDEB" stroke-linecap="round" stroke-linejoin="round"/>
<path d="M44 43L50 44.5" stroke="#ECEDEB" stroke-linecap="round" stroke-linejoin="round"/>
<path d="M50.5 45L55 50L49 50.5" stroke="#ECEDEB" stroke-linecap="round" stroke-linejoin="round"/>
<path d="M50 42H52.22" stroke="#ECEDEB" stroke-linecap="round" stroke-linejoin="round"/>
<defs>
<filter id="filter0_d_1071_28337" x="13" y="13" width="70" height="70" filterUnits="userSpaceOnUse" color-interpolation-filters="sRGB">
<feFlood flood-opacity="0" result="BackgroundImageFix"/>
<feColorMatrix in="SourceAlpha" type="matrix" values="0 0 0 0 0 0 0 0 0 0 0 0 0 0 0 0 0 0 127 0" result="hardAlpha"/>
<feOffset/>
<feGaussianBlur stdDeviation="5"/>
<feComposite in2="hardAlpha" operator="out"/>
<feColorMatrix type="matrix" values="0 0 0 0 0.415686 0 0 0 0 0.317647 0 0 0 0 0.792157 0 0 0 0.8 0"/>
<feBlend mode="normal" in2="BackgroundImageFix" result="effect1_dropShadow_1071_28337"/>
<feBlend mode="normal" in="SourceGraphic" in2="effect1_dropShadow_1071_28337" result="shape"/>
</filter>
<radialGradient id="paint0_radial_1071_28337" cx="0" cy="0" r="1" gradientUnits="userSpaceOnUse" gradientTransform="translate(48 48) rotate(90) scale(105.5)">
<stop stop-color="#836ED3" stop-opacity="0.25"/>
<stop offset="1" stop-color="#B5A8E4" stop-opacity="0.15"/>
</radialGradient>
<radialGradient id="paint1_radial_1071_28337" cx="0" cy="0" r="1" gradientUnits="userSpaceOnUse" gradientTransform="translate(48 48) rotate(91.8779) scale(61.0328)">
<stop stop-color="#6A51CA"/>
<stop offset="1" stop-color="#6A51CA" stop-opacity="0"/>
</radialGradient>
</defs>
</svg>
