<svg width="358" height="24" viewBox="0 0 358 24" fill="none" xmlns="http://www.w3.org/2000/svg">
<path d="M7.5 9L16.5 16L11.9949 19.5L12.0051 5.5L16.5 9L7.5 16" stroke="#7A7A79" stroke-linecap="round" stroke-linejoin="round"/>
<path d="M34.784 7.672C34.56 7.30933 34.2613 7.048 33.888 6.888C33.5147 6.71733 33.1253 6.632 32.72 6.632C32.4213 6.632 32.128 6.66933 31.84 6.744C31.552 6.81867 31.2907 6.93067 31.056 7.08C30.832 7.22933 30.6507 7.42667 30.512 7.672C30.3733 7.91733 30.304 8.20533 30.304 8.536C30.304 8.792 30.3413 9.02133 30.416 9.224C30.5013 9.416 30.6347 9.592 30.816 9.752C30.9973 9.912 31.2427 10.0613 31.552 10.2C31.8613 10.3387 32.24 10.4773 32.688 10.616C33.1253 10.7547 33.5467 10.904 33.952 11.064C34.368 11.224 34.7307 11.4267 35.04 11.672C35.36 11.9173 35.6107 12.2267 35.792 12.6C35.984 12.9627 36.08 13.4213 36.08 13.976C36.08 14.5413 35.968 15.032 35.744 15.448C35.52 15.864 35.2213 16.2107 34.848 16.488C34.4853 16.7547 34.064 16.952 33.584 17.08C33.104 17.2187 32.608 17.288 32.096 17.288C31.7653 17.288 31.4347 17.256 31.104 17.192C30.7733 17.1387 30.4533 17.0533 30.144 16.936C29.8453 16.808 29.5627 16.648 29.296 16.456C29.0293 16.2533 28.8 16.008 28.608 15.72L29.76 14.776C30.0053 15.192 30.3467 15.5067 30.784 15.72C31.2213 15.9333 31.6853 16.04 32.176 16.04C32.464 16.04 32.752 15.9973 33.04 15.912C33.3387 15.8267 33.6053 15.704 33.84 15.544C34.0747 15.3733 34.2667 15.1653 34.416 14.92C34.5653 14.6747 34.64 14.392 34.64 14.072C34.64 13.72 34.5813 13.4373 34.464 13.224C34.3467 13 34.1653 12.808 33.92 12.648C33.6747 12.488 33.3653 12.344 32.992 12.216C32.6187 12.088 32.1813 11.9387 31.68 11.768C31.2747 11.64 30.9013 11.496 30.56 11.336C30.2187 11.1653 29.92 10.9627 29.664 10.728C29.4187 10.4827 29.2213 10.1947 29.072 9.864C28.9333 9.52267 28.864 9.11733 28.864 8.648C28.864 8.104 28.9707 7.62933 29.184 7.224C29.3973 6.81867 29.6853 6.48267 30.048 6.216C30.4107 5.93867 30.8213 5.73067 31.28 5.592C31.7387 5.45333 32.2187 5.384 32.72 5.384C33.36 5.384 33.9413 5.48533 34.464 5.688C34.9973 5.88 35.472 6.22133 35.888 6.712L34.784 7.672ZM38.3466 9.512H39.5946V17H38.3466V9.512ZM38.0586 6.584C38.0586 6.33867 38.144 6.12533 38.3146 5.944C38.496 5.76267 38.7146 5.672 38.9706 5.672C39.2266 5.672 39.44 5.76267 39.6106 5.944C39.792 6.12533 39.8826 6.33867 39.8826 6.584C39.8826 6.85067 39.7973 7.06933 39.6266 7.24C39.456 7.41067 39.2373 7.496 38.9706 7.496C38.704 7.496 38.4853 7.41067 38.3146 7.24C38.144 7.06933 38.0586 6.85067 38.0586 6.584ZM49.7104 16.664C49.7104 18.0293 49.3584 19.064 48.6544 19.768C47.961 20.4827 46.953 20.84 45.6304 20.84C44.8944 20.84 44.2277 20.7333 43.6304 20.52C43.0437 20.3067 42.4837 19.9387 41.9504 19.416L42.8464 18.392C43.241 18.8187 43.657 19.1387 44.0944 19.352C44.5424 19.576 45.0544 19.688 45.6304 19.688C46.185 19.688 46.6437 19.6027 47.0064 19.432C47.3797 19.272 47.673 19.048 47.8864 18.76C48.0997 18.4827 48.249 18.1627 48.3344 17.8C48.4197 17.4373 48.4624 17.0587 48.4624 16.664V15.704H48.4304C48.1317 16.184 47.7424 16.536 47.2624 16.76C46.7824 16.984 46.2917 17.096 45.7904 17.096C45.2037 17.096 44.665 17 44.1744 16.808C43.6837 16.616 43.2624 16.3493 42.9104 16.008C42.5584 15.6667 42.2864 15.2613 42.0944 14.792C41.9024 14.3227 41.8064 13.8107 41.8064 13.256C41.8064 12.648 41.9024 12.0987 42.0944 11.608C42.2864 11.1173 42.553 10.7067 42.8944 10.376C43.2464 10.0347 43.6677 9.77333 44.1584 9.592C44.649 9.41067 45.193 9.32 45.7904 9.32C46.0464 9.32 46.3024 9.352 46.5584 9.416C46.8144 9.46933 47.0597 9.56 47.2944 9.688C47.5397 9.80533 47.7584 9.96 47.9504 10.152C48.1424 10.3333 48.3024 10.5467 48.4304 10.792H48.4624V9.512H49.7104V16.664ZM43.1504 13.256C43.1504 13.64 43.2197 13.9973 43.3584 14.328C43.497 14.648 43.6837 14.9307 43.9184 15.176C44.1637 15.4107 44.4464 15.5973 44.7664 15.736C45.0864 15.8747 45.4277 15.944 45.7904 15.944C46.217 15.944 46.5957 15.8693 46.9264 15.72C47.257 15.5707 47.5344 15.3733 47.7584 15.128C47.993 14.872 48.169 14.584 48.2864 14.264C48.4037 13.9333 48.4624 13.5867 48.4624 13.224C48.4624 12.8187 48.3984 12.4507 48.2704 12.12C48.1424 11.7787 47.961 11.4853 47.7264 11.24C47.4917 10.9947 47.209 10.808 46.8784 10.68C46.5477 10.5413 46.185 10.472 45.7904 10.472C45.3957 10.472 45.033 10.5467 44.7024 10.696C44.3824 10.8347 44.105 11.032 43.8704 11.288C43.6464 11.5333 43.4704 11.8267 43.3424 12.168C43.2144 12.4987 43.1504 12.8613 43.1504 13.256ZM52.1796 11.288C52.1796 10.9467 52.169 10.6267 52.1476 10.328C52.1263 10.0293 52.1156 9.75733 52.1156 9.512H53.2996C53.2996 9.71467 53.305 9.91733 53.3156 10.12C53.3263 10.3227 53.3316 10.5307 53.3316 10.744H53.3636C53.449 10.5627 53.5663 10.3867 53.7156 10.216C53.8756 10.0453 54.0623 9.896 54.2756 9.768C54.489 9.62933 54.729 9.52267 54.9956 9.448C55.2623 9.36267 55.5503 9.32 55.8596 9.32C56.3503 9.32 56.7716 9.39467 57.1236 9.544C57.4863 9.69333 57.785 9.90133 58.0196 10.168C58.2543 10.4347 58.425 10.76 58.5316 11.144C58.649 11.5173 58.7076 11.928 58.7076 12.376V17H57.4596V12.504C57.4596 11.8747 57.321 11.3787 57.0436 11.016C56.7663 10.6533 56.3343 10.472 55.7476 10.472C55.3423 10.472 54.9903 10.5413 54.6916 10.68C54.4036 10.8187 54.1636 11.016 53.9716 11.272C53.7903 11.528 53.6516 11.832 53.5556 12.184C53.4703 12.536 53.4276 12.9253 53.4276 13.352V17H52.1796V11.288ZM61.1342 10.472C61.5182 10.0773 61.9716 9.78933 62.4942 9.608C63.0276 9.416 63.5662 9.32 64.1102 9.32C65.2196 9.32 66.0196 9.58133 66.5102 10.104C67.0009 10.6267 67.2462 11.4213 67.2462 12.488V15.704C67.2462 15.9173 67.2569 16.1413 67.2782 16.376C67.2996 16.6 67.3262 16.808 67.3582 17H66.1582C66.1156 16.8293 66.0889 16.6427 66.0782 16.44C66.0782 16.2267 66.0782 16.04 66.0782 15.88H66.0462C65.8009 16.264 65.4702 16.5787 65.0542 16.824C64.6489 17.0693 64.1582 17.192 63.5822 17.192C63.1982 17.192 62.8356 17.144 62.4942 17.048C62.1636 16.952 61.8702 16.8133 61.6142 16.632C61.3689 16.44 61.1716 16.2053 61.0222 15.928C60.8729 15.6507 60.7982 15.3307 60.7982 14.968C60.7982 14.3493 60.9582 13.864 61.2782 13.512C61.5982 13.16 61.9929 12.8987 62.4622 12.728C62.9422 12.5573 63.4542 12.4507 63.9982 12.408C64.5529 12.3653 65.0596 12.344 65.5182 12.344H65.9982V12.12C65.9982 11.576 65.8329 11.1653 65.5022 10.888C65.1822 10.6107 64.7289 10.472 64.1422 10.472C63.7369 10.472 63.3369 10.5413 62.9422 10.68C62.5582 10.808 62.2169 11.0107 61.9182 11.288L61.1342 10.472ZM64.7502 13.4C63.9502 13.4 63.3156 13.512 62.8462 13.736C62.3769 13.96 62.1422 14.328 62.1422 14.84C62.1422 15.3093 62.2969 15.6453 62.6062 15.848C62.9262 16.04 63.3209 16.136 63.7902 16.136C64.1529 16.136 64.4676 16.0773 64.7342 15.96C65.0116 15.832 65.2409 15.6667 65.4222 15.464C65.6036 15.2613 65.7422 15.0267 65.8382 14.76C65.9342 14.4827 65.9876 14.1893 65.9982 13.88V13.4H64.7502ZM69.7991 4.904H71.0471V17H69.7991V4.904ZM83.904 7.672C83.68 7.30933 83.3813 7.048 83.008 6.888C82.6347 6.71733 82.2453 6.632 81.84 6.632C81.5413 6.632 81.248 6.66933 80.96 6.744C80.672 6.81867 80.4107 6.93067 80.176 7.08C79.952 7.22933 79.7707 7.42667 79.632 7.672C79.4933 7.91733 79.424 8.20533 79.424 8.536C79.424 8.792 79.4613 9.02133 79.536 9.224C79.6213 9.416 79.7547 9.592 79.936 9.752C80.1173 9.912 80.3627 10.0613 80.672 10.2C80.9813 10.3387 81.36 10.4773 81.808 10.616C82.2453 10.7547 82.6667 10.904 83.072 11.064C83.488 11.224 83.8507 11.4267 84.16 11.672C84.48 11.9173 84.7307 12.2267 84.912 12.6C85.104 12.9627 85.2 13.4213 85.2 13.976C85.2 14.5413 85.088 15.032 84.864 15.448C84.64 15.864 84.3413 16.2107 83.968 16.488C83.6053 16.7547 83.184 16.952 82.704 17.08C82.224 17.2187 81.728 17.288 81.216 17.288C80.8853 17.288 80.5547 17.256 80.224 17.192C79.8933 17.1387 79.5733 17.0533 79.264 16.936C78.9653 16.808 78.6827 16.648 78.416 16.456C78.1493 16.2533 77.92 16.008 77.728 15.72L78.88 14.776C79.1253 15.192 79.4667 15.5067 79.904 15.72C80.3413 15.9333 80.8053 16.04 81.296 16.04C81.584 16.04 81.872 15.9973 82.16 15.912C82.4587 15.8267 82.7253 15.704 82.96 15.544C83.1947 15.3733 83.3867 15.1653 83.536 14.92C83.6853 14.6747 83.76 14.392 83.76 14.072C83.76 13.72 83.7013 13.4373 83.584 13.224C83.4667 13 83.2853 12.808 83.04 12.648C82.7947 12.488 82.4853 12.344 82.112 12.216C81.7387 12.088 81.3013 11.9387 80.8 11.768C80.3947 11.64 80.0213 11.496 79.68 11.336C79.3387 11.1653 79.04 10.9627 78.784 10.728C78.5387 10.4827 78.3413 10.1947 78.192 9.864C78.0533 9.52267 77.984 9.11733 77.984 8.648C77.984 8.104 78.0907 7.62933 78.304 7.224C78.5173 6.81867 78.8053 6.48267 79.168 6.216C79.5307 5.93867 79.9413 5.73067 80.4 5.592C80.8587 5.45333 81.3387 5.384 81.84 5.384C82.48 5.384 83.0613 5.48533 83.584 5.688C84.1173 5.88 84.592 6.22133 85.008 6.712L83.904 7.672ZM91.4506 10.568H89.2426V14.312C89.2426 14.5573 89.248 14.7867 89.2586 15C89.2693 15.2027 89.312 15.384 89.3866 15.544C89.4613 15.6933 89.5733 15.816 89.7226 15.912C89.872 15.9973 90.0853 16.04 90.3626 16.04C90.544 16.04 90.7306 16.0187 90.9226 15.976C91.1146 15.9333 91.296 15.8693 91.4666 15.784L91.5146 16.92C91.3013 17.016 91.0613 17.0853 90.7946 17.128C90.5386 17.1707 90.2933 17.192 90.0586 17.192C89.6106 17.192 89.2533 17.1333 88.9866 17.016C88.72 16.8987 88.512 16.7333 88.3626 16.52C88.2133 16.3067 88.112 16.0453 88.0586 15.736C88.016 15.416 87.9946 15.064 87.9946 14.68V10.568H86.3626V9.512H87.9946V7.384H89.2426V9.512H91.4506V10.568ZM93.1396 11.288C93.1396 10.9467 93.129 10.6267 93.1076 10.328C93.0863 10.0293 93.0756 9.75733 93.0756 9.512H94.2596C94.2596 9.71467 94.265 9.91733 94.2756 10.12C94.2863 10.3227 94.2916 10.5307 94.2916 10.744H94.3236C94.409 10.5627 94.5263 10.3867 94.6756 10.216C94.8356 10.0453 95.0223 9.896 95.2356 9.768C95.449 9.62933 95.689 9.52267 95.9556 9.448C96.2223 9.36267 96.5103 9.32 96.8196 9.32C96.905 9.32 96.9903 9.32533 97.0756 9.336C97.161 9.34667 97.2463 9.368 97.3316 9.4L97.2516 10.664C97.0383 10.6 96.8143 10.568 96.5796 10.568C95.8116 10.568 95.2516 10.8187 94.8996 11.32C94.5583 11.8107 94.3876 12.488 94.3876 13.352V17H93.1396V11.288ZM105.331 15.64C104.883 16.216 104.393 16.6213 103.859 16.856C103.326 17.08 102.707 17.192 102.003 17.192C101.417 17.192 100.889 17.0907 100.419 16.888C99.95 16.6747 99.55 16.392 99.2194 16.04C98.8994 15.688 98.6487 15.272 98.4674 14.792C98.2967 14.312 98.2114 13.8 98.2114 13.256C98.2114 12.68 98.3074 12.152 98.4994 11.672C98.6914 11.1813 98.958 10.7653 99.2994 10.424C99.6407 10.072 100.046 9.8 100.515 9.608C100.985 9.416 101.497 9.32 102.051 9.32C102.574 9.32 103.054 9.41067 103.491 9.592C103.929 9.76267 104.302 10.0187 104.611 10.36C104.931 10.6907 105.177 11.1013 105.347 11.592C105.518 12.072 105.603 12.6213 105.603 13.24V13.64H99.5554C99.5767 13.96 99.6514 14.2693 99.7794 14.568C99.918 14.856 100.094 15.112 100.307 15.336C100.521 15.5493 100.771 15.72 101.059 15.848C101.347 15.976 101.662 16.04 102.003 16.04C102.547 16.04 103.006 15.944 103.379 15.752C103.753 15.56 104.089 15.2773 104.387 14.904L105.331 15.64ZM104.259 12.584C104.238 11.944 104.03 11.432 103.635 11.048C103.241 10.664 102.697 10.472 102.003 10.472C101.31 10.472 100.75 10.664 100.323 11.048C99.8967 11.432 99.6407 11.944 99.5554 12.584H104.259ZM107.694 11.288C107.694 10.9467 107.683 10.6267 107.662 10.328C107.641 10.0293 107.63 9.75733 107.63 9.512H108.814C108.814 9.71467 108.819 9.91733 108.83 10.12C108.841 10.3227 108.846 10.5307 108.846 10.744H108.878C108.963 10.5627 109.081 10.3867 109.23 10.216C109.39 10.0453 109.577 9.896 109.79 9.768C110.003 9.62933 110.243 9.52267 110.51 9.448C110.777 9.36267 111.065 9.32 111.374 9.32C111.865 9.32 112.286 9.39467 112.638 9.544C113.001 9.69333 113.299 9.90133 113.534 10.168C113.769 10.4347 113.939 10.76 114.046 11.144C114.163 11.5173 114.222 11.928 114.222 12.376V17H112.974V12.504C112.974 11.8747 112.835 11.3787 112.558 11.016C112.281 10.6533 111.849 10.472 111.262 10.472C110.857 10.472 110.505 10.5413 110.206 10.68C109.918 10.8187 109.678 11.016 109.486 11.272C109.305 11.528 109.166 11.832 109.07 12.184C108.985 12.536 108.942 12.9253 108.942 13.352V17H107.694V11.288ZM124.217 16.664C124.217 18.0293 123.865 19.064 123.161 19.768C122.467 20.4827 121.459 20.84 120.137 20.84C119.401 20.84 118.734 20.7333 118.137 20.52C117.55 20.3067 116.99 19.9387 116.457 19.416L117.353 18.392C117.747 18.8187 118.163 19.1387 118.601 19.352C119.049 19.576 119.561 19.688 120.137 19.688C120.691 19.688 121.15 19.6027 121.513 19.432C121.886 19.272 122.179 19.048 122.393 18.76C122.606 18.4827 122.755 18.1627 122.841 17.8C122.926 17.4373 122.969 17.0587 122.969 16.664V15.704H122.937C122.638 16.184 122.249 16.536 121.769 16.76C121.289 16.984 120.798 17.096 120.297 17.096C119.71 17.096 119.171 17 118.681 16.808C118.19 16.616 117.769 16.3493 117.417 16.008C117.065 15.6667 116.793 15.2613 116.601 14.792C116.409 14.3227 116.313 13.8107 116.313 13.256C116.313 12.648 116.409 12.0987 116.601 11.608C116.793 11.1173 117.059 10.7067 117.401 10.376C117.753 10.0347 118.174 9.77333 118.665 9.592C119.155 9.41067 119.699 9.32 120.297 9.32C120.553 9.32 120.809 9.352 121.065 9.416C121.321 9.46933 121.566 9.56 121.801 9.688C122.046 9.80533 122.265 9.96 122.457 10.152C122.649 10.3333 122.809 10.5467 122.937 10.792H122.969V9.512H124.217V16.664ZM117.657 13.256C117.657 13.64 117.726 13.9973 117.865 14.328C118.003 14.648 118.19 14.9307 118.425 15.176C118.67 15.4107 118.953 15.5973 119.273 15.736C119.593 15.8747 119.934 15.944 120.297 15.944C120.723 15.944 121.102 15.8693 121.433 15.72C121.763 15.5707 122.041 15.3733 122.265 15.128C122.499 14.872 122.675 14.584 122.793 14.264C122.91 13.9333 122.969 13.5867 122.969 13.224C122.969 12.8187 122.905 12.4507 122.777 12.12C122.649 11.7787 122.467 11.4853 122.233 11.24C121.998 10.9947 121.715 10.808 121.385 10.68C121.054 10.5413 120.691 10.472 120.297 10.472C119.902 10.472 119.539 10.5467 119.209 10.696C118.889 10.8347 118.611 11.032 118.377 11.288C118.153 11.5333 117.977 11.8267 117.849 12.168C117.721 12.4987 117.657 12.8613 117.657 13.256ZM130.782 10.568H128.574V14.312C128.574 14.5573 128.579 14.7867 128.59 15C128.601 15.2027 128.643 15.384 128.718 15.544C128.793 15.6933 128.905 15.816 129.054 15.912C129.203 15.9973 129.417 16.04 129.694 16.04C129.875 16.04 130.062 16.0187 130.254 15.976C130.446 15.9333 130.627 15.8693 130.798 15.784L130.846 16.92C130.633 17.016 130.393 17.0853 130.126 17.128C129.87 17.1707 129.625 17.192 129.39 17.192C128.942 17.192 128.585 17.1333 128.318 17.016C128.051 16.8987 127.843 16.7333 127.694 16.52C127.545 16.3067 127.443 16.0453 127.39 15.736C127.347 15.416 127.326 15.064 127.326 14.68V10.568H125.694V9.512H127.326V7.384H128.574V9.512H130.782V10.568ZM132.486 4.904H133.734V10.552H133.766C133.852 10.4027 133.969 10.2587 134.118 10.12C134.268 9.97067 134.444 9.83733 134.646 9.72C134.86 9.60267 135.094 9.50667 135.35 9.432C135.606 9.35733 135.878 9.32 136.166 9.32C136.657 9.32 137.078 9.39467 137.43 9.544C137.793 9.69333 138.092 9.90133 138.326 10.168C138.561 10.4347 138.732 10.76 138.838 11.144C138.956 11.5173 139.014 11.928 139.014 12.376V17H137.766V12.504C137.766 11.8747 137.628 11.3787 137.35 11.016C137.073 10.6533 136.641 10.472 136.054 10.472C135.649 10.472 135.297 10.5413 134.998 10.68C134.71 10.8187 134.47 11.016 134.278 11.272C134.097 11.528 133.958 11.832 133.862 12.184C133.777 12.536 133.734 12.9253 133.734 13.352V17H132.486V4.904Z" fill="#5F6060"/>
<rect x="158" y="9" width="200" height="6" rx="3" fill="#D4D4D4"/>
<rect x="158" y="9" width="7" height="6" rx="3" fill="#F42525"/>
</svg>
