<svg width="28" height="28" viewBox="0 0 28 28" fill="none" xmlns="http://www.w3.org/2000/svg">
<path d="M4.57325 20.0435C5.81037 20.0435 6.81325 19.0406 6.81325 17.8035C6.81325 16.5664 5.81037 15.5635 4.57325 15.5635C3.33613 15.5635 2.33325 16.5664 2.33325 17.8035C2.33325 19.0406 3.33613 20.0435 4.57325 20.0435Z" stroke="#C4C4C5" stroke-miterlimit="10"/>
<path d="M10.3833 12.6001C11.6204 12.6001 12.6233 11.5972 12.6233 10.3601C12.6233 9.123 11.6204 8.12012 10.3833 8.12012C9.14619 8.12012 8.14331 9.123 8.14331 10.3601C8.14331 11.5972 9.14619 12.6001 10.3833 12.6001Z" stroke="#C4C4C5" stroke-miterlimit="10"/>
<path d="M17.3132 22.6099C18.5504 22.6099 19.5532 21.607 19.5532 20.3699C19.5532 19.1328 18.5504 18.1299 17.3132 18.1299C16.0761 18.1299 15.0732 19.1328 15.0732 20.3699C15.0732 21.607 16.0761 22.6099 17.3132 22.6099Z" stroke="#C4C4C5" stroke-miterlimit="10"/>
<path d="M23.4265 9.14699C24.6636 9.14699 25.6665 8.14411 25.6665 6.90699C25.6665 5.66987 24.6636 4.66699 23.4265 4.66699C22.1894 4.66699 21.1865 5.66987 21.1865 6.90699C21.1865 8.14411 22.1894 9.14699 23.4265 9.14699Z" stroke="#C4C4C5" stroke-miterlimit="10"/>
<path d="M5.94995 16.0421L9.00662 12.1221" stroke="#C4C4C5" stroke-miterlimit="10"/>
<path d="M16.03 18.5274L11.655 12.2041" stroke="#C4C4C5" stroke-miterlimit="10"/>
<path d="M18.2349 18.3282L22.4932 8.94824" stroke="#C4C4C5" stroke-miterlimit="10"/>
</svg>
