<svg width="28" height="28" viewBox="0 0 28 28" fill="none" xmlns="http://www.w3.org/2000/svg">
<path d="M4.57325 20.0425C5.81037 20.0425 6.81325 19.0396 6.81325 17.8025C6.81325 16.5654 5.81037 15.5625 4.57325 15.5625C3.33613 15.5625 2.33325 16.5654 2.33325 17.8025C2.33325 19.0396 3.33613 20.0425 4.57325 20.0425Z" fill="#6A51CA" stroke="#6A51CA" stroke-miterlimit="10"/>
<path d="M10.3833 12.5991C11.6204 12.5991 12.6233 11.5963 12.6233 10.3591C12.6233 9.12202 11.6204 8.11914 10.3833 8.11914C9.14619 8.11914 8.14331 9.12202 8.14331 10.3591C8.14331 11.5963 9.14619 12.5991 10.3833 12.5991Z" fill="#6A51CA" stroke="#6A51CA" stroke-miterlimit="10"/>
<path d="M17.3132 22.6089C18.5504 22.6089 19.5532 21.606 19.5532 20.3689C19.5532 19.1318 18.5504 18.1289 17.3132 18.1289C16.0761 18.1289 15.0732 19.1318 15.0732 20.3689C15.0732 21.606 16.0761 22.6089 17.3132 22.6089Z" fill="#6A51CA" stroke="#6A51CA" stroke-miterlimit="10"/>
<path d="M23.4265 9.14602C24.6636 9.14602 25.6665 8.14313 25.6665 6.90602C25.6665 5.6689 24.6636 4.66602 23.4265 4.66602C22.1894 4.66602 21.1865 5.6689 21.1865 6.90602C21.1865 8.14313 22.1894 9.14602 23.4265 9.14602Z" fill="#6A51CA" stroke="#6A51CA" stroke-miterlimit="10"/>
<path d="M5.94995 16.0411L9.00662 12.1211" stroke="#6A51CA" stroke-miterlimit="10"/>
<path d="M16.03 18.5265L11.655 12.2031" stroke="#6A51CA" stroke-miterlimit="10"/>
<path d="M18.2349 18.3273L22.4932 8.94727" stroke="#6A51CA" stroke-miterlimit="10"/>
</svg>
