<svg width="89" height="53" viewBox="0 0 89 53" fill="none" xmlns="http://www.w3.org/2000/svg">
<rect x="25.3333" y="0.333984" width="37.3333" height="2.33333" rx="1.16667" fill="#6A51CA"/>
<path d="M34.5733 27.0425C35.8104 27.0425 36.8133 26.0396 36.8133 24.8025C36.8133 23.5654 35.8104 22.5625 34.5733 22.5625C33.3361 22.5625 32.3333 23.5654 32.3333 24.8025C32.3333 26.0396 33.3361 27.0425 34.5733 27.0425Z" fill="#6A51CA" stroke="#6A51CA" stroke-miterlimit="10"/>
<path d="M40.3833 19.5991C41.6204 19.5991 42.6233 18.5963 42.6233 17.3591C42.6233 16.122 41.6204 15.1191 40.3833 15.1191C39.1462 15.1191 38.1433 16.122 38.1433 17.3591C38.1433 18.5963 39.1462 19.5991 40.3833 19.5991Z" fill="#6A51CA" stroke="#6A51CA" stroke-miterlimit="10"/>
<path d="M47.3132 29.6089C48.5504 29.6089 49.5532 28.606 49.5532 27.3689C49.5532 26.1318 48.5504 25.1289 47.3132 25.1289C46.0761 25.1289 45.0732 26.1318 45.0732 27.3689C45.0732 28.606 46.0761 29.6089 47.3132 29.6089Z" fill="#6A51CA" stroke="#6A51CA" stroke-miterlimit="10"/>
<path d="M53.4265 16.146C54.6636 16.146 55.6665 15.1431 55.6665 13.906C55.6665 12.6689 54.6636 11.666 53.4265 11.666C52.1894 11.666 51.1865 12.6689 51.1865 13.906C51.1865 15.1431 52.1894 16.146 53.4265 16.146Z" fill="#6A51CA" stroke="#6A51CA" stroke-miterlimit="10"/>
<path d="M35.95 23.0411L39.0066 19.1211" stroke="#6A51CA" stroke-miterlimit="10"/>
<path d="M46.03 25.5265L41.655 19.2031" stroke="#6A51CA" stroke-miterlimit="10"/>
<path d="M48.2349 25.3273L52.4932 15.9473" stroke="#6A51CA" stroke-miterlimit="10"/>
<path d="M17.1216 46H16.2576V38.296H13.4136V37.504H19.9656V38.296H17.1216V46ZM20.1027 42.136C20.1027 41.888 20.0947 41.636 20.0787 41.38C20.0707 41.124 20.0627 40.792 20.0547 40.384H20.8347V41.428H20.8587C20.9147 41.276 20.9947 41.132 21.0987 40.996C21.2027 40.852 21.3267 40.724 21.4707 40.612C21.6227 40.5 21.7947 40.412 21.9867 40.348C22.1867 40.276 22.4107 40.24 22.6587 40.24C22.8827 40.24 23.0787 40.264 23.2467 40.312L23.0907 41.092C22.9867 41.052 22.8347 41.032 22.6347 41.032C22.3307 41.032 22.0707 41.092 21.8547 41.212C21.6387 41.324 21.4587 41.472 21.3147 41.656C21.1707 41.832 21.0627 42.024 20.9907 42.232C20.9267 42.44 20.8947 42.64 20.8947 42.832V46H20.1027V42.136ZM25.275 38.224C25.275 38.392 25.215 38.532 25.095 38.644C24.975 38.748 24.843 38.8 24.699 38.8C24.555 38.8 24.423 38.748 24.303 38.644C24.183 38.532 24.123 38.392 24.123 38.224C24.123 38.056 24.183 37.92 24.303 37.816C24.423 37.704 24.555 37.648 24.699 37.648C24.843 37.648 24.975 37.704 25.095 37.816C25.215 37.92 25.275 38.056 25.275 38.224ZM25.095 46H24.303V40.384H25.095V46ZM32.2498 43.192C32.2498 42.88 32.1978 42.588 32.0938 42.316C31.9978 42.044 31.8578 41.808 31.6738 41.608C31.4898 41.408 31.2658 41.252 31.0018 41.14C30.7458 41.02 30.4538 40.96 30.1258 40.96C29.7978 40.96 29.4978 41.02 29.2258 41.14C28.9538 41.252 28.7178 41.408 28.5178 41.608C28.3178 41.808 28.1618 42.044 28.0498 42.316C27.9378 42.588 27.8818 42.88 27.8818 43.192C27.8818 43.504 27.9378 43.796 28.0498 44.068C28.1618 44.34 28.3178 44.576 28.5178 44.776C28.7178 44.976 28.9538 45.136 29.2258 45.256C29.4978 45.368 29.7978 45.424 30.1258 45.424C30.4538 45.424 30.7458 45.368 31.0018 45.256C31.2658 45.136 31.4898 44.976 31.6738 44.776C31.8578 44.576 31.9978 44.34 32.0938 44.068C32.1978 43.796 32.2498 43.504 32.2498 43.192ZM27.1258 40.384H27.9178V41.32H27.9418C28.0698 41.128 28.2218 40.964 28.3978 40.828C28.5738 40.692 28.7578 40.58 28.9498 40.492C29.1418 40.404 29.3378 40.34 29.5378 40.3C29.7458 40.26 29.9418 40.24 30.1258 40.24C30.5658 40.24 30.9658 40.316 31.3258 40.468C31.6938 40.612 32.0098 40.816 32.2738 41.08C32.5378 41.344 32.7418 41.656 32.8858 42.016C33.0378 42.376 33.1138 42.768 33.1138 43.192C33.1138 43.616 33.0378 44.008 32.8858 44.368C32.7418 44.728 32.5378 45.04 32.2738 45.304C32.0098 45.568 31.6938 45.776 31.3258 45.928C30.9658 46.072 30.5658 46.144 30.1258 46.144C29.9418 46.144 29.7458 46.124 29.5378 46.084C29.3378 46.044 29.1418 45.98 28.9498 45.892C28.7578 45.804 28.5738 45.692 28.3978 45.556C28.2218 45.42 28.0698 45.256 27.9418 45.064H27.9178V49.456H27.1258V40.384ZM38.3296 37.504H39.1936V41.188H43.8256V37.504H44.6896V46H43.8256V41.98H39.1936V46H38.3296V37.504ZM47.9738 38.224C47.9738 38.392 47.9138 38.532 47.7938 38.644C47.6738 38.748 47.5418 38.8 47.3978 38.8C47.2538 38.8 47.1218 38.748 47.0018 38.644C46.8818 38.532 46.8218 38.392 46.8218 38.224C46.8218 38.056 46.8818 37.92 47.0018 37.816C47.1218 37.704 47.2538 37.648 47.3978 37.648C47.5418 37.648 47.6738 37.704 47.7938 37.816C47.9138 37.92 47.9738 38.056 47.9738 38.224ZM47.7938 46H47.0018V40.384H47.7938V46ZM52.8006 41.716C52.6806 41.484 52.5206 41.3 52.3206 41.164C52.1206 41.028 51.8766 40.96 51.5886 40.96C51.4526 40.96 51.3126 40.976 51.1686 41.008C51.0326 41.04 50.9086 41.092 50.7966 41.164C50.6846 41.228 50.5926 41.312 50.5206 41.416C50.4566 41.52 50.4246 41.648 50.4246 41.8C50.4246 42.064 50.5166 42.256 50.7006 42.376C50.8846 42.496 51.1606 42.6 51.5286 42.688L52.3326 42.88C52.7246 42.968 53.0486 43.148 53.3046 43.42C53.5686 43.684 53.7006 44.016 53.7006 44.416C53.7006 44.72 53.6366 44.984 53.5086 45.208C53.3886 45.424 53.2246 45.604 53.0166 45.748C52.8166 45.884 52.5846 45.984 52.3206 46.048C52.0566 46.112 51.7886 46.144 51.5166 46.144C51.0846 46.144 50.6806 46.064 50.3046 45.904C49.9366 45.736 49.6206 45.452 49.3566 45.052L50.0406 44.584C50.2006 44.84 50.4006 45.044 50.6406 45.196C50.8886 45.348 51.1806 45.424 51.5166 45.424C51.6766 45.424 51.8366 45.408 51.9966 45.376C52.1566 45.336 52.2966 45.28 52.4166 45.208C52.5446 45.128 52.6446 45.028 52.7166 44.908C52.7966 44.788 52.8366 44.648 52.8366 44.488C52.8366 44.208 52.7326 44.008 52.5246 43.888C52.3166 43.76 52.0646 43.66 51.7686 43.588L51.0006 43.408C50.9046 43.384 50.7726 43.344 50.6046 43.288C50.4446 43.232 50.2846 43.148 50.1246 43.036C49.9726 42.924 49.8406 42.78 49.7286 42.604C49.6166 42.42 49.5606 42.196 49.5606 41.932C49.5606 41.644 49.6166 41.392 49.7286 41.176C49.8486 40.96 50.0046 40.784 50.1966 40.648C50.3966 40.512 50.6206 40.412 50.8686 40.348C51.1166 40.276 51.3726 40.24 51.6366 40.24C52.0286 40.24 52.3926 40.316 52.7286 40.468C53.0646 40.62 53.3246 40.88 53.5086 41.248L52.8006 41.716ZM57.958 41.104H56.338V44.416C56.338 44.624 56.358 44.796 56.398 44.932C56.438 45.06 56.494 45.16 56.566 45.232C56.638 45.304 56.722 45.356 56.818 45.388C56.922 45.412 57.034 45.424 57.154 45.424C57.29 45.424 57.43 45.404 57.574 45.364C57.718 45.324 57.85 45.272 57.97 45.208L58.006 45.94C57.71 46.076 57.354 46.144 56.938 46.144C56.786 46.144 56.626 46.124 56.458 46.084C56.298 46.044 56.15 45.968 56.014 45.856C55.878 45.744 55.766 45.592 55.678 45.4C55.59 45.208 55.546 44.956 55.546 44.644V41.104H54.358V40.384H55.546V38.8H56.338V40.384H57.958V41.104ZM63.9703 43.192C63.9703 42.88 63.9183 42.588 63.8143 42.316C63.7183 42.044 63.5783 41.808 63.3943 41.608C63.2103 41.408 62.9863 41.252 62.7223 41.14C62.4663 41.02 62.1743 40.96 61.8463 40.96C61.5183 40.96 61.2223 41.02 60.9583 41.14C60.7023 41.252 60.4823 41.408 60.2983 41.608C60.1223 41.808 59.9823 42.044 59.8783 42.316C59.7823 42.588 59.7343 42.88 59.7343 43.192C59.7343 43.504 59.7823 43.796 59.8783 44.068C59.9823 44.34 60.1223 44.576 60.2983 44.776C60.4823 44.976 60.7023 45.136 60.9583 45.256C61.2223 45.368 61.5183 45.424 61.8463 45.424C62.1743 45.424 62.4663 45.368 62.7223 45.256C62.9863 45.136 63.2103 44.976 63.3943 44.776C63.5783 44.576 63.7183 44.34 63.8143 44.068C63.9183 43.796 63.9703 43.504 63.9703 43.192ZM64.8343 43.192C64.8343 43.616 64.7583 44.008 64.6063 44.368C64.4623 44.728 64.2583 45.04 63.9943 45.304C63.7304 45.568 63.4144 45.776 63.0464 45.928C62.6863 46.072 62.2863 46.144 61.8463 46.144C61.4143 46.144 61.0143 46.072 60.6463 45.928C60.2863 45.776 59.9743 45.568 59.7103 45.304C59.4463 45.04 59.2383 44.728 59.0863 44.368C58.9423 44.008 58.8703 43.616 58.8703 43.192C58.8703 42.768 58.9423 42.376 59.0863 42.016C59.2383 41.656 59.4463 41.344 59.7103 41.08C59.9743 40.816 60.2863 40.612 60.6463 40.468C61.0143 40.316 61.4143 40.24 61.8463 40.24C62.2863 40.24 62.6863 40.316 63.0464 40.468C63.4144 40.612 63.7304 40.816 63.9943 41.08C64.2583 41.344 64.4623 41.656 64.6063 42.016C64.7583 42.376 64.8343 42.768 64.8343 43.192ZM66.4756 42.136C66.4756 41.888 66.4676 41.636 66.4516 41.38C66.4436 41.124 66.4356 40.792 66.4276 40.384H67.2076V41.428H67.2316C67.2876 41.276 67.3676 41.132 67.4716 40.996C67.5756 40.852 67.6996 40.724 67.8436 40.612C67.9956 40.5 68.1676 40.412 68.3596 40.348C68.5596 40.276 68.7836 40.24 69.0316 40.24C69.2556 40.24 69.4516 40.264 69.6196 40.312L69.4636 41.092C69.3596 41.052 69.2076 41.032 69.0076 41.032C68.7036 41.032 68.4436 41.092 68.2276 41.212C68.0116 41.324 67.8316 41.472 67.6876 41.656C67.5436 41.832 67.4356 42.024 67.3636 42.232C67.2996 42.44 67.2676 42.64 67.2676 42.832V46H66.4756V42.136ZM72.584 45.028L74.3 40.384H75.26L72.452 47.464C72.284 47.896 72.068 48.24 71.804 48.496C71.548 48.752 71.176 48.88 70.688 48.88C70.568 48.88 70.444 48.876 70.316 48.868C70.196 48.86 70.076 48.836 69.956 48.796L70.04 48.028C70.208 48.116 70.408 48.16 70.64 48.16C70.92 48.16 71.14 48.072 71.3 47.896C71.46 47.72 71.6 47.472 71.72 47.152L72.128 46.072L69.824 40.384H70.82L72.584 45.028Z" fill="#6A51CA"/>
</svg>
