<svg width="52" height="52" viewBox="0 0 52 52" fill="none" xmlns="http://www.w3.org/2000/svg">
<path d="M19.6 28.1331H32.4V42.7677C32.4 44.1117 31.312 45.1997 29.968 45.1997H22.032C20.688 45.1997 19.6 44.1117 19.6 42.7677V28.1331Z" stroke="#ECEDEB" stroke-width="1.5" stroke-miterlimit="10"/>
<path d="M15.3334 17.2103V19.4503C15.3334 20.1543 15.5254 20.837 15.8667 21.4557L19.6 28.133H32.4L36.1334 21.4557C36.496 20.837 36.6667 20.1543 36.6667 19.4503V17.2103C36.6667 16.165 35.7494 15.333 34.6187 15.333H17.3814C16.2507 15.333 15.3334 16.165 15.3334 17.2103Z" stroke="#ECEDEB" stroke-width="1.5" stroke-miterlimit="10"/>
<path d="M26.0001 32.3999V34.5332" stroke="#ECEDEB" stroke-width="1.5" stroke-miterlimit="10" stroke-linecap="round"/>
<path d="M25.936 7.86646V12.1331" stroke="#ECEDEB" stroke-width="1.5" stroke-miterlimit="10" stroke-linecap="round"/>
<path d="M35.6 8.93311L33.4667 12.1331" stroke="#ECEDEB" stroke-width="1.5" stroke-miterlimit="10" stroke-linecap="round"/>
<path d="M16.4 8.93311L18.5334 12.1331" stroke="#ECEDEB" stroke-width="1.5" stroke-miterlimit="10" stroke-linecap="round"/>
</svg>
