<svg width="22" height="22" viewBox="0 0 22 22" fill="none" xmlns="http://www.w3.org/2000/svg">
<path d="M11.0105 0.5C12.2915 0.5 13.52 1.004 14.423 1.9175C15.326 2.8205 15.8405 4.049 15.8405 5.33C15.8405 6.611 15.3365 7.8395 14.423 8.7425C13.52 9.6455 12.2915 10.16 11.0105 10.16C9.7295 10.16 8.501 9.656 7.598 8.7425C6.695 7.8395 6.1805 6.611 6.1805 5.33C6.1805 4.049 6.6845 2.8205 7.598 1.9175C8.501 1.0145 9.7295 0.5 11.0105 0.5V0.5ZM11.0105 21.5H10.895C10.811 21.5 10.6955 21.5 10.538 21.5C10.2335 21.5 9.7925 21.479 9.2675 21.458C8.2175 21.416 6.821 21.332 5.435 21.1535C4.0385 20.975 2.6945 20.723 1.7285 20.3555C1.2455 20.177 0.9095 19.988 0.6995 19.8095C0.5105 19.6415 0.5 19.547 0.5 19.5155C0.5 18.2555 1.571 16.7015 3.5975 15.41C5.582 14.15 8.2595 13.2785 11 13.2785C13.7405 13.2785 16.418 14.15 18.4025 15.41C20.429 16.712 21.5 18.2555 21.5 19.5155C21.5 19.547 21.5 19.6415 21.3005 19.8095C21.101 19.988 20.765 20.177 20.2715 20.3555C19.3055 20.723 17.9615 20.975 16.565 21.1535C15.179 21.332 13.7825 21.416 12.7325 21.458C12.2075 21.479 11.7665 21.4895 11.462 21.5C11.3045 21.5 11.189 21.5 11.105 21.5H11.0105H10.9895H11.0105Z" stroke="#C4C4C5"/>
</svg>
