<svg width="28" height="28" viewBox="0 0 28 28" fill="none" xmlns="http://www.w3.org/2000/svg">
<path d="M14.0105 3.5C15.2915 3.5 16.52 4.004 17.423 4.9175C18.326 5.8205 18.8405 7.049 18.8405 8.33C18.8405 9.611 18.3365 10.8395 17.423 11.7425C16.52 12.6455 15.2915 13.16 14.0105 13.16C12.7295 13.16 11.501 12.656 10.598 11.7425C9.695 10.8395 9.1805 9.611 9.1805 8.33C9.1805 7.049 9.6845 5.8205 10.598 4.9175C11.501 4.0145 12.7295 3.5 14.0105 3.5V3.5ZM14.0105 24.5H13.895C13.811 24.5 13.6955 24.5 13.538 24.5C13.2335 24.5 12.7925 24.479 12.2675 24.458C11.2175 24.416 9.821 24.332 8.435 24.1535C7.0385 23.975 5.6945 23.723 4.7285 23.3555C4.2455 23.177 3.9095 22.988 3.6995 22.8095C3.5105 22.6415 3.5 22.547 3.5 22.5155C3.5 21.2555 4.571 19.7015 6.5975 18.41C8.582 17.15 11.2595 16.2785 14 16.2785C16.7405 16.2785 19.418 17.15 21.4025 18.41C23.429 19.712 24.5 21.2555 24.5 22.5155C24.5 22.547 24.5 22.6415 24.3005 22.8095C24.101 22.988 23.765 23.177 23.2715 23.3555C22.3055 23.723 20.9615 23.975 19.565 24.1535C18.179 24.332 16.7825 24.416 15.7325 24.458C15.2075 24.479 14.7665 24.4895 14.462 24.5C14.3045 24.5 14.189 24.5 14.105 24.5H14.0105H13.9895H14.0105Z" stroke="#C4C4C5"/>
</svg>
