<svg width="72" height="52" viewBox="0 0 72 52" fill="none" xmlns="http://www.w3.org/2000/svg">
<rect x="17.3335" y="0.332031" width="37.3333" height="2.33333" rx="1.16667" fill="#6A51CA"/>
<path d="M36.0105 10.5C37.2915 10.5 38.52 11.004 39.423 11.9175C40.326 12.8205 40.8405 14.049 40.8405 15.33C40.8405 16.611 40.3365 17.8395 39.423 18.7425C38.52 19.6455 37.2915 20.16 36.0105 20.16C34.7295 20.16 33.501 19.656 32.598 18.7425C31.695 17.8395 31.1805 16.611 31.1805 15.33C31.1805 14.049 31.6845 12.8205 32.598 11.9175C33.501 11.0145 34.7295 10.5 36.0105 10.5ZM36.0105 31.5H35.895C35.811 31.5 35.6955 31.5 35.538 31.5C35.2335 31.5 34.7925 31.479 34.2675 31.458C33.2175 31.416 31.821 31.332 30.435 31.1535C29.0385 30.975 27.6945 30.723 26.7285 30.3555C26.2455 30.177 25.9095 29.988 25.6995 29.8095C25.5105 29.6415 25.5 29.547 25.5 29.5155C25.5 28.2555 26.571 26.7015 28.5975 25.41C30.582 24.15 33.2595 23.2785 36 23.2785C38.7405 23.2785 41.418 24.15 43.4025 25.41C45.429 26.712 46.5 28.2555 46.5 29.5155C46.5 29.547 46.5 29.6415 46.3005 29.8095C46.101 29.988 45.765 30.177 45.2715 30.3555C44.3055 30.723 42.9615 30.975 41.565 31.1535C40.179 31.332 38.7825 31.416 37.7325 31.458C37.2075 31.479 36.7665 31.4895 36.462 31.5C36.3045 31.5 36.189 31.5 36.105 31.5H36.0105H35.9895H36.0105Z" fill="#6A51CA"/>
<path d="M36.0105 10.5C37.2915 10.5 38.52 11.004 39.423 11.9175C40.326 12.8205 40.8405 14.049 40.8405 15.33C40.8405 16.611 40.3365 17.8395 39.423 18.7425C38.52 19.6455 37.2915 20.16 36.0105 20.16C34.7295 20.16 33.501 19.656 32.598 18.7425C31.695 17.8395 31.1805 16.611 31.1805 15.33C31.1805 14.049 31.6845 12.8205 32.598 11.9175C33.501 11.0145 34.7295 10.5 36.0105 10.5V10.5ZM36.0105 31.5H35.895C35.811 31.5 35.6955 31.5 35.538 31.5C35.2335 31.5 34.7925 31.479 34.2675 31.458C33.2175 31.416 31.821 31.332 30.435 31.1535C29.0385 30.975 27.6945 30.723 26.7285 30.3555C26.2455 30.177 25.9095 29.988 25.6995 29.8095C25.5105 29.6415 25.5 29.547 25.5 29.5155C25.5 28.2555 26.571 26.7015 28.5975 25.41C30.582 24.15 33.2595 23.2785 36 23.2785C38.7405 23.2785 41.418 24.15 43.4025 25.41C45.429 26.712 46.5 28.2555 46.5 29.5155C46.5 29.547 46.5 29.6415 46.3005 29.8095C46.101 29.988 45.765 30.177 45.2715 30.3555C44.3055 30.723 42.9615 30.975 41.565 31.1535C40.179 31.332 38.7825 31.416 37.7325 31.458C37.2075 31.479 36.7665 31.4895 36.462 31.5C36.3045 31.5 36.189 31.5 36.105 31.5H36.0105H35.9895H36.0105Z" stroke="#6A51CA"/>
<path d="M8.77851 44.416L11.6465 37.504H12.9665V46H12.1025V38.656H12.0785L9.00651 46H8.55052L5.47851 38.656H5.45451V46H4.59051V37.504H5.91051L8.77851 44.416ZM17.1863 45.028L18.9023 40.384H19.8623L17.0543 47.464C16.8863 47.896 16.6703 48.24 16.4063 48.496C16.1503 48.752 15.7783 48.88 15.2903 48.88C15.1703 48.88 15.0463 48.876 14.9183 48.868C14.7983 48.86 14.6783 48.836 14.5583 48.796L14.6423 48.028C14.8103 48.116 15.0103 48.16 15.2423 48.16C15.5223 48.16 15.7423 48.072 15.9023 47.896C16.0623 47.72 16.2023 47.472 16.3223 47.152L16.7303 46.072L14.4263 40.384H15.4223L17.1863 45.028ZM25.8712 42.976H29.5552L27.7192 38.512L25.8712 42.976ZM24.6112 46H23.6032L27.2992 37.504H28.1392L31.8352 46H30.8272L29.8912 43.768H25.5472L24.6112 46ZM36.9058 41.704C36.7698 41.496 36.5778 41.32 36.3298 41.176C36.0898 41.032 35.8138 40.96 35.5018 40.96C35.1738 40.952 34.8778 41.004 34.6138 41.116C34.3578 41.228 34.1378 41.384 33.9538 41.584C33.7698 41.784 33.6298 42.024 33.5338 42.304C33.4378 42.576 33.3898 42.872 33.3898 43.192C33.3898 43.512 33.4378 43.812 33.5338 44.092C33.6298 44.364 33.7698 44.6 33.9538 44.8C34.1378 45 34.3578 45.156 34.6138 45.268C34.8778 45.38 35.1738 45.432 35.5018 45.424C35.8138 45.424 36.0898 45.352 36.3298 45.208C36.5778 45.064 36.7698 44.888 36.9058 44.68L37.5538 45.172C37.2738 45.5 36.9578 45.744 36.6058 45.904C36.2538 46.056 35.8858 46.136 35.5018 46.144C35.0458 46.152 34.6338 46.084 34.2658 45.94C33.8978 45.788 33.5818 45.58 33.3178 45.316C33.0618 45.052 32.8658 44.74 32.7298 44.38C32.5938 44.012 32.5258 43.616 32.5258 43.192C32.5258 42.768 32.5938 42.376 32.7298 42.016C32.8658 41.648 33.0618 41.332 33.3178 41.068C33.5818 40.804 33.8978 40.6 34.2658 40.456C34.6338 40.304 35.0458 40.232 35.5018 40.24C35.8858 40.248 36.2538 40.332 36.6058 40.492C36.9578 40.644 37.2738 40.884 37.5538 41.212L36.9058 41.704ZM42.8148 41.704C42.6788 41.496 42.4868 41.32 42.2388 41.176C41.9988 41.032 41.7228 40.96 41.4108 40.96C41.0828 40.952 40.7868 41.004 40.5228 41.116C40.2668 41.228 40.0468 41.384 39.8628 41.584C39.6788 41.784 39.5388 42.024 39.4428 42.304C39.3468 42.576 39.2988 42.872 39.2988 43.192C39.2988 43.512 39.3468 43.812 39.4428 44.092C39.5388 44.364 39.6788 44.6 39.8628 44.8C40.0468 45 40.2668 45.156 40.5228 45.268C40.7868 45.38 41.0828 45.432 41.4108 45.424C41.7228 45.424 41.9988 45.352 42.2388 45.208C42.4868 45.064 42.6788 44.888 42.8148 44.68L43.4628 45.172C43.1828 45.5 42.8668 45.744 42.5148 45.904C42.1628 46.056 41.7948 46.136 41.4108 46.144C40.9548 46.152 40.5428 46.084 40.1748 45.94C39.8068 45.788 39.4908 45.58 39.2268 45.316C38.9708 45.052 38.7748 44.74 38.6388 44.38C38.5028 44.012 38.4348 43.616 38.4348 43.192C38.4348 42.768 38.5028 42.376 38.6388 42.016C38.7748 41.648 38.9708 41.332 39.2268 41.068C39.4908 40.804 39.8068 40.6 40.1748 40.456C40.5428 40.304 40.9548 40.232 41.4108 40.24C41.7948 40.248 42.1628 40.332 42.5148 40.492C42.8668 40.644 43.1828 40.884 43.4628 41.212L42.8148 41.704ZM49.4439 43.192C49.4439 42.88 49.3919 42.588 49.2879 42.316C49.1919 42.044 49.0519 41.808 48.8679 41.608C48.6839 41.408 48.4599 41.252 48.1959 41.14C47.9399 41.02 47.6479 40.96 47.3199 40.96C46.9919 40.96 46.6959 41.02 46.4319 41.14C46.1759 41.252 45.9559 41.408 45.7719 41.608C45.5959 41.808 45.4559 42.044 45.3519 42.316C45.2559 42.588 45.2079 42.88 45.2079 43.192C45.2079 43.504 45.2559 43.796 45.3519 44.068C45.4559 44.34 45.5959 44.576 45.7719 44.776C45.9559 44.976 46.1759 45.136 46.4319 45.256C46.6959 45.368 46.9919 45.424 47.3199 45.424C47.6479 45.424 47.9399 45.368 48.1959 45.256C48.4599 45.136 48.6839 44.976 48.8679 44.776C49.0519 44.576 49.1919 44.34 49.2879 44.068C49.3919 43.796 49.4439 43.504 49.4439 43.192ZM50.3079 43.192C50.3079 43.616 50.2319 44.008 50.0799 44.368C49.9359 44.728 49.7319 45.04 49.4679 45.304C49.2039 45.568 48.8879 45.776 48.5199 45.928C48.1599 46.072 47.7599 46.144 47.3199 46.144C46.8879 46.144 46.4879 46.072 46.1199 45.928C45.7599 45.776 45.4479 45.568 45.1839 45.304C44.9199 45.04 44.7119 44.728 44.5599 44.368C44.4159 44.008 44.3439 43.616 44.3439 43.192C44.3439 42.768 44.4159 42.376 44.5599 42.016C44.7119 41.656 44.9199 41.344 45.1839 41.08C45.4479 40.816 45.7599 40.612 46.1199 40.468C46.4879 40.316 46.8879 40.24 47.3199 40.24C47.7599 40.24 48.1599 40.316 48.5199 40.468C48.8879 40.612 49.2039 40.816 49.4679 41.08C49.7319 41.344 49.9359 41.656 50.0799 42.016C50.2319 42.376 50.3079 42.768 50.3079 43.192ZM55.9212 46C55.9052 45.848 55.8932 45.7 55.8852 45.556C55.8852 45.404 55.8852 45.252 55.8852 45.1H55.8612C55.7732 45.252 55.6612 45.392 55.5252 45.52C55.3892 45.648 55.2372 45.76 55.0692 45.856C54.9012 45.944 54.7212 46.012 54.5292 46.06C54.3452 46.116 54.1612 46.144 53.9772 46.144C53.2572 46.144 52.7252 45.956 52.3812 45.58C52.0372 45.196 51.8652 44.652 51.8652 43.948V40.384H52.6572V43.492C52.6572 43.804 52.6812 44.08 52.7292 44.32C52.7772 44.56 52.8572 44.764 52.9692 44.932C53.0892 45.092 53.2452 45.216 53.4372 45.304C53.6372 45.384 53.8852 45.424 54.1812 45.424C54.2212 45.424 54.3332 45.408 54.5172 45.376C54.7012 45.344 54.8932 45.256 55.0932 45.112C55.3012 44.968 55.4852 44.752 55.6452 44.464C55.8052 44.176 55.8852 43.776 55.8852 43.264V40.384H56.6772V44.764C56.6772 44.916 56.6812 45.108 56.6892 45.34C56.7052 45.572 56.7212 45.792 56.7372 46H55.9212ZM59.4091 40.384C59.4251 40.536 59.4331 40.688 59.4331 40.84C59.4411 40.984 59.4451 41.132 59.4451 41.284H59.4691C59.5571 41.132 59.6691 40.992 59.8051 40.864C59.9411 40.736 60.0931 40.628 60.2611 40.54C60.4291 40.444 60.6051 40.372 60.7891 40.324C60.9811 40.268 61.1691 40.24 61.3531 40.24C62.0731 40.24 62.6051 40.432 62.9491 40.816C63.2931 41.192 63.4651 41.732 63.4651 42.436V46H62.6731V42.892C62.6731 42.268 62.5651 41.792 62.3491 41.464C62.1331 41.128 61.7331 40.96 61.1491 40.96C61.1091 40.96 60.9971 40.976 60.8131 41.008C60.6291 41.04 60.4331 41.128 60.2251 41.272C60.0251 41.416 59.8451 41.632 59.6851 41.92C59.5251 42.208 59.4451 42.608 59.4451 43.12V46H58.6531V41.62C58.6531 41.468 58.6451 41.276 58.6291 41.044C58.6211 40.812 58.6091 40.592 58.5931 40.384H59.4091ZM68.3451 41.104H66.7251V44.416C66.7251 44.624 66.7451 44.796 66.7851 44.932C66.8251 45.06 66.8811 45.16 66.9531 45.232C67.0251 45.304 67.1091 45.356 67.2051 45.388C67.3091 45.412 67.4211 45.424 67.5411 45.424C67.6771 45.424 67.8171 45.404 67.9611 45.364C68.1051 45.324 68.2371 45.272 68.3571 45.208L68.3931 45.94C68.0971 46.076 67.7411 46.144 67.3251 46.144C67.1731 46.144 67.0131 46.124 66.8451 46.084C66.6851 46.044 66.5371 45.968 66.4011 45.856C66.2651 45.744 66.1531 45.592 66.0651 45.4C65.9771 45.208 65.9331 44.956 65.9331 44.644V41.104H64.7451V40.384H65.9331V38.8H66.7251V40.384H68.3451V41.104Z" fill="#6A51CA"/>
</svg>
