<svg width="80" height="45" viewBox="0 0 80 45" fill="none" xmlns="http://www.w3.org/2000/svg">
<path d="M40.0105 3.5C41.2915 3.5 42.52 4.004 43.423 4.9175C44.326 5.8205 44.8405 7.049 44.8405 8.33C44.8405 9.611 44.3365 10.8395 43.423 11.7425C42.52 12.6455 41.2915 13.16 40.0105 13.16C38.7295 13.16 37.501 12.656 36.598 11.7425C35.695 10.8395 35.1805 9.611 35.1805 8.33C35.1805 7.049 35.6845 5.8205 36.598 4.9175C37.501 4.0145 38.7295 3.5 40.0105 3.5V3.5ZM40.0105 24.5H39.895C39.811 24.5 39.6955 24.5 39.538 24.5C39.2335 24.5 38.7925 24.479 38.2675 24.458C37.2175 24.416 35.821 24.332 34.435 24.1535C33.0385 23.975 31.6945 23.723 30.7285 23.3555C30.2455 23.177 29.9095 22.988 29.6995 22.8095C29.5105 22.6415 29.5 22.547 29.5 22.5155C29.5 21.2555 30.571 19.7015 32.5975 18.41C34.582 17.15 37.2595 16.2785 40 16.2785C42.7405 16.2785 45.418 17.15 47.4025 18.41C49.429 19.712 50.5 21.2555 50.5 22.5155C50.5 22.547 50.5 22.6415 50.3005 22.8095C50.101 22.988 49.765 23.177 49.2715 23.3555C48.3055 23.723 46.9615 23.975 45.565 24.1535C44.179 24.332 42.7825 24.416 41.7325 24.458C41.2075 24.479 40.7665 24.4895 40.462 24.5C40.3045 24.5 40.189 24.5 40.105 24.5H40.0105H39.9895H40.0105Z" stroke="#C4C4C5"/>
<path d="M8.15467 30.504H9.65467L12.5347 37.164H12.5587L15.4627 30.504H16.9267V39H15.9187V31.872H15.8947L12.8467 39H12.2347L9.18667 31.872H9.16267V39H8.15467V30.504ZM21.0574 40.284C20.9614 40.524 20.8614 40.74 20.7574 40.932C20.6614 41.132 20.5414 41.3 20.3974 41.436C20.2614 41.58 20.0934 41.688 19.8934 41.76C19.7014 41.84 19.4654 41.88 19.1854 41.88C19.0494 41.88 18.9054 41.872 18.7534 41.856C18.6094 41.84 18.4734 41.8 18.3454 41.736L18.4654 40.92C18.5614 40.96 18.6614 40.984 18.7654 40.992C18.8694 41.008 18.9894 41.016 19.1254 41.016C19.4294 41.016 19.6534 40.932 19.7974 40.764C19.9414 40.596 20.0654 40.372 20.1694 40.092L20.5534 39.036L18.2254 33.384H19.3174L21.0574 37.788H21.0814L22.7494 33.384H23.7694L21.0574 40.284ZM31.2903 30.504H32.2383L35.8503 39H34.6743L33.8103 36.912H29.5623L28.6863 39H27.5463L31.2903 30.504ZM31.7463 31.8H31.7223L29.9583 35.976H33.4263L31.7463 31.8ZM40.9275 34.788C40.7275 34.548 40.5115 34.376 40.2795 34.272C40.0475 34.16 39.7915 34.104 39.5115 34.104C39.1995 34.104 38.9235 34.16 38.6835 34.272C38.4435 34.376 38.2435 34.524 38.0835 34.716C37.9315 34.908 37.8155 35.132 37.7355 35.388C37.6555 35.636 37.6155 35.904 37.6155 36.192C37.6155 36.48 37.6595 36.752 37.7475 37.008C37.8435 37.256 37.9715 37.476 38.1315 37.668C38.2995 37.86 38.4995 38.012 38.7315 38.124C38.9635 38.228 39.2235 38.28 39.5115 38.28C40.1275 38.28 40.6035 38.048 40.9395 37.584L41.6355 38.244C41.3635 38.556 41.0435 38.784 40.6755 38.928C40.3075 39.072 39.9195 39.144 39.5115 39.144C39.0795 39.144 38.6835 39.072 38.3235 38.928C37.9635 38.784 37.6555 38.58 37.3995 38.316C37.1515 38.052 36.9555 37.74 36.8115 37.38C36.6755 37.02 36.6075 36.624 36.6075 36.192C36.6075 35.768 36.6755 35.376 36.8115 35.016C36.9555 34.656 37.1555 34.344 37.4115 34.08C37.6675 33.816 37.9715 33.612 38.3235 33.468C38.6835 33.316 39.0795 33.24 39.5115 33.24C39.9275 33.24 40.3195 33.312 40.6875 33.456C41.0635 33.6 41.3915 33.824 41.6715 34.128L40.9275 34.788ZM46.8366 34.788C46.6366 34.548 46.4206 34.376 46.1886 34.272C45.9566 34.16 45.7006 34.104 45.4206 34.104C45.1086 34.104 44.8326 34.16 44.5926 34.272C44.3526 34.376 44.1526 34.524 43.9926 34.716C43.8406 34.908 43.7246 35.132 43.6446 35.388C43.5646 35.636 43.5246 35.904 43.5246 36.192C43.5246 36.48 43.5686 36.752 43.6566 37.008C43.7526 37.256 43.8806 37.476 44.0406 37.668C44.2086 37.86 44.4086 38.012 44.6406 38.124C44.8726 38.228 45.1326 38.28 45.4206 38.28C46.0366 38.28 46.5126 38.048 46.8486 37.584L47.5446 38.244C47.2726 38.556 46.9526 38.784 46.5846 38.928C46.2166 39.072 45.8286 39.144 45.4206 39.144C44.9886 39.144 44.5926 39.072 44.2326 38.928C43.8726 38.784 43.5646 38.58 43.3086 38.316C43.0606 38.052 42.8646 37.74 42.7206 37.38C42.5846 37.02 42.5166 36.624 42.5166 36.192C42.5166 35.768 42.5846 35.376 42.7206 35.016C42.8646 34.656 43.0646 34.344 43.3206 34.08C43.5766 33.816 43.8806 33.612 44.2326 33.468C44.5926 33.316 44.9886 33.24 45.4206 33.24C45.8366 33.24 46.2286 33.312 46.5966 33.456C46.9726 33.6 47.3006 33.824 47.5806 34.128L46.8366 34.788ZM48.4256 36.192C48.4256 35.752 48.5016 35.352 48.6536 34.992C48.8056 34.632 49.0136 34.324 49.2776 34.068C49.5416 33.804 49.8576 33.6 50.2256 33.456C50.5936 33.312 50.9936 33.24 51.4256 33.24C51.8576 33.24 52.2576 33.312 52.6256 33.456C52.9936 33.6 53.3096 33.804 53.5736 34.068C53.8376 34.324 54.0456 34.632 54.1976 34.992C54.3496 35.352 54.4256 35.752 54.4256 36.192C54.4256 36.632 54.3496 37.032 54.1976 37.392C54.0456 37.752 53.8376 38.064 53.5736 38.328C53.3096 38.584 52.9936 38.784 52.6256 38.928C52.2576 39.072 51.8576 39.144 51.4256 39.144C50.9936 39.144 50.5936 39.072 50.2256 38.928C49.8576 38.784 49.5416 38.584 49.2776 38.328C49.0136 38.064 48.8056 37.752 48.6536 37.392C48.5016 37.032 48.4256 36.632 48.4256 36.192ZM49.4336 36.192C49.4336 36.488 49.4776 36.764 49.5656 37.02C49.6616 37.268 49.7976 37.488 49.9736 37.68C50.1496 37.864 50.3576 38.012 50.5976 38.124C50.8456 38.228 51.1216 38.28 51.4256 38.28C51.7296 38.28 52.0016 38.228 52.2416 38.124C52.4896 38.012 52.7016 37.864 52.8776 37.68C53.0536 37.488 53.1856 37.268 53.2736 37.02C53.3696 36.764 53.4176 36.488 53.4176 36.192C53.4176 35.896 53.3696 35.624 53.2736 35.376C53.1856 35.12 53.0536 34.9 52.8776 34.716C52.7016 34.524 52.4896 34.376 52.2416 34.272C52.0016 34.16 51.7296 34.104 51.4256 34.104C51.1216 34.104 50.8456 34.16 50.5976 34.272C50.3576 34.376 50.1496 34.524 49.9736 34.716C49.7976 34.9 49.6616 35.12 49.5656 35.376C49.4776 35.624 49.4336 35.896 49.4336 36.192ZM60.8906 37.668C60.8906 37.924 60.8986 38.164 60.9146 38.388C60.9306 38.612 60.9386 38.816 60.9386 39H60.0506C60.0506 38.848 60.0466 38.696 60.0386 38.544C60.0306 38.392 60.0266 38.236 60.0266 38.076H60.0026C59.9386 38.212 59.8466 38.344 59.7266 38.472C59.6146 38.6 59.4786 38.716 59.3186 38.82C59.1586 38.916 58.9786 38.992 58.7786 39.048C58.5786 39.112 58.3626 39.144 58.1306 39.144C57.7626 39.144 57.4426 39.088 57.1706 38.976C56.9066 38.864 56.6866 38.708 56.5106 38.508C56.3346 38.308 56.2026 38.068 56.1146 37.788C56.0346 37.5 55.9946 37.188 55.9946 36.852V33.384H56.9306V36.756C56.9306 37.228 57.0346 37.6 57.2426 37.872C57.4506 38.144 57.7746 38.28 58.2146 38.28C58.5186 38.28 58.7786 38.228 58.9946 38.124C59.2186 38.02 59.3986 37.872 59.5346 37.68C59.6786 37.488 59.7826 37.26 59.8466 36.996C59.9186 36.732 59.9546 36.44 59.9546 36.12V33.384H60.8906V37.668ZM62.7826 34.716C62.7826 34.46 62.7746 34.22 62.7586 33.996C62.7426 33.772 62.7346 33.568 62.7346 33.384H63.6226C63.6226 33.536 63.6266 33.688 63.6346 33.84C63.6426 33.992 63.6466 34.148 63.6466 34.308H63.6706C63.7346 34.172 63.8226 34.04 63.9346 33.912C64.0546 33.784 64.1946 33.672 64.3546 33.576C64.5146 33.472 64.6946 33.392 64.8946 33.336C65.0946 33.272 65.3106 33.24 65.5426 33.24C65.9106 33.24 66.2266 33.296 66.4906 33.408C66.7626 33.52 66.9866 33.676 67.1626 33.876C67.3386 34.076 67.4666 34.32 67.5466 34.608C67.6346 34.888 67.6786 35.196 67.6786 35.532V39H66.7426V35.628C66.7426 35.156 66.6386 34.784 66.4306 34.512C66.2226 34.24 65.8986 34.104 65.4586 34.104C65.1546 34.104 64.8906 34.156 64.6666 34.26C64.4506 34.364 64.2706 34.512 64.1266 34.704C63.9906 34.896 63.8866 35.124 63.8146 35.388C63.7506 35.652 63.7186 35.944 63.7186 36.264V39H62.7826V34.716ZM72.6426 34.176H70.9866V36.984C70.9866 37.168 70.9906 37.34 70.9986 37.5C71.0066 37.652 71.0386 37.788 71.0946 37.908C71.1506 38.02 71.2346 38.112 71.3466 38.184C71.4586 38.248 71.6186 38.28 71.8266 38.28C71.9626 38.28 72.1026 38.264 72.2466 38.232C72.3906 38.2 72.5266 38.152 72.6546 38.088L72.6906 38.94C72.5306 39.012 72.3506 39.064 72.1506 39.096C71.9586 39.128 71.7746 39.144 71.5986 39.144C71.2626 39.144 70.9946 39.1 70.7946 39.012C70.5946 38.924 70.4386 38.8 70.3266 38.64C70.2146 38.48 70.1386 38.284 70.0986 38.052C70.0666 37.812 70.0506 37.548 70.0506 37.26V34.176H68.8266V33.384H70.0506V31.788H70.9866V33.384H72.6426V34.176Z" fill="#C4C4C5"/>
</svg>
