<svg width="36" height="37" viewBox="0 0 36 37" fill="none" xmlns="http://www.w3.org/2000/svg">
<path d="M18 30.5C24.6274 30.5 30 25.1274 30 18.5C30 11.8726 24.6274 6.5 18 6.5C11.3726 6.5 6 11.8726 6 18.5C6 25.1274 11.3726 30.5 18 30.5Z" fill="#F8E7C9"/>
<path d="M16.5 24.1895C16.5 23.3984 17.1567 22.71 17.9925 22.71C18.8284 22.71 19.4851 23.3984 19.4851 24.1895C19.4851 24.9805 18.8284 25.6396 17.9925 25.6396C17.1567 25.6396 16.5 24.9658 16.5 24.1895Z" fill="#E69200"/>
<path d="M19.4854 11.9727C19.4854 12.7783 19.1868 14.8437 18.8286 17.876L18.4704 20.8936H17.5003L17.1421 17.876C16.7839 14.8291 16.4854 12.7637 16.4854 11.9727C16.4854 11.0352 17.0525 10.6396 17.9779 10.6396C18.9033 10.6396 19.4704 11.0352 19.4704 11.9727H19.4854Z" fill="#E69200"/>
</svg>
