<svg width="31" height="40" viewBox="0 0 31 40" fill="none" xmlns="http://www.w3.org/2000/svg">
<path d="M15.5 1C7.51546 1 1 7.32146 1 15.1724C1 20.5901 4.29093 26.5208 7.55682 30.985C9.20857 33.2428 10.8946 35.1801 12.2405 36.5597C12.9122 37.2481 13.5097 37.8084 13.9841 38.2038C14.2192 38.3998 14.4409 38.5694 14.6371 38.6958C14.7343 38.7585 14.8441 38.8228 14.9592 38.8747C15.0499 38.9157 15.251 39 15.5 39C15.749 39 15.9501 38.9157 16.0408 38.8747C16.1559 38.8228 16.2657 38.7585 16.3629 38.6958C16.5591 38.5694 16.7808 38.3998 17.0159 38.2038C17.4903 37.8084 18.0878 37.2481 18.7595 36.5597C20.1054 35.1801 21.7914 33.2428 23.4432 30.985C26.7091 26.5208 30 20.5901 30 15.1724C30 7.32146 23.4845 1 15.5 1Z" fill="#6A51CA" stroke="#6A51CA" stroke-width="2" stroke-miterlimit="10" stroke-linecap="round"/>
<path d="M10.1186 14.7305H20.8813C21.3016 14.7305 21.6501 15.079 21.6501 15.4992V19.5993C21.6501 21.8646 19.8153 23.6994 17.55 23.6994H13.4499C11.1846 23.6994 9.34985 21.8646 9.34985 19.5993V15.4992C9.34985 15.079 9.69836 14.7305 10.1186 14.7305Z" fill="#ECEDEB" stroke="#ECEDEB" stroke-width="1.5" stroke-linecap="round" stroke-linejoin="round"/>
<path d="M11.3999 14.4748L11.3999 10.7636C11.3999 8.85356 13.2407 7.2998 15.4999 7.2998C17.759 7.2998 19.5999 8.85356 19.5999 10.7636V14.4748" stroke="#ECEDEB" stroke-width="1.5" stroke-linecap="round" stroke-linejoin="round"/>
<path d="M15.5 19.4561V21.2498" stroke="#6A51CA" stroke-width="1.5" stroke-linecap="round" stroke-linejoin="round"/>
</svg>
