<svg width="28" height="28" viewBox="0 0 28 28" fill="none" xmlns="http://www.w3.org/2000/svg">
<g clip-path="url(#clip0_1909_30480)">
<path d="M22.435 11.2108C22.26 6.82417 18.655 3.3125 14.2334 3.3125C9.8117 3.3125 6.19504 6.83583 6.0317 11.2108C5.04004 11.5608 4.32837 12.5058 4.32837 13.6142V15.8775C4.32837 17.2892 5.4717 18.4325 6.88337 18.4325C8.29504 18.4325 9.43837 17.2892 9.43837 15.8775V13.6142C9.43837 12.5175 8.73837 11.5842 7.77004 11.2225C7.93337 7.7925 10.7684 5.0625 14.2334 5.0625C17.6984 5.0625 20.5334 7.80417 20.6967 11.2225C19.7284 11.5842 19.0284 12.5175 19.0284 13.6142V15.8775C19.0284 16.8575 19.5767 17.6975 20.3934 18.1292C19.32 20.4625 16.975 22.0842 14.245 22.0842C14.14 22.0842 14.035 22.0608 13.93 22.0608C13.79 21.7108 13.51 21.4192 13.1134 21.3025L12.0634 20.9992C11.3867 20.8008 10.675 21.1975 10.4767 21.8858C10.2784 22.5625 10.675 23.2742 11.3634 23.4725L12.4134 23.7758C12.9734 23.9392 13.5217 23.6942 13.825 23.2275C13.965 23.2275 14.105 23.2625 14.245 23.2625C17.5117 23.2625 20.3234 21.2792 21.5367 18.4442C21.56 18.4442 21.5717 18.4442 21.595 18.4442C23.0067 18.4442 24.15 17.3008 24.15 15.8892V13.6258C24.15 12.5175 23.4384 11.5725 22.4467 11.2225L22.435 11.2108Z" fill="#383838"/>
</g>
<defs>
<clipPath id="clip0_1909_30480">
<rect width="28" height="28" fill="white"/>
</clipPath>
</defs>
</svg>
