<svg width="28" height="28" viewBox="0 0 28 28" fill="none" xmlns="http://www.w3.org/2000/svg">
<g clip-path="url(#clip0_1909_30256)">
<path d="M13.9998 4.08594C15.3182 4.08594 16.5782 4.61094 17.5115 5.5326C18.4448 6.46594 18.9582 7.72594 18.9582 9.04427C18.9582 10.3626 18.4332 11.6226 17.5115 12.5559C16.5782 13.4893 15.3182 14.0026 13.9998 14.0026C12.6815 14.0026 11.4215 13.4776 10.4882 12.5559C9.55484 11.6226 9.0415 10.3626 9.0415 9.04427C9.0415 7.72594 9.5665 6.46594 10.4882 5.5326C11.4215 4.59927 12.6815 4.08594 13.9998 4.08594Z" stroke="#383838"/>
<path d="M4.08325 23.9167C4.08325 22.2017 5.09825 18.69 7.01159 16.9167C8.87825 15.19 11.4099 14 13.9999 14" stroke="#383838" stroke-linecap="round"/>
<path d="M15.1665 17.5H23.9165" stroke="#383838" stroke-linecap="round"/>
<path d="M15.1665 20.4219H23.9165" stroke="#383838" stroke-linecap="round"/>
<path d="M15.1665 23.3359H23.9165" stroke="#383838" stroke-linecap="round"/>
</g>
<defs>
<clipPath id="clip0_1909_30256">
<rect width="28" height="28" fill="white"/>
</clipPath>
</defs>
</svg>
