<svg width="28" height="28" viewBox="0 0 28 28" fill="none" xmlns="http://www.w3.org/2000/svg">
<g clip-path="url(#clip0_1909_33481)">
<path d="M14.1749 23.2741C14.1166 23.2857 14.0583 23.3091 13.9999 23.3207C7.76995 22.0374 6.41661 16.1691 6.41661 14.7691V7.08073C10.4299 6.3224 13.1599 5.12073 13.9999 4.72406C14.8399 5.12073 17.5699 6.3224 21.5833 7.08073V14.7691C21.5833 15.0024 21.5366 15.3757 21.4433 15.8191C21.7933 16.2157 22.0966 16.6591 22.3066 17.1607C22.6099 16.2391 22.7383 15.3991 22.7383 14.7691V6.6024C22.7383 6.3224 22.5399 6.0774 22.2599 6.03073C17.4066 5.17906 14.2916 3.58073 14.2566 3.56906C14.0933 3.4874 13.8833 3.4874 13.7199 3.56906C13.6849 3.58073 10.5816 5.17906 5.71661 6.03073C5.43661 6.0774 5.23828 6.3224 5.23828 6.6024V14.7691C5.23828 17.2891 7.40828 23.2274 13.8716 24.4874C13.9066 24.4874 13.9416 24.4874 13.9883 24.4874C14.0349 24.4874 14.0583 24.4874 14.1049 24.4874C14.6066 24.3941 15.0733 24.2541 15.5166 24.1024C15.0149 23.9041 14.5716 23.6124 14.1633 23.2741H14.1749Z" fill="#383838"/>
<path d="M17.4998 15.1641C15.2482 15.1641 13.4165 16.9957 13.4165 19.2474C13.4165 21.4991 15.2482 23.3307 17.4998 23.3307C19.7515 23.3307 21.5832 21.4991 21.5832 19.2474C21.5832 16.9957 19.7515 15.1641 17.4998 15.1641ZM19.5182 18.4307L16.9748 20.7641C16.8932 20.8457 16.7882 20.8807 16.6832 20.8807C16.5665 20.8807 16.4615 20.8341 16.3798 20.7524L15.4232 19.7957C15.2482 19.6207 15.2482 19.3524 15.4232 19.1774C15.5982 19.0024 15.8665 19.0024 16.0415 19.1774L16.7065 19.8424L18.9348 17.7891C19.1098 17.6257 19.3898 17.6374 19.5532 17.8124C19.7165 17.9874 19.7048 18.2674 19.5298 18.4307H19.5182Z" fill="#383838"/>
<path d="M12.2498 19.2497C12.2498 17.7097 12.9382 16.3214 13.9998 15.3647V6.9647C13.9998 6.81303 13.8598 6.70803 13.7082 6.76636C12.5532 7.2447 10.7098 7.9097 8.32984 8.4697C8.2365 8.49303 8.1665 8.5747 8.1665 8.6797V14.7697C8.1665 15.5747 8.99484 19.3547 12.5765 21.0114C12.3782 20.4514 12.2498 19.868 12.2498 19.238V19.2497Z" fill="#383838"/>
</g>
<defs>
<clipPath id="clip0_1909_33481">
<rect width="28" height="28" fill="white"/>
</clipPath>
</defs>
</svg>
