<svg width="28" height="28" viewBox="0 0 28 28" fill="none" xmlns="http://www.w3.org/2000/svg">
<g clip-path="url(#clip0_1909_30296)">
<path d="M20.93 18.6451C20.93 18.6451 22.2716 14.4334 22.5983 13.4068C22.925 12.3801 23.8583 6.3601 18.1766 4.55176C12.4833 2.74343 9.77664 8.20343 9.44997 9.21843C9.12331 10.2334 7.78164 14.4568 7.78164 14.4568L5.44831 15.9034C4.70164 16.3701 4.85331 17.4784 5.68164 17.7468L13.2066 20.1384L20.7316 22.5301C21.56 22.7984 22.33 21.9701 21.9916 21.1651L20.93 18.6334V18.6451Z" stroke="#383838" stroke-linejoin="round"/>
<path d="M18.3517 21.7858C17.9084 23.1858 16.4151 23.9558 15.0267 23.5125C13.6384 23.0692 12.8567 21.5758 13.3001 20.1875" stroke="#383838" stroke-linejoin="round"/>
</g>
<defs>
<clipPath id="clip0_1909_30296">
<rect width="28" height="28" fill="white"/>
</clipPath>
</defs>
</svg>
