<svg width="36" height="37" viewBox="0 0 36 37" fill="none" xmlns="http://www.w3.org/2000/svg">
<path d="M18.7262 7.26879L31.4012 29.5888C31.7162 30.1438 31.3262 30.8488 30.6812 30.8488H5.3312C4.6862 30.8488 4.2962 30.1438 4.6112 29.5888L17.2862 7.26879C17.6012 6.71379 18.3962 6.71379 18.7262 7.26879Z" fill="#383838"/>
<path d="M16.5059 27.0586C16.5059 26.2676 17.1626 25.5791 17.9984 25.5791C18.8342 25.5791 19.4909 26.2676 19.4909 27.0586C19.4909 27.8496 18.8342 28.5088 17.9984 28.5088C17.1626 28.5088 16.5059 27.835 16.5059 27.0586Z" fill="#ECEDEB"/>
<path d="M19.4912 14.8418C19.4912 15.6475 19.1927 17.7129 18.8345 20.7451L18.4763 23.7627H17.5061L17.1479 20.7451C16.7897 17.6982 16.4912 15.6328 16.4912 14.8418C16.4912 13.9043 17.0584 13.5088 17.9837 13.5088C18.9091 13.5088 19.4763 13.9043 19.4763 14.8418H19.4912Z" fill="#ECEDEB"/>
</svg>
