<svg width="36" height="37" viewBox="0 0 36 37" fill="none" xmlns="http://www.w3.org/2000/svg">
<path d="M17.6438 3.5C12.0295 8.20331 7.22264 8.5406 4.5 8.50312C4.5 8.50312 4.5 15.2676 4.5 18.0222C4.5 28.4407 17.625 33.5 17.625 33.5C17.625 33.5 30.75 28.4407 30.75 18.0222C30.75 15.2676 30.75 8.50312 30.75 8.50312C28.0274 8.5406 23.2205 8.22205 17.6062 3.5H17.6438Z" fill="#6A51CA" stroke="#6A51CA" stroke-linecap="round" stroke-linejoin="round"/>
<path d="M11.9092 16.625H22.2429C23.0133 16.625 23.6521 17.2625 23.6521 18.0313V21.125C23.6521 23.8063 21.4538 26.0001 18.767 26.0001H15.3851C12.6983 26.0001 10.5 23.8063 10.5 21.125V18.0313C10.5 17.2625 11.1388 16.625 11.9092 16.625Z" fill="#ECEDEB" stroke="#ECEDEB" stroke-linecap="round" stroke-linejoin="round"/>
<path d="M13.3184 16.625V14.75C13.3184 12.6875 15.0093 11 17.0761 11C19.1428 11 20.8338 12.6688 20.8338 14.75V16.625" stroke="#ECEDEB" stroke-linecap="round" stroke-linejoin="round"/>
<path d="M17.0762 21.5757V23.4519" stroke="#6A51CA" stroke-linecap="round" stroke-linejoin="round"/>
</svg>
