<svg width="36" height="36" viewBox="0 0 36 36" fill="none" xmlns="http://www.w3.org/2000/svg">
<g clip-path="url(#clip0_93_22599)">
<path d="M18.39 2.25C12.78 6.96 7.98 7.29 5.25 7.26V16.785C5.25 27.21 18.375 32.265 18.375 32.265C18.375 32.265 31.5 27.21 31.5 16.785V7.26C28.77 7.29 23.97 6.975 18.36 2.25H18.39Z" fill="#6A51CA" stroke="#6A51CA" stroke-linecap="round" stroke-linejoin="round"/>
<path d="M18.375 20.9552C18.375 20.9552 14.805 21.0302 12.135 20.5352C12.135 20.5352 12.855 25.5902 14.73 25.5152C16.62 25.4402 17.46 23.4752 18.36 23.4752C19.26 23.4752 20.115 25.4402 21.99 25.5152C23.88 25.5902 24.585 20.5352 24.585 20.5352C21.93 21.0302 18.345 20.9552 18.345 20.9552H18.375ZM14.895 23.8502C13.845 23.8202 13.35 21.9302 13.35 21.9302L16.635 22.5302C16.515 23.3552 15.945 23.8802 14.895 23.8502ZM21.84 23.8502C20.79 23.8802 20.22 23.3552 20.1 22.5302L23.385 21.9302C23.385 21.9302 22.89 23.8202 21.84 23.8502Z" fill="#EFEFEF" stroke="#EFEFEF" stroke-width="0.25" stroke-linejoin="round"/>
<path d="M24.33 16.0205C24.24 15.4955 23.925 14.1155 23.61 13.1255C23.07 11.4155 22.125 10.0505 20.895 9.72048C20.07 9.49548 18.93 10.9955 18.24 10.9655C17.7 10.9355 17.04 9.81048 15.975 9.37548C15.345 9.12048 14.295 9.79548 13.395 11.8805C12.78 13.3055 12.51 15.0605 12.405 16.0355C9.97502 16.3655 8.40002 16.8905 8.40002 17.4905C8.40002 18.4955 12.87 19.3055 18.375 19.3055C23.88 19.3055 28.35 18.4955 28.35 17.4905C28.35 16.8905 26.775 16.3655 24.33 16.0355V16.0205Z" fill="#EFEFEF" stroke="#EFEFEF" stroke-width="0.25" stroke-linejoin="round"/>
</g>
<defs>
<clipPath id="clip0_93_22599">
<rect width="36" height="36" fill="white"/>
</clipPath>
</defs>
</svg>
