<svg width="28" height="28" viewBox="0 0 28 28" fill="none" xmlns="http://www.w3.org/2000/svg">
<g id="Group">
<path id="Vector" d="M26.39 0.5H24.11C23.497 0.5 23 0.996964 23 1.61V26.39C23 27.003 23.497 27.5 24.11 27.5H26.39C27.003 27.5 27.5 27.003 27.5 26.39V1.61C27.5 0.996964 27.003 0.5 26.39 0.5Z" fill="#6A51CA" stroke="#6A51CA" stroke-linejoin="round"/>
<path id="Vector_2" d="M19.085 9.5H16.415C15.9097 9.5 15.5 9.90966 15.5 10.415V26.585C15.5 27.0903 15.9097 27.5 16.415 27.5H19.085C19.5903 27.5 20 27.0903 20 26.585V10.415C20 9.90966 19.5903 9.5 19.085 9.5Z" fill="#6A51CA" stroke="#6A51CA" stroke-linejoin="round"/>
<path id="Vector_3" d="M11.855 18.5H8.645C8.28878 18.5 8 18.7888 8 19.145V26.855C8 27.2112 8.28878 27.5 8.645 27.5H11.855C12.2112 27.5 12.5 27.2112 12.5 26.855V19.145C12.5 18.7888 12.2112 18.5 11.855 18.5Z" fill="#6A51CA" stroke="#6A51CA" stroke-linejoin="round"/>
<path id="Vector_4" d="M4.175 12.5H1.325C0.869365 12.5 0.5 12.8694 0.5 13.325V26.675C0.5 27.1306 0.869365 27.5 1.325 27.5H4.175C4.63063 27.5 5 27.1306 5 26.675V13.325C5 12.8694 4.63063 12.5 4.175 12.5Z" fill="#6A51CA" stroke="#6A51CA" stroke-linejoin="round"/>
</g>
</svg>
