<svg width="36" height="36" viewBox="0 0 36 36" fill="none" xmlns="http://www.w3.org/2000/svg">
<path d="M30.39 4.5H28.11C27.497 4.5 27 4.99696 27 5.61V30.39C27 31.003 27.497 31.5 28.11 31.5H30.39C31.003 31.5 31.5 31.003 31.5 30.39V5.61C31.5 4.99696 31.003 4.5 30.39 4.5Z" fill="#6A51CA" stroke="#6A51CA" stroke-linejoin="round"/>
<path d="M23.085 13.5H20.415C19.9097 13.5 19.5 13.9097 19.5 14.415V30.585C19.5 31.0903 19.9097 31.5 20.415 31.5H23.085C23.5903 31.5 24 31.0903 24 30.585V14.415C24 13.9097 23.5903 13.5 23.085 13.5Z" fill="#6A51CA" stroke="#6A51CA" stroke-width="2" stroke-linejoin="round"/>
<path d="M15.855 22.5H12.645C12.2888 22.5 12 22.7888 12 23.145V30.855C12 31.2112 12.2888 31.5 12.645 31.5H15.855C16.2112 31.5 16.5 31.2112 16.5 30.855V23.145C16.5 22.7888 16.2112 22.5 15.855 22.5Z" fill="#6A51CA" stroke="#6A51CA" stroke-width="2" stroke-linejoin="round"/>
<path d="M8.175 16.5H5.325C4.86936 16.5 4.5 16.8694 4.5 17.325V30.675C4.5 31.1306 4.86936 31.5 5.325 31.5H8.175C8.63063 31.5 9 31.1306 9 30.675V17.325C9 16.8694 8.63063 16.5 8.175 16.5Z" fill="#6A51CA" stroke="#6A51CA" stroke-linejoin="round"/>
</svg>
