<svg width="32" height="62" viewBox="0 0 32 62" fill="none" xmlns="http://www.w3.org/2000/svg">
<path d="M27.25 57.25L27.25 40.375L4.75 40.375L4.75 57.25L27.25 57.25Z" fill="#383838"/>
<path d="M28.2502 4.72318L23.5894 4.72318L23.5894 2.38408C23.5894 1.62284 22.9707 1 22.2145 1L10.1567 1C9.40055 1 8.78185 1.62284 8.78185 2.38408L8.78185 4.72318L3.74977 4.72318C2.2374 4.72318 1 5.96886 1 7.49135L0.999997 58.2318C0.999997 59.7543 2.23739 61 3.74977 61L28.2502 61C29.7626 61 31 59.7543 31 58.2318L31 7.49135C31 5.96886 29.7626 4.72319 28.2502 4.72318V4.72318Z" stroke="#383838" stroke-width="0.5" stroke-linecap="round" stroke-linejoin="round"/>
</svg>
