<svg width="32" height="62" viewBox="0 0 32 62" fill="none" xmlns="http://www.w3.org/2000/svg">
<path d="M28.2502 4.72318H23.5894V2.38408C23.5894 1.62284 22.9707 1 22.2145 1H10.1567C9.40055 1 8.78185 1.62284 8.78185 2.38408V4.72318H3.74977C2.2374 4.72318 1 5.96886 1 7.49135V58.2318C1 59.7543 2.2374 61 3.74977 61H28.2502C29.7626 61 31 59.7543 31 58.2318V7.49135C31 5.96886 29.7626 4.72318 28.2502 4.72318Z" stroke="#383838" stroke-width="0.5" stroke-linecap="round" stroke-linejoin="round"/>
<path d="M14.1097 36.4536C14.1097 35.8608 14.1963 35.3338 14.3695 34.9222C14.5427 34.5105 14.8199 34.1153 15.2182 33.753C15.8072 33.2096 16.3441 32.7485 16.8464 32.3368C17.3487 31.9416 17.7644 31.5629 18.1282 31.2171C18.4919 30.8713 18.7691 30.5419 18.9596 30.229C19.1674 29.9162 19.254 29.5868 19.254 29.2575C19.254 28.5988 19.0462 28.0883 18.6132 27.7096C18.1801 27.3308 17.6432 27.1497 16.985 27.1497C15.9977 27.1497 15.2356 27.4132 14.7333 27.9237C14.2309 28.4341 13.9365 29.0763 13.8672 29.8174L9 29.521C9.22517 27.3967 10.0566 25.7829 11.4596 24.6632C12.8626 23.5434 14.6813 23 16.8984 23C17.8684 23 18.7864 23.1317 19.6351 23.3787C20.4838 23.6257 21.246 24.0045 21.8868 24.4985C22.545 24.9925 23.0647 25.6183 23.4284 26.3593C23.7922 27.1003 24 27.9566 24 28.9117C24 29.488 23.9307 30.015 23.8095 30.4925C23.6882 30.9701 23.463 31.4311 23.1686 31.8922C22.8568 32.3533 22.4584 32.8144 21.9734 33.2919C21.4711 33.7695 20.8476 34.2799 20.0855 34.8398C19.6005 35.2021 19.2714 35.5479 19.0982 35.8937C18.9249 36.2395 18.8383 36.5689 18.8383 36.9147V37.7874H14.0924V36.4701L14.1097 36.4536ZM13.5727 42.2171C13.5727 41.8383 13.642 41.476 13.7979 41.1302C13.9365 40.7844 14.1443 40.488 14.4215 40.241C14.6813 39.994 14.9931 39.7964 15.3568 39.6482C15.7206 39.5 16.1016 39.4341 16.5 39.4341C16.8984 39.4341 17.2794 39.5 17.6432 39.6482C18.0069 39.7799 18.3187 39.9775 18.5785 40.241C18.8383 40.488 19.0462 40.7844 19.2021 41.1302C19.3406 41.476 19.4273 41.8383 19.4273 42.2171C19.4273 42.5958 19.358 42.9581 19.2021 43.3039C19.0635 43.6497 18.8557 43.9461 18.5785 44.1931C18.3187 44.4401 18.0069 44.6377 17.6432 44.7859C17.2794 44.9341 16.8984 45 16.5 45C16.1016 45 15.7206 44.9341 15.3568 44.7859C14.9931 44.6542 14.6813 44.4566 14.4215 44.1931C14.1617 43.9296 13.9538 43.6497 13.7979 43.3039C13.6594 42.9581 13.5727 42.5958 13.5727 42.2171Z" fill="#7A7A79"/>
</svg>
