<svg width="24" height="24" viewBox="0 0 24 24" fill="none" xmlns="http://www.w3.org/2000/svg">
<path d="M19.01 15.0291L19.01 13.7875L19.63 13.7875C19.83 13.7875 20 13.6273 20 13.4171L20 10.1931C20 9.9928 19.83 9.82259 19.63 9.82259L19.01 9.82259L19.01 8.48091C19.01 8.08041 18.68 7.75 18.27 7.75L4.74 7.75C4.33 7.75 4 8.08041 4 8.48091L4 15.0191C4 15.4196 4.33 15.75 4.74 15.75L18.27 15.75C18.68 15.75 19.01 15.4196 19.01 15.0191L19.01 15.0291Z" stroke="#1BCC73" stroke-width="1.5" stroke-linecap="round" stroke-linejoin="round"/>
<path d="M16.02 10.16L11.45 13.75L11.38 11.56L7.02002 13.4L12.18 9.75L12.47 11.79L16.02 10.16Z" stroke="#1BCC73" stroke-linecap="round" stroke-linejoin="round"/>
<path d="M16.02 10.16L11.45 13.75L11.38 11.56L7.02002 13.4L12.18 9.75L12.47 11.79L16.02 10.16Z" fill="#1BCC73"/>
</svg>
