<svg width="36" height="36" viewBox="0 0 36 36" fill="none" xmlns="http://www.w3.org/2000/svg">
<path d="M7.5 22.5L22.5 22.5L22.5 13.5L7.5 13.5L7.5 22.5Z" fill="#6A51CA"/>
<path d="M29.0107 22.9001L29.0107 21.5357L29.4464 21.5357C30.0239 21.5357 30.5 21.0675 30.5 20.4858L30.5 15.6627C30.5 15.0809 30.0239 14.6127 29.4464 14.6127L29.0107 14.6127L29.0107 13.0999C29.0107 12.2157 28.2855 11.5 27.4035 11.5L7.10727 11.5C6.22528 11.5 5.5 12.2157 5.5 13.0999L5.5 22.9001C5.5 23.7843 6.22527 24.5 7.10727 24.5L27.4035 24.5C28.2855 24.5 29.0107 23.7843 29.0107 22.9001Z" stroke="#6A51CA" stroke-linecap="round" stroke-linejoin="round"/>
</svg>
