<svg width="24" height="24" viewBox="0 0 24 24" fill="none" xmlns="http://www.w3.org/2000/svg">
<path d="M6 14L7 14L7 10L6 10L6 14Z" fill="#F42525"/>
<path d="M19.0072 15.2667L19.0072 14.0238L19.6309 14.0238C19.8339 14.0238 20 13.8588 20 13.6572L20 10.4418C20 10.2401 19.8339 10.0752 19.6309 10.0752L19.0072 10.0752L19.0072 8.73327C19.0072 8.32997 18.675 8 18.269 8L4.73818 8C4.33218 8 4 8.32997 4 8.73327L4 15.2667C4 15.67 4.33218 16 4.73818 16L18.269 16C18.675 16 19.0072 15.67 19.0072 15.2667V15.2667Z" stroke="#F42525" stroke-width="1.5" stroke-linecap="round" stroke-linejoin="round"/>
</svg>
