<svg width="36" height="36" viewBox="0 0 36 36" fill="none" xmlns="http://www.w3.org/2000/svg">
<path d="M7.5 27C10.8137 27 13.5 24.3137 13.5 21C13.5 17.6863 10.8137 15 7.5 15C4.18629 15 1.5 17.6863 1.5 21C1.5 24.3137 4.18629 27 7.5 27Z" stroke="#6A51CA" stroke-width="1.5" stroke-linecap="round" stroke-linejoin="round"/>
<path d="M28.5 27C31.8137 27 34.5 24.3137 34.5 21C34.5 17.6863 31.8137 15 28.5 15C25.1863 15 22.5 17.6863 22.5 21C22.5 24.3137 25.1863 27 28.5 27Z" stroke="#6A51CA" stroke-width="1.5" stroke-linecap="round" stroke-linejoin="round"/>
<path d="M7.5 21L12 9L9 7.5" stroke="#6A51CA" stroke-width="1.5" stroke-linecap="round" stroke-linejoin="round"/>
<path d="M12 10.9586L19.5 22.5L22.5 9" stroke="#6A51CA" stroke-width="1.5" stroke-linecap="round" stroke-linejoin="round"/>
<path d="M12 10.5L21 12.75" stroke="#6A51CA" stroke-width="1.5" stroke-linecap="round" stroke-linejoin="round"/>
<path d="M21.75 13.5L28.5 21L19.5 21.75" stroke="#6A51CA" stroke-width="1.5" stroke-linecap="round" stroke-linejoin="round"/>
<path d="M21 9H24.33" stroke="#6A51CA" stroke-width="1.5" stroke-linecap="round" stroke-linejoin="round"/>
</svg>
