<svg width="48" height="48" viewBox="0 0 48 48" fill="none" xmlns="http://www.w3.org/2000/svg">
<circle cx="24" cy="24" r="24" fill="#E6E2F6"/>
<g clip-path="url(#clip0_2762_54501)">
<path d="M38.2513 31.9316L19.1293 12.6895C17.6229 11.1737 15.1644 11.1645 13.6487 12.671L9.74855 16.5527C9.36962 16.9316 9.36962 17.5416 9.74855 17.9205L10.4325 18.6044C10.8114 18.9834 11.4214 18.9834 11.8003 18.6044L15.7005 14.7227C16.0794 14.3438 16.6894 14.3438 17.0683 14.7227L36.1903 33.9649C36.5692 34.3438 37.1792 34.3438 37.5582 33.9649L38.2421 33.281C38.621 32.902 38.621 32.292 38.2421 31.9131L38.2513 31.9316Z" fill="#252526" stroke="#313131" stroke-width="0.75" stroke-linecap="round" stroke-linejoin="round"/>
<path d="M19.5083 31.1621L31.634 18.9625C31.7542 18.8424 31.939 18.8054 32.1054 18.8516C33.7597 19.3784 35.5804 19.0364 36.8281 17.7795C38.2699 16.3285 38.4917 14.1104 37.549 12.2804C37.4473 12.0864 37.1701 12.0586 37.0499 12.2527L35.6821 14.3414C35.1645 15.1363 34.0924 15.3673 33.2884 14.8405L32.6414 14.4154C31.8466 13.8978 31.6155 12.8257 32.1423 12.0217L33.5286 9.90521C33.6488 9.72036 33.5286 9.47083 33.3068 9.46158C32.0129 9.36916 30.719 9.7943 29.7671 10.7555C28.6303 11.8923 28.2514 13.5189 28.6026 15.0438C28.6396 15.201 28.6026 15.3581 28.4824 15.469L16.3567 27.6686C16.2366 27.7888 16.0518 27.8257 15.8854 27.7795C14.2311 27.2527 12.4011 27.5947 11.1627 28.8516C9.72089 30.3026 9.49908 32.5207 10.4418 34.3507C10.5434 34.5448 10.8207 34.5725 10.9409 34.3784L12.3087 32.2897C12.8262 31.4949 13.8983 31.2638 14.7024 31.7906L15.3494 32.2157C16.1442 32.7333 16.3752 33.8054 15.8484 34.6095L14.4621 36.7259C14.342 36.9108 14.4621 37.1603 14.6839 37.1695C15.9778 37.262 17.2717 36.8368 18.2237 35.8756C19.3604 34.7388 19.7394 33.1122 19.3882 31.5873C19.3512 31.4302 19.3882 31.273 19.5083 31.1621Z" fill="#E6E2F6" stroke="#313131" stroke-width="0.75" stroke-linecap="round" stroke-linejoin="round"/>
</g>
<defs>
<clipPath id="clip0_2762_54501">
<rect width="30" height="28.6506" fill="white" transform="translate(9 9)"/>
</clipPath>
</defs>
</svg>
