<svg width="20" height="20" viewBox="0 0 20 20" fill="none" xmlns="http://www.w3.org/2000/svg">
<path d="M6.25 15C6.94036 15 7.5 14.4404 7.5 13.75C7.5 13.0596 6.94036 12.5 6.25 12.5C5.55964 12.5 5 13.0596 5 13.75C5 14.4404 5.55964 15 6.25 15Z" fill="#7A7A79"/>
<path d="M5.625 7.50686C7.60391 7.4184 9.4708 8.1892 10.7776 9.61707C12.0845 11.0576 12.6943 13.0161 12.4454 15" stroke="#7A7A79" stroke-miterlimit="10" stroke-linecap="round"/>
<path d="M5.625 10.0043C6.87771 9.94765 8.07712 10.4571 8.90338 11.4195C9.72964 12.3818 10.1161 13.6838 9.96952 15" stroke="#7A7A79" stroke-miterlimit="10" stroke-linecap="round"/>
<path d="M5.625 5.01013C8.32544 4.8851 10.8871 5.92285 12.6537 7.8233C14.433 9.73625 15.2658 12.3494 14.9251 15" stroke="#7A7A79" stroke-miterlimit="10" stroke-linecap="round"/>
</svg>
