<svg width="20" height="23" viewBox="0 0 20 23" fill="none" xmlns="http://www.w3.org/2000/svg">
<g id="Group 162793">
<path id="Vector" d="M1 4H19" stroke="#383838" stroke-miterlimit="10" stroke-linecap="round"/>
<g id="Vector_2">
<path d="M16.75 4L15.94 20.5C15.895 21.34 15.265 22 14.485 22H5.515C4.735 22 4.105 21.34 4.06 20.5L3.25 4" fill="#383838"/>
<path d="M16.75 4L15.94 20.5C15.895 21.34 15.265 22 14.485 22H5.515C4.735 22 4.105 21.34 4.06 20.5L3.25 4" stroke="#383838" stroke-miterlimit="10" stroke-linecap="round"/>
</g>
<g id="Group">
<path id="Vector_3" d="M7.75 7.16406V17.6641" stroke="#FAFAFA" stroke-miterlimit="10" stroke-linecap="round"/>
<path id="Vector_4" d="M12.25 7.16406V17.6641" stroke="#FAFAFA" stroke-miterlimit="10" stroke-linecap="round"/>
</g>
<path id="Vector_5" d="M6.25 4V2.605C6.25 1.72 6.985 1 7.885 1H12.115C13.015 1 13.75 1.72 13.75 2.605V4" stroke="#383838" stroke-miterlimit="10" stroke-linecap="round"/>
</g>
</svg>
