<svg width="36" height="36" viewBox="0 0 36 36" fill="none" xmlns="http://www.w3.org/2000/svg">
<g clip-path="url(#clip0_2308_22523)">
<path d="M26.0203 11.426L14.6544 11.2983C12.7388 11.2983 11.1584 12.8787 11.1584 14.8103C11.1584 15.7681 11.5575 16.6461 12.196 17.2846C12.8346 17.9231 13.6966 18.3062 14.6544 18.3062L20.0181 18.3701C20.9918 18.3701 21.8539 18.7692 22.4924 19.3917C23.1309 20.0303 23.53 20.9083 23.53 21.8661C23.53 22.8239 23.1309 23.7018 22.4924 24.3404C21.8539 24.9789 20.9918 25.378 20.0181 25.378L8.84375 25.2503" stroke="#383838" stroke-linecap="round" stroke-linejoin="round"/>
<path d="M30.9264 13.8529C32.2665 13.8529 33.3529 12.7665 33.3529 11.4264C33.3529 10.0863 32.2665 9 30.9264 9C29.5863 9 28.5 10.0863 28.5 11.4264C28.5 12.7665 29.5863 13.8529 30.9264 13.8529Z" fill="#383838" stroke="#383838" stroke-linecap="round" stroke-linejoin="round"/>
<path d="M3.92643 27.6605C5.2665 27.6605 6.35285 26.5741 6.35285 25.234C6.35285 23.894 5.2665 22.8076 3.92643 22.8076C2.58635 22.8076 1.5 23.894 1.5 25.234C1.5 26.5741 2.58635 27.6605 3.92643 27.6605Z" stroke="#383838" stroke-linecap="round" stroke-linejoin="round"/>
</g>
<defs>
<clipPath id="clip0_2308_22523">
<rect width="36" height="36" fill="white"/>
</clipPath>
</defs>
</svg>
