<svg width="48" height="48" viewBox="0 0 48 48" fill="none" xmlns="http://www.w3.org/2000/svg">
<circle cx="24" cy="24" r="24" fill="#E6E2F6"/>
<path d="M38.6693 12.334H9.33594C8.23137 12.334 7.33594 13.2294 7.33594 14.334V33.6673C7.33594 34.7719 8.23137 35.6673 9.33594 35.6673H38.6693C39.7738 35.6673 40.6693 34.7719 40.6693 33.6673V14.334C40.6693 13.2294 39.7738 12.334 38.6693 12.334Z" fill="#252526"/>
<path d="M12.2354 22.2003H14.7354V22.8003H12.9021V23.7336H14.6354V24.3336H12.9021V25.3503H14.8187V25.9503H12.2188V22.1836L12.2354 22.2003Z" fill="#E6E2F6"/>
<path d="M15.0547 22.2012H15.8214L16.8547 25.0512L17.9214 22.2012H18.638L17.1214 25.9678H16.538L15.0547 22.2012Z" fill="#E6E2F6"/>
<path d="M19.8167 24.9328H18.5V24.3828H19.8167V24.9328Z" fill="#E6E2F6"/>
<path d="M20.4219 22.2012H21.0885V23.8012H21.1219L22.6885 22.2012H23.5885L21.8219 23.9345L23.7052 25.9678H22.7552L21.1219 24.1178H21.0885V25.9678H20.4219V22.2012Z" fill="#E6E2F6"/>
<path d="M24.0714 22.2003H26.5714V22.8003H24.738V23.7336H26.4714V24.3336H24.738V25.3503H26.6547V25.9503H24.0547V22.1836L24.0714 22.2003Z" fill="#E6E2F6"/>
<path d="M28.2526 24.3512L26.8359 22.2012H27.6693L28.6026 23.7012L29.5359 22.2012H30.3359L28.9193 24.3512V25.9678H28.2526V24.3512Z" fill="#E6E2F6"/>
<path d="M32.7875 20.3008C33.8375 21.2841 34.3875 22.6508 34.3208 24.0674C34.2542 25.4841 33.5708 26.8174 32.4375 27.7174" stroke="#E6E2F6" stroke-width="0.5" stroke-miterlimit="10" stroke-linecap="round"/>
<path d="M31.5198 21.584C32.1865 22.2007 32.5365 23.084 32.4698 24.0173C32.4031 24.9507 31.9365 25.8173 31.2031 26.434" stroke="#E6E2F6" stroke-width="0.5" stroke-miterlimit="10" stroke-linecap="round"/>
<path d="M34.0531 19C35.4865 20.3333 36.2531 22.2 36.1865 24.1C36.1198 26.0167 35.2198 27.8 33.7031 29" stroke="#E6E2F6" stroke-width="0.5" stroke-miterlimit="10" stroke-linecap="round"/>
</svg>
