<svg width="30" height="30" viewBox="0 0 30 30" fill="none" xmlns="http://www.w3.org/2000/svg">
<path d="M25.5 6.25H4.5C3.39543 6.25 2.5 7.14543 2.5 8.25V21.75C2.5 22.8546 3.39543 23.75 4.5 23.75H25.5C26.6046 23.75 27.5 22.8546 27.5 21.75V8.25C27.5 7.14543 26.6046 6.25 25.5 6.25Z" fill="#DFE0E0"/>
<path d="M20.3387 12.2246C21.1262 12.9621 21.5387 13.9871 21.4887 15.0496C21.4387 16.1121 20.9262 17.1121 20.0762 17.7871" stroke="#383838" stroke-width="0.5" stroke-miterlimit="10" stroke-linecap="round"/>
<path d="M19.3879 13.1875C19.8879 13.65 20.1504 14.3125 20.1004 15.0125C20.0504 15.7125 19.7004 16.3625 19.1504 16.825" stroke="#383838" stroke-width="0.5" stroke-miterlimit="10" stroke-linecap="round"/>
<path d="M21.2879 11.25C22.3629 12.25 22.9379 13.65 22.8879 15.075C22.8379 16.5125 22.1629 17.85 21.0254 18.75" stroke="#383838" stroke-width="0.5" stroke-miterlimit="10" stroke-linecap="round"/>
</svg>
