<svg width="30" height="30" viewBox="0 0 30 30" fill="none" xmlns="http://www.w3.org/2000/svg">
<path d="M25.5 6.25H4.5C3.39543 6.25 2.5 7.14543 2.5 8.25V21.75C2.5 22.8546 3.39543 23.75 4.5 23.75H25.5C26.6046 23.75 27.5 22.8546 27.5 21.75V8.25C27.5 7.14543 26.6046 6.25 25.5 6.25Z" fill="#383838"/>
<path d="M20.3375 12.2246C21.125 12.9621 21.5375 13.9871 21.4875 15.0496C21.4375 16.1121 20.925 17.1121 20.075 17.7871" stroke="#ECEDEB" stroke-width="0.5" stroke-miterlimit="10" stroke-linecap="round"/>
<path d="M19.3872 13.1875C19.8872 13.65 20.1497 14.3125 20.0997 15.0125C20.0497 15.7125 19.6997 16.3625 19.1497 16.825" stroke="#ECEDEB" stroke-width="0.5" stroke-miterlimit="10" stroke-linecap="round"/>
<path d="M21.2872 11.25C22.3622 12.25 22.9372 13.65 22.8872 15.075C22.8372 16.5125 22.1622 17.85 21.0247 18.75" stroke="#ECEDEB" stroke-width="0.5" stroke-miterlimit="10" stroke-linecap="round"/>
</svg>
