<svg width="36" height="36" viewBox="0 0 36 36" fill="none" xmlns="http://www.w3.org/2000/svg">
<path d="M27.52 11.9249C26.4479 6.87139 21.4397 3.61739 16.4021 4.71205C12.0842 5.64177 9 9.4806 9 13.9192C9 15.2688 9.26436 16.5734 9.83715 17.7881C10.2043 18.5678 10.5862 19.3326 11.0121 20.0824C12.9507 23.5463 15.3006 26.6954 17.8561 29.7244C18.1645 30.0993 18.5611 30.0843 18.8842 29.7244C20.1766 28.2249 21.3809 26.6504 22.5412 25.0459C24.098 22.8865 25.5226 20.6372 26.6975 18.2379C27.6962 16.2285 28.0047 14.1142 27.5347 11.9249H27.52ZM18.3702 18.6578C15.7706 18.6578 13.641 16.5285 13.641 13.9192C13.641 11.31 15.7412 9.18069 18.3408 9.16569C20.9697 9.16569 23.0846 11.2801 23.0846 13.9192C23.0846 16.5285 20.9697 18.6578 18.3702 18.6578Z" fill="#383838"/>
</svg>
