<svg width="24" height="24" viewBox="0 0 24 24" fill="none" xmlns="http://www.w3.org/2000/svg">
<path d="M16.5408 12.5124C16.5322 11.0369 17.1953 9.92497 18.5343 9.10505C17.7854 8.02336 16.6524 7.42843 15.1588 7.31377C13.7446 7.20128 12.1974 8.14451 11.6309 8.14451C11.0322 8.14451 9.66309 7.35272 8.58584 7.35272C6.36266 7.38733 4 9.13966 4 12.7049C4 13.7585 4.19099 14.8467 4.57296 15.9673C5.08369 17.4427 6.92489 21.0577 8.84549 20.9993C9.84979 20.9755 10.5601 20.2811 11.867 20.2811C13.1352 20.2811 13.7918 20.9993 14.912 20.9993C16.8498 20.9712 18.515 17.685 19 16.2053C16.4013 14.97 16.5408 12.5881 16.5408 12.5124ZM14.2854 5.91407C15.3734 4.61172 15.2747 3.42619 15.2425 3C14.2811 3.05625 13.1695 3.65983 12.5365 4.40187C11.8391 5.19799 11.4292 6.18233 11.5172 7.29214C12.5558 7.37219 13.5043 6.8335 14.2854 5.91407Z" fill="#252526"/>
</svg>
