<svg width="34" height="44" viewBox="0 0 34 44" fill="none" xmlns="http://www.w3.org/2000/svg">
<path d="M17 1C8.18706 1 1 7.97666 1 16.636C1 22.6179 4.63733 29.1827 8.26392 34.1399C10.096 36.6443 11.9659 38.7929 13.4579 40.322C14.2025 41.0853 14.8635 41.705 15.3868 42.1411C15.6463 42.3574 15.8888 42.5428 16.1014 42.6797C16.2068 42.7477 16.3238 42.816 16.4448 42.8707C16.5415 42.9143 16.7475 43 17 43C17.2525 43 17.4585 42.9143 17.5552 42.8707C17.6762 42.816 17.7932 42.7477 17.8986 42.6797C18.1112 42.5428 18.3537 42.3574 18.6132 42.1411C19.1365 41.705 19.7975 41.0853 20.5421 40.322C22.0341 38.7929 23.904 36.6443 25.7361 34.1399C29.3627 29.1827 33 22.6179 33 16.636C33 7.97666 25.8129 1 17 1Z" fill="#FF7373" stroke="#FF7373" stroke-width="2" stroke-miterlimit="10" stroke-linecap="round"/>
<path d="M11.3157 22.5356C13.2224 22.5356 14.768 20.9899 14.768 19.0832C14.768 17.1765 13.2224 15.6309 11.3157 15.6309C9.40896 15.6309 7.86328 17.1765 7.86328 19.0832C7.86328 20.9899 9.40896 22.5356 11.3157 22.5356Z" stroke="#ECEDEB" stroke-linecap="round" stroke-linejoin="round"/>
<path d="M23.3987 22.5356C25.3054 22.5356 26.8511 20.9899 26.8511 19.0832C26.8511 17.1765 25.3054 15.6309 23.3987 15.6309C21.492 15.6309 19.9463 17.1765 19.9463 19.0832C19.9463 20.9899 21.492 22.5356 23.3987 22.5356Z" stroke="#ECEDEB" stroke-linecap="round" stroke-linejoin="round"/>
<path d="M11.3154 19.0833L13.9047 12.1785L12.1785 11.3154" stroke="#ECEDEB" stroke-linecap="round" stroke-linejoin="round"/>
<path d="M13.9053 13.3057L18.2207 19.9466L19.9469 12.1787" stroke="#ECEDEB" stroke-linecap="round" stroke-linejoin="round"/>
<path d="M13.9053 13.042L19.0838 14.3366" stroke="#ECEDEB" stroke-linecap="round" stroke-linejoin="round"/>
<path d="M19.5153 14.7676L23.3993 19.0831L18.2207 19.5146" stroke="#ECEDEB" stroke-linecap="round" stroke-linejoin="round"/>
<path d="M19.084 12.1787H21.0001" stroke="#ECEDEB" stroke-linecap="round" stroke-linejoin="round"/>
</svg>
