<svg width="36" height="37" viewBox="0 0 36 37" fill="none" xmlns="http://www.w3.org/2000/svg">
<path d="M27.7006 22.55C27.7006 22.7792 27.8034 22.9844 27.9654 23.1219L30.5643 26.171C30.5644 26.171 30.5644 26.171 30.5644 26.1711C31.0011 26.6845 30.637 27.485 29.9506 27.485H6.05558C5.36956 27.485 5.0055 26.6855 5.44095 26.172C5.44124 26.1717 5.44153 26.1713 5.44182 26.171L8.14002 23.0231C8.25653 22.8872 8.32058 22.714 8.32058 22.535H7.57058L8.32058 22.5349V22.5347V22.5343V22.5338V22.5331V22.5323V22.5313V22.5301V22.5289V22.5274V22.5259V22.5241V22.5223V22.5202V22.5181V22.5158V22.5133V22.5107V22.508V22.5051V22.502V22.4989V22.4956V22.4921V22.4885V22.4848V22.4809V22.4769V22.4727V22.4685V22.464V22.4595V22.4548V22.4499V22.445V22.4399V22.4346V22.4293V22.4237V22.4181V22.4123V22.4064V22.4004V22.3942V22.3879V22.3815V22.375V22.3683V22.3615V22.3545V22.3475V22.3403V22.333V22.3255V22.318V22.3103V22.3025V22.2945V22.2865V22.2783V22.27V22.2616V22.253V22.2444V22.2356V22.2267V22.2177V22.2085V22.1993V22.1899V22.1804V22.1708V22.1611V22.1513V22.1413V22.1312V22.1211V22.1108V22.1004V22.0899V22.0792V22.0685V22.0577V22.0467V22.0357V22.0245V22.0132V22.0018V21.9903V21.9787V21.967V21.9552V21.9433V21.9313V21.9192V21.9069V21.8946V21.8822V21.8696V21.857V21.8443V21.8314V21.8185V21.8055V21.7923V21.7791V21.7658V21.7524V21.7388V21.7252V21.7115V21.6977V21.6838V21.6698V21.6557V21.6416V21.6273V21.6129V21.5985V21.5839V21.5693V21.5546V21.5398V21.5249V21.5099V21.4948V21.4796V21.4644V21.449V21.4336V21.4181V21.4025V21.3868V21.3711V21.3553V21.3393V21.3233V21.3072V21.2911V21.2748V21.2585V21.2421V21.2256V21.2091V21.1924V21.1757V21.1589V21.142V21.1251V21.1081V21.091V21.0738V21.0566V21.0393V21.0219V21.0044V20.9869V20.9693V20.9517V20.9339V20.9161V20.8982V20.8803V20.8623V20.8442V20.8261V20.8079V20.7896V20.7713V20.7529V20.7344V20.7159V20.6973V20.6786V20.6599V20.6411V20.6223V20.6034V20.5844V20.5654V20.5463V20.5272V20.508V20.4888V20.4695V20.4501V20.4307V20.4112V20.3917V20.3721V20.3525V20.3328V20.3131V20.2933V20.2735V20.2536V20.2336V20.2136V20.1936V20.1735V20.1534V20.1332V20.113V20.0927V20.0724V20.052V20.0316V20.0111V19.9906V19.9701V19.9495V19.9289V19.9082V19.8875V19.8668V19.846V19.8251V19.8043V19.7834V19.7624V19.7414V19.7204V19.6994V19.6783V19.6571V19.636V19.6148V19.5935V19.5723V19.551V19.5297V19.5083V19.4869V19.4655V19.444V19.4225V19.401V19.3795V19.3579V19.3363V19.3147V19.2931V19.2714V19.2497V19.228V19.2062V19.1844V19.1626V19.1408V19.119V19.0971V19.0752V19.0533V19.0314V19.0095V18.9875V18.9655V18.9435V18.9215V18.8995V18.8774V18.8553V18.8333V18.8112V18.7891V18.7669V18.7448V18.7226V18.7005V18.6783V18.6561V18.6339V18.6117V18.5895V18.5673V18.545V18.5228V18.5005V18.4783V18.456V18.4338V18.4115V18.3892V18.3669V18.3446V18.3223V18.3V18.2778V18.2555V18.2332V18.2109V18.1886V18.1663V18.144V18.1217V18.0994V18.0771V18.0548V18.0325V18.0102V17.9879V17.9657V17.9434V17.9211V17.8989V17.8766V17.8544V17.8322V17.81V17.7877V17.7655V17.7433V17.7212V17.699V17.6768V17.6547V17.6326V17.6104V17.5883V17.5662V17.5442V17.5221V17.5001V17.478V17.456V17.434V17.4121V17.3901V17.3682V17.3463V17.3244V17.3025V17.2806V17.2588V17.237V17.2152V17.1935V17.1717V17.15V17.1283V17.1067V17.085V17.0634V17.0418V17.0203V16.9988V16.9773V16.9558V16.9343V16.9129V16.8916V16.8702V16.8489V16.8276V16.8064V16.7852V16.764V16.7428V16.7217V16.7006V16.6796V16.6586V16.6376V16.6167V16.5958V16.575V16.5542V16.5334V16.5127V16.492V16.4713V16.4507V16.4301V16.4096V16.3891V16.3687V16.3483V16.328V16.3077V16.2874V16.2672V16.2471V16.2269V16.2069V16.1869V16.1669V16.147V16.1271V16.1073V16.0875V16.0678V16.0482V16.0286V16.009V15.9895V15.9701V15.9507V15.9313V15.9121V15.8928V15.8737V15.8546V15.8355V15.8165V15.7976V15.7787V15.7599V15.7412V15.7225V15.7039V15.6853V15.6668V15.6484V15.63V15.6117V15.5935V15.5753V15.5572V15.5391V15.5211V15.5032V15.4854V15.4676V15.4499V15.4323V15.4147V15.3972V15.3798V15.3625V15.3452V15.328V15.3109V15.2938V15.2768V15.2599V15.2431V15.2263V15.2096V15.193V15.1765V15.1601V15.1437V15.1274V15.1112V15.0951V15.079V15.0631V15.0472V15.0314V15.0157V15V14.9845V14.969V14.9536V14.9383V14.9231V14.908V14.893V14.878V14.8632V14.8484V14.8337V14.8191V14.8046V14.7902V14.7759V14.7617V14.7475V14.7335V14.7195V14.7057V14.6919V14.6782V14.6647V14.6512V14.6378V14.6245V14.6114V14.5983V14.5853V14.5724V14.5596V14.5469V14.5343V14.5219V14.5095V14.4972V14.485V14.4729V14.461V14.4491V14.4374V14.4257V14.4141V14.4027V14.3914V14.3801V14.369V14.358V14.3471V14.3363V14.3256V14.3151V14.3046V14.2943V14.284V14.2739V14.2639V14.254V14.2442V14.2346V14.225C8.32058 13.527 8.64752 10.9835 10.0481 8.63973C11.4209 6.34257 13.808 4.25 18.0106 4.25C22.2126 4.25 24.5998 6.3457 25.9728 8.6468C27.3736 10.9945 27.7006 13.5418 27.7006 14.24V14.2495V14.2592V14.269V14.2789V14.2889V14.299V14.3093V14.3196V14.3301V14.3406V14.3513V14.3621V14.373V14.384V14.3951V14.4064V14.4177V14.4291V14.4407V14.4524V14.4641V14.476V14.4879V14.5V14.5122V14.5245V14.5369V14.5493V14.5619V14.5746V14.5874V14.6003V14.6133V14.6264V14.6395V14.6528V14.6662V14.6797V14.6932V14.7069V14.7207V14.7345V14.7485V14.7625V14.7767V14.7909V14.8052V14.8196V14.8341V14.8487V14.8634V14.8782V14.893V14.908V14.923V14.9381V14.9533V14.9686V14.984V14.9995V15.015V15.0307V15.0464V15.0622V15.0781V15.094V15.1101V15.1262V15.1424V15.1587V15.1751V15.1915V15.208V15.2246V15.2413V15.2581V15.2749V15.2918V15.3088V15.3259V15.343V15.3602V15.3775V15.3948V15.4122V15.4297V15.4473V15.4649V15.4826V15.5004V15.5182V15.5361V15.5541V15.5722V15.5903V15.6085V15.6267V15.645V15.6634V15.6818V15.7003V15.7189V15.7375V15.7562V15.7749V15.7937V15.8126V15.8315V15.8505V15.8696V15.8887V15.9078V15.9271V15.9463V15.9657V15.9851V16.0045V16.024V16.0436V16.0632V16.0828V16.1025V16.1223V16.1421V16.162V16.1819V16.2019V16.2219V16.2419V16.262V16.2822V16.3024V16.3227V16.343V16.3633V16.3837V16.4041V16.4246V16.4451V16.4657V16.4863V16.507V16.5276V16.5484V16.5692V16.59V16.6108V16.6317V16.6526V16.6736V16.6946V16.7156V16.7367V16.7578V16.779V16.8002V16.8214V16.8426V16.8639V16.8852V16.9066V16.9279V16.9493V16.9708V16.9923V17.0138V17.0353V17.0568V17.0784V17.1V17.1217V17.1433V17.165V17.1867V17.2085V17.2302V17.252V17.2738V17.2956V17.3175V17.3394V17.3613V17.3832V17.4051V17.4271V17.449V17.471V17.493V17.5151V17.5371V17.5592V17.5812V17.6033V17.6254V17.6476V17.6697V17.6918V17.714V17.7362V17.7583V17.7805V17.8027V17.825V17.8472V17.8694V17.8916V17.9139V17.9361V17.9584V17.9807V18.0029V18.0252V18.0475V18.0698V18.0921V18.1144V18.1367V18.159V18.1813V18.2036V18.2259V18.2482V18.2705V18.2928V18.315V18.3373V18.3596V18.3819V18.4042V18.4265V18.4488V18.471V18.4933V18.5155V18.5378V18.56V18.5823V18.6045V18.6267V18.6489V18.6711V18.6933V18.7155V18.7376V18.7598V18.7819V18.8041V18.8262V18.8483V18.8703V18.8924V18.9145V18.9365V18.9585V18.9805V19.0025V19.0245V19.0464V19.0683V19.0902V19.1121V19.134V19.1558V19.1776V19.1994V19.2212V19.243V19.2647V19.2864V19.3081V19.3297V19.3513V19.3729V19.3945V19.416V19.4375V19.459V19.4805V19.5019V19.5233V19.5447V19.566V19.5873V19.6085V19.6298V19.651V19.6721V19.6933V19.7144V19.7354V19.7564V19.7774V19.7984V19.8193V19.8401V19.861V19.8818V19.9025V19.9232V19.9439V19.9645V19.9851V20.0056V20.0261V20.0466V20.067V20.0874V20.1077V20.128V20.1482V20.1684V20.1885V20.2086V20.2286V20.2486V20.2686V20.2885V20.3083V20.3281V20.3478V20.3675V20.3871V20.4067V20.4262V20.4457V20.4651V20.4845V20.5038V20.523V20.5422V20.5613V20.5804V20.5994V20.6184V20.6373V20.6561V20.6749V20.6936V20.7123V20.7309V20.7494V20.7679V20.7863V20.8046V20.8229V20.8411V20.8592V20.8773V20.8953V20.9132V20.9311V20.9489V20.9667V20.9843V21.0019V21.0194V21.0369V21.0543V21.0716V21.0888V21.106V21.1231V21.1401V21.157V21.1739V21.1907V21.2074V21.2241V21.2406V21.2571V21.2735V21.2898V21.3061V21.3222V21.3383V21.3543V21.3703V21.3861V21.4018V21.4175V21.4331V21.4486V21.464V21.4794V21.4946V21.5098V21.5249V21.5399V21.5548V21.5696V21.5843V21.5989V21.6135V21.6279V21.6423V21.6566V21.6707V21.6848V21.6988V21.7127V21.7265V21.7402V21.7538V21.7674V21.7808V21.7941V21.8073V21.8205V21.8335V21.8464V21.8593V21.872V21.8846V21.8972V21.9096V21.9219V21.9342V21.9463V21.9583V21.9702V21.982V21.9937V22.0053V22.0168V22.0282V22.0395V22.0507V22.0617V22.0727V22.0835V22.0942V22.1049V22.1154V22.1258V22.1361V22.1462V22.1563V22.1663V22.1761V22.1858V22.1954V22.2049V22.2143V22.2235V22.2327V22.2417V22.2506V22.2594V22.268V22.2766V22.285V22.2933V22.3015V22.3095V22.3175V22.3253V22.333V22.3405V22.348V22.3553V22.3625V22.3695V22.3765V22.3833V22.39V22.3965V22.4029V22.4092V22.4154V22.4214V22.4273V22.4331V22.4387V22.4443V22.4496V22.4549V22.46V22.4649V22.4698V22.4745V22.479V22.4835V22.4877V22.4919V22.4959V22.4998V22.5035V22.5071V22.5106V22.5139V22.517V22.5201V22.523V22.5257V22.5283V22.5308V22.5331V22.535V22.5352V22.5373V22.5391V22.5409V22.5424V22.5439V22.5451V22.5463V22.5473V22.5481V22.5488V22.5493V22.5497V22.5499V22.55Z" stroke="#6A51CA" stroke-width="1.5" stroke-linejoin="round"/>
<mask id="path-2-inside-1_3512_64079" fill="white">
<path d="M23.2603 28.25C23.2603 31.145 20.9053 33.5 18.0103 33.5C15.1153 33.5 12.7603 31.145 12.7603 28.25"/>
</mask>
<path d="M21.7603 28.25C21.7603 30.3166 20.0768 32 18.0103 32V35C21.7337 35 24.7603 31.9734 24.7603 28.25H21.7603ZM18.0103 32C15.9437 32 14.2603 30.3166 14.2603 28.25H11.2603C11.2603 31.9734 14.2868 35 18.0103 35V32Z" fill="#6A51CA" mask="url(#path-2-inside-1_3512_64079)"/>
</svg>
