<svg width="32" height="25" viewBox="0 0 32 25" fill="none" xmlns="http://www.w3.org/2000/svg">
<g id="Group">
<g id="Group_2">
<path id="Vector" d="M17.8 22.3355C17.368 23.6747 15.9424 24.4235 14.5888 23.9915C13.2352 23.5595 12.5008 22.1339 12.9328 20.7803" stroke="#6A51CA" stroke-width="1.5" stroke-linejoin="round"/>
<path id="Vector_2" d="M20.2625 19.3116C20.2625 19.3116 21.5585 15.2508 21.8609 14.2716C22.1633 13.2924 23.0849 7.48915 17.5985 5.74675C12.1265 4.00435 9.52006 9.26035 9.20326 10.2396C8.88646 11.2188 7.60486 15.2796 7.60486 15.2796L5.35846 16.6764C4.63846 17.1228 4.78246 18.1884 5.58886 18.4476L12.8321 20.7516L20.0753 23.0556C20.8817 23.3148 21.6161 22.5084 21.2849 21.7308L20.2625 19.2972V19.3116Z" stroke="#6A51CA" stroke-width="1.5" stroke-linejoin="round"/>
</g>
<g id="Group_3">
<path id="Vector_3" d="M27.016 4.01855C29.2048 5.48735 30.6016 7.77695 30.8752 10.3402C31.1344 12.9178 30.2416 15.4954 28.4128 17.425" stroke="#6A51CA" stroke-width="1.5" stroke-linecap="round" stroke-linejoin="round"/>
<path id="Vector_4" d="M25.0432 6.68262C26.4256 7.60422 27.3184 9.10182 27.4336 10.7866C27.5632 12.4714 26.944 14.1706 25.7488 15.4666" stroke="#6A51CA" stroke-width="1.5" stroke-linecap="round" stroke-linejoin="round"/>
</g>
<g id="Group_4">
<path id="Vector_5" d="M8.05126 0.879395C5.47366 1.41219 3.31366 3.02499 2.10406 5.28579C0.894461 7.57539 0.750461 10.297 1.71526 12.7738" stroke="#6A51CA" stroke-width="1.5" stroke-linecap="round" stroke-linejoin="round"/>
<path id="Vector_6" d="M8.87208 4.10498C7.24488 4.43618 5.86248 5.48738 5.11368 6.99938C4.36488 8.51138 4.29288 10.3114 4.91208 11.9674" stroke="#6A51CA" stroke-width="1.5" stroke-linecap="round" stroke-linejoin="round"/>
</g>
</g>
</svg>
