<svg width="24" height="24" viewBox="0 0 24 24" fill="none" xmlns="http://www.w3.org/2000/svg">
<path d="M22.7 12.0008C22.7 17.9102 17.9095 22.7008 12 22.7008C6.0906 22.7008 1.30005 17.9102 1.30005 12.0008C1.30005 6.09133 6.0906 1.30078 12 1.30078C17.9095 1.30078 22.7 6.09133 22.7 12.0008Z" stroke="#B4B4B4"/>
<path d="M19.5 12C19.5 16.1421 16.1421 19.5 12 19.5C7.85786 19.5 4.5 16.1421 4.5 12C4.5 7.85786 7.85786 4.5 12 4.5C16.1421 4.5 19.5 7.85786 19.5 12Z" stroke="#F42525"/>
<path d="M10.9998 15.793C10.9998 15.2656 11.4376 14.8066 11.9948 14.8066C12.552 14.8066 12.9898 15.2656 12.9898 15.793C12.9898 16.3203 12.552 16.7598 11.9948 16.7598C11.4376 16.7598 10.9998 16.3105 10.9998 15.793Z" fill="#F42525"/>
<path d="M12.9895 7.64844C12.9895 8.18555 12.7905 9.5625 12.5517 11.584L12.3129 13.5957H11.6661L11.4273 11.584C11.1885 9.55273 10.9895 8.17578 10.9895 7.64844C10.9895 7.02344 11.3676 6.75977 11.9845 6.75977C12.6014 6.75977 12.9796 7.02344 12.9796 7.64844H12.9895Z" fill="#F42525"/>
</svg>
