<svg width="58" height="24" viewBox="0 0 58 24" fill="none" xmlns="http://www.w3.org/2000/svg">
<path d="M7.3542 7.004H9.8742C10.2662 7.004 10.6382 7.044 10.9902 7.124C11.3502 7.196 11.6662 7.324 11.9382 7.508C12.2182 7.684 12.4382 7.924 12.5982 8.228C12.7662 8.524 12.8502 8.892 12.8502 9.332C12.8502 9.796 12.7622 10.18 12.5862 10.484C12.4102 10.788 12.1822 11.028 11.9022 11.204C11.6302 11.38 11.3302 11.504 11.0022 11.576C10.6742 11.648 10.3622 11.684 10.0662 11.684H8.3622V15.5H7.3542V7.004ZM8.3622 10.748H10.0662C10.5702 10.748 10.9782 10.636 11.2902 10.412C11.6102 10.18 11.7702 9.824 11.7702 9.344C11.7702 8.864 11.6102 8.512 11.2902 8.288C10.9782 8.056 10.5702 7.94 10.0662 7.94H8.3622V10.748ZM19.4355 14.48C19.0995 14.912 18.7315 15.216 18.3315 15.392C17.9315 15.56 17.4675 15.644 16.9395 15.644C16.4995 15.644 16.1035 15.568 15.7515 15.416C15.3995 15.256 15.0995 15.044 14.8515 14.78C14.6115 14.516 14.4235 14.204 14.2875 13.844C14.1595 13.484 14.0955 13.1 14.0955 12.692C14.0955 12.26 14.1675 11.864 14.3115 11.504C14.4555 11.136 14.6555 10.824 14.9115 10.568C15.1675 10.304 15.4715 10.1 15.8235 9.956C16.1755 9.812 16.5595 9.74 16.9755 9.74C17.3675 9.74 17.7275 9.808 18.0555 9.944C18.3835 10.072 18.6635 10.264 18.8955 10.52C19.1355 10.768 19.3195 11.076 19.4475 11.444C19.5755 11.804 19.6395 12.216 19.6395 12.68V12.98H15.1035C15.1195 13.22 15.1755 13.452 15.2715 13.676C15.3755 13.892 15.5075 14.084 15.6675 14.252C15.8275 14.412 16.0155 14.54 16.2315 14.636C16.4475 14.732 16.6835 14.78 16.9395 14.78C17.3475 14.78 17.6915 14.708 17.9715 14.564C18.2515 14.42 18.5035 14.208 18.7275 13.928L19.4355 14.48ZM18.6315 12.188C18.6155 11.708 18.4595 11.324 18.1635 11.036C17.8675 10.748 17.4595 10.604 16.9395 10.604C16.4195 10.604 15.9995 10.748 15.6795 11.036C15.3595 11.324 15.1675 11.708 15.1035 12.188H18.6315ZM21.2075 11.216C21.2075 10.96 21.1995 10.72 21.1835 10.496C21.1675 10.272 21.1595 10.068 21.1595 9.884H22.0475C22.0475 10.036 22.0515 10.188 22.0595 10.34C22.0675 10.492 22.0715 10.648 22.0715 10.808H22.0955C22.1595 10.672 22.2475 10.54 22.3595 10.412C22.4795 10.284 22.6195 10.172 22.7795 10.076C22.9395 9.972 23.1195 9.892 23.3195 9.836C23.5195 9.772 23.7355 9.74 23.9675 9.74C24.3355 9.74 24.6515 9.796 24.9155 9.908C25.1875 10.02 25.4115 10.176 25.5875 10.376C25.7635 10.576 25.8915 10.82 25.9715 11.108C26.0595 11.388 26.1035 11.696 26.1035 12.032V15.5H25.1675V12.128C25.1675 11.656 25.0635 11.284 24.8555 11.012C24.6475 10.74 24.3235 10.604 23.8835 10.604C23.5795 10.604 23.3155 10.656 23.0915 10.76C22.8755 10.864 22.6955 11.012 22.5515 11.204C22.4155 11.396 22.3115 11.624 22.2395 11.888C22.1755 12.152 22.1435 12.444 22.1435 12.764V15.5H21.2075V11.216ZM32.6634 14.504H32.6394C32.4634 14.824 32.1834 15.096 31.7994 15.32C31.4234 15.536 30.9834 15.644 30.4794 15.644C30.0874 15.644 29.7194 15.572 29.3754 15.428C29.0314 15.276 28.7314 15.068 28.4754 14.804C28.2274 14.54 28.0314 14.228 27.8874 13.868C27.7434 13.508 27.6714 13.116 27.6714 12.692C27.6714 12.268 27.7434 11.876 27.8874 11.516C28.0314 11.156 28.2314 10.844 28.4874 10.58C28.7434 10.316 29.0514 10.112 29.4114 9.968C29.7794 9.816 30.1834 9.74 30.6234 9.74C31.0314 9.74 31.4034 9.824 31.7394 9.992C32.0834 10.16 32.3834 10.396 32.6394 10.7H32.6634V6.428H33.5994V15.5H32.6634V14.504ZM32.6634 12.692C32.6634 12.396 32.6154 12.124 32.5194 11.876C32.4314 11.62 32.2994 11.4 32.1234 11.216C31.9474 11.024 31.7354 10.876 31.4874 10.772C31.2474 10.66 30.9754 10.604 30.6714 10.604C30.3674 10.604 30.0914 10.66 29.8434 10.772C29.6034 10.876 29.3954 11.024 29.2194 11.216C29.0434 11.4 28.9074 11.62 28.8114 11.876C28.7234 12.124 28.6794 12.396 28.6794 12.692C28.6794 12.988 28.7234 13.264 28.8114 13.52C28.9074 13.768 29.0434 13.988 29.2194 14.18C29.3954 14.364 29.6034 14.512 29.8434 14.624C30.0914 14.728 30.3674 14.78 30.6714 14.78C30.9754 14.78 31.2474 14.728 31.4874 14.624C31.7354 14.512 31.9474 14.364 32.1234 14.18C32.2994 13.988 32.4314 13.768 32.5194 13.52C32.6154 13.264 32.6634 12.988 32.6634 12.692ZM35.5471 9.884H36.4831V15.5H35.5471V9.884ZM35.3311 7.688C35.3311 7.504 35.3951 7.344 35.5231 7.208C35.6591 7.072 35.8231 7.004 36.0151 7.004C36.2071 7.004 36.3671 7.072 36.4951 7.208C36.6311 7.344 36.6991 7.504 36.6991 7.688C36.6991 7.888 36.6351 8.052 36.5071 8.18C36.3791 8.308 36.2151 8.372 36.0151 8.372C35.8151 8.372 35.6511 8.308 35.5231 8.18C35.3951 8.052 35.3311 7.888 35.3311 7.688ZM38.4659 11.216C38.4659 10.96 38.4579 10.72 38.4419 10.496C38.4259 10.272 38.4179 10.068 38.4179 9.884H39.3059C39.3059 10.036 39.3099 10.188 39.3179 10.34C39.3259 10.492 39.3299 10.648 39.3299 10.808H39.3539C39.4179 10.672 39.5059 10.54 39.6179 10.412C39.7379 10.284 39.8779 10.172 40.0379 10.076C40.1979 9.972 40.3779 9.892 40.5779 9.836C40.7779 9.772 40.9939 9.74 41.2259 9.74C41.5939 9.74 41.9099 9.796 42.1739 9.908C42.4459 10.02 42.6699 10.176 42.8459 10.376C43.0219 10.576 43.1499 10.82 43.2299 11.108C43.3179 11.388 43.3619 11.696 43.3619 12.032V15.5H42.4259V12.128C42.4259 11.656 42.3219 11.284 42.1139 11.012C41.9059 10.74 41.5819 10.604 41.1419 10.604C40.8379 10.604 40.5739 10.656 40.3499 10.76C40.1339 10.864 39.9539 11.012 39.8099 11.204C39.6739 11.396 39.5699 11.624 39.4979 11.888C39.4339 12.152 39.4019 12.444 39.4019 12.764V15.5H38.4659V11.216ZM50.8579 15.248C50.8579 16.272 50.5939 17.048 50.0659 17.576C49.5459 18.112 48.7899 18.38 47.7979 18.38C47.2459 18.38 46.7459 18.3 46.2979 18.14C45.8579 17.98 45.4379 17.704 45.0379 17.312L45.7099 16.544C46.0059 16.864 46.3179 17.104 46.6459 17.264C46.9819 17.432 47.3659 17.516 47.7979 17.516C48.2139 17.516 48.5579 17.452 48.8299 17.324C49.1099 17.204 49.3299 17.036 49.4899 16.82C49.6499 16.612 49.7619 16.372 49.8259 16.1C49.8899 15.828 49.9219 15.544 49.9219 15.248V14.528H49.8979C49.6739 14.888 49.3819 15.152 49.0219 15.32C48.6619 15.488 48.2939 15.572 47.9179 15.572C47.4779 15.572 47.0739 15.5 46.7059 15.356C46.3379 15.212 46.0219 15.012 45.7579 14.756C45.4939 14.5 45.2899 14.196 45.1459 13.844C45.0019 13.492 44.9299 13.108 44.9299 12.692C44.9299 12.236 45.0019 11.824 45.1459 11.456C45.2899 11.088 45.4899 10.78 45.7459 10.532C46.0099 10.276 46.3259 10.08 46.6939 9.944C47.0619 9.808 47.4699 9.74 47.9179 9.74C48.1099 9.74 48.3019 9.764 48.4939 9.812C48.6859 9.852 48.8699 9.92 49.0459 10.016C49.2299 10.104 49.3939 10.22 49.5379 10.364C49.6819 10.5 49.8019 10.66 49.8979 10.844H49.9219V9.884H50.8579V15.248ZM45.9379 12.692C45.9379 12.98 45.9899 13.248 46.0939 13.496C46.1979 13.736 46.3379 13.948 46.5139 14.132C46.6979 14.308 46.9099 14.448 47.1499 14.552C47.3899 14.656 47.6459 14.708 47.9179 14.708C48.2379 14.708 48.5219 14.652 48.7699 14.54C49.0179 14.428 49.2259 14.28 49.3939 14.096C49.5699 13.904 49.7019 13.688 49.7899 13.448C49.8779 13.2 49.9219 12.94 49.9219 12.668C49.9219 12.364 49.8739 12.088 49.7779 11.84C49.6819 11.584 49.5459 11.364 49.3699 11.18C49.1939 10.996 48.9819 10.856 48.7339 10.76C48.4859 10.656 48.2139 10.604 47.9179 10.604C47.6219 10.604 47.3499 10.66 47.1019 10.772C46.8619 10.876 46.6539 11.024 46.4779 11.216C46.3099 11.4 46.1779 11.62 46.0819 11.876C45.9859 12.124 45.9379 12.396 45.9379 12.692Z" fill="#B4B4B4"/>
<rect x="0.5" y="1" width="57" height="22" rx="4.5" stroke="#B4B4B4"/>
</svg>
