<svg width="30" height="30" viewBox="0 0 30 30" fill="none" xmlns="http://www.w3.org/2000/svg">
<path d="M15.0113 3.75C16.3837 3.75 17.7 4.29 18.6675 5.26875C19.635 6.23625 20.1863 7.5525 20.1863 8.925C20.1863 10.2975 19.6463 11.6138 18.6675 12.5813C17.7 13.5488 16.3837 14.1 15.0113 14.1C13.6388 14.1 12.3225 13.56 11.355 12.5813C10.3875 11.6138 9.83625 10.2975 9.83625 8.925C9.83625 7.5525 10.3763 6.23625 11.355 5.26875C12.3225 4.30125 13.6388 3.75 15.0113 3.75ZM15.0113 26.25H14.8875C14.7975 26.25 14.6738 26.25 14.505 26.25C14.1788 26.25 13.7063 26.2275 13.1438 26.205C12.0188 26.16 10.5225 26.07 9.0375 25.8787C7.54125 25.6875 6.10125 25.4175 5.06625 25.0238C4.54875 24.8325 4.18875 24.63 3.96375 24.4387C3.76125 24.2587 3.75 24.1575 3.75 24.1238C3.75 22.7738 4.8975 21.1087 7.06875 19.725C9.195 18.375 12.0638 17.4412 15 17.4412C17.9362 17.4412 20.805 18.375 22.9313 19.725C25.1025 21.12 26.25 22.7738 26.25 24.1238C26.25 24.1575 26.25 24.2587 26.0362 24.4387C25.8225 24.63 25.4625 24.8325 24.9338 25.0238C23.8988 25.4175 22.4588 25.6875 20.9625 25.8787C19.4775 26.07 17.9813 26.16 16.8563 26.205C16.2938 26.2275 15.8213 26.2388 15.495 26.25C15.3263 26.25 15.2025 26.25 15.1125 26.25H15.0113H14.9887H15.0113Z" fill="#383838"/>
<path d="M15.0113 3.75C16.3838 3.75 17.7 4.29 18.6675 5.26875C19.635 6.23625 20.1863 7.5525 20.1863 8.925C20.1863 10.2975 19.6463 11.6138 18.6675 12.5813C17.7 13.5488 16.3838 14.1 15.0113 14.1C13.6388 14.1 12.3225 13.56 11.355 12.5813C10.3875 11.6138 9.83625 10.2975 9.83625 8.925C9.83625 7.5525 10.3763 6.23625 11.355 5.26875C12.3225 4.30125 13.6388 3.75 15.0113 3.75V3.75ZM15.0113 26.25H14.8875C14.7975 26.25 14.6738 26.25 14.505 26.25C14.1788 26.25 13.7063 26.2275 13.1438 26.205C12.0188 26.16 10.5225 26.07 9.0375 25.8788C7.54125 25.6875 6.10125 25.4175 5.06625 25.0237C4.54875 24.8325 4.18875 24.63 3.96375 24.4387C3.76125 24.2587 3.75 24.1575 3.75 24.1238C3.75 22.7738 4.8975 21.1087 7.06875 19.725C9.195 18.375 12.0638 17.4413 15 17.4413C17.9362 17.4413 20.805 18.375 22.9313 19.725C25.1025 21.12 26.25 22.7738 26.25 24.1238C26.25 24.1575 26.25 24.2587 26.0362 24.4387C25.8225 24.63 25.4625 24.8325 24.9337 25.0237C23.8987 25.4175 22.4588 25.6875 20.9625 25.8788C19.4775 26.07 17.9813 26.16 16.8563 26.205C16.2938 26.2275 15.8213 26.2388 15.495 26.25C15.3263 26.25 15.2025 26.25 15.1125 26.25H15.0113H14.9887H15.0113Z" stroke="#383838"/>
</svg>
