<svg width="48" height="48" viewBox="0 0 48 48" fill="none" xmlns="http://www.w3.org/2000/svg">
<circle cx="24" cy="24" r="24" fill="#E6E2F6"/>
<path d="M38.6666 12.334H9.33325C8.22868 12.334 7.33325 13.2294 7.33325 14.334V33.6673C7.33325 34.7719 8.22868 35.6673 9.33325 35.6673H38.6666C39.7712 35.6673 40.6666 34.7719 40.6666 33.6673V14.334C40.6666 13.2294 39.7712 12.334 38.6666 12.334Z" fill="#252526"/>
<path d="M12.2335 22.2003H14.7335V22.8003H12.9001V23.7336H14.6335V24.3336H12.9001V25.3503H14.8168V25.9503H12.2168V22.1836L12.2335 22.2003Z" fill="#E6E2F6"/>
<path d="M15.05 22.2012H15.8167L16.85 25.0512L17.9167 22.2012H18.6334L17.1167 25.9678H16.5334L15.05 22.2012Z" fill="#E6E2F6"/>
<path d="M19.8169 24.9328H18.5002V24.3828H19.8169V24.9328Z" fill="#E6E2F6"/>
<path d="M20.4167 22.2012H21.0834V23.8012H21.1167L22.6834 22.2012H23.5834L21.8167 23.9345L23.7001 25.9678H22.7501L21.1167 24.1178H21.0834V25.9678H20.4167V22.2012Z" fill="#E6E2F6"/>
<path d="M24.0667 22.2003H26.5667V22.8003H24.7334V23.7336H26.4667V24.3336H24.7334V25.3503H26.65V25.9503H24.05V22.1836L24.0667 22.2003Z" fill="#E6E2F6"/>
<path d="M28.2502 24.3512L26.8335 22.2012H27.6668L28.6002 23.7012L29.5335 22.2012H30.3335L28.9168 24.3512V25.9678H28.2502V24.3512Z" fill="#E6E2F6"/>
<path d="M32.7833 20.3008C33.8333 21.2841 34.3834 22.6508 34.3167 24.0674C34.25 25.4841 33.5667 26.8174 32.4333 27.7174" stroke="#E6E2F6" stroke-width="0.5" stroke-miterlimit="10" stroke-linecap="round"/>
<path d="M31.5164 21.584C32.183 22.2007 32.533 23.084 32.4664 24.0173C32.3997 24.9507 31.933 25.8173 31.1997 26.434" stroke="#E6E2F6" stroke-width="0.5" stroke-miterlimit="10" stroke-linecap="round"/>
<path d="M34.0497 19C35.483 20.3333 36.2497 22.2 36.183 24.1C36.1164 26.0167 35.2164 27.8 33.6997 29" stroke="#E6E2F6" stroke-width="0.5" stroke-miterlimit="10" stroke-linecap="round"/>
</svg>
