<svg width="215" height="215" viewBox="0 0 215 215" fill="none" xmlns="http://www.w3.org/2000/svg">
<circle cx="107.5" cy="107.5" r="107.5" fill="url(#paint0_radial_1031_63091)"/>
<circle cx="107.5" cy="107.5" r="80.625" fill="#FAFAFA" fill-opacity="0.25"/>
<g filter="url(#filter0_d_1031_63091)">
<circle cx="107.497" cy="107.501" r="55.9896" fill="#FAFAFA" fill-opacity="0.25" shape-rendering="crispEdges"/>
</g>
<circle cx="107.497" cy="107.501" r="62.2083" stroke="#FAFAFA"/>
<circle cx="107.497" cy="107.501" r="35.8333" fill="#FAFAFA"/>
<path d="M116.165 52.9058C130.292 55.117 143.011 62.7185 151.651 74.1127C160.29 85.5069 164.175 99.8064 162.491 114.006C160.807 128.205 153.683 141.199 142.618 150.256C131.553 159.313 117.408 163.728 103.156 162.573" stroke="url(#paint1_angular_1031_63091)" stroke-width="10" stroke-linecap="round" stroke-linejoin="round"/>
<path d="M94.637 161.208C81.4916 158.033 69.9671 150.147 62.2462 139.044C54.5253 127.941 51.1441 114.392 52.743 100.964C54.342 87.5352 60.81 75.1592 70.922 66.1797C81.0341 57.2003 94.088 52.2409 107.611 52.2409" stroke="url(#paint2_angular_1031_63091)" stroke-width="10" stroke-linecap="round" stroke-linejoin="round"/>
<path d="M28.2611 106.78C28.4407 86.998 36.0028 67.996 49.4648 53.4994C62.9269 39.0028 81.3181 30.0572 101.033 28.4161C120.748 26.775 140.365 32.5568 156.039 44.6281C171.713 56.6994 182.312 74.1897 185.76 93.6702" stroke="url(#paint3_angular_1031_63091)" stroke-opacity="0.2" stroke-width="10" stroke-linecap="round" stroke-linejoin="round"/>
<path d="M186.83 112.257C185.649 131.92 177.197 150.441 163.118 164.218C149.039 177.995 130.339 186.044 110.655 186.798C90.9708 187.553 71.7096 180.96 56.6169 168.301C41.5243 155.643 31.679 137.823 28.9957 118.308" stroke="url(#paint4_angular_1031_63091)" stroke-opacity="0.2" stroke-width="10" stroke-linecap="round" stroke-linejoin="round"/>
<path d="M104.528 96H93.1281L93.0081 101.64C93.3815 101.507 93.8481 101.413 94.4081 101.36C94.9948 101.307 95.5415 101.28 96.0481 101.28C97.4348 101.28 98.7015 101.507 99.8481 101.96C101.021 102.387 102.021 103.013 102.848 103.84C103.675 104.667 104.315 105.653 104.768 106.8C105.248 107.947 105.488 109.24 105.488 110.68C105.488 112.2 105.221 113.573 104.688 114.8C104.181 116 103.461 117.027 102.528 117.88C101.621 118.707 100.541 119.347 99.2881 119.8C98.0348 120.253 96.6881 120.48 95.2481 120.48C92.9815 120.48 91.0481 119.947 89.4481 118.88C87.8748 117.813 86.7548 116.187 86.0881 114L91.1281 112.64C91.4481 113.653 91.9948 114.453 92.7681 115.04C93.5415 115.627 94.5415 115.92 95.7681 115.92C96.4881 115.92 97.1415 115.8 97.7281 115.56C98.3415 115.32 98.8615 114.987 99.2881 114.56C99.7415 114.107 100.088 113.587 100.328 113C100.568 112.413 100.688 111.773 100.688 111.08C100.688 110.093 100.501 109.253 100.128 108.56C99.7815 107.867 99.3015 107.307 98.6881 106.88C98.0748 106.427 97.3681 106.107 96.5681 105.92C95.7681 105.707 94.9281 105.6 94.0481 105.6C93.0081 105.6 91.9681 105.72 90.9281 105.96C89.9148 106.2 88.9815 106.533 88.1281 106.96L88.4081 91.68H104.528V96ZM109.6 105.84C109.6 103.6 109.773 101.693 110.12 100.12C110.493 98.52 110.973 97.1867 111.56 96.12C112.147 95.0267 112.8 94.16 113.52 93.52C114.267 92.8533 115.013 92.36 115.76 92.04C116.533 91.6933 117.267 91.4667 117.96 91.36C118.68 91.2533 119.307 91.2 119.84 91.2C120.373 91.2 120.987 91.2533 121.68 91.36C122.4 91.4667 123.133 91.6933 123.88 92.04C124.653 92.36 125.4 92.8533 126.12 93.52C126.867 94.16 127.533 95.0267 128.12 96.12C128.707 97.1867 129.173 98.52 129.52 100.12C129.893 101.693 130.08 103.6 130.08 105.84C130.08 108.08 129.893 110 129.52 111.6C129.173 113.173 128.707 114.507 128.12 115.6C127.533 116.667 126.867 117.533 126.12 118.2C125.4 118.84 124.653 119.333 123.88 119.68C123.133 120 122.4 120.213 121.68 120.32C120.987 120.427 120.373 120.48 119.84 120.48C119.307 120.48 118.68 120.427 117.96 120.32C117.267 120.213 116.533 120 115.76 119.68C115.013 119.333 114.267 118.84 113.52 118.2C112.8 117.533 112.147 116.667 111.56 115.6C110.973 114.507 110.493 113.173 110.12 111.6C109.773 110 109.6 108.08 109.6 105.84ZM114.4 105.84C114.4 106.72 114.453 107.747 114.56 108.92C114.693 110.067 114.947 111.16 115.32 112.2C115.693 113.24 116.24 114.12 116.96 114.84C117.68 115.56 118.64 115.92 119.84 115.92C121.04 115.92 122 115.56 122.72 114.84C123.44 114.12 123.987 113.24 124.36 112.2C124.733 111.16 124.973 110.067 125.08 108.92C125.213 107.747 125.28 106.72 125.28 105.84C125.28 104.96 125.213 103.947 125.08 102.8C124.973 101.627 124.733 100.52 124.36 99.48C123.987 98.44 123.44 97.56 122.72 96.84C122 96.12 121.04 95.76 119.84 95.76C118.64 95.76 117.68 96.12 116.96 96.84C116.24 97.56 115.693 98.44 115.32 99.48C114.947 100.52 114.693 101.627 114.56 102.8C114.453 103.947 114.4 104.96 114.4 105.84Z" fill="#5F6060"/>
<defs>
<filter id="filter0_d_1031_63091" x="41.5076" y="41.5117" width="131.979" height="131.979" filterUnits="userSpaceOnUse" color-interpolation-filters="sRGB">
<feFlood flood-opacity="0" result="BackgroundImageFix"/>
<feColorMatrix in="SourceAlpha" type="matrix" values="0 0 0 0 0 0 0 0 0 0 0 0 0 0 0 0 0 0 127 0" result="hardAlpha"/>
<feOffset/>
<feGaussianBlur stdDeviation="5"/>
<feComposite in2="hardAlpha" operator="out"/>
<feColorMatrix type="matrix" values="0 0 0 0 0.768627 0 0 0 0 0.768627 0 0 0 0 0.772549 0 0 0 1 0"/>
<feBlend mode="normal" in2="BackgroundImageFix" result="effect1_dropShadow_1031_63091"/>
<feBlend mode="normal" in="SourceGraphic" in2="effect1_dropShadow_1031_63091" result="shape"/>
</filter>
<radialGradient id="paint0_radial_1031_63091" cx="0" cy="0" r="1" gradientUnits="userSpaceOnUse" gradientTransform="translate(107.5 107.5) rotate(90) scale(263.151)">
<stop stop-color="#FAFAFA"/>
<stop offset="0.84861" stop-color="#CECFCF"/>
</radialGradient>
<radialGradient id="paint1_angular_1031_63091" cx="0" cy="0" r="1" gradientUnits="userSpaceOnUse" gradientTransform="translate(107.62 107.497) rotate(-160.601) scale(65.4702)">
<stop offset="0.198567" stop-color="#FAFAFA" stop-opacity="0"/>
<stop offset="0.376548" stop-color="#FAFAFA" stop-opacity="0.29"/>
<stop offset="0.742878" stop-color="#FAFAFA"/>
</radialGradient>
<radialGradient id="paint2_angular_1031_63091" cx="0" cy="0" r="1" gradientUnits="userSpaceOnUse" gradientTransform="translate(107.611 107.497) rotate(4.3987) scale(65.4702)">
<stop offset="0.261567" stop-color="#FAFAFA" stop-opacity="0"/>
<stop offset="0.435879" stop-color="#FAFAFA" stop-opacity="0.25"/>
<stop offset="0.766308" stop-color="#FAFAFA"/>
</radialGradient>
<radialGradient id="paint3_angular_1031_63091" cx="0" cy="0" r="1" gradientUnits="userSpaceOnUse" gradientTransform="translate(107.616 107.501) rotate(94.3987) scale(91.6583)">
<stop offset="0.237638" stop-color="#6A51CA" stop-opacity="0"/>
<stop offset="0.450844" stop-color="#6A51CA" stop-opacity="0.25"/>
<stop offset="0.761524" stop-color="#6A51CA"/>
</radialGradient>
<radialGradient id="paint4_angular_1031_63091" cx="0" cy="0" r="1" gradientUnits="userSpaceOnUse" gradientTransform="translate(107.614 107.498) rotate(-84.9443) scale(91.6583)">
<stop offset="0.234307" stop-color="#6A51CA" stop-opacity="0"/>
<stop offset="0.520833" stop-color="#6A51CA" stop-opacity="0.666667"/>
<stop offset="0.761524" stop-color="#6A51CA"/>
</radialGradient>
</defs>
</svg>
