<svg width="36" height="36" viewBox="0 0 36 36" fill="none" xmlns="http://www.w3.org/2000/svg">
<path d="M29.6398 15.4638L27.5853 15.1301C27.3852 14.4761 27.1317 13.8487 26.8116 13.2614L28.0256 11.5795C28.159 11.406 28.1323 11.1524 27.9855 11.0056L25.0106 8.02892C24.8505 7.86874 24.6103 7.85539 24.4369 7.98888L22.756 9.20356C22.169 8.8832 21.542 8.62959 20.8883 8.42937L20.5548 6.37375C20.5147 6.16018 20.328 6 20.1145 6H15.9122C15.6987 6 15.512 6.16018 15.4719 6.37375L15.1384 8.42937C14.4847 8.62959 13.8577 8.8832 13.2707 9.20356L11.5898 7.98888C11.4163 7.85539 11.1629 7.88209 11.0161 8.02892L8.02779 10.9922C7.8677 11.1524 7.85436 11.3927 7.98777 11.5662L9.20178 13.2481C8.8816 13.8354 8.62813 14.4627 8.42802 15.1168L6.37354 15.4505C6.16009 15.4905 6 15.6774 6 15.891V20.0957C6 20.3092 6.16009 20.4961 6.37354 20.5361L8.42802 20.8699C8.62813 21.5239 8.8816 22.1513 9.20178 22.7386L7.98777 24.4205C7.85436 24.594 7.88104 24.8476 8.02779 24.9944L11.0028 27.9711C11.1629 28.1313 11.403 28.1446 11.5764 28.0111L13.2574 26.7964C13.8444 27.1168 14.4714 27.3704 15.1251 27.5706L15.4586 29.6262C15.4986 29.8398 15.6854 30 15.8988 30H20.1012C20.3146 30 20.5014 29.8398 20.5414 29.6262L20.8749 27.5706C21.5286 27.3704 22.1556 27.1168 22.7426 26.7964L24.4236 28.0111C24.597 28.1446 24.8505 28.1179 24.9972 27.9711L27.9722 24.9944C28.1323 24.8343 28.1456 24.594 28.0122 24.4205L26.7982 22.7386C27.1184 22.1513 27.3719 21.5239 27.572 20.8699L29.6265 20.5361C29.8399 20.4961 30 20.3092 30 20.0957V15.891C30 15.6774 29.8399 15.4905 29.6265 15.4505L29.6398 15.4638ZM18.0067 23.3526C15.0584 23.3526 12.6704 20.9633 12.6704 18.0133C12.6704 15.0634 15.0584 12.6741 18.0067 12.6741C20.955 12.6741 23.343 15.0634 23.343 18.0133C23.343 20.9633 20.955 23.3526 18.0067 23.3526Z" fill="#383838"/>
</svg>
