<svg width="25" height="24" viewBox="0 0 25 24" fill="none" xmlns="http://www.w3.org/2000/svg">
<path d="M7.03994 8.5394L6.33097 7.5572L8.07177 5.83098L9.05429 6.54097L9.30987 6.72566L9.58667 6.5746C9.94406 6.37955 10.3301 6.2228 10.7387 6.09765L11.036 6.00659L11.0858 5.69965L11.2805 4.5H13.7373L13.932 5.69965L13.9818 6.00659L14.2791 6.09765C14.6877 6.2228 15.0737 6.37955 15.4311 6.5746L15.7079 6.72566L15.9635 6.54097L16.9454 5.83145L18.6784 7.56545L17.969 8.5483L17.7846 8.8037L17.9354 9.08026C18.1303 9.43789 18.287 9.82421 18.4121 10.233L18.5031 10.5304L18.8101 10.5803L20 10.7736V13.225L18.8012 13.4197L18.4942 13.4696L18.4032 13.767C18.2781 14.1758 18.1214 14.5621 17.9265 14.9197L17.7757 15.1963L17.9601 15.4517L18.6695 16.4346L16.9365 18.1685L15.9546 17.459L15.699 17.2743L15.4222 17.4254C15.0648 17.6205 14.6788 17.7772 14.2702 17.9023L13.9729 17.9934L13.9231 18.3003L13.7284 19.5H11.2716L11.0769 18.3003L11.0271 17.9934L10.7298 17.9023C10.3212 17.7772 9.93517 17.6205 9.57777 17.4254L9.30098 17.2743L9.04539 17.459L8.06353 18.1686L6.33049 16.4346L7.03994 15.4517L7.22429 15.1963L7.07352 14.9197C6.87856 14.5621 6.72188 14.1758 6.5968 13.767L6.50581 13.4696L6.19884 13.4197L5 13.225V10.7661L6.19884 10.5714L6.50581 10.5215L6.5968 10.2241C6.72188 9.81531 6.87856 9.42899 7.07352 9.07136L7.22429 8.7948L7.03994 8.5394ZM8.44692 12.0089C8.44692 14.2514 10.2625 16.0684 12.5044 16.0684C14.7464 16.0684 16.562 14.2514 16.562 12.0089C16.562 9.76639 14.7464 7.94939 12.5044 7.94939C10.2625 7.94939 8.44692 9.76639 8.44692 12.0089Z" fill="#6A51CA" stroke="#6A51CA"/>
</svg>
