<svg width="34" height="34" viewBox="0 0 34 34" fill="none" xmlns="http://www.w3.org/2000/svg">
<g id="Group">
<path id="Vector" d="M9.80003 25.6115C14.5718 25.6115 18.44 21.7433 18.44 16.9715C18.44 12.1998 14.5718 8.33154 9.80003 8.33154C5.02829 8.33154 1.16003 12.1998 1.16003 16.9715C1.16003 21.7433 5.02829 25.6115 9.80003 25.6115Z" fill="#6A51CA" stroke="#6A51CA" stroke-linejoin="round"/>
<path id="Vector_2" d="M28.5201 9.77135C30.9059 9.77135 32.8401 7.83722 32.8401 5.45135C32.8401 3.06548 30.9059 1.13135 28.5201 1.13135C26.1342 1.13135 24.2001 3.06548 24.2001 5.45135C24.2001 7.83722 26.1342 9.77135 28.5201 9.77135Z" stroke="#6A51CA" stroke-linejoin="round"/>
<path id="Vector_3" d="M28.5201 32.869C30.9059 32.869 32.8401 30.9349 32.8401 28.549C32.8401 26.1631 30.9059 24.229 28.5201 24.229C26.1342 24.229 24.2001 26.1631 24.2001 28.549C24.2001 30.9349 26.1342 32.869 28.5201 32.869Z" stroke="#6A51CA" stroke-linejoin="round"/>
<path id="Vector_4" d="M24.848 26.274L17.144 21.522" stroke="#6A51CA" stroke-linejoin="round"/>
<path id="Vector_5" d="M17.144 12.1475L24.848 7.39551" stroke="#6A51CA" stroke-linejoin="round"/>
</g>
</svg>
