<svg width="24" height="24" viewBox="0 0 24 24" fill="none" xmlns="http://www.w3.org/2000/svg">
<g id="warning">
<g id="warning_2">
<path id="Vector" d="M12 20C16.4183 20 20 16.4183 20 12C20 7.58172 16.4183 4 12 4C7.58172 4 4 7.58172 4 12C4 16.4183 7.58172 20 12 20Z" fill="#F8E7C9"/>
<g id="Group">
<path id="Vector_2" d="M11 15.793C11 15.2656 11.4378 14.8066 11.995 14.8066C12.5522 14.8066 12.99 15.2656 12.99 15.793C12.99 16.3203 12.5522 16.7598 11.995 16.7598C11.4378 16.7598 11 16.3105 11 15.793Z" fill="#F4B13B"/>
<path id="Vector_3" d="M12.9902 7.64844C12.9902 8.18555 12.7912 9.5625 12.5524 11.584L12.3136 13.5957H11.6669L11.428 11.584C11.1892 9.55273 10.9902 8.17578 10.9902 7.64844C10.9902 7.02344 11.3683 6.75977 11.9853 6.75977C12.6022 6.75977 12.9803 7.02344 12.9803 7.64844H12.9902Z" fill="#F4B13B"/>
</g>
</g>
</g>
</svg>
