<svg width="20" height="20" viewBox="0 0 20 20" fill="none" xmlns="http://www.w3.org/2000/svg">
<path d="M7 13.75C7 14.1642 6.66421 14.5 6.25 14.5C5.83579 14.5 5.5 14.1642 5.5 13.75C5.5 13.3358 5.83579 13 6.25 13C6.66421 13 7 13.3358 7 13.75Z" stroke="#6A51CA"/>
<path d="M5.625 7.50686C7.60391 7.4184 9.4708 8.1892 10.7776 9.61707C12.0845 11.0576 12.6943 13.0161 12.4454 15" stroke="#6A51CA" stroke-miterlimit="10" stroke-linecap="round"/>
<path d="M5.625 10.0043C6.87771 9.94765 8.07712 10.4571 8.90338 11.4195C9.72964 12.3818 10.1161 13.6838 9.96952 15" stroke="#6A51CA" stroke-miterlimit="10" stroke-linecap="round"/>
<path d="M5.625 5.01013C8.32544 4.8851 10.8871 5.92285 12.6537 7.8233C14.433 9.73625 15.2658 12.3494 14.9251 15" stroke="#6A51CA" stroke-miterlimit="10" stroke-linecap="round"/>
</svg>
