<svg width="20" height="20" viewBox="0 0 20 20" fill="none" xmlns="http://www.w3.org/2000/svg">
<path d="M6.02861 15.2916C6.76096 15.2916 7.35214 14.7004 7.35214 13.9681C7.35214 13.2357 6.76096 12.6445 6.02861 12.6445C5.29625 12.6445 4.70508 13.2357 4.70508 13.9681C4.70508 14.7004 5.29625 15.2916 6.02861 15.2916Z" fill="#7A7A79"/>
<path d="M17.0588 17.4967C16.9441 17.4967 16.8294 17.4526 16.75 17.3644L2.63235 3.24671C2.45588 3.07907 2.45588 2.79671 2.63235 2.62907C2.80882 2.46142 3.08235 2.45259 3.25 2.62907L17.3676 16.7467C17.5441 16.9232 17.5441 17.1967 17.3676 17.3732C17.2794 17.4614 17.1647 17.5055 17.0588 17.5055V17.4967Z" fill="#7A7A79"/>
<path d="M7.89092 5.38991C9.64681 5.78697 11.2527 6.66932 12.488 7.99285C13.5821 9.16638 14.3056 10.6046 14.6409 12.1399L15.6997 13.1987C15.5145 11.037 14.6233 8.99874 13.1321 7.39285C11.4909 5.62815 9.2321 4.54285 6.81445 4.32227L7.89092 5.39874V5.38991Z" fill="#7A7A79"/>
<path d="M4.94336 7.4375C4.97865 7.61397 5.12865 7.75515 5.2963 7.79044L4.94336 7.4375Z" fill="#7A7A79"/>
<path d="M12.1865 14.6816C12.1865 14.8669 12.1688 15.0522 12.1512 15.2375C12.1247 15.4758 12.2924 15.6963 12.5306 15.7316C12.5482 15.7316 12.5659 15.7316 12.5835 15.7316C12.76 15.7316 12.91 15.6258 12.9806 15.4758L12.1865 14.6816Z" fill="#7A7A79"/>
<path d="M7.44961 9.9436C6.79667 9.66125 6.08197 9.52889 5.34961 9.56419C5.10255 9.57301 4.91726 9.78478 4.92608 10.023C4.93491 10.2701 5.14667 10.473 5.38491 10.4465C6.57608 10.3848 7.72314 10.8877 8.49961 11.7877C9.29373 12.7142 9.66432 13.976 9.52314 15.2465C9.49667 15.4848 9.67314 15.7054 9.91138 15.7318C9.92902 15.7318 9.94667 15.7318 9.96432 15.7318C10.1849 15.7318 10.379 15.5642 10.4055 15.3436C10.5202 14.3289 10.3526 13.3318 9.94667 12.4407L7.44961 9.9436Z" fill="#7A7A79"/>
</svg>
